ISO-10303-21;
HEADER;
FILE_DESCRIPTION (( 'STEP AP203' ),
    '1' );
FILE_NAME ('Corner Bracket for Hinge Door.STEP',
    '2025-10-10T18:29:00',
    ( '' ),
    ( '' ),
    'SwSTEP 2.0',
    'SolidWorks 2025',
    '' );
FILE_SCHEMA (( 'CONFIG_CONTROL_DESIGN' ));
ENDSEC;

DATA;
#1 = ADVANCED_FACE ( 'NONE', ( #585 ), #332, .T. ) ;
#2 = LINE ( 'NONE', #204, #127 ) ;
#3 = AXIS2_PLACEMENT_3D ( 'NONE', #576, #171, #322 ) ;
#4 = LINE ( 'NONE', #487, #397 ) ;
#5 = AXIS2_PLACEMENT_3D ( 'NONE', #476, #42, #424 ) ;
#6 = AXIS2_PLACEMENT_3D ( 'NONE', #81, #558, #317 ) ;
#7 = DIRECTION ( 'NONE',  ( -0.000000000000000000, -0.000000000000000000, 1.000000000000000000 ) ) ;
#8 = PLANE ( 'NONE',  #208 ) ;
#9 = CARTESIAN_POINT ( 'NONE',  ( 26.00000000000000355, -18.00000000000000355, -30.00000000000002132 ) ) ;
#10 = CARTESIAN_POINT ( 'NONE',  ( 0.000000000000000000, -20.00000000000000000, 0.000000000000000000 ) ) ;
#11 = ADVANCED_FACE ( 'NONE', ( #149 ), #259, .F. ) ;
#12 = CARTESIAN_POINT ( 'NONE',  ( 66.00000000000000000, 1.040834085586084257E-14, 0.000000000000000000 ) ) ;
#13 = CARTESIAN_POINT ( 'NONE',  ( 40.99999999999999289, -18.00000000000000355, -21.61999999999999744 ) ) ;
#14 = VECTOR ( 'NONE', #399, 1000.000000000000000 ) ;
#15 = DIRECTION ( 'NONE',  ( 0.000000000000000000, -1.000000000000000000, 0.000000000000000000 ) ) ;
#16 = CALENDAR_DATE ( 2025, 10, 10 ) ;
#17 = ORIENTED_EDGE ( 'NONE', *, *, #123, .F. ) ;
#18 = CARTESIAN_POINT ( 'NONE',  ( 40.99999999999999289, -18.00000000000000355, -24.99999999999999289 ) ) ;
#19 = VERTEX_POINT ( 'NONE', #290 ) ;
#20 = CARTESIAN_POINT ( 'NONE',  ( 66.00000000000000000, -18.00000000000000355, -40.00000000000000000 ) ) ;
#21 = DIRECTION ( 'NONE',  ( 0.7071067811865474617, 0.000000000000000000, -0.7071067811865474617 ) ) ;
#22 = EDGE_CURVE ( 'NONE', #388, #518, #602, .T. ) ;
#23 = DATE_AND_TIME ( #509, #239 ) ;
#24 = VERTEX_POINT ( 'NONE', #198 ) ;
#25 = CARTESIAN_POINT ( 'NONE',  ( 20.00000000000000000, 3.469446951953614189E-15, 0.000000000000000000 ) ) ;
#26 = VECTOR ( 'NONE', #490, 1000.000000000000000 ) ;
#27 = CIRCLE ( 'NONE', #411, 3.000000000000002665 ) ;
#28 = EDGE_CURVE ( 'NONE', #39, #119, #449, .T. ) ;
#29 = SHAPE_DEFINITION_REPRESENTATION ( #535, #258 ) ;
#30 = ORIENTED_EDGE ( 'NONE', *, *, #556, .F. ) ;
#31 = APPROVAL ( #461, 'UNSPECIFIED' ) ;
#32 = APPROVAL_ROLE ( '' ) ;
#33 = ORIENTED_EDGE ( 'NONE', *, *, #622, .F. ) ;
#34 = CARTESIAN_POINT ( 'NONE',  ( 30.00000000000002842, 0.000000000000000000, -46.00000000000000000 ) ) ;
#35 = ADVANCED_FACE ( 'NONE', ( #61 ), #442, .F. ) ;
#36 = ORIENTED_EDGE ( 'NONE', *, *, #248, .T. ) ;
#37 = FACE_OUTER_BOUND ( 'NONE', #374, .T. ) ;
#38 = CIRCLE ( 'NONE', #389, 3.000000000000002665 ) ;
#39 = VERTEX_POINT ( 'NONE', #541 ) ;
#40 = PLANE ( 'NONE',  #136 ) ;
#41 = VERTEX_POINT ( 'NONE', #246 ) ;
#42 = DIRECTION ( 'NONE',  ( 1.000000000000000000, 1.734723475976807094E-16, 0.000000000000000000 ) ) ;
#43 = VERTEX_POINT ( 'NONE', #447 ) ;
#44 = CYLINDRICAL_SURFACE ( 'NONE', #306, 2.999999999999999112 ) ;
#45 = ADVANCED_FACE ( 'NONE', ( #438, #339 ), #392, .T. ) ;
#46 = VECTOR ( 'NONE', #253, 1000.000000000000000 ) ;
#47 = VERTEX_POINT ( 'NONE', #103 ) ;
#48 = VECTOR ( 'NONE', #278, 1000.000000000000000 ) ;
#49 = DIRECTION ( 'NONE',  ( -1.000000000000000000, 0.000000000000000000, -0.000000000000000000 ) ) ;
#50 = CC_DESIGN_DATE_AND_TIME_ASSIGNMENT ( #564, #309, ( #600 ) ) ;
#51 = ORIENTED_EDGE ( 'NONE', *, *, #597, .F. ) ;
#52 = DIRECTION ( 'NONE',  ( -0.7071067811865474617, -0.000000000000000000, 0.7071067811865474617 ) ) ;
#53 = DIRECTION ( 'NONE',  ( -0.000000000000000000, 1.000000000000000000, -0.000000000000000000 ) ) ;
#54 = PERSON ( 'UNSPECIFIED', 'UNSPECIFIED', 'UNSPECIFIED', ('UNSPECIFIED'), ('UNSPECIFIED'), ('UNSPECIFIED') ) ;
#55 = CARTESIAN_POINT ( 'NONE',  ( 0.000000000000000000, 6.000000000000000000, 0.000000000000000000 ) ) ;
#56 = CARTESIAN_POINT ( 'NONE',  ( 40.99999999999999289, -18.00000000000000355, -28.37999999999999190 ) ) ;
#57 = AXIS2_PLACEMENT_3D ( 'NONE', #414, #164, #85 ) ;
#58 = LINE ( 'NONE', #401, #46 ) ;
#59 =( NAMED_UNIT ( * ) PLANE_ANGLE_UNIT ( ) SI_UNIT ( $, .RADIAN. ) );
#60 = EDGE_CURVE ( 'NONE', #190, #78, #2, .T. ) ;
#61 = FACE_OUTER_BOUND ( 'NONE', #466, .T. ) ;
#62 = DIRECTION ( 'NONE',  ( 0.000000000000000000, 1.000000000000000000, 0.000000000000000000 ) ) ;
#63 = ORIENTED_EDGE ( 'NONE', *, *, #369, .T. ) ;
#64 = DIRECTION ( 'NONE',  ( 1.734723475976807094E-16, -1.000000000000000000, -0.000000000000000000 ) ) ;
#65 = APPROVAL_DATE_TIME ( #114, #257 ) ;
#66 = EDGE_LOOP ( 'NONE', ( #367, #30, #63, #522 ) ) ;
#67 = CIRCLE ( 'NONE', #591, 3.000000000000002665 ) ;
#68 =( GEOMETRIC_REPRESENTATION_CONTEXT ( 3 ) GLOBAL_UNCERTAINTY_ASSIGNED_CONTEXT ( ( #540 ) ) GLOBAL_UNIT_ASSIGNED_CONTEXT ( ( #548, #59, #499 ) ) REPRESENTATION_CONTEXT ( 'NONE', 'WORKASPACE' ) );
#69 = LINE ( 'NONE', #74, #327 ) ;
#70 = PERSON_AND_ORGANIZATION ( #54, #185 ) ;
#71 = ORIENTED_EDGE ( 'NONE', *, *, #597, .T. ) ;
#72 = LINE ( 'NONE', #521, #220 ) ;
#73 = EDGE_CURVE ( 'NONE', #90, #300, #293, .T. ) ;
#74 = CARTESIAN_POINT ( 'NONE',  ( 36.00000000000007816, -18.00000000000000355, -40.00000000000000000 ) ) ;
#75 = EDGE_LOOP ( 'NONE', ( #98, #325 ) ) ;
#76 = DIRECTION ( 'NONE',  ( 1.000000000000000000, 0.000000000000000000, 0.000000000000000000 ) ) ;
#77 = PERSON_AND_ORGANIZATION_ROLE ( 'classification_officer' ) ;
#78 = VERTEX_POINT ( 'NONE', #593 ) ;
#79 = APPROVAL ( #173, 'UNSPECIFIED' ) ;
#80 = DIRECTION ( 'NONE',  ( -0.7071067811865465735, 0.000000000000000000, 0.7071067811865483499 ) ) ;
#81 = CARTESIAN_POINT ( 'NONE',  ( 0.000000000000000000, 0.000000000000000000, 0.000000000000000000 ) ) ;
#82 = EDGE_LOOP ( 'NONE', ( #400, #417 ) ) ;
#83 = ADVANCED_FACE ( 'NONE', ( #547 ), #209, .F. ) ;
#84 = ORIENTED_EDGE ( 'NONE', *, *, #524, .F. ) ;
#85 = DIRECTION ( 'NONE',  ( 0.000000000000000000, -1.000000000000000000, 0.000000000000000000 ) ) ;
#86 = VERTEX_POINT ( 'NONE', #101 ) ;
#87 = CARTESIAN_POINT ( 'NONE',  ( 40.99999999999999289, -20.00000000000000000, -28.37999999999999190 ) ) ;
#88 = AXIS2_PLACEMENT_3D ( 'NONE', #197, #594, #289 ) ;
#89 = LOCAL_TIME ( 14, 29, 0.000000000000000000, #517 ) ;
#90 = VERTEX_POINT ( 'NONE', #105 ) ;
#91 = DIRECTION ( 'NONE',  ( 0.000000000000000000, -1.000000000000000000, 0.000000000000000000 ) ) ;
#92 = EDGE_CURVE ( 'NONE', #187, #78, #160, .T. ) ;
#93 = ORIENTED_EDGE ( 'NONE', *, *, #116, .T. ) ;
#94 = PLANE ( 'NONE',  #592 ) ;
#95 = ADVANCED_FACE ( 'NONE', ( #107 ), #110, .F. ) ;
#96 = ORIENTED_EDGE ( 'NONE', *, *, #497, .T. ) ;
#97 = LINE ( 'NONE', #581, #338 ) ;
#98 = ORIENTED_EDGE ( 'NONE', *, *, #556, .T. ) ;
#99 = VECTOR ( 'NONE', #351, 1000.000000000000000 ) ;
#100 = DIRECTION ( 'NONE',  ( -0.7071067811865474617, -0.000000000000000000, 0.7071067811865474617 ) ) ;
#101 = CARTESIAN_POINT ( 'NONE',  ( 20.00000000000000355, -20.00000000000000000, 0.000000000000000000 ) ) ;
#102 = CARTESIAN_POINT ( 'NONE',  ( 66.00000000000000000, 0.000000000000000000, 0.000000000000000000 ) ) ;
#103 = CARTESIAN_POINT ( 'NONE',  ( 53.00000000000000000, -10.00000000000000178, -40.00000000000000000 ) ) ;
#104 = CARTESIAN_POINT ( 'NONE',  ( 40.99999999999999289, -20.00000000000000000, -24.99999999999999289 ) ) ;
#105 = CARTESIAN_POINT ( 'NONE',  ( 25.99999999999999645, 1.040834085586083665E-15, 0.000000000000000000 ) ) ;
#106 = LINE ( 'NONE', #348, #99 ) ;
#107 = FACE_OUTER_BOUND ( 'NONE', #288, .T. ) ;
#108 = ORIENTED_EDGE ( 'NONE', *, *, #109, .T. ) ;
#109 = EDGE_CURVE ( 'NONE', #300, #577, #58, .T. ) ;
#110 = PLANE ( 'NONE',  #516 ) ;
#111 = COORDINATED_UNIVERSAL_TIME_OFFSET ( 5, 0, .BEHIND. ) ;
#112 = ORIENTED_EDGE ( 'NONE', *, *, #578, .F. ) ;
#113 = CARTESIAN_POINT ( 'NONE',  ( 40.99999999999999289, -18.00000000000000355, -24.99999999999999289 ) ) ;
#114 = DATE_AND_TIME ( #224, #356 ) ;
#116 = EDGE_CURVE ( 'NONE', #300, #378, #444, .T. ) ;
#115 = VECTOR ( 'NONE', #609, 1000.000000000000000 ) ;
#117 = CIRCLE ( 'NONE', #5, 2.999999999999999112 ) ;
#118 = DIRECTION ( 'NONE',  ( 1.734723475976807094E-16, -1.000000000000000000, 0.000000000000000000 ) ) ;
#119 = VERTEX_POINT ( 'NONE', #350 ) ;
#120 = PLANE ( 'NONE',  #482 ) ;
#121 = VERTEX_POINT ( 'NONE', #395 ) ;
#122 = DIRECTION ( 'NONE',  ( 1.734723475976807341E-16, -1.000000000000000000, 0.000000000000000000 ) ) ;
#123 = EDGE_CURVE ( 'NONE', #43, #19, #599, .T. ) ;
#124 = ORIENTED_EDGE ( 'NONE', *, *, #464, .F. ) ;
#125 = LINE ( 'NONE', #608, #538 ) ;
#126 = CC_DESIGN_SECURITY_CLASSIFICATION ( #600, ( #525 ) ) ;
#127 = VECTOR ( 'NONE', #342, 1000.000000000000000 ) ;
#128 = ORIENTED_EDGE ( 'NONE', *, *, #60, .F. ) ;
#129 = DIRECTION ( 'NONE',  ( 0.000000000000000000, 0.000000000000000000, 1.000000000000000000 ) ) ;
#130 = ORIENTED_EDGE ( 'NONE', *, *, #92, .T. ) ;
#131 = LINE ( 'NONE', #138, #601 ) ;
#132 = EDGE_LOOP ( 'NONE', ( #228, #143, #371, #314 ) ) ;
#133 = LINE ( 'NONE', #324, #48 ) ;
#134 = EDGE_CURVE ( 'NONE', #39, #459, #302, .T. ) ;
#135 = AXIS2_PLACEMENT_3D ( 'NONE', #543, #201, #155 ) ;
#136 = AXIS2_PLACEMENT_3D ( 'NONE', #537, #91, #276 ) ;
#137 = EDGE_LOOP ( 'NONE', ( #112, #243, #96, #108 ) ) ;
#138 = CARTESIAN_POINT ( 'NONE',  ( 66.00000000000000000, 6.000000000000007105, -46.00000000000000000 ) ) ;
#139 = EDGE_CURVE ( 'NONE', #503, #518, #493, .T. ) ;
#140 = CC_DESIGN_DATE_AND_TIME_ASSIGNMENT ( #624, #359, ( #484 ) ) ;
#141 = ORIENTED_EDGE ( 'NONE', *, *, #181, .F. ) ;
#142 = FACE_OUTER_BOUND ( 'NONE', #235, .T. ) ;
#143 = ORIENTED_EDGE ( 'NONE', *, *, #347, .T. ) ;
#144 = ADVANCED_FACE ( 'NONE', ( #454 ), #120, .T. ) ;
#145 = DIRECTION ( 'NONE',  ( -1.334402673828313093E-16, 1.000000000000000000, -0.000000000000000000 ) ) ;
#146 = DIRECTION ( 'NONE',  ( 1.000000000000000000, 0.000000000000000000, 0.000000000000000000 ) ) ;
#147 = VECTOR ( 'NONE', #489, 1000.000000000000000 ) ;
#148 = CARTESIAN_POINT ( 'NONE',  ( 26.00000000000000355, -18.00000000000000355, 0.000000000000000000 ) ) ;
#149 = FACE_OUTER_BOUND ( 'NONE', #180, .T. ) ;
#150 = CARTESIAN_POINT ( 'NONE',  ( 36.00000000000007105, 6.000000000000000888, -40.00000000000000000 ) ) ;
#151 = DIRECTION ( 'NONE',  ( 1.734723475976807094E-16, -1.000000000000000000, 0.000000000000000000 ) ) ;
#152 = DIRECTION ( 'NONE',  ( -1.734723475976807094E-16, 1.000000000000000000, 0.000000000000000000 ) ) ;
#153 = ORIENTED_EDGE ( 'NONE', *, *, #226, .T. ) ;
#154 = APPLICATION_CONTEXT ( 'configuration controlled 3d designs of mechanical parts and assemblies' ) ;
#155 = DIRECTION ( 'NONE',  ( 1.000000000000000000, 0.000000000000000000, 0.000000000000000000 ) ) ;
#156 = LOCAL_TIME ( 14, 29, 0.000000000000000000, #111 ) ;
#157 = VECTOR ( 'NONE', #151, 1000.000000000000000 ) ;
#158 = ORIENTED_EDGE ( 'NONE', *, *, #159, .T. ) ;
#159 = EDGE_CURVE ( 'NONE', #378, #190, #69, .T. ) ;
#160 = LINE ( 'NONE', #398, #26 ) ;
#161 = LINE ( 'NONE', #639, #626 ) ;
#162 = CARTESIAN_POINT ( 'NONE',  ( 26.00000000000000355, -13.00000000000000533, -10.00000000000000178 ) ) ;
#163 = APPROVAL_STATUS ( 'not_yet_approved' ) ;
#164 = DIRECTION ( 'NONE',  ( -1.000000000000000000, -1.734723475976807094E-16, 0.000000000000000000 ) ) ;
#165 = CARTESIAN_POINT ( 'NONE',  ( 20.00000000000000000, 0.000000000000000000, 0.000000000000000000 ) ) ;
#166 = PERSON_AND_ORGANIZATION ( #54, #185 ) ;
#167 = EDGE_LOOP ( 'NONE', ( #233, #526, #627, #478 ) ) ;
#168 = LINE ( 'NONE', #175, #441 ) ;
#169 = CARTESIAN_POINT ( 'NONE',  ( 66.00000000000000000, 0.000000000000000000, -39.99999999999999289 ) ) ;
#170 = EDGE_LOOP ( 'NONE', ( #426, #513, #273, #36 ) ) ;
#171 = DIRECTION ( 'NONE',  ( 1.000000000000000000, 1.734723475976807094E-16, 0.000000000000000000 ) ) ;
#172 = EDGE_CURVE ( 'NONE', #587, #190, #353, .T. ) ;
#173 = APPROVAL_STATUS ( 'not_yet_approved' ) ;
#174 = VERTEX_POINT ( 'NONE', #165 ) ;
#175 = CARTESIAN_POINT ( 'NONE',  ( 53.00000000000000000, -10.00000000000000178, -66.00000000000000000 ) ) ;
#176 = CALENDAR_DATE ( 2025, 10, 10 ) ;
#177 = VERTEX_POINT ( 'NONE', #162 ) ;
#178 = EDGE_LOOP ( 'NONE', ( #352, #71, #141, #158 ) ) ;
#179 = CYLINDRICAL_SURFACE ( 'NONE', #473, 3.379999999999997673 ) ;
#180 = EDGE_LOOP ( 'NONE', ( #268, #520, #631, #237 ) ) ;
#181 = EDGE_CURVE ( 'NONE', #378, #625, #617, .T. ) ;
#182 = CARTESIAN_POINT ( 'NONE',  ( 26.00000000000000000, 4.510281037539698445E-15, -72.68332812825266842 ) ) ;
#183 = ORIENTED_EDGE ( 'NONE', *, *, #292, .T. ) ;
#184 = CARTESIAN_POINT ( 'NONE',  ( 59.00000000000000711, -10.00000000000000178, -46.00000000000000000 ) ) ;
#185 = ORGANIZATION ( 'UNSPECIFIED', 'UNSPECIFIED', '' ) ;
#186 = VECTOR ( 'NONE', #498, 1000.000000000000000 ) ;
#187 = VERTEX_POINT ( 'NONE', #169 ) ;
#188 = CYLINDRICAL_SURFACE ( 'NONE', #549, 3.379999999999997673 ) ;
#189 = ADVANCED_FACE ( 'NONE', ( #363, #567 ), #557, .T. ) ;
#190 = VERTEX_POINT ( 'NONE', #262 ) ;
#191 = DIRECTION ( 'NONE',  ( 0.000000000000000000, 0.000000000000000000, 1.000000000000000000 ) ) ;
#192 = ORIENTED_EDGE ( 'NONE', *, *, #92, .F. ) ;
#193 = CARTESIAN_POINT ( 'NONE',  ( 25.99999999999999645, 8.673617379883896435E-16, -30.00000000000002132 ) ) ;
#194 = AXIS2_PLACEMENT_3D ( 'NONE', #249, #7, #146 ) ;
#195 = CARTESIAN_POINT ( 'NONE',  ( 40.99999999999999289, -20.00000000000000000, -28.37999999999999190 ) ) ;
#196 = VECTOR ( 'NONE', #100, 1000.000000000000114 ) ;
#197 = CARTESIAN_POINT ( 'NONE',  ( -3.469446951953614189E-15, -10.00000000000001066, -10.00000000000000178 ) ) ;
#198 = CARTESIAN_POINT ( 'NONE',  ( 53.00000000000000000, -10.00000000000000178, -46.00000000000000000 ) ) ;
#199 = CARTESIAN_POINT ( 'NONE',  ( 26.00000000000000355, -20.00000000000000000, 0.000000000000000000 ) ) ;
#200 = EDGE_CURVE ( 'NONE', #518, #503, #380, .T. ) ;
#201 = DIRECTION ( 'NONE',  ( -0.000000000000000000, -0.000000000000000000, 1.000000000000000000 ) ) ;
#202 = EDGE_CURVE ( 'NONE', #78, #43, #357, .T. ) ;
#203 = CARTESIAN_POINT ( 'NONE',  ( 59.00000000000000711, -10.00000000000000178, -40.00000000000000000 ) ) ;
#204 = CARTESIAN_POINT ( 'NONE',  ( 66.00000000000000000, -18.00000000000000355, -40.00000000000000000 ) ) ;
#205 = AXIS2_PLACEMENT_3D ( 'NONE', #113, #304, #505 ) ;
#206 = CYLINDRICAL_SURFACE ( 'NONE', #88, 2.999999999999999112 ) ;
#207 = EDGE_LOOP ( 'NONE', ( #376, #282 ) ) ;
#208 = AXIS2_PLACEMENT_3D ( 'NONE', #150, #542, #152 ) ;
#209 = CYLINDRICAL_SURFACE ( 'NONE', #135, 3.000000000000002665 ) ;
#210 = PERSON_AND_ORGANIZATION ( #54, #185 ) ;
#211 = DIRECTION ( 'NONE',  ( 0.000000000000000000, -0.000000000000000000, 1.000000000000000000 ) ) ;
#212 = CARTESIAN_POINT ( 'NONE',  ( 26.00000000000000355, -18.00000000000000355, 0.000000000000000000 ) ) ;
#213 = ORIENTED_EDGE ( 'NONE', *, *, #22, .T. ) ;
#214 = DIRECTION ( 'NONE',  ( -1.000000000000000000, 0.000000000000000000, 0.000000000000000000 ) ) ;
#215 = DIRECTION ( 'NONE',  ( 0.000000000000000000, 0.000000000000000000, 1.000000000000000000 ) ) ;
#216 = PERSON_AND_ORGANIZATION ( #54, #185 ) ;
#217 = ORIENTED_EDGE ( 'NONE', *, *, #622, .T. ) ;
#218 = AXIS2_PLACEMENT_3D ( 'NONE', #563, #606, #118 ) ;
#219 = DIRECTION ( 'NONE',  ( -1.000000000000000000, -1.734723475976807094E-16, 0.000000000000000000 ) ) ;
#220 = VECTOR ( 'NONE', #214, 1000.000000000000000 ) ;
#221 = APPLICATION_PROTOCOL_DEFINITION ( 'international standard', 'config_control_design', 1994, #501 ) ;
#222 = ORIENTED_EDGE ( 'NONE', *, *, #159, .F. ) ;
#223 = DIRECTION ( 'NONE',  ( 0.000000000000000000, -1.000000000000000000, 0.000000000000000000 ) ) ;
#224 = CALENDAR_DATE ( 2025, 10, 10 ) ;
#225 = ORIENTED_EDGE ( 'NONE', *, *, #347, .F. ) ;
#226 = EDGE_CURVE ( 'NONE', #360, #446, #125, .T. ) ;
#227 = CARTESIAN_POINT ( 'NONE',  ( 40.99999999999999289, -20.00000000000000000, -24.99999999999999289 ) ) ;
#228 = ORIENTED_EDGE ( 'NONE', *, *, #28, .T. ) ;
#229 = APPROVAL_PERSON_ORGANIZATION ( #303, #31, #554 ) ;
#230 = DIRECTION ( 'NONE',  ( -0.000000000000000000, 1.000000000000000000, -0.000000000000000000 ) ) ;
#231 = VECTOR ( 'NONE', #53, 1000.000000000000000 ) ;
#232 = EDGE_CURVE ( 'NONE', #462, #24, #67, .T. ) ;
#233 = ORIENTED_EDGE ( 'NONE', *, *, #292, .F. ) ;
#234 = CARTESIAN_POINT ( 'NONE',  ( 66.00000000000000000, 6.000000000000006217, -40.00000000000000000 ) ) ;
#235 = EDGE_LOOP ( 'NONE', ( #225, #277, #364, #285 ) ) ;
#236 = PLANE ( 'NONE',  #615 ) ;
#237 = ORIENTED_EDGE ( 'NONE', *, *, #311, .F. ) ;
#238 = DIRECTION ( 'NONE',  ( -0.000000000000000000, 1.000000000000000000, -0.000000000000000000 ) ) ;
#239 = LOCAL_TIME ( 14, 29, 0.000000000000000000, #568 ) ;
#240 = EDGE_CURVE ( 'NONE', #187, #587, #372, .T. ) ;
#241 = ORIENTED_EDGE ( 'NONE', *, *, #60, .T. ) ;
#242 = DIRECTION ( 'NONE',  ( -1.734723475976806601E-16, 1.000000000000000000, 0.000000000000000000 ) ) ;
#243 = ORIENTED_EDGE ( 'NONE', *, *, #202, .F. ) ;
#244 = CARTESIAN_POINT ( 'NONE',  ( 20.00000000000000000, 0.000000000000000000, -35.99999999999997158 ) ) ;
#245 = MANIFOLD_SOLID_BREP ( 'Cut-Extrude12', #269 ) ;
#246 = CARTESIAN_POINT ( 'NONE',  ( 40.99999999999999289, -20.00000000000000000, -21.61999999999999744 ) ) ;
#247 = CARTESIAN_POINT ( 'NONE',  ( 26.00000000000000000, 1.040834085586084454E-15, -72.68332812825266842 ) ) ;
#248 = EDGE_CURVE ( 'NONE', #621, #47, #38, .T. ) ;
#249 = CARTESIAN_POINT ( 'NONE',  ( 56.00000000000000000, -10.00000000000000178, -66.00000000000000000 ) ) ;
#250 = CC_DESIGN_APPROVAL ( #257, ( #484 ) ) ;
#251 = DIRECTION ( 'NONE',  ( 0.000000000000000000, 0.000000000000000000, 1.000000000000000000 ) ) ;
#252 = EDGE_CURVE ( 'NONE', #459, #177, #561, .T. ) ;
#253 = DIRECTION ( 'NONE',  ( 0.000000000000000000, -1.000000000000000000, 0.000000000000000000 ) ) ;
#254 = ORIENTED_EDGE ( 'NONE', *, *, #533, .F. ) ;
#255 = PRODUCT_RELATED_PRODUCT_CATEGORY ( 'detail', '', ( #546 ) ) ;
#256 = DIRECTION ( 'NONE',  ( -1.000000000000000000, -1.334402673828313093E-16, 0.000000000000000000 ) ) ;
#257 = APPROVAL ( #163, 'UNSPECIFIED' ) ;
#258 = ADVANCED_BREP_SHAPE_REPRESENTATION ( 'Corner Bracket for Hinge Door', ( #245, #6 ), #68 ) ;
#259 = CYLINDRICAL_SURFACE ( 'NONE', #194, 3.000000000000002665 ) ;
#260 = PERSON_AND_ORGANIZATION ( #54, #185 ) ;
#261 = VECTOR ( 'NONE', #551, 1000.000000000000000 ) ;
#262 = CARTESIAN_POINT ( 'NONE',  ( 36.00000000000007816, -18.00000000000000355, -40.00000000000000000 ) ) ;
#263 = COORDINATED_UNIVERSAL_TIME_OFFSET ( 5, 0, .BEHIND. ) ;
#264 = ORIENTED_EDGE ( 'NONE', *, *, #365, .T. ) ;
#265 = CARTESIAN_POINT ( 'NONE',  ( 36.00000000000007816, -20.00000000000000000, -40.00000000000000000 ) ) ;
#266 = EDGE_LOOP ( 'NONE', ( #475, #382 ) ) ;
#267 = CARTESIAN_POINT ( 'NONE',  ( 56.00000000000000000, -10.00000000000000178, -40.00000000000000000 ) ) ;
#268 = ORIENTED_EDGE ( 'NONE', *, *, #316, .F. ) ;
#269 = CLOSED_SHELL ( 'NONE', ( #384, #11, #545, #477, #429, #572, #419, #1, #95, #189, #45, #35, #144, #406, #453, #83, #341, #431 ) ) ;
#270 = CARTESIAN_POINT ( 'NONE',  ( -2.949029909160572061E-15, -13.00000000000001066, -10.00000000000000178 ) ) ;
#271 = VECTOR ( 'NONE', #307, 1000.000000000000000 ) ;
#272 = EDGE_CURVE ( 'NONE', #174, #86, #319, .T. ) ;
#273 = ORIENTED_EDGE ( 'NONE', *, *, #311, .T. ) ;
#274 = DIRECTION ( 'NONE',  ( 1.000000000000000000, 1.734723475976807094E-16, -0.000000000000000000 ) ) ;
#275 = ORIENTED_EDGE ( 'NONE', *, *, #283, .F. ) ;
#276 = DIRECTION ( 'NONE',  ( 0.000000000000000000, -0.000000000000000000, -1.000000000000000000 ) ) ;
#277 = ORIENTED_EDGE ( 'NONE', *, *, #301, .T. ) ;
#278 = DIRECTION ( 'NONE',  ( 0.000000000000000000, 0.000000000000000000, 1.000000000000000000 ) ) ;
#279 = AXIS2_PLACEMENT_3D ( 'NONE', #636, #532, #64 ) ;
#280 = ORIENTED_EDGE ( 'NONE', *, *, #109, .F. ) ;
#281 = DIRECTION ( 'NONE',  ( 1.734723475976807094E-16, -1.000000000000000000, -0.000000000000000000 ) ) ;
#282 = ORIENTED_EDGE ( 'NONE', *, *, #316, .T. ) ;
#283 = EDGE_CURVE ( 'NONE', #19, #536, #72, .T. ) ;
#284 = FACE_OUTER_BOUND ( 'NONE', #66, .T. ) ;
#285 = ORIENTED_EDGE ( 'NONE', *, *, #252, .T. ) ;
#286 = FACE_OUTER_BOUND ( 'NONE', #452, .T. ) ;
#287 = VECTOR ( 'NONE', #52, 1000.000000000000114 ) ;
#288 = EDGE_LOOP ( 'NONE', ( #552, #629, #506, #318, #280 ) ) ;
#289 = DIRECTION ( 'NONE',  ( -1.734723475976806601E-16, 1.000000000000000000, 0.000000000000000000 ) ) ;
#290 = CARTESIAN_POINT ( 'NONE',  ( 66.00000000000000000, -19.99999999999999289, -46.00000000000000000 ) ) ;
#291 = FACE_OUTER_BOUND ( 'NONE', #132, .T. ) ;
#292 = EDGE_CURVE ( 'NONE', #121, #360, #467, .T. ) ;
#293 = LINE ( 'NONE', #550, #157 ) ;
#294 = CARTESIAN_POINT ( 'NONE',  ( 30.00000000000002842, -20.00000000000000000, -46.00000000000000000 ) ) ;
#295 = ORIENTED_EDGE ( 'NONE', *, *, #123, .T. ) ;
#296 = DIRECTION ( 'NONE',  ( 0.000000000000000000, 0.000000000000000000, -1.000000000000000000 ) ) ;
#297 = CC_DESIGN_PERSON_AND_ORGANIZATION_ASSIGNMENT ( #70, #354, ( #525 ) ) ;
#298 = CARTESIAN_POINT ( 'NONE',  ( 26.00000000000000355, -20.00000000000000000, 0.000000000000000000 ) ) ;
#299 = DIRECTION ( 'NONE',  ( -0.000000000000000000, -0.000000000000000000, -1.000000000000000000 ) ) ;
#300 = VERTEX_POINT ( 'NONE', #623 ) ;
#301 = EDGE_CURVE ( 'NONE', #119, #39, #460, .T. ) ;
#302 = LINE ( 'NONE', #500, #560 ) ;
#303 = PERSON_AND_ORGANIZATION ( #54, #185 ) ;
#304 = DIRECTION ( 'NONE',  ( 0.000000000000000000, 1.000000000000000000, 0.000000000000000000 ) ) ;
#305 = VECTOR ( 'NONE', #418, 1000.000000000000000 ) ;
#306 = AXIS2_PLACEMENT_3D ( 'NONE', #637, #427, #242 ) ;
#307 = DIRECTION ( 'NONE',  ( -0.000000000000000000, -0.000000000000000000, 1.000000000000000000 ) ) ;
#308 = DIRECTION ( 'NONE',  ( 0.000000000000000000, 1.000000000000000000, 0.000000000000000000 ) ) ;
#309 = DATE_TIME_ROLE ( 'classification_date' ) ;
#310 = ORIENTED_EDGE ( 'NONE', *, *, #172, .T. ) ;
#311 = EDGE_CURVE ( 'NONE', #462, #621, #559, .T. ) ;
#312 = DIRECTION ( 'NONE',  ( 0.7071067811865507924, -0.000000000000000000, -0.7071067811865441310 ) ) ;
#313 = APPROVAL_ROLE ( '' ) ;
#314 = ORIENTED_EDGE ( 'NONE', *, *, #134, .F. ) ;
#315 = DIRECTION ( 'NONE',  ( 1.000000000000000000, 1.734723475976807341E-16, 0.000000000000000000 ) ) ;
#316 = EDGE_CURVE ( 'NONE', #24, #462, #27, .T. ) ;
#317 = DIRECTION ( 'NONE',  ( 1.000000000000000000, 0.000000000000000000, 0.000000000000000000 ) ) ;
#318 = ORIENTED_EDGE ( 'NONE', *, *, #584, .T. ) ;
#319 = LINE ( 'NONE', #25, #494 ) ;
#320 = CIRCLE ( 'NONE', #345, 3.000000000000002665 ) ;
#321 = ORIENTED_EDGE ( 'NONE', *, *, #595, .F. ) ;
#322 = DIRECTION ( 'NONE',  ( 0.000000000000000000, 1.000000000000000000, 0.000000000000000000 ) ) ;
#323 = EDGE_LOOP ( 'NONE', ( #335, #423 ) ) ;
#324 = CARTESIAN_POINT ( 'NONE',  ( 20.00000000000000355, -20.00000000000000000, -72.68332812825266842 ) ) ;
#325 = ORIENTED_EDGE ( 'NONE', *, *, #362, .T. ) ;
#326 = FACE_OUTER_BOUND ( 'NONE', #428, .T. ) ;
#327 = VECTOR ( 'NONE', #312, 1000.000000000000000 ) ;
#328 = VECTOR ( 'NONE', #251, 1000.000000000000000 ) ;
#329 = CC_DESIGN_APPROVAL ( #79, ( #600 ) ) ;
#330 = EDGE_LOOP ( 'NONE', ( #349, #580, #605, #638 ) ) ;
#331 = CARTESIAN_POINT ( 'NONE',  ( 26.00000000000000355, -18.00000000000000355, -30.00000000000002132 ) ) ;
#332 = PLANE ( 'NONE',  #279 ) ;
#333 = DIRECTION ( 'NONE',  ( 0.000000000000000000, 0.000000000000000000, 1.000000000000000000 ) ) ;
#334 = EDGE_CURVE ( 'NONE', #24, #47, #168, .T. ) ;
#335 = ORIENTED_EDGE ( 'NONE', *, *, #139, .F. ) ;
#336 = FACE_BOUND ( 'NONE', #434, .T. ) ;
#337 = VECTOR ( 'NONE', #409, 1000.000000000000000 ) ;
#338 = VECTOR ( 'NONE', #281, 1000.000000000000000 ) ;
#339 = FACE_OUTER_BOUND ( 'NONE', #571, .T. ) ;
#340 = LINE ( 'NONE', #102, #328 ) ;
#341 = ADVANCED_FACE ( 'NONE', ( #361 ), #366, .F. ) ;
#342 = DIRECTION ( 'NONE',  ( 1.000000000000000000, -0.000000000000000000, -0.000000000000000000 ) ) ;
#343 = LINE ( 'NONE', #10, #14 ) ;
#344 = DIRECTION ( 'NONE',  ( 0.000000000000000000, -1.000000000000000000, 0.000000000000000000 ) ) ;
#345 = AXIS2_PLACEMENT_3D ( 'NONE', #523, #191, #632 ) ;
#346 = CARTESIAN_POINT ( 'NONE',  ( 66.00000000000000000, -19.99999999999999289, -46.00000000000000000 ) ) ;
#347 = EDGE_CURVE ( 'NONE', #119, #177, #514, .T. ) ;
#348 = CARTESIAN_POINT ( 'NONE',  ( 30.00000000000002842, 1.734723475976812025E-15, -46.00000000000000000 ) ) ;
#349 = ORIENTED_EDGE ( 'NONE', *, *, #226, .F. ) ;
#350 = CARTESIAN_POINT ( 'NONE',  ( 20.00000000000000355, -13.00000000000000711, -10.00000000000000178 ) ) ;
#351 = DIRECTION ( 'NONE',  ( -1.734723475976807094E-16, 1.000000000000000000, 0.000000000000000000 ) ) ;
#352 = ORIENTED_EDGE ( 'NONE', *, *, #172, .F. ) ;
#353 = LINE ( 'NONE', #265, #337 ) ;
#354 = PERSON_AND_ORGANIZATION_ROLE ( 'creator' ) ;
#355 = CARTESIAN_POINT ( 'NONE',  ( 59.00000000000000711, -10.00000000000000178, -66.00000000000000000 ) ) ;
#356 = LOCAL_TIME ( 14, 29, 0.000000000000000000, #458 ) ;
#357 = LINE ( 'NONE', #20, #573 ) ;
#358 = VECTOR ( 'NONE', #219, 1000.000000000000000 ) ;
#359 = DATE_TIME_ROLE ( 'creation_date' ) ;
#360 = VERTEX_POINT ( 'NONE', #34 ) ;
#361 = FACE_OUTER_BOUND ( 'NONE', #480, .T. ) ;
#362 = EDGE_CURVE ( 'NONE', #388, #41, #539, .T. ) ;
#363 = FACE_OUTER_BOUND ( 'NONE', #486, .T. ) ;
#364 = ORIENTED_EDGE ( 'NONE', *, *, #134, .T. ) ;
#365 = EDGE_CURVE ( 'NONE', #470, #86, #133, .T. ) ;
#366 = PLANE ( 'NONE',  #562 ) ;
#367 = ORIENTED_EDGE ( 'NONE', *, *, #22, .F. ) ;
#368 = DIRECTION ( 'NONE',  ( 1.000000000000000000, 0.000000000000000000, 0.000000000000000000 ) ) ;
#369 = EDGE_CURVE ( 'NONE', #41, #503, #383, .T. ) ;
#370 = EDGE_CURVE ( 'NONE', #47, #621, #320, .T. ) ;
#371 = ORIENTED_EDGE ( 'NONE', *, *, #464, .T. ) ;
#372 = LINE ( 'NONE', #511, #305 ) ;
#373 = VECTOR ( 'NONE', #604, 1000.000000000000000 ) ;
#374 = EDGE_LOOP ( 'NONE', ( #192, #555, #310, #241 ) ) ;
#375 = FACE_BOUND ( 'NONE', #207, .T. ) ;
#376 = ORIENTED_EDGE ( 'NONE', *, *, #232, .T. ) ;
#377 = FACE_OUTER_BOUND ( 'NONE', #167, .T. ) ;
#378 = VERTEX_POINT ( 'NONE', #331 ) ;
#379 = DIRECTION ( 'NONE',  ( 1.734723475976807094E-16, -1.000000000000000000, 0.000000000000000000 ) ) ;
#380 = CIRCLE ( 'NONE', #205, 3.379999999999997673 ) ;
#381 = VECTOR ( 'NONE', #274, 1000.000000000000000 ) ;
#382 = ORIENTED_EDGE ( 'NONE', *, *, #301, .F. ) ;
#383 = LINE ( 'NONE', #387, #425 ) ;
#384 = ADVANCED_FACE ( 'NONE', ( #286 ), #179, .F. ) ;
#385 = CC_DESIGN_PERSON_AND_ORGANIZATION_ASSIGNMENT ( #210, #620, ( #525 ) ) ;
#386 = ORIENTED_EDGE ( 'NONE', *, *, #485, .T. ) ;
#387 = CARTESIAN_POINT ( 'NONE',  ( 40.99999999999999289, -20.00000000000000000, -21.61999999999999744 ) ) ;
#388 = VERTEX_POINT ( 'NONE', #87 ) ;
#389 = AXIS2_PLACEMENT_3D ( 'NONE', #267, #129, #76 ) ;
#390 = CARTESIAN_POINT ( 'NONE',  ( 0.000000000000000000, -20.00000000000000000, -72.68332812825266842 ) ) ;
#391 = DIRECTION ( 'NONE',  ( 0.000000000000000000, 0.000000000000000000, 1.000000000000000000 ) ) ;
#392 = PLANE ( 'NONE',  #440 ) ;
#393 = CARTESIAN_POINT ( 'NONE',  ( 131.0538238691623576, 1.926476753628294866E-14, 0.000000000000000000 ) ) ;
#394 = CC_DESIGN_PERSON_AND_ORGANIZATION_ASSIGNMENT ( #610, #607, ( #546 ) ) ;
#395 = CARTESIAN_POINT ( 'NONE',  ( 66.00000000000000000, 0.000000000000000000, -46.00000000000000000 ) ) ;
#396 = VECTOR ( 'NONE', #299, 1000.000000000000000 ) ;
#397 = VECTOR ( 'NONE', #443, 1000.000000000000114 ) ;
#398 = CARTESIAN_POINT ( 'NONE',  ( 66.00000000000000000, 6.000000000000006217, -40.00000000000000000 ) ) ;
#399 = DIRECTION ( 'NONE',  ( 1.000000000000000000, 0.000000000000000000, 0.000000000000000000 ) ) ;
#400 = ORIENTED_EDGE ( 'NONE', *, *, #248, .F. ) ;
#401 = CARTESIAN_POINT ( 'NONE',  ( 26.00000000000000355, -18.00000000000000355, 0.000000000000000000 ) ) ;
#402 = CALENDAR_DATE ( 2025, 10, 10 ) ;
#403 = CARTESIAN_POINT ( 'NONE',  ( 7.824090399073147405E-31, -4.510281037539699234E-15, -46.00000000000000000 ) ) ;
#404 = DESIGN_CONTEXT ( 'detailed design', #154, 'design' ) ;
#405 = CARTESIAN_POINT ( 'NONE',  ( 26.00000000000000000, 5.999999999999999112, -30.00000000000002132 ) ) ;
#406 = ADVANCED_FACE ( 'NONE', ( #469, #326 ), #40, .F. ) ;
#407 = ORIENTED_EDGE ( 'NONE', *, *, #369, .F. ) ;
#408 = CARTESIAN_POINT ( 'NONE',  ( 56.00000000000000000, -10.00000000000000178, -46.00000000000000000 ) ) ;
#409 = DIRECTION ( 'NONE',  ( 1.734723475976807094E-16, -1.000000000000000000, 0.000000000000000000 ) ) ;
#410 = AXIS2_PLACEMENT_3D ( 'NONE', #12, #256, #596 ) ;
#411 = AXIS2_PLACEMENT_3D ( 'NONE', #408, #619, #612 ) ;
#412 = SECURITY_CLASSIFICATION_LEVEL ( 'unclassified' ) ;
#413 = ORIENTED_EDGE ( 'NONE', *, *, #365, .F. ) ;
#414 = CARTESIAN_POINT ( 'NONE',  ( 20.00000000000000355, -10.00000000000000711, -10.00000000000000178 ) ) ;
#415 = CC_DESIGN_PERSON_AND_ORGANIZATION_ASSIGNMENT ( #260, #77, ( #600 ) ) ;
#416 = PERSON_AND_ORGANIZATION_ROLE ( 'creator' ) ;
#417 = ORIENTED_EDGE ( 'NONE', *, *, #370, .F. ) ;
#418 = DIRECTION ( 'NONE',  ( -1.000000000000000000, 0.000000000000000000, 0.000000000000000000 ) ) ;
#419 = ADVANCED_FACE ( 'NONE', ( #375, #377 ), #94, .F. ) ;
#420 = DATE_AND_TIME ( #176, #89 ) ;
#421 = ORIENTED_EDGE ( 'NONE', *, *, #240, .F. ) ;
#422 = DIRECTION ( 'NONE',  ( 0.000000000000000000, 1.000000000000000000, 0.000000000000000000 ) ) ;
#423 = ORIENTED_EDGE ( 'NONE', *, *, #200, .F. ) ;
#424 = DIRECTION ( 'NONE',  ( 0.000000000000000000, 1.000000000000000000, 0.000000000000000000 ) ) ;
#425 = VECTOR ( 'NONE', #238, 1000.000000000000000 ) ;
#426 = ORIENTED_EDGE ( 'NONE', *, *, #334, .F. ) ;
#427 = DIRECTION ( 'NONE',  ( 1.000000000000000000, 1.734723475976807094E-16, -0.000000000000000000 ) ) ;
#428 = EDGE_LOOP ( 'NONE', ( #432, #565, #128, #222 ) ) ;
#429 = ADVANCED_FACE ( 'NONE', ( #579, #37 ), #528, .F. ) ;
#430 = DIRECTION ( 'NONE',  ( -1.000000000000000000, -1.734723475976807094E-16, 0.000000000000000000 ) ) ;
#431 = ADVANCED_FACE ( 'NONE', ( #284 ), #188, .F. ) ;
#432 = ORIENTED_EDGE ( 'NONE', *, *, #116, .F. ) ;
#433 = DIRECTION ( 'NONE',  ( 0.000000000000000000, 0.000000000000000000, 1.000000000000000000 ) ) ;
#434 = EDGE_LOOP ( 'NONE', ( #510, #124 ) ) ;
#435 = DIRECTION ( 'NONE',  ( -0.000000000000000000, 1.000000000000000000, -0.000000000000000000 ) ) ;
#436 = ORIENTED_EDGE ( 'NONE', *, *, #584, .F. ) ;
#437 = LINE ( 'NONE', #148, #196 ) ;
#438 = FACE_BOUND ( 'NONE', #75, .T. ) ;
#439 = LINE ( 'NONE', #298, #287 ) ;
#440 = AXIS2_PLACEMENT_3D ( 'NONE', #390, #15, #553 ) ;
#441 = VECTOR ( 'NONE', #519, 1000.000000000000000 ) ;
#442 = PLANE ( 'NONE',  #410 ) ;
#443 = DIRECTION ( 'NONE',  ( 0.7071067811865465735, 0.000000000000000000, -0.7071067811865483499 ) ) ;
#444 = LINE ( 'NONE', #9, #186 ) ;
#445 = FACE_OUTER_BOUND ( 'NONE', #178, .T. ) ;
#446 = VERTEX_POINT ( 'NONE', #534 ) ;
#447 = CARTESIAN_POINT ( 'NONE',  ( 66.00000000000000000, -20.00000000000000000, -40.00000000000000000 ) ) ;
#448 = ORIENTED_EDGE ( 'NONE', *, *, #524, .T. ) ;
#449 = CIRCLE ( 'NONE', #471, 2.999999999999999112 ) ;
#450 = CARTESIAN_POINT ( 'NONE',  ( 20.00000000000000355, -10.00000000000000711, -10.00000000000000178 ) ) ;
#451 = PERSON_AND_ORGANIZATION ( #54, #185 ) ;
#452 = EDGE_LOOP ( 'NONE', ( #575, #213, #611, #407 ) ) ;
#453 = ADVANCED_FACE ( 'NONE', ( #142 ), #44, .F. ) ;
#454 = FACE_OUTER_BOUND ( 'NONE', #137, .T. ) ;
#455 = APPROVAL_DATE_TIME ( #23, #79 ) ;
#456 = EDGE_LOOP ( 'NONE', ( #589, #448, #468, #93 ) ) ;
#457 = DIRECTION ( 'NONE',  ( 1.000000000000000000, 1.734723475976807094E-16, -0.000000000000000000 ) ) ;
#458 = COORDINATED_UNIVERSAL_TIME_OFFSET ( 5, 0, .BEHIND. ) ;
#459 = VERTEX_POINT ( 'NONE', #583 ) ;
#460 = CIRCLE ( 'NONE', #57, 2.999999999999999112 ) ;
#461 = APPROVAL_STATUS ( 'not_yet_approved' ) ;
#462 = VERTEX_POINT ( 'NONE', #184 ) ;
#463 = EDGE_CURVE ( 'NONE', #446, #470, #97, .T. ) ;
#464 = EDGE_CURVE ( 'NONE', #177, #459, #117, .T. ) ;
#465 = APPLICATION_PROTOCOL_DEFINITION ( 'international standard', 'config_control_design', 1994, #154 ) ;
#466 = EDGE_LOOP ( 'NONE', ( #569, #633, #130, #492, #295 ) ) ;
#467 = LINE ( 'NONE', #403, #358 ) ;
#468 = ORIENTED_EDGE ( 'NONE', *, *, #73, .T. ) ;
#469 = FACE_BOUND ( 'NONE', #323, .T. ) ;
#470 = VERTEX_POINT ( 'NONE', #628 ) ;
#471 = AXIS2_PLACEMENT_3D ( 'NONE', #450, #488, #344 ) ;
#472 = DIRECTION ( 'NONE',  ( 0.000000000000000000, 0.000000000000000000, 1.000000000000000000 ) ) ;
#473 = AXIS2_PLACEMENT_3D ( 'NONE', #531, #435, #472 ) ;
#474 = EDGE_CURVE ( 'NONE', #19, #121, #131, .T. ) ;
#475 = ORIENTED_EDGE ( 'NONE', *, *, #28, .F. ) ;
#476 = CARTESIAN_POINT ( 'NONE',  ( 26.00000000000000355, -10.00000000000000533, -10.00000000000000178 ) ) ;
#477 = ADVANCED_FACE ( 'NONE', ( #336, #630 ), #236, .F. ) ;
#478 = ORIENTED_EDGE ( 'NONE', *, *, #603, .T. ) ;
#479 = CARTESIAN_POINT ( 'NONE',  ( 40.99999999999999289, -20.00000000000000000, -24.99999999999999289 ) ) ;
#480 = EDGE_LOOP ( 'NONE', ( #51, #421, #254, #183, #153, #217, #321, #84 ) ) ;
#481 = DIRECTION ( 'NONE',  ( 0.000000000000000000, -0.000000000000000000, 1.000000000000000000 ) ) ;
#482 = AXIS2_PLACEMENT_3D ( 'NONE', #212, #508, #21 ) ;
#483 = CIRCLE ( 'NONE', #574, 3.379999999999997673 ) ;
#484 = PRODUCT_DEFINITION ( 'UNKNOWN', '', #525, #404 ) ;
#485 = EDGE_CURVE ( 'NONE', #470, #536, #4, .T. ) ;
#486 = EDGE_LOOP ( 'NONE', ( #33, #618, #264, #582 ) ) ;
#487 = CARTESIAN_POINT ( 'NONE',  ( 28.34166406412638395, -20.00000000000000000, -44.34166406412634842 ) ) ;
#488 = DIRECTION ( 'NONE',  ( -1.000000000000000000, -1.734723475976807094E-16, 0.000000000000000000 ) ) ;
#489 = DIRECTION ( 'NONE',  ( 0.000000000000000000, 0.000000000000000000, 1.000000000000000000 ) ) ;
#490 = DIRECTION ( 'NONE',  ( 1.334402673828313339E-16, -1.000000000000000000, 0.000000000000000000 ) ) ;
#491 = LINE ( 'NONE', #244, #147 ) ;
#492 = ORIENTED_EDGE ( 'NONE', *, *, #202, .T. ) ;
#493 = CIRCLE ( 'NONE', #614, 3.379999999999997673 ) ;
#494 = VECTOR ( 'NONE', #507, 1000.000000000000000 ) ;
#495 = DIRECTION ( 'NONE',  ( -1.000000000000000000, 0.000000000000000000, -0.000000000000000000 ) ) ;
#496 = LINE ( 'NONE', #393, #373 ) ;
#497 = EDGE_CURVE ( 'NONE', #78, #300, #437, .T. ) ;
#498 = DIRECTION ( 'NONE',  ( -0.000000000000000000, -0.000000000000000000, -1.000000000000000000 ) ) ;
#499 =( NAMED_UNIT ( * ) SI_UNIT ( $, .STERADIAN. ) SOLID_ANGLE_UNIT ( ) );
#500 = CARTESIAN_POINT ( 'NONE',  ( -3.989863994746656317E-15, -7.000000000000011546, -10.00000000000000178 ) ) ;
#501 = APPLICATION_CONTEXT ( 'configuration controlled 3d designs of mechanical parts and assemblies' ) ;
#502 = APPROVAL_DATE_TIME ( #420, #31 ) ;
#503 = VERTEX_POINT ( 'NONE', #13 ) ;
#504 = CC_DESIGN_APPROVAL ( #31, ( #525 ) ) ;
#505 = DIRECTION ( 'NONE',  ( 0.000000000000000000, 0.000000000000000000, 1.000000000000000000 ) ) ;
#506 = ORIENTED_EDGE ( 'NONE', *, *, #272, .T. ) ;
#507 = DIRECTION ( 'NONE',  ( 1.734723475976807094E-16, -1.000000000000000000, 0.000000000000000000 ) ) ;
#508 = DIRECTION ( 'NONE',  ( 0.7071067811865475727, 0.000000000000000000, 0.7071067811865475727 ) ) ;
#509 = CALENDAR_DATE ( 2025, 10, 10 ) ;
#510 = ORIENTED_EDGE ( 'NONE', *, *, #252, .F. ) ;
#511 = CARTESIAN_POINT ( 'NONE',  ( 66.00000000000000000, 0.000000000000000000, -40.00000000000000000 ) ) ;
#512 = MECHANICAL_CONTEXT ( 'NONE', #501, 'mechanical' ) ;
#513 = ORIENTED_EDGE ( 'NONE', *, *, #232, .F. ) ;
#514 = LINE ( 'NONE', #270, #381 ) ;
#515 = APPROVAL_PERSON_ORGANIZATION ( #166, #257, #32 ) ;
#516 = AXIS2_PLACEMENT_3D ( 'NONE', #55, #296, #495 ) ;
#517 = COORDINATED_UNIVERSAL_TIME_OFFSET ( 5, 0, .BEHIND. ) ;
#518 = VERTEX_POINT ( 'NONE', #56 ) ;
#519 = DIRECTION ( 'NONE',  ( -0.000000000000000000, -0.000000000000000000, 1.000000000000000000 ) ) ;
#520 = ORIENTED_EDGE ( 'NONE', *, *, #334, .T. ) ;
#521 = CARTESIAN_POINT ( 'NONE',  ( 0.000000000000000000, -20.00000000000000000, -46.00000000000000000 ) ) ;
#522 = ORIENTED_EDGE ( 'NONE', *, *, #139, .T. ) ;
#523 = CARTESIAN_POINT ( 'NONE',  ( 56.00000000000000000, -10.00000000000000178, -40.00000000000000000 ) ) ;
#524 = EDGE_CURVE ( 'NONE', #625, #90, #598, .T. ) ;
#525 = PRODUCT_DEFINITION_FORMATION_WITH_SPECIFIED_SOURCE ( 'ANY', '', #546, .NOT_KNOWN. ) ;
#526 = ORIENTED_EDGE ( 'NONE', *, *, #474, .F. ) ;
#527 = AXIS2_PLACEMENT_3D ( 'NONE', #234, #588, #49 ) ;
#528 = PLANE ( 'NONE',  #527 ) ;
#529 = CC_DESIGN_PERSON_AND_ORGANIZATION_ASSIGNMENT ( #216, #416, ( #484 ) ) ;
#530 = ORIENTED_EDGE ( 'NONE', *, *, #578, .T. ) ;
#531 = CARTESIAN_POINT ( 'NONE',  ( 40.99999999999999289, -20.00000000000000000, -24.99999999999999289 ) ) ;
#532 = DIRECTION ( 'NONE',  ( -0.7071067811865484609, -1.226634733346701036E-16, -0.7071067811865466846 ) ) ;
#533 = EDGE_CURVE ( 'NONE', #121, #187, #340, .T. ) ;
#534 = CARTESIAN_POINT ( 'NONE',  ( 20.00000000000000000, 0.000000000000000000, -35.99999999999997158 ) ) ;
#535 = PRODUCT_DEFINITION_SHAPE ( 'NONE', 'NONE',  #484 ) ;
#536 = VERTEX_POINT ( 'NONE', #294 ) ;
#537 = CARTESIAN_POINT ( 'NONE',  ( 0.000000000000000000, -18.00000000000000355, 0.000000000000000000 ) ) ;
#538 = VECTOR ( 'NONE', #80, 1000.000000000000114 ) ;
#539 = CIRCLE ( 'NONE', #634, 3.379999999999997673 ) ;
#540 = UNCERTAINTY_MEASURE_WITH_UNIT (LENGTH_MEASURE( 1.000000000000000082E-05 ), #548, 'distance_accuracy_value', 'NONE');
#541 = CARTESIAN_POINT ( 'NONE',  ( 20.00000000000000355, -7.000000000000007105, -10.00000000000000178 ) ) ;
#542 = DIRECTION ( 'NONE',  ( 0.7071067811865442421, 1.226634733346693641E-16, 0.7071067811865509034 ) ) ;
#543 = CARTESIAN_POINT ( 'NONE',  ( 56.00000000000000000, -10.00000000000000178, -66.00000000000000000 ) ) ;
#544 = CARTESIAN_POINT ( 'NONE',  ( 36.00000000000007105, 0.000000000000000000, -40.00000000000000000 ) ) ;
#545 = ADVANCED_FACE ( 'NONE', ( #291 ), #206, .F. ) ;
#546 = PRODUCT ( 'Corner Bracket for Hinge Door', 'Corner Bracket for Hinge Door', '', ( #512 ) ) ;
#547 = FACE_OUTER_BOUND ( 'NONE', #170, .T. ) ;
#548 =( LENGTH_UNIT ( ) NAMED_UNIT ( * ) SI_UNIT ( .MILLI., .METRE. ) );
#549 = AXIS2_PLACEMENT_3D ( 'NONE', #479, #230, #333 ) ;
#550 = CARTESIAN_POINT ( 'NONE',  ( 26.00000000000000000, 4.510281037539698445E-15, 0.000000000000000000 ) ) ;
#551 = DIRECTION ( 'NONE',  ( 0.000000000000000000, 0.000000000000000000, 1.000000000000000000 ) ) ;
#552 = ORIENTED_EDGE ( 'NONE', *, *, #73, .F. ) ;
#553 = DIRECTION ( 'NONE',  ( 0.000000000000000000, -0.000000000000000000, -1.000000000000000000 ) ) ;
#554 = APPROVAL_ROLE ( '' ) ;
#555 = ORIENTED_EDGE ( 'NONE', *, *, #240, .T. ) ;
#556 = EDGE_CURVE ( 'NONE', #41, #388, #483, .T. ) ;
#557 = PLANE ( 'NONE',  #218 ) ;
#558 = DIRECTION ( 'NONE',  ( 0.000000000000000000, 0.000000000000000000, 1.000000000000000000 ) ) ;
#559 = LINE ( 'NONE', #355, #271 ) ;
#560 = VECTOR ( 'NONE', #457, 1000.000000000000000 ) ;
#561 = CIRCLE ( 'NONE', #3, 2.999999999999999112 ) ;
#562 = AXIS2_PLACEMENT_3D ( 'NONE', #570, #122, #315 ) ;
#563 = CARTESIAN_POINT ( 'NONE',  ( 20.00000000000000000, 3.469446951953614189E-15, -72.68332812825266842 ) ) ;
#564 = DATE_AND_TIME ( #402, #616 ) ;
#565 = ORIENTED_EDGE ( 'NONE', *, *, #497, .F. ) ;
#566 = CARTESIAN_POINT ( 'NONE',  ( 56.00000000000000000, -10.00000000000000178, -46.00000000000000000 ) ) ;
#567 = FACE_BOUND ( 'NONE', #266, .T. ) ;
#568 = COORDINATED_UNIVERSAL_TIME_OFFSET ( 5, 0, .BEHIND. ) ;
#569 = ORIENTED_EDGE ( 'NONE', *, *, #474, .T. ) ;
#570 = CARTESIAN_POINT ( 'NONE',  ( 131.0538238691623576, 1.926476753628294866E-14, -35.99999999999997158 ) ) ;
#571 = EDGE_LOOP ( 'NONE', ( #530, #436, #413, #386, #275, #17 ) ) ;
#572 = ADVANCED_FACE ( 'NONE', ( #445 ), #8, .T. ) ;
#573 = VECTOR ( 'NONE', #223, 1000.000000000000000 ) ;
#574 = AXIS2_PLACEMENT_3D ( 'NONE', #104, #62, #391 ) ;
#575 = ORIENTED_EDGE ( 'NONE', *, *, #362, .F. ) ;
#576 = CARTESIAN_POINT ( 'NONE',  ( 26.00000000000000355, -10.00000000000000533, -10.00000000000000178 ) ) ;
#577 = VERTEX_POINT ( 'NONE', #199 ) ;
#578 = EDGE_CURVE ( 'NONE', #43, #577, #439, .T. ) ;
#579 = FACE_BOUND ( 'NONE', #82, .T. ) ;
#580 = ORIENTED_EDGE ( 'NONE', *, *, #603, .F. ) ;
#581 = CARTESIAN_POINT ( 'NONE',  ( 20.00000000000000355, -20.00000000000000355, -35.99999999999995026 ) ) ;
#582 = ORIENTED_EDGE ( 'NONE', *, *, #272, .F. ) ;
#583 = CARTESIAN_POINT ( 'NONE',  ( 26.00000000000000355, -7.000000000000006217, -10.00000000000000178 ) ) ;
#584 = EDGE_CURVE ( 'NONE', #86, #577, #343, .T. ) ;
#585 = FACE_OUTER_BOUND ( 'NONE', #330, .T. ) ;
#586 = CARTESIAN_POINT ( 'NONE',  ( 0.000000000000000000, 0.000000000000000000, -46.00000000000000000 ) ) ;
#587 = VERTEX_POINT ( 'NONE', #544 ) ;
#588 = DIRECTION ( 'NONE',  ( 0.000000000000000000, 0.000000000000000000, -1.000000000000000000 ) ) ;
#589 = ORIENTED_EDGE ( 'NONE', *, *, #181, .T. ) ;
#590 = DIRECTION ( 'NONE',  ( -0.7071067811865507924, -1.226634733346705227E-16, 0.7071067811865441310 ) ) ;
#591 = AXIS2_PLACEMENT_3D ( 'NONE', #566, #211, #368 ) ;
#592 = AXIS2_PLACEMENT_3D ( 'NONE', #586, #481, #635 ) ;
#593 = CARTESIAN_POINT ( 'NONE',  ( 66.00000000000000000, -18.00000000000000355, -40.00000000000000000 ) ) ;
#594 = DIRECTION ( 'NONE',  ( 1.000000000000000000, 1.734723475976807094E-16, -0.000000000000000000 ) ) ;
#595 = EDGE_CURVE ( 'NONE', #90, #174, #496, .T. ) ;
#596 = DIRECTION ( 'NONE',  ( 1.334402673828313093E-16, -1.000000000000000000, 0.000000000000000000 ) ) ;
#597 = EDGE_CURVE ( 'NONE', #587, #625, #161, .T. ) ;
#598 = LINE ( 'NONE', #247, #261 ) ;
#599 = LINE ( 'NONE', #346, #396 ) ;
#600 = SECURITY_CLASSIFICATION ( '', '', #412 ) ;
#601 = VECTOR ( 'NONE', #145, 1000.000000000000000 ) ;
#602 = LINE ( 'NONE', #195, #231 ) ;
#603 = EDGE_CURVE ( 'NONE', #536, #360, #106, .T. ) ;
#604 = DIRECTION ( 'NONE',  ( -1.000000000000000000, -1.734723475976807341E-16, -0.000000000000000000 ) ) ;
#605 = ORIENTED_EDGE ( 'NONE', *, *, #485, .F. ) ;
#606 = DIRECTION ( 'NONE',  ( -1.000000000000000000, -1.734723475976807094E-16, 0.000000000000000000 ) ) ;
#607 = PERSON_AND_ORGANIZATION_ROLE ( 'design_owner' ) ;
#608 = CARTESIAN_POINT ( 'NONE',  ( 30.00000000000002842, 0.000000000000000000, -46.00000000000000000 ) ) ;
#609 = DIRECTION ( 'NONE',  ( -1.734723475976807094E-16, 1.000000000000000000, 0.000000000000000000 ) ) ;
#610 = PERSON_AND_ORGANIZATION ( #54, #185 ) ;
#611 = ORIENTED_EDGE ( 'NONE', *, *, #200, .T. ) ;
#612 = DIRECTION ( 'NONE',  ( 1.000000000000000000, 0.000000000000000000, 0.000000000000000000 ) ) ;
#613 = APPROVAL_PERSON_ORGANIZATION ( #451, #79, #313 ) ;
#614 = AXIS2_PLACEMENT_3D ( 'NONE', #18, #308, #215 ) ;
#615 = AXIS2_PLACEMENT_3D ( 'NONE', #182, #430, #379 ) ;
#616 = LOCAL_TIME ( 14, 29, 0.000000000000000000, #263 ) ;
#617 = LINE ( 'NONE', #405, #115 ) ;
#618 = ORIENTED_EDGE ( 'NONE', *, *, #463, .T. ) ;
#619 = DIRECTION ( 'NONE',  ( 0.000000000000000000, -0.000000000000000000, 1.000000000000000000 ) ) ;
#620 = PERSON_AND_ORGANIZATION_ROLE ( 'design_supplier' ) ;
#621 = VERTEX_POINT ( 'NONE', #203 ) ;
#622 = EDGE_CURVE ( 'NONE', #446, #174, #491, .T. ) ;
#623 = CARTESIAN_POINT ( 'NONE',  ( 26.00000000000000355, -18.00000000000000355, 0.000000000000000000 ) ) ;
#624 = DATE_AND_TIME ( #16, #156 ) ;
#625 = VERTEX_POINT ( 'NONE', #193 ) ;
#626 = VECTOR ( 'NONE', #590, 1000.000000000000114 ) ;
#627 = ORIENTED_EDGE ( 'NONE', *, *, #283, .T. ) ;
#628 = CARTESIAN_POINT ( 'NONE',  ( 20.00000000000000355, -20.00000000000000000, -35.99999999999995026 ) ) ;
#629 = ORIENTED_EDGE ( 'NONE', *, *, #595, .T. ) ;
#630 = FACE_OUTER_BOUND ( 'NONE', #456, .T. ) ;
#631 = ORIENTED_EDGE ( 'NONE', *, *, #370, .T. ) ;
#632 = DIRECTION ( 'NONE',  ( 1.000000000000000000, 0.000000000000000000, 0.000000000000000000 ) ) ;
#633 = ORIENTED_EDGE ( 'NONE', *, *, #533, .T. ) ;
#634 = AXIS2_PLACEMENT_3D ( 'NONE', #227, #422, #433 ) ;
#635 = DIRECTION ( 'NONE',  ( 1.000000000000000000, 0.000000000000000000, -0.000000000000000000 ) ) ;
#636 = CARTESIAN_POINT ( 'NONE',  ( 30.00000000000002842, 5.204170427930426016E-15, -46.00000000000000000 ) ) ;
#637 = CARTESIAN_POINT ( 'NONE',  ( -3.469446951953614189E-15, -10.00000000000001066, -10.00000000000000178 ) ) ;
#638 = ORIENTED_EDGE ( 'NONE', *, *, #463, .F. ) ;
#639 = CARTESIAN_POINT ( 'NONE',  ( 36.00000000000007105, 2.602085213965210642E-15, -40.00000000000000000 ) ) ;
ENDSEC;
END-ISO-10303-21;
