ISO-10303-21;
HEADER;
FILE_DESCRIPTION (( 'STEP AP203' ),
    '1' );
FILE_NAME ('Corner Bracket with Magnet Top.STEP',
    '2025-10-10T18:28:16',
    ( '' ),
    ( '' ),
    'SwSTEP 2.0',
    'SolidWorks 2025',
    '' );
FILE_SCHEMA (( 'CONFIG_CONTROL_DESIGN' ));
ENDSEC;

DATA;
#1 = VERTEX_POINT ( 'NONE', #653 ) ;
#2 = CARTESIAN_POINT ( 'NONE',  ( 56.00000000000000000, 0.000000000000000000, -59.00000000000000000 ) ) ;
#3 = FACE_OUTER_BOUND ( 'NONE', #74, .T. ) ;
#4 = DIRECTION ( 'NONE',  ( 0.000000000000000000, 0.000000000000000000, 1.000000000000000000 ) ) ;
#5 = EDGE_CURVE ( 'NONE', #879, #193, #500, .T. ) ;
#6 = EDGE_CURVE ( 'NONE', #707, #553, #813, .T. ) ;
#7 = ORIENTED_EDGE ( 'NONE', *, *, #255, .T. ) ;
#8 = DIRECTION ( 'NONE',  ( -0.9999999999999820144, 1.897569934516950074E-07, 1.090397613471116335E-15 ) ) ;
#9 = FACE_OUTER_BOUND ( 'NONE', #747, .T. ) ;
#10 = CARTESIAN_POINT ( 'NONE',  ( 20.00000000000000000, 51.00000000000000000, 8.124891681027854418 ) ) ;
#11 = CARTESIAN_POINT ( 'NONE',  ( 20.00000000000000000, 46.00000000000000000, -57.70000000000000284 ) ) ;
#12 = VECTOR ( 'NONE', #659, 1000.000000000000114 ) ;
#13 = ORIENTED_EDGE ( 'NONE', *, *, #591, .T. ) ;
#14 = FACE_OUTER_BOUND ( 'NONE', #709, .T. ) ;
#15 = LINE ( 'NONE', #225, #389 ) ;
#16 = COORDINATED_UNIVERSAL_TIME_OFFSET ( 5, 0, .BEHIND. ) ;
#17 = LOCAL_TIME ( 14, 28, 16.00000000000000000, #401 ) ;
#18 = DIRECTION ( 'NONE',  ( 3.806861206724154836E-38, -2.194506075142925235E-22, -1.000000000000000000 ) ) ;
#19 = ORIENTED_EDGE ( 'NONE', *, *, #619, .T. ) ;
#20 = CARTESIAN_POINT ( 'NONE',  ( 66.00000000000000000, 1.999999999999999556, -57.70000000000000284 ) ) ;
#21 = AXIS2_PLACEMENT_3D ( 'NONE', #699, #184, #246 ) ;
#22 = LINE ( 'NONE', #243, #910 ) ;
#23 = VECTOR ( 'NONE', #148, 1000.000000000000000 ) ;
#24 = LINE ( 'NONE', #20, #100 ) ;
#25 = PERSON_AND_ORGANIZATION_ROLE ( 'classification_officer' ) ;
#26 = DIRECTION ( 'NONE',  ( 0.000000000000000000, -1.000000000000000000, 0.000000000000000000 ) ) ;
#27 = ORIENTED_EDGE ( 'NONE', *, *, #327, .T. ) ;
#28 = EDGE_LOOP ( 'NONE', ( #777, #406, #294, #622, #638, #715 ) ) ;
#29 = DIRECTION ( 'NONE',  ( 0.000000000000000000, 1.000000000000000000, 0.000000000000000000 ) ) ;
#30 = CYLINDRICAL_SURFACE ( 'NONE', #749, 3.000000000000002665 ) ;
#31 = AXIS2_PLACEMENT_3D ( 'NONE', #496, #561, #262 ) ;
#32 = ORIENTED_EDGE ( 'NONE', *, *, #938, .F. ) ;
#33 = ORIENTED_EDGE ( 'NONE', *, *, #706, .T. ) ;
#34 = CYLINDRICAL_SURFACE ( 'NONE', #116, 3.000000000000002665 ) ;
#35 = EDGE_CURVE ( 'NONE', #662, #497, #505, .T. ) ;
#36 = DIRECTION ( 'NONE',  ( -0.9999999999999820144, 1.897569935384314988E-07, 0.000000000000000000 ) ) ;
#37 = ORIENTED_EDGE ( 'NONE', *, *, #772, .T. ) ;
#38 = AXIS2_PLACEMENT_3D ( 'NONE', #234, #839, #461 ) ;
#39 = VECTOR ( 'NONE', #594, 1000.000000000000000 ) ;
#40 = ADVANCED_FACE ( 'NONE', ( #795 ), #583, .F. ) ;
#41 = ORIENTED_EDGE ( 'NONE', *, *, #419, .F. ) ;
#42 = VECTOR ( 'NONE', #495, 1000.000000000000000 ) ;
#43 = ORIENTED_EDGE ( 'NONE', *, *, #794, .F. ) ;
#44 = EDGE_CURVE ( 'NONE', #73, #1, #511, .T. ) ;
#45 = ORIENTED_EDGE ( 'NONE', *, *, #942, .F. ) ;
#46 = APPROVAL ( #660, 'UNSPECIFIED' ) ;
#47 = CARTESIAN_POINT ( 'NONE',  ( 69.00000000000000000, 2.000000000000000000, -64.00000000000000000 ) ) ;
#48 = DIRECTION ( 'NONE',  ( 1.000000000000000000, -0.000000000000000000, 0.000000000000000000 ) ) ;
#49 = VERTEX_POINT ( 'NONE', #124 ) ;
#50 = ORIENTED_EDGE ( 'NONE', *, *, #252, .F. ) ;
#51 = LINE ( 'NONE', #405, #565 ) ;
#52 = VERTEX_POINT ( 'NONE', #883 ) ;
#53 = LINE ( 'NONE', #876, #755 ) ;
#54 = VECTOR ( 'NONE', #796, 1000.000000000000000 ) ;
#55 = ORIENTED_EDGE ( 'NONE', *, *, #77, .T. ) ;
#56 = PLANE ( 'NONE',  #31 ) ;
#57 = CC_DESIGN_DATE_AND_TIME_ASSIGNMENT ( #359, #647, ( #470 ) ) ;
#58 = ORIENTED_EDGE ( 'NONE', *, *, #719, .T. ) ;
#59 = DIRECTION ( 'NONE',  ( 1.090397613471135860E-15, 0.000000000000000000, 1.000000000000000000 ) ) ;
#60 = EDGE_CURVE ( 'NONE', #869, #476, #877, .T. ) ;
#61 = LINE ( 'NONE', #817, #486 ) ;
#62 = VECTOR ( 'NONE', #624, 1000.000000000000000 ) ;
#63 = DIRECTION ( 'NONE',  ( 0.000000000000000000, 0.000000000000000000, -1.000000000000000000 ) ) ;
#64 = APPROVAL_ROLE ( '' ) ;
#65 = AXIS2_PLACEMENT_3D ( 'NONE', #375, #287, #816 ) ;
#66 = ORIENTED_EDGE ( 'NONE', *, *, #711, .T. ) ;
#67 = ORIENTED_EDGE ( 'NONE', *, *, #268, .T. ) ;
#68 = CARTESIAN_POINT ( 'NONE',  ( 20.00000000000000000, 46.00000000000000000, -46.00000000000000000 ) ) ;
#69 = LINE ( 'NONE', #303, #559 ) ;
#70 = EDGE_CURVE ( 'NONE', #632, #301, #502, .T. ) ;
#71 = CARTESIAN_POINT ( 'NONE',  ( 71.00000000000001421, 50.99999999999999289, -66.00000000000000000 ) ) ;
#72 = APPROVAL_DATE_TIME ( #300, #46 ) ;
#73 = VERTEX_POINT ( 'NONE', #358 ) ;
#74 = EDGE_LOOP ( 'NONE', ( #407, #814, #32, #648 ) ) ;
#75 = DIRECTION ( 'NONE',  ( 1.090397613471135860E-15, 0.000000000000000000, 1.000000000000000000 ) ) ;
#76 = DIRECTION ( 'NONE',  ( 0.6199249253035297169, 0.000000000000000000, -0.7846611287603160179 ) ) ;
#77 = EDGE_CURVE ( 'NONE', #473, #662, #717, .T. ) ;
#78 = EDGE_CURVE ( 'NONE', #432, #473, #730, .T. ) ;
#79 = CARTESIAN_POINT ( 'NONE',  ( 26.00000000000000000, 46.00000000000000000, -64.00000000000000000 ) ) ;
#80 = EDGE_CURVE ( 'NONE', #545, #87, #434, .T. ) ;
#81 = ORIENTED_EDGE ( 'NONE', *, *, #60, .T. ) ;
#82 = CARTESIAN_POINT ( 'NONE',  ( 26.00000000000000000, 36.00000000000000000, -56.00000000000000000 ) ) ;
#83 = DIRECTION ( 'NONE',  ( -1.030625082522440177E-15, 1.955683172141514922E-22, -1.000000000000000000 ) ) ;
#84 = CARTESIAN_POINT ( 'NONE',  ( 22.00000000000000000, 48.99999999999999289, -64.00000000000000000 ) ) ;
#85 = APPLICATION_PROTOCOL_DEFINITION ( 'international standard', 'config_control_design', 1994, #134 ) ;
#86 = AXIS2_PLACEMENT_3D ( 'NONE', #829, #83, #165 ) ;
#87 = VERTEX_POINT ( 'NONE', #47 ) ;
#88 = DIRECTION ( 'NONE',  ( -1.000000000000000000, -2.952720810173288126E-16, 0.000000000000000000 ) ) ;
#89 = CARTESIAN_POINT ( 'NONE',  ( 5.171463421157110218, 21.47999816476035306, -46.00000000000000000 ) ) ;
#90 = LINE ( 'NONE', #902, #485 ) ;
#91 = CLOSED_SHELL ( 'NONE', ( #864, #149, #857, #420, #789, #631, #758, #590, #169, #914, #737, #350, #941, #314, #947, #926, #681, #289, #347, #666, #274, #220, #823, #808, #576, #40, #771, #830 ) ) ;
#92 = DIRECTION ( 'NONE',  ( -1.000000000000000000, -1.734723475976804876E-16, 0.000000000000000000 ) ) ;
#93 = VERTEX_POINT ( 'NONE', #71 ) ;
#94 = CARTESIAN_POINT ( 'NONE',  ( 30.99989096563179913, 10.00001329322370047, -46.00000000000000000 ) ) ;
#95 = EDGE_CURVE ( 'NONE', #301, #875, #352, .T. ) ;
#96 = LINE ( 'NONE', #397, #602 ) ;
#97 = ORIENTED_EDGE ( 'NONE', *, *, #95, .F. ) ;
#98 = PLANE ( 'NONE',  #858 ) ;
#99 = PERSON_AND_ORGANIZATION ( #437, #507 ) ;
#100 = VECTOR ( 'NONE', #113, 1000.000000000000000 ) ;
#101 = LINE ( 'NONE', #759, #414 ) ;
#102 = ORIENTED_EDGE ( 'NONE', *, *, #305, .T. ) ;
#103 = CARTESIAN_POINT ( 'NONE',  ( 56.00000000000000000, 0.000000000000000000, -53.00000000000000000 ) ) ;
#104 = PRODUCT_DEFINITION_SHAPE ( 'NONE', 'NONE',  #470 ) ;
#105 = LINE ( 'NONE', #863, #54 ) ;
#106 = ORIENTED_EDGE ( 'NONE', *, *, #109, .T. ) ;
#107 = ORIENTED_EDGE ( 'NONE', *, *, #253, .F. ) ;
#108 = CARTESIAN_POINT ( 'NONE',  ( 56.00000000000000000, -20.00000000000000000, -53.00000000000000000 ) ) ;
#109 = EDGE_CURVE ( 'NONE', #73, #702, #135, .T. ) ;
#110 = CARTESIAN_POINT ( 'NONE',  ( 30.99989216678979886, 16.32999326363530201, -23.32499999999999929 ) ) ;
#111 = VECTOR ( 'NONE', #523, 1000.000000000000000 ) ;
#112 = ORIENTED_EDGE ( 'NONE', *, *, #175, .T. ) ;
#113 = DIRECTION ( 'NONE',  ( 0.000000000000000000, 1.000000000000000000, 0.000000000000000000 ) ) ;
#114 = EDGE_LOOP ( 'NONE', ( #778, #245 ) ) ;
#115 = VECTOR ( 'NONE', #686, 1000.000000000000000 ) ;
#116 = AXIS2_PLACEMENT_3D ( 'NONE', #400, #29, #841 ) ;
#117 = EDGE_LOOP ( 'NONE', ( #541, #865, #845, #687, #815, #337, #733, #55, #567, #172 ) ) ;
#118 = EDGE_CURVE ( 'NONE', #840, #634, #348, .T. ) ;
#119 = ORIENTED_EDGE ( 'NONE', *, *, #519, .T. ) ;
#120 = CARTESIAN_POINT ( 'NONE',  ( 20.00000000000000000, 10.00000000000000000, -46.00000000000000000 ) ) ;
#121 = DIRECTION ( 'NONE',  ( -1.000000000000000000, -1.334402673828311860E-16, 0.000000000000000000 ) ) ;
#122 = ORIENTED_EDGE ( 'NONE', *, *, #60, .F. ) ;
#123 = EDGE_CURVE ( 'NONE', #476, #87, #867, .T. ) ;
#124 = CARTESIAN_POINT ( 'NONE',  ( 26.00000000000000000, 33.00000000000000000, -56.00000000000000000 ) ) ;
#125 = FACE_OUTER_BOUND ( 'NONE', #256, .T. ) ;
#126 = EDGE_LOOP ( 'NONE', ( #423, #726, #336, #33 ) ) ;
#127 = CARTESIAN_POINT ( 'NONE',  ( 30.99989314403834939, 21.47999326363520112, -5.825000000000000178 ) ) ;
#128 = VECTOR ( 'NONE', #791, 1000.000000000000000 ) ;
#129 = DIRECTION ( 'NONE',  ( -1.897569930510992453E-07, -0.9999999999999820144, 0.000000000000000000 ) ) ;
#130 = CARTESIAN_POINT ( 'NONE',  ( 56.00000000000000000, 6.000000000000000000, -56.00000000000000000 ) ) ;
#131 = EDGE_CURVE ( 'NONE', #373, #432, #950, .T. ) ;
#132 = VERTEX_POINT ( 'NONE', #871 ) ;
#133 = LINE ( 'NONE', #376, #956 ) ;
#134 = APPLICATION_CONTEXT ( 'configuration controlled 3d designs of mechanical parts and assemblies' ) ;
#135 = LINE ( 'NONE', #372, #12 ) ;
#136 = LINE ( 'NONE', #968, #700 ) ;
#137 = EDGE_LOOP ( 'NONE', ( #508, #663, #37, #958, #856, #67 ) ) ;
#138 = VERTEX_POINT ( 'NONE', #206 ) ;
#139 = DIRECTION ( 'NONE',  ( 0.000000000000000000, -1.000000000000000000, 0.000000000000000000 ) ) ;
#140 = LINE ( 'NONE', #516, #650 ) ;
#141 = CIRCLE ( 'NONE', #685, 3.000000000000002665 ) ;
#142 = CARTESIAN_POINT ( 'NONE',  ( 20.00000000000000000, 0.000000000000000000, -31.85786437626904188 ) ) ;
#143 = PERSON_AND_ORGANIZATION ( #437, #507 ) ;
#144 = VERTEX_POINT ( 'NONE', #429 ) ;
#145 = EDGE_CURVE ( 'NONE', #497, #93, #15, .T. ) ;
#146 = ORIENTED_EDGE ( 'NONE', *, *, #202, .T. ) ;
#147 = CARTESIAN_POINT ( 'NONE',  ( 26.00000000000000000, 21.47999421239990170, -46.00000000000000000 ) ) ;
#148 = DIRECTION ( 'NONE',  ( 1.090397613471135860E-15, 0.000000000000000000, 1.000000000000000000 ) ) ;
#149 = ADVANCED_FACE ( 'NONE', ( #896 ), #525, .F. ) ;
#150 = DIRECTION ( 'NONE',  ( -0.9999999999999820144, 1.897569935210839993E-07, 1.030625082522456152E-15 ) ) ;
#151 = PERSON_AND_ORGANIZATION_ROLE ( 'design_owner' ) ;
#152 = ORIENTED_EDGE ( 'NONE', *, *, #732, .F. ) ;
#153 = DIRECTION ( 'NONE',  ( 1.000000000000000000, 1.445602896647337931E-16, 0.000000000000000000 ) ) ;
#154 = FACE_BOUND ( 'NONE', #752, .T. ) ;
#155 = AXIS2_PLACEMENT_3D ( 'NONE', #284, #291, #578 ) ;
#156 = LINE ( 'NONE', #163, #934 ) ;
#157 = PLANE ( 'NONE',  #155 ) ;
#158 = VECTOR ( 'NONE', #353, 1000.000000000000000 ) ;
#159 = ORIENTED_EDGE ( 'NONE', *, *, #44, .T. ) ;
#160 = LINE ( 'NONE', #753, #23 ) ;
#161 = CARTESIAN_POINT ( 'NONE',  ( 20.00000000000000000, -26.68332812825265066, -66.00000000000000000 ) ) ;
#162 = EDGE_CURVE ( 'NONE', #632, #138, #156, .T. ) ;
#163 = CARTESIAN_POINT ( 'NONE',  ( 38.99989032614684703, 6.629991745579520313, -23.32499999999999929 ) ) ;
#164 = COORDINATED_UNIVERSAL_TIME_OFFSET ( 5, 0, .BEHIND. ) ;
#165 = DIRECTION ( 'NONE',  ( -1.000000000000000000, 0.000000000000000000, 1.030625082522440177E-15 ) ) ;
#166 = AXIS2_PLACEMENT_3D ( 'NONE', #744, #568, #721 ) ;
#167 = DIRECTION ( 'NONE',  ( 0.000000000000000000, 0.000000000000000000, 1.000000000000000000 ) ) ;
#168 = APPROVAL_DATE_TIME ( #915, #922 ) ;
#169 = ADVANCED_FACE ( 'NONE', ( #595 ), #745, .F. ) ;
#170 = VECTOR ( 'NONE', #421, 1000.000000000000000 ) ;
#171 = PLANE ( 'NONE',  #86 ) ;
#172 = ORIENTED_EDGE ( 'NONE', *, *, #118, .F. ) ;
#173 = FACE_OUTER_BOUND ( 'NONE', #117, .T. ) ;
#174 = PERSON_AND_ORGANIZATION_ROLE ( 'creator' ) ;
#175 = EDGE_CURVE ( 'NONE', #761, #49, #678, .T. ) ;
#176 = CARTESIAN_POINT ( 'NONE',  ( 38.99989020660152761, 6.000000000000000000, -5.825000000000000178 ) ) ;
#177 = VERTEX_POINT ( 'NONE', #890 ) ;
#178 = EDGE_LOOP ( 'NONE', ( #97, #221, #368, #342 ) ) ;
#179 = CYLINDRICAL_SURFACE ( 'NONE', #556, 3.000000000000002665 ) ;
#180 = DIRECTION ( 'NONE',  ( 0.000000000000000000, 0.000000000000000000, 1.000000000000000000 ) ) ;
#181 = EDGE_CURVE ( 'NONE', #952, #476, #282, .T. ) ;
#182 = ORIENTED_EDGE ( 'NONE', *, *, #916, .F. ) ;
#183 = EDGE_CURVE ( 'NONE', #52, #707, #299, .T. ) ;
#184 = DIRECTION ( 'NONE',  ( 2.407412430484044816E-31, -1.387778780781446070E-15, -1.000000000000000000 ) ) ;
#185 = AXIS2_PLACEMENT_3D ( 'NONE', #722, #712, #129 ) ;
#186 = PLANE ( 'NONE',  #409 ) ;
#187 = ORIENTED_EDGE ( 'NONE', *, *, #942, .T. ) ;
#188 = LINE ( 'NONE', #94, #633 ) ;
#189 = CC_DESIGN_APPROVAL ( #46, ( #470 ) ) ;
#190 = AXIS2_PLACEMENT_3D ( 'NONE', #254, #479, #776 ) ;
#191 = ORIENTED_EDGE ( 'NONE', *, *, #490, .F. ) ;
#192 = VECTOR ( 'NONE', #775, 1000.000000000000000 ) ;
#193 = VERTEX_POINT ( 'NONE', #831 ) ;
#194 = VECTOR ( 'NONE', #75, 1000.000000000000000 ) ;
#195 = ORIENTED_EDGE ( 'NONE', *, *, #490, .T. ) ;
#196 = ORIENTED_EDGE ( 'NONE', *, *, #557, .F. ) ;
#197 = CARTESIAN_POINT ( 'NONE',  ( 26.00000000000000000, 21.47999421239990170, -64.00000000000000000 ) ) ;
#198 = ORIENTED_EDGE ( 'NONE', *, *, #695, .T. ) ;
#199 = DIRECTION ( 'NONE',  ( -0.6199249253035297169, -0.000000000000000000, 0.7846611287603160179 ) ) ;
#200 = CARTESIAN_POINT ( 'NONE',  ( 66.00000000000000000, 1.999999999999999556, -57.70000000000000284 ) ) ;
#201 = ORIENTED_EDGE ( 'NONE', *, *, #80, .F. ) ;
#202 = EDGE_CURVE ( 'NONE', #144, #497, #763, .T. ) ;
#203 = CARTESIAN_POINT ( 'NONE',  ( 30.99988906805939592, 1.821436819590740197E-15, -34.99988906805934619 ) ) ;
#204 = EDGE_CURVE ( 'NONE', #702, #553, #458, .T. ) ;
#205 = VECTOR ( 'NONE', #471, 1000.000000000000000 ) ;
#206 = CARTESIAN_POINT ( 'NONE',  ( 30.99989032614695006, 6.629993263635469702, -23.32499999999999929 ) ) ;
#207 = DIRECTION ( 'NONE',  ( 3.722162896414714425E-14, 2.016270133877673988E-07, -0.9999999999999796829 ) ) ;
#208 = ORIENTED_EDGE ( 'NONE', *, *, #661, .F. ) ;
#209 = CARTESIAN_POINT ( 'NONE',  ( 20.00000000000000000, 51.00000000000000000, -57.70000000000000284 ) ) ;
#210 = VECTOR ( 'NONE', #954, 1000.000000000000000 ) ;
#211 = CARTESIAN_POINT ( 'NONE',  ( 38.99989216678964965, 16.32999174557934907, -23.32499999999999929 ) ) ;
#212 = PERSON_AND_ORGANIZATION ( #437, #507 ) ;
#213 = ORIENTED_EDGE ( 'NONE', *, *, #732, .T. ) ;
#214 = DIRECTION ( 'NONE',  ( -1.000000000000000000, 0.000000000000000000, 0.000000000000000000 ) ) ;
#215 = DIRECTION ( 'NONE',  ( -0.9999999999999820144, 1.897569935210839993E-07, 0.000000000000000000 ) ) ;
#216 = APPROVAL_PERSON_ORGANIZATION ( #832, #46, #64 ) ;
#217 = DIRECTION ( 'NONE',  ( -0.000000000000000000, -0.000000000000000000, -1.000000000000000000 ) ) ;
#218 =( NAMED_UNIT ( * ) SI_UNIT ( $, .STERADIAN. ) SOLID_ANGLE_UNIT ( ) );
#219 = EDGE_CURVE ( 'NONE', #623, #596, #818, .T. ) ;
#220 = ADVANCED_FACE ( 'NONE', ( #453 ), #588, .T. ) ;
#221 = ORIENTED_EDGE ( 'NONE', *, *, #70, .F. ) ;
#222 = ORIENTED_EDGE ( 'NONE', *, *, #255, .F. ) ;
#223 = CARTESIAN_POINT ( 'NONE',  ( 69.00000000000000000, 49.00000000000000711, -64.00000000000000000 ) ) ;
#224 = DIRECTION ( 'NONE',  ( -0.9999999999999820144, 1.897569930510995100E-07, 1.030625082522456152E-15 ) ) ;
#225 = CARTESIAN_POINT ( 'NONE',  ( 20.00000000000000000, 51.00000000000000000, -66.00000000000000000 ) ) ;
#226 = CALENDAR_DATE ( 2025, 10, 10 ) ;
#227 = ORIENTED_EDGE ( 'NONE', *, *, #145, .T. ) ;
#228 = PLANE ( 'NONE',  #283 ) ;
#229 = DIRECTION ( 'NONE',  ( 1.000000000000000000, 0.000000000000000000, -0.000000000000000000 ) ) ;
#230 = CARTESIAN_POINT ( 'NONE',  ( 71.00000000000001421, 51.00000000000001421, -57.70000000000000284 ) ) ;
#231 = DIRECTION ( 'NONE',  ( 1.000000000000000000, -1.360567432138672081E-16, 0.000000000000000000 ) ) ;
#232 = VERTEX_POINT ( 'NONE', #79 ) ;
#233 = FACE_OUTER_BOUND ( 'NONE', #345, .T. ) ;
#234 = CARTESIAN_POINT ( 'NONE',  ( 30.99988906805829814, -5.882445746890919766E-06, -3.380220505768070079E-14 ) ) ;
#235 = LOCAL_TIME ( 14, 28, 16.00000000000000000, #842 ) ;
#236 = DIRECTION ( 'NONE',  ( 0.000000000000000000, 1.000000000000000000, 0.000000000000000000 ) ) ;
#237 = DIRECTION ( 'NONE',  ( 1.000000000000000000, 0.000000000000000000, 0.000000000000000000 ) ) ;
#238 = CIRCLE ( 'NONE', #357, 4.849999999999998757 ) ;
#239 = DIRECTION ( 'NONE',  ( -0.000000000000000000, 1.000000000000000000, -0.000000000000000000 ) ) ;
#240 = CARTESIAN_POINT ( 'NONE',  ( 56.00000000000000000, -20.00000000000000000, -56.00000000000000000 ) ) ;
#241 = CALENDAR_DATE ( 2025, 10, 10 ) ;
#242 = EDGE_CURVE ( 'NONE', #449, #290, #320, .T. ) ;
#243 = CARTESIAN_POINT ( 'NONE',  ( 69.00000000000000000, 49.00000000000000711, -57.70000000000000284 ) ) ;
#244 = VECTOR ( 'NONE', #139, 1000.000000000000000 ) ;
#245 = ORIENTED_EDGE ( 'NONE', *, *, #242, .F. ) ;
#246 = DIRECTION ( 'NONE',  ( 0.000000000000000000, -1.000000000000000000, 1.387778780781446070E-15 ) ) ;
#247 = DIRECTION ( 'NONE',  ( -1.897569930510992453E-07, -0.9999999999999820144, 0.000000000000000000 ) ) ;
#248 = EDGE_LOOP ( 'NONE', ( #182, #462, #887, #152, #613, #674 ) ) ;
#249 = ORIENTED_EDGE ( 'NONE', *, *, #601, .T. ) ;
#250 = DIRECTION ( 'NONE',  ( 0.7846611287603160179, 0.000000000000000000, 0.6199249253035297169 ) ) ;
#251 = APPROVAL_STATUS ( 'not_yet_approved' ) ;
#252 = EDGE_CURVE ( 'NONE', #449, #438, #90, .T. ) ;
#253 = EDGE_CURVE ( 'NONE', #132, #473, #531, .T. ) ;
#254 = CARTESIAN_POINT ( 'NONE',  ( 0.000000000000000000, 0.000000000000000000, -57.70000000000000284 ) ) ;
#255 = EDGE_CURVE ( 'NONE', #290, #436, #331, .T. ) ;
#256 = EDGE_LOOP ( 'NONE', ( #122, #319, #494, #627 ) ) ;
#257 = CARTESIAN_POINT ( 'NONE',  ( 0.000000000000000000, 0.000000000000000000, 0.000000000000000000 ) ) ;
#258 = FACE_OUTER_BOUND ( 'NONE', #826, .T. ) ;
#259 = EDGE_LOOP ( 'NONE', ( #710, #862, #424, #58 ) ) ;
#260 = DIRECTION ( 'NONE',  ( 0.000000000000000000, 0.000000000000000000, 1.000000000000000000 ) ) ;
#261 = VECTOR ( 'NONE', #569, 1000.000000000000000 ) ;
#262 = DIRECTION ( 'NONE',  ( 1.189524692753803959E-15, 0.000000000000000000, 1.000000000000000000 ) ) ;
#263 = EDGE_LOOP ( 'NONE', ( #285, #472 ) ) ;
#264 = ORIENTED_EDGE ( 'NONE', *, *, #78, .T. ) ;
#265 = VECTOR ( 'NONE', #408, 1000.000000000000000 ) ;
#266 = ORIENTED_EDGE ( 'NONE', *, *, #548, .T. ) ;
#267 = DIRECTION ( 'NONE',  ( 1.445602896647337931E-16, -1.000000000000000000, 0.000000000000000000 ) ) ;
#268 = EDGE_CURVE ( 'NONE', #52, #879, #24, .T. ) ;
#269 = ORIENTED_EDGE ( 'NONE', *, *, #202, .F. ) ;
#270 = CARTESIAN_POINT ( 'NONE',  ( 69.00000000000000000, 2.000000000000000000, 14.42489168102786756 ) ) ;
#271 = FACE_OUTER_BOUND ( 'NONE', #537, .T. ) ;
#272 = CC_DESIGN_APPROVAL ( #922, ( #885 ) ) ;
#273 = VERTEX_POINT ( 'NONE', #538 ) ;
#274 = ADVANCED_FACE ( 'NONE', ( #689 ), #98, .T. ) ;
#275 = CARTESIAN_POINT ( 'NONE',  ( 71.00000000000001421, -9.378348791999613354E-15, -57.70000000000000284 ) ) ;
#276 = VECTOR ( 'NONE', #207, 1000.000000000000114 ) ;
#277 = CARTESIAN_POINT ( 'NONE',  ( 20.00000000000000000, 46.00000000000000000, -40.00000000000000000 ) ) ;
#278 = DIRECTION ( 'NONE',  ( -1.734723475976804876E-16, 1.000000000000000000, 0.000000000000000000 ) ) ;
#279 = ORIENTED_EDGE ( 'NONE', *, *, #688, .F. ) ;
#280 = CYLINDRICAL_SURFACE ( 'NONE', #625, 4.849999999999999645 ) ;
#281 = VECTOR ( 'NONE', #587, 1000.000000000000000 ) ;
#282 = LINE ( 'NONE', #84, #939 ) ;
#283 = AXIS2_PLACEMENT_3D ( 'NONE', #888, #8, #59 ) ;
#284 = CARTESIAN_POINT ( 'NONE',  ( 0.000000000000000000, 6.000000000000000000, 0.000000000000000000 ) ) ;
#285 = ORIENTED_EDGE ( 'NONE', *, *, #844, .F. ) ;
#286 = ORIENTED_EDGE ( 'NONE', *, *, #566, .F. ) ;
#287 = DIRECTION ( 'NONE',  ( -0.9999999999999820144, 1.897569930510995100E-07, 1.189524692753782068E-15 ) ) ;
#288 = DIRECTION ( 'NONE',  ( -0.000000000000000000, -1.000000000000000000, -0.000000000000000000 ) ) ;
#289 = ADVANCED_FACE ( 'NONE', ( #474 ), #179, .F. ) ;
#290 = VERTEX_POINT ( 'NONE', #103 ) ;
#291 = DIRECTION ( 'NONE',  ( 0.000000000000000000, -1.000000000000000000, 0.000000000000000000 ) ) ;
#292 = EDGE_CURVE ( 'NONE', #558, #707, #478, .T. ) ;
#293 = EDGE_LOOP ( 'NONE', ( #198, #820, #27, #222 ) ) ;
#294 = ORIENTED_EDGE ( 'NONE', *, *, #694, .T. ) ;
#295 = DIRECTION ( 'NONE',  ( 0.000000000000000000, 1.000000000000000000, 0.000000000000000000 ) ) ;
#296 = DIRECTION ( 'NONE',  ( -1.000000000000000000, 0.000000000000000000, 0.000000000000000000 ) ) ;
#297 = LOCAL_TIME ( 14, 28, 16.00000000000000000, #16 ) ;
#298 = APPROVAL ( #518, 'UNSPECIFIED' ) ;
#299 = LINE ( 'NONE', #533, #769 ) ;
#300 = DATE_AND_TIME ( #739, #724 ) ;
#301 = VERTEX_POINT ( 'NONE', #608 ) ;
#302 = DIRECTION ( 'NONE',  ( 9.465141391940899523E-16, 1.641940297603964849E-31, 1.000000000000000000 ) ) ;
#303 = CARTESIAN_POINT ( 'NONE',  ( 38.99988934889834979, 1.479991745579609885, -5.825000000000000178 ) ) ;
#304 = DIRECTION ( 'NONE',  ( 0.000000000000000000, 0.000000000000000000, -1.000000000000000000 ) ) ;
#305 = EDGE_CURVE ( 'NONE', #634, #662, #920, .T. ) ;
#306 = ORIENTED_EDGE ( 'NONE', *, *, #644, .F. ) ;
#307 = DIRECTION ( 'NONE',  ( 0.000000000000000000, -1.000000000000000000, 0.000000000000000000 ) ) ;
#308 = CARTESIAN_POINT ( 'NONE',  ( 101.0538238691624002, 46.00000000000000000, -46.00000000000000000 ) ) ;
#309 = VECTOR ( 'NONE', #738, 1000.000000000000000 ) ;
#310 = DIRECTION ( 'NONE',  ( 1.000000000000000000, 2.952720810173288126E-16, 0.000000000000000000 ) ) ;
#311 = DIRECTION ( 'NONE',  ( -1.734723475976804876E-16, 1.000000000000000000, 0.000000000000000000 ) ) ;
#312 = ORIENTED_EDGE ( 'NONE', *, *, #219, .T. ) ;
#313 = LINE ( 'NONE', #600, #828 ) ;
#314 = ADVANCED_FACE ( 'NONE', ( #618 ), #404, .F. ) ;
#315 = CARTESIAN_POINT ( 'NONE',  ( 38.99989314403819662, 49.55383582805414022, -5.825000000000000178 ) ) ;
#316 = CALENDAR_DATE ( 2025, 10, 10 ) ;
#317 = AXIS2_PLACEMENT_3D ( 'NONE', #781, #121, #932 ) ;
#318 = LINE ( 'NONE', #894, #205 ) ;
#319 = ORIENTED_EDGE ( 'NONE', *, *, #392, .T. ) ;
#320 = CIRCLE ( 'NONE', #360, 3.000000000000002665 ) ;
#321 = DIRECTION ( 'NONE',  ( 1.334402673828311860E-16, -1.000000000000000000, 0.000000000000000000 ) ) ;
#322 = SECURITY_CLASSIFICATION_LEVEL ( 'unclassified' ) ;
#323 = PLANE ( 'NONE',  #38 ) ;
#324 = VECTOR ( 'NONE', #742, 1000.000000000000000 ) ;
#325 = ORIENTED_EDGE ( 'NONE', *, *, #548, .F. ) ;
#326 = DIRECTION ( 'NONE',  ( -1.734723475976809560E-16, 1.000000000000000000, 0.000000000000000000 ) ) ;
#327 = EDGE_CURVE ( 'NONE', #438, #436, #141, .T. ) ;
#328 = PLANE ( 'NONE',  #334 ) ;
#329 = ORIENTED_EDGE ( 'NONE', *, *, #637, .T. ) ;
#330 = EDGE_LOOP ( 'NONE', ( #50, #720, #7, #655 ) ) ;
#331 = LINE ( 'NONE', #108, #192 ) ;
#332 = CC_DESIGN_PERSON_AND_ORGANIZATION_ASSIGNMENT ( #99, #25, ( #885 ) ) ;
#333 = EDGE_CURVE ( 'NONE', #592, #527, #779, .T. ) ;
#334 = AXIS2_PLACEMENT_3D ( 'NONE', #393, #229, #764 ) ;
#335 = CARTESIAN_POINT ( 'NONE',  ( -1.387778780781445991E-14, 36.00000000000000000, -56.00000000000000000 ) ) ;
#336 = ORIENTED_EDGE ( 'NONE', *, *, #80, .T. ) ;
#337 = ORIENTED_EDGE ( 'NONE', *, *, #519, .F. ) ;
#338 = CARTESIAN_POINT ( 'NONE',  ( 66.00000000000000000, 6.000000000000000000, -40.00000000000000000 ) ) ;
#339 = EDGE_CURVE ( 'NONE', #394, #132, #188, .T. ) ;
#340 = DIRECTION ( 'NONE',  ( 1.000000000000000000, 1.927470528863119542E-16, -1.030625082522440177E-15 ) ) ;
#341 = VECTOR ( 'NONE', #966, 1000.000000000000000 ) ;
#342 = ORIENTED_EDGE ( 'NONE', *, *, #384, .F. ) ;
#343 = ORIENTED_EDGE ( 'NONE', *, *, #204, .T. ) ;
#344 = AXIS2_PLACEMENT_3D ( 'NONE', #240, #751, #167 ) ;
#345 = EDGE_LOOP ( 'NONE', ( #682, #159, #617, #616, #924 ) ) ;
#346 = PRODUCT_RELATED_PRODUCT_CATEGORY ( 'detail', '', ( #482 ) ) ;
#347 = ADVANCED_FACE ( 'NONE', ( #931 ), #34, .F. ) ;
#348 = LINE ( 'NONE', #635, #463 ) ;
#349 = LINE ( 'NONE', #636, #158 ) ;
#350 = ADVANCED_FACE ( 'NONE', ( #173, #467 ), #925, .T. ) ;
#351 = ORIENTED_EDGE ( 'NONE', *, *, #838, .F. ) ;
#352 = LINE ( 'NONE', #211, #552 ) ;
#353 = DIRECTION ( 'NONE',  ( -0.000000000000000000, -0.000000000000000000, -1.000000000000000000 ) ) ;
#354 = CC_DESIGN_APPROVAL ( #298, ( #807 ) ) ;
#355 = ORIENTED_EDGE ( 'NONE', *, *, #339, .F. ) ;
#356 = CARTESIAN_POINT ( 'NONE',  ( 38.99989314403819662, 21.47999174557924817, -5.825000000000000178 ) ) ;
#357 = AXIS2_PLACEMENT_3D ( 'NONE', #367, #884, #459 ) ;
#358 = CARTESIAN_POINT ( 'NONE',  ( 38.99988906805950961, 5.999999999999998224, -40.00000000000000000 ) ) ;
#359 = DATE_AND_TIME ( #226, #530 ) ;
#360 = AXIS2_PLACEMENT_3D ( 'NONE', #377, #599, #667 ) ;
#361 = ORIENTED_EDGE ( 'NONE', *, *, #268, .F. ) ;
#362 = DIRECTION ( 'NONE',  ( 1.000000000000000000, 0.000000000000000000, 0.000000000000000000 ) ) ;
#363 = LINE ( 'NONE', #735, #281 ) ;
#364 = AXIS2_PLACEMENT_3D ( 'NONE', #539, #750, #843 ) ;
#365 = CARTESIAN_POINT ( 'NONE',  ( 69.00000000000000000, 49.00000000000000711, -64.00000000000000000 ) ) ;
#366 = AXIS2_PLACEMENT_3D ( 'NONE', #509, #362, #295 ) ;
#367 = CARTESIAN_POINT ( 'NONE',  ( 30.99989124646840111, 11.47999326363538053, -23.32499999999999929 ) ) ;
#368 = ORIENTED_EDGE ( 'NONE', *, *, #162, .T. ) ;
#369 = ORIENTED_EDGE ( 'NONE', *, *, #384, .T. ) ;
#370 = CARTESIAN_POINT ( 'NONE',  ( 38.99989314403819662, 1.734724207478828498E-15, -5.825000000000000178 ) ) ;
#371 = CARTESIAN_POINT ( 'NONE',  ( 66.00000000000000000, 6.000000000000000000, -40.00000000000000000 ) ) ;
#372 = CARTESIAN_POINT ( 'NONE',  ( 38.99988906805950961, 5.999999999999998224, -40.00000000000000000 ) ) ;
#373 = VERTEX_POINT ( 'NONE', #480 ) ;
#374 = VERTEX_POINT ( 'NONE', #782 ) ;
#375 = CARTESIAN_POINT ( 'NONE',  ( 37.32989124646829993, 11.47999206247359893, -23.32499999999999929 ) ) ;
#376 = CARTESIAN_POINT ( 'NONE',  ( 71.00000000000001421, -9.368548013477251456E-15, -66.00000000000000000 ) ) ;
#377 = CARTESIAN_POINT ( 'NONE',  ( 56.00000000000000000, 0.000000000000000000, -56.00000000000000000 ) ) ;
#378 = MECHANICAL_CONTEXT ( 'NONE', #802, 'mechanical' ) ;
#379 = EDGE_LOOP ( 'NONE', ( #580, #191 ) ) ;
#380 = DIRECTION ( 'NONE',  ( 1.000000000000000000, 0.000000000000000000, 0.000000000000000000 ) ) ;
#381 = CARTESIAN_POINT ( 'NONE',  ( 66.00000000000000000, 6.938893903907229955E-15, -40.00000000000000711 ) ) ;
#382 = DIRECTION ( 'NONE',  ( 1.360567432138672081E-16, 1.000000000000000000, 0.000000000000000000 ) ) ;
#383 = CARTESIAN_POINT ( 'NONE',  ( 20.00000000000000000, 3.469446951953614978E-15, -72.68332812825271105 ) ) ;
#384 = EDGE_CURVE ( 'NONE', #875, #138, #705, .T. ) ;
#385 = EDGE_CURVE ( 'NONE', #232, #741, #581, .T. ) ;
#386 = EDGE_LOOP ( 'NONE', ( #964, #584 ) ) ;
#387 = CARTESIAN_POINT ( 'NONE',  ( 20.00000000000000000, 51.00000000000000000, -66.00000000000000000 ) ) ;
#388 = CARTESIAN_POINT ( 'NONE',  ( 22.00000000000000000, 46.00000000000000000, -64.00000000000000000 ) ) ;
#389 = VECTOR ( 'NONE', #231, 1000.000000000000000 ) ;
#390 = CARTESIAN_POINT ( 'NONE',  ( 30.99988758602576056, 0.000000000000000000, -46.00000000000000000 ) ) ;
#391 = APPROVAL_DATE_TIME ( #396, #298 ) ;
#392 = EDGE_CURVE ( 'NONE', #869, #273, #670, .T. ) ;
#393 = CARTESIAN_POINT ( 'NONE',  ( 69.00000000000000000, 49.00000000000000711, 14.42489168102786756 ) ) ;
#394 = VERTEX_POINT ( 'NONE', #439 ) ;
#395 = CARTESIAN_POINT ( 'NONE',  ( 30.99989124646840111, 11.47999326363538053, -23.32499999999999929 ) ) ;
#396 = DATE_AND_TIME ( #469, #235 ) ;
#397 = CARTESIAN_POINT ( 'NONE',  ( 38.99988934889834979, 1.734723475976807094E-15, -5.825000000000000178 ) ) ;
#398 = VECTOR ( 'NONE', #304, 1000.000000000000000 ) ;
#399 = EDGE_CURVE ( 'NONE', #417, #49, #610, .T. ) ;
#400 = CARTESIAN_POINT ( 'NONE',  ( 56.00000000000000000, -20.00000000000000000, -56.00000000000000000 ) ) ;
#401 = COORDINATED_UNIVERSAL_TIME_OFFSET ( 5, 0, .BEHIND. ) ;
#402 = LINE ( 'NONE', #308, #930 ) ;
#403 = ORIENTED_EDGE ( 'NONE', *, *, #935, .F. ) ;
#404 = PLANE ( 'NONE',  #21 ) ;
#405 = CARTESIAN_POINT ( 'NONE',  ( 38.99989314403810425, 21.47999174557924817, -64.00000000000000000 ) ) ;
#406 = ORIENTED_EDGE ( 'NONE', *, *, #774, .F. ) ;
#407 = ORIENTED_EDGE ( 'NONE', *, *, #524, .F. ) ;
#408 = DIRECTION ( 'NONE',  ( 1.734723475976804876E-16, -1.000000000000000000, 1.387778780781446070E-15 ) ) ;
#409 = AXIS2_PLACEMENT_3D ( 'NONE', #723, #615, #923 ) ;
#410 = FACE_OUTER_BOUND ( 'NONE', #809, .T. ) ;
#411 = ORIENTED_EDGE ( 'NONE', *, *, #392, .F. ) ;
#412 = CARTESIAN_POINT ( 'NONE',  ( 38.99989314403819662, 49.55383582805414022, -5.825000000000000178 ) ) ;
#413 = EDGE_CURVE ( 'NONE', #555, #840, #649, .T. ) ;
#414 = VECTOR ( 'NONE', #239, 1000.000000000000000 ) ;
#415 = EDGE_LOOP ( 'NONE', ( #306, #343, #793, #466 ) ) ;
#416 = AXIS2_PLACEMENT_3D ( 'NONE', #82, #380, #664 ) ;
#417 = VERTEX_POINT ( 'NONE', #748 ) ;
#418 = ORIENTED_EDGE ( 'NONE', *, *, #35, .F. ) ;
#419 = EDGE_CURVE ( 'NONE', #879, #545, #893, .T. ) ;
#420 = ADVANCED_FACE ( 'NONE', ( #233 ), #228, .F. ) ;
#421 = DIRECTION ( 'NONE',  ( -0.000000000000000000, -0.000000000000000000, -1.000000000000000000 ) ) ;
#422 = LINE ( 'NONE', #501, #276 ) ;
#423 = ORIENTED_EDGE ( 'NONE', *, *, #5, .F. ) ;
#424 = ORIENTED_EDGE ( 'NONE', *, *, #916, .T. ) ;
#425 = FACE_OUTER_BOUND ( 'NONE', #656, .T. ) ;
#426 = VECTOR ( 'NONE', #441, 1000.000000000000000 ) ;
#427 = EDGE_LOOP ( 'NONE', ( #948, #936, #892, #803 ) ) ;
#428 = FACE_OUTER_BOUND ( 'NONE', #28, .T. ) ;
#429 = CARTESIAN_POINT ( 'NONE',  ( 20.00000000000000000, 51.00000000000000000, -57.70000000000000284 ) ) ;
#430 = FACE_OUTER_BOUND ( 'NONE', #386, .T. ) ;
#431 =( GEOMETRIC_REPRESENTATION_CONTEXT ( 3 ) GLOBAL_UNCERTAINTY_ASSIGNED_CONTEXT ( ( #714 ) ) GLOBAL_UNIT_ASSIGNED_CONTEXT ( ( #903, #806, #218 ) ) REPRESENTATION_CONTEXT ( 'NONE', 'WORKASPACE' ) );
#432 = VERTEX_POINT ( 'NONE', #68 ) ;
#433 = CARTESIAN_POINT ( 'NONE',  ( 38.99989124646825189, 11.47999174557942048, -23.32499999999999929 ) ) ;
#434 = LINE ( 'NONE', #270, #309 ) ;
#435 = APPLICATION_PROTOCOL_DEFINITION ( 'international standard', 'config_control_design', 1994, #802 ) ;
#436 = VERTEX_POINT ( 'NONE', #881 ) ;
#437 = PERSON ( 'UNSPECIFIED', 'UNSPECIFIED', 'UNSPECIFIED', ('UNSPECIFIED'), ('UNSPECIFIED'), ('UNSPECIFIED') ) ;
#438 = VERTEX_POINT ( 'NONE', #727 ) ;
#439 = CARTESIAN_POINT ( 'NONE',  ( 30.99989314403829965, 21.47999326363520112, -46.00000000000000000 ) ) ;
#440 = DIRECTION ( 'NONE',  ( -1.897569935210839993E-07, -0.9999999999999820144, 2.069105728748480341E-22 ) ) ;
#441 = DIRECTION ( 'NONE',  ( 0.000000000000000000, -1.000000000000000000, 1.387778780781446070E-15 ) ) ;
#442 = AXIS2_PLACEMENT_3D ( 'NONE', #675, #586, #307 ) ;
#443 = FACE_OUTER_BOUND ( 'NONE', #969, .T. ) ;
#444 = ORIENTED_EDGE ( 'NONE', *, *, #175, .F. ) ;
#445 = ORIENTED_EDGE ( 'NONE', *, *, #204, .F. ) ;
#446 = LINE ( 'NONE', #827, #194 ) ;
#447 = FACE_OUTER_BOUND ( 'NONE', #178, .T. ) ;
#448 = CARTESIAN_POINT ( 'NONE',  ( 20.00000000000000000, 51.00000000000000000, 8.124891681027854418 ) ) ;
#449 = VERTEX_POINT ( 'NONE', #2 ) ;
#450 = CARTESIAN_POINT ( 'NONE',  ( 66.00000000000000000, 6.000000000000000000, -64.00000000000000000 ) ) ;
#451 = DIRECTION ( 'NONE',  ( 0.000000000000000000, 1.000000000000000000, 0.000000000000000000 ) ) ;
#452 = AXIS2_PLACEMENT_3D ( 'NONE', #800, #951, #278 ) ;
#453 = FACE_OUTER_BOUND ( 'NONE', #788, .T. ) ;
#454 = EDGE_CURVE ( 'NONE', #273, #374, #522, .T. ) ;
#455 = ORIENTED_EDGE ( 'NONE', *, *, #385, .F. ) ;
#456 = CARTESIAN_POINT ( 'NONE',  ( 20.00000000000000000, 46.00000000000000000, -64.00000000000000000 ) ) ;
#457 = FACE_OUTER_BOUND ( 'NONE', #697, .T. ) ;
#458 = LINE ( 'NONE', #315, #729 ) ;
#459 = DIRECTION ( 'NONE',  ( 1.897569937664491683E-07, 0.9999999999999820144, 0.000000000000000000 ) ) ;
#460 = AXIS2_PLACEMENT_3D ( 'NONE', #645, #296, #953 ) ;
#461 = DIRECTION ( 'NONE',  ( 1.090397613471135860E-15, 0.000000000000000000, 1.000000000000000000 ) ) ;
#462 = ORIENTED_EDGE ( 'NONE', *, *, #935, .T. ) ;
#463 = VECTOR ( 'NONE', #944, 1000.000000000000000 ) ;
#464 = CARTESIAN_POINT ( 'NONE',  ( 20.00000000000000000, 46.00000000000000000, -46.00000000000000000 ) ) ;
#465 = CARTESIAN_POINT ( 'NONE',  ( 20.00000000000000000, 51.00000000000000000, -57.70000000000000284 ) ) ;
#466 = ORIENTED_EDGE ( 'NONE', *, *, #292, .F. ) ;
#467 = FACE_BOUND ( 'NONE', #114, .T. ) ;
#468 = APPROVAL_PERSON_ORGANIZATION ( #212, #298, #746 ) ;
#469 = CALENDAR_DATE ( 2025, 10, 10 ) ;
#470 = PRODUCT_DEFINITION ( 'UNKNOWN', '', #807, #946 ) ;
#471 = DIRECTION ( 'NONE',  ( -1.000000000000000000, -1.445602896647337931E-16, 0.000000000000000000 ) ) ;
#472 = ORIENTED_EDGE ( 'NONE', *, *, #327, .F. ) ;
#473 = VERTEX_POINT ( 'NONE', #821 ) ;
#474 = FACE_OUTER_BOUND ( 'NONE', #549, .T. ) ;
#475 = CARTESIAN_POINT ( 'NONE',  ( 69.00000000000000000, 49.00000000000000711, -57.70000000000000284 ) ) ;
#476 = VERTEX_POINT ( 'NONE', #223 ) ;
#477 = ORIENTED_EDGE ( 'NONE', *, *, #630, .T. ) ;
#478 = LINE ( 'NONE', #338, #512 ) ;
#479 = DIRECTION ( 'NONE',  ( 0.000000000000000000, 0.000000000000000000, -1.000000000000000000 ) ) ;
#480 = CARTESIAN_POINT ( 'NONE',  ( 20.00000000000000000, 46.00000000000000000, -57.70000000000000284 ) ) ;
#481 = CC_DESIGN_PERSON_AND_ORGANIZATION_ASSIGNMENT ( #768, #921, ( #807 ) ) ;
#482 = PRODUCT ( 'Corner Bracket with Magnet Top', 'Corner Bracket with Magnet Top', '', ( #378 ) ) ;
#483 = AXIS2_PLACEMENT_3D ( 'NONE', #620, #180, #792 ) ;
#484 = VERTEX_POINT ( 'NONE', #450 ) ;
#485 = VECTOR ( 'NONE', #236, 1000.000000000000000 ) ;
#486 = VECTOR ( 'NONE', #76, 1000.000000000000000 ) ;
#487 = ORIENTED_EDGE ( 'NONE', *, *, #711, .F. ) ;
#488 = CIRCLE ( 'NONE', #65, 4.849999999999999645 ) ;
#489 = ORIENTED_EDGE ( 'NONE', *, *, #181, .F. ) ;
#490 = EDGE_CURVE ( 'NONE', #49, #417, #860, .T. ) ;
#491 = CARTESIAN_POINT ( 'NONE',  ( 66.00000000000000000, 1.999999999999999556, 14.42489168102786756 ) ) ;
#492 = DIRECTION ( 'NONE',  ( 0.000000000000000000, 1.000000000000000000, 0.000000000000000000 ) ) ;
#493 = CC_DESIGN_PERSON_AND_ORGANIZATION_ASSIGNMENT ( #143, #151, ( #482 ) ) ;
#494 = ORIENTED_EDGE ( 'NONE', *, *, #716, .T. ) ;
#495 = DIRECTION ( 'NONE',  ( 0.000000000000000000, -1.000000000000000000, 0.000000000000000000 ) ) ;
#496 = CARTESIAN_POINT ( 'NONE',  ( 37.32988906805819340, -7.083607515440150168E-06, -4.457036704661754257E-14 ) ) ;
#497 = VERTEX_POINT ( 'NONE', #387 ) ;
#498 = AXIS2_PLACEMENT_3D ( 'NONE', #161, #690, #26 ) ;
#499 = DIRECTION ( 'NONE',  ( 0.000000000000000000, 0.000000000000000000, -1.000000000000000000 ) ) ;
#500 = LINE ( 'NONE', #491, #170 ) ;
#501 = CARTESIAN_POINT ( 'NONE',  ( 30.99988906805939592, 1.821436819590740197E-15, -34.99988906805934619 ) ) ;
#502 = CIRCLE ( 'NONE', #185, 4.849999999999999645 ) ;
#503 = EDGE_LOOP ( 'NONE', ( #629, #899, #146, #418, #766, #853 ) ) ;
#504 = CARTESIAN_POINT ( 'NONE',  ( 71.00000000000001421, -9.368548013477251456E-15, -66.00000000000000000 ) ) ;
#505 = LINE ( 'NONE', #962, #128 ) ;
#506 = CARTESIAN_POINT ( 'NONE',  ( 30.99988906805940658, 1.927256380993412384E-16, -5.825000000000000178 ) ) ;
#507 = ORGANIZATION ( 'UNSPECIFIED', 'UNSPECIFIED', '' ) ;
#508 = ORIENTED_EDGE ( 'NONE', *, *, #5, .T. ) ;
#509 = CARTESIAN_POINT ( 'NONE',  ( 26.00000000000000000, 36.00000000000000000, -56.00000000000000000 ) ) ;
#510 = FACE_OUTER_BOUND ( 'NONE', #259, .T. ) ;
#511 = LINE ( 'NONE', #646, #210 ) ;
#512 = VECTOR ( 'NONE', #321, 1000.000000000000000 ) ;
#513 = EDGE_LOOP ( 'NONE', ( #607, #540 ) ) ;
#514 = ORIENTED_EDGE ( 'NONE', *, *, #898, .F. ) ;
#515 = LINE ( 'NONE', #960, #787 ) ;
#516 = CARTESIAN_POINT ( 'NONE',  ( 66.00000000000000000, 6.000000000000000000, -64.00000000000000000 ) ) ;
#517 = DIRECTION ( 'NONE',  ( 0.000000000000000000, -1.000000000000000000, 0.000000000000000000 ) ) ;
#518 = APPROVAL_STATUS ( 'not_yet_approved' ) ;
#519 = EDGE_CURVE ( 'NONE', #132, #585, #515, .T. ) ;
#520 = EDGE_CURVE ( 'NONE', #761, #177, #912, .T. ) ;
#521 = ORIENTED_EDGE ( 'NONE', *, *, #784, .T. ) ;
#522 = LINE ( 'NONE', #810, #244 ) ;
#523 = DIRECTION ( 'NONE',  ( 0.000000000000000000, -1.445602896647339903E-16, 1.000000000000000000 ) ) ;
#524 = EDGE_CURVE ( 'NONE', #301, #632, #488, .T. ) ;
#525 = PLANE ( 'NONE',  #801 ) ;
#526 = DIRECTION ( 'NONE',  ( -1.000000000000000000, 0.000000000000000000, 0.000000000000000000 ) ) ;
#527 = VERTEX_POINT ( 'NONE', #147 ) ;
#528 = DIRECTION ( 'NONE',  ( 0.000000000000000000, -1.000000000000000000, 0.000000000000000000 ) ) ;
#529 = FACE_OUTER_BOUND ( 'NONE', #933, .T. ) ;
#530 = LOCAL_TIME ( 14, 28, 16.00000000000000000, #589 ) ;
#531 = LINE ( 'NONE', #390, #62 ) ;
#532 = DIRECTION ( 'NONE',  ( -0.000000000000000000, -0.000000000000000000, -1.000000000000000000 ) ) ;
#533 = CARTESIAN_POINT ( 'NONE',  ( 66.00000000000000000, 6.938893903907229955E-15, -66.00000000000000000 ) ) ;
#534 = AXIS2_PLACEMENT_3D ( 'NONE', #612, #822, #247 ) ;
#535 = VECTOR ( 'NONE', #88, 1000.000000000000000 ) ;
#536 = DIRECTION ( 'NONE',  ( -1.334402673828311860E-16, 1.000000000000000000, 0.000000000000000000 ) ) ;
#537 = EDGE_LOOP ( 'NONE', ( #849, #187, #929, #740 ) ) ;
#538 = CARTESIAN_POINT ( 'NONE',  ( 22.00000000000000000, 48.99999999999999289, -57.70000000000000284 ) ) ;
#539 = CARTESIAN_POINT ( 'NONE',  ( 56.00000000000000000, 0.000000000000000000, -56.00000000000000000 ) ) ;
#540 = ORIENTED_EDGE ( 'NONE', *, *, #520, .F. ) ;
#541 = ORIENTED_EDGE ( 'NONE', *, *, #566, .T. ) ;
#542 = CARTESIAN_POINT ( 'NONE',  ( 20.00000000000000000, 0.000000000000000000, -66.00000000000000000 ) ) ;
#543 = FACE_OUTER_BOUND ( 'NONE', #137, .T. ) ;
#544 = ORIENTED_EDGE ( 'NONE', *, *, #706, .F. ) ;
#545 = VERTEX_POINT ( 'NONE', #657 ) ;
#546 = DIRECTION ( 'NONE',  ( 0.9999999999999820144, -1.897569937664489830E-07, -1.030625082522456152E-15 ) ) ;
#547 = CARTESIAN_POINT ( 'NONE',  ( 71.00000000000001421, -9.368548013477251456E-15, 8.124891681027854418 ) ) ;
#548 = EDGE_CURVE ( 'NONE', #177, #417, #965, .T. ) ;
#549 = EDGE_LOOP ( 'NONE', ( #477, #112, #195, #325 ) ) ;
#550 = EDGE_CURVE ( 'NONE', #859, #623, #446, .T. ) ;
#551 = DIRECTION ( 'NONE',  ( 0.000000000000000000, -1.000000000000000000, 0.000000000000000000 ) ) ;
#552 = VECTOR ( 'NONE', #639, 1000.000000000000000 ) ;
#553 = VERTEX_POINT ( 'NONE', #370 ) ;
#554 = EDGE_CURVE ( 'NONE', #394, #596, #160, .T. ) ;
#555 = VERTEX_POINT ( 'NONE', #230 ) ;
#556 = AXIS2_PLACEMENT_3D ( 'NONE', #614, #767, #326 ) ;
#557 = EDGE_CURVE ( 'NONE', #623, #702, #69, .T. ) ;
#558 = VERTEX_POINT ( 'NONE', #371 ) ;
#559 = VECTOR ( 'NONE', #889, 1000.000000000000000 ) ;
#560 = CARTESIAN_POINT ( 'NONE',  ( 69.00000000000000000, 49.00000000000000711, 14.42489168102786756 ) ) ;
#561 = DIRECTION ( 'NONE',  ( -0.9999999999999820144, 1.897569934516950074E-07, 1.189524692753782660E-15 ) ) ;
#562 = ORIENTED_EDGE ( 'NONE', *, *, #637, .F. ) ;
#563 = ORIENTED_EDGE ( 'NONE', *, *, #719, .F. ) ;
#564 = PLANE ( 'NONE',  #317 ) ;
#565 = VECTOR ( 'NONE', #36, 1000.000000000000000 ) ;
#566 = EDGE_CURVE ( 'NONE', #840, #52, #961, .T. ) ;
#567 = ORIENTED_EDGE ( 'NONE', *, *, #305, .F. ) ;
#568 = DIRECTION ( 'NONE',  ( -1.000000000000000000, 0.000000000000000000, 0.000000000000000000 ) ) ;
#569 = DIRECTION ( 'NONE',  ( 0.000000000000000000, 0.000000000000000000, 1.000000000000000000 ) ) ;
#570 = LINE ( 'NONE', #11, #949 ) ;
#571 = ORIENTED_EDGE ( 'NONE', *, *, #35, .T. ) ;
#572 = CIRCLE ( 'NONE', #364, 3.000000000000002665 ) ;
#573 = CC_DESIGN_DATE_AND_TIME_ASSIGNMENT ( #679, #604, ( #885 ) ) ;
#574 = CARTESIAN_POINT ( 'NONE',  ( 26.00000000000000000, 46.00000000000000000, -46.00000000000000000 ) ) ;
#575 = VECTOR ( 'NONE', #214, 1000.000000000000000 ) ;
#576 = ADVANCED_FACE ( 'NONE', ( #510 ), #870, .F. ) ;
#577 = DIRECTION ( 'NONE',  ( 1.000000000000000000, 1.445602896647337931E-16, 0.000000000000000000 ) ) ;
#578 = DIRECTION ( 'NONE',  ( 0.000000000000000000, 0.000000000000000000, -1.000000000000000000 ) ) ;
#579 = EDGE_LOOP ( 'NONE', ( #643, #846, #213, #264, #107, #355 ) ) ;
#580 = ORIENTED_EDGE ( 'NONE', *, *, #399, .F. ) ;
#581 = LINE ( 'NONE', #456, #575 ) ;
#582 = DIRECTION ( 'NONE',  ( -1.000000000000000000, -1.734723475976809806E-16, 0.000000000000000000 ) ) ;
#583 = PLANE ( 'NONE',  #708 ) ;
#584 = ORIENTED_EDGE ( 'NONE', *, *, #524, .T. ) ;
#585 = VERTEX_POINT ( 'NONE', #203 ) ;
#586 = DIRECTION ( 'NONE',  ( -1.000000000000000000, 0.000000000000000000, 0.000000000000000000 ) ) ;
#587 = DIRECTION ( 'NONE',  ( -1.897569936251674873E-07, -0.9999999999999820144, 0.000000000000000000 ) ) ;
#588 = PLANE ( 'NONE',  #785 ) ;
#589 = COORDINATED_UNIVERSAL_TIME_OFFSET ( 5, 0, .BEHIND. ) ;
#590 = ADVANCED_FACE ( 'NONE', ( #428 ), #895, .F. ) ;
#591 = EDGE_CURVE ( 'NONE', #144, #555, #882, .T. ) ;
#592 = VERTEX_POINT ( 'NONE', #574 ) ;
#593 = CARTESIAN_POINT ( 'NONE',  ( 22.00000000000000000, 48.99999999999999289, -57.70000000000000284 ) ) ;
#594 = DIRECTION ( 'NONE',  ( -1.000000000000000000, 0.000000000000000000, 0.000000000000000000 ) ) ;
#595 = FACE_OUTER_BOUND ( 'NONE', #330, .T. ) ;
#596 = VERTEX_POINT ( 'NONE', #127 ) ;
#597 = CARTESIAN_POINT ( 'NONE',  ( 71.00000000000001421, 51.00000000000001421, -57.70000000000000284 ) ) ;
#598 = LINE ( 'NONE', #89, #115 ) ;
#599 = DIRECTION ( 'NONE',  ( 0.000000000000000000, -1.000000000000000000, 0.000000000000000000 ) ) ;
#600 = CARTESIAN_POINT ( 'NONE',  ( 26.00000000000000000, 21.47999421239990170, -64.00000000000000000 ) ) ;
#601 = EDGE_CURVE ( 'NONE', #555, #93, #53, .T. ) ;
#602 = VECTOR ( 'NONE', #340, 1000.000000000000000 ) ;
#603 = DIRECTION ( 'NONE',  ( 1.000000000000000000, 1.734723475976804876E-16, 0.000000000000000000 ) ) ;
#604 = DATE_TIME_ROLE ( 'classification_date' ) ;
#605 = VECTOR ( 'NONE', #603, 1000.000000000000000 ) ;
#606 = LINE ( 'NONE', #909, #866 ) ;
#607 = ORIENTED_EDGE ( 'NONE', *, *, #630, .F. ) ;
#608 = CARTESIAN_POINT ( 'NONE',  ( 37.32989216678969768, 16.32999206247350088, -23.32499999999999929 ) ) ;
#609 = APPROVAL_ROLE ( '' ) ;
#610 = CIRCLE ( 'NONE', #366, 3.000000000000002665 ) ;
#611 = ADVANCED_BREP_SHAPE_REPRESENTATION ( 'Corner Bracket with Magnet Top', ( #873, #937 ), #431 ) ;
#612 = CARTESIAN_POINT ( 'NONE',  ( 38.99989124646825189, 11.47999174557942048, -23.32499999999999929 ) ) ;
#613 = ORIENTED_EDGE ( 'NONE', *, *, #621, .T. ) ;
#614 = CARTESIAN_POINT ( 'NONE',  ( -1.387778780781445991E-14, 36.00000000000000000, -56.00000000000000000 ) ) ;
#615 = DIRECTION ( 'NONE',  ( -2.952720810173288126E-16, 1.000000000000000000, 0.000000000000000000 ) ) ;
#616 = ORIENTED_EDGE ( 'NONE', *, *, #550, .T. ) ;
#617 = ORIENTED_EDGE ( 'NONE', *, *, #794, .T. ) ;
#618 = FACE_OUTER_BOUND ( 'NONE', #579, .T. ) ;
#619 = EDGE_CURVE ( 'NONE', #93, #634, #133, .T. ) ;
#620 = CARTESIAN_POINT ( 'NONE',  ( 0.000000000000000000, 0.000000000000000000, -64.00000000000000000 ) ) ;
#621 = EDGE_CURVE ( 'NONE', #592, #232, #804, .T. ) ;
#622 = ORIENTED_EDGE ( 'NONE', *, *, #554, .T. ) ;
#623 = VERTEX_POINT ( 'NONE', #356 ) ;
#624 = DIRECTION ( 'NONE',  ( -1.000000000000000000, 0.000000000000000000, 3.926272819685178028E-29 ) ) ;
#625 = AXIS2_PLACEMENT_3D ( 'NONE', #433, #224, #811 ) ;
#626 = CARTESIAN_POINT ( 'NONE',  ( 71.00000000000001421, -6.938893903907228378E-15, -57.70000000000000284 ) ) ;
#627 = ORIENTED_EDGE ( 'NONE', *, *, #181, .T. ) ;
#628 = AXIS2_PLACEMENT_3D ( 'NONE', #658, #440, #215 ) ;
#629 = ORIENTED_EDGE ( 'NONE', *, *, #131, .F. ) ;
#630 = EDGE_CURVE ( 'NONE', #177, #761, #786, .T. ) ;
#631 = ADVANCED_FACE ( 'NONE', ( #447 ), #280, .F. ) ;
#632 = VERTEX_POINT ( 'NONE', #728 ) ;
#633 = VECTOR ( 'NONE', #847, 1000.000000000000000 ) ;
#634 = VERTEX_POINT ( 'NONE', #504 ) ;
#635 = CARTESIAN_POINT ( 'NONE',  ( 71.00000000000001421, -9.368548013477251456E-15, 8.124891681027854418 ) ) ;
#636 = CARTESIAN_POINT ( 'NONE',  ( 22.00000000000000000, 46.00000000000000000, 14.42489168102786756 ) ) ;
#637 = EDGE_CURVE ( 'NONE', #484, #1, #140, .T. ) ;
#638 = ORIENTED_EDGE ( 'NONE', *, *, #219, .F. ) ;
#639 = DIRECTION ( 'NONE',  ( -0.9999999999999820144, 1.897569935210839993E-07, 1.030625082522456152E-15 ) ) ;
#640 = PLANE ( 'NONE',  #452 ) ;
#641 = CC_DESIGN_PERSON_AND_ORGANIZATION_ASSIGNMENT ( #837, #174, ( #807 ) ) ;
#642 = AXIS2_PLACEMENT_3D ( 'NONE', #547, #48, #852 ) ;
#643 = ORIENTED_EDGE ( 'NONE', *, *, #694, .F. ) ;
#644 = EDGE_CURVE ( 'NONE', #702, #558, #61, .T. ) ;
#645 = CARTESIAN_POINT ( 'NONE',  ( 20.00000000000000000, 36.00000000000000000, -56.00000000000000000 ) ) ;
#646 = CARTESIAN_POINT ( 'NONE',  ( 38.99989020660149208, 6.000000000000000000, -4.252538720691459960E-14 ) ) ;
#647 = DATE_TIME_ROLE ( 'creation_date' ) ;
#648 = ORIENTED_EDGE ( 'NONE', *, *, #162, .F. ) ;
#649 = LINE ( 'NONE', #597, #957 ) ;
#650 = VECTOR ( 'NONE', #582, 1000.000000000000000 ) ;
#651 = DIRECTION ( 'NONE',  ( 0.000000000000000000, 0.000000000000000000, -1.000000000000000000 ) ) ;
#652 = VECTOR ( 'NONE', #153, 1000.000000000000000 ) ;
#653 = CARTESIAN_POINT ( 'NONE',  ( 38.99989314403814689, 6.000000000000000000, -64.00000000000000000 ) ) ;
#654 = FACE_BOUND ( 'NONE', #263, .T. ) ;
#655 = ORIENTED_EDGE ( 'NONE', *, *, #844, .T. ) ;
#656 = EDGE_LOOP ( 'NONE', ( #41, #361, #286, #850, #669, #279, #403, #940, #411, #487 ) ) ;
#657 = CARTESIAN_POINT ( 'NONE',  ( 69.00000000000000000, 2.000000000000000000, -57.70000000000000284 ) ) ;
#658 = CARTESIAN_POINT ( 'NONE',  ( 38.99989314403819662, 21.47999174557924817, -5.825000000000000178 ) ) ;
#659 = DIRECTION ( 'NONE',  ( 1.192678474473435176E-07, 0.000000000000000000, 0.9999999999999927836 ) ) ;
#660 = APPROVAL_STATUS ( 'not_yet_approved' ) ;
#661 = EDGE_CURVE ( 'NONE', #596, #963, #363, .T. ) ;
#662 = VERTEX_POINT ( 'NONE', #665 ) ;
#663 = ORIENTED_EDGE ( 'NONE', *, *, #780, .T. ) ;
#664 = DIRECTION ( 'NONE',  ( 0.000000000000000000, 1.000000000000000000, 0.000000000000000000 ) ) ;
#665 = CARTESIAN_POINT ( 'NONE',  ( 20.00000000000000000, 0.000000000000000000, -66.00000000000000000 ) ) ;
#666 = ADVANCED_FACE ( 'NONE', ( #3 ), #905, .F. ) ;
#667 = DIRECTION ( 'NONE',  ( 0.000000000000000000, 0.000000000000000000, -1.000000000000000000 ) ) ;
#668 = DIRECTION ( 'NONE',  ( -1.000000000000000000, -1.734723475976804876E-16, 0.000000000000000000 ) ) ;
#669 = ORIENTED_EDGE ( 'NONE', *, *, #591, .F. ) ;
#670 = LINE ( 'NONE', #593, #535 ) ;
#671 = CARTESIAN_POINT ( 'NONE',  ( 20.00000000000000000, 33.00000000000000000, -56.00000000000000000 ) ) ;
#672 = DIRECTION ( 'NONE',  ( -1.000000000000000000, 1.360567432138672081E-16, 0.000000000000000000 ) ) ;
#673 = FACE_OUTER_BOUND ( 'NONE', #503, .T. ) ;
#674 = ORIENTED_EDGE ( 'NONE', *, *, #385, .T. ) ;
#675 = CARTESIAN_POINT ( 'NONE',  ( 20.00000000000000000, 36.00000000000000000, -56.00000000000000000 ) ) ;
#676 = CARTESIAN_POINT ( 'NONE',  ( 66.00000000000000000, 6.000000000000000000, -46.00000000000000000 ) ) ;
#677 = VECTOR ( 'NONE', #63, 1000.000000000000000 ) ;
#678 = LINE ( 'NONE', #836, #605 ) ;
#679 = DATE_AND_TIME ( #316, #297 ) ;
#680 = LINE ( 'NONE', #676, #111 ) ;
#681 = ADVANCED_FACE ( 'NONE', ( #9, #154 ), #323, .T. ) ;
#682 = ORIENTED_EDGE ( 'NONE', *, *, #109, .F. ) ;
#683 = DIRECTION ( 'NONE',  ( 1.897569937664491683E-07, 0.9999999999999820144, 0.000000000000000000 ) ) ;
#684 = SHAPE_DEFINITION_REPRESENTATION ( #104, #611 ) ;
#685 = AXIS2_PLACEMENT_3D ( 'NONE', #851, #693, #260 ) ;
#686 = DIRECTION ( 'NONE',  ( 0.9999999999999820144, -1.897569934516950074E-07, -1.090397613471115941E-15 ) ) ;
#687 = ORIENTED_EDGE ( 'NONE', *, *, #784, .F. ) ;
#688 = EDGE_CURVE ( 'NONE', #373, #144, #917, .T. ) ;
#689 = FACE_OUTER_BOUND ( 'NONE', #415, .T. ) ;
#690 = DIRECTION ( 'NONE',  ( 0.000000000000000000, 0.000000000000000000, -1.000000000000000000 ) ) ;
#691 = ORIENTED_EDGE ( 'NONE', *, *, #123, .F. ) ;
#692 = ORIENTED_EDGE ( 'NONE', *, *, #123, .T. ) ;
#693 = DIRECTION ( 'NONE',  ( 0.000000000000000000, 1.000000000000000000, 0.000000000000000000 ) ) ;
#694 = EDGE_CURVE ( 'NONE', #527, #394, #598, .T. ) ;
#695 = EDGE_CURVE ( 'NONE', #290, #449, #572, .T. ) ;
#696 = FACE_OUTER_BOUND ( 'NONE', #427, .T. ) ;
#697 = EDGE_LOOP ( 'NONE', ( #201, #66, #81, #692 ) ) ;
#698 = APPROVAL_PERSON_ORGANIZATION ( #907, #922, #609 ) ;
#699 = CARTESIAN_POINT ( 'NONE',  ( 101.0538238691624002, 10.00000000000000000, -46.00000000000000000 ) ) ;
#700 = VECTOR ( 'NONE', #955, 1000.000000000000000 ) ;
#701 = CARTESIAN_POINT ( 'NONE',  ( 38.99989314403814689, 21.47999174557924817, -64.00000000000000000 ) ) ;
#702 = VERTEX_POINT ( 'NONE', #176 ) ;
#703 = CARTESIAN_POINT ( 'NONE',  ( 26.00000000000000000, 4.154083761455744942E-14, -46.00000000000000000 ) ) ;
#704 = VECTOR ( 'NONE', #532, 1000.000000000000000 ) ;
#705 = CIRCLE ( 'NONE', #736, 4.849999999999998757 ) ;
#706 = EDGE_CURVE ( 'NONE', #87, #193, #318, .T. ) ;
#707 = VERTEX_POINT ( 'NONE', #381 ) ;
#708 = AXIS2_PLACEMENT_3D ( 'NONE', #805, #267, #577 ) ;
#709 = EDGE_LOOP ( 'NONE', ( #19, #102, #571, #227 ) ) ;
#710 = ORIENTED_EDGE ( 'NONE', *, *, #716, .F. ) ;
#711 = EDGE_CURVE ( 'NONE', #545, #869, #22, .T. ) ;
#712 = DIRECTION ( 'NONE',  ( -0.9999999999999820144, 1.897569930510995100E-07, 1.189524692753782068E-15 ) ) ;
#713 = DIRECTION ( 'NONE',  ( 1.000000000000000000, 1.734723475976809806E-16, 0.000000000000000000 ) ) ;
#714 = UNCERTAINTY_MEASURE_WITH_UNIT (LENGTH_MEASURE( 1.000000000000000082E-05 ), #903, 'distance_accuracy_value', 'NONE');
#715 = ORIENTED_EDGE ( 'NONE', *, *, #550, .F. ) ;
#716 = EDGE_CURVE ( 'NONE', #273, #952, #901, .T. ) ;
#717 = LINE ( 'NONE', #142, #677 ) ;
#718 = PLANE ( 'NONE',  #190 ) ;
#719 = EDGE_CURVE ( 'NONE', #741, #952, #101, .T. ) ;
#720 = ORIENTED_EDGE ( 'NONE', *, *, #242, .T. ) ;
#721 = DIRECTION ( 'NONE',  ( 0.000000000000000000, 0.000000000000000000, 1.000000000000000000 ) ) ;
#722 = CARTESIAN_POINT ( 'NONE',  ( 37.32989124646829993, 11.47999206247359893, -23.32499999999999929 ) ) ;
#723 = CARTESIAN_POINT ( 'NONE',  ( 22.00000000000000000, 48.99999999999999289, 14.42489168102786756 ) ) ;
#724 = LOCAL_TIME ( 14, 28, 16.00000000000000000, #164 ) ;
#725 = CIRCLE ( 'NONE', #783, 3.000000000000002665 ) ;
#726 = ORIENTED_EDGE ( 'NONE', *, *, #419, .T. ) ;
#727 = CARTESIAN_POINT ( 'NONE',  ( 56.00000000000000000, 6.000000000000000000, -59.00000000000000000 ) ) ;
#728 = CARTESIAN_POINT ( 'NONE',  ( 37.32989032614690217, 6.629992062473700543, -23.32499999999999929 ) ) ;
#729 = VECTOR ( 'NONE', #517, 1000.000000000000000 ) ;
#730 = LINE ( 'NONE', #120, #426 ) ;
#731 = PLANE ( 'NONE',  #904 ) ;
#732 = EDGE_CURVE ( 'NONE', #592, #432, #402, .T. ) ;
#733 = ORIENTED_EDGE ( 'NONE', *, *, #253, .T. ) ;
#734 = CARTESIAN_POINT ( 'NONE',  ( 69.00000000000000000, 2.000000000000000000, -57.70000000000000284 ) ) ;
#735 = CARTESIAN_POINT ( 'NONE',  ( 30.99988934889844927, 1.479993263635559941, -5.825000000000000178 ) ) ;
#736 = AXIS2_PLACEMENT_3D ( 'NONE', #395, #546, #683 ) ;
#737 = ADVANCED_FACE ( 'NONE', ( #14 ), #833, .T. ) ;
#738 = DIRECTION ( 'NONE',  ( -0.000000000000000000, -0.000000000000000000, -1.000000000000000000 ) ) ;
#739 = CALENDAR_DATE ( 2025, 10, 10 ) ;
#740 = ORIENTED_EDGE ( 'NONE', *, *, #333, .T. ) ;
#741 = VERTEX_POINT ( 'NONE', #388 ) ;
#742 = DIRECTION ( 'NONE',  ( 1.000000000000000000, 1.734723475976804876E-16, 0.000000000000000000 ) ) ;
#743 = CC_DESIGN_PERSON_AND_ORGANIZATION_ASSIGNMENT ( #757, #825, ( #470 ) ) ;
#744 = CARTESIAN_POINT ( 'NONE',  ( 22.00000000000000000, 48.99999999999999289, 14.42489168102786756 ) ) ;
#745 = CYLINDRICAL_SURFACE ( 'NONE', #344, 3.000000000000002665 ) ;
#746 = APPROVAL_ROLE ( '' ) ;
#747 = EDGE_LOOP ( 'NONE', ( #208, #880, #918, #119, #514 ) ) ;
#748 = CARTESIAN_POINT ( 'NONE',  ( 26.00000000000000000, 39.00000000000000000, -56.00000000000000000 ) ) ;
#749 = AXIS2_PLACEMENT_3D ( 'NONE', #335, #713, #848 ) ;
#750 = DIRECTION ( 'NONE',  ( 0.000000000000000000, -1.000000000000000000, 0.000000000000000000 ) ) ;
#751 = DIRECTION ( 'NONE',  ( 0.000000000000000000, 1.000000000000000000, 0.000000000000000000 ) ) ;
#752 = EDGE_LOOP ( 'NONE', ( #861, #369 ) ) ;
#753 = CARTESIAN_POINT ( 'NONE',  ( 30.99989314403834939, 21.47999326363520112, -5.825000000000000178 ) ) ;
#754 = CARTESIAN_POINT ( 'NONE',  ( 22.00000000000000000, 48.99999999999999289, 14.42489168102786756 ) ) ;
#755 = VECTOR ( 'NONE', #499, 1000.000000000000000 ) ;
#756 = CARTESIAN_POINT ( 'NONE',  ( 38.99989314403819662, 21.47999174557924817, -5.825000000000000178 ) ) ;
#757 = PERSON_AND_ORGANIZATION ( #437, #507 ) ;
#758 = ADVANCED_FACE ( 'NONE', ( #529 ), #171, .F. ) ;
#759 = CARTESIAN_POINT ( 'NONE',  ( 22.00000000000000000, 48.99999999999999289, -64.00000000000000000 ) ) ;
#760 = VECTOR ( 'NONE', #199, 1000.000000000000000 ) ;
#761 = VERTEX_POINT ( 'NONE', #671 ) ;
#762 = DIRECTION ( 'NONE',  ( 0.6199249253035297169, 0.000000000000000000, -0.7846611287603160179 ) ) ;
#763 = LINE ( 'NONE', #10, #398 ) ;
#764 = DIRECTION ( 'NONE',  ( -0.000000000000000000, 0.000000000000000000, -1.000000000000000000 ) ) ;
#765 = CC_DESIGN_SECURITY_CLASSIFICATION ( #885, ( #807 ) ) ;
#766 = ORIENTED_EDGE ( 'NONE', *, *, #77, .F. ) ;
#767 = DIRECTION ( 'NONE',  ( 1.000000000000000000, 1.734723475976809806E-16, 0.000000000000000000 ) ) ;
#768 = PERSON_AND_ORGANIZATION ( #437, #507 ) ;
#769 = VECTOR ( 'NONE', #4, 1000.000000000000000 ) ;
#770 = DIRECTION ( 'NONE',  ( 0.000000000000000000, 1.000000000000000000, 0.000000000000000000 ) ) ;
#771 = ADVANCED_FACE ( 'NONE', ( #457 ), #328, .F. ) ;
#772 = EDGE_CURVE ( 'NONE', #484, #558, #680, .T. ) ;
#773 = ORIENTED_EDGE ( 'NONE', *, *, #644, .T. ) ;
#774 = EDGE_CURVE ( 'NONE', #527, #797, #313, .T. ) ;
#775 = DIRECTION ( 'NONE',  ( 0.000000000000000000, 1.000000000000000000, 0.000000000000000000 ) ) ;
#776 = DIRECTION ( 'NONE',  ( -1.000000000000000000, 0.000000000000000000, -0.000000000000000000 ) ) ;
#777 = ORIENTED_EDGE ( 'NONE', *, *, #838, .T. ) ;
#778 = ORIENTED_EDGE ( 'NONE', *, *, #695, .F. ) ;
#779 = LINE ( 'NONE', #703, #265 ) ;
#780 = EDGE_CURVE ( 'NONE', #193, #484, #606, .T. ) ;
#781 = CARTESIAN_POINT ( 'NONE',  ( 66.00000000000000000, 1.040834085586083941E-14, 0.000000000000000000 ) ) ;
#782 = CARTESIAN_POINT ( 'NONE',  ( 22.00000000000000000, 46.00000000000000000, -57.70000000000000284 ) ) ;
#783 = AXIS2_PLACEMENT_3D ( 'NONE', #130, #492, #927 ) ;
#784 = EDGE_CURVE ( 'NONE', #963, #553, #96, .T. ) ;
#785 = AXIS2_PLACEMENT_3D ( 'NONE', #448, #382, #672 ) ;
#786 = CIRCLE ( 'NONE', #460, 3.000000000000002665 ) ;
#787 = VECTOR ( 'NONE', #302, 1000.000000000000000 ) ;
#788 = EDGE_LOOP ( 'NONE', ( #269, #13, #249, #928 ) ) ;
#789 = ADVANCED_FACE ( 'NONE', ( #430 ), #56, .T. ) ;
#790 = ORIENTED_EDGE ( 'NONE', *, *, #399, .T. ) ;
#791 = DIRECTION ( 'NONE',  ( 0.000000000000000000, 1.000000000000000000, 0.000000000000000000 ) ) ;
#792 = DIRECTION ( 'NONE',  ( 1.000000000000000000, 0.000000000000000000, 0.000000000000000000 ) ) ;
#793 = ORIENTED_EDGE ( 'NONE', *, *, #6, .F. ) ;
#794 = EDGE_CURVE ( 'NONE', #1, #859, #105, .T. ) ;
#795 = FACE_OUTER_BOUND ( 'NONE', #126, .T. ) ;
#796 = DIRECTION ( 'NONE',  ( 3.469447215294424989E-16, 1.000000000000000000, 0.000000000000000000 ) ) ;
#797 = VERTEX_POINT ( 'NONE', #197 ) ;
#798 = CARTESIAN_POINT ( 'NONE',  ( 26.00000000000000000, 46.00000000000000000, -40.00000000000000000 ) ) ;
#799 = CARTESIAN_POINT ( 'NONE',  ( 38.99989314403819662, 0.000000000000000000, -5.825000000000000178 ) ) ;
#800 = CARTESIAN_POINT ( 'NONE',  ( 26.00000000000000000, 4.510281037539699234E-15, -72.68332812825271105 ) ) ;
#801 = AXIS2_PLACEMENT_3D ( 'NONE', #464, #967, #906 ) ;
#802 = APPLICATION_CONTEXT ( 'configuration controlled 3d designs of mechanical parts and assemblies' ) ;
#803 = ORIENTED_EDGE ( 'NONE', *, *, #619, .F. ) ;
#804 = LINE ( 'NONE', #798, #834 ) ;
#805 = CARTESIAN_POINT ( 'NONE',  ( 69.00000000000000000, 2.000000000000000000, 14.42489168102786756 ) ) ;
#806 =( NAMED_UNIT ( * ) PLANE_ANGLE_UNIT ( ) SI_UNIT ( $, .RADIAN. ) );
#807 = PRODUCT_DEFINITION_FORMATION_WITH_SPECIFIED_SOURCE ( 'ANY', '', #482, .NOT_KNOWN. ) ;
#808 = ADVANCED_FACE ( 'NONE', ( #125 ), #186, .F. ) ;
#809 = EDGE_LOOP ( 'NONE', ( #444, #959, #266, #790 ) ) ;
#810 = CARTESIAN_POINT ( 'NONE',  ( 22.00000000000000000, 48.99999999999999289, -57.70000000000000284 ) ) ;
#811 = DIRECTION ( 'NONE',  ( -1.897569930510992453E-07, -0.9999999999999820144, 0.000000000000000000 ) ) ;
#812 = VECTOR ( 'NONE', #913, 1000.000000000000000 ) ;
#813 = LINE ( 'NONE', #799, #760 ) ;
#814 = ORIENTED_EDGE ( 'NONE', *, *, #95, .T. ) ;
#815 = ORIENTED_EDGE ( 'NONE', *, *, #898, .T. ) ;
#816 = DIRECTION ( 'NONE',  ( -1.897569930510992453E-07, -0.9999999999999820144, 0.000000000000000000 ) ) ;
#817 = CARTESIAN_POINT ( 'NONE',  ( 38.99989314403819662, 5.999999999999998224, -5.825000000000000178 ) ) ;
#818 = LINE ( 'NONE', #756, #908 ) ;
#819 = DIRECTION ( 'NONE',  ( 0.000000000000000000, 0.000000000000000000, 1.000000000000000000 ) ) ;
#820 = ORIENTED_EDGE ( 'NONE', *, *, #252, .T. ) ;
#821 = CARTESIAN_POINT ( 'NONE',  ( 19.99999999999999645, 0.000000000000000000, -45.99999999999998579 ) ) ;
#822 = DIRECTION ( 'NONE',  ( -0.9999999999999820144, 1.897569930510995100E-07, 1.030625082522456152E-15 ) ) ;
#823 = ADVANCED_FACE ( 'NONE', ( #696 ), #872, .T. ) ;
#824 = DIRECTION ( 'NONE',  ( -0.9999999999999820144, 1.897569935210839993E-07, 1.030625082522456152E-15 ) ) ;
#825 = PERSON_AND_ORGANIZATION_ROLE ( 'creator' ) ;
#826 = EDGE_LOOP ( 'NONE', ( #489, #563, #455, #45, #351, #43, #562, #943, #544, #691 ) ) ;
#827 = CARTESIAN_POINT ( 'NONE',  ( 38.99989314403819662, 21.47999174557924817, -5.825000000000000178 ) ) ;
#828 = VECTOR ( 'NONE', #18, 1000.000000000000000 ) ;
#829 = CARTESIAN_POINT ( 'NONE',  ( 38.99988934889834979, 1.479991745579609885, -5.825000000000000178 ) ) ;
#830 = ADVANCED_FACE ( 'NONE', ( #425 ), #718, .F. ) ;
#831 = CARTESIAN_POINT ( 'NONE',  ( 66.00000000000000000, 1.999999999999999556, -64.00000000000000000 ) ) ;
#832 = PERSON_AND_ORGANIZATION ( #437, #507 ) ;
#833 = PLANE ( 'NONE',  #498 ) ;
#834 = VECTOR ( 'NONE', #651, 1000.000000000000000 ) ;
#835 = AXIS2_PLACEMENT_3D ( 'NONE', #257, #551, #855 ) ;
#836 = CARTESIAN_POINT ( 'NONE',  ( -1.335737076502141936E-14, 33.00000000000000000, -56.00000000000000000 ) ) ;
#837 = PERSON_AND_ORGANIZATION ( #437, #507 ) ;
#838 = EDGE_CURVE ( 'NONE', #859, #797, #51, .T. ) ;
#839 = DIRECTION ( 'NONE',  ( -0.9999999999999820144, 1.897569934516950074E-07, 1.090397613471116335E-15 ) ) ;
#840 = VERTEX_POINT ( 'NONE', #626 ) ;
#841 = DIRECTION ( 'NONE',  ( 0.000000000000000000, 0.000000000000000000, 1.000000000000000000 ) ) ;
#842 = COORDINATED_UNIVERSAL_TIME_OFFSET ( 5, 0, .BEHIND. ) ;
#843 = DIRECTION ( 'NONE',  ( 0.000000000000000000, 0.000000000000000000, -1.000000000000000000 ) ) ;
#844 = EDGE_CURVE ( 'NONE', #436, #438, #725, .T. ) ;
#845 = ORIENTED_EDGE ( 'NONE', *, *, #6, .T. ) ;
#846 = ORIENTED_EDGE ( 'NONE', *, *, #333, .F. ) ;
#847 = DIRECTION ( 'NONE',  ( -1.897569934516950074E-07, -0.9999999999999820144, 1.387778780781420038E-15 ) ) ;
#848 = DIRECTION ( 'NONE',  ( -1.734723475976809560E-16, 1.000000000000000000, 0.000000000000000000 ) ) ;
#849 = ORIENTED_EDGE ( 'NONE', *, *, #774, .T. ) ;
#850 = ORIENTED_EDGE ( 'NONE', *, *, #413, .F. ) ;
#851 = CARTESIAN_POINT ( 'NONE',  ( 56.00000000000000000, 6.000000000000000000, -56.00000000000000000 ) ) ;
#852 = DIRECTION ( 'NONE',  ( 0.000000000000000000, 0.000000000000000000, -1.000000000000000000 ) ) ;
#853 = ORIENTED_EDGE ( 'NONE', *, *, #78, .F. ) ;
#854 = VECTOR ( 'NONE', #217, 1000.000000000000000 ) ;
#855 = DIRECTION ( 'NONE',  ( 0.000000000000000000, 0.000000000000000000, -1.000000000000000000 ) ) ;
#856 = ORIENTED_EDGE ( 'NONE', *, *, #183, .F. ) ;
#857 = ADVANCED_FACE ( 'NONE', ( #258 ), #868, .T. ) ;
#858 = AXIS2_PLACEMENT_3D ( 'NONE', #412, #250, #762 ) ;
#859 = VERTEX_POINT ( 'NONE', #701 ) ;
#860 = CIRCLE ( 'NONE', #416, 3.000000000000002665 ) ;
#861 = ORIENTED_EDGE ( 'NONE', *, *, #938, .T. ) ;
#862 = ORIENTED_EDGE ( 'NONE', *, *, #454, .T. ) ;
#863 = CARTESIAN_POINT ( 'NONE',  ( 38.99989314403814689, 21.47999174557924817, -64.00000000000000000 ) ) ;
#864 = ADVANCED_FACE ( 'NONE', ( #543 ), #564, .F. ) ;
#865 = ORIENTED_EDGE ( 'NONE', *, *, #183, .T. ) ;
#866 = VECTOR ( 'NONE', #536, 1000.000000000000000 ) ;
#867 = LINE ( 'NONE', #365, #42 ) ;
#868 = PLANE ( 'NONE',  #483 ) ;
#869 = VERTEX_POINT ( 'NONE', #475 ) ;
#870 = PLANE ( 'NONE',  #166 ) ;
#871 = CARTESIAN_POINT ( 'NONE',  ( 30.99988906805933198, -1.734723475976807094E-15, -46.00000000000000000 ) ) ;
#872 = PLANE ( 'NONE',  #642 ) ;
#873 = MANIFOLD_SOLID_BREP ( 'Boss-Extrude16[1]', #91 ) ;
#874 = VECTOR ( 'NONE', #451, 1000.000000000000000 ) ;
#875 = VERTEX_POINT ( 'NONE', #110 ) ;
#876 = CARTESIAN_POINT ( 'NONE',  ( 71.00000000000001421, 50.99999999999999289, 8.124891681027854418 ) ) ;
#877 = LINE ( 'NONE', #560, #854 ) ;
#878 = CARTESIAN_POINT ( 'NONE',  ( 0.000000000000000000, 0.000000000000000000, 0.000000000000000000 ) ) ;
#879 = VERTEX_POINT ( 'NONE', #200 ) ;
#880 = ORIENTED_EDGE ( 'NONE', *, *, #554, .F. ) ;
#881 = CARTESIAN_POINT ( 'NONE',  ( 56.00000000000000000, 6.000000000000000000, -53.00000000000000000 ) ) ;
#882 = LINE ( 'NONE', #209, #341 ) ;
#883 = CARTESIAN_POINT ( 'NONE',  ( 66.00000000000000000, -9.378348791999613354E-15, -57.70000000000000284 ) ) ;
#884 = DIRECTION ( 'NONE',  ( 0.9999999999999820144, -1.897569937664489830E-07, -1.030625082522456152E-15 ) ) ;
#885 = SECURITY_CLASSIFICATION ( '', '', #322 ) ;
#886 = ORIENTED_EDGE ( 'NONE', *, *, #44, .F. ) ;
#887 = ORIENTED_EDGE ( 'NONE', *, *, #131, .T. ) ;
#888 = CARTESIAN_POINT ( 'NONE',  ( 38.99988906805815247, -7.400501695059590066E-06, -4.204720571786039418E-14 ) ) ;
#889 = DIRECTION ( 'NONE',  ( -1.897569936251674873E-07, -0.9999999999999820144, 0.000000000000000000 ) ) ;
#890 = CARTESIAN_POINT ( 'NONE',  ( 20.00000000000000000, 39.00000000000000000, -56.00000000000000000 ) ) ;
#891 = CARTESIAN_POINT ( 'NONE',  ( 22.00000000000000000, 48.99999999999999289, -64.00000000000000000 ) ) ;
#892 = ORIENTED_EDGE ( 'NONE', *, *, #118, .T. ) ;
#893 = LINE ( 'NONE', #734, #652 ) ;
#894 = CARTESIAN_POINT ( 'NONE',  ( 69.00000000000000000, 2.000000000000000000, -64.00000000000000000 ) ) ;
#895 = PLANE ( 'NONE',  #628 ) ;
#896 = FACE_OUTER_BOUND ( 'NONE', #248, .T. ) ;
#897 = FACE_BOUND ( 'NONE', #513, .T. ) ;
#898 = EDGE_CURVE ( 'NONE', #963, #585, #422, .T. ) ;
#899 = ORIENTED_EDGE ( 'NONE', *, *, #688, .T. ) ;
#900 = CARTESIAN_POINT ( 'NONE',  ( -1.439820485060749888E-14, 39.00000000000000000, -56.00000000000000000 ) ) ;
#901 = LINE ( 'NONE', #754, #704 ) ;
#902 = CARTESIAN_POINT ( 'NONE',  ( 56.00000000000000000, -20.00000000000000000, -59.00000000000000000 ) ) ;
#903 =( LENGTH_UNIT ( ) NAMED_UNIT ( * ) SI_UNIT ( .MILLI., .METRE. ) );
#904 = AXIS2_PLACEMENT_3D ( 'NONE', #383, #668, #311 ) ;
#905 = CYLINDRICAL_SURFACE ( 'NONE', #534, 4.849999999999999645 ) ;
#906 = DIRECTION ( 'NONE',  ( 0.000000000000000000, 0.000000000000000000, -1.000000000000000000 ) ) ;
#907 = PERSON_AND_ORGANIZATION ( #437, #507 ) ;
#908 = VECTOR ( 'NONE', #150, 1000.000000000000000 ) ;
#909 = CARTESIAN_POINT ( 'NONE',  ( 66.00000000000000000, 1.040834085586083941E-14, -64.00000000000000000 ) ) ;
#910 = VECTOR ( 'NONE', #770, 1000.000000000000000 ) ;
#911 = ORIENTED_EDGE ( 'NONE', *, *, #772, .F. ) ;
#912 = CIRCLE ( 'NONE', #442, 3.000000000000002665 ) ;
#913 = DIRECTION ( 'NONE',  ( -1.000000000000000000, 0.000000000000000000, 0.000000000000000000 ) ) ;
#914 = ADVANCED_FACE ( 'NONE', ( #410 ), #30, .F. ) ;
#915 = DATE_AND_TIME ( #241, #17 ) ;
#916 = EDGE_CURVE ( 'NONE', #374, #741, #349, .T. ) ;
#917 = LINE ( 'NONE', #465, #874 ) ;
#918 = ORIENTED_EDGE ( 'NONE', *, *, #339, .T. ) ;
#919 = ORIENTED_EDGE ( 'NONE', *, *, #661, .T. ) ;
#920 = LINE ( 'NONE', #542, #812 ) ;
#921 = PERSON_AND_ORGANIZATION_ROLE ( 'design_supplier' ) ;
#922 = APPROVAL ( #251, 'UNSPECIFIED' ) ;
#923 = DIRECTION ( 'NONE',  ( -1.000000000000000000, -2.952720810173288126E-16, 0.000000000000000000 ) ) ;
#924 = ORIENTED_EDGE ( 'NONE', *, *, #557, .T. ) ;
#925 = PLANE ( 'NONE',  #835 ) ;
#926 = ADVANCED_FACE ( 'NONE', ( #945, #271 ), #640, .F. ) ;
#927 = DIRECTION ( 'NONE',  ( 0.000000000000000000, 0.000000000000000000, 1.000000000000000000 ) ) ;
#928 = ORIENTED_EDGE ( 'NONE', *, *, #145, .F. ) ;
#929 = ORIENTED_EDGE ( 'NONE', *, *, #621, .F. ) ;
#930 = VECTOR ( 'NONE', #92, 1000.000000000000000 ) ;
#931 = FACE_OUTER_BOUND ( 'NONE', #293, .T. ) ;
#932 = DIRECTION ( 'NONE',  ( -1.334402673828311860E-16, 1.000000000000000000, 0.000000000000000000 ) ) ;
#933 = EDGE_LOOP ( 'NONE', ( #919, #521, #445, #196, #312 ) ) ;
#934 = VECTOR ( 'NONE', #824, 1000.000000000000000 ) ;
#935 = EDGE_CURVE ( 'NONE', #374, #373, #570, .T. ) ;
#936 = ORIENTED_EDGE ( 'NONE', *, *, #413, .T. ) ;
#937 = AXIS2_PLACEMENT_3D ( 'NONE', #878, #819, #237 ) ;
#938 = EDGE_CURVE ( 'NONE', #138, #875, #238, .T. ) ;
#939 = VECTOR ( 'NONE', #310, 1000.000000000000000 ) ;
#940 = ORIENTED_EDGE ( 'NONE', *, *, #454, .F. ) ;
#941 = ADVANCED_FACE ( 'NONE', ( #673, #897 ), #731, .T. ) ;
#942 = EDGE_CURVE ( 'NONE', #797, #232, #136, .T. ) ;
#943 = ORIENTED_EDGE ( 'NONE', *, *, #780, .F. ) ;
#944 = DIRECTION ( 'NONE',  ( 0.000000000000000000, 0.000000000000000000, -1.000000000000000000 ) ) ;
#945 = FACE_BOUND ( 'NONE', #379, .T. ) ;
#946 = DESIGN_CONTEXT ( 'detailed design', #134, 'design' ) ;
#947 = ADVANCED_FACE ( 'NONE', ( #654, #443 ), #157, .F. ) ;
#948 = ORIENTED_EDGE ( 'NONE', *, *, #601, .F. ) ;
#949 = VECTOR ( 'NONE', #526, 1000.000000000000000 ) ;
#950 = LINE ( 'NONE', #277, #261 ) ;
#951 = DIRECTION ( 'NONE',  ( -1.000000000000000000, -1.734723475976804876E-16, 0.000000000000000000 ) ) ;
#952 = VERTEX_POINT ( 'NONE', #891 ) ;
#953 = DIRECTION ( 'NONE',  ( 0.000000000000000000, -1.000000000000000000, 0.000000000000000000 ) ) ;
#954 = DIRECTION ( 'NONE',  ( -1.090397613471135860E-15, 0.000000000000000000, -1.000000000000000000 ) ) ;
#955 = DIRECTION ( 'NONE',  ( 0.000000000000000000, 1.000000000000000000, 0.000000000000000000 ) ) ;
#956 = VECTOR ( 'NONE', #288, 1000.000000000000000 ) ;
#957 = VECTOR ( 'NONE', #528, 1000.000000000000000 ) ;
#958 = ORIENTED_EDGE ( 'NONE', *, *, #292, .T. ) ;
#959 = ORIENTED_EDGE ( 'NONE', *, *, #520, .T. ) ;
#960 = CARTESIAN_POINT ( 'NONE',  ( 30.99988906805934974, 1.908176579950319908E-15, -36.00000000000000000 ) ) ;
#961 = LINE ( 'NONE', #275, #39 ) ;
#962 = CARTESIAN_POINT ( 'NONE',  ( 20.00000000000000000, -26.68332812825265066, -66.00000000000000000 ) ) ;
#963 = VERTEX_POINT ( 'NONE', #506 ) ;
#964 = ORIENTED_EDGE ( 'NONE', *, *, #70, .T. ) ;
#965 = LINE ( 'NONE', #900, #324 ) ;
#966 = DIRECTION ( 'NONE',  ( 1.000000000000000000, 4.081702296416015504E-16, 0.000000000000000000 ) ) ;
#967 = DIRECTION ( 'NONE',  ( 0.000000000000000000, -1.000000000000000000, 0.000000000000000000 ) ) ;
#968 = CARTESIAN_POINT ( 'NONE',  ( 26.00000000000000000, 16.00000000000000000, -64.00000000000000000 ) ) ;
#969 = EDGE_LOOP ( 'NONE', ( #329, #886, #106, #773, #911 ) ) ;
ENDSEC;
END-ISO-10303-21;
