ISO-10303-21;
HEADER;
/* Generated by software containing ST-Developer
 * from STEP Tools, Inc. (www.steptools.com) 
 */

FILE_DESCRIPTION(
/* description */ (''),
/* implementation_level */ '2;1');

FILE_NAME(
/* name */ 'Enclosure cover 1 v1.step',
/* time_stamp */ '2025-12-04T13:32:50-05:00',
/* author */ (''),
/* organization */ (''),
/* preprocessor_version */ 'ST-DEVELOPER v20.1',
/* originating_system */ 'Autodesk Translation Framework v14.17.0.0',
/* authorisation */ '');

FILE_SCHEMA (('AUTOMOTIVE_DESIGN { 1 0 10303 214 3 1 1 }'));
ENDSEC;

DATA;
#10=MECHANICAL_DESIGN_GEOMETRIC_PRESENTATION_REPRESENTATION('',(#13),#1215);
#11=SHAPE_REPRESENTATION_RELATIONSHIP('SRR','None',#1222,#12);
#12=ADVANCED_BREP_SHAPE_REPRESENTATION('',(#14),#1214);
#13=STYLED_ITEM('',(#1231),#14);
#14=MANIFOLD_SOLID_BREP('Body1',#753);
#15=CYLINDRICAL_SURFACE('',#787,2.99999999999999);
#16=CYLINDRICAL_SURFACE('',#788,2.99999999999999);
#17=CYLINDRICAL_SURFACE('',#805,1.24999999999996);
#18=CYLINDRICAL_SURFACE('',#806,1.24999999999995);
#19=CYLINDRICAL_SURFACE('',#807,1.24999999999996);
#20=FACE_BOUND('',#79,.T.);
#21=FACE_BOUND('',#80,.T.);
#22=FACE_BOUND('',#81,.T.);
#23=FACE_BOUND('',#83,.T.);
#24=FACE_BOUND('',#85,.T.);
#25=FACE_BOUND('',#90,.T.);
#26=FACE_BOUND('',#92,.T.);
#27=FACE_BOUND('',#94,.T.);
#28=FACE_BOUND('',#95,.T.);
#29=FACE_BOUND('',#108,.T.);
#30=CIRCLE('',#768,1.24999999999996);
#31=CIRCLE('',#769,1.24999999999996);
#32=CIRCLE('',#770,1.24999999999995);
#33=CIRCLE('',#772,1.24999999999996);
#34=CIRCLE('',#774,1.24999999999995);
#35=CIRCLE('',#779,2.99999999999999);
#36=CIRCLE('',#781,2.99999999999999);
#37=CIRCLE('',#783,2.99999999999999);
#38=CIRCLE('',#784,2.99999999999999);
#39=CIRCLE('',#797,1.24999999999996);
#40=FACE_OUTER_BOUND('',#78,.T.);
#41=FACE_OUTER_BOUND('',#82,.T.);
#42=FACE_OUTER_BOUND('',#84,.T.);
#43=FACE_OUTER_BOUND('',#86,.T.);
#44=FACE_OUTER_BOUND('',#87,.T.);
#45=FACE_OUTER_BOUND('',#88,.T.);
#46=FACE_OUTER_BOUND('',#89,.T.);
#47=FACE_OUTER_BOUND('',#91,.T.);
#48=FACE_OUTER_BOUND('',#93,.T.);
#49=FACE_OUTER_BOUND('',#96,.T.);
#50=FACE_OUTER_BOUND('',#97,.T.);
#51=FACE_OUTER_BOUND('',#98,.T.);
#52=FACE_OUTER_BOUND('',#99,.T.);
#53=FACE_OUTER_BOUND('',#100,.T.);
#54=FACE_OUTER_BOUND('',#101,.T.);
#55=FACE_OUTER_BOUND('',#102,.T.);
#56=FACE_OUTER_BOUND('',#103,.T.);
#57=FACE_OUTER_BOUND('',#104,.T.);
#58=FACE_OUTER_BOUND('',#105,.T.);
#59=FACE_OUTER_BOUND('',#106,.T.);
#60=FACE_OUTER_BOUND('',#107,.T.);
#61=FACE_OUTER_BOUND('',#109,.T.);
#62=FACE_OUTER_BOUND('',#110,.T.);
#63=FACE_OUTER_BOUND('',#111,.T.);
#64=FACE_OUTER_BOUND('',#112,.T.);
#65=FACE_OUTER_BOUND('',#113,.T.);
#66=FACE_OUTER_BOUND('',#114,.T.);
#67=FACE_OUTER_BOUND('',#115,.T.);
#68=FACE_OUTER_BOUND('',#116,.T.);
#69=FACE_OUTER_BOUND('',#117,.T.);
#70=FACE_OUTER_BOUND('',#118,.T.);
#71=FACE_OUTER_BOUND('',#119,.T.);
#72=FACE_OUTER_BOUND('',#120,.T.);
#73=FACE_OUTER_BOUND('',#121,.T.);
#74=FACE_OUTER_BOUND('',#122,.T.);
#75=FACE_OUTER_BOUND('',#123,.T.);
#76=FACE_OUTER_BOUND('',#124,.T.);
#77=FACE_OUTER_BOUND('',#125,.T.);
#78=EDGE_LOOP('',(#478,#479,#480,#481,#482,#483,#484,#485,#486,#487,#488,
#489,#490,#491,#492,#493,#494,#495));
#79=EDGE_LOOP('',(#496));
#80=EDGE_LOOP('',(#497));
#81=EDGE_LOOP('',(#498));
#82=EDGE_LOOP('',(#499,#500,#501,#502));
#83=EDGE_LOOP('',(#503));
#84=EDGE_LOOP('',(#504,#505,#506,#507));
#85=EDGE_LOOP('',(#508));
#86=EDGE_LOOP('',(#509,#510,#511,#512,#513,#514));
#87=EDGE_LOOP('',(#515,#516,#517,#518,#519,#520));
#88=EDGE_LOOP('',(#521,#522,#523,#524,#525,#526,#527,#528));
#89=EDGE_LOOP('',(#529,#530,#531,#532,#533));
#90=EDGE_LOOP('',(#534));
#91=EDGE_LOOP('',(#535,#536,#537,#538,#539));
#92=EDGE_LOOP('',(#540));
#93=EDGE_LOOP('',(#541,#542,#543,#544,#545,#546,#547,#548,#549,#550,#551,
#552,#553,#554,#555,#556));
#94=EDGE_LOOP('',(#557));
#95=EDGE_LOOP('',(#558));
#96=EDGE_LOOP('',(#559,#560,#561,#562));
#97=EDGE_LOOP('',(#563,#564,#565,#566));
#98=EDGE_LOOP('',(#567,#568,#569,#570));
#99=EDGE_LOOP('',(#571,#572,#573,#574));
#100=EDGE_LOOP('',(#575,#576,#577,#578));
#101=EDGE_LOOP('',(#579,#580,#581,#582,#583,#584,#585,#586));
#102=EDGE_LOOP('',(#587,#588,#589,#590,#591,#592));
#103=EDGE_LOOP('',(#593,#594,#595,#596,#597,#598));
#104=EDGE_LOOP('',(#599,#600,#601,#602));
#105=EDGE_LOOP('',(#603,#604,#605,#606));
#106=EDGE_LOOP('',(#607,#608,#609,#610));
#107=EDGE_LOOP('',(#611,#612,#613,#614));
#108=EDGE_LOOP('',(#615));
#109=EDGE_LOOP('',(#616,#617,#618,#619));
#110=EDGE_LOOP('',(#620,#621,#622,#623));
#111=EDGE_LOOP('',(#624,#625,#626,#627));
#112=EDGE_LOOP('',(#628,#629,#630,#631));
#113=EDGE_LOOP('',(#632,#633,#634,#635));
#114=EDGE_LOOP('',(#636,#637,#638,#639));
#115=EDGE_LOOP('',(#640,#641,#642,#643));
#116=EDGE_LOOP('',(#644,#645,#646,#647));
#117=EDGE_LOOP('',(#648,#649,#650,#651));
#118=EDGE_LOOP('',(#652,#653,#654,#655));
#119=EDGE_LOOP('',(#656,#657,#658,#659));
#120=EDGE_LOOP('',(#660,#661,#662,#663));
#121=EDGE_LOOP('',(#664,#665,#666));
#122=EDGE_LOOP('',(#667,#668,#669,#670));
#123=EDGE_LOOP('',(#671,#672,#673,#674));
#124=EDGE_LOOP('',(#675,#676,#677));
#125=EDGE_LOOP('',(#678,#679,#680,#681));
#126=LINE('',#1009,#218);
#127=LINE('',#1011,#219);
#128=LINE('',#1013,#220);
#129=LINE('',#1015,#221);
#130=LINE('',#1017,#222);
#131=LINE('',#1019,#223);
#132=LINE('',#1021,#224);
#133=LINE('',#1023,#225);
#134=LINE('',#1025,#226);
#135=LINE('',#1027,#227);
#136=LINE('',#1029,#228);
#137=LINE('',#1031,#229);
#138=LINE('',#1033,#230);
#139=LINE('',#1035,#231);
#140=LINE('',#1037,#232);
#141=LINE('',#1039,#233);
#142=LINE('',#1041,#234);
#143=LINE('',#1042,#235);
#144=LINE('',#1052,#236);
#145=LINE('',#1054,#237);
#146=LINE('',#1056,#238);
#147=LINE('',#1057,#239);
#148=LINE('',#1063,#240);
#149=LINE('',#1065,#241);
#150=LINE('',#1067,#242);
#151=LINE('',#1068,#243);
#152=LINE('',#1074,#244);
#153=LINE('',#1075,#245);
#154=LINE('',#1077,#246);
#155=LINE('',#1079,#247);
#156=LINE('',#1080,#248);
#157=LINE('',#1083,#249);
#158=LINE('',#1084,#250);
#159=LINE('',#1086,#251);
#160=LINE('',#1087,#252);
#161=LINE('',#1089,#253);
#162=LINE('',#1090,#254);
#163=LINE('',#1091,#255);
#164=LINE('',#1095,#256);
#165=LINE('',#1097,#257);
#166=LINE('',#1099,#258);
#167=LINE('',#1101,#259);
#168=LINE('',#1102,#260);
#169=LINE('',#1108,#261);
#170=LINE('',#1110,#262);
#171=LINE('',#1112,#263);
#172=LINE('',#1114,#264);
#173=LINE('',#1115,#265);
#174=LINE('',#1120,#266);
#175=LINE('',#1121,#267);
#176=LINE('',#1122,#268);
#177=LINE('',#1123,#269);
#178=LINE('',#1125,#270);
#179=LINE('',#1127,#271);
#180=LINE('',#1129,#272);
#181=LINE('',#1131,#273);
#182=LINE('',#1133,#274);
#183=LINE('',#1135,#275);
#184=LINE('',#1136,#276);
#185=LINE('',#1142,#277);
#186=LINE('',#1143,#278);
#187=LINE('',#1145,#279);
#188=LINE('',#1146,#280);
#189=LINE('',#1148,#281);
#190=LINE('',#1150,#282);
#191=LINE('',#1154,#283);
#192=LINE('',#1156,#284);
#193=LINE('',#1157,#285);
#194=LINE('',#1160,#286);
#195=LINE('',#1161,#287);
#196=LINE('',#1162,#288);
#197=LINE('',#1165,#289);
#198=LINE('',#1166,#290);
#199=LINE('',#1167,#291);
#200=LINE('',#1170,#292);
#201=LINE('',#1172,#293);
#202=LINE('',#1173,#294);
#203=LINE('',#1178,#295);
#204=LINE('',#1179,#296);
#205=LINE('',#1183,#297);
#206=LINE('',#1185,#298);
#207=LINE('',#1188,#299);
#208=LINE('',#1191,#300);
#209=LINE('',#1194,#301);
#210=LINE('',#1196,#302);
#211=LINE('',#1198,#303);
#212=LINE('',#1200,#304);
#213=LINE('',#1202,#305);
#214=LINE('',#1204,#306);
#215=LINE('',#1206,#307);
#216=LINE('',#1208,#308);
#217=LINE('',#1210,#309);
#218=VECTOR('',#819,105.95);
#219=VECTOR('',#820,2.82842712474615);
#220=VECTOR('',#821,173.8);
#221=VECTOR('',#822,2.82842712474618);
#222=VECTOR('',#823,105.95);
#223=VECTOR('',#824,9.52500000000001);
#224=VECTOR('',#825,25.4);
#225=VECTOR('',#826,6.35000000000002);
#226=VECTOR('',#827,79.375);
#227=VECTOR('',#828,73.025);
#228=VECTOR('',#829,6.35);
#229=VECTOR('',#830,25.4);
#230=VECTOR('',#831,6.35);
#231=VECTOR('',#832,73.025);
#232=VECTOR('',#833,79.375);
#233=VECTOR('',#834,6.35000000000005);
#234=VECTOR('',#835,25.4);
#235=VECTOR('',#836,9.52500000000001);
#236=VECTOR('',#845,25.4);
#237=VECTOR('',#846,6.34999999999998);
#238=VECTOR('',#847,25.4);
#239=VECTOR('',#848,6.35000000000002);
#240=VECTOR('',#853,25.4);
#241=VECTOR('',#854,6.35);
#242=VECTOR('',#855,25.4);
#243=VECTOR('',#856,6.35);
#244=VECTOR('',#861,25.4);
#245=VECTOR('',#862,6.35000000000002);
#246=VECTOR('',#863,141.2875);
#247=VECTOR('',#864,104.775);
#248=VECTOR('',#865,134.9375);
#249=VECTOR('',#868,141.2875);
#250=VECTOR('',#869,6.35000000000002);
#251=VECTOR('',#870,134.9375);
#252=VECTOR('',#871,104.775);
#253=VECTOR('',#874,6.35000000000002);
#254=VECTOR('',#875,171.45);
#255=VECTOR('',#876,6.35000000000002);
#256=VECTOR('',#879,22.225);
#257=VECTOR('',#880,29.7499999999998);
#258=VECTOR('',#881,2.82842712474619);
#259=VECTOR('',#882,24.225);
#260=VECTOR('',#883,31.7499999999999);
#261=VECTOR('',#888,22.225);
#262=VECTOR('',#889,31.7499999999999);
#263=VECTOR('',#890,24.225);
#264=VECTOR('',#891,2.82842712474616);
#265=VECTOR('',#892,29.7499999999998);
#266=VECTOR('',#897,6.35000000000002);
#267=VECTOR('',#898,6.35000000000012);
#268=VECTOR('',#899,171.45);
#269=VECTOR('',#900,6.35000000000002);
#270=VECTOR('',#901,112.7125);
#271=VECTOR('',#902,22.225);
#272=VECTOR('',#903,31.7499999999999);
#273=VECTOR('',#904,222.25);
#274=VECTOR('',#905,31.7499999999999);
#275=VECTOR('',#906,22.225);
#276=VECTOR('',#907,112.7125);
#277=VECTOR('',#914,3.175);
#278=VECTOR('',#915,3.175);
#279=VECTOR('',#918,3.175);
#280=VECTOR('',#919,3.175);
#281=VECTOR('',#922,2.99999999999999);
#282=VECTOR('',#925,2.99999999999999);
#283=VECTOR('',#930,102.775);
#284=VECTOR('',#931,102.775);
#285=VECTOR('',#932,173.8);
#286=VECTOR('',#935,142.4625);
#287=VECTOR('',#936,102.775);
#288=VECTOR('',#937,3.175);
#289=VECTOR('',#940,102.775);
#290=VECTOR('',#941,142.4625);
#291=VECTOR('',#942,3.175);
#292=VECTOR('',#945,142.4625);
#293=VECTOR('',#946,173.8);
#294=VECTOR('',#947,142.4625);
#295=VECTOR('',#954,25.4);
#296=VECTOR('',#955,6.35000000000005);
#297=VECTOR('',#960,6.35000000000002);
#298=VECTOR('',#963,6.35000000000002);
#299=VECTOR('',#968,6.35000000000002);
#300=VECTOR('',#973,6.35000000000002);
#301=VECTOR('',#978,1.24999999999996);
#302=VECTOR('',#981,1.24999999999995);
#303=VECTOR('',#984,1.24999999999996);
#304=VECTOR('',#987,2.82842712474618);
#305=VECTOR('',#990,2.82842712474619);
#306=VECTOR('',#993,2.82842712474619);
#307=VECTOR('',#996,2.82842712474615);
#308=VECTOR('',#999,2.82842712474619);
#309=VECTOR('',#1002,2.82842712474616);
#310=VERTEX_POINT('',#1007);
#311=VERTEX_POINT('',#1008);
#312=VERTEX_POINT('',#1010);
#313=VERTEX_POINT('',#1012);
#314=VERTEX_POINT('',#1014);
#315=VERTEX_POINT('',#1016);
#316=VERTEX_POINT('',#1018);
#317=VERTEX_POINT('',#1020);
#318=VERTEX_POINT('',#1022);
#319=VERTEX_POINT('',#1024);
#320=VERTEX_POINT('',#1026);
#321=VERTEX_POINT('',#1028);
#322=VERTEX_POINT('',#1030);
#323=VERTEX_POINT('',#1032);
#324=VERTEX_POINT('',#1034);
#325=VERTEX_POINT('',#1036);
#326=VERTEX_POINT('',#1038);
#327=VERTEX_POINT('',#1040);
#328=VERTEX_POINT('',#1043);
#329=VERTEX_POINT('',#1045);
#330=VERTEX_POINT('',#1047);
#331=VERTEX_POINT('',#1050);
#332=VERTEX_POINT('',#1051);
#333=VERTEX_POINT('',#1053);
#334=VERTEX_POINT('',#1055);
#335=VERTEX_POINT('',#1058);
#336=VERTEX_POINT('',#1061);
#337=VERTEX_POINT('',#1062);
#338=VERTEX_POINT('',#1064);
#339=VERTEX_POINT('',#1066);
#340=VERTEX_POINT('',#1069);
#341=VERTEX_POINT('',#1072);
#342=VERTEX_POINT('',#1073);
#343=VERTEX_POINT('',#1076);
#344=VERTEX_POINT('',#1078);
#345=VERTEX_POINT('',#1082);
#346=VERTEX_POINT('',#1085);
#347=VERTEX_POINT('',#1093);
#348=VERTEX_POINT('',#1094);
#349=VERTEX_POINT('',#1096);
#350=VERTEX_POINT('',#1098);
#351=VERTEX_POINT('',#1100);
#352=VERTEX_POINT('',#1103);
#353=VERTEX_POINT('',#1106);
#354=VERTEX_POINT('',#1107);
#355=VERTEX_POINT('',#1109);
#356=VERTEX_POINT('',#1111);
#357=VERTEX_POINT('',#1113);
#358=VERTEX_POINT('',#1116);
#359=VERTEX_POINT('',#1119);
#360=VERTEX_POINT('',#1124);
#361=VERTEX_POINT('',#1126);
#362=VERTEX_POINT('',#1128);
#363=VERTEX_POINT('',#1130);
#364=VERTEX_POINT('',#1132);
#365=VERTEX_POINT('',#1134);
#366=VERTEX_POINT('',#1137);
#367=VERTEX_POINT('',#1139);
#368=VERTEX_POINT('',#1153);
#369=VERTEX_POINT('',#1155);
#370=VERTEX_POINT('',#1159);
#371=VERTEX_POINT('',#1164);
#372=VERTEX_POINT('',#1169);
#373=VERTEX_POINT('',#1171);
#374=VERTEX_POINT('',#1177);
#375=VERTEX_POINT('',#1180);
#376=EDGE_CURVE('',#310,#311,#126,.T.);
#377=EDGE_CURVE('',#311,#312,#127,.F.);
#378=EDGE_CURVE('',#312,#313,#128,.T.);
#379=EDGE_CURVE('',#313,#314,#129,.T.);
#380=EDGE_CURVE('',#315,#314,#130,.T.);
#381=EDGE_CURVE('',#316,#315,#131,.T.);
#382=EDGE_CURVE('',#316,#317,#132,.T.);
#383=EDGE_CURVE('',#318,#317,#133,.T.);
#384=EDGE_CURVE('',#319,#318,#134,.T.);
#385=EDGE_CURVE('',#320,#319,#135,.T.);
#386=EDGE_CURVE('',#321,#320,#136,.T.);
#387=EDGE_CURVE('',#322,#321,#137,.T.);
#388=EDGE_CURVE('',#322,#323,#138,.T.);
#389=EDGE_CURVE('',#324,#323,#139,.T.);
#390=EDGE_CURVE('',#325,#324,#140,.T.);
#391=EDGE_CURVE('',#326,#325,#141,.T.);
#392=EDGE_CURVE('',#327,#326,#142,.T.);
#393=EDGE_CURVE('',#310,#327,#143,.T.);
#394=EDGE_CURVE('',#328,#328,#30,.F.);
#395=EDGE_CURVE('',#329,#329,#31,.T.);
#396=EDGE_CURVE('',#330,#330,#32,.T.);
#397=EDGE_CURVE('',#331,#332,#144,.T.);
#398=EDGE_CURVE('',#332,#333,#145,.T.);
#399=EDGE_CURVE('',#333,#334,#146,.T.);
#400=EDGE_CURVE('',#331,#334,#147,.T.);
#401=EDGE_CURVE('',#335,#335,#33,.T.);
#402=EDGE_CURVE('',#336,#337,#148,.T.);
#403=EDGE_CURVE('',#338,#336,#149,.T.);
#404=EDGE_CURVE('',#338,#339,#150,.T.);
#405=EDGE_CURVE('',#339,#337,#151,.T.);
#406=EDGE_CURVE('',#340,#340,#34,.F.);
#407=EDGE_CURVE('',#341,#342,#152,.T.);
#408=EDGE_CURVE('',#342,#325,#153,.T.);
#409=EDGE_CURVE('',#324,#343,#154,.T.);
#410=EDGE_CURVE('',#344,#343,#155,.T.);
#411=EDGE_CURVE('',#341,#344,#156,.T.);
#412=EDGE_CURVE('',#345,#319,#157,.T.);
#413=EDGE_CURVE('',#334,#318,#158,.T.);
#414=EDGE_CURVE('',#333,#346,#159,.T.);
#415=EDGE_CURVE('',#346,#345,#160,.T.);
#416=EDGE_CURVE('',#338,#320,#161,.T.);
#417=EDGE_CURVE('',#343,#345,#162,.T.);
#418=EDGE_CURVE('',#339,#323,#163,.T.);
#419=EDGE_CURVE('',#347,#348,#164,.T.);
#420=EDGE_CURVE('',#349,#347,#165,.T.);
#421=EDGE_CURVE('',#349,#350,#166,.F.);
#422=EDGE_CURVE('',#350,#351,#167,.T.);
#423=EDGE_CURVE('',#351,#348,#168,.T.);
#424=EDGE_CURVE('',#352,#352,#35,.T.);
#425=EDGE_CURVE('',#353,#354,#169,.T.);
#426=EDGE_CURVE('',#353,#355,#170,.T.);
#427=EDGE_CURVE('',#355,#356,#171,.T.);
#428=EDGE_CURVE('',#356,#357,#172,.T.);
#429=EDGE_CURVE('',#357,#354,#173,.T.);
#430=EDGE_CURVE('',#358,#358,#36,.T.);
#431=EDGE_CURVE('',#359,#327,#174,.T.);
#432=EDGE_CURVE('',#341,#359,#175,.T.);
#433=EDGE_CURVE('',#344,#346,#176,.T.);
#434=EDGE_CURVE('',#332,#316,#177,.T.);
#435=EDGE_CURVE('',#315,#360,#178,.T.);
#436=EDGE_CURVE('',#360,#361,#179,.T.);
#437=EDGE_CURVE('',#362,#361,#180,.T.);
#438=EDGE_CURVE('',#363,#362,#181,.T.);
#439=EDGE_CURVE('',#364,#363,#182,.T.);
#440=EDGE_CURVE('',#364,#365,#183,.T.);
#441=EDGE_CURVE('',#365,#310,#184,.T.);
#442=EDGE_CURVE('',#366,#366,#37,.T.);
#443=EDGE_CURVE('',#367,#367,#38,.T.);
#444=EDGE_CURVE('',#364,#353,#185,.T.);
#445=EDGE_CURVE('',#363,#355,#186,.T.);
#446=EDGE_CURVE('',#361,#348,#187,.T.);
#447=EDGE_CURVE('',#362,#351,#188,.T.);
#448=EDGE_CURVE('',#367,#358,#189,.T.);
#449=EDGE_CURVE('',#366,#352,#190,.T.);
#450=EDGE_CURVE('',#368,#356,#191,.T.);
#451=EDGE_CURVE('',#350,#369,#192,.T.);
#452=EDGE_CURVE('',#369,#368,#193,.T.);
#453=EDGE_CURVE('',#314,#370,#194,.T.);
#454=EDGE_CURVE('',#370,#349,#195,.T.);
#455=EDGE_CURVE('',#360,#347,#196,.T.);
#456=EDGE_CURVE('',#357,#371,#197,.T.);
#457=EDGE_CURVE('',#371,#311,#198,.T.);
#458=EDGE_CURVE('',#365,#354,#199,.T.);
#459=EDGE_CURVE('',#312,#372,#200,.T.);
#460=EDGE_CURVE('',#372,#373,#201,.T.);
#461=EDGE_CURVE('',#373,#313,#202,.T.);
#462=EDGE_CURVE('',#374,#359,#203,.T.);
#463=EDGE_CURVE('',#342,#374,#204,.T.);
#464=EDGE_CURVE('',#375,#375,#39,.F.);
#465=EDGE_CURVE('',#336,#321,#205,.T.);
#466=EDGE_CURVE('',#337,#322,#206,.T.);
#467=EDGE_CURVE('',#374,#326,#207,.T.);
#468=EDGE_CURVE('',#331,#317,#208,.T.);
#469=EDGE_CURVE('',#335,#328,#209,.T.);
#470=EDGE_CURVE('',#340,#330,#210,.T.);
#471=EDGE_CURVE('',#375,#329,#211,.T.);
#472=EDGE_CURVE('',#370,#373,#212,.T.);
#473=EDGE_CURVE('',#369,#370,#213,.F.);
#474=EDGE_CURVE('',#369,#373,#214,.F.);
#475=EDGE_CURVE('',#372,#371,#215,.F.);
#476=EDGE_CURVE('',#368,#372,#216,.T.);
#477=EDGE_CURVE('',#368,#371,#217,.F.);
#478=ORIENTED_EDGE('',*,*,#376,.T.);
#479=ORIENTED_EDGE('',*,*,#377,.T.);
#480=ORIENTED_EDGE('',*,*,#378,.T.);
#481=ORIENTED_EDGE('',*,*,#379,.T.);
#482=ORIENTED_EDGE('',*,*,#380,.F.);
#483=ORIENTED_EDGE('',*,*,#381,.F.);
#484=ORIENTED_EDGE('',*,*,#382,.T.);
#485=ORIENTED_EDGE('',*,*,#383,.F.);
#486=ORIENTED_EDGE('',*,*,#384,.F.);
#487=ORIENTED_EDGE('',*,*,#385,.F.);
#488=ORIENTED_EDGE('',*,*,#386,.F.);
#489=ORIENTED_EDGE('',*,*,#387,.F.);
#490=ORIENTED_EDGE('',*,*,#388,.T.);
#491=ORIENTED_EDGE('',*,*,#389,.F.);
#492=ORIENTED_EDGE('',*,*,#390,.F.);
#493=ORIENTED_EDGE('',*,*,#391,.F.);
#494=ORIENTED_EDGE('',*,*,#392,.F.);
#495=ORIENTED_EDGE('',*,*,#393,.F.);
#496=ORIENTED_EDGE('',*,*,#394,.T.);
#497=ORIENTED_EDGE('',*,*,#395,.F.);
#498=ORIENTED_EDGE('',*,*,#396,.F.);
#499=ORIENTED_EDGE('',*,*,#397,.T.);
#500=ORIENTED_EDGE('',*,*,#398,.T.);
#501=ORIENTED_EDGE('',*,*,#399,.T.);
#502=ORIENTED_EDGE('',*,*,#400,.F.);
#503=ORIENTED_EDGE('',*,*,#401,.T.);
#504=ORIENTED_EDGE('',*,*,#402,.F.);
#505=ORIENTED_EDGE('',*,*,#403,.F.);
#506=ORIENTED_EDGE('',*,*,#404,.T.);
#507=ORIENTED_EDGE('',*,*,#405,.T.);
#508=ORIENTED_EDGE('',*,*,#406,.F.);
#509=ORIENTED_EDGE('',*,*,#407,.T.);
#510=ORIENTED_EDGE('',*,*,#408,.T.);
#511=ORIENTED_EDGE('',*,*,#390,.T.);
#512=ORIENTED_EDGE('',*,*,#409,.T.);
#513=ORIENTED_EDGE('',*,*,#410,.F.);
#514=ORIENTED_EDGE('',*,*,#411,.F.);
#515=ORIENTED_EDGE('',*,*,#412,.T.);
#516=ORIENTED_EDGE('',*,*,#384,.T.);
#517=ORIENTED_EDGE('',*,*,#413,.F.);
#518=ORIENTED_EDGE('',*,*,#399,.F.);
#519=ORIENTED_EDGE('',*,*,#414,.T.);
#520=ORIENTED_EDGE('',*,*,#415,.T.);
#521=ORIENTED_EDGE('',*,*,#404,.F.);
#522=ORIENTED_EDGE('',*,*,#416,.T.);
#523=ORIENTED_EDGE('',*,*,#385,.T.);
#524=ORIENTED_EDGE('',*,*,#412,.F.);
#525=ORIENTED_EDGE('',*,*,#417,.F.);
#526=ORIENTED_EDGE('',*,*,#409,.F.);
#527=ORIENTED_EDGE('',*,*,#389,.T.);
#528=ORIENTED_EDGE('',*,*,#418,.F.);
#529=ORIENTED_EDGE('',*,*,#419,.F.);
#530=ORIENTED_EDGE('',*,*,#420,.F.);
#531=ORIENTED_EDGE('',*,*,#421,.T.);
#532=ORIENTED_EDGE('',*,*,#422,.T.);
#533=ORIENTED_EDGE('',*,*,#423,.T.);
#534=ORIENTED_EDGE('',*,*,#424,.F.);
#535=ORIENTED_EDGE('',*,*,#425,.F.);
#536=ORIENTED_EDGE('',*,*,#426,.T.);
#537=ORIENTED_EDGE('',*,*,#427,.T.);
#538=ORIENTED_EDGE('',*,*,#428,.T.);
#539=ORIENTED_EDGE('',*,*,#429,.T.);
#540=ORIENTED_EDGE('',*,*,#430,.F.);
#541=ORIENTED_EDGE('',*,*,#393,.T.);
#542=ORIENTED_EDGE('',*,*,#431,.F.);
#543=ORIENTED_EDGE('',*,*,#432,.F.);
#544=ORIENTED_EDGE('',*,*,#411,.T.);
#545=ORIENTED_EDGE('',*,*,#433,.T.);
#546=ORIENTED_EDGE('',*,*,#414,.F.);
#547=ORIENTED_EDGE('',*,*,#398,.F.);
#548=ORIENTED_EDGE('',*,*,#434,.T.);
#549=ORIENTED_EDGE('',*,*,#381,.T.);
#550=ORIENTED_EDGE('',*,*,#435,.T.);
#551=ORIENTED_EDGE('',*,*,#436,.T.);
#552=ORIENTED_EDGE('',*,*,#437,.F.);
#553=ORIENTED_EDGE('',*,*,#438,.F.);
#554=ORIENTED_EDGE('',*,*,#439,.F.);
#555=ORIENTED_EDGE('',*,*,#440,.T.);
#556=ORIENTED_EDGE('',*,*,#441,.T.);
#557=ORIENTED_EDGE('',*,*,#442,.T.);
#558=ORIENTED_EDGE('',*,*,#443,.T.);
#559=ORIENTED_EDGE('',*,*,#444,.F.);
#560=ORIENTED_EDGE('',*,*,#439,.T.);
#561=ORIENTED_EDGE('',*,*,#445,.T.);
#562=ORIENTED_EDGE('',*,*,#426,.F.);
#563=ORIENTED_EDGE('',*,*,#446,.T.);
#564=ORIENTED_EDGE('',*,*,#423,.F.);
#565=ORIENTED_EDGE('',*,*,#447,.F.);
#566=ORIENTED_EDGE('',*,*,#437,.T.);
#567=ORIENTED_EDGE('',*,*,#443,.F.);
#568=ORIENTED_EDGE('',*,*,#448,.T.);
#569=ORIENTED_EDGE('',*,*,#430,.T.);
#570=ORIENTED_EDGE('',*,*,#448,.F.);
#571=ORIENTED_EDGE('',*,*,#442,.F.);
#572=ORIENTED_EDGE('',*,*,#449,.T.);
#573=ORIENTED_EDGE('',*,*,#424,.T.);
#574=ORIENTED_EDGE('',*,*,#449,.F.);
#575=ORIENTED_EDGE('',*,*,#410,.T.);
#576=ORIENTED_EDGE('',*,*,#417,.T.);
#577=ORIENTED_EDGE('',*,*,#415,.F.);
#578=ORIENTED_EDGE('',*,*,#433,.F.);
#579=ORIENTED_EDGE('',*,*,#450,.T.);
#580=ORIENTED_EDGE('',*,*,#427,.F.);
#581=ORIENTED_EDGE('',*,*,#445,.F.);
#582=ORIENTED_EDGE('',*,*,#438,.T.);
#583=ORIENTED_EDGE('',*,*,#447,.T.);
#584=ORIENTED_EDGE('',*,*,#422,.F.);
#585=ORIENTED_EDGE('',*,*,#451,.T.);
#586=ORIENTED_EDGE('',*,*,#452,.T.);
#587=ORIENTED_EDGE('',*,*,#453,.T.);
#588=ORIENTED_EDGE('',*,*,#454,.T.);
#589=ORIENTED_EDGE('',*,*,#420,.T.);
#590=ORIENTED_EDGE('',*,*,#455,.F.);
#591=ORIENTED_EDGE('',*,*,#435,.F.);
#592=ORIENTED_EDGE('',*,*,#380,.T.);
#593=ORIENTED_EDGE('',*,*,#429,.F.);
#594=ORIENTED_EDGE('',*,*,#456,.T.);
#595=ORIENTED_EDGE('',*,*,#457,.T.);
#596=ORIENTED_EDGE('',*,*,#376,.F.);
#597=ORIENTED_EDGE('',*,*,#441,.F.);
#598=ORIENTED_EDGE('',*,*,#458,.T.);
#599=ORIENTED_EDGE('',*,*,#378,.F.);
#600=ORIENTED_EDGE('',*,*,#459,.T.);
#601=ORIENTED_EDGE('',*,*,#460,.T.);
#602=ORIENTED_EDGE('',*,*,#461,.T.);
#603=ORIENTED_EDGE('',*,*,#425,.T.);
#604=ORIENTED_EDGE('',*,*,#458,.F.);
#605=ORIENTED_EDGE('',*,*,#440,.F.);
#606=ORIENTED_EDGE('',*,*,#444,.T.);
#607=ORIENTED_EDGE('',*,*,#419,.T.);
#608=ORIENTED_EDGE('',*,*,#446,.F.);
#609=ORIENTED_EDGE('',*,*,#436,.F.);
#610=ORIENTED_EDGE('',*,*,#455,.T.);
#611=ORIENTED_EDGE('',*,*,#462,.F.);
#612=ORIENTED_EDGE('',*,*,#463,.F.);
#613=ORIENTED_EDGE('',*,*,#407,.F.);
#614=ORIENTED_EDGE('',*,*,#432,.T.);
#615=ORIENTED_EDGE('',*,*,#464,.F.);
#616=ORIENTED_EDGE('',*,*,#403,.T.);
#617=ORIENTED_EDGE('',*,*,#465,.T.);
#618=ORIENTED_EDGE('',*,*,#386,.T.);
#619=ORIENTED_EDGE('',*,*,#416,.F.);
#620=ORIENTED_EDGE('',*,*,#402,.T.);
#621=ORIENTED_EDGE('',*,*,#466,.T.);
#622=ORIENTED_EDGE('',*,*,#387,.T.);
#623=ORIENTED_EDGE('',*,*,#465,.F.);
#624=ORIENTED_EDGE('',*,*,#418,.T.);
#625=ORIENTED_EDGE('',*,*,#388,.F.);
#626=ORIENTED_EDGE('',*,*,#466,.F.);
#627=ORIENTED_EDGE('',*,*,#405,.F.);
#628=ORIENTED_EDGE('',*,*,#463,.T.);
#629=ORIENTED_EDGE('',*,*,#467,.T.);
#630=ORIENTED_EDGE('',*,*,#391,.T.);
#631=ORIENTED_EDGE('',*,*,#408,.F.);
#632=ORIENTED_EDGE('',*,*,#462,.T.);
#633=ORIENTED_EDGE('',*,*,#431,.T.);
#634=ORIENTED_EDGE('',*,*,#392,.T.);
#635=ORIENTED_EDGE('',*,*,#467,.F.);
#636=ORIENTED_EDGE('',*,*,#468,.T.);
#637=ORIENTED_EDGE('',*,*,#382,.F.);
#638=ORIENTED_EDGE('',*,*,#434,.F.);
#639=ORIENTED_EDGE('',*,*,#397,.F.);
#640=ORIENTED_EDGE('',*,*,#400,.T.);
#641=ORIENTED_EDGE('',*,*,#413,.T.);
#642=ORIENTED_EDGE('',*,*,#383,.T.);
#643=ORIENTED_EDGE('',*,*,#468,.F.);
#644=ORIENTED_EDGE('',*,*,#401,.F.);
#645=ORIENTED_EDGE('',*,*,#469,.T.);
#646=ORIENTED_EDGE('',*,*,#394,.F.);
#647=ORIENTED_EDGE('',*,*,#469,.F.);
#648=ORIENTED_EDGE('',*,*,#406,.T.);
#649=ORIENTED_EDGE('',*,*,#470,.T.);
#650=ORIENTED_EDGE('',*,*,#396,.T.);
#651=ORIENTED_EDGE('',*,*,#470,.F.);
#652=ORIENTED_EDGE('',*,*,#464,.T.);
#653=ORIENTED_EDGE('',*,*,#471,.T.);
#654=ORIENTED_EDGE('',*,*,#395,.T.);
#655=ORIENTED_EDGE('',*,*,#471,.F.);
#656=ORIENTED_EDGE('',*,*,#379,.F.);
#657=ORIENTED_EDGE('',*,*,#461,.F.);
#658=ORIENTED_EDGE('',*,*,#472,.F.);
#659=ORIENTED_EDGE('',*,*,#453,.F.);
#660=ORIENTED_EDGE('',*,*,#421,.F.);
#661=ORIENTED_EDGE('',*,*,#454,.F.);
#662=ORIENTED_EDGE('',*,*,#473,.F.);
#663=ORIENTED_EDGE('',*,*,#451,.F.);
#664=ORIENTED_EDGE('',*,*,#473,.T.);
#665=ORIENTED_EDGE('',*,*,#472,.T.);
#666=ORIENTED_EDGE('',*,*,#474,.F.);
#667=ORIENTED_EDGE('',*,*,#377,.F.);
#668=ORIENTED_EDGE('',*,*,#457,.F.);
#669=ORIENTED_EDGE('',*,*,#475,.F.);
#670=ORIENTED_EDGE('',*,*,#459,.F.);
#671=ORIENTED_EDGE('',*,*,#474,.T.);
#672=ORIENTED_EDGE('',*,*,#460,.F.);
#673=ORIENTED_EDGE('',*,*,#476,.F.);
#674=ORIENTED_EDGE('',*,*,#452,.F.);
#675=ORIENTED_EDGE('',*,*,#476,.T.);
#676=ORIENTED_EDGE('',*,*,#475,.T.);
#677=ORIENTED_EDGE('',*,*,#477,.F.);
#678=ORIENTED_EDGE('',*,*,#477,.T.);
#679=ORIENTED_EDGE('',*,*,#456,.F.);
#680=ORIENTED_EDGE('',*,*,#428,.F.);
#681=ORIENTED_EDGE('',*,*,#450,.F.);
#682=PLANE('',#767);
#683=PLANE('',#771);
#684=PLANE('',#773);
#685=PLANE('',#775);
#686=PLANE('',#776);
#687=PLANE('',#777);
#688=PLANE('',#778);
#689=PLANE('',#780);
#690=PLANE('',#782);
#691=PLANE('',#785);
#692=PLANE('',#786);
#693=PLANE('',#789);
#694=PLANE('',#790);
#695=PLANE('',#791);
#696=PLANE('',#792);
#697=PLANE('',#793);
#698=PLANE('',#794);
#699=PLANE('',#795);
#700=PLANE('',#796);
#701=PLANE('',#798);
#702=PLANE('',#799);
#703=PLANE('',#800);
#704=PLANE('',#801);
#705=PLANE('',#802);
#706=PLANE('',#803);
#707=PLANE('',#804);
#708=PLANE('',#808);
#709=PLANE('',#809);
#710=PLANE('',#810);
#711=PLANE('',#811);
#712=PLANE('',#812);
#713=PLANE('',#813);
#714=PLANE('',#814);
#715=ADVANCED_FACE('',(#40,#20,#21,#22),#682,.F.);
#716=ADVANCED_FACE('',(#41,#23),#683,.F.);
#717=ADVANCED_FACE('',(#42,#24),#684,.F.);
#718=ADVANCED_FACE('',(#43),#685,.F.);
#719=ADVANCED_FACE('',(#44),#686,.T.);
#720=ADVANCED_FACE('',(#45),#687,.F.);
#721=ADVANCED_FACE('',(#46,#25),#688,.T.);
#722=ADVANCED_FACE('',(#47,#26),#689,.T.);
#723=ADVANCED_FACE('',(#48,#27,#28),#690,.F.);
#724=ADVANCED_FACE('',(#49),#691,.T.);
#725=ADVANCED_FACE('',(#50),#692,.T.);
#726=ADVANCED_FACE('',(#51),#15,.F.);
#727=ADVANCED_FACE('',(#52),#16,.F.);
#728=ADVANCED_FACE('',(#53),#693,.F.);
#729=ADVANCED_FACE('',(#54),#694,.F.);
#730=ADVANCED_FACE('',(#55),#695,.F.);
#731=ADVANCED_FACE('',(#56),#696,.T.);
#732=ADVANCED_FACE('',(#57),#697,.T.);
#733=ADVANCED_FACE('',(#58),#698,.F.);
#734=ADVANCED_FACE('',(#59),#699,.F.);
#735=ADVANCED_FACE('',(#60,#29),#700,.F.);
#736=ADVANCED_FACE('',(#61),#701,.F.);
#737=ADVANCED_FACE('',(#62),#702,.F.);
#738=ADVANCED_FACE('',(#63),#703,.T.);
#739=ADVANCED_FACE('',(#64),#704,.F.);
#740=ADVANCED_FACE('',(#65),#705,.F.);
#741=ADVANCED_FACE('',(#66),#706,.T.);
#742=ADVANCED_FACE('',(#67),#707,.F.);
#743=ADVANCED_FACE('',(#68),#17,.F.);
#744=ADVANCED_FACE('',(#69),#18,.F.);
#745=ADVANCED_FACE('',(#70),#19,.F.);
#746=ADVANCED_FACE('',(#71),#708,.T.);
#747=ADVANCED_FACE('',(#72),#709,.F.);
#748=ADVANCED_FACE('',(#73),#710,.T.);
#749=ADVANCED_FACE('',(#74),#711,.F.);
#750=ADVANCED_FACE('',(#75),#712,.T.);
#751=ADVANCED_FACE('',(#76),#713,.T.);
#752=ADVANCED_FACE('',(#77),#714,.T.);
#753=CLOSED_SHELL('',(#715,#716,#717,#718,#719,#720,#721,#722,#723,#724,
#725,#726,#727,#728,#729,#730,#731,#732,#733,#734,#735,#736,#737,#738,#739,
#740,#741,#742,#743,#744,#745,#746,#747,#748,#749,#750,#751,#752));
#754=DERIVED_UNIT_ELEMENT(#756,1.);
#755=DERIVED_UNIT_ELEMENT(#1217,-3.);
#756=(
MASS_UNIT()
NAMED_UNIT(*)
SI_UNIT(.KILO.,.GRAM.)
);
#757=DERIVED_UNIT((#754,#755));
#758=MEASURE_REPRESENTATION_ITEM('density measure',
POSITIVE_RATIO_MEASURE(7850.),#757);
#759=PROPERTY_DEFINITION_REPRESENTATION(#764,#761);
#760=PROPERTY_DEFINITION_REPRESENTATION(#765,#762);
#761=REPRESENTATION('material name',(#763),#1214);
#762=REPRESENTATION('density',(#758),#1214);
#763=DESCRIPTIVE_REPRESENTATION_ITEM('Steel','Steel');
#764=PROPERTY_DEFINITION('material property','material name',#1224);
#765=PROPERTY_DEFINITION('material property','density of part',#1224);
#766=AXIS2_PLACEMENT_3D('',#1005,#815,#816);
#767=AXIS2_PLACEMENT_3D('',#1006,#817,#818);
#768=AXIS2_PLACEMENT_3D('',#1044,#837,#838);
#769=AXIS2_PLACEMENT_3D('',#1046,#839,#840);
#770=AXIS2_PLACEMENT_3D('',#1048,#841,#842);
#771=AXIS2_PLACEMENT_3D('',#1049,#843,#844);
#772=AXIS2_PLACEMENT_3D('',#1059,#849,#850);
#773=AXIS2_PLACEMENT_3D('',#1060,#851,#852);
#774=AXIS2_PLACEMENT_3D('',#1070,#857,#858);
#775=AXIS2_PLACEMENT_3D('',#1071,#859,#860);
#776=AXIS2_PLACEMENT_3D('',#1081,#866,#867);
#777=AXIS2_PLACEMENT_3D('',#1088,#872,#873);
#778=AXIS2_PLACEMENT_3D('',#1092,#877,#878);
#779=AXIS2_PLACEMENT_3D('',#1104,#884,#885);
#780=AXIS2_PLACEMENT_3D('',#1105,#886,#887);
#781=AXIS2_PLACEMENT_3D('',#1117,#893,#894);
#782=AXIS2_PLACEMENT_3D('',#1118,#895,#896);
#783=AXIS2_PLACEMENT_3D('',#1138,#908,#909);
#784=AXIS2_PLACEMENT_3D('',#1140,#910,#911);
#785=AXIS2_PLACEMENT_3D('',#1141,#912,#913);
#786=AXIS2_PLACEMENT_3D('',#1144,#916,#917);
#787=AXIS2_PLACEMENT_3D('',#1147,#920,#921);
#788=AXIS2_PLACEMENT_3D('',#1149,#923,#924);
#789=AXIS2_PLACEMENT_3D('',#1151,#926,#927);
#790=AXIS2_PLACEMENT_3D('',#1152,#928,#929);
#791=AXIS2_PLACEMENT_3D('',#1158,#933,#934);
#792=AXIS2_PLACEMENT_3D('',#1163,#938,#939);
#793=AXIS2_PLACEMENT_3D('',#1168,#943,#944);
#794=AXIS2_PLACEMENT_3D('',#1174,#948,#949);
#795=AXIS2_PLACEMENT_3D('',#1175,#950,#951);
#796=AXIS2_PLACEMENT_3D('',#1176,#952,#953);
#797=AXIS2_PLACEMENT_3D('',#1181,#956,#957);
#798=AXIS2_PLACEMENT_3D('',#1182,#958,#959);
#799=AXIS2_PLACEMENT_3D('',#1184,#961,#962);
#800=AXIS2_PLACEMENT_3D('',#1186,#964,#965);
#801=AXIS2_PLACEMENT_3D('',#1187,#966,#967);
#802=AXIS2_PLACEMENT_3D('',#1189,#969,#970);
#803=AXIS2_PLACEMENT_3D('',#1190,#971,#972);
#804=AXIS2_PLACEMENT_3D('',#1192,#974,#975);
#805=AXIS2_PLACEMENT_3D('',#1193,#976,#977);
#806=AXIS2_PLACEMENT_3D('',#1195,#979,#980);
#807=AXIS2_PLACEMENT_3D('',#1197,#982,#983);
#808=AXIS2_PLACEMENT_3D('',#1199,#985,#986);
#809=AXIS2_PLACEMENT_3D('',#1201,#988,#989);
#810=AXIS2_PLACEMENT_3D('',#1203,#991,#992);
#811=AXIS2_PLACEMENT_3D('',#1205,#994,#995);
#812=AXIS2_PLACEMENT_3D('',#1207,#997,#998);
#813=AXIS2_PLACEMENT_3D('',#1209,#1000,#1001);
#814=AXIS2_PLACEMENT_3D('',#1211,#1003,#1004);
#815=DIRECTION('axis',(0.,0.,1.));
#816=DIRECTION('refdir',(1.,0.,0.));
#817=DIRECTION('center_axis',(0.,0.,1.));
#818=DIRECTION('ref_axis',(1.,0.,0.));
#819=DIRECTION('',(0.,1.,0.));
#820=DIRECTION('',(-0.707106781186541,-0.707106781186554,0.));
#821=DIRECTION('',(1.,0.,0.));
#822=DIRECTION('',(0.707106781186547,-0.707106781186547,0.));
#823=DIRECTION('',(0.,1.,0.));
#824=DIRECTION('',(1.,0.,0.));
#825=DIRECTION('',(0.,1.,0.));
#826=DIRECTION('',(-1.,0.,0.));
#827=DIRECTION('',(0.,-1.,0.));
#828=DIRECTION('',(1.,0.,0.));
#829=DIRECTION('',(0.,1.,0.));
#830=DIRECTION('',(1.,0.,0.));
#831=DIRECTION('',(0.,1.,0.));
#832=DIRECTION('',(1.,-2.43253247435844E-16,0.));
#833=DIRECTION('',(0.,1.,0.));
#834=DIRECTION('',(-1.,0.,0.));
#835=DIRECTION('',(0.,1.,0.));
#836=DIRECTION('',(1.,0.,0.));
#837=DIRECTION('center_axis',(0.,0.,-1.));
#838=DIRECTION('ref_axis',(-1.,0.,0.));
#839=DIRECTION('center_axis',(0.,0.,-1.));
#840=DIRECTION('ref_axis',(-1.,0.,0.));
#841=DIRECTION('center_axis',(0.,0.,-1.));
#842=DIRECTION('ref_axis',(-1.,0.,0.));
#843=DIRECTION('center_axis',(0.,0.,-1.));
#844=DIRECTION('ref_axis',(-1.,0.,0.));
#845=DIRECTION('',(0.,-1.,0.));
#846=DIRECTION('',(1.,0.,0.));
#847=DIRECTION('',(0.,1.,0.));
#848=DIRECTION('',(1.,0.,0.));
#849=DIRECTION('center_axis',(0.,0.,-1.));
#850=DIRECTION('ref_axis',(-1.,0.,0.));
#851=DIRECTION('center_axis',(0.,0.,-1.));
#852=DIRECTION('ref_axis',(-1.,0.,0.));
#853=DIRECTION('',(-1.,0.,0.));
#854=DIRECTION('',(0.,-1.,0.));
#855=DIRECTION('',(-1.,0.,0.));
#856=DIRECTION('',(0.,-1.,0.));
#857=DIRECTION('center_axis',(0.,0.,-1.));
#858=DIRECTION('ref_axis',(-1.,0.,0.));
#859=DIRECTION('center_axis',(-1.,0.,0.));
#860=DIRECTION('ref_axis',(0.,0.,1.));
#861=DIRECTION('',(0.,1.,0.));
#862=DIRECTION('',(0.,0.,-1.));
#863=DIRECTION('',(5.02905590204441E-16,0.,1.));
#864=DIRECTION('',(0.,1.,0.));
#865=DIRECTION('',(0.,0.,1.));
#866=DIRECTION('center_axis',(-1.,0.,0.));
#867=DIRECTION('ref_axis',(0.,0.,1.));
#868=DIRECTION('',(-2.51452795102221E-16,0.,-1.));
#869=DIRECTION('',(0.,0.,-1.));
#870=DIRECTION('',(0.,0.,1.));
#871=DIRECTION('',(0.,1.,0.));
#872=DIRECTION('center_axis',(0.,1.,0.));
#873=DIRECTION('ref_axis',(0.,0.,1.));
#874=DIRECTION('',(0.,0.,-1.));
#875=DIRECTION('',(1.,0.,0.));
#876=DIRECTION('',(0.,0.,-1.));
#877=DIRECTION('center_axis',(0.,1.,0.));
#878=DIRECTION('ref_axis',(0.,0.,1.));
#879=DIRECTION('',(1.,0.,0.));
#880=DIRECTION('',(0.,0.,-1.));
#881=DIRECTION('',(0.707106781186545,0.,-0.70710678118655));
#882=DIRECTION('',(1.,0.,0.));
#883=DIRECTION('',(0.,0.,-1.));
#884=DIRECTION('center_axis',(0.,1.,0.));
#885=DIRECTION('ref_axis',(0.,0.,1.));
#886=DIRECTION('center_axis',(0.,1.,0.));
#887=DIRECTION('ref_axis',(0.,0.,1.));
#888=DIRECTION('',(1.,0.,0.));
#889=DIRECTION('',(0.,0.,1.));
#890=DIRECTION('',(1.,0.,0.));
#891=DIRECTION('',(-0.707106781186539,0.,-0.707106781186556));
#892=DIRECTION('',(0.,0.,-1.));
#893=DIRECTION('center_axis',(0.,1.,0.));
#894=DIRECTION('ref_axis',(0.,0.,1.));
#895=DIRECTION('center_axis',(0.,1.,0.));
#896=DIRECTION('ref_axis',(0.,0.,1.));
#897=DIRECTION('',(0.,0.,-1.));
#898=DIRECTION('',(1.,0.,0.));
#899=DIRECTION('',(1.,0.,0.));
#900=DIRECTION('',(0.,0.,-1.));
#901=DIRECTION('',(0.,0.,1.));
#902=DIRECTION('',(1.,0.,0.));
#903=DIRECTION('',(0.,0.,-1.));
#904=DIRECTION('',(1.,0.,0.));
#905=DIRECTION('',(0.,0.,1.));
#906=DIRECTION('',(1.,0.,0.));
#907=DIRECTION('',(0.,0.,-1.));
#908=DIRECTION('center_axis',(0.,1.,0.));
#909=DIRECTION('ref_axis',(0.,0.,1.));
#910=DIRECTION('center_axis',(0.,1.,0.));
#911=DIRECTION('ref_axis',(0.,0.,1.));
#912=DIRECTION('center_axis',(-1.,0.,1.66512639613822E-16));
#913=DIRECTION('ref_axis',(1.66512639613822E-16,0.,1.));
#914=DIRECTION('',(0.,1.,0.));
#915=DIRECTION('',(0.,1.,0.));
#916=DIRECTION('center_axis',(1.,0.,0.));
#917=DIRECTION('ref_axis',(0.,0.,-1.));
#918=DIRECTION('',(0.,1.,0.));
#919=DIRECTION('',(0.,1.,0.));
#920=DIRECTION('center_axis',(0.,1.,0.));
#921=DIRECTION('ref_axis',(0.,0.,1.));
#922=DIRECTION('',(0.,1.,0.));
#923=DIRECTION('center_axis',(0.,1.,0.));
#924=DIRECTION('ref_axis',(0.,0.,1.));
#925=DIRECTION('',(0.,1.,0.));
#926=DIRECTION('center_axis',(0.,0.,1.));
#927=DIRECTION('ref_axis',(1.,0.,0.));
#928=DIRECTION('center_axis',(0.,0.,-1.));
#929=DIRECTION('ref_axis',(-1.,0.,0.));
#930=DIRECTION('',(0.,-1.,0.));
#931=DIRECTION('',(0.,1.,0.));
#932=DIRECTION('',(-1.,0.,0.));
#933=DIRECTION('center_axis',(-1.,0.,0.));
#934=DIRECTION('ref_axis',(0.,0.,1.));
#935=DIRECTION('',(0.,0.,1.));
#936=DIRECTION('',(0.,-1.,0.));
#937=DIRECTION('',(0.,1.,0.));
#938=DIRECTION('center_axis',(-1.,0.,0.));
#939=DIRECTION('ref_axis',(0.,0.,1.));
#940=DIRECTION('',(0.,1.,0.));
#941=DIRECTION('',(0.,0.,-1.));
#942=DIRECTION('',(0.,1.,0.));
#943=DIRECTION('center_axis',(0.,1.,0.));
#944=DIRECTION('ref_axis',(0.,0.,1.));
#945=DIRECTION('',(0.,0.,1.));
#946=DIRECTION('',(1.,0.,0.));
#947=DIRECTION('',(0.,0.,-1.));
#948=DIRECTION('center_axis',(0.,0.,1.));
#949=DIRECTION('ref_axis',(1.,0.,0.));
#950=DIRECTION('center_axis',(0.,0.,1.));
#951=DIRECTION('ref_axis',(1.,0.,0.));
#952=DIRECTION('center_axis',(0.,0.,-1.));
#953=DIRECTION('ref_axis',(-1.,0.,0.));
#954=DIRECTION('',(0.,-1.,0.));
#955=DIRECTION('',(1.,0.,0.));
#956=DIRECTION('center_axis',(0.,0.,-1.));
#957=DIRECTION('ref_axis',(-1.,0.,0.));
#958=DIRECTION('center_axis',(-1.,0.,0.));
#959=DIRECTION('ref_axis',(0.,0.,1.));
#960=DIRECTION('',(0.,0.,-1.));
#961=DIRECTION('center_axis',(0.,1.,0.));
#962=DIRECTION('ref_axis',(0.,0.,1.));
#963=DIRECTION('',(0.,0.,-1.));
#964=DIRECTION('center_axis',(-1.,0.,0.));
#965=DIRECTION('ref_axis',(0.,0.,1.));
#966=DIRECTION('center_axis',(0.,-1.,0.));
#967=DIRECTION('ref_axis',(0.,0.,-1.));
#968=DIRECTION('',(0.,0.,-1.));
#969=DIRECTION('center_axis',(-1.,0.,0.));
#970=DIRECTION('ref_axis',(0.,0.,1.));
#971=DIRECTION('center_axis',(-1.,0.,0.));
#972=DIRECTION('ref_axis',(0.,0.,1.));
#973=DIRECTION('',(0.,0.,-1.));
#974=DIRECTION('center_axis',(0.,-1.,0.));
#975=DIRECTION('ref_axis',(0.,0.,-1.));
#976=DIRECTION('center_axis',(0.,0.,-1.));
#977=DIRECTION('ref_axis',(-1.,0.,0.));
#978=DIRECTION('',(0.,0.,-1.));
#979=DIRECTION('center_axis',(0.,0.,-1.));
#980=DIRECTION('ref_axis',(-1.,0.,0.));
#981=DIRECTION('',(0.,0.,-1.));
#982=DIRECTION('center_axis',(0.,0.,-1.));
#983=DIRECTION('ref_axis',(-1.,0.,0.));
#984=DIRECTION('',(0.,0.,-1.));
#985=DIRECTION('center_axis',(0.707106781186548,0.707106781186548,0.));
#986=DIRECTION('ref_axis',(0.,0.,-1.));
#987=DIRECTION('',(-0.707106781186547,0.707106781186547,0.));
#988=DIRECTION('center_axis',(-0.707106781186548,0.,-0.707106781186548));
#989=DIRECTION('ref_axis',(-0.707106781186548,0.,0.707106781186548));
#990=DIRECTION('',(-0.707106781186545,0.,0.70710678118655));
#991=DIRECTION('center_axis',(0.577350269189626,0.577350269189626,0.577350269189626));
#992=DIRECTION('ref_axis',(0.707106781186547,0.,-0.707106781186547));
#993=DIRECTION('',(0.,-0.707106781186545,0.70710678118655));
#994=DIRECTION('center_axis',(0.707106781186548,-0.707106781186548,0.));
#995=DIRECTION('ref_axis',(0.,0.,-1.));
#996=DIRECTION('',(0.707106781186541,0.707106781186554,0.));
#997=DIRECTION('center_axis',(0.,0.707106781186548,0.707106781186548));
#998=DIRECTION('ref_axis',(1.,0.,0.));
#999=DIRECTION('',(0.,0.707106781186545,-0.70710678118655));
#1000=DIRECTION('center_axis',(-0.577350269189626,0.577350269189626,0.577350269189626));
#1001=DIRECTION('ref_axis',(0.707106781186547,0.,0.707106781186547));
#1002=DIRECTION('',(0.707106781186539,0.,0.707106781186556));
#1003=DIRECTION('center_axis',(-0.707106781186548,0.,0.707106781186548));
#1004=DIRECTION('ref_axis',(0.707106781186548,0.,0.707106781186548));
#1005=CARTESIAN_POINT('',(0.,0.,0.));
#1006=CARTESIAN_POINT('Origin',(-450.85,0.,-182.5625));
#1007=CARTESIAN_POINT('',(-428.625,0.,-182.5625));
#1008=CARTESIAN_POINT('',(-428.625,105.95,-182.5625));
#1009=CARTESIAN_POINT('',(-428.625,0.,-182.5625));
#1010=CARTESIAN_POINT('',(-426.625,107.95,-182.5625));
#1011=CARTESIAN_POINT('',(-426.625,107.95,-182.5625));
#1012=CARTESIAN_POINT('',(-252.825,107.95,-182.5625));
#1013=CARTESIAN_POINT('',(-426.625,107.95,-182.5625));
#1014=CARTESIAN_POINT('',(-250.825,105.95,-182.5625));
#1015=CARTESIAN_POINT('',(-252.825,107.95,-182.5625));
#1016=CARTESIAN_POINT('',(-250.825,0.,-182.5625));
#1017=CARTESIAN_POINT('',(-250.825,0.,-182.5625));
#1018=CARTESIAN_POINT('',(-260.35,0.,-182.5625));
#1019=CARTESIAN_POINT('',(-260.35,0.,-182.5625));
#1020=CARTESIAN_POINT('',(-260.35,25.4,-182.5625));
#1021=CARTESIAN_POINT('',(-260.35,0.,-182.5625));
#1022=CARTESIAN_POINT('',(-254.,25.4,-182.5625));
#1023=CARTESIAN_POINT('',(-254.,25.4,-182.5625));
#1024=CARTESIAN_POINT('',(-254.,104.775,-182.5625));
#1025=CARTESIAN_POINT('',(-254.,104.775,-182.5625));
#1026=CARTESIAN_POINT('',(-327.025,104.775,-182.5625));
#1027=CARTESIAN_POINT('',(-327.025,104.775,-182.5625));
#1028=CARTESIAN_POINT('',(-327.025,98.425,-182.5625));
#1029=CARTESIAN_POINT('',(-327.025,98.425,-182.5625));
#1030=CARTESIAN_POINT('',(-352.425,98.425,-182.5625));
#1031=CARTESIAN_POINT('',(-352.425,98.425,-182.5625));
#1032=CARTESIAN_POINT('',(-352.425,104.775,-182.5625));
#1033=CARTESIAN_POINT('',(-352.425,98.425,-182.5625));
#1034=CARTESIAN_POINT('',(-425.45,104.775,-182.5625));
#1035=CARTESIAN_POINT('',(-425.45,104.775,-182.5625));
#1036=CARTESIAN_POINT('',(-425.45,25.4,-182.5625));
#1037=CARTESIAN_POINT('',(-425.45,25.4,-182.5625));
#1038=CARTESIAN_POINT('',(-419.1,25.4,-182.5625));
#1039=CARTESIAN_POINT('',(-419.1,25.4,-182.5625));
#1040=CARTESIAN_POINT('',(-419.1,0.,-182.5625));
#1041=CARTESIAN_POINT('',(-419.1,0.,-182.5625));
#1042=CARTESIAN_POINT('',(-428.625,0.,-182.5625));
#1043=CARTESIAN_POINT('',(-255.925,12.7,-182.5625));
#1044=CARTESIAN_POINT('Origin',(-257.175,12.7,-182.5625));
#1045=CARTESIAN_POINT('',(-421.025,12.7,-182.5625));
#1046=CARTESIAN_POINT('Origin',(-422.275,12.7,-182.5625));
#1047=CARTESIAN_POINT('',(-338.475,101.6,-182.5625));
#1048=CARTESIAN_POINT('Origin',(-339.725,101.6,-182.5625));
#1049=CARTESIAN_POINT('Origin',(-425.45,-171.56755229355,-176.2125));
#1050=CARTESIAN_POINT('',(-260.35,25.4,-176.2125));
#1051=CARTESIAN_POINT('',(-260.35,0.,-176.2125));
#1052=CARTESIAN_POINT('',(-260.35,25.4,-176.2125));
#1053=CARTESIAN_POINT('',(-254.,0.,-176.2125));
#1054=CARTESIAN_POINT('',(-260.35,0.,-176.2125));
#1055=CARTESIAN_POINT('',(-254.,25.4,-176.2125));
#1056=CARTESIAN_POINT('',(-254.,0.,-176.2125));
#1057=CARTESIAN_POINT('',(-260.35,25.4,-176.2125));
#1058=CARTESIAN_POINT('',(-255.925,12.7,-176.2125));
#1059=CARTESIAN_POINT('Origin',(-257.175,12.7,-176.2125));
#1060=CARTESIAN_POINT('Origin',(-425.45,-171.56755229355,-176.2125));
#1061=CARTESIAN_POINT('',(-327.025,98.425,-176.2125));
#1062=CARTESIAN_POINT('',(-352.425,98.425,-176.2125));
#1063=CARTESIAN_POINT('',(-327.025,98.425,-176.2125));
#1064=CARTESIAN_POINT('',(-327.025,104.775,-176.2125));
#1065=CARTESIAN_POINT('',(-327.025,104.775,-176.2125));
#1066=CARTESIAN_POINT('',(-352.425,104.775,-176.2125));
#1067=CARTESIAN_POINT('',(-327.025,104.775,-176.2125));
#1068=CARTESIAN_POINT('',(-352.425,104.775,-176.2125));
#1069=CARTESIAN_POINT('',(-338.475,101.6,-176.2125));
#1070=CARTESIAN_POINT('Origin',(-339.725,101.6,-176.2125));
#1071=CARTESIAN_POINT('Origin',(-425.45,0.,0.));
#1072=CARTESIAN_POINT('',(-425.45,0.,-176.2125));
#1073=CARTESIAN_POINT('',(-425.45,25.4,-176.2125));
#1074=CARTESIAN_POINT('',(-425.45,0.,-176.2125));
#1075=CARTESIAN_POINT('',(-425.45,25.4,-176.2125));
#1076=CARTESIAN_POINT('',(-425.45,104.775,-41.275));
#1077=CARTESIAN_POINT('',(-425.45,104.775,-182.5625));
#1078=CARTESIAN_POINT('',(-425.45,0.,-41.275));
#1079=CARTESIAN_POINT('',(-425.45,0.,-41.275));
#1080=CARTESIAN_POINT('',(-425.45,0.,-176.2125));
#1081=CARTESIAN_POINT('Origin',(-254.,0.,0.));
#1082=CARTESIAN_POINT('',(-254.,104.775,-41.275));
#1083=CARTESIAN_POINT('',(-254.,104.775,-41.275));
#1084=CARTESIAN_POINT('',(-254.,25.4,-176.2125));
#1085=CARTESIAN_POINT('',(-254.,0.,-41.275));
#1086=CARTESIAN_POINT('',(-254.,0.,-176.2125));
#1087=CARTESIAN_POINT('',(-254.,0.,-41.275));
#1088=CARTESIAN_POINT('Origin',(0.,104.775,0.));
#1089=CARTESIAN_POINT('',(-327.025,104.775,-176.2125));
#1090=CARTESIAN_POINT('',(-425.45,104.775,-41.275));
#1091=CARTESIAN_POINT('',(-352.425,104.775,-176.2125));
#1092=CARTESIAN_POINT('Origin',(0.,3.175,0.));
#1093=CARTESIAN_POINT('',(-250.825,3.175,-69.8499999999999));
#1094=CARTESIAN_POINT('',(-228.6,3.175,-69.8499999999999));
#1095=CARTESIAN_POINT('',(-250.825,3.175,-69.8499999999999));
#1096=CARTESIAN_POINT('',(-250.825,3.175,-40.1));
#1097=CARTESIAN_POINT('',(-250.825,3.175,-40.1));
#1098=CARTESIAN_POINT('',(-252.825,3.175,-38.1));
#1099=CARTESIAN_POINT('',(-252.825,3.175,-38.1));
#1100=CARTESIAN_POINT('',(-228.6,3.175,-38.0999999999999));
#1101=CARTESIAN_POINT('',(-252.825,3.175,-38.0999999999999));
#1102=CARTESIAN_POINT('',(-228.6,3.175,-38.0999999999999));
#1103=CARTESIAN_POINT('',(-241.3,3.175,-56.975));
#1104=CARTESIAN_POINT('Origin',(-241.3,3.175,-53.975));
#1105=CARTESIAN_POINT('Origin',(0.,3.175,0.));
#1106=CARTESIAN_POINT('',(-450.85,3.175,-69.8499999999999));
#1107=CARTESIAN_POINT('',(-428.625,3.175,-69.8499999999999));
#1108=CARTESIAN_POINT('',(-450.85,3.175,-69.8499999999999));
#1109=CARTESIAN_POINT('',(-450.85,3.175,-38.0999999999999));
#1110=CARTESIAN_POINT('',(-450.85,3.175,-69.8499999999999));
#1111=CARTESIAN_POINT('',(-426.625,3.175,-38.1));
#1112=CARTESIAN_POINT('',(-450.85,3.175,-38.0999999999999));
#1113=CARTESIAN_POINT('',(-428.625,3.175,-40.1));
#1114=CARTESIAN_POINT('',(-426.625,3.175,-38.1));
#1115=CARTESIAN_POINT('',(-428.625,3.175,-40.1));
#1116=CARTESIAN_POINT('',(-438.15,3.175,-56.975));
#1117=CARTESIAN_POINT('Origin',(-438.15,3.175,-53.975));
#1118=CARTESIAN_POINT('Origin',(0.,0.,0.));
#1119=CARTESIAN_POINT('',(-419.1,0.,-176.2125));
#1120=CARTESIAN_POINT('',(-419.1,0.,-176.2125));
#1121=CARTESIAN_POINT('',(-425.45,0.,-176.2125));
#1122=CARTESIAN_POINT('',(-425.45,0.,-41.275));
#1123=CARTESIAN_POINT('',(-260.35,0.,-176.2125));
#1124=CARTESIAN_POINT('',(-250.825,0.,-69.8499999999999));
#1125=CARTESIAN_POINT('',(-250.825,0.,-182.5625));
#1126=CARTESIAN_POINT('',(-228.6,0.,-69.8499999999999));
#1127=CARTESIAN_POINT('',(-250.825,0.,-69.8499999999999));
#1128=CARTESIAN_POINT('',(-228.6,0.,-38.0999999999999));
#1129=CARTESIAN_POINT('',(-228.6,0.,-38.0999999999999));
#1130=CARTESIAN_POINT('',(-450.85,0.,-38.0999999999999));
#1131=CARTESIAN_POINT('',(-450.85,0.,-38.0999999999999));
#1132=CARTESIAN_POINT('',(-450.85,0.,-69.8499999999999));
#1133=CARTESIAN_POINT('',(-450.85,0.,-69.8499999999999));
#1134=CARTESIAN_POINT('',(-428.625,0.,-69.8499999999999));
#1135=CARTESIAN_POINT('',(-450.85,0.,-69.8499999999999));
#1136=CARTESIAN_POINT('',(-428.625,0.,-69.8499999999999));
#1137=CARTESIAN_POINT('',(-241.3,0.,-56.975));
#1138=CARTESIAN_POINT('Origin',(-241.3,0.,-53.975));
#1139=CARTESIAN_POINT('',(-438.15,0.,-56.975));
#1140=CARTESIAN_POINT('Origin',(-438.15,0.,-53.975));
#1141=CARTESIAN_POINT('Origin',(-450.85,0.,7.50722235698915E-14));
#1142=CARTESIAN_POINT('',(-450.85,0.,-69.8499999999999));
#1143=CARTESIAN_POINT('',(-450.85,0.,-38.0999999999999));
#1144=CARTESIAN_POINT('Origin',(-228.6,0.,0.));
#1145=CARTESIAN_POINT('',(-228.6,0.,-69.8499999999999));
#1146=CARTESIAN_POINT('',(-228.6,0.,-38.0999999999999));
#1147=CARTESIAN_POINT('Origin',(-438.15,0.,-53.975));
#1148=CARTESIAN_POINT('',(-438.15,0.,-56.975));
#1149=CARTESIAN_POINT('Origin',(-241.3,0.,-53.975));
#1150=CARTESIAN_POINT('',(-241.3,0.,-56.975));
#1151=CARTESIAN_POINT('Origin',(0.,0.,-41.275));
#1152=CARTESIAN_POINT('Origin',(0.,104.775,-38.1));
#1153=CARTESIAN_POINT('',(-426.625,105.95,-38.1));
#1154=CARTESIAN_POINT('',(-426.625,105.95,-38.1));
#1155=CARTESIAN_POINT('',(-252.825,105.95,-38.1));
#1156=CARTESIAN_POINT('',(-252.825,3.175,-38.1));
#1157=CARTESIAN_POINT('',(-252.825,105.95,-38.1));
#1158=CARTESIAN_POINT('Origin',(-250.825,104.775,0.));
#1159=CARTESIAN_POINT('',(-250.825,105.95,-40.1));
#1160=CARTESIAN_POINT('',(-250.825,105.95,-182.5625));
#1161=CARTESIAN_POINT('',(-250.825,105.95,-40.1));
#1162=CARTESIAN_POINT('',(-250.825,0.,-69.8499999999999));
#1163=CARTESIAN_POINT('Origin',(-428.625,104.775,0.));
#1164=CARTESIAN_POINT('',(-428.625,105.95,-40.1));
#1165=CARTESIAN_POINT('',(-428.625,3.175,-40.1));
#1166=CARTESIAN_POINT('',(-428.625,105.95,-40.1));
#1167=CARTESIAN_POINT('',(-428.625,0.,-69.8499999999999));
#1168=CARTESIAN_POINT('Origin',(0.,107.95,0.));
#1169=CARTESIAN_POINT('',(-426.625,107.95,-40.1));
#1170=CARTESIAN_POINT('',(-426.625,107.95,-182.5625));
#1171=CARTESIAN_POINT('',(-252.825,107.95,-40.1));
#1172=CARTESIAN_POINT('',(-426.625,107.95,-40.1));
#1173=CARTESIAN_POINT('',(-252.825,107.95,-40.1));
#1174=CARTESIAN_POINT('Origin',(0.,0.,-69.8499999999999));
#1175=CARTESIAN_POINT('Origin',(0.,0.,-69.8499999999999));
#1176=CARTESIAN_POINT('Origin',(-425.45,-171.56755229355,-176.2125));
#1177=CARTESIAN_POINT('',(-419.1,25.4,-176.2125));
#1178=CARTESIAN_POINT('',(-419.1,25.4,-176.2125));
#1179=CARTESIAN_POINT('',(-425.45,25.4,-176.2125));
#1180=CARTESIAN_POINT('',(-421.025,12.7,-176.2125));
#1181=CARTESIAN_POINT('Origin',(-422.275,12.7,-176.2125));
#1182=CARTESIAN_POINT('Origin',(-327.025,0.,24.7175951201686));
#1183=CARTESIAN_POINT('',(-327.025,98.425,-176.2125));
#1184=CARTESIAN_POINT('Origin',(0.,98.425,24.7175951201686));
#1185=CARTESIAN_POINT('',(-352.425,98.425,-176.2125));
#1186=CARTESIAN_POINT('Origin',(-352.425,0.,24.7175951201686));
#1187=CARTESIAN_POINT('Origin',(0.,25.4,24.7175951201686));
#1188=CARTESIAN_POINT('',(-419.1,25.4,-176.2125));
#1189=CARTESIAN_POINT('Origin',(-419.1,0.,24.7175951201686));
#1190=CARTESIAN_POINT('Origin',(-260.35,0.,24.7175951201686));
#1191=CARTESIAN_POINT('',(-260.35,25.4,-176.2125));
#1192=CARTESIAN_POINT('Origin',(0.,25.4,24.7175951201686));
#1193=CARTESIAN_POINT('Origin',(-257.175,12.7,24.7175951201686));
#1194=CARTESIAN_POINT('',(-255.925,12.7,24.7175951201686));
#1195=CARTESIAN_POINT('Origin',(-339.725,101.6,24.7175951201686));
#1196=CARTESIAN_POINT('',(-338.475,101.6,24.7175951201686));
#1197=CARTESIAN_POINT('Origin',(-422.275,12.7,24.7175951201686));
#1198=CARTESIAN_POINT('',(-421.025,12.7,24.7175951201686));
#1199=CARTESIAN_POINT('Origin',(-252.825,107.95,0.));
#1200=CARTESIAN_POINT('',(-250.825,105.95,-40.1));
#1201=CARTESIAN_POINT('Origin',(-250.825,104.775,-40.1));
#1202=CARTESIAN_POINT('',(-250.825,105.95,-40.1));
#1203=CARTESIAN_POINT('Origin',(-252.825,107.95,-40.1));
#1204=CARTESIAN_POINT('',(-252.825,107.95,-40.1));
#1205=CARTESIAN_POINT('Origin',(-426.625,107.95,0.));
#1206=CARTESIAN_POINT('',(-428.625,105.95,-40.1));
#1207=CARTESIAN_POINT('Origin',(0.,107.95,-40.1));
#1208=CARTESIAN_POINT('',(-426.625,105.95,-38.1));
#1209=CARTESIAN_POINT('Origin',(-428.625,105.95,-40.1));
#1210=CARTESIAN_POINT('',(-428.625,105.95,-40.1));
#1211=CARTESIAN_POINT('Origin',(-426.625,104.775,-38.1));
#1212=UNCERTAINTY_MEASURE_WITH_UNIT(LENGTH_MEASURE(0.01),#1216,
'DISTANCE_ACCURACY_VALUE',
'Maximum model space distance between geometric entities at asserted c
onnectivities');
#1213=UNCERTAINTY_MEASURE_WITH_UNIT(LENGTH_MEASURE(0.01),#1216,
'DISTANCE_ACCURACY_VALUE',
'Maximum model space distance between geometric entities at asserted c
onnectivities');
#1214=(
GEOMETRIC_REPRESENTATION_CONTEXT(3)
GLOBAL_UNCERTAINTY_ASSIGNED_CONTEXT((#1212))
GLOBAL_UNIT_ASSIGNED_CONTEXT((#1216,#1218,#1219))
REPRESENTATION_CONTEXT('','3D')
);
#1215=(
GEOMETRIC_REPRESENTATION_CONTEXT(3)
GLOBAL_UNCERTAINTY_ASSIGNED_CONTEXT((#1213))
GLOBAL_UNIT_ASSIGNED_CONTEXT((#1216,#1218,#1219))
REPRESENTATION_CONTEXT('','3D')
);
#1216=(
LENGTH_UNIT()
NAMED_UNIT(*)
SI_UNIT(.MILLI.,.METRE.)
);
#1217=(
LENGTH_UNIT()
NAMED_UNIT(*)
SI_UNIT($,.METRE.)
);
#1218=(
NAMED_UNIT(*)
PLANE_ANGLE_UNIT()
SI_UNIT($,.RADIAN.)
);
#1219=(
NAMED_UNIT(*)
SI_UNIT($,.STERADIAN.)
SOLID_ANGLE_UNIT()
);
#1220=SHAPE_DEFINITION_REPRESENTATION(#1221,#1222);
#1221=PRODUCT_DEFINITION_SHAPE('',$,#1224);
#1222=SHAPE_REPRESENTATION('',(#766),#1214);
#1223=PRODUCT_DEFINITION_CONTEXT('part definition',#1228,'design');
#1224=PRODUCT_DEFINITION('Enclosure cover 1','Enclosure cover 1 v1',#1225,
#1223);
#1225=PRODUCT_DEFINITION_FORMATION('',$,#1230);
#1226=PRODUCT_RELATED_PRODUCT_CATEGORY('Enclosure cover 1 v1',
'Enclosure cover 1 v1',(#1230));
#1227=APPLICATION_PROTOCOL_DEFINITION('international standard',
'automotive_design',2009,#1228);
#1228=APPLICATION_CONTEXT(
'Core Data for Automotive Mechanical Design Process');
#1229=PRODUCT_CONTEXT('part definition',#1228,'mechanical');
#1230=PRODUCT('Enclosure cover 1','Enclosure cover 1 v1',$,(#1229));
#1231=PRESENTATION_STYLE_ASSIGNMENT((#1232));
#1232=SURFACE_STYLE_USAGE(.BOTH.,#1233);
#1233=SURFACE_SIDE_STYLE('',(#1234));
#1234=SURFACE_STYLE_FILL_AREA(#1235);
#1235=FILL_AREA_STYLE('Steel - Satin',(#1236));
#1236=FILL_AREA_STYLE_COLOUR('Steel - Satin',#1237);
#1237=COLOUR_RGB('Steel - Satin',0.627450980392157,0.627450980392157,0.627450980392157);
ENDSEC;
END-ISO-10303-21;
