ISO-10303-21;
HEADER;
/* Generated by software containing ST-Developer
 * from STEP Tools, Inc. (www.steptools.com) 
 */

FILE_DESCRIPTION(
/* description */ (''),
/* implementation_level */ '2;1');

FILE_NAME(
/* name */ 'Enclosure cover 2 v1.step',
/* time_stamp */ '2025-12-04T13:33:02-05:00',
/* author */ (''),
/* organization */ (''),
/* preprocessor_version */ 'ST-DEVELOPER v20.1',
/* originating_system */ 'Autodesk Translation Framework v14.17.0.0',
/* authorisation */ '');

FILE_SCHEMA (('AUTOMOTIVE_DESIGN { 1 0 10303 214 3 1 1 }'));
ENDSEC;

DATA;
#10=MECHANICAL_DESIGN_GEOMETRIC_PRESENTATION_REPRESENTATION('',(#13),#1254);
#11=SHAPE_REPRESENTATION_RELATIONSHIP('SRR','None',#1261,#12);
#12=ADVANCED_BREP_SHAPE_REPRESENTATION('',(#14),#1253);
#13=STYLED_ITEM('',(#1270),#14);
#14=MANIFOLD_SOLID_BREP('Body1',#776);
#15=CYLINDRICAL_SURFACE('',#811,2.99999999999999);
#16=CYLINDRICAL_SURFACE('',#812,2.99999999999999);
#17=CYLINDRICAL_SURFACE('',#821,10.4);
#18=CYLINDRICAL_SURFACE('',#831,1.87499999999999);
#19=CYLINDRICAL_SURFACE('',#832,1.87499999999999);
#20=CYLINDRICAL_SURFACE('',#833,1.87499999999999);
#21=FACE_BOUND('',#85,.T.);
#22=FACE_BOUND('',#86,.T.);
#23=FACE_BOUND('',#87,.T.);
#24=FACE_BOUND('',#89,.T.);
#25=FACE_BOUND('',#91,.T.);
#26=FACE_BOUND('',#95,.T.);
#27=FACE_BOUND('',#97,.T.);
#28=FACE_BOUND('',#99,.T.);
#29=FACE_BOUND('',#101,.T.);
#30=FACE_BOUND('',#102,.T.);
#31=FACE_BOUND('',#112,.T.);
#32=FACE_BOUND('',#117,.T.);
#33=CIRCLE('',#791,1.87499999999999);
#34=CIRCLE('',#792,1.87499999999999);
#35=CIRCLE('',#793,1.87499999999999);
#36=CIRCLE('',#795,1.87499999999999);
#37=CIRCLE('',#797,1.87499999999999);
#38=CIRCLE('',#801,10.4);
#39=CIRCLE('',#803,2.99999999999999);
#40=CIRCLE('',#805,2.99999999999999);
#41=CIRCLE('',#807,2.99999999999999);
#42=CIRCLE('',#808,2.99999999999999);
#43=CIRCLE('',#818,10.4);
#44=CIRCLE('',#823,1.87499999999999);
#45=FACE_OUTER_BOUND('',#84,.T.);
#46=FACE_OUTER_BOUND('',#88,.T.);
#47=FACE_OUTER_BOUND('',#90,.T.);
#48=FACE_OUTER_BOUND('',#92,.T.);
#49=FACE_OUTER_BOUND('',#93,.T.);
#50=FACE_OUTER_BOUND('',#94,.T.);
#51=FACE_OUTER_BOUND('',#96,.T.);
#52=FACE_OUTER_BOUND('',#98,.T.);
#53=FACE_OUTER_BOUND('',#100,.T.);
#54=FACE_OUTER_BOUND('',#103,.T.);
#55=FACE_OUTER_BOUND('',#104,.T.);
#56=FACE_OUTER_BOUND('',#105,.T.);
#57=FACE_OUTER_BOUND('',#106,.T.);
#58=FACE_OUTER_BOUND('',#107,.T.);
#59=FACE_OUTER_BOUND('',#108,.T.);
#60=FACE_OUTER_BOUND('',#109,.T.);
#61=FACE_OUTER_BOUND('',#110,.T.);
#62=FACE_OUTER_BOUND('',#111,.T.);
#63=FACE_OUTER_BOUND('',#113,.T.);
#64=FACE_OUTER_BOUND('',#114,.T.);
#65=FACE_OUTER_BOUND('',#115,.T.);
#66=FACE_OUTER_BOUND('',#116,.T.);
#67=FACE_OUTER_BOUND('',#118,.T.);
#68=FACE_OUTER_BOUND('',#119,.T.);
#69=FACE_OUTER_BOUND('',#120,.T.);
#70=FACE_OUTER_BOUND('',#121,.T.);
#71=FACE_OUTER_BOUND('',#122,.T.);
#72=FACE_OUTER_BOUND('',#123,.T.);
#73=FACE_OUTER_BOUND('',#124,.T.);
#74=FACE_OUTER_BOUND('',#125,.T.);
#75=FACE_OUTER_BOUND('',#126,.T.);
#76=FACE_OUTER_BOUND('',#127,.T.);
#77=FACE_OUTER_BOUND('',#128,.T.);
#78=FACE_OUTER_BOUND('',#129,.T.);
#79=FACE_OUTER_BOUND('',#130,.T.);
#80=FACE_OUTER_BOUND('',#131,.T.);
#81=FACE_OUTER_BOUND('',#132,.T.);
#82=FACE_OUTER_BOUND('',#133,.T.);
#83=FACE_OUTER_BOUND('',#134,.T.);
#84=EDGE_LOOP('',(#494,#495,#496,#497,#498,#499,#500,#501,#502,#503,#504,
#505,#506,#507,#508,#509,#510,#511));
#85=EDGE_LOOP('',(#512));
#86=EDGE_LOOP('',(#513));
#87=EDGE_LOOP('',(#514));
#88=EDGE_LOOP('',(#515,#516,#517,#518));
#89=EDGE_LOOP('',(#519));
#90=EDGE_LOOP('',(#520,#521,#522,#523));
#91=EDGE_LOOP('',(#524));
#92=EDGE_LOOP('',(#525,#526,#527,#528,#529,#530));
#93=EDGE_LOOP('',(#531,#532,#533,#534,#535,#536));
#94=EDGE_LOOP('',(#537,#538,#539,#540,#541,#542,#543,#544));
#95=EDGE_LOOP('',(#545));
#96=EDGE_LOOP('',(#546,#547,#548,#549,#550));
#97=EDGE_LOOP('',(#551));
#98=EDGE_LOOP('',(#552,#553,#554,#555,#556));
#99=EDGE_LOOP('',(#557));
#100=EDGE_LOOP('',(#558,#559,#560,#561,#562,#563,#564,#565,#566,#567,#568,
#569,#570,#571,#572,#573));
#101=EDGE_LOOP('',(#574));
#102=EDGE_LOOP('',(#575));
#103=EDGE_LOOP('',(#576,#577,#578,#579));
#104=EDGE_LOOP('',(#580,#581,#582,#583));
#105=EDGE_LOOP('',(#584,#585,#586,#587));
#106=EDGE_LOOP('',(#588,#589,#590,#591));
#107=EDGE_LOOP('',(#592,#593,#594,#595));
#108=EDGE_LOOP('',(#596,#597,#598,#599,#600,#601,#602,#603));
#109=EDGE_LOOP('',(#604,#605,#606,#607,#608,#609));
#110=EDGE_LOOP('',(#610,#611,#612,#613,#614,#615));
#111=EDGE_LOOP('',(#616,#617,#618,#619));
#112=EDGE_LOOP('',(#620));
#113=EDGE_LOOP('',(#621,#622,#623,#624));
#114=EDGE_LOOP('',(#625,#626,#627,#628));
#115=EDGE_LOOP('',(#629,#630,#631,#632));
#116=EDGE_LOOP('',(#633,#634,#635,#636));
#117=EDGE_LOOP('',(#637));
#118=EDGE_LOOP('',(#638,#639,#640,#641));
#119=EDGE_LOOP('',(#642,#643,#644,#645));
#120=EDGE_LOOP('',(#646,#647,#648,#649));
#121=EDGE_LOOP('',(#650,#651,#652,#653));
#122=EDGE_LOOP('',(#654,#655,#656,#657));
#123=EDGE_LOOP('',(#658,#659,#660,#661));
#124=EDGE_LOOP('',(#662,#663,#664,#665));
#125=EDGE_LOOP('',(#666,#667,#668,#669));
#126=EDGE_LOOP('',(#670,#671,#672,#673));
#127=EDGE_LOOP('',(#674,#675,#676,#677));
#128=EDGE_LOOP('',(#678,#679,#680,#681));
#129=EDGE_LOOP('',(#682,#683,#684,#685));
#130=EDGE_LOOP('',(#686,#687,#688));
#131=EDGE_LOOP('',(#689,#690,#691,#692));
#132=EDGE_LOOP('',(#693,#694,#695,#696));
#133=EDGE_LOOP('',(#697,#698,#699));
#134=EDGE_LOOP('',(#700,#701,#702,#703));
#135=LINE('',#1042,#228);
#136=LINE('',#1044,#229);
#137=LINE('',#1046,#230);
#138=LINE('',#1048,#231);
#139=LINE('',#1050,#232);
#140=LINE('',#1052,#233);
#141=LINE('',#1054,#234);
#142=LINE('',#1056,#235);
#143=LINE('',#1058,#236);
#144=LINE('',#1060,#237);
#145=LINE('',#1062,#238);
#146=LINE('',#1064,#239);
#147=LINE('',#1066,#240);
#148=LINE('',#1068,#241);
#149=LINE('',#1070,#242);
#150=LINE('',#1072,#243);
#151=LINE('',#1074,#244);
#152=LINE('',#1075,#245);
#153=LINE('',#1085,#246);
#154=LINE('',#1087,#247);
#155=LINE('',#1089,#248);
#156=LINE('',#1090,#249);
#157=LINE('',#1096,#250);
#158=LINE('',#1098,#251);
#159=LINE('',#1100,#252);
#160=LINE('',#1101,#253);
#161=LINE('',#1107,#254);
#162=LINE('',#1108,#255);
#163=LINE('',#1110,#256);
#164=LINE('',#1112,#257);
#165=LINE('',#1113,#258);
#166=LINE('',#1116,#259);
#167=LINE('',#1117,#260);
#168=LINE('',#1119,#261);
#169=LINE('',#1120,#262);
#170=LINE('',#1122,#263);
#171=LINE('',#1123,#264);
#172=LINE('',#1124,#265);
#173=LINE('',#1130,#266);
#174=LINE('',#1132,#267);
#175=LINE('',#1134,#268);
#176=LINE('',#1136,#269);
#177=LINE('',#1137,#270);
#178=LINE('',#1143,#271);
#179=LINE('',#1145,#272);
#180=LINE('',#1147,#273);
#181=LINE('',#1149,#274);
#182=LINE('',#1150,#275);
#183=LINE('',#1155,#276);
#184=LINE('',#1156,#277);
#185=LINE('',#1157,#278);
#186=LINE('',#1158,#279);
#187=LINE('',#1160,#280);
#188=LINE('',#1162,#281);
#189=LINE('',#1164,#282);
#190=LINE('',#1166,#283);
#191=LINE('',#1168,#284);
#192=LINE('',#1170,#285);
#193=LINE('',#1171,#286);
#194=LINE('',#1177,#287);
#195=LINE('',#1178,#288);
#196=LINE('',#1180,#289);
#197=LINE('',#1181,#290);
#198=LINE('',#1183,#291);
#199=LINE('',#1185,#292);
#200=LINE('',#1189,#293);
#201=LINE('',#1191,#294);
#202=LINE('',#1192,#295);
#203=LINE('',#1195,#296);
#204=LINE('',#1196,#297);
#205=LINE('',#1197,#298);
#206=LINE('',#1200,#299);
#207=LINE('',#1201,#300);
#208=LINE('',#1202,#301);
#209=LINE('',#1205,#302);
#210=LINE('',#1207,#303);
#211=LINE('',#1208,#304);
#212=LINE('',#1214,#305);
#213=LINE('',#1217,#306);
#214=LINE('',#1218,#307);
#215=LINE('',#1222,#308);
#216=LINE('',#1224,#309);
#217=LINE('',#1227,#310);
#218=LINE('',#1230,#311);
#219=LINE('',#1233,#312);
#220=LINE('',#1235,#313);
#221=LINE('',#1237,#314);
#222=LINE('',#1239,#315);
#223=LINE('',#1241,#316);
#224=LINE('',#1243,#317);
#225=LINE('',#1245,#318);
#226=LINE('',#1247,#319);
#227=LINE('',#1249,#320);
#228=VECTOR('',#845,105.95);
#229=VECTOR('',#846,2.82842712474624);
#230=VECTOR('',#847,173.8);
#231=VECTOR('',#848,2.82842712474627);
#232=VECTOR('',#849,105.95);
#233=VECTOR('',#850,9.52500000000001);
#234=VECTOR('',#851,25.4);
#235=VECTOR('',#852,6.35000000000002);
#236=VECTOR('',#853,79.375);
#237=VECTOR('',#854,73.025);
#238=VECTOR('',#855,6.35);
#239=VECTOR('',#856,25.4);
#240=VECTOR('',#857,6.35);
#241=VECTOR('',#858,73.025);
#242=VECTOR('',#859,79.375);
#243=VECTOR('',#860,6.35000000000005);
#244=VECTOR('',#861,25.4);
#245=VECTOR('',#862,9.52500000000001);
#246=VECTOR('',#871,25.4);
#247=VECTOR('',#872,6.34999999999998);
#248=VECTOR('',#873,25.4);
#249=VECTOR('',#874,6.35000000000002);
#250=VECTOR('',#879,25.4);
#251=VECTOR('',#880,6.35);
#252=VECTOR('',#881,25.4);
#253=VECTOR('',#882,6.35);
#254=VECTOR('',#887,25.4);
#255=VECTOR('',#888,6.35000000000002);
#256=VECTOR('',#889,141.2875);
#257=VECTOR('',#890,104.775);
#258=VECTOR('',#891,134.9375);
#259=VECTOR('',#894,141.2875);
#260=VECTOR('',#895,6.35000000000002);
#261=VECTOR('',#896,134.9375);
#262=VECTOR('',#897,104.775);
#263=VECTOR('',#900,6.35000000000002);
#264=VECTOR('',#901,171.45);
#265=VECTOR('',#902,6.35000000000002);
#266=VECTOR('',#907,22.225);
#267=VECTOR('',#908,29.7499999999998);
#268=VECTOR('',#909,2.82842712474628);
#269=VECTOR('',#910,24.2250000000001);
#270=VECTOR('',#911,31.7499999999999);
#271=VECTOR('',#916,22.225);
#272=VECTOR('',#917,31.7499999999999);
#273=VECTOR('',#918,24.2250000000001);
#274=VECTOR('',#919,2.82842712474625);
#275=VECTOR('',#920,29.7499999999998);
#276=VECTOR('',#925,6.35000000000002);
#277=VECTOR('',#926,6.35000000000012);
#278=VECTOR('',#927,171.45);
#279=VECTOR('',#928,6.35000000000002);
#280=VECTOR('',#929,112.7125);
#281=VECTOR('',#930,22.225);
#282=VECTOR('',#931,31.7499999999999);
#283=VECTOR('',#932,222.25);
#284=VECTOR('',#933,31.7499999999999);
#285=VECTOR('',#934,22.225);
#286=VECTOR('',#935,112.7125);
#287=VECTOR('',#942,3.175);
#288=VECTOR('',#943,3.175);
#289=VECTOR('',#946,3.175);
#290=VECTOR('',#947,3.175);
#291=VECTOR('',#950,2.99999999999999);
#292=VECTOR('',#953,2.99999999999999);
#293=VECTOR('',#958,102.775);
#294=VECTOR('',#959,102.775);
#295=VECTOR('',#960,173.8);
#296=VECTOR('',#963,142.4625);
#297=VECTOR('',#964,102.775);
#298=VECTOR('',#965,3.175);
#299=VECTOR('',#968,102.775);
#300=VECTOR('',#969,142.4625);
#301=VECTOR('',#970,3.175);
#302=VECTOR('',#973,142.4625);
#303=VECTOR('',#974,173.8);
#304=VECTOR('',#975,142.4625);
#305=VECTOR('',#984,10.4);
#306=VECTOR('',#987,25.4);
#307=VECTOR('',#988,6.35000000000005);
#308=VECTOR('',#993,6.35000000000002);
#309=VECTOR('',#996,6.35000000000002);
#310=VECTOR('',#1001,6.35000000000002);
#311=VECTOR('',#1006,6.35000000000002);
#312=VECTOR('',#1011,1.87499999999999);
#313=VECTOR('',#1014,1.87499999999999);
#314=VECTOR('',#1017,1.87499999999999);
#315=VECTOR('',#1020,2.82842712474627);
#316=VECTOR('',#1023,2.82842712474628);
#317=VECTOR('',#1026,2.82842712474626);
#318=VECTOR('',#1029,2.82842712474624);
#319=VECTOR('',#1032,2.82842712474626);
#320=VECTOR('',#1035,2.82842712474625);
#321=VERTEX_POINT('',#1040);
#322=VERTEX_POINT('',#1041);
#323=VERTEX_POINT('',#1043);
#324=VERTEX_POINT('',#1045);
#325=VERTEX_POINT('',#1047);
#326=VERTEX_POINT('',#1049);
#327=VERTEX_POINT('',#1051);
#328=VERTEX_POINT('',#1053);
#329=VERTEX_POINT('',#1055);
#330=VERTEX_POINT('',#1057);
#331=VERTEX_POINT('',#1059);
#332=VERTEX_POINT('',#1061);
#333=VERTEX_POINT('',#1063);
#334=VERTEX_POINT('',#1065);
#335=VERTEX_POINT('',#1067);
#336=VERTEX_POINT('',#1069);
#337=VERTEX_POINT('',#1071);
#338=VERTEX_POINT('',#1073);
#339=VERTEX_POINT('',#1076);
#340=VERTEX_POINT('',#1078);
#341=VERTEX_POINT('',#1080);
#342=VERTEX_POINT('',#1083);
#343=VERTEX_POINT('',#1084);
#344=VERTEX_POINT('',#1086);
#345=VERTEX_POINT('',#1088);
#346=VERTEX_POINT('',#1091);
#347=VERTEX_POINT('',#1094);
#348=VERTEX_POINT('',#1095);
#349=VERTEX_POINT('',#1097);
#350=VERTEX_POINT('',#1099);
#351=VERTEX_POINT('',#1102);
#352=VERTEX_POINT('',#1105);
#353=VERTEX_POINT('',#1106);
#354=VERTEX_POINT('',#1109);
#355=VERTEX_POINT('',#1111);
#356=VERTEX_POINT('',#1115);
#357=VERTEX_POINT('',#1118);
#358=VERTEX_POINT('',#1125);
#359=VERTEX_POINT('',#1128);
#360=VERTEX_POINT('',#1129);
#361=VERTEX_POINT('',#1131);
#362=VERTEX_POINT('',#1133);
#363=VERTEX_POINT('',#1135);
#364=VERTEX_POINT('',#1138);
#365=VERTEX_POINT('',#1141);
#366=VERTEX_POINT('',#1142);
#367=VERTEX_POINT('',#1144);
#368=VERTEX_POINT('',#1146);
#369=VERTEX_POINT('',#1148);
#370=VERTEX_POINT('',#1151);
#371=VERTEX_POINT('',#1154);
#372=VERTEX_POINT('',#1159);
#373=VERTEX_POINT('',#1161);
#374=VERTEX_POINT('',#1163);
#375=VERTEX_POINT('',#1165);
#376=VERTEX_POINT('',#1167);
#377=VERTEX_POINT('',#1169);
#378=VERTEX_POINT('',#1172);
#379=VERTEX_POINT('',#1174);
#380=VERTEX_POINT('',#1188);
#381=VERTEX_POINT('',#1190);
#382=VERTEX_POINT('',#1194);
#383=VERTEX_POINT('',#1199);
#384=VERTEX_POINT('',#1204);
#385=VERTEX_POINT('',#1206);
#386=VERTEX_POINT('',#1209);
#387=VERTEX_POINT('',#1216);
#388=VERTEX_POINT('',#1219);
#389=EDGE_CURVE('',#321,#322,#135,.T.);
#390=EDGE_CURVE('',#322,#323,#136,.F.);
#391=EDGE_CURVE('',#323,#324,#137,.T.);
#392=EDGE_CURVE('',#324,#325,#138,.T.);
#393=EDGE_CURVE('',#326,#325,#139,.T.);
#394=EDGE_CURVE('',#327,#326,#140,.T.);
#395=EDGE_CURVE('',#327,#328,#141,.T.);
#396=EDGE_CURVE('',#329,#328,#142,.T.);
#397=EDGE_CURVE('',#330,#329,#143,.T.);
#398=EDGE_CURVE('',#331,#330,#144,.T.);
#399=EDGE_CURVE('',#332,#331,#145,.T.);
#400=EDGE_CURVE('',#333,#332,#146,.T.);
#401=EDGE_CURVE('',#333,#334,#147,.T.);
#402=EDGE_CURVE('',#335,#334,#148,.T.);
#403=EDGE_CURVE('',#336,#335,#149,.T.);
#404=EDGE_CURVE('',#337,#336,#150,.T.);
#405=EDGE_CURVE('',#338,#337,#151,.T.);
#406=EDGE_CURVE('',#321,#338,#152,.T.);
#407=EDGE_CURVE('',#339,#339,#33,.F.);
#408=EDGE_CURVE('',#340,#340,#34,.T.);
#409=EDGE_CURVE('',#341,#341,#35,.T.);
#410=EDGE_CURVE('',#342,#343,#153,.T.);
#411=EDGE_CURVE('',#343,#344,#154,.T.);
#412=EDGE_CURVE('',#344,#345,#155,.T.);
#413=EDGE_CURVE('',#342,#345,#156,.T.);
#414=EDGE_CURVE('',#346,#346,#36,.T.);
#415=EDGE_CURVE('',#347,#348,#157,.T.);
#416=EDGE_CURVE('',#349,#347,#158,.T.);
#417=EDGE_CURVE('',#349,#350,#159,.T.);
#418=EDGE_CURVE('',#350,#348,#160,.T.);
#419=EDGE_CURVE('',#351,#351,#37,.F.);
#420=EDGE_CURVE('',#352,#353,#161,.T.);
#421=EDGE_CURVE('',#353,#336,#162,.T.);
#422=EDGE_CURVE('',#335,#354,#163,.T.);
#423=EDGE_CURVE('',#355,#354,#164,.T.);
#424=EDGE_CURVE('',#352,#355,#165,.T.);
#425=EDGE_CURVE('',#356,#330,#166,.T.);
#426=EDGE_CURVE('',#345,#329,#167,.T.);
#427=EDGE_CURVE('',#344,#357,#168,.T.);
#428=EDGE_CURVE('',#357,#356,#169,.T.);
#429=EDGE_CURVE('',#349,#331,#170,.T.);
#430=EDGE_CURVE('',#354,#356,#171,.T.);
#431=EDGE_CURVE('',#350,#334,#172,.T.);
#432=EDGE_CURVE('',#358,#358,#38,.T.);
#433=EDGE_CURVE('',#359,#360,#173,.T.);
#434=EDGE_CURVE('',#361,#359,#174,.T.);
#435=EDGE_CURVE('',#361,#362,#175,.F.);
#436=EDGE_CURVE('',#362,#363,#176,.T.);
#437=EDGE_CURVE('',#363,#360,#177,.T.);
#438=EDGE_CURVE('',#364,#364,#39,.T.);
#439=EDGE_CURVE('',#365,#366,#178,.T.);
#440=EDGE_CURVE('',#365,#367,#179,.T.);
#441=EDGE_CURVE('',#367,#368,#180,.T.);
#442=EDGE_CURVE('',#368,#369,#181,.T.);
#443=EDGE_CURVE('',#369,#366,#182,.T.);
#444=EDGE_CURVE('',#370,#370,#40,.T.);
#445=EDGE_CURVE('',#371,#338,#183,.T.);
#446=EDGE_CURVE('',#352,#371,#184,.T.);
#447=EDGE_CURVE('',#355,#357,#185,.T.);
#448=EDGE_CURVE('',#343,#327,#186,.T.);
#449=EDGE_CURVE('',#326,#372,#187,.T.);
#450=EDGE_CURVE('',#372,#373,#188,.T.);
#451=EDGE_CURVE('',#374,#373,#189,.T.);
#452=EDGE_CURVE('',#375,#374,#190,.T.);
#453=EDGE_CURVE('',#376,#375,#191,.T.);
#454=EDGE_CURVE('',#376,#377,#192,.T.);
#455=EDGE_CURVE('',#377,#321,#193,.T.);
#456=EDGE_CURVE('',#378,#378,#41,.T.);
#457=EDGE_CURVE('',#379,#379,#42,.T.);
#458=EDGE_CURVE('',#376,#365,#194,.T.);
#459=EDGE_CURVE('',#375,#367,#195,.T.);
#460=EDGE_CURVE('',#373,#360,#196,.T.);
#461=EDGE_CURVE('',#374,#363,#197,.T.);
#462=EDGE_CURVE('',#379,#370,#198,.T.);
#463=EDGE_CURVE('',#378,#364,#199,.T.);
#464=EDGE_CURVE('',#380,#368,#200,.T.);
#465=EDGE_CURVE('',#362,#381,#201,.T.);
#466=EDGE_CURVE('',#381,#380,#202,.T.);
#467=EDGE_CURVE('',#325,#382,#203,.T.);
#468=EDGE_CURVE('',#382,#361,#204,.T.);
#469=EDGE_CURVE('',#372,#359,#205,.T.);
#470=EDGE_CURVE('',#369,#383,#206,.T.);
#471=EDGE_CURVE('',#383,#322,#207,.T.);
#472=EDGE_CURVE('',#377,#366,#208,.T.);
#473=EDGE_CURVE('',#323,#384,#209,.T.);
#474=EDGE_CURVE('',#384,#385,#210,.T.);
#475=EDGE_CURVE('',#385,#324,#211,.T.);
#476=EDGE_CURVE('',#386,#386,#43,.T.);
#477=EDGE_CURVE('',#386,#358,#212,.T.);
#478=EDGE_CURVE('',#387,#371,#213,.T.);
#479=EDGE_CURVE('',#353,#387,#214,.T.);
#480=EDGE_CURVE('',#388,#388,#44,.F.);
#481=EDGE_CURVE('',#347,#332,#215,.T.);
#482=EDGE_CURVE('',#348,#333,#216,.T.);
#483=EDGE_CURVE('',#387,#337,#217,.T.);
#484=EDGE_CURVE('',#342,#328,#218,.T.);
#485=EDGE_CURVE('',#346,#339,#219,.T.);
#486=EDGE_CURVE('',#351,#341,#220,.T.);
#487=EDGE_CURVE('',#388,#340,#221,.T.);
#488=EDGE_CURVE('',#382,#385,#222,.T.);
#489=EDGE_CURVE('',#381,#382,#223,.F.);
#490=EDGE_CURVE('',#381,#385,#224,.F.);
#491=EDGE_CURVE('',#384,#383,#225,.F.);
#492=EDGE_CURVE('',#380,#384,#226,.T.);
#493=EDGE_CURVE('',#380,#383,#227,.F.);
#494=ORIENTED_EDGE('',*,*,#389,.T.);
#495=ORIENTED_EDGE('',*,*,#390,.T.);
#496=ORIENTED_EDGE('',*,*,#391,.T.);
#497=ORIENTED_EDGE('',*,*,#392,.T.);
#498=ORIENTED_EDGE('',*,*,#393,.F.);
#499=ORIENTED_EDGE('',*,*,#394,.F.);
#500=ORIENTED_EDGE('',*,*,#395,.T.);
#501=ORIENTED_EDGE('',*,*,#396,.F.);
#502=ORIENTED_EDGE('',*,*,#397,.F.);
#503=ORIENTED_EDGE('',*,*,#398,.F.);
#504=ORIENTED_EDGE('',*,*,#399,.F.);
#505=ORIENTED_EDGE('',*,*,#400,.F.);
#506=ORIENTED_EDGE('',*,*,#401,.T.);
#507=ORIENTED_EDGE('',*,*,#402,.F.);
#508=ORIENTED_EDGE('',*,*,#403,.F.);
#509=ORIENTED_EDGE('',*,*,#404,.F.);
#510=ORIENTED_EDGE('',*,*,#405,.F.);
#511=ORIENTED_EDGE('',*,*,#406,.F.);
#512=ORIENTED_EDGE('',*,*,#407,.T.);
#513=ORIENTED_EDGE('',*,*,#408,.F.);
#514=ORIENTED_EDGE('',*,*,#409,.F.);
#515=ORIENTED_EDGE('',*,*,#410,.T.);
#516=ORIENTED_EDGE('',*,*,#411,.T.);
#517=ORIENTED_EDGE('',*,*,#412,.T.);
#518=ORIENTED_EDGE('',*,*,#413,.F.);
#519=ORIENTED_EDGE('',*,*,#414,.T.);
#520=ORIENTED_EDGE('',*,*,#415,.F.);
#521=ORIENTED_EDGE('',*,*,#416,.F.);
#522=ORIENTED_EDGE('',*,*,#417,.T.);
#523=ORIENTED_EDGE('',*,*,#418,.T.);
#524=ORIENTED_EDGE('',*,*,#419,.F.);
#525=ORIENTED_EDGE('',*,*,#420,.T.);
#526=ORIENTED_EDGE('',*,*,#421,.T.);
#527=ORIENTED_EDGE('',*,*,#403,.T.);
#528=ORIENTED_EDGE('',*,*,#422,.T.);
#529=ORIENTED_EDGE('',*,*,#423,.F.);
#530=ORIENTED_EDGE('',*,*,#424,.F.);
#531=ORIENTED_EDGE('',*,*,#425,.T.);
#532=ORIENTED_EDGE('',*,*,#397,.T.);
#533=ORIENTED_EDGE('',*,*,#426,.F.);
#534=ORIENTED_EDGE('',*,*,#412,.F.);
#535=ORIENTED_EDGE('',*,*,#427,.T.);
#536=ORIENTED_EDGE('',*,*,#428,.T.);
#537=ORIENTED_EDGE('',*,*,#417,.F.);
#538=ORIENTED_EDGE('',*,*,#429,.T.);
#539=ORIENTED_EDGE('',*,*,#398,.T.);
#540=ORIENTED_EDGE('',*,*,#425,.F.);
#541=ORIENTED_EDGE('',*,*,#430,.F.);
#542=ORIENTED_EDGE('',*,*,#422,.F.);
#543=ORIENTED_EDGE('',*,*,#402,.T.);
#544=ORIENTED_EDGE('',*,*,#431,.F.);
#545=ORIENTED_EDGE('',*,*,#432,.F.);
#546=ORIENTED_EDGE('',*,*,#433,.F.);
#547=ORIENTED_EDGE('',*,*,#434,.F.);
#548=ORIENTED_EDGE('',*,*,#435,.T.);
#549=ORIENTED_EDGE('',*,*,#436,.T.);
#550=ORIENTED_EDGE('',*,*,#437,.T.);
#551=ORIENTED_EDGE('',*,*,#438,.F.);
#552=ORIENTED_EDGE('',*,*,#439,.F.);
#553=ORIENTED_EDGE('',*,*,#440,.T.);
#554=ORIENTED_EDGE('',*,*,#441,.T.);
#555=ORIENTED_EDGE('',*,*,#442,.T.);
#556=ORIENTED_EDGE('',*,*,#443,.T.);
#557=ORIENTED_EDGE('',*,*,#444,.F.);
#558=ORIENTED_EDGE('',*,*,#406,.T.);
#559=ORIENTED_EDGE('',*,*,#445,.F.);
#560=ORIENTED_EDGE('',*,*,#446,.F.);
#561=ORIENTED_EDGE('',*,*,#424,.T.);
#562=ORIENTED_EDGE('',*,*,#447,.T.);
#563=ORIENTED_EDGE('',*,*,#427,.F.);
#564=ORIENTED_EDGE('',*,*,#411,.F.);
#565=ORIENTED_EDGE('',*,*,#448,.T.);
#566=ORIENTED_EDGE('',*,*,#394,.T.);
#567=ORIENTED_EDGE('',*,*,#449,.T.);
#568=ORIENTED_EDGE('',*,*,#450,.T.);
#569=ORIENTED_EDGE('',*,*,#451,.F.);
#570=ORIENTED_EDGE('',*,*,#452,.F.);
#571=ORIENTED_EDGE('',*,*,#453,.F.);
#572=ORIENTED_EDGE('',*,*,#454,.T.);
#573=ORIENTED_EDGE('',*,*,#455,.T.);
#574=ORIENTED_EDGE('',*,*,#456,.T.);
#575=ORIENTED_EDGE('',*,*,#457,.T.);
#576=ORIENTED_EDGE('',*,*,#458,.F.);
#577=ORIENTED_EDGE('',*,*,#453,.T.);
#578=ORIENTED_EDGE('',*,*,#459,.T.);
#579=ORIENTED_EDGE('',*,*,#440,.F.);
#580=ORIENTED_EDGE('',*,*,#460,.T.);
#581=ORIENTED_EDGE('',*,*,#437,.F.);
#582=ORIENTED_EDGE('',*,*,#461,.F.);
#583=ORIENTED_EDGE('',*,*,#451,.T.);
#584=ORIENTED_EDGE('',*,*,#457,.F.);
#585=ORIENTED_EDGE('',*,*,#462,.T.);
#586=ORIENTED_EDGE('',*,*,#444,.T.);
#587=ORIENTED_EDGE('',*,*,#462,.F.);
#588=ORIENTED_EDGE('',*,*,#456,.F.);
#589=ORIENTED_EDGE('',*,*,#463,.T.);
#590=ORIENTED_EDGE('',*,*,#438,.T.);
#591=ORIENTED_EDGE('',*,*,#463,.F.);
#592=ORIENTED_EDGE('',*,*,#423,.T.);
#593=ORIENTED_EDGE('',*,*,#430,.T.);
#594=ORIENTED_EDGE('',*,*,#428,.F.);
#595=ORIENTED_EDGE('',*,*,#447,.F.);
#596=ORIENTED_EDGE('',*,*,#464,.T.);
#597=ORIENTED_EDGE('',*,*,#441,.F.);
#598=ORIENTED_EDGE('',*,*,#459,.F.);
#599=ORIENTED_EDGE('',*,*,#452,.T.);
#600=ORIENTED_EDGE('',*,*,#461,.T.);
#601=ORIENTED_EDGE('',*,*,#436,.F.);
#602=ORIENTED_EDGE('',*,*,#465,.T.);
#603=ORIENTED_EDGE('',*,*,#466,.T.);
#604=ORIENTED_EDGE('',*,*,#393,.T.);
#605=ORIENTED_EDGE('',*,*,#467,.T.);
#606=ORIENTED_EDGE('',*,*,#468,.T.);
#607=ORIENTED_EDGE('',*,*,#434,.T.);
#608=ORIENTED_EDGE('',*,*,#469,.F.);
#609=ORIENTED_EDGE('',*,*,#449,.F.);
#610=ORIENTED_EDGE('',*,*,#443,.F.);
#611=ORIENTED_EDGE('',*,*,#470,.T.);
#612=ORIENTED_EDGE('',*,*,#471,.T.);
#613=ORIENTED_EDGE('',*,*,#389,.F.);
#614=ORIENTED_EDGE('',*,*,#455,.F.);
#615=ORIENTED_EDGE('',*,*,#472,.T.);
#616=ORIENTED_EDGE('',*,*,#391,.F.);
#617=ORIENTED_EDGE('',*,*,#473,.T.);
#618=ORIENTED_EDGE('',*,*,#474,.T.);
#619=ORIENTED_EDGE('',*,*,#475,.T.);
#620=ORIENTED_EDGE('',*,*,#476,.F.);
#621=ORIENTED_EDGE('',*,*,#439,.T.);
#622=ORIENTED_EDGE('',*,*,#472,.F.);
#623=ORIENTED_EDGE('',*,*,#454,.F.);
#624=ORIENTED_EDGE('',*,*,#458,.T.);
#625=ORIENTED_EDGE('',*,*,#433,.T.);
#626=ORIENTED_EDGE('',*,*,#460,.F.);
#627=ORIENTED_EDGE('',*,*,#450,.F.);
#628=ORIENTED_EDGE('',*,*,#469,.T.);
#629=ORIENTED_EDGE('',*,*,#476,.T.);
#630=ORIENTED_EDGE('',*,*,#477,.T.);
#631=ORIENTED_EDGE('',*,*,#432,.T.);
#632=ORIENTED_EDGE('',*,*,#477,.F.);
#633=ORIENTED_EDGE('',*,*,#478,.F.);
#634=ORIENTED_EDGE('',*,*,#479,.F.);
#635=ORIENTED_EDGE('',*,*,#420,.F.);
#636=ORIENTED_EDGE('',*,*,#446,.T.);
#637=ORIENTED_EDGE('',*,*,#480,.F.);
#638=ORIENTED_EDGE('',*,*,#416,.T.);
#639=ORIENTED_EDGE('',*,*,#481,.T.);
#640=ORIENTED_EDGE('',*,*,#399,.T.);
#641=ORIENTED_EDGE('',*,*,#429,.F.);
#642=ORIENTED_EDGE('',*,*,#415,.T.);
#643=ORIENTED_EDGE('',*,*,#482,.T.);
#644=ORIENTED_EDGE('',*,*,#400,.T.);
#645=ORIENTED_EDGE('',*,*,#481,.F.);
#646=ORIENTED_EDGE('',*,*,#431,.T.);
#647=ORIENTED_EDGE('',*,*,#401,.F.);
#648=ORIENTED_EDGE('',*,*,#482,.F.);
#649=ORIENTED_EDGE('',*,*,#418,.F.);
#650=ORIENTED_EDGE('',*,*,#479,.T.);
#651=ORIENTED_EDGE('',*,*,#483,.T.);
#652=ORIENTED_EDGE('',*,*,#404,.T.);
#653=ORIENTED_EDGE('',*,*,#421,.F.);
#654=ORIENTED_EDGE('',*,*,#478,.T.);
#655=ORIENTED_EDGE('',*,*,#445,.T.);
#656=ORIENTED_EDGE('',*,*,#405,.T.);
#657=ORIENTED_EDGE('',*,*,#483,.F.);
#658=ORIENTED_EDGE('',*,*,#484,.T.);
#659=ORIENTED_EDGE('',*,*,#395,.F.);
#660=ORIENTED_EDGE('',*,*,#448,.F.);
#661=ORIENTED_EDGE('',*,*,#410,.F.);
#662=ORIENTED_EDGE('',*,*,#413,.T.);
#663=ORIENTED_EDGE('',*,*,#426,.T.);
#664=ORIENTED_EDGE('',*,*,#396,.T.);
#665=ORIENTED_EDGE('',*,*,#484,.F.);
#666=ORIENTED_EDGE('',*,*,#414,.F.);
#667=ORIENTED_EDGE('',*,*,#485,.T.);
#668=ORIENTED_EDGE('',*,*,#407,.F.);
#669=ORIENTED_EDGE('',*,*,#485,.F.);
#670=ORIENTED_EDGE('',*,*,#419,.T.);
#671=ORIENTED_EDGE('',*,*,#486,.T.);
#672=ORIENTED_EDGE('',*,*,#409,.T.);
#673=ORIENTED_EDGE('',*,*,#486,.F.);
#674=ORIENTED_EDGE('',*,*,#480,.T.);
#675=ORIENTED_EDGE('',*,*,#487,.T.);
#676=ORIENTED_EDGE('',*,*,#408,.T.);
#677=ORIENTED_EDGE('',*,*,#487,.F.);
#678=ORIENTED_EDGE('',*,*,#392,.F.);
#679=ORIENTED_EDGE('',*,*,#475,.F.);
#680=ORIENTED_EDGE('',*,*,#488,.F.);
#681=ORIENTED_EDGE('',*,*,#467,.F.);
#682=ORIENTED_EDGE('',*,*,#435,.F.);
#683=ORIENTED_EDGE('',*,*,#468,.F.);
#684=ORIENTED_EDGE('',*,*,#489,.F.);
#685=ORIENTED_EDGE('',*,*,#465,.F.);
#686=ORIENTED_EDGE('',*,*,#489,.T.);
#687=ORIENTED_EDGE('',*,*,#488,.T.);
#688=ORIENTED_EDGE('',*,*,#490,.F.);
#689=ORIENTED_EDGE('',*,*,#390,.F.);
#690=ORIENTED_EDGE('',*,*,#471,.F.);
#691=ORIENTED_EDGE('',*,*,#491,.F.);
#692=ORIENTED_EDGE('',*,*,#473,.F.);
#693=ORIENTED_EDGE('',*,*,#490,.T.);
#694=ORIENTED_EDGE('',*,*,#474,.F.);
#695=ORIENTED_EDGE('',*,*,#492,.F.);
#696=ORIENTED_EDGE('',*,*,#466,.F.);
#697=ORIENTED_EDGE('',*,*,#492,.T.);
#698=ORIENTED_EDGE('',*,*,#491,.T.);
#699=ORIENTED_EDGE('',*,*,#493,.F.);
#700=ORIENTED_EDGE('',*,*,#493,.T.);
#701=ORIENTED_EDGE('',*,*,#470,.F.);
#702=ORIENTED_EDGE('',*,*,#442,.F.);
#703=ORIENTED_EDGE('',*,*,#464,.F.);
#704=PLANE('',#790);
#705=PLANE('',#794);
#706=PLANE('',#796);
#707=PLANE('',#798);
#708=PLANE('',#799);
#709=PLANE('',#800);
#710=PLANE('',#802);
#711=PLANE('',#804);
#712=PLANE('',#806);
#713=PLANE('',#809);
#714=PLANE('',#810);
#715=PLANE('',#813);
#716=PLANE('',#814);
#717=PLANE('',#815);
#718=PLANE('',#816);
#719=PLANE('',#817);
#720=PLANE('',#819);
#721=PLANE('',#820);
#722=PLANE('',#822);
#723=PLANE('',#824);
#724=PLANE('',#825);
#725=PLANE('',#826);
#726=PLANE('',#827);
#727=PLANE('',#828);
#728=PLANE('',#829);
#729=PLANE('',#830);
#730=PLANE('',#834);
#731=PLANE('',#835);
#732=PLANE('',#836);
#733=PLANE('',#837);
#734=PLANE('',#838);
#735=PLANE('',#839);
#736=PLANE('',#840);
#737=ADVANCED_FACE('',(#45,#21,#22,#23),#704,.F.);
#738=ADVANCED_FACE('',(#46,#24),#705,.F.);
#739=ADVANCED_FACE('',(#47,#25),#706,.F.);
#740=ADVANCED_FACE('',(#48),#707,.F.);
#741=ADVANCED_FACE('',(#49),#708,.T.);
#742=ADVANCED_FACE('',(#50,#26),#709,.F.);
#743=ADVANCED_FACE('',(#51,#27),#710,.T.);
#744=ADVANCED_FACE('',(#52,#28),#711,.T.);
#745=ADVANCED_FACE('',(#53,#29,#30),#712,.F.);
#746=ADVANCED_FACE('',(#54),#713,.T.);
#747=ADVANCED_FACE('',(#55),#714,.T.);
#748=ADVANCED_FACE('',(#56),#15,.F.);
#749=ADVANCED_FACE('',(#57),#16,.F.);
#750=ADVANCED_FACE('',(#58),#715,.F.);
#751=ADVANCED_FACE('',(#59),#716,.F.);
#752=ADVANCED_FACE('',(#60),#717,.F.);
#753=ADVANCED_FACE('',(#61),#718,.T.);
#754=ADVANCED_FACE('',(#62,#31),#719,.T.);
#755=ADVANCED_FACE('',(#63),#720,.F.);
#756=ADVANCED_FACE('',(#64),#721,.F.);
#757=ADVANCED_FACE('',(#65),#17,.F.);
#758=ADVANCED_FACE('',(#66,#32),#722,.F.);
#759=ADVANCED_FACE('',(#67),#723,.F.);
#760=ADVANCED_FACE('',(#68),#724,.F.);
#761=ADVANCED_FACE('',(#69),#725,.T.);
#762=ADVANCED_FACE('',(#70),#726,.F.);
#763=ADVANCED_FACE('',(#71),#727,.F.);
#764=ADVANCED_FACE('',(#72),#728,.T.);
#765=ADVANCED_FACE('',(#73),#729,.F.);
#766=ADVANCED_FACE('',(#74),#18,.F.);
#767=ADVANCED_FACE('',(#75),#19,.F.);
#768=ADVANCED_FACE('',(#76),#20,.F.);
#769=ADVANCED_FACE('',(#77),#730,.T.);
#770=ADVANCED_FACE('',(#78),#731,.F.);
#771=ADVANCED_FACE('',(#79),#732,.T.);
#772=ADVANCED_FACE('',(#80),#733,.F.);
#773=ADVANCED_FACE('',(#81),#734,.T.);
#774=ADVANCED_FACE('',(#82),#735,.T.);
#775=ADVANCED_FACE('',(#83),#736,.T.);
#776=CLOSED_SHELL('',(#737,#738,#739,#740,#741,#742,#743,#744,#745,#746,
#747,#748,#749,#750,#751,#752,#753,#754,#755,#756,#757,#758,#759,#760,#761,
#762,#763,#764,#765,#766,#767,#768,#769,#770,#771,#772,#773,#774,#775));
#777=DERIVED_UNIT_ELEMENT(#779,1.);
#778=DERIVED_UNIT_ELEMENT(#1256,-3.);
#779=(
MASS_UNIT()
NAMED_UNIT(*)
SI_UNIT(.KILO.,.GRAM.)
);
#780=DERIVED_UNIT((#777,#778));
#781=MEASURE_REPRESENTATION_ITEM('density measure',
POSITIVE_RATIO_MEASURE(7850.),#780);
#782=PROPERTY_DEFINITION_REPRESENTATION(#787,#784);
#783=PROPERTY_DEFINITION_REPRESENTATION(#788,#785);
#784=REPRESENTATION('material name',(#786),#1253);
#785=REPRESENTATION('density',(#781),#1253);
#786=DESCRIPTIVE_REPRESENTATION_ITEM('Steel','Steel');
#787=PROPERTY_DEFINITION('material property','material name',#1263);
#788=PROPERTY_DEFINITION('material property','density of part',#1263);
#789=AXIS2_PLACEMENT_3D('',#1038,#841,#842);
#790=AXIS2_PLACEMENT_3D('',#1039,#843,#844);
#791=AXIS2_PLACEMENT_3D('',#1077,#863,#864);
#792=AXIS2_PLACEMENT_3D('',#1079,#865,#866);
#793=AXIS2_PLACEMENT_3D('',#1081,#867,#868);
#794=AXIS2_PLACEMENT_3D('',#1082,#869,#870);
#795=AXIS2_PLACEMENT_3D('',#1092,#875,#876);
#796=AXIS2_PLACEMENT_3D('',#1093,#877,#878);
#797=AXIS2_PLACEMENT_3D('',#1103,#883,#884);
#798=AXIS2_PLACEMENT_3D('',#1104,#885,#886);
#799=AXIS2_PLACEMENT_3D('',#1114,#892,#893);
#800=AXIS2_PLACEMENT_3D('',#1121,#898,#899);
#801=AXIS2_PLACEMENT_3D('',#1126,#903,#904);
#802=AXIS2_PLACEMENT_3D('',#1127,#905,#906);
#803=AXIS2_PLACEMENT_3D('',#1139,#912,#913);
#804=AXIS2_PLACEMENT_3D('',#1140,#914,#915);
#805=AXIS2_PLACEMENT_3D('',#1152,#921,#922);
#806=AXIS2_PLACEMENT_3D('',#1153,#923,#924);
#807=AXIS2_PLACEMENT_3D('',#1173,#936,#937);
#808=AXIS2_PLACEMENT_3D('',#1175,#938,#939);
#809=AXIS2_PLACEMENT_3D('',#1176,#940,#941);
#810=AXIS2_PLACEMENT_3D('',#1179,#944,#945);
#811=AXIS2_PLACEMENT_3D('',#1182,#948,#949);
#812=AXIS2_PLACEMENT_3D('',#1184,#951,#952);
#813=AXIS2_PLACEMENT_3D('',#1186,#954,#955);
#814=AXIS2_PLACEMENT_3D('',#1187,#956,#957);
#815=AXIS2_PLACEMENT_3D('',#1193,#961,#962);
#816=AXIS2_PLACEMENT_3D('',#1198,#966,#967);
#817=AXIS2_PLACEMENT_3D('',#1203,#971,#972);
#818=AXIS2_PLACEMENT_3D('',#1210,#976,#977);
#819=AXIS2_PLACEMENT_3D('',#1211,#978,#979);
#820=AXIS2_PLACEMENT_3D('',#1212,#980,#981);
#821=AXIS2_PLACEMENT_3D('',#1213,#982,#983);
#822=AXIS2_PLACEMENT_3D('',#1215,#985,#986);
#823=AXIS2_PLACEMENT_3D('',#1220,#989,#990);
#824=AXIS2_PLACEMENT_3D('',#1221,#991,#992);
#825=AXIS2_PLACEMENT_3D('',#1223,#994,#995);
#826=AXIS2_PLACEMENT_3D('',#1225,#997,#998);
#827=AXIS2_PLACEMENT_3D('',#1226,#999,#1000);
#828=AXIS2_PLACEMENT_3D('',#1228,#1002,#1003);
#829=AXIS2_PLACEMENT_3D('',#1229,#1004,#1005);
#830=AXIS2_PLACEMENT_3D('',#1231,#1007,#1008);
#831=AXIS2_PLACEMENT_3D('',#1232,#1009,#1010);
#832=AXIS2_PLACEMENT_3D('',#1234,#1012,#1013);
#833=AXIS2_PLACEMENT_3D('',#1236,#1015,#1016);
#834=AXIS2_PLACEMENT_3D('',#1238,#1018,#1019);
#835=AXIS2_PLACEMENT_3D('',#1240,#1021,#1022);
#836=AXIS2_PLACEMENT_3D('',#1242,#1024,#1025);
#837=AXIS2_PLACEMENT_3D('',#1244,#1027,#1028);
#838=AXIS2_PLACEMENT_3D('',#1246,#1030,#1031);
#839=AXIS2_PLACEMENT_3D('',#1248,#1033,#1034);
#840=AXIS2_PLACEMENT_3D('',#1250,#1036,#1037);
#841=DIRECTION('axis',(0.,0.,1.));
#842=DIRECTION('refdir',(1.,0.,0.));
#843=DIRECTION('center_axis',(0.,0.,1.));
#844=DIRECTION('ref_axis',(1.,0.,0.));
#845=DIRECTION('',(0.,1.,0.));
#846=DIRECTION('',(-0.707106781186544,-0.707106781186551,0.));
#847=DIRECTION('',(1.,0.,0.));
#848=DIRECTION('',(0.707106781186551,-0.707106781186544,0.));
#849=DIRECTION('',(0.,1.,0.));
#850=DIRECTION('',(1.,0.,0.));
#851=DIRECTION('',(0.,1.,0.));
#852=DIRECTION('',(-1.,0.,0.));
#853=DIRECTION('',(0.,-1.,0.));
#854=DIRECTION('',(1.,0.,0.));
#855=DIRECTION('',(0.,1.,0.));
#856=DIRECTION('',(1.,0.,0.));
#857=DIRECTION('',(0.,1.,0.));
#858=DIRECTION('',(1.,-2.43253247435844E-16,0.));
#859=DIRECTION('',(0.,1.,0.));
#860=DIRECTION('',(-1.,0.,0.));
#861=DIRECTION('',(0.,1.,0.));
#862=DIRECTION('',(1.,0.,0.));
#863=DIRECTION('center_axis',(0.,0.,-1.));
#864=DIRECTION('ref_axis',(-1.,0.,0.));
#865=DIRECTION('center_axis',(0.,0.,-1.));
#866=DIRECTION('ref_axis',(-1.,0.,0.));
#867=DIRECTION('center_axis',(0.,0.,-1.));
#868=DIRECTION('ref_axis',(-1.,0.,0.));
#869=DIRECTION('center_axis',(0.,0.,-1.));
#870=DIRECTION('ref_axis',(-1.,0.,0.));
#871=DIRECTION('',(0.,-1.,0.));
#872=DIRECTION('',(1.,0.,0.));
#873=DIRECTION('',(0.,1.,0.));
#874=DIRECTION('',(1.,0.,0.));
#875=DIRECTION('center_axis',(0.,0.,-1.));
#876=DIRECTION('ref_axis',(-1.,0.,0.));
#877=DIRECTION('center_axis',(0.,0.,-1.));
#878=DIRECTION('ref_axis',(-1.,0.,0.));
#879=DIRECTION('',(-1.,0.,0.));
#880=DIRECTION('',(0.,-1.,0.));
#881=DIRECTION('',(-1.,0.,0.));
#882=DIRECTION('',(0.,-1.,0.));
#883=DIRECTION('center_axis',(0.,0.,-1.));
#884=DIRECTION('ref_axis',(-1.,0.,0.));
#885=DIRECTION('center_axis',(-1.,0.,0.));
#886=DIRECTION('ref_axis',(0.,0.,1.));
#887=DIRECTION('',(0.,1.,0.));
#888=DIRECTION('',(0.,0.,-1.));
#889=DIRECTION('',(5.02905590204441E-16,0.,1.));
#890=DIRECTION('',(0.,1.,0.));
#891=DIRECTION('',(0.,0.,1.));
#892=DIRECTION('center_axis',(-1.,0.,0.));
#893=DIRECTION('ref_axis',(0.,0.,1.));
#894=DIRECTION('',(-2.51452795102221E-16,0.,-1.));
#895=DIRECTION('',(0.,0.,-1.));
#896=DIRECTION('',(0.,0.,1.));
#897=DIRECTION('',(0.,1.,0.));
#898=DIRECTION('center_axis',(0.,1.,0.));
#899=DIRECTION('ref_axis',(0.,0.,1.));
#900=DIRECTION('',(0.,0.,-1.));
#901=DIRECTION('',(1.,0.,0.));
#902=DIRECTION('',(0.,0.,-1.));
#903=DIRECTION('center_axis',(0.,-1.,0.));
#904=DIRECTION('ref_axis',(0.,0.,1.));
#905=DIRECTION('center_axis',(0.,1.,0.));
#906=DIRECTION('ref_axis',(0.,0.,1.));
#907=DIRECTION('',(1.,0.,0.));
#908=DIRECTION('',(0.,0.,-1.));
#909=DIRECTION('',(0.707106781186548,0.,-0.707106781186547));
#910=DIRECTION('',(1.,0.,0.));
#911=DIRECTION('',(0.,0.,-1.));
#912=DIRECTION('center_axis',(0.,1.,0.));
#913=DIRECTION('ref_axis',(0.,0.,1.));
#914=DIRECTION('center_axis',(0.,1.,0.));
#915=DIRECTION('ref_axis',(0.,0.,1.));
#916=DIRECTION('',(1.,0.,0.));
#917=DIRECTION('',(0.,0.,1.));
#918=DIRECTION('',(1.,0.,0.));
#919=DIRECTION('',(-0.707106781186542,0.,-0.707106781186553));
#920=DIRECTION('',(0.,0.,-1.));
#921=DIRECTION('center_axis',(0.,1.,0.));
#922=DIRECTION('ref_axis',(0.,0.,1.));
#923=DIRECTION('center_axis',(0.,1.,0.));
#924=DIRECTION('ref_axis',(0.,0.,1.));
#925=DIRECTION('',(0.,0.,-1.));
#926=DIRECTION('',(1.,0.,0.));
#927=DIRECTION('',(1.,0.,0.));
#928=DIRECTION('',(0.,0.,-1.));
#929=DIRECTION('',(0.,0.,1.));
#930=DIRECTION('',(1.,0.,0.));
#931=DIRECTION('',(0.,0.,-1.));
#932=DIRECTION('',(1.,0.,0.));
#933=DIRECTION('',(0.,0.,1.));
#934=DIRECTION('',(1.,0.,0.));
#935=DIRECTION('',(0.,0.,-1.));
#936=DIRECTION('center_axis',(0.,1.,0.));
#937=DIRECTION('ref_axis',(0.,0.,1.));
#938=DIRECTION('center_axis',(0.,1.,0.));
#939=DIRECTION('ref_axis',(0.,0.,1.));
#940=DIRECTION('center_axis',(-1.,0.,1.66512639613822E-16));
#941=DIRECTION('ref_axis',(1.66512639613822E-16,0.,1.));
#942=DIRECTION('',(0.,1.,0.));
#943=DIRECTION('',(0.,1.,0.));
#944=DIRECTION('center_axis',(1.,0.,0.));
#945=DIRECTION('ref_axis',(0.,0.,-1.));
#946=DIRECTION('',(0.,1.,0.));
#947=DIRECTION('',(0.,1.,0.));
#948=DIRECTION('center_axis',(0.,1.,0.));
#949=DIRECTION('ref_axis',(0.,0.,1.));
#950=DIRECTION('',(0.,1.,0.));
#951=DIRECTION('center_axis',(0.,1.,0.));
#952=DIRECTION('ref_axis',(0.,0.,1.));
#953=DIRECTION('',(0.,1.,0.));
#954=DIRECTION('center_axis',(0.,0.,1.));
#955=DIRECTION('ref_axis',(1.,0.,0.));
#956=DIRECTION('center_axis',(0.,0.,-1.));
#957=DIRECTION('ref_axis',(-1.,0.,0.));
#958=DIRECTION('',(0.,-1.,0.));
#959=DIRECTION('',(0.,1.,0.));
#960=DIRECTION('',(-1.,0.,0.));
#961=DIRECTION('center_axis',(-1.,0.,0.));
#962=DIRECTION('ref_axis',(0.,0.,1.));
#963=DIRECTION('',(0.,0.,1.));
#964=DIRECTION('',(0.,-1.,0.));
#965=DIRECTION('',(0.,1.,0.));
#966=DIRECTION('center_axis',(-1.,0.,0.));
#967=DIRECTION('ref_axis',(0.,0.,1.));
#968=DIRECTION('',(0.,1.,0.));
#969=DIRECTION('',(0.,0.,-1.));
#970=DIRECTION('',(0.,1.,0.));
#971=DIRECTION('center_axis',(0.,1.,0.));
#972=DIRECTION('ref_axis',(0.,0.,1.));
#973=DIRECTION('',(0.,0.,1.));
#974=DIRECTION('',(1.,0.,0.));
#975=DIRECTION('',(0.,0.,-1.));
#976=DIRECTION('center_axis',(0.,1.,0.));
#977=DIRECTION('ref_axis',(0.,0.,1.));
#978=DIRECTION('center_axis',(0.,0.,1.));
#979=DIRECTION('ref_axis',(1.,0.,0.));
#980=DIRECTION('center_axis',(0.,0.,1.));
#981=DIRECTION('ref_axis',(1.,0.,0.));
#982=DIRECTION('center_axis',(0.,-1.,0.));
#983=DIRECTION('ref_axis',(0.,0.,-1.));
#984=DIRECTION('',(0.,-1.,0.));
#985=DIRECTION('center_axis',(0.,0.,-1.));
#986=DIRECTION('ref_axis',(-1.,0.,0.));
#987=DIRECTION('',(0.,-1.,0.));
#988=DIRECTION('',(1.,0.,0.));
#989=DIRECTION('center_axis',(0.,0.,-1.));
#990=DIRECTION('ref_axis',(-1.,0.,0.));
#991=DIRECTION('center_axis',(-1.,0.,0.));
#992=DIRECTION('ref_axis',(0.,0.,1.));
#993=DIRECTION('',(0.,0.,-1.));
#994=DIRECTION('center_axis',(0.,1.,0.));
#995=DIRECTION('ref_axis',(0.,0.,1.));
#996=DIRECTION('',(0.,0.,-1.));
#997=DIRECTION('center_axis',(-1.,0.,0.));
#998=DIRECTION('ref_axis',(0.,0.,1.));
#999=DIRECTION('center_axis',(0.,-1.,0.));
#1000=DIRECTION('ref_axis',(0.,0.,-1.));
#1001=DIRECTION('',(0.,0.,-1.));
#1002=DIRECTION('center_axis',(-1.,0.,0.));
#1003=DIRECTION('ref_axis',(0.,0.,1.));
#1004=DIRECTION('center_axis',(-1.,0.,0.));
#1005=DIRECTION('ref_axis',(0.,0.,1.));
#1006=DIRECTION('',(0.,0.,-1.));
#1007=DIRECTION('center_axis',(0.,-1.,0.));
#1008=DIRECTION('ref_axis',(0.,0.,-1.));
#1009=DIRECTION('center_axis',(0.,0.,-1.));
#1010=DIRECTION('ref_axis',(-1.,0.,0.));
#1011=DIRECTION('',(0.,0.,-1.));
#1012=DIRECTION('center_axis',(0.,0.,-1.));
#1013=DIRECTION('ref_axis',(-1.,0.,0.));
#1014=DIRECTION('',(0.,0.,-1.));
#1015=DIRECTION('center_axis',(0.,0.,-1.));
#1016=DIRECTION('ref_axis',(-1.,0.,0.));
#1017=DIRECTION('',(0.,0.,-1.));
#1018=DIRECTION('center_axis',(0.707106781186548,0.707106781186548,0.));
#1019=DIRECTION('ref_axis',(0.,0.,-1.));
#1020=DIRECTION('',(-0.707106781186551,0.707106781186544,0.));
#1021=DIRECTION('center_axis',(-0.707106781186548,0.,-0.707106781186548));
#1022=DIRECTION('ref_axis',(-0.707106781186548,0.,0.707106781186548));
#1023=DIRECTION('',(-0.707106781186548,0.,0.707106781186547));
#1024=DIRECTION('center_axis',(0.577350269189626,0.577350269189626,0.577350269189626));
#1025=DIRECTION('ref_axis',(0.707106781186547,0.,-0.707106781186547));
#1026=DIRECTION('',(0.,-0.707106781186545,0.70710678118655));
#1027=DIRECTION('center_axis',(0.707106781186548,-0.707106781186548,0.));
#1028=DIRECTION('ref_axis',(0.,0.,-1.));
#1029=DIRECTION('',(0.707106781186544,0.707106781186551,0.));
#1030=DIRECTION('center_axis',(0.,0.707106781186548,0.707106781186548));
#1031=DIRECTION('ref_axis',(1.,0.,0.));
#1032=DIRECTION('',(0.,0.707106781186545,-0.70710678118655));
#1033=DIRECTION('center_axis',(-0.577350269189626,0.577350269189626,0.577350269189626));
#1034=DIRECTION('ref_axis',(0.707106781186547,0.,0.707106781186547));
#1035=DIRECTION('',(0.707106781186542,0.,0.707106781186553));
#1036=DIRECTION('center_axis',(-0.707106781186548,0.,0.707106781186548));
#1037=DIRECTION('ref_axis',(0.707106781186548,0.,0.707106781186548));
#1038=CARTESIAN_POINT('',(0.,0.,0.));
#1039=CARTESIAN_POINT('Origin',(-450.85,0.,-182.5625));
#1040=CARTESIAN_POINT('',(-428.625,0.,-182.5625));
#1041=CARTESIAN_POINT('',(-428.625,105.95,-182.5625));
#1042=CARTESIAN_POINT('',(-428.625,0.,-182.5625));
#1043=CARTESIAN_POINT('',(-426.625,107.95,-182.5625));
#1044=CARTESIAN_POINT('',(-426.625,107.95,-182.5625));
#1045=CARTESIAN_POINT('',(-252.825,107.95,-182.5625));
#1046=CARTESIAN_POINT('',(-426.625,107.95,-182.5625));
#1047=CARTESIAN_POINT('',(-250.825,105.95,-182.5625));
#1048=CARTESIAN_POINT('',(-252.825,107.95,-182.5625));
#1049=CARTESIAN_POINT('',(-250.825,0.,-182.5625));
#1050=CARTESIAN_POINT('',(-250.825,0.,-182.5625));
#1051=CARTESIAN_POINT('',(-260.35,0.,-182.5625));
#1052=CARTESIAN_POINT('',(-260.35,0.,-182.5625));
#1053=CARTESIAN_POINT('',(-260.35,25.4,-182.5625));
#1054=CARTESIAN_POINT('',(-260.35,0.,-182.5625));
#1055=CARTESIAN_POINT('',(-254.,25.4,-182.5625));
#1056=CARTESIAN_POINT('',(-254.,25.4,-182.5625));
#1057=CARTESIAN_POINT('',(-254.,104.775,-182.5625));
#1058=CARTESIAN_POINT('',(-254.,104.775,-182.5625));
#1059=CARTESIAN_POINT('',(-327.025,104.775,-182.5625));
#1060=CARTESIAN_POINT('',(-327.025,104.775,-182.5625));
#1061=CARTESIAN_POINT('',(-327.025,98.425,-182.5625));
#1062=CARTESIAN_POINT('',(-327.025,98.425,-182.5625));
#1063=CARTESIAN_POINT('',(-352.425,98.425,-182.5625));
#1064=CARTESIAN_POINT('',(-352.425,98.425,-182.5625));
#1065=CARTESIAN_POINT('',(-352.425,104.775,-182.5625));
#1066=CARTESIAN_POINT('',(-352.425,98.425,-182.5625));
#1067=CARTESIAN_POINT('',(-425.45,104.775,-182.5625));
#1068=CARTESIAN_POINT('',(-425.45,104.775,-182.5625));
#1069=CARTESIAN_POINT('',(-425.45,25.4,-182.5625));
#1070=CARTESIAN_POINT('',(-425.45,25.4,-182.5625));
#1071=CARTESIAN_POINT('',(-419.1,25.4,-182.5625));
#1072=CARTESIAN_POINT('',(-419.1,25.4,-182.5625));
#1073=CARTESIAN_POINT('',(-419.1,0.,-182.5625));
#1074=CARTESIAN_POINT('',(-419.1,0.,-182.5625));
#1075=CARTESIAN_POINT('',(-428.625,0.,-182.5625));
#1076=CARTESIAN_POINT('',(-255.3,12.7,-182.5625));
#1077=CARTESIAN_POINT('Origin',(-257.175,12.7,-182.5625));
#1078=CARTESIAN_POINT('',(-420.4,12.7,-182.5625));
#1079=CARTESIAN_POINT('Origin',(-422.275,12.7,-182.5625));
#1080=CARTESIAN_POINT('',(-337.85,101.6,-182.5625));
#1081=CARTESIAN_POINT('Origin',(-339.725,101.6,-182.5625));
#1082=CARTESIAN_POINT('Origin',(-425.45,-171.56755229355,-176.2125));
#1083=CARTESIAN_POINT('',(-260.35,25.4,-176.2125));
#1084=CARTESIAN_POINT('',(-260.35,0.,-176.2125));
#1085=CARTESIAN_POINT('',(-260.35,25.4,-176.2125));
#1086=CARTESIAN_POINT('',(-254.,0.,-176.2125));
#1087=CARTESIAN_POINT('',(-260.35,0.,-176.2125));
#1088=CARTESIAN_POINT('',(-254.,25.4,-176.2125));
#1089=CARTESIAN_POINT('',(-254.,0.,-176.2125));
#1090=CARTESIAN_POINT('',(-260.35,25.4,-176.2125));
#1091=CARTESIAN_POINT('',(-255.3,12.7,-176.2125));
#1092=CARTESIAN_POINT('Origin',(-257.175,12.7,-176.2125));
#1093=CARTESIAN_POINT('Origin',(-425.45,-171.56755229355,-176.2125));
#1094=CARTESIAN_POINT('',(-327.025,98.425,-176.2125));
#1095=CARTESIAN_POINT('',(-352.425,98.425,-176.2125));
#1096=CARTESIAN_POINT('',(-327.025,98.425,-176.2125));
#1097=CARTESIAN_POINT('',(-327.025,104.775,-176.2125));
#1098=CARTESIAN_POINT('',(-327.025,104.775,-176.2125));
#1099=CARTESIAN_POINT('',(-352.425,104.775,-176.2125));
#1100=CARTESIAN_POINT('',(-327.025,104.775,-176.2125));
#1101=CARTESIAN_POINT('',(-352.425,104.775,-176.2125));
#1102=CARTESIAN_POINT('',(-337.85,101.6,-176.2125));
#1103=CARTESIAN_POINT('Origin',(-339.725,101.6,-176.2125));
#1104=CARTESIAN_POINT('Origin',(-425.45,0.,0.));
#1105=CARTESIAN_POINT('',(-425.45,0.,-176.2125));
#1106=CARTESIAN_POINT('',(-425.45,25.4,-176.2125));
#1107=CARTESIAN_POINT('',(-425.45,0.,-176.2125));
#1108=CARTESIAN_POINT('',(-425.45,25.4,-176.2125));
#1109=CARTESIAN_POINT('',(-425.45,104.775,-41.275));
#1110=CARTESIAN_POINT('',(-425.45,104.775,-182.5625));
#1111=CARTESIAN_POINT('',(-425.45,0.,-41.275));
#1112=CARTESIAN_POINT('',(-425.45,0.,-41.275));
#1113=CARTESIAN_POINT('',(-425.45,0.,-176.2125));
#1114=CARTESIAN_POINT('Origin',(-254.,0.,0.));
#1115=CARTESIAN_POINT('',(-254.,104.775,-41.275));
#1116=CARTESIAN_POINT('',(-254.,104.775,-41.275));
#1117=CARTESIAN_POINT('',(-254.,25.4,-176.2125));
#1118=CARTESIAN_POINT('',(-254.,0.,-41.275));
#1119=CARTESIAN_POINT('',(-254.,0.,-176.2125));
#1120=CARTESIAN_POINT('',(-254.,0.,-41.275));
#1121=CARTESIAN_POINT('Origin',(0.,104.775,0.));
#1122=CARTESIAN_POINT('',(-327.025,104.775,-176.2125));
#1123=CARTESIAN_POINT('',(-425.45,104.775,-41.275));
#1124=CARTESIAN_POINT('',(-352.425,104.775,-176.2125));
#1125=CARTESIAN_POINT('',(-339.725,104.775,-78.5));
#1126=CARTESIAN_POINT('Origin',(-339.725,104.775,-88.9));
#1127=CARTESIAN_POINT('Origin',(0.,3.175,0.));
#1128=CARTESIAN_POINT('',(-250.825,3.175,-69.8499999999999));
#1129=CARTESIAN_POINT('',(-228.6,3.175,-69.8499999999999));
#1130=CARTESIAN_POINT('',(-250.825,3.175,-69.8499999999999));
#1131=CARTESIAN_POINT('',(-250.825,3.175,-40.1000000000001));
#1132=CARTESIAN_POINT('',(-250.825,3.175,-40.1000000000001));
#1133=CARTESIAN_POINT('',(-252.825,3.175,-38.1));
#1134=CARTESIAN_POINT('',(-252.825,3.175,-38.1));
#1135=CARTESIAN_POINT('',(-228.6,3.175,-38.0999999999999));
#1136=CARTESIAN_POINT('',(-252.825,3.175,-38.0999999999999));
#1137=CARTESIAN_POINT('',(-228.6,3.175,-38.0999999999999));
#1138=CARTESIAN_POINT('',(-241.3,3.175,-56.975));
#1139=CARTESIAN_POINT('Origin',(-241.3,3.175,-53.975));
#1140=CARTESIAN_POINT('Origin',(0.,3.175,0.));
#1141=CARTESIAN_POINT('',(-450.85,3.175,-69.8499999999999));
#1142=CARTESIAN_POINT('',(-428.625,3.175,-69.8499999999999));
#1143=CARTESIAN_POINT('',(-450.85,3.175,-69.8499999999999));
#1144=CARTESIAN_POINT('',(-450.85,3.175,-38.0999999999999));
#1145=CARTESIAN_POINT('',(-450.85,3.175,-69.8499999999999));
#1146=CARTESIAN_POINT('',(-426.625,3.175,-38.1));
#1147=CARTESIAN_POINT('',(-450.85,3.175,-38.0999999999999));
#1148=CARTESIAN_POINT('',(-428.625,3.175,-40.1000000000001));
#1149=CARTESIAN_POINT('',(-426.625,3.175,-38.1));
#1150=CARTESIAN_POINT('',(-428.625,3.175,-40.1000000000001));
#1151=CARTESIAN_POINT('',(-438.15,3.175,-56.975));
#1152=CARTESIAN_POINT('Origin',(-438.15,3.175,-53.975));
#1153=CARTESIAN_POINT('Origin',(0.,0.,0.));
#1154=CARTESIAN_POINT('',(-419.1,0.,-176.2125));
#1155=CARTESIAN_POINT('',(-419.1,0.,-176.2125));
#1156=CARTESIAN_POINT('',(-425.45,0.,-176.2125));
#1157=CARTESIAN_POINT('',(-425.45,0.,-41.275));
#1158=CARTESIAN_POINT('',(-260.35,0.,-176.2125));
#1159=CARTESIAN_POINT('',(-250.825,0.,-69.8499999999999));
#1160=CARTESIAN_POINT('',(-250.825,0.,-182.5625));
#1161=CARTESIAN_POINT('',(-228.6,0.,-69.8499999999999));
#1162=CARTESIAN_POINT('',(-250.825,0.,-69.8499999999999));
#1163=CARTESIAN_POINT('',(-228.6,0.,-38.0999999999999));
#1164=CARTESIAN_POINT('',(-228.6,0.,-38.0999999999999));
#1165=CARTESIAN_POINT('',(-450.85,0.,-38.0999999999999));
#1166=CARTESIAN_POINT('',(-450.85,0.,-38.0999999999999));
#1167=CARTESIAN_POINT('',(-450.85,0.,-69.8499999999999));
#1168=CARTESIAN_POINT('',(-450.85,0.,-69.8499999999999));
#1169=CARTESIAN_POINT('',(-428.625,0.,-69.8499999999999));
#1170=CARTESIAN_POINT('',(-450.85,0.,-69.8499999999999));
#1171=CARTESIAN_POINT('',(-428.625,0.,-69.8499999999999));
#1172=CARTESIAN_POINT('',(-241.3,0.,-56.975));
#1173=CARTESIAN_POINT('Origin',(-241.3,0.,-53.975));
#1174=CARTESIAN_POINT('',(-438.15,0.,-56.975));
#1175=CARTESIAN_POINT('Origin',(-438.15,0.,-53.975));
#1176=CARTESIAN_POINT('Origin',(-450.85,0.,7.50722235698915E-14));
#1177=CARTESIAN_POINT('',(-450.85,0.,-69.8499999999999));
#1178=CARTESIAN_POINT('',(-450.85,0.,-38.0999999999999));
#1179=CARTESIAN_POINT('Origin',(-228.6,0.,0.));
#1180=CARTESIAN_POINT('',(-228.6,0.,-69.8499999999999));
#1181=CARTESIAN_POINT('',(-228.6,0.,-38.0999999999999));
#1182=CARTESIAN_POINT('Origin',(-438.15,0.,-53.975));
#1183=CARTESIAN_POINT('',(-438.15,0.,-56.975));
#1184=CARTESIAN_POINT('Origin',(-241.3,0.,-53.975));
#1185=CARTESIAN_POINT('',(-241.3,0.,-56.975));
#1186=CARTESIAN_POINT('Origin',(0.,0.,-41.275));
#1187=CARTESIAN_POINT('Origin',(0.,104.775,-38.1));
#1188=CARTESIAN_POINT('',(-426.625,105.95,-38.1));
#1189=CARTESIAN_POINT('',(-426.625,105.95,-38.1));
#1190=CARTESIAN_POINT('',(-252.825,105.95,-38.1));
#1191=CARTESIAN_POINT('',(-252.825,3.175,-38.1));
#1192=CARTESIAN_POINT('',(-252.825,105.95,-38.1));
#1193=CARTESIAN_POINT('Origin',(-250.825,104.775,0.));
#1194=CARTESIAN_POINT('',(-250.825,105.95,-40.1000000000001));
#1195=CARTESIAN_POINT('',(-250.825,105.95,-182.5625));
#1196=CARTESIAN_POINT('',(-250.825,105.95,-40.1000000000001));
#1197=CARTESIAN_POINT('',(-250.825,0.,-69.8499999999999));
#1198=CARTESIAN_POINT('Origin',(-428.625,104.775,0.));
#1199=CARTESIAN_POINT('',(-428.625,105.95,-40.1000000000001));
#1200=CARTESIAN_POINT('',(-428.625,3.175,-40.1000000000001));
#1201=CARTESIAN_POINT('',(-428.625,105.95,-40.1000000000001));
#1202=CARTESIAN_POINT('',(-428.625,0.,-69.8499999999999));
#1203=CARTESIAN_POINT('Origin',(0.,107.95,0.));
#1204=CARTESIAN_POINT('',(-426.625,107.95,-40.1000000000001));
#1205=CARTESIAN_POINT('',(-426.625,107.95,-182.5625));
#1206=CARTESIAN_POINT('',(-252.825,107.95,-40.1000000000001));
#1207=CARTESIAN_POINT('',(-426.625,107.95,-40.1000000000001));
#1208=CARTESIAN_POINT('',(-252.825,107.95,-40.1000000000001));
#1209=CARTESIAN_POINT('',(-339.725,107.95,-78.5));
#1210=CARTESIAN_POINT('Origin',(-339.725,107.95,-88.9));
#1211=CARTESIAN_POINT('Origin',(0.,0.,-69.8499999999999));
#1212=CARTESIAN_POINT('Origin',(0.,0.,-69.8499999999999));
#1213=CARTESIAN_POINT('Origin',(-339.725,128.3625,-88.9));
#1214=CARTESIAN_POINT('',(-339.725,128.3625,-78.5));
#1215=CARTESIAN_POINT('Origin',(-425.45,-171.56755229355,-176.2125));
#1216=CARTESIAN_POINT('',(-419.1,25.4,-176.2125));
#1217=CARTESIAN_POINT('',(-419.1,25.4,-176.2125));
#1218=CARTESIAN_POINT('',(-425.45,25.4,-176.2125));
#1219=CARTESIAN_POINT('',(-420.4,12.7,-176.2125));
#1220=CARTESIAN_POINT('Origin',(-422.275,12.7,-176.2125));
#1221=CARTESIAN_POINT('Origin',(-327.025,0.,24.7175951201686));
#1222=CARTESIAN_POINT('',(-327.025,98.425,-176.2125));
#1223=CARTESIAN_POINT('Origin',(0.,98.425,24.7175951201686));
#1224=CARTESIAN_POINT('',(-352.425,98.425,-176.2125));
#1225=CARTESIAN_POINT('Origin',(-352.425,0.,24.7175951201686));
#1226=CARTESIAN_POINT('Origin',(0.,25.4,24.7175951201686));
#1227=CARTESIAN_POINT('',(-419.1,25.4,-176.2125));
#1228=CARTESIAN_POINT('Origin',(-419.1,0.,24.7175951201686));
#1229=CARTESIAN_POINT('Origin',(-260.35,0.,24.7175951201686));
#1230=CARTESIAN_POINT('',(-260.35,25.4,-176.2125));
#1231=CARTESIAN_POINT('Origin',(0.,25.4,24.7175951201686));
#1232=CARTESIAN_POINT('Origin',(-257.175,12.7,24.7175951201686));
#1233=CARTESIAN_POINT('',(-255.3,12.7,24.7175951201686));
#1234=CARTESIAN_POINT('Origin',(-339.725,101.6,24.7175951201686));
#1235=CARTESIAN_POINT('',(-337.85,101.6,24.7175951201686));
#1236=CARTESIAN_POINT('Origin',(-422.275,12.7,24.7175951201686));
#1237=CARTESIAN_POINT('',(-420.4,12.7,24.7175951201686));
#1238=CARTESIAN_POINT('Origin',(-252.825,107.95,0.));
#1239=CARTESIAN_POINT('',(-250.825,105.95,-40.1000000000001));
#1240=CARTESIAN_POINT('Origin',(-250.825,104.775,-40.1000000000001));
#1241=CARTESIAN_POINT('',(-250.825,105.95,-40.1000000000001));
#1242=CARTESIAN_POINT('Origin',(-250.825,105.95,-40.1000000000001));
#1243=CARTESIAN_POINT('',(-252.825,107.95,-40.1000000000001));
#1244=CARTESIAN_POINT('Origin',(-426.625,107.95,0.));
#1245=CARTESIAN_POINT('',(-428.625,105.95,-40.1000000000001));
#1246=CARTESIAN_POINT('Origin',(0.,107.95,-40.1000000000001));
#1247=CARTESIAN_POINT('',(-426.625,105.95,-38.1));
#1248=CARTESIAN_POINT('Origin',(-428.625,105.95,-40.1000000000001));
#1249=CARTESIAN_POINT('',(-428.625,105.95,-40.1000000000001));
#1250=CARTESIAN_POINT('Origin',(-426.625,104.775,-38.1));
#1251=UNCERTAINTY_MEASURE_WITH_UNIT(LENGTH_MEASURE(0.01),#1255,
'DISTANCE_ACCURACY_VALUE',
'Maximum model space distance between geometric entities at asserted c
onnectivities');
#1252=UNCERTAINTY_MEASURE_WITH_UNIT(LENGTH_MEASURE(0.01),#1255,
'DISTANCE_ACCURACY_VALUE',
'Maximum model space distance between geometric entities at asserted c
onnectivities');
#1253=(
GEOMETRIC_REPRESENTATION_CONTEXT(3)
GLOBAL_UNCERTAINTY_ASSIGNED_CONTEXT((#1251))
GLOBAL_UNIT_ASSIGNED_CONTEXT((#1255,#1257,#1258))
REPRESENTATION_CONTEXT('','3D')
);
#1254=(
GEOMETRIC_REPRESENTATION_CONTEXT(3)
GLOBAL_UNCERTAINTY_ASSIGNED_CONTEXT((#1252))
GLOBAL_UNIT_ASSIGNED_CONTEXT((#1255,#1257,#1258))
REPRESENTATION_CONTEXT('','3D')
);
#1255=(
LENGTH_UNIT()
NAMED_UNIT(*)
SI_UNIT(.MILLI.,.METRE.)
);
#1256=(
LENGTH_UNIT()
NAMED_UNIT(*)
SI_UNIT($,.METRE.)
);
#1257=(
NAMED_UNIT(*)
PLANE_ANGLE_UNIT()
SI_UNIT($,.RADIAN.)
);
#1258=(
NAMED_UNIT(*)
SI_UNIT($,.STERADIAN.)
SOLID_ANGLE_UNIT()
);
#1259=SHAPE_DEFINITION_REPRESENTATION(#1260,#1261);
#1260=PRODUCT_DEFINITION_SHAPE('',$,#1263);
#1261=SHAPE_REPRESENTATION('',(#789),#1253);
#1262=PRODUCT_DEFINITION_CONTEXT('part definition',#1267,'design');
#1263=PRODUCT_DEFINITION('Enclosure cover 2','Enclosure cover 2 v1',#1264,
#1262);
#1264=PRODUCT_DEFINITION_FORMATION('',$,#1269);
#1265=PRODUCT_RELATED_PRODUCT_CATEGORY('Enclosure cover 2 v1',
'Enclosure cover 2 v1',(#1269));
#1266=APPLICATION_PROTOCOL_DEFINITION('international standard',
'automotive_design',2009,#1267);
#1267=APPLICATION_CONTEXT(
'Core Data for Automotive Mechanical Design Process');
#1268=PRODUCT_CONTEXT('part definition',#1267,'mechanical');
#1269=PRODUCT('Enclosure cover 2','Enclosure cover 2 v1',$,(#1268));
#1270=PRESENTATION_STYLE_ASSIGNMENT((#1271));
#1271=SURFACE_STYLE_USAGE(.BOTH.,#1272);
#1272=SURFACE_SIDE_STYLE('',(#1273));
#1273=SURFACE_STYLE_FILL_AREA(#1274);
#1274=FILL_AREA_STYLE('Steel - Satin',(#1275));
#1275=FILL_AREA_STYLE_COLOUR('Steel - Satin',#1276);
#1276=COLOUR_RGB('Steel - Satin',0.627450980392157,0.627450980392157,0.627450980392157);
ENDSEC;
END-ISO-10303-21;
