ISO-10303-21;
HEADER;
FILE_DESCRIPTION (( 'STEP AP203' ),
    '1' );
FILE_NAME ('Magnet Frame Mount.STEP',
    '2025-10-10T18:30:31',
    ( '' ),
    ( '' ),
    'SwSTEP 2.0',
    'SolidWorks 2025',
    '' );
FILE_SCHEMA (( 'CONFIG_CONTROL_DESIGN' ));
ENDSEC;

DATA;
#1 = VECTOR ( 'NONE', #347, 1000.000000000000000 ) ;
#2 = FACE_OUTER_BOUND ( 'NONE', #55, .T. ) ;
#3 = ORIENTED_EDGE ( 'NONE', *, *, #448, .T. ) ;
#4 = DATE_AND_TIME ( #499, #631 ) ;
#5 = ADVANCED_FACE ( 'NONE', ( #192, #630, #461, #131 ), #355, .F. ) ;
#6 = CARTESIAN_POINT ( 'NONE',  ( -11.00000000000000000, 0.000000000000000000, 20.00000000000000000 ) ) ;
#7 = ORIENTED_EDGE ( 'NONE', *, *, #646, .F. ) ;
#8 = VECTOR ( 'NONE', #300, 1000.000000000000000 ) ;
#9 = PERSON_AND_ORGANIZATION_ROLE ( 'classification_officer' ) ;
#10 = AXIS2_PLACEMENT_3D ( 'NONE', #95, #650, #648 ) ;
#11 = DIRECTION ( 'NONE',  ( 0.000000000000000000, 0.000000000000000000, -1.000000000000000000 ) ) ;
#12 = DIRECTION ( 'NONE',  ( 0.000000000000000000, 0.000000000000000000, 1.000000000000000000 ) ) ;
#13 = ORIENTED_EDGE ( 'NONE', *, *, #157, .F. ) ;
#14 = PLANE ( 'NONE',  #263 ) ;
#15 = CYLINDRICAL_SURFACE ( 'NONE', #120, 4.349999999999999645 ) ;
#16 = ADVANCED_FACE ( 'NONE', ( #178 ), #574, .F. ) ;
#17 = FACE_OUTER_BOUND ( 'NONE', #194, .T. ) ;
#18 = CYLINDRICAL_SURFACE ( 'NONE', #632, 2.600000000000000089 ) ;
#19 = AXIS2_PLACEMENT_3D ( 'NONE', #65, #683, #113 ) ;
#20 = PLANE ( 'NONE',  #137 ) ;
#21 = DIRECTION ( 'NONE',  ( 0.000000000000000000, 0.000000000000000000, -1.000000000000000000 ) ) ;
#22 = PERSON ( 'UNSPECIFIED', 'UNSPECIFIED', 'UNSPECIFIED', ('UNSPECIFIED'), ('UNSPECIFIED'), ('UNSPECIFIED') ) ;
#23 = AXIS2_PLACEMENT_3D ( 'NONE', #358, #244, #21 ) ;
#24 = CYLINDRICAL_SURFACE ( 'NONE', #127, 2.600000000000000089 ) ;
#25 = DIRECTION ( 'NONE',  ( 0.000000000000000000, 0.000000000000000000, -1.000000000000000000 ) ) ;
#26 = DIRECTION ( 'NONE',  ( 0.000000000000000000, -0.000000000000000000, 1.000000000000000000 ) ) ;
#27 = CC_DESIGN_PERSON_AND_ORGANIZATION_ASSIGNMENT ( #176, #124, ( #265 ) ) ;
#28 = ADVANCED_FACE ( 'NONE', ( #247 ), #18, .F. ) ;
#29 = CARTESIAN_POINT ( 'NONE',  ( -11.00000000000000000, 28.67500000000000071, 10.00000000000000178 ) ) ;
#30 = VERTEX_POINT ( 'NONE', #687 ) ;
#31 = DIRECTION ( 'NONE',  ( -1.000000000000000000, -0.000000000000000000, -0.000000000000000000 ) ) ;
#32 = CYLINDRICAL_SURFACE ( 'NONE', #572, 1.500000000000000000 ) ;
#33 = AXIS2_PLACEMENT_3D ( 'NONE', #306, #357, #315 ) ;
#34 = EDGE_LOOP ( 'NONE', ( #119, #532, #397, #564 ) ) ;
#35 = LOCAL_TIME ( 14, 30, 31.00000000000000000, #672 ) ;
#36 = DIRECTION ( 'NONE',  ( 0.000000000000000000, 0.000000000000000000, -1.000000000000000000 ) ) ;
#37 = ORIENTED_EDGE ( 'NONE', *, *, #388, .F. ) ;
#38 = EDGE_CURVE ( 'NONE', #585, #199, #569, .T. ) ;
#39 = CARTESIAN_POINT ( 'NONE',  ( 0.000000000000000000, 28.67500000000000071, 10.00000000000000178 ) ) ;
#40 = ORIENTED_EDGE ( 'NONE', *, *, #145, .F. ) ;
#41 = DESIGN_CONTEXT ( 'detailed design', #437, 'design' ) ;
#42 = PLANE ( 'NONE',  #329 ) ;
#43 = FACE_BOUND ( 'NONE', #501, .T. ) ;
#44 = CIRCLE ( 'NONE', #174, 2.600000000000000089 ) ;
#45 = EDGE_LOOP ( 'NONE', ( #671, #104, #493, #649 ) ) ;
#46 = CC_DESIGN_APPROVAL ( #50, ( #265 ) ) ;
#47 = CARTESIAN_POINT ( 'NONE',  ( -11.00000000000000000, 35.00000000000000000, 0.000000000000000000 ) ) ;
#48 = DIRECTION ( 'NONE',  ( 1.000000000000000000, 0.000000000000000000, 0.000000000000000000 ) ) ;
#49 = EDGE_LOOP ( 'NONE', ( #229, #636, #505, #662 ) ) ;
#50 = APPROVAL ( #551, 'UNSPECIFIED' ) ;
#51 = EDGE_CURVE ( 'NONE', #251, #260, #378, .T. ) ;
#52 = CARTESIAN_POINT ( 'NONE',  ( -1.499999999999999556, 35.00000000000000000, 20.00000000000000000 ) ) ;
#53 = VERTEX_POINT ( 'NONE', #519 ) ;
#54 = CARTESIAN_POINT ( 'NONE',  ( 0.000000000000000000, 33.50000000000000000, 18.50000000000000000 ) ) ;
#55 = EDGE_LOOP ( 'NONE', ( #97, #456 ) ) ;
#56 = COORDINATED_UNIVERSAL_TIME_OFFSET ( 5, 0, .BEHIND. ) ;
#57 = CARTESIAN_POINT ( 'NONE',  ( -1.500000000000000000, 0.000000000000000000, 20.00000000000000000 ) ) ;
#58 = ORIENTED_EDGE ( 'NONE', *, *, #537, .F. ) ;
#59 =( BOUNDED_CURVE ( )  B_SPLINE_CURVE ( 3, ( #126, #694, #235, #66 ),
 .UNSPECIFIED., .F., .F. ) 
 B_SPLINE_CURVE_WITH_KNOTS ( ( 4, 4 ),
 ( 2.891205793294676847E-16, 1.570796326794896558 ),
 .UNSPECIFIED. ) 
 CURVE ( )  GEOMETRIC_REPRESENTATION_ITEM ( )  RATIONAL_B_SPLINE_CURVE ( ( 1.000000000000000000, 0.8047378541243650485, 0.8047378541243650485, 1.000000000000000000 ) ) 
 REPRESENTATION_ITEM ( '' )  );
#60 = AXIS2_PLACEMENT_3D ( 'NONE', #464, #414, #682 ) ;
#61 = ADVANCED_FACE ( 'NONE', ( #297 ), #409, .F. ) ;
#62 = DIRECTION ( 'NONE',  ( 0.000000000000000000, 0.000000000000000000, 1.000000000000000000 ) ) ;
#63 = EDGE_LOOP ( 'NONE', ( #257, #303, #479, #13 ) ) ;
#64 = APPLICATION_PROTOCOL_DEFINITION ( 'international standard', 'config_control_design', 1994, #520 ) ;
#65 = CARTESIAN_POINT ( 'NONE',  ( -6.330000000000000071, 17.50000000000000000, 10.00000000000000000 ) ) ;
#66 = CARTESIAN_POINT ( 'NONE',  ( 0.000000000000000000, 33.50000000000000000, 1.500000000000000000 ) ) ;
#67 = ORIENTED_EDGE ( 'NONE', *, *, #167, .F. ) ;
#68 = VECTOR ( 'NONE', #26, 1000.000000000000000 ) ;
#69 = CALENDAR_DATE ( 2025, 10, 10 ) ;
#70 = DIRECTION ( 'NONE',  ( -0.000000000000000000, -0.000000000000000000, 1.000000000000000000 ) ) ;
#71 = FACE_OUTER_BOUND ( 'NONE', #365, .T. ) ;
#72 = VERTEX_POINT ( 'NONE', #638 ) ;
#73 = EDGE_CURVE ( 'NONE', #93, #72, #59, .T. ) ;
#74 = FACE_OUTER_BOUND ( 'NONE', #334, .T. ) ;
#75 = DIRECTION ( 'NONE',  ( 1.000000000000000000, 0.000000000000000000, 0.000000000000000000 ) ) ;
#76 = VERTEX_POINT ( 'NONE', #307 ) ;
#77 = CARTESIAN_POINT ( 'NONE',  ( -11.00000000000000000, 0.000000000000000000, 0.000000000000000000 ) ) ;
#78 = CARTESIAN_POINT ( 'NONE',  ( -1.500000000000000000, 0.000000000000000000, 18.50000000000000000 ) ) ;
#79 = ORIENTED_EDGE ( 'NONE', *, *, #612, .F. ) ;
#80 = AXIS2_PLACEMENT_3D ( 'NONE', #610, #484, #272 ) ;
#81 = DIRECTION ( 'NONE',  ( 1.000000000000000000, 0.000000000000000000, -0.000000000000000000 ) ) ;
#82 = DIRECTION ( 'NONE',  ( 0.000000000000000000, 0.000000000000000000, -1.000000000000000000 ) ) ;
#83 = EDGE_CURVE ( 'NONE', #240, #704, #123, .T. ) ;
#84 = ADVANCED_FACE ( 'NONE', ( #361 ), #402, .T. ) ;
#85 = AXIS2_PLACEMENT_3D ( 'NONE', #441, #31, #473 ) ;
#86 = CARTESIAN_POINT ( 'NONE',  ( -11.00000000000000000, 35.00000000000000000, 20.00000000000000000 ) ) ;
#87 = ORIENTED_EDGE ( 'NONE', *, *, #335, .T. ) ;
#88 = CARTESIAN_POINT ( 'NONE',  ( -11.00000000000000000, 17.50000000000000000, 5.150000000000002132 ) ) ;
#89 = DIRECTION ( 'NONE',  ( 1.000000000000000000, -0.000000000000000000, -0.000000000000000000 ) ) ;
#90 = EDGE_LOOP ( 'NONE', ( #79, #594 ) ) ;
#91 = CARTESIAN_POINT ( 'NONE',  ( -5.749833347273840857E-16, 0.6213203435596424962, 0.6213203435596424962 ) ) ;
#92 = ADVANCED_FACE ( 'NONE', ( #71 ), #15, .F. ) ;
#93 = VERTEX_POINT ( 'NONE', #185 ) ;
#94 = CIRCLE ( 'NONE', #222, 2.600000000000000089 ) ;
#95 = CARTESIAN_POINT ( 'NONE',  ( 0.000000000000000000, 6.325000000000001954, 10.00000000000000178 ) ) ;
#96 = EDGE_CURVE ( 'NONE', #240, #316, #141, .T. ) ;
#97 = ORIENTED_EDGE ( 'NONE', *, *, #438, .T. ) ;
#98 = CARTESIAN_POINT ( 'NONE',  ( -11.00000000000000000, 28.67500000000000071, 10.00000000000000178 ) ) ;
#99 = CYLINDRICAL_SURFACE ( 'NONE', #268, 1.500000000000000000 ) ;
#100 = ORIENTED_EDGE ( 'NONE', *, *, #691, .T. ) ;
#101 = DIRECTION ( 'NONE',  ( -1.000000000000000000, -0.000000000000000000, -0.000000000000000000 ) ) ;
#102 = DIRECTION ( 'NONE',  ( -0.000000000000000000, 1.000000000000000000, -0.000000000000000000 ) ) ;
#103 = VECTOR ( 'NONE', #508, 1000.000000000000000 ) ;
#104 = ORIENTED_EDGE ( 'NONE', *, *, #388, .T. ) ;
#105 = CIRCLE ( 'NONE', #353, 4.849999999999998757 ) ;
#106 = EDGE_CURVE ( 'NONE', #689, #93, #623, .T. ) ;
#107 = DIRECTION ( 'NONE',  ( 1.000000000000000000, -0.000000000000000000, -0.000000000000000000 ) ) ;
#108 = DIRECTION ( 'NONE',  ( -1.000000000000000000, 0.000000000000000000, 0.000000000000000000 ) ) ;
#109 = ORIENTED_EDGE ( 'NONE', *, *, #685, .T. ) ;
#110 = CARTESIAN_POINT ( 'NONE',  ( -11.00000000000000000, 6.325000000000001954, 10.00000000000000178 ) ) ;
#111 = VERTEX_POINT ( 'NONE', #182 ) ;
#112 = PERSON_AND_ORGANIZATION ( #22, #710 ) ;
#113 = DIRECTION ( 'NONE',  ( 0.000000000000000000, 0.000000000000000000, 1.000000000000000000 ) ) ;
#114 = EDGE_LOOP ( 'NONE', ( #538, #433, #450, #186 ) ) ;
#115 = EDGE_CURVE ( 'NONE', #266, #72, #238, .T. ) ;
#116 = CIRCLE ( 'NONE', #604, 4.349999999999999645 ) ;
#117 = CARTESIAN_POINT ( 'NONE',  ( 0.000000000000000000, 0.000000000000000000, 0.000000000000000000 ) ) ;
#118 = CARTESIAN_POINT ( 'NONE',  ( -11.00000000000000000, 6.325000000000001954, 7.400000000000001243 ) ) ;
#119 = ORIENTED_EDGE ( 'NONE', *, *, #335, .F. ) ;
#120 = AXIS2_PLACEMENT_3D ( 'NONE', #524, #635, #25 ) ;
#121 = CALENDAR_DATE ( 2025, 10, 10 ) ;
#122 = CARTESIAN_POINT ( 'NONE',  ( -5.000000000000000000, 28.67500000000000071, 10.00000000000000178 ) ) ;
#123 = LINE ( 'NONE', #135, #179 ) ;
#124 = PERSON_AND_ORGANIZATION_ROLE ( 'creator' ) ;
#125 = FACE_OUTER_BOUND ( 'NONE', #270, .T. ) ;
#126 = CARTESIAN_POINT ( 'NONE',  ( -1.499999999999999556, 35.00000000000000000, 0.000000000000000000 ) ) ;
#127 = AXIS2_PLACEMENT_3D ( 'NONE', #138, #364, #629 ) ;
#128 = EDGE_CURVE ( 'NONE', #76, #53, #424, .T. ) ;
#129 = CC_DESIGN_SECURITY_CLASSIFICATION ( #688, ( #265 ) ) ;
#130 = CARTESIAN_POINT ( 'NONE',  ( -11.00000000000000000, 28.67500000000000071, 7.400000000000002132 ) ) ;
#131 = FACE_BOUND ( 'NONE', #90, .T. ) ;
#132 = CYLINDRICAL_SURFACE ( 'NONE', #351, 2.600000000000000533 ) ;
#133 = DIRECTION ( 'NONE',  ( 1.000000000000000000, 0.000000000000000000, 0.000000000000000000 ) ) ;
#134 = DIRECTION ( 'NONE',  ( 0.000000000000000000, 0.000000000000000000, -1.000000000000000000 ) ) ;
#135 = CARTESIAN_POINT ( 'NONE',  ( -11.00000000000000000, 17.50000000000000000, 14.84999999999999787 ) ) ;
#136 = ADVANCED_FACE ( 'NONE', ( #151 ), #99, .T. ) ;
#137 = AXIS2_PLACEMENT_3D ( 'NONE', #197, #699, #587 ) ;
#138 = CARTESIAN_POINT ( 'NONE',  ( -11.00000000000000000, 28.67500000000000071, 10.00000000000000178 ) ) ;
#139 = AXIS2_PLACEMENT_3D ( 'NONE', #98, #429, #480 ) ;
#140 = DIRECTION ( 'NONE',  ( 0.000000000000000000, 0.000000000000000000, -1.000000000000000000 ) ) ;
#141 = CIRCLE ( 'NONE', #245, 4.849999999999998757 ) ;
#142 = LINE ( 'NONE', #77, #8 ) ;
#143 = VERTEX_POINT ( 'NONE', #269 ) ;
#144 = CARTESIAN_POINT ( 'NONE',  ( 0.000000000000000000, 6.325000000000002842, 14.35000000000000142 ) ) ;
#145 = EDGE_CURVE ( 'NONE', #76, #689, #602, .T. ) ;
#146 = CARTESIAN_POINT ( 'NONE',  ( -11.00000000000000000, 6.325000000000001954, 12.60000000000000320 ) ) ;
#147 = ORIENTED_EDGE ( 'NONE', *, *, #625, .T. ) ;
#148 = APPROVAL ( #616, 'UNSPECIFIED' ) ;
#149 = EDGE_CURVE ( 'NONE', #425, #600, #586, .T. ) ;
#150 = DIRECTION ( 'NONE',  ( 0.000000000000000000, 0.000000000000000000, -1.000000000000000000 ) ) ;
#151 = FACE_OUTER_BOUND ( 'NONE', #430, .T. ) ;
#152 = ORIENTED_EDGE ( 'NONE', *, *, #398, .T. ) ;
#153 = ORIENTED_EDGE ( 'NONE', *, *, #149, .T. ) ;
#154 = DIRECTION ( 'NONE',  ( 0.000000000000000000, 0.000000000000000000, -1.000000000000000000 ) ) ;
#155 = PLANE ( 'NONE',  #567 ) ;
#156 = VERTEX_POINT ( 'NONE', #469 ) ;
#157 = EDGE_CURVE ( 'NONE', #199, #93, #643, .T. ) ;
#158 = DIRECTION ( 'NONE',  ( 1.000000000000000000, 0.000000000000000000, 0.000000000000000000 ) ) ;
#159 = CARTESIAN_POINT ( 'NONE',  ( -5.000000000000000000, 6.325000000000002842, 14.35000000000000142 ) ) ;
#160 = AXIS2_PLACEMENT_3D ( 'NONE', #296, #413, #693 ) ;
#161 = ORIENTED_EDGE ( 'NONE', *, *, #655, .T. ) ;
#162 = CC_DESIGN_APPROVAL ( #590, ( #276 ) ) ;
#163 = CARTESIAN_POINT ( 'NONE',  ( 0.000000000000000000, 1.500000000000000000, 1.500000000000000000 ) ) ;
#164 = ORIENTED_EDGE ( 'NONE', *, *, #685, .F. ) ;
#165 = CIRCLE ( 'NONE', #368, 2.600000000000000533 ) ;
#166 = SHAPE_DEFINITION_REPRESENTATION ( #578, #582 ) ;
#167 = EDGE_CURVE ( 'NONE', #697, #156, #714, .T. ) ;
#168 = CYLINDRICAL_SURFACE ( 'NONE', #206, 1.500000000000000000 ) ;
#169 = ORIENTED_EDGE ( 'NONE', *, *, #299, .F. ) ;
#170 = APPLICATION_PROTOCOL_DEFINITION ( 'international standard', 'config_control_design', 1994, #437 ) ;
#171 = EDGE_CURVE ( 'NONE', #383, #585, #606, .T. ) ;
#172 = FACE_OUTER_BOUND ( 'NONE', #619, .T. ) ;
#173 = ORIENTED_EDGE ( 'NONE', *, *, #655, .F. ) ;
#174 = AXIS2_PLACEMENT_3D ( 'NONE', #29, #249, #686 ) ;
#175 = CIRCLE ( 'NONE', #510, 4.349999999999999645 ) ;
#176 = PERSON_AND_ORGANIZATION ( #22, #710 ) ;
#177 = CARTESIAN_POINT ( 'NONE',  ( -0.6213203435596424962, 34.99999999999999289, 20.00000000000000711 ) ) ;
#178 = FACE_OUTER_BOUND ( 'NONE', #391, .T. ) ;
#179 = VECTOR ( 'NONE', #458, 1000.000000000000000 ) ;
#180 = CALENDAR_DATE ( 2025, 10, 10 ) ;
#181 = FACE_OUTER_BOUND ( 'NONE', #547, .T. ) ;
#182 = CARTESIAN_POINT ( 'NONE',  ( -5.000000000000000000, 28.67500000000000071, 5.650000000000002132 ) ) ;
#183 = EDGE_CURVE ( 'NONE', #266, #53, #504, .T. ) ;
#184 = CARTESIAN_POINT ( 'NONE',  ( -5.749833347273840857E-16, 0.6213203435596424962, 19.37867965644035451 ) ) ;
#185 = CARTESIAN_POINT ( 'NONE',  ( -1.499999999999999556, 35.00000000000000000, 0.000000000000000000 ) ) ;
#186 = ORIENTED_EDGE ( 'NONE', *, *, #299, .T. ) ;
#187 = PLANE ( 'NONE',  #253 ) ;
#188 = CARTESIAN_POINT ( 'NONE',  ( 0.000000000000000000, 0.000000000000000000, 0.000000000000000000 ) ) ;
#189 = EDGE_LOOP ( 'NONE', ( #161, #695, #373, #330 ) ) ;
#190 = PRODUCT ( 'Magnet Frame Mount', 'Magnet Frame Mount', '', ( #669 ) ) ;
#191 = CARTESIAN_POINT ( 'NONE',  ( -5.000000000000000000, 28.67500000000000071, 7.400000000000002132 ) ) ;
#192 = FACE_OUTER_BOUND ( 'NONE', #189, .T. ) ;
#193 = DIRECTION ( 'NONE',  ( 1.000000000000000000, -0.000000000000000000, -0.000000000000000000 ) ) ;
#194 = EDGE_LOOP ( 'NONE', ( #419, #153, #446, #341 ) ) ;
#195 = CARTESIAN_POINT ( 'NONE',  ( 0.000000000000000000, 1.500000000000000000, 1.500000000000000000 ) ) ;
#196 = VECTOR ( 'NONE', #225, 1000.000000000000000 ) ;
#197 = CARTESIAN_POINT ( 'NONE',  ( -11.00000000000000000, 0.000000000000000000, 0.000000000000000000 ) ) ;
#198 = AXIS2_PLACEMENT_3D ( 'NONE', #117, #342, #506 ) ;
#199 = VERTEX_POINT ( 'NONE', #52 ) ;
#200 = LINE ( 'NONE', #118, #103 ) ;
#201 = DIRECTION ( 'NONE',  ( 0.000000000000000000, 0.000000000000000000, -1.000000000000000000 ) ) ;
#202 = ORIENTED_EDGE ( 'NONE', *, *, #287, .F. ) ;
#203 = EDGE_CURVE ( 'NONE', #30, #143, #165, .T. ) ;
#204 = CARTESIAN_POINT ( 'NONE',  ( -11.00000000000000000, 28.67500000000000071, 7.400000000000002132 ) ) ;
#205 = ORIENTED_EDGE ( 'NONE', *, *, #448, .F. ) ;
#206 = AXIS2_PLACEMENT_3D ( 'NONE', #228, #62, #346 ) ;
#207 = CYLINDRICAL_SURFACE ( 'NONE', #642, 4.349999999999998757 ) ;
#208 = VERTEX_POINT ( 'NONE', #490 ) ;
#209 =( BOUNDED_CURVE ( )  B_SPLINE_CURVE ( 3, ( #503, #177, #445, #282 ),
 .UNSPECIFIED., .F., .F. ) 
 B_SPLINE_CURVE_WITH_KNOTS ( ( 4, 4 ),
 ( 2.891205793294675368E-16, 1.570796326794896558 ),
 .UNSPECIFIED. ) 
 CURVE ( )  GEOMETRIC_REPRESENTATION_ITEM ( )  RATIONAL_B_SPLINE_CURVE ( ( 1.000000000000000000, 0.8047378541243650485, 0.8047378541243650485, 1.000000000000000000 ) ) 
 REPRESENTATION_ITEM ( '' )  );
#210 = CARTESIAN_POINT ( 'NONE',  ( -1.499999999999999556, 0.000000000000000000, 20.00000000000000000 ) ) ;
#211 = VECTOR ( 'NONE', #651, 1000.000000000000000 ) ;
#212 = ADVANCED_FACE ( 'NONE', ( #492 ), #213, .F. ) ;
#213 = CYLINDRICAL_SURFACE ( 'NONE', #363, 4.849999999999998757 ) ;
#214 = EDGE_LOOP ( 'NONE', ( #452, #588, #528, #202 ) ) ;
#215 = DIRECTION ( 'NONE',  ( 0.000000000000000000, 0.000000000000000000, -1.000000000000000000 ) ) ;
#216 = DIRECTION ( 'NONE',  ( 1.000000000000000000, 0.000000000000000000, 0.000000000000000000 ) ) ;
#217 = VERTEX_POINT ( 'NONE', #546 ) ;
#218 = PERSON_AND_ORGANIZATION ( #22, #710 ) ;
#219 = CARTESIAN_POINT ( 'NONE',  ( -5.000000000000000000, 6.325000000000001954, 5.650000000000003020 ) ) ;
#220 = AXIS2_PLACEMENT_3D ( 'NONE', #451, #254, #466 ) ;
#221 = ORIENTED_EDGE ( 'NONE', *, *, #416, .T. ) ;
#222 = AXIS2_PLACEMENT_3D ( 'NONE', #261, #101, #154 ) ;
#223 = EDGE_CURVE ( 'NONE', #704, #645, #241, .T. ) ;
#224 = PERSON_AND_ORGANIZATION ( #22, #710 ) ;
#225 = DIRECTION ( 'NONE',  ( -0.000000000000000000, -0.000000000000000000, 1.000000000000000000 ) ) ;
#226 = ORIENTED_EDGE ( 'NONE', *, *, #438, .F. ) ;
#227 = EDGE_CURVE ( 'NONE', #425, #111, #116, .T. ) ;
#228 = CARTESIAN_POINT ( 'NONE',  ( -1.500000000000000000, 1.500000000000000000, 0.000000000000000000 ) ) ;
#229 = ORIENTED_EDGE ( 'NONE', *, *, #51, .F. ) ;
#230 = LINE ( 'NONE', #57, #196 ) ;
#231 = ORIENTED_EDGE ( 'NONE', *, *, #565, .T. ) ;
#232 = CIRCLE ( 'NONE', #33, 2.600000000000000533 ) ;
#233 = DATE_TIME_ROLE ( 'classification_date' ) ;
#234 = EDGE_CURVE ( 'NONE', #316, #645, #661, .T. ) ;
#235 = CARTESIAN_POINT ( 'NONE',  ( -4.874844804309807125E-16, 34.37867965644034740, 0.6213203435596428292 ) ) ;
#236 = ORIENTED_EDGE ( 'NONE', *, *, #366, .F. ) ;
#237 = CARTESIAN_POINT ( 'NONE',  ( -5.000000000000000000, 6.325000000000001954, 10.00000000000000178 ) ) ;
#238 = LINE ( 'NONE', #684, #525 ) ;
#239 = CARTESIAN_POINT ( 'NONE',  ( -11.00000000000000000, 28.67500000000000071, 12.60000000000000142 ) ) ;
#240 = VERTEX_POINT ( 'NONE', #666 ) ;
#241 = CIRCLE ( 'NONE', #80, 4.849999999999998757 ) ;
#242 = ADVANCED_FACE ( 'NONE', ( #252, #43, #420 ), #155, .T. ) ;
#243 = CARTESIAN_POINT ( 'NONE',  ( -5.000000000000000000, 6.325000000000001954, 5.650000000000003020 ) ) ;
#244 = DIRECTION ( 'NONE',  ( 1.000000000000000000, 0.000000000000000000, 0.000000000000000000 ) ) ;
#245 = AXIS2_PLACEMENT_3D ( 'NONE', #516, #133, #677 ) ;
#246 = FACE_OUTER_BOUND ( 'NONE', #63, .T. ) ;
#247 = FACE_OUTER_BOUND ( 'NONE', #421, .T. ) ;
#248 = VERTEX_POINT ( 'NONE', #144 ) ;
#249 = DIRECTION ( 'NONE',  ( 1.000000000000000000, 0.000000000000000000, 0.000000000000000000 ) ) ;
#250 = CARTESIAN_POINT ( 'NONE',  ( -11.00000000000000000, 0.000000000000000000, 0.000000000000000000 ) ) ;
#251 = VERTEX_POINT ( 'NONE', #159 ) ;
#252 = FACE_BOUND ( 'NONE', #497, .T. ) ;
#253 = AXIS2_PLACEMENT_3D ( 'NONE', #354, #573, #81 ) ;
#254 = DIRECTION ( 'NONE',  ( -1.000000000000000000, 0.000000000000000000, -0.000000000000000000 ) ) ;
#255 = LOCAL_TIME ( 14, 30, 31.00000000000000000, #274 ) ;
#256 = EDGE_CURVE ( 'NONE', #377, #709, #702, .T. ) ;
#257 = ORIENTED_EDGE ( 'NONE', *, *, #366, .T. ) ;
#258 = CLOSED_SHELL ( 'NONE', ( #512, #634, #212, #61, #28, #543, #522, #16, #477, #467, #498, #721, #242, #5, #428, #302, #668, #345, #92, #84, #356, #577, #136 ) ) ;
#259 = CARTESIAN_POINT ( 'NONE',  ( -5.000000000000000000, 6.325000000000001954, 10.00000000000000178 ) ) ;
#260 = VERTEX_POINT ( 'NONE', #219 ) ;
#261 = CARTESIAN_POINT ( 'NONE',  ( -5.000000000000000000, 28.67500000000000071, 10.00000000000000178 ) ) ;
#262 = EDGE_LOOP ( 'NONE', ( #40, #350, #550, #169 ) ) ;
#263 = AXIS2_PLACEMENT_3D ( 'NONE', #237, #343, #495 ) ;
#264 = CARTESIAN_POINT ( 'NONE',  ( -1.499999999999999556, 0.000000000000000000, 0.000000000000000000 ) ) ;
#265 = PRODUCT_DEFINITION_FORMATION_WITH_SPECIFIED_SOURCE ( 'ANY', '', #190, .NOT_KNOWN. ) ;
#266 = VERTEX_POINT ( 'NONE', #163 ) ;
#267 = CYLINDRICAL_SURFACE ( 'NONE', #483, 4.349999999999998757 ) ;
#268 = AXIS2_PLACEMENT_3D ( 'NONE', #596, #333, #712 ) ;
#269 = CARTESIAN_POINT ( 'NONE',  ( -11.00000000000000000, 6.325000000000001954, 12.60000000000000320 ) ) ;
#270 = EDGE_LOOP ( 'NONE', ( #221, #553, #603, #173 ) ) ;
#271 = DIRECTION ( 'NONE',  ( 0.000000000000000000, 0.000000000000000000, -1.000000000000000000 ) ) ;
#272 = DIRECTION ( 'NONE',  ( 0.000000000000000000, 0.000000000000000000, -1.000000000000000000 ) ) ;
#273 = ORIENTED_EDGE ( 'NONE', *, *, #73, .T. ) ;
#274 = COORDINATED_UNIVERSAL_TIME_OFFSET ( 5, 0, .BEHIND. ) ;
#275 = LINE ( 'NONE', #288, #700 ) ;
#276 = PRODUCT_DEFINITION ( 'UNKNOWN', '', #265, #41 ) ;
#277 = ORIENTED_EDGE ( 'NONE', *, *, #171, .F. ) ;
#278 = CARTESIAN_POINT ( 'NONE',  ( -6.330000000000000071, 17.50000000000000000, 5.150000000000002132 ) ) ;
#279 = ORIENTED_EDGE ( 'NONE', *, *, #459, .T. ) ;
#280 =( BOUNDED_CURVE ( )  B_SPLINE_CURVE ( 3, ( #449, #184, #401, #724 ),
 .UNSPECIFIED., .F., .T. ) 
 B_SPLINE_CURVE_WITH_KNOTS ( ( 4, 4 ),
 ( 1.570796326794896780, 3.141592653589793116 ),
 .UNSPECIFIED. ) 
 CURVE ( )  GEOMETRIC_REPRESENTATION_ITEM ( )  RATIONAL_B_SPLINE_CURVE ( ( 1.000000000000000000, 0.8047378541243650485, 0.8047378541243650485, 1.000000000000000000 ) ) 
 REPRESENTATION_ITEM ( '' )  );
#281 = APPROVAL_DATE_TIME ( #4, #590 ) ;
#282 = CARTESIAN_POINT ( 'NONE',  ( 0.000000000000000000, 33.50000000000000000, 18.50000000000000000 ) ) ;
#283 = ORIENTED_EDGE ( 'NONE', *, *, #531, .T. ) ;
#284 = CC_DESIGN_PERSON_AND_ORGANIZATION_ASSIGNMENT ( #400, #620, ( #265 ) ) ;
#285 = EDGE_CURVE ( 'NONE', #72, #377, #390, .T. ) ;
#286 = APPROVAL_DATE_TIME ( #626, #50 ) ;
#287 = EDGE_CURVE ( 'NONE', #30, #156, #200, .T. ) ;
#288 = CARTESIAN_POINT ( 'NONE',  ( -11.00000000000000000, 28.67500000000000071, 12.60000000000000142 ) ) ;
#289 = CARTESIAN_POINT ( 'NONE',  ( -11.00000000000000000, 28.67500000000000071, 10.00000000000000178 ) ) ;
#290 = VECTOR ( 'NONE', #673, 1000.000000000000000 ) ;
#291 = AXIS2_PLACEMENT_3D ( 'NONE', #601, #595, #36 ) ;
#292 = APPROVAL_DATE_TIME ( #679, #148 ) ;
#293 = CARTESIAN_POINT ( 'NONE',  ( -11.00000000000000000, 0.000000000000000000, 20.00000000000000000 ) ) ;
#294 = DIRECTION ( 'NONE',  ( 0.000000000000000000, 0.000000000000000000, 1.000000000000000000 ) ) ;
#295 = ORIENTED_EDGE ( 'NONE', *, *, #376, .T. ) ;
#296 = CARTESIAN_POINT ( 'NONE',  ( -11.00000000000000000, 35.00000000000000000, 0.000000000000000000 ) ) ;
#297 = FACE_OUTER_BOUND ( 'NONE', #214, .T. ) ;
#298 = ORIENTED_EDGE ( 'NONE', *, *, #612, .T. ) ;
#299 = EDGE_CURVE ( 'NONE', #689, #556, #618, .T. ) ;
#300 = DIRECTION ( 'NONE',  ( -0.000000000000000000, -0.000000000000000000, -1.000000000000000000 ) ) ;
#301 = DIRECTION ( 'NONE',  ( -1.000000000000000000, 0.000000000000000000, 0.000000000000000000 ) ) ;
#302 = ADVANCED_FACE ( 'NONE', ( #2, #349 ), #14, .T. ) ;
#303 = ORIENTED_EDGE ( 'NONE', *, *, #285, .F. ) ;
#304 = AXIS2_PLACEMENT_3D ( 'NONE', #460, #411, #523 ) ;
#305 = VECTOR ( 'NONE', #319, 1000.000000000000000 ) ;
#306 = CARTESIAN_POINT ( 'NONE',  ( -5.000000000000000000, 6.325000000000001954, 10.00000000000000178 ) ) ;
#307 = CARTESIAN_POINT ( 'NONE',  ( -11.00000000000000000, 0.000000000000000000, 0.000000000000000000 ) ) ;
#308 = DIRECTION ( 'NONE',  ( 0.000000000000000000, 0.000000000000000000, -1.000000000000000000 ) ) ;
#309 = VECTOR ( 'NONE', #526, 1000.000000000000000 ) ;
#310 = CARTESIAN_POINT ( 'NONE',  ( -11.00000000000000000, 35.00000000000000000, 20.00000000000000000 ) ) ;
#311 = ORIENTED_EDGE ( 'NONE', *, *, #376, .F. ) ;
#312 = CARTESIAN_POINT ( 'NONE',  ( -5.000000000000000000, 28.67500000000000071, 14.35000000000000142 ) ) ;
#313 = CC_DESIGN_PERSON_AND_ORGANIZATION_ASSIGNMENT ( #218, #394, ( #190 ) ) ;
#314 = EDGE_CURVE ( 'NONE', #600, #208, #580, .T. ) ;
#315 = DIRECTION ( 'NONE',  ( 0.000000000000000000, 0.000000000000000000, -1.000000000000000000 ) ) ;
#316 = VERTEX_POINT ( 'NONE', #278 ) ;
#317 = CARTESIAN_POINT ( 'NONE',  ( -11.00000000000000000, 6.325000000000001954, 10.00000000000000178 ) ) ;
#318 = AXIS2_PLACEMENT_3D ( 'NONE', #122, #627, #11 ) ;
#319 = DIRECTION ( 'NONE',  ( 0.000000000000000000, 0.000000000000000000, -1.000000000000000000 ) ) ;
#320 = APPROVAL_PERSON_ORGANIZATION ( #224, #50, #608 ) ;
#321 = EDGE_LOOP ( 'NONE', ( #560, #362, #406, #485 ) ) ;
#322 = LINE ( 'NONE', #146, #386 ) ;
#323 = ORIENTED_EDGE ( 'NONE', *, *, #324, .T. ) ;
#324 = EDGE_CURVE ( 'NONE', #143, #30, #507, .T. ) ;
#325 = UNCERTAINTY_MEASURE_WITH_UNIT (LENGTH_MEASURE( 1.000000000000000082E-05 ), #592, 'distance_accuracy_value', 'NONE');
#326 = FACE_OUTER_BOUND ( 'NONE', #49, .T. ) ;
#327 = ORIENTED_EDGE ( 'NONE', *, *, #227, .T. ) ;
#328 = CARTESIAN_POINT ( 'NONE',  ( -11.00000000000000000, 0.000000000000000000, 20.00000000000000000 ) ) ;
#329 = AXIS2_PLACEMENT_3D ( 'NONE', #605, #707, #548 ) ;
#330 = ORIENTED_EDGE ( 'NONE', *, *, #256, .T. ) ;
#331 = CARTESIAN_POINT ( 'NONE',  ( 0.000000000000000000, 17.50000000000000000, 5.150000000000002132 ) ) ;
#332 = EDGE_CURVE ( 'NONE', #111, #208, #568, .T. ) ;
#333 = DIRECTION ( 'NONE',  ( 0.000000000000000000, -1.000000000000000000, 0.000000000000000000 ) ) ;
#334 = EDGE_LOOP ( 'NONE', ( #407, #659, #277, #720 ) ) ;
#335 = EDGE_CURVE ( 'NONE', #436, #393, #275, .T. ) ;
#336 = FACE_BOUND ( 'NONE', #337, .T. ) ;
#337 = EDGE_LOOP ( 'NONE', ( #701, #100 ) ) ;
#338 = DATE_AND_TIME ( #69, #617 ) ;
#339 = AXIS2_PLACEMENT_3D ( 'NONE', #110, #562, #405 ) ;
#340 = LINE ( 'NONE', #670, #426 ) ;
#341 = ORIENTED_EDGE ( 'NONE', *, *, #332, .F. ) ;
#342 = DIRECTION ( 'NONE',  ( 0.000000000000000000, 0.000000000000000000, 1.000000000000000000 ) ) ;
#343 = DIRECTION ( 'NONE',  ( 1.000000000000000000, 0.000000000000000000, 0.000000000000000000 ) ) ;
#344 = EDGE_LOOP ( 'NONE', ( #583, #674 ) ) ;
#345 = ADVANCED_FACE ( 'NONE', ( #181, #336 ), #454, .T. ) ;
#346 = DIRECTION ( 'NONE',  ( 1.000000000000000000, 0.000000000000000000, 0.000000000000000000 ) ) ;
#347 = DIRECTION ( 'NONE',  ( 0.000000000000000000, 1.000000000000000000, -0.000000000000000000 ) ) ;
#348 = PERSON_AND_ORGANIZATION ( #22, #710 ) ;
#349 = FACE_BOUND ( 'NONE', #471, .T. ) ;
#350 = ORIENTED_EDGE ( 'NONE', *, *, #557, .F. ) ;
#351 = AXIS2_PLACEMENT_3D ( 'NONE', #637, #575, #470 ) ;
#352 = ORIENTED_EDGE ( 'NONE', *, *, #183, .T. ) ;
#353 = AXIS2_PLACEMENT_3D ( 'NONE', #431, #718, #372 ) ;
#354 = CARTESIAN_POINT ( 'NONE',  ( -11.00000000000000000, 0.000000000000000000, 20.00000000000000000 ) ) ;
#355 = PLANE ( 'NONE',  #465 ) ;
#356 = ADVANCED_FACE ( 'NONE', ( #125 ), #168, .T. ) ;
#357 = DIRECTION ( 'NONE',  ( -1.000000000000000000, -0.000000000000000000, -0.000000000000000000 ) ) ;
#358 = CARTESIAN_POINT ( 'NONE',  ( -11.00000000000000000, 17.50000000000000000, 10.00000000000000000 ) ) ;
#359 = EDGE_LOOP ( 'NONE', ( #58, #226, #231, #147 ) ) ;
#360 = CYLINDRICAL_SURFACE ( 'NONE', #663, 4.349999999999999645 ) ;
#361 = FACE_OUTER_BOUND ( 'NONE', #713, .T. ) ;
#362 = ORIENTED_EDGE ( 'NONE', *, *, #83, .T. ) ;
#363 = AXIS2_PLACEMENT_3D ( 'NONE', #716, #48, #140 ) ;
#364 = DIRECTION ( 'NONE',  ( 1.000000000000000000, 0.000000000000000000, 0.000000000000000000 ) ) ;
#365 = EDGE_LOOP ( 'NONE', ( #667, #205, #639, #607 ) ) ;
#366 = EDGE_CURVE ( 'NONE', #199, #377, #209, .T. ) ;
#367 = CARTESIAN_POINT ( 'NONE',  ( -11.00000000000000000, 0.000000000000000000, 0.000000000000000000 ) ) ;
#368 = AXIS2_PLACEMENT_3D ( 'NONE', #317, #432, #382 ) ;
#369 = LINE ( 'NONE', #243, #533 ) ;
#370 = EDGE_LOOP ( 'NONE', ( #387, #462, #443, #67 ) ) ;
#371 = CARTESIAN_POINT ( 'NONE',  ( -11.00000000000000000, 35.00000000000000000, 0.000000000000000000 ) ) ;
#372 = DIRECTION ( 'NONE',  ( 0.000000000000000000, 0.000000000000000000, -1.000000000000000000 ) ) ;
#373 = ORIENTED_EDGE ( 'NONE', *, *, #285, .T. ) ;
#374 = DIRECTION ( 'NONE',  ( -1.000000000000000000, 0.000000000000000000, 0.000000000000000000 ) ) ;
#375 =( GEOMETRIC_REPRESENTATION_CONTEXT ( 3 ) GLOBAL_UNCERTAINTY_ASSIGNED_CONTEXT ( ( #325 ) ) GLOBAL_UNIT_ASSIGNED_CONTEXT ( ( #592, #654, #379 ) ) REPRESENTATION_CONTEXT ( 'NONE', 'WORKASPACE' ) );
#376 = EDGE_CURVE ( 'NONE', #316, #240, #472, .T. ) ;
#377 = VERTEX_POINT ( 'NONE', #54 ) ;
#378 = CIRCLE ( 'NONE', #60, 4.349999999999998757 ) ;
#379 =( NAMED_UNIT ( * ) SI_UNIT ( $, .STERADIAN. ) SOLID_ANGLE_UNIT ( ) );
#380 = ORIENTED_EDGE ( 'NONE', *, *, #171, .T. ) ;
#381 = CARTESIAN_POINT ( 'NONE',  ( 0.000000000000000000, 1.500000000000000000, 18.50000000000000000 ) ) ;
#382 = DIRECTION ( 'NONE',  ( 0.000000000000000000, 0.000000000000000000, -1.000000000000000000 ) ) ;
#383 = VERTEX_POINT ( 'NONE', #293 ) ;
#384 = CARTESIAN_POINT ( 'NONE',  ( 0.000000000000000000, 17.50000000000000000, 14.84999999999999787 ) ) ;
#385 = CARTESIAN_POINT ( 'NONE',  ( 0.000000000000000000, 0.000000000000000000, 18.50000000000000000 ) ) ;
#386 = VECTOR ( 'NONE', #158, 1000.000000000000000 ) ;
#387 = ORIENTED_EDGE ( 'NONE', *, *, #678, .F. ) ;
#388 = EDGE_CURVE ( 'NONE', #93, #53, #340, .T. ) ;
#389 = DATE_TIME_ROLE ( 'creation_date' ) ;
#390 = LINE ( 'NONE', #647, #68 ) ;
#391 = EDGE_LOOP ( 'NONE', ( #614, #311, #653, #298 ) ) ;
#392 = CARTESIAN_POINT ( 'NONE',  ( -5.000000000000000000, 28.67500000000000071, 12.60000000000000142 ) ) ;
#393 = VERTEX_POINT ( 'NONE', #392 ) ;
#394 = PERSON_AND_ORGANIZATION_ROLE ( 'design_owner' ) ;
#395 = AXIS2_PLACEMENT_3D ( 'NONE', #517, #579, #640 ) ;
#396 = PLANE ( 'NONE',  #220 ) ;
#397 = ORIENTED_EDGE ( 'NONE', *, *, #646, .T. ) ;
#398 = EDGE_CURVE ( 'NONE', #556, #383, #676, .T. ) ;
#399 = APPROVAL_PERSON_ORGANIZATION ( #112, #148, #453 ) ;
#400 = PERSON_AND_ORGANIZATION ( #22, #710 ) ;
#401 = CARTESIAN_POINT ( 'NONE',  ( -0.6213203435596424962, 3.244476573706588632E-16, 20.00000000000000711 ) ) ;
#402 = CYLINDRICAL_SURFACE ( 'NONE', #692, 1.500000000000001332 ) ;
#403 = VECTOR ( 'NONE', #102, 1000.000000000000000 ) ;
#404 = PERSON_AND_ORGANIZATION_ROLE ( 'creator' ) ;
#405 = DIRECTION ( 'NONE',  ( 0.000000000000000000, 0.000000000000000000, -1.000000000000000000 ) ) ;
#406 = ORIENTED_EDGE ( 'NONE', *, *, #223, .T. ) ;
#407 = ORIENTED_EDGE ( 'NONE', *, *, #128, .T. ) ;
#408 = DIRECTION ( 'NONE',  ( 0.000000000000000000, 0.000000000000000000, -1.000000000000000000 ) ) ;
#409 = CYLINDRICAL_SURFACE ( 'NONE', #598, 2.600000000000000533 ) ;
#410 = VECTOR ( 'NONE', #599, 1000.000000000000000 ) ;
#411 = DIRECTION ( 'NONE',  ( 1.000000000000000000, 0.000000000000000000, 0.000000000000000000 ) ) ;
#412 = ORIENTED_EDGE ( 'NONE', *, *, #416, .F. ) ;
#413 = DIRECTION ( 'NONE',  ( 0.000000000000000000, 0.000000000000000000, -1.000000000000000000 ) ) ;
#414 = DIRECTION ( 'NONE',  ( 1.000000000000000000, 0.000000000000000000, 0.000000000000000000 ) ) ;
#415 = FACE_OUTER_BOUND ( 'NONE', #468, .T. ) ;
#416 = EDGE_CURVE ( 'NONE', #709, #585, #280, .T. ) ;
#417 = VECTOR ( 'NONE', #703, 1000.000000000000000 ) ;
#418 = DIRECTION ( 'NONE',  ( 1.000000000000000000, -0.000000000000000000, -0.000000000000000000 ) ) ;
#419 = ORIENTED_EDGE ( 'NONE', *, *, #227, .F. ) ;
#420 = FACE_OUTER_BOUND ( 'NONE', #262, .T. ) ;
#421 = EDGE_LOOP ( 'NONE', ( #164, #87, #476, #7 ) ) ;
#422 = EDGE_CURVE ( 'NONE', #53, #585, #230, .T. ) ;
#423 = FACE_OUTER_BOUND ( 'NONE', #359, .T. ) ;
#424 = LINE ( 'NONE', #250, #211 ) ;
#425 = VERTEX_POINT ( 'NONE', #622 ) ;
#426 = VECTOR ( 'NONE', #513, 1000.000000000000000 ) ;
#427 = PRODUCT_RELATED_PRODUCT_CATEGORY ( 'detail', '', ( #190 ) ) ;
#428 = ADVANCED_FACE ( 'NONE', ( #172 ), #396, .F. ) ;
#429 = DIRECTION ( 'NONE',  ( 1.000000000000000000, 0.000000000000000000, 0.000000000000000000 ) ) ;
#430 = EDGE_LOOP ( 'NONE', ( #352, #37, #273, #725 ) ) ;
#431 = CARTESIAN_POINT ( 'NONE',  ( 0.000000000000000000, 17.50000000000000000, 10.00000000000000000 ) ) ;
#432 = DIRECTION ( 'NONE',  ( 1.000000000000000000, 0.000000000000000000, 0.000000000000000000 ) ) ;
#433 = ORIENTED_EDGE ( 'NONE', *, *, #157, .T. ) ;
#434 = LINE ( 'NONE', #204, #410 ) ;
#435 = DIRECTION ( 'NONE',  ( 0.000000000000000000, 0.000000000000000000, 1.000000000000000000 ) ) ;
#436 = VERTEX_POINT ( 'NONE', #239 ) ;
#437 = APPLICATION_CONTEXT ( 'configuration controlled 3d designs of mechanical parts and assemblies' ) ;
#438 = EDGE_CURVE ( 'NONE', #260, #251, #482, .T. ) ;
#439 = VECTOR ( 'NONE', #70, 1000.000000000000000 ) ;
#440 = COORDINATED_UNIVERSAL_TIME_OFFSET ( 5, 0, .BEHIND. ) ;
#441 = CARTESIAN_POINT ( 'NONE',  ( -5.000000000000000000, 6.325000000000001954, 10.00000000000000178 ) ) ;
#442 = CIRCLE ( 'NONE', #10, 4.349999999999998757 ) ;
#443 = ORIENTED_EDGE ( 'NONE', *, *, #287, .T. ) ;
#444 = CALENDAR_DATE ( 2025, 10, 10 ) ;
#445 = CARTESIAN_POINT ( 'NONE',  ( -4.874844804309807125E-16, 34.37867965644034740, 19.37867965644035451 ) ) ;
#446 = ORIENTED_EDGE ( 'NONE', *, *, #314, .T. ) ;
#447 = APPROVAL_STATUS ( 'not_yet_approved' ) ;
#448 = EDGE_CURVE ( 'NONE', #111, #425, #708, .T. ) ;
#449 = CARTESIAN_POINT ( 'NONE',  ( 0.000000000000000000, 1.500000000000000000, 18.50000000000000000 ) ) ;
#450 = ORIENTED_EDGE ( 'NONE', *, *, #106, .F. ) ;
#451 = CARTESIAN_POINT ( 'NONE',  ( -6.330000000000000071, 0.000000000000000000, 0.000000000000000000 ) ) ;
#452 = ORIENTED_EDGE ( 'NONE', *, *, #324, .F. ) ;
#453 = APPROVAL_ROLE ( '' ) ;
#454 = PLANE ( 'NONE',  #318 ) ;
#455 = DIRECTION ( 'NONE',  ( 1.000000000000000000, 0.000000000000000000, 0.000000000000000000 ) ) ;
#456 = ORIENTED_EDGE ( 'NONE', *, *, #51, .T. ) ;
#457 = DIRECTION ( 'NONE',  ( -0.000000000000000000, -1.000000000000000000, -0.000000000000000000 ) ) ;
#458 = DIRECTION ( 'NONE',  ( 1.000000000000000000, 0.000000000000000000, 0.000000000000000000 ) ) ;
#459 = EDGE_CURVE ( 'NONE', #481, #436, #44, .T. ) ;
#460 = CARTESIAN_POINT ( 'NONE',  ( -5.000000000000000000, 6.325000000000001954, 10.00000000000000178 ) ) ;
#461 = FACE_BOUND ( 'NONE', #511, .T. ) ;
#462 = ORIENTED_EDGE ( 'NONE', *, *, #203, .F. ) ;
#463 = FACE_OUTER_BOUND ( 'NONE', #45, .T. ) ;
#464 = CARTESIAN_POINT ( 'NONE',  ( -5.000000000000000000, 6.325000000000001954, 10.00000000000000178 ) ) ;
#465 = AXIS2_PLACEMENT_3D ( 'NONE', #188, #301, #12 ) ;
#466 = DIRECTION ( 'NONE',  ( -0.000000000000000000, 0.000000000000000000, 1.000000000000000000 ) ) ;
#467 = ADVANCED_FACE ( 'NONE', ( #74 ), #20, .T. ) ;
#468 = EDGE_LOOP ( 'NONE', ( #380, #597, #611, #152 ) ) ;
#469 = CARTESIAN_POINT ( 'NONE',  ( -5.000000000000000000, 6.325000000000001954, 7.400000000000001243 ) ) ;
#470 = DIRECTION ( 'NONE',  ( 0.000000000000000000, 0.000000000000000000, -1.000000000000000000 ) ) ;
#471 = EDGE_LOOP ( 'NONE', ( #283, #656 ) ) ;
#472 = CIRCLE ( 'NONE', #19, 4.849999999999998757 ) ;
#473 = DIRECTION ( 'NONE',  ( 0.000000000000000000, 0.000000000000000000, -1.000000000000000000 ) ) ;
#474 = APPROVAL_PERSON_ORGANIZATION ( #348, #590, #494 ) ;
#475 = CARTESIAN_POINT ( 'NONE',  ( -1.500000000000000000, 33.50000000000000000, 0.000000000000000000 ) ) ;
#476 = ORIENTED_EDGE ( 'NONE', *, *, #609, .F. ) ;
#477 = ADVANCED_FACE ( 'NONE', ( #463 ), #696, .T. ) ;
#478 = CARTESIAN_POINT ( 'NONE',  ( -5.000000000000000000, 6.325000000000001954, 10.00000000000000178 ) ) ;
#479 = ORIENTED_EDGE ( 'NONE', *, *, #73, .F. ) ;
#480 = DIRECTION ( 'NONE',  ( 0.000000000000000000, 0.000000000000000000, -1.000000000000000000 ) ) ;
#481 = VERTEX_POINT ( 'NONE', #130 ) ;
#482 = CIRCLE ( 'NONE', #304, 4.349999999999998757 ) ;
#483 = AXIS2_PLACEMENT_3D ( 'NONE', #259, #488, #150 ) ;
#484 = DIRECTION ( 'NONE',  ( 1.000000000000000000, 0.000000000000000000, 0.000000000000000000 ) ) ;
#485 = ORIENTED_EDGE ( 'NONE', *, *, #234, .F. ) ;
#486 = VECTOR ( 'NONE', #455, 1000.000000000000000 ) ;
#487 = MANIFOLD_SOLID_BREP ( 'Fillet1', #258 ) ;
#488 = DIRECTION ( 'NONE',  ( 1.000000000000000000, -0.000000000000000000, -0.000000000000000000 ) ) ;
#489 = EDGE_CURVE ( 'NONE', #556, #199, #515, .T. ) ;
#490 = CARTESIAN_POINT ( 'NONE',  ( 0.000000000000000000, 28.67500000000000071, 5.650000000000002132 ) ) ;
#491 = ORIENTED_EDGE ( 'NONE', *, *, #664, .F. ) ;
#492 = FACE_OUTER_BOUND ( 'NONE', #321, .T. ) ;
#493 = ORIENTED_EDGE ( 'NONE', *, *, #128, .F. ) ;
#494 = APPROVAL_ROLE ( '' ) ;
#495 = DIRECTION ( 'NONE',  ( 0.000000000000000000, 0.000000000000000000, -1.000000000000000000 ) ) ;
#496 = CC_DESIGN_APPROVAL ( #148, ( #688 ) ) ;
#497 = EDGE_LOOP ( 'NONE', ( #542, #323 ) ) ;
#498 = ADVANCED_FACE ( 'NONE', ( #415 ), #187, .T. ) ;
#499 = CALENDAR_DATE ( 2025, 10, 10 ) ;
#500 = CARTESIAN_POINT ( 'NONE',  ( -11.00000000000000000, 35.00000000000000000, 20.00000000000000000 ) ) ;
#501 = EDGE_LOOP ( 'NONE', ( #279, #109 ) ) ;
#502 = SECURITY_CLASSIFICATION_LEVEL ( 'unclassified' ) ;
#503 = CARTESIAN_POINT ( 'NONE',  ( -1.499999999999999556, 35.00000000000000000, 20.00000000000000000 ) ) ;
#504 =( BOUNDED_CURVE ( )  B_SPLINE_CURVE ( 3, ( #195, #91, #589, #264 ),
 .UNSPECIFIED., .F., .F. ) 
 B_SPLINE_CURVE_WITH_KNOTS ( ( 4, 4 ),
 ( 1.570796326794896780, 3.141592653589793116 ),
 .UNSPECIFIED. ) 
 CURVE ( )  GEOMETRIC_REPRESENTATION_ITEM ( )  RATIONAL_B_SPLINE_CURVE ( ( 1.000000000000000000, 0.8047378541243650485, 0.8047378541243650485, 1.000000000000000000 ) ) 
 REPRESENTATION_ITEM ( '' )  );
#505 = ORIENTED_EDGE ( 'NONE', *, *, #591, .T. ) ;
#506 = DIRECTION ( 'NONE',  ( 1.000000000000000000, 0.000000000000000000, 0.000000000000000000 ) ) ;
#507 = CIRCLE ( 'NONE', #339, 2.600000000000000533 ) ;
#508 = DIRECTION ( 'NONE',  ( 1.000000000000000000, 0.000000000000000000, 0.000000000000000000 ) ) ;
#509 = CARTESIAN_POINT ( 'NONE',  ( -1.500000000000000000, 35.00000000000000000, 20.00000000000000000 ) ) ;
#510 = AXIS2_PLACEMENT_3D ( 'NONE', #39, #711, #705 ) ;
#511 = EDGE_LOOP ( 'NONE', ( #491, #540 ) ) ;
#512 = ADVANCED_FACE ( 'NONE', ( #17 ), #360, .F. ) ;
#513 = DIRECTION ( 'NONE',  ( 0.000000000000000000, -1.000000000000000000, -0.000000000000000000 ) ) ;
#514 = CARTESIAN_POINT ( 'NONE',  ( -11.00000000000000000, 35.00000000000000000, 0.000000000000000000 ) ) ;
#515 = LINE ( 'NONE', #310, #417 ) ;
#516 = CARTESIAN_POINT ( 'NONE',  ( -6.330000000000000071, 17.50000000000000000, 10.00000000000000000 ) ) ;
#517 = CARTESIAN_POINT ( 'NONE',  ( -5.000000000000000000, 28.67500000000000071, 10.00000000000000178 ) ) ;
#518 = VECTOR ( 'NONE', #534, 1000.000000000000000 ) ;
#519 = CARTESIAN_POINT ( 'NONE',  ( -1.499999999999999556, 0.000000000000000000, 0.000000000000000000 ) ) ;
#520 = APPLICATION_CONTEXT ( 'configuration controlled 3d designs of mechanical parts and assemblies' ) ;
#521 = VERTEX_POINT ( 'NONE', #191 ) ;
#522 = ADVANCED_FACE ( 'NONE', ( #530 ), #132, .F. ) ;
#523 = DIRECTION ( 'NONE',  ( 0.000000000000000000, 0.000000000000000000, -1.000000000000000000 ) ) ;
#524 = CARTESIAN_POINT ( 'NONE',  ( -5.000000000000000000, 28.67500000000000071, 10.00000000000000178 ) ) ;
#525 = VECTOR ( 'NONE', #593, 1000.000000000000000 ) ;
#526 = DIRECTION ( 'NONE',  ( -0.000000000000000000, 0.000000000000000000, -1.000000000000000000 ) ) ;
#527 = FACE_OUTER_BOUND ( 'NONE', #34, .T. ) ;
#528 = ORIENTED_EDGE ( 'NONE', *, *, #531, .F. ) ;
#529 = DIRECTION ( 'NONE',  ( 1.000000000000000000, 0.000000000000000000, 0.000000000000000000 ) ) ;
#530 = FACE_OUTER_BOUND ( 'NONE', #370, .T. ) ;
#531 = EDGE_CURVE ( 'NONE', #156, #697, #232, .T. ) ;
#532 = ORIENTED_EDGE ( 'NONE', *, *, #459, .F. ) ;
#533 = VECTOR ( 'NONE', #89, 1000.000000000000000 ) ;
#534 = DIRECTION ( 'NONE',  ( 1.000000000000000000, 0.000000000000000000, 0.000000000000000000 ) ) ;
#535 = CARTESIAN_POINT ( 'NONE',  ( -5.000000000000000000, 28.67500000000000071, 10.00000000000000178 ) ) ;
#536 = CC_DESIGN_DATE_AND_TIME_ASSIGNMENT ( #723, #389, ( #276 ) ) ;
#537 = EDGE_CURVE ( 'NONE', #251, #248, #584, .T. ) ;
#538 = ORIENTED_EDGE ( 'NONE', *, *, #489, .T. ) ;
#539 = CARTESIAN_POINT ( 'NONE',  ( 0.000000000000000000, 1.500000000000000000, 0.000000000000000000 ) ) ;
#540 = ORIENTED_EDGE ( 'NONE', *, *, #314, .F. ) ;
#541 = CARTESIAN_POINT ( 'NONE',  ( -5.000000000000000000, 6.325000000000001954, 12.60000000000000320 ) ) ;
#542 = ORIENTED_EDGE ( 'NONE', *, *, #203, .T. ) ;
#543 = ADVANCED_FACE ( 'NONE', ( #527 ), #24, .F. ) ;
#544 = CIRCLE ( 'NONE', #139, 2.600000000000000089 ) ;
#545 = CARTESIAN_POINT ( 'NONE',  ( 0.000000000000000000, 28.67500000000000071, 14.35000000000000142 ) ) ;
#546 = CARTESIAN_POINT ( 'NONE',  ( 0.000000000000000000, 6.325000000000001954, 5.650000000000003020 ) ) ;
#547 = EDGE_LOOP ( 'NONE', ( #3, #327 ) ) ;
#548 = DIRECTION ( 'NONE',  ( 0.000000000000000000, -0.000000000000000000, 1.000000000000000000 ) ) ;
#549 = CARTESIAN_POINT ( 'NONE',  ( -1.500000000000000000, 35.00000000000000000, 0.000000000000000000 ) ) ;
#550 = ORIENTED_EDGE ( 'NONE', *, *, #398, .F. ) ;
#551 = APPROVAL_STATUS ( 'not_yet_approved' ) ;
#552 = DIRECTION ( 'NONE',  ( 1.000000000000000000, 0.000000000000000000, 0.000000000000000000 ) ) ;
#553 = ORIENTED_EDGE ( 'NONE', *, *, #422, .F. ) ;
#554 = CIRCLE ( 'NONE', #291, 4.349999999999998757 ) ;
#555 = CC_DESIGN_DATE_AND_TIME_ASSIGNMENT ( #338, #233, ( #688 ) ) ;
#556 = VERTEX_POINT ( 'NONE', #86 ) ;
#557 = EDGE_CURVE ( 'NONE', #383, #76, #142, .T. ) ;
#558 = COORDINATED_UNIVERSAL_TIME_OFFSET ( 5, 0, .BEHIND. ) ;
#559 = CARTESIAN_POINT ( 'NONE',  ( 0.000000000000000000, 28.67500000000000071, 10.00000000000000178 ) ) ;
#560 = ORIENTED_EDGE ( 'NONE', *, *, #96, .F. ) ;
#561 = PERSON_AND_ORGANIZATION ( #22, #710 ) ;
#562 = DIRECTION ( 'NONE',  ( 1.000000000000000000, 0.000000000000000000, 0.000000000000000000 ) ) ;
#563 = CARTESIAN_POINT ( 'NONE',  ( -11.00000000000000000, 6.325000000000001954, 10.00000000000000178 ) ) ;
#564 = ORIENTED_EDGE ( 'NONE', *, *, #691, .F. ) ;
#565 = EDGE_CURVE ( 'NONE', #260, #217, #369, .T. ) ;
#566 = PERSON_AND_ORGANIZATION ( #22, #710 ) ;
#567 = AXIS2_PLACEMENT_3D ( 'NONE', #367, #108, #435 ) ;
#568 = LINE ( 'NONE', #613, #290 ) ;
#569 = LINE ( 'NONE', #509, #1 ) ;
#570 = CIRCLE ( 'NONE', #722, 2.600000000000000089 ) ;
#571 = ORIENTED_EDGE ( 'NONE', *, *, #256, .F. ) ;
#572 = AXIS2_PLACEMENT_3D ( 'NONE', #475, #201, #374 ) ;
#573 = DIRECTION ( 'NONE',  ( 0.000000000000000000, 0.000000000000000000, 1.000000000000000000 ) ) ;
#574 = CYLINDRICAL_SURFACE ( 'NONE', #23, 4.849999999999998757 ) ;
#575 = DIRECTION ( 'NONE',  ( 1.000000000000000000, 0.000000000000000000, 0.000000000000000000 ) ) ;
#576 = DIRECTION ( 'NONE',  ( 0.000000000000000000, 0.000000000000000000, -1.000000000000000000 ) ) ;
#577 = ADVANCED_FACE ( 'NONE', ( #246 ), #32, .T. ) ;
#578 = PRODUCT_DEFINITION_SHAPE ( 'NONE', 'NONE',  #276 ) ;
#579 = DIRECTION ( 'NONE',  ( 1.000000000000000000, 0.000000000000000000, 0.000000000000000000 ) ) ;
#580 = CIRCLE ( 'NONE', #675, 4.349999999999999645 ) ;
#581 = DIRECTION ( 'NONE',  ( 0.000000000000000000, 1.000000000000000000, -0.000000000000000000 ) ) ;
#582 = ADVANCED_BREP_SHAPE_REPRESENTATION ( 'Magnet Frame Mount', ( #487, #198 ), #375 ) ;
#583 = ORIENTED_EDGE ( 'NONE', *, *, #625, .F. ) ;
#584 = LINE ( 'NONE', #644, #641 ) ;
#585 = VERTEX_POINT ( 'NONE', #210 ) ;
#586 = LINE ( 'NONE', #312, #621 ) ;
#587 = DIRECTION ( 'NONE',  ( 0.000000000000000000, -0.000000000000000000, -1.000000000000000000 ) ) ;
#588 = ORIENTED_EDGE ( 'NONE', *, *, #678, .T. ) ;
#589 = CARTESIAN_POINT ( 'NONE',  ( -0.6213203435596424962, 3.244476573706588632E-16, 3.244476573706588632E-16 ) ) ;
#590 = APPROVAL ( #447, 'UNSPECIFIED' ) ;
#591 = EDGE_CURVE ( 'NONE', #248, #217, #554, .T. ) ;
#592 =( LENGTH_UNIT ( ) NAMED_UNIT ( * ) SI_UNIT ( .MILLI., .METRE. ) );
#593 = DIRECTION ( 'NONE',  ( 0.000000000000000000, 1.000000000000000000, 0.000000000000000000 ) ) ;
#594 = ORIENTED_EDGE ( 'NONE', *, *, #223, .F. ) ;
#595 = DIRECTION ( 'NONE',  ( 1.000000000000000000, 0.000000000000000000, 0.000000000000000000 ) ) ;
#596 = CARTESIAN_POINT ( 'NONE',  ( -1.500000000000000000, 0.000000000000000000, 1.500000000000000000 ) ) ;
#597 = ORIENTED_EDGE ( 'NONE', *, *, #38, .T. ) ;
#598 = AXIS2_PLACEMENT_3D ( 'NONE', #563, #628, #82 ) ;
#599 = DIRECTION ( 'NONE',  ( 1.000000000000000000, 0.000000000000000000, 0.000000000000000000 ) ) ;
#600 = VERTEX_POINT ( 'NONE', #545 ) ;
#601 = CARTESIAN_POINT ( 'NONE',  ( 0.000000000000000000, 6.325000000000001954, 10.00000000000000178 ) ) ;
#602 = LINE ( 'NONE', #371, #403 ) ;
#603 = ORIENTED_EDGE ( 'NONE', *, *, #183, .F. ) ;
#604 = AXIS2_PLACEMENT_3D ( 'NONE', #658, #216, #308 ) ;
#605 = CARTESIAN_POINT ( 'NONE',  ( -11.00000000000000000, 35.00000000000000000, 20.00000000000000000 ) ) ;
#606 = LINE ( 'NONE', #328, #680 ) ;
#607 = ORIENTED_EDGE ( 'NONE', *, *, #664, .T. ) ;
#608 = APPROVAL_ROLE ( '' ) ;
#609 = EDGE_CURVE ( 'NONE', #521, #393, #570, .T. ) ;
#610 = CARTESIAN_POINT ( 'NONE',  ( 0.000000000000000000, 17.50000000000000000, 10.00000000000000000 ) ) ;
#611 = ORIENTED_EDGE ( 'NONE', *, *, #489, .F. ) ;
#612 = EDGE_CURVE ( 'NONE', #645, #704, #105, .T. ) ;
#613 = CARTESIAN_POINT ( 'NONE',  ( -5.000000000000000000, 28.67500000000000071, 5.650000000000002132 ) ) ;
#614 = ORIENTED_EDGE ( 'NONE', *, *, #83, .F. ) ;
#615 = VECTOR ( 'NONE', #457, 1000.000000000000000 ) ;
#616 = APPROVAL_STATUS ( 'not_yet_approved' ) ;
#617 = LOCAL_TIME ( 14, 30, 31.00000000000000000, #56 ) ;
#618 = LINE ( 'NONE', #500, #439 ) ;
#619 = EDGE_LOOP ( 'NONE', ( #295, #706 ) ) ;
#620 = PERSON_AND_ORGANIZATION_ROLE ( 'design_supplier' ) ;
#621 = VECTOR ( 'NONE', #698, 1000.000000000000000 ) ;
#622 = CARTESIAN_POINT ( 'NONE',  ( -5.000000000000000000, 28.67500000000000071, 14.35000000000000142 ) ) ;
#623 = LINE ( 'NONE', #514, #486 ) ;
#624 = CC_DESIGN_PERSON_AND_ORGANIZATION_ASSIGNMENT ( #561, #9, ( #688 ) ) ;
#625 = EDGE_CURVE ( 'NONE', #217, #248, #442, .T. ) ;
#626 = DATE_AND_TIME ( #121, #665 ) ;
#627 = DIRECTION ( 'NONE',  ( 1.000000000000000000, 0.000000000000000000, 0.000000000000000000 ) ) ;
#628 = DIRECTION ( 'NONE',  ( 1.000000000000000000, 0.000000000000000000, 0.000000000000000000 ) ) ;
#629 = DIRECTION ( 'NONE',  ( 0.000000000000000000, 0.000000000000000000, -1.000000000000000000 ) ) ;
#630 = FACE_BOUND ( 'NONE', #344, .T. ) ;
#631 = LOCAL_TIME ( 14, 30, 31.00000000000000000, #558 ) ;
#632 = AXIS2_PLACEMENT_3D ( 'NONE', #289, #75, #576 ) ;
#633 = CARTESIAN_POINT ( 'NONE',  ( -5.000000000000000000, 28.67500000000000071, 10.00000000000000178 ) ) ;
#634 = ADVANCED_FACE ( 'NONE', ( #326 ), #207, .F. ) ;
#635 = DIRECTION ( 'NONE',  ( 1.000000000000000000, -0.000000000000000000, -0.000000000000000000 ) ) ;
#636 = ORIENTED_EDGE ( 'NONE', *, *, #537, .T. ) ;
#637 = CARTESIAN_POINT ( 'NONE',  ( -11.00000000000000000, 6.325000000000001954, 10.00000000000000178 ) ) ;
#638 = CARTESIAN_POINT ( 'NONE',  ( 0.000000000000000000, 33.50000000000000000, 1.500000000000000000 ) ) ;
#639 = ORIENTED_EDGE ( 'NONE', *, *, #332, .T. ) ;
#640 = DIRECTION ( 'NONE',  ( 0.000000000000000000, 0.000000000000000000, -1.000000000000000000 ) ) ;
#641 = VECTOR ( 'NONE', #193, 1000.000000000000000 ) ;
#642 = AXIS2_PLACEMENT_3D ( 'NONE', #478, #107, #215 ) ;
#643 = LINE ( 'NONE', #549, #309 ) ;
#644 = CARTESIAN_POINT ( 'NONE',  ( -5.000000000000000000, 6.325000000000002842, 14.35000000000000142 ) ) ;
#645 = VERTEX_POINT ( 'NONE', #331 ) ;
#646 = EDGE_CURVE ( 'NONE', #481, #521, #434, .T. ) ;
#647 = CARTESIAN_POINT ( 'NONE',  ( 0.000000000000000000, 33.50000000000000000, 20.00000000000000000 ) ) ;
#648 = DIRECTION ( 'NONE',  ( 0.000000000000000000, 0.000000000000000000, -1.000000000000000000 ) ) ;
#649 = ORIENTED_EDGE ( 'NONE', *, *, #145, .T. ) ;
#650 = DIRECTION ( 'NONE',  ( 1.000000000000000000, 0.000000000000000000, 0.000000000000000000 ) ) ;
#651 = DIRECTION ( 'NONE',  ( 1.000000000000000000, 0.000000000000000000, 0.000000000000000000 ) ) ;
#652 = VECTOR ( 'NONE', #719, 1000.000000000000000 ) ;
#653 = ORIENTED_EDGE ( 'NONE', *, *, #234, .T. ) ;
#654 =( NAMED_UNIT ( * ) PLANE_ANGLE_UNIT ( ) SI_UNIT ( $, .RADIAN. ) );
#655 = EDGE_CURVE ( 'NONE', #709, #266, #660, .T. ) ;
#656 = ORIENTED_EDGE ( 'NONE', *, *, #167, .T. ) ;
#657 = FACE_OUTER_BOUND ( 'NONE', #114, .T. ) ;
#658 = CARTESIAN_POINT ( 'NONE',  ( -5.000000000000000000, 28.67500000000000071, 10.00000000000000178 ) ) ;
#659 = ORIENTED_EDGE ( 'NONE', *, *, #422, .T. ) ;
#660 = LINE ( 'NONE', #539, #305 ) ;
#661 = LINE ( 'NONE', #88, #518 ) ;
#662 = ORIENTED_EDGE ( 'NONE', *, *, #565, .F. ) ;
#663 = AXIS2_PLACEMENT_3D ( 'NONE', #633, #418, #134 ) ;
#664 = EDGE_CURVE ( 'NONE', #208, #600, #175, .T. ) ;
#665 = LOCAL_TIME ( 14, 30, 31.00000000000000000, #440 ) ;
#666 = CARTESIAN_POINT ( 'NONE',  ( -6.330000000000000071, 17.50000000000000000, 14.84999999999999787 ) ) ;
#667 = ORIENTED_EDGE ( 'NONE', *, *, #149, .F. ) ;
#668 = ADVANCED_FACE ( 'NONE', ( #423 ), #267, .F. ) ;
#669 = MECHANICAL_CONTEXT ( 'NONE', #520, 'mechanical' ) ;
#670 = CARTESIAN_POINT ( 'NONE',  ( -1.500000000000000000, 0.000000000000000000, 0.000000000000000000 ) ) ;
#671 = ORIENTED_EDGE ( 'NONE', *, *, #106, .T. ) ;
#672 = COORDINATED_UNIVERSAL_TIME_OFFSET ( 5, 0, .BEHIND. ) ;
#673 = DIRECTION ( 'NONE',  ( 1.000000000000000000, -0.000000000000000000, -0.000000000000000000 ) ) ;
#674 = ORIENTED_EDGE ( 'NONE', *, *, #591, .F. ) ;
#675 = AXIS2_PLACEMENT_3D ( 'NONE', #559, #552, #408 ) ;
#676 = LINE ( 'NONE', #6, #615 ) ;
#677 = DIRECTION ( 'NONE',  ( 0.000000000000000000, 0.000000000000000000, 1.000000000000000000 ) ) ;
#678 = EDGE_CURVE ( 'NONE', #143, #697, #322, .T. ) ;
#679 = DATE_AND_TIME ( #444, #35 ) ;
#680 = VECTOR ( 'NONE', #529, 1000.000000000000000 ) ;
#681 = DIRECTION ( 'NONE',  ( 1.000000000000000000, 0.000000000000000000, 0.000000000000000000 ) ) ;
#682 = DIRECTION ( 'NONE',  ( 0.000000000000000000, 0.000000000000000000, -1.000000000000000000 ) ) ;
#683 = DIRECTION ( 'NONE',  ( 1.000000000000000000, 0.000000000000000000, 0.000000000000000000 ) ) ;
#684 = CARTESIAN_POINT ( 'NONE',  ( 0.000000000000000000, 35.00000000000000000, 1.500000000000000000 ) ) ;
#685 = EDGE_CURVE ( 'NONE', #436, #481, #544, .T. ) ;
#686 = DIRECTION ( 'NONE',  ( 0.000000000000000000, 0.000000000000000000, -1.000000000000000000 ) ) ;
#687 = CARTESIAN_POINT ( 'NONE',  ( -11.00000000000000000, 6.325000000000001954, 7.400000000000001243 ) ) ;
#688 = SECURITY_CLASSIFICATION ( '', '', #502 ) ;
#689 = VERTEX_POINT ( 'NONE', #47 ) ;
#690 = CC_DESIGN_PERSON_AND_ORGANIZATION_ASSIGNMENT ( #566, #404, ( #276 ) ) ;
#691 = EDGE_CURVE ( 'NONE', #393, #521, #94, .T. ) ;
#692 = AXIS2_PLACEMENT_3D ( 'NONE', #78, #581, #294 ) ;
#693 = DIRECTION ( 'NONE',  ( -1.000000000000000000, 0.000000000000000000, -0.000000000000000000 ) ) ;
#694 = CARTESIAN_POINT ( 'NONE',  ( -0.6213203435596424962, 34.99999999999999289, 4.708848058121544829E-16 ) ) ;
#695 = ORIENTED_EDGE ( 'NONE', *, *, #115, .T. ) ;
#696 = PLANE ( 'NONE',  #160 ) ;
#697 = VERTEX_POINT ( 'NONE', #541 ) ;
#698 = DIRECTION ( 'NONE',  ( 1.000000000000000000, -0.000000000000000000, -0.000000000000000000 ) ) ;
#699 = DIRECTION ( 'NONE',  ( 0.000000000000000000, -1.000000000000000000, 0.000000000000000000 ) ) ;
#700 = VECTOR ( 'NONE', #681, 1000.000000000000000 ) ;
#701 = ORIENTED_EDGE ( 'NONE', *, *, #609, .T. ) ;
#702 = LINE ( 'NONE', #385, #652 ) ;
#703 = DIRECTION ( 'NONE',  ( 1.000000000000000000, 0.000000000000000000, 0.000000000000000000 ) ) ;
#704 = VERTEX_POINT ( 'NONE', #384 ) ;
#705 = DIRECTION ( 'NONE',  ( 0.000000000000000000, 0.000000000000000000, -1.000000000000000000 ) ) ;
#706 = ORIENTED_EDGE ( 'NONE', *, *, #96, .T. ) ;
#707 = DIRECTION ( 'NONE',  ( -0.000000000000000000, 1.000000000000000000, 0.000000000000000000 ) ) ;
#708 = CIRCLE ( 'NONE', #395, 4.349999999999999645 ) ;
#709 = VERTEX_POINT ( 'NONE', #381 ) ;
#710 = ORGANIZATION ( 'UNSPECIFIED', 'UNSPECIFIED', '' ) ;
#711 = DIRECTION ( 'NONE',  ( 1.000000000000000000, 0.000000000000000000, 0.000000000000000000 ) ) ;
#712 = DIRECTION ( 'NONE',  ( 0.000000000000000000, 0.000000000000000000, -1.000000000000000000 ) ) ;
#713 = EDGE_LOOP ( 'NONE', ( #236, #717, #412, #571 ) ) ;
#714 = CIRCLE ( 'NONE', #85, 2.600000000000000533 ) ;
#715 = DIRECTION ( 'NONE',  ( -1.000000000000000000, -0.000000000000000000, -0.000000000000000000 ) ) ;
#716 = CARTESIAN_POINT ( 'NONE',  ( -11.00000000000000000, 17.50000000000000000, 10.00000000000000000 ) ) ;
#717 = ORIENTED_EDGE ( 'NONE', *, *, #38, .F. ) ;
#718 = DIRECTION ( 'NONE',  ( 1.000000000000000000, 0.000000000000000000, 0.000000000000000000 ) ) ;
#719 = DIRECTION ( 'NONE',  ( 0.000000000000000000, -1.000000000000000000, 0.000000000000000000 ) ) ;
#720 = ORIENTED_EDGE ( 'NONE', *, *, #557, .T. ) ;
#721 = ADVANCED_FACE ( 'NONE', ( #657 ), #42, .T. ) ;
#722 = AXIS2_PLACEMENT_3D ( 'NONE', #535, #715, #271 ) ;
#723 = DATE_AND_TIME ( #180, #255 ) ;
#724 = CARTESIAN_POINT ( 'NONE',  ( -1.499999999999999556, 0.000000000000000000, 20.00000000000000000 ) ) ;
#725 = ORIENTED_EDGE ( 'NONE', *, *, #115, .F. ) ;
ENDSEC;
END-ISO-10303-21;
