ISO-10303-21;
HEADER;
FILE_DESCRIPTION (( 'STEP AP203' ),
    '1' );
FILE_NAME ('Probe holder.STEP',
    '2026-05-26T16:10:32',
    ( '' ),
    ( '' ),
    'SwSTEP 2.0',
    'SolidWorks 2025',
    '' );
FILE_SCHEMA (( 'CONFIG_CONTROL_DESIGN' ));
ENDSEC;

DATA;
#1 = AXIS2_PLACEMENT_3D ( 'NONE', #233, #601, #548 ) ;
#2 = EDGE_LOOP ( 'NONE', ( #27, #78 ) ) ;
#3 = LINE ( 'NONE', #50, #669 ) ;
#4 = LINE ( 'NONE', #196, #324 ) ;
#5 = PRODUCT_RELATED_PRODUCT_CATEGORY ( 'detail', '', ( #380 ) ) ;
#6 = DIRECTION ( 'NONE',  ( 0.000000000000000000, 0.000000000000000000, -1.000000000000000000 ) ) ;
#7 = DIRECTION ( 'NONE',  ( 0.000000000000000000, 0.000000000000000000, -1.000000000000000000 ) ) ;
#8 = DIRECTION ( 'NONE',  ( 0.5333771068841617335, 0.000000000000000000, -0.8458775690676999526 ) ) ;
#9 = CARTESIAN_POINT ( 'NONE',  ( -12.69999999999999929, 12.69999999999999929, -6.255502511150466738 ) ) ;
#10 = CIRCLE ( 'NONE', #694, 4.762500000000004619 ) ;
#11 = AXIS2_PLACEMENT_3D ( 'NONE', #14, #17, #126 ) ;
#12 = AXIS2_PLACEMENT_3D ( 'NONE', #469, #299, #516 ) ;
#13 = DIRECTION ( 'NONE',  ( 0.000000000000000000, -1.000000000000000000, 0.000000000000000000 ) ) ;
#14 = CARTESIAN_POINT ( 'NONE',  ( -12.69999999999999929, 12.69999999999999929, -6.255502511150466738 ) ) ;
#15 = ORIENTED_EDGE ( 'NONE', *, *, #69, .T. ) ;
#16 = LINE ( 'NONE', #227, #413 ) ;
#17 = DIRECTION ( 'NONE',  ( 0.000000000000000000, -1.000000000000000000, 0.000000000000000000 ) ) ;
#18 = EDGE_CURVE ( 'NONE', #383, #666, #238, .T. ) ;
#19 = ORIENTED_EDGE ( 'NONE', *, *, #692, .F. ) ;
#20 = CARTESIAN_POINT ( 'NONE',  ( -12.69999999999999929, 12.69999999999999929, -6.255502511150466738 ) ) ;
#21 = CARTESIAN_POINT ( 'NONE',  ( 12.69999999999999929, 12.69999999999999929, -6.255502511150466738 ) ) ;
#22 = DIRECTION ( 'NONE',  ( 0.000000000000000000, -1.000000000000000000, 0.000000000000000000 ) ) ;
#23 = EDGE_LOOP ( 'NONE', ( #315, #277 ) ) ;
#24 = CARTESIAN_POINT ( 'NONE',  ( -12.69999999999999929, 12.69999999999999929, -9.633702511150467274 ) ) ;
#25 = ORIENTED_EDGE ( 'NONE', *, *, #529, .T. ) ;
#26 = APPROVAL_PERSON_ORGANIZATION ( #147, #195, #314 ) ;
#27 = ORIENTED_EDGE ( 'NONE', *, *, #168, .F. ) ;
#28 = CARTESIAN_POINT ( 'NONE',  ( -11.05457820188918561, 12.69999999999999929, -10.72472988915460945 ) ) ;
#29 = EDGE_CURVE ( 'NONE', #666, #625, #577, .T. ) ;
#30 = CARTESIAN_POINT ( 'NONE',  ( -12.69999999999999929, 12.69999999999999929, -2.877302511150467090 ) ) ;
#31 = ORIENTED_EDGE ( 'NONE', *, *, #209, .F. ) ;
#32 = CYLINDRICAL_SURFACE ( 'NONE', #236, 3.378199999999996095 ) ;
#33 = DIRECTION ( 'NONE',  ( 0.000000000000000000, 0.000000000000000000, -1.000000000000000000 ) ) ;
#34 = CARTESIAN_POINT ( 'NONE',  ( -12.69999999999999929, 0.000000000000000000, -9.633702511150467274 ) ) ;
#35 = FACE_OUTER_BOUND ( 'NONE', #565, .T. ) ;
#36 = CC_DESIGN_APPROVAL ( #518, ( #490 ) ) ;
#37 = EDGE_CURVE ( 'NONE', #159, #217, #404, .T. ) ;
#38 = AXIS2_PLACEMENT_3D ( 'NONE', #329, #22, #273 ) ;
#39 = AXIS2_PLACEMENT_3D ( 'NONE', #684, #193, #543 ) ;
#40 = DIRECTION ( 'NONE',  ( 0.000000000000000000, 1.000000000000000000, 0.000000000000000000 ) ) ;
#41 =( NAMED_UNIT ( * ) SI_UNIT ( $, .STERADIAN. ) SOLID_ANGLE_UNIT ( ) );
#42 = CLOSED_SHELL ( 'NONE', ( #564, #385, #256, #626, #280, #430, #360, #466, #118, #503, #599, #511, #287, #338, #110, #158, #653, #485, #323 ) ) ;
#44 = EDGE_CURVE ( 'NONE', #306, #625, #300, .T. ) ;
#43 = DIRECTION ( 'NONE',  ( 0.000000000000000000, -1.000000000000000000, 0.000000000000000000 ) ) ;
#45 = PERSON_AND_ORGANIZATION_ROLE ( 'classification_officer' ) ;
#46 = ORIENTED_EDGE ( 'NONE', *, *, #587, .T. ) ;
#47 = ORIENTED_EDGE ( 'NONE', *, *, #303, .T. ) ;
#48 = EDGE_CURVE ( 'NONE', #291, #642, #520, .T. ) ;
#49 = ORIENTED_EDGE ( 'NONE', *, *, #607, .T. ) ;
#50 = CARTESIAN_POINT ( 'NONE',  ( -3.330940032491590763, 12.69999999999999929, 5.282505418827790677 ) ) ;
#51 = EDGE_LOOP ( 'NONE', ( #393, #145, #290, #419 ) ) ;
#52 = FACE_BOUND ( 'NONE', #411, .T. ) ;
#53 = VERTEX_POINT ( 'NONE', #34 ) ;
#54 = CARTESIAN_POINT ( 'NONE',  ( 0.000000000000000000, 0.000000000000000000, 0.000000000000000000 ) ) ;
#55 = EDGE_CURVE ( 'NONE', #182, #625, #624, .T. ) ;
#56 = AXIS2_PLACEMENT_3D ( 'NONE', #331, #80, #399 ) ;
#57 = CARTESIAN_POINT ( 'NONE',  ( 15.24020847153581926, 0.000000000000000000, -2.227010588465543783 ) ) ;
#58 = CIRCLE ( 'NONE', #212, 3.378199999999999648 ) ;
#59 = CYLINDRICAL_SURFACE ( 'NONE', #492, 6.245000000000000995 ) ;
#60 = CARTESIAN_POINT ( 'NONE',  ( -3.330940032491591207, 12.69999999999999929, 5.282505418827788901 ) ) ;
#61 = EDGE_CURVE ( 'NONE', #53, #347, #127, .T. ) ;
#62 = DIRECTION ( 'NONE',  ( 0.000000000000000000, 0.000000000000000000, -1.000000000000000000 ) ) ;
#63 = CYLINDRICAL_SURFACE ( 'NONE', #38, 4.762500000000004619 ) ;
#64 = DIRECTION ( 'NONE',  ( -0.9384204468250165743, 0.000000000000000000, -0.3454953906794360208 ) ) ;
#65 = LINE ( 'NONE', #276, #510 ) ;
#66 = ORIENTED_EDGE ( 'NONE', *, *, #533, .F. ) ;
#67 = AXIS2_PLACEMENT_3D ( 'NONE', #535, #112, #6 ) ;
#68 = VECTOR ( 'NONE', #117, 1000.000000000000000 ) ;
#69 = EDGE_CURVE ( 'NONE', #217, #133, #85, .T. ) ;
#70 = DIRECTION ( 'NONE',  ( 0.000000000000000000, 0.000000000000000000, -1.000000000000000000 ) ) ;
#71 = CARTESIAN_POINT ( 'NONE',  ( -15.24020847153581926, 12.69999999999999929, -2.227010588465543783 ) ) ;
#72 = EDGE_LOOP ( 'NONE', ( #259, #97, #534, #584 ) ) ;
#73 = CARTESIAN_POINT ( 'NONE',  ( 12.69999999999999929, 0.000000000000000000, -9.633702511150463721 ) ) ;
#74 = DIRECTION ( 'NONE',  ( 0.000000000000000000, 1.000000000000000000, 0.000000000000000000 ) ) ;
#75 = DIRECTION ( 'NONE',  ( 0.000000000000000000, -1.000000000000000000, 0.000000000000000000 ) ) ;
#76 = ORIENTED_EDGE ( 'NONE', *, *, #55, .F. ) ;
#77 = DIRECTION ( 'NONE',  ( 0.000000000000000000, -1.000000000000000000, 0.000000000000000000 ) ) ;
#78 = ORIENTED_EDGE ( 'NONE', *, *, #491, .F. ) ;
#79 = ORIENTED_EDGE ( 'NONE', *, *, #573, .F. ) ;
#80 = DIRECTION ( 'NONE',  ( 0.000000000000000000, -1.000000000000000000, 0.000000000000000000 ) ) ;
#81 = AXIS2_PLACEMENT_3D ( 'NONE', #268, #8, #544 ) ;
#82 = VERTEX_POINT ( 'NONE', #526 ) ;
#83 = DIRECTION ( 'NONE',  ( 0.000000000000000000, 0.000000000000000000, -1.000000000000000000 ) ) ;
#84 = CARTESIAN_POINT ( 'NONE',  ( -12.69999999999999929, 12.69999999999999929, -6.255502511150466738 ) ) ;
#85 = LINE ( 'NONE', #199, #392 ) ;
#86 = LINE ( 'NONE', #450, #622 ) ;
#87 = EDGE_CURVE ( 'NONE', #630, #441, #253, .T. ) ;
#88 = CARTESIAN_POINT ( 'NONE',  ( 0.000000000000000000, 0.000000000000000000, 6.245000000000002771 ) ) ;
#89 = CARTESIAN_POINT ( 'NONE',  ( 0.000000000000000000, 0.000000000000000000, 0.000000000000000000 ) ) ;
#90 = CALENDAR_DATE ( 2026, 26, 5 ) ;
#91 = LOCAL_TIME ( 12, 10, 32.00000000000000000, #204 ) ;
#92 = EDGE_CURVE ( 'NONE', #505, #242, #670, .T. ) ;
#93 = CIRCLE ( 'NONE', #414, 3.378199999999996095 ) ;
#94 = VECTOR ( 'NONE', #494, 1000.000000000000000 ) ;
#95 = DIRECTION ( 'NONE',  ( 0.000000000000000000, 0.000000000000000000, -1.000000000000000000 ) ) ;
#96 = DATE_AND_TIME ( #581, #330 ) ;
#97 = ORIENTED_EDGE ( 'NONE', *, *, #148, .T. ) ;
#98 = CALENDAR_DATE ( 2026, 26, 5 ) ;
#99 = ORIENTED_EDGE ( 'NONE', *, *, #491, .T. ) ;
#100 = EDGE_CURVE ( 'NONE', #182, #660, #247, .T. ) ;
#101 = VECTOR ( 'NONE', #509, 1000.000000000000114 ) ;
#102 = ORIENTED_EDGE ( 'NONE', *, *, #48, .F. ) ;
#103 = CARTESIAN_POINT ( 'NONE',  ( 0.000000000000000000, 0.000000000000000000, 0.000000000000000000 ) ) ;
#104 = VECTOR ( 'NONE', #241, 1000.000000000000000 ) ;
#105 = VERTEX_POINT ( 'NONE', #570 ) ;
#106 = CARTESIAN_POINT ( 'NONE',  ( -12.69999999999999929, 12.69999999999999929, -6.255502511150466738 ) ) ;
#107 = EDGE_CURVE ( 'NONE', #699, #226, #523, .T. ) ;
#108 = ORIENTED_EDGE ( 'NONE', *, *, #536, .T. ) ;
#109 = DIRECTION ( 'NONE',  ( 0.000000000000000000, -1.000000000000000000, 0.000000000000000000 ) ) ;
#110 = ADVANCED_FACE ( 'NONE', ( #507 ), #295, .F. ) ;
#111 = ORIENTED_EDGE ( 'NONE', *, *, #220, .T. ) ;
#112 = DIRECTION ( 'NONE',  ( 0.000000000000000000, -1.000000000000000000, 0.000000000000000000 ) ) ;
#113 = CIRCLE ( 'NONE', #191, 4.762500000000004619 ) ;
#114 = CARTESIAN_POINT ( 'NONE',  ( -12.69999999999999929, 0.000000000000000000, -2.877302511150467090 ) ) ;
#115 = CARTESIAN_POINT ( 'NONE',  ( -12.69999999999999929, 12.69999999999999929, -6.255502511150466738 ) ) ;
#116 = DIRECTION ( 'NONE',  ( 0.000000000000000000, 0.000000000000000000, -1.000000000000000000 ) ) ;
#117 = DIRECTION ( 'NONE',  ( 0.000000000000000000, -1.000000000000000000, 0.000000000000000000 ) ) ;
#118 = ADVANCED_FACE ( 'NONE', ( #512, #563 ), #245, .F. ) ;
#119 = DIRECTION ( 'NONE',  ( 0.000000000000000000, 0.000000000000000000, -1.000000000000000000 ) ) ;
#120 = CARTESIAN_POINT ( 'NONE',  ( -12.69999999999999929, 12.69999999999999929, -9.633702511150467274 ) ) ;
#121 = ORIENTED_EDGE ( 'NONE', *, *, #220, .F. ) ;
#122 = CARTESIAN_POINT ( 'NONE',  ( 0.000000000000000000, 0.000000000000000000, 0.000000000000000000 ) ) ;
#123 = ORIENTED_EDGE ( 'NONE', *, *, #100, .F. ) ;
#124 = AXIS2_PLACEMENT_3D ( 'NONE', #320, #125, #671 ) ;
#125 = DIRECTION ( 'NONE',  ( 0.000000000000000000, -1.000000000000000000, 0.000000000000000000 ) ) ;
#126 = DIRECTION ( 'NONE',  ( 0.000000000000000000, 0.000000000000000000, -1.000000000000000000 ) ) ;
#127 = CIRCLE ( 'NONE', #588, 3.378199999999999648 ) ;
#128 = VERTEX_POINT ( 'NONE', #346 ) ;
#129 = CARTESIAN_POINT ( 'NONE',  ( 0.000000000000000000, 60.00000000000000000, 6.245000000000002771 ) ) ;
#130 = EDGE_LOOP ( 'NONE', ( #401, #620, #151, #25, #532, #537 ) ) ;
#131 = CC_DESIGN_DATE_AND_TIME_ASSIGNMENT ( #531, #585, ( #633 ) ) ;
#132 = CARTESIAN_POINT ( 'NONE',  ( -12.69999999999999929, 0.000000000000000000, -6.255502511150466738 ) ) ;
#133 = VERTEX_POINT ( 'NONE', #519 ) ;
#134 = DIRECTION ( 'NONE',  ( 0.000000000000000000, 0.000000000000000000, 1.000000000000000000 ) ) ;
#135 = DIRECTION ( 'NONE',  ( 0.000000000000000000, -1.000000000000000000, 0.000000000000000000 ) ) ;
#136 = ORIENTED_EDGE ( 'NONE', *, *, #143, .F. ) ;
#137 = CARTESIAN_POINT ( 'NONE',  ( -2.157618714793076098, 12.69999999999999929, -5.860435690422222343 ) ) ;
#138 = ORIENTED_EDGE ( 'NONE', *, *, #214, .T. ) ;
#139 = CARTESIAN_POINT ( 'NONE',  ( -3.330940032491591207, -0.000000000000000000, 5.282505418827788901 ) ) ;
#140 = DIRECTION ( 'NONE',  ( -0.000000000000000000, 1.000000000000000000, -0.000000000000000000 ) ) ;
#141 = CARTESIAN_POINT ( 'NONE',  ( 12.69999999999999929, 12.69999999999999929, -6.255502511150466738 ) ) ;
#142 = APPROVAL_STATUS ( 'not_yet_approved' ) ;
#143 = EDGE_CURVE ( 'NONE', #471, #347, #567, .T. ) ;
#144 = CARTESIAN_POINT ( 'NONE',  ( 0.000000000000000000, 0.000000000000000000, 2.332952152375707649E-15 ) ) ;
#145 = ORIENTED_EDGE ( 'NONE', *, *, #37, .F. ) ;
#146 = AXIS2_PLACEMENT_3D ( 'NONE', #617, #75, #7 ) ;
#147 = PERSON_AND_ORGANIZATION ( #675, #608 ) ;
#148 = EDGE_CURVE ( 'NONE', #505, #226, #455, .T. ) ;
#149 = EDGE_LOOP ( 'NONE', ( #344, #121 ) ) ;
#150 = PERSON_AND_ORGANIZATION ( #675, #608 ) ;
#151 = ORIENTED_EDGE ( 'NONE', *, *, #397, .T. ) ;
#152 = APPROVAL_STATUS ( 'not_yet_approved' ) ;
#153 = APPLICATION_CONTEXT ( 'configuration controlled 3d designs of mechanical parts and assemblies' ) ;
#154 = LOCAL_TIME ( 12, 10, 32.00000000000000000, #255 ) ;
#155 = ORIENTED_EDGE ( 'NONE', *, *, #214, .F. ) ;
#156 = FACE_OUTER_BOUND ( 'NONE', #262, .T. ) ;
#157 = AXIS2_PLACEMENT_3D ( 'NONE', #132, #598, #443 ) ;
#158 = ADVANCED_FACE ( 'NONE', ( #188 ), #350, .T. ) ;
#159 = VERTEX_POINT ( 'NONE', #501 ) ;
#160 = FACE_OUTER_BOUND ( 'NONE', #502, .T. ) ;
#161 = EDGE_CURVE ( 'NONE', #82, #178, #448, .T. ) ;
#162 = EDGE_LOOP ( 'NONE', ( #398, #19, #47, #482 ) ) ;
#163 = CYLINDRICAL_SURFACE ( 'NONE', #481, 6.245000000000000995 ) ;
#164 = FACE_OUTER_BOUND ( 'NONE', #51, .T. ) ;
#165 = CARTESIAN_POINT ( 'NONE',  ( -2.157618714793076098, -0.000000000000000000, -5.860435690422222343 ) ) ;
#166 = DIRECTION ( 'NONE',  ( 0.000000000000000000, -1.000000000000000000, 0.000000000000000000 ) ) ;
#167 = DIRECTION ( 'NONE',  ( 0.000000000000000000, 0.000000000000000000, -1.000000000000000000 ) ) ;
#168 = EDGE_CURVE ( 'NONE', #568, #133, #312, .T. ) ;
#169 = CYLINDRICAL_SURFACE ( 'NONE', #337, 4.762500000000004619 ) ;
#170 = DIRECTION ( 'NONE',  ( 0.000000000000000000, 1.000000000000000000, 0.000000000000000000 ) ) ;
#171 = ORIENTED_EDGE ( 'NONE', *, *, #691, .T. ) ;
#172 = CARTESIAN_POINT ( 'NONE',  ( -12.69999999999999929, 12.69999999999999929, -11.01800251115047224 ) ) ;
#173 = CARTESIAN_POINT ( 'NONE',  ( 12.69999999999999929, 0.000000000000000000, -6.255502511150466738 ) ) ;
#174 = DIRECTION ( 'NONE',  ( 0.8458775690676999526, 0.000000000000000000, 0.5333771068841617335 ) ) ;
#175 = ORIENTED_EDGE ( 'NONE', *, *, #184, .T. ) ;
#176 = FACE_OUTER_BOUND ( 'NONE', #459, .T. ) ;
#177 = AXIS2_PLACEMENT_3D ( 'NONE', #137, #292, #445 ) ;
#178 = VERTEX_POINT ( 'NONE', #332 ) ;
#179 = EDGE_CURVE ( 'NONE', #441, #201, #394, .T. ) ;
#180 = VECTOR ( 'NONE', #379, 1000.000000000000000 ) ;
#181 = DIRECTION ( 'NONE',  ( 0.000000000000000000, -1.000000000000000000, 0.000000000000000000 ) ) ;
#182 = VERTEX_POINT ( 'NONE', #388 ) ;
#183 = DIRECTION ( 'NONE',  ( -0.000000000000000000, 1.000000000000000000, -0.000000000000000000 ) ) ;
#184 = EDGE_CURVE ( 'NONE', #242, #306, #497, .T. ) ;
#185 = DIRECTION ( 'NONE',  ( 0.000000000000000000, -0.000000000000000000, -1.000000000000000000 ) ) ;
#186 = ORIENTED_EDGE ( 'NONE', *, *, #44, .T. ) ;
#187 = CARTESIAN_POINT ( 'NONE',  ( 0.000000000000000000, 60.00000000000000000, 3.100000000000000089 ) ) ;
#188 = FACE_OUTER_BOUND ( 'NONE', #319, .T. ) ;
#189 = ORIENTED_EDGE ( 'NONE', *, *, #410, .T. ) ;
#190 = DIRECTION ( 'NONE',  ( 0.000000000000000000, -1.000000000000000000, 0.000000000000000000 ) ) ;
#191 = AXIS2_PLACEMENT_3D ( 'NONE', #454, #77, #289 ) ;
#192 = AXIS2_PLACEMENT_3D ( 'NONE', #676, #135, #198 ) ;
#193 = DIRECTION ( 'NONE',  ( 0.5333771068841617335, 0.000000000000000000, 0.8458775690676999526 ) ) ;
#194 = ORIENTED_EDGE ( 'NONE', *, *, #316, .F. ) ;
#196 = CARTESIAN_POINT ( 'NONE',  ( -12.69999999999999929, 12.69999999999999929, -11.01800251115047224 ) ) ;
#195 = APPROVAL ( #142, 'UNSPECIFIED' ) ;
#197 = PERSON_AND_ORGANIZATION_ROLE ( 'design_supplier' ) ;
#198 = DIRECTION ( 'NONE',  ( 0.000000000000000000, 0.000000000000000000, -1.000000000000000000 ) ) ;
#199 = CARTESIAN_POINT ( 'NONE',  ( 3.796405077356794918E-16, 0.000000000000000000, -3.100000000000000089 ) ) ;
#200 = SHAPE_DEFINITION_REPRESENTATION ( #433, #610 ) ;
#201 = VERTEX_POINT ( 'NONE', #554 ) ;
#202 = VECTOR ( 'NONE', #661, 1000.000000000000114 ) ;
#203 = VERTEX_POINT ( 'NONE', #377 ) ;
#204 = COORDINATED_UNIVERSAL_TIME_OFFSET ( 5, 0, .BEHIND. ) ;
#205 = EDGE_LOOP ( 'NONE', ( #513, #508 ) ) ;
#206 = DIRECTION ( 'NONE',  ( 1.000000000000000000, 0.000000000000000000, 0.000000000000000000 ) ) ;
#207 = ORIENTED_EDGE ( 'NONE', *, *, #479, .T. ) ;
#208 = CARTESIAN_POINT ( 'NONE',  ( 12.69999999999999929, 0.000000000000000000, -6.255502511150466738 ) ) ;
#209 = EDGE_CURVE ( 'NONE', #82, #449, #269, .T. ) ;
#210 = ORIENTED_EDGE ( 'NONE', *, *, #698, .F. ) ;
#211 = CARTESIAN_POINT ( 'NONE',  ( 0.000000000000000000, 12.69999999999999929, 2.332952152375707649E-15 ) ) ;
#212 = AXIS2_PLACEMENT_3D ( 'NONE', #106, #700, #376 ) ;
#213 = VECTOR ( 'NONE', #181, 1000.000000000000000 ) ;
#214 = EDGE_CURVE ( 'NONE', #677, #53, #487, .T. ) ;
#215 = ORIENTED_EDGE ( 'NONE', *, *, #298, .T. ) ;
#216 = CARTESIAN_POINT ( 'NONE',  ( 12.69999999999999929, 12.69999999999999929, -2.877302511150470643 ) ) ;
#217 = VERTEX_POINT ( 'NONE', #219 ) ;
#218 = CARTESIAN_POINT ( 'NONE',  ( -12.69999999999999929, 0.000000000000000000, -6.255502511150466738 ) ) ;
#219 = CARTESIAN_POINT ( 'NONE',  ( 3.796405077356794918E-16, 0.000000000000000000, -3.100000000000000089 ) ) ;
#220 = EDGE_CURVE ( 'NONE', #201, #604, #580, .T. ) ;
#221 = AXIS2_PLACEMENT_3D ( 'NONE', #122, #183, #499 ) ;
#222 = DIRECTION ( 'NONE',  ( 0.000000000000000000, -1.000000000000000000, 0.000000000000000000 ) ) ;
#223 = CARTESIAN_POINT ( 'NONE',  ( 12.69999999999999929, 12.69999999999999929, -2.877302511150470643 ) ) ;
#224 = CARTESIAN_POINT ( 'NONE',  ( 0.000000000000000000, 12.69999999999999929, 0.000000000000000000 ) ) ;
#225 = LINE ( 'NONE', #437, #294 ) ;
#226 = VERTEX_POINT ( 'NONE', #612 ) ;
#227 = CARTESIAN_POINT ( 'NONE',  ( -2.157618714793076098, 12.69999999999999929, -5.860435690422222343 ) ) ;
#228 = FACE_OUTER_BOUND ( 'NONE', #527, .T. ) ;
#230 = ORIENTED_EDGE ( 'NONE', *, *, #18, .T. ) ;
#229 = EDGE_CURVE ( 'NONE', #105, #203, #464, .T. ) ;
#231 = CARTESIAN_POINT ( 'NONE',  ( -3.330940032491590763, 0.000000000000000000, 5.282505418827790677 ) ) ;
#232 = DIRECTION ( 'NONE',  ( 0.3454953906794360763, 0.000000000000000000, -0.9384204468250166853 ) ) ;
#233 = CARTESIAN_POINT ( 'NONE',  ( 0.000000000000000000, 60.00000000000000000, 2.332952152375707649E-15 ) ) ;
#234 = ORIENTED_EDGE ( 'NONE', *, *, #179, .T. ) ;
#235 = DIRECTION ( 'NONE',  ( 0.000000000000000000, 1.000000000000000000, 0.000000000000000000 ) ) ;
#236 = AXIS2_PLACEMENT_3D ( 'NONE', #243, #614, #457 ) ;
#237 = EDGE_CURVE ( 'NONE', #677, #471, #638, .T. ) ;
#238 = CIRCLE ( 'NONE', #649, 6.245000000000000995 ) ;
#239 = EDGE_LOOP ( 'NONE', ( #453, #618, #246, #123, #594, #395 ) ) ;
#240 = CARTESIAN_POINT ( 'NONE',  ( 0.000000000000000000, 60.00000000000000000, 2.332952152375707649E-15 ) ) ;
#241 = DIRECTION ( 'NONE',  ( 0.000000000000000000, -1.000000000000000000, 0.000000000000000000 ) ) ;
#242 = VERTEX_POINT ( 'NONE', #655 ) ;
#243 = CARTESIAN_POINT ( 'NONE',  ( 12.69999999999999929, 12.69999999999999929, -6.255502511150466738 ) ) ;
#244 = EDGE_CURVE ( 'NONE', #699, #642, #282, .T. ) ;
#245 = PLANE ( 'NONE',  #541 ) ;
#246 = ORIENTED_EDGE ( 'NONE', *, *, #691, .F. ) ;
#247 = LINE ( 'NONE', #88, #279 ) ;
#248 = CALENDAR_DATE ( 2026, 26, 5 ) ;
#249 = CIRCLE ( 'NONE', #124, 3.378199999999999648 ) ;
#250 = AXIS2_PLACEMENT_3D ( 'NONE', #144, #40, #629 ) ;
#251 = CARTESIAN_POINT ( 'NONE',  ( -12.69999999999999929, 0.000000000000000000, -6.255502511150466738 ) ) ;
#252 = DATE_AND_TIME ( #90, #550 ) ;
#253 = CIRCLE ( 'NONE', #325, 3.378199999999996095 ) ;
#254 = DIRECTION ( 'NONE',  ( 0.000000000000000000, -1.000000000000000000, 0.000000000000000000 ) ) ;
#255 = COORDINATED_UNIVERSAL_TIME_OFFSET ( 5, 0, .BEHIND. ) ;
#256 = ADVANCED_FACE ( 'NONE', ( #327 ), #545, .F. ) ;
#257 = ORIENTED_EDGE ( 'NONE', *, *, #591, .F. ) ;
#258 = PERSON_AND_ORGANIZATION_ROLE ( 'creator' ) ;
#259 = ORIENTED_EDGE ( 'NONE', *, *, #558, .T. ) ;
#260 = ORIENTED_EDGE ( 'NONE', *, *, #92, .T. ) ;
#261 = DIRECTION ( 'NONE',  ( 0.000000000000000000, 0.000000000000000000, 1.000000000000000000 ) ) ;
#262 = EDGE_LOOP ( 'NONE', ( #664, #428, #389, #356, #46, #475, #288, #108, #186, #76 ) ) ;
#263 = PLANE ( 'NONE',  #463 ) ;
#264 = AXIS2_PLACEMENT_3D ( 'NONE', #20, #297, #605 ) ;
#265 = ORIENTED_EDGE ( 'NONE', *, *, #307, .T. ) ;
#266 = CARTESIAN_POINT ( 'NONE',  ( 0.000000000000000000, 0.000000000000000000, 0.000000000000000000 ) ) ;
#267 = AXIS2_PLACEMENT_3D ( 'NONE', #224, #436, #340 ) ;
#268 = CARTESIAN_POINT ( 'NONE',  ( -3.330940032491591207, 12.69999999999999929, 5.282505418827788901 ) ) ;
#269 = LINE ( 'NONE', #71, #180 ) ;
#270 = UNCERTAINTY_MEASURE_WITH_UNIT (LENGTH_MEASURE( 1.000000000000000082E-05 ), #517, 'distance_accuracy_value', 'NONE');
#271 = EDGE_CURVE ( 'NONE', #383, #128, #225, .T. ) ;
#272 = CARTESIAN_POINT ( 'NONE',  ( 7.647919260675221717E-16, 12.69999999999999929, -6.244999999999998330 ) ) ;
#273 = DIRECTION ( 'NONE',  ( 0.000000000000000000, 0.000000000000000000, -1.000000000000000000 ) ) ;
#274 = LOCAL_TIME ( 12, 10, 32.00000000000000000, #310 ) ;
#275 = FACE_BOUND ( 'NONE', #23, .T. ) ;
#276 = CARTESIAN_POINT ( 'NONE',  ( 2.157618714793076098, 12.69999999999999929, -5.860435690422222343 ) ) ;
#277 = ORIENTED_EDGE ( 'NONE', *, *, #355, .T. ) ;
#278 = AXIS2_PLACEMENT_3D ( 'NONE', #652, #488, #434 ) ;
#279 = VECTOR ( 'NONE', #140, 1000.000000000000000 ) ;
#280 = ADVANCED_FACE ( 'NONE', ( #286 ), #63, .T. ) ;
#281 = FACE_BOUND ( 'NONE', #697, .T. ) ;
#282 = LINE ( 'NONE', #165, #423 ) ;
#283 = ORIENTED_EDGE ( 'NONE', *, *, #229, .F. ) ;
#284 = CARTESIAN_POINT ( 'NONE',  ( 3.469446951953614189E-15, 0.000000000000000000, -6.654799584907672205 ) ) ;
#285 = CARTESIAN_POINT ( 'NONE',  ( 0.000000000000000000, 60.00000000000000000, 0.000000000000000000 ) ) ;
#286 = FACE_OUTER_BOUND ( 'NONE', #72, .T. ) ;
#287 = ADVANCED_FACE ( 'NONE', ( #228 ), #489, .T. ) ;
#288 = ORIENTED_EDGE ( 'NONE', *, *, #107, .T. ) ;
#289 = DIRECTION ( 'NONE',  ( 0.000000000000000000, 0.000000000000000000, -1.000000000000000000 ) ) ;
#290 = ORIENTED_EDGE ( 'NONE', *, *, #316, .T. ) ;
#291 = VERTEX_POINT ( 'NONE', #659 ) ;
#292 = DIRECTION ( 'NONE',  ( 0.3454953906794360763, 0.000000000000000000, 0.9384204468250166853 ) ) ;
#293 = CC_DESIGN_APPROVAL ( #195, ( #586 ) ) ;
#294 = VECTOR ( 'NONE', #435, 1000.000000000000000 ) ;
#295 = CYLINDRICAL_SURFACE ( 'NONE', #524, 3.378199999999999648 ) ;
#296 = ORIENTED_EDGE ( 'NONE', *, *, #44, .F. ) ;
#297 = DIRECTION ( 'NONE',  ( 0.000000000000000000, -1.000000000000000000, 0.000000000000000000 ) ) ;
#298 = EDGE_CURVE ( 'NONE', #128, #660, #422, .T. ) ;
#299 = DIRECTION ( 'NONE',  ( 0.000000000000000000, -1.000000000000000000, 0.000000000000000000 ) ) ;
#300 = LINE ( 'NONE', #686, #426 ) ;
#301 = COORDINATED_UNIVERSAL_TIME_OFFSET ( 5, 0, .BEHIND. ) ;
#302 = CIRCLE ( 'NONE', #400, 6.245000000000000995 ) ;
#303 = EDGE_CURVE ( 'NONE', #549, #291, #65, .T. ) ;
#304 = DIRECTION ( 'NONE',  ( 0.000000000000000000, 0.000000000000000000, -1.000000000000000000 ) ) ;
#305 = PERSON_AND_ORGANIZATION ( #675, #608 ) ;
#306 = VERTEX_POINT ( 'NONE', #57 ) ;
#307 = EDGE_CURVE ( 'NONE', #582, #105, #4, .T. ) ;
#308 = MECHANICAL_CONTEXT ( 'NONE', #571, 'mechanical' ) ;
#309 = ORIENTED_EDGE ( 'NONE', *, *, #533, .T. ) ;
#310 = COORDINATED_UNIVERSAL_TIME_OFFSET ( 5, 0, .BEHIND. ) ;
#311 = AXIS2_PLACEMENT_3D ( 'NONE', #665, #334, #83 ) ;
#312 = CIRCLE ( 'NONE', #451, 3.100000000000000089 ) ;
#313 = ORIENTED_EDGE ( 'NONE', *, *, #307, .F. ) ;
#314 = APPROVAL_ROLE ( '' ) ;
#315 = ORIENTED_EDGE ( 'NONE', *, *, #237, .T. ) ;
#316 = EDGE_CURVE ( 'NONE', #159, #568, #597, .T. ) ;
#317 = ORIENTED_EDGE ( 'NONE', *, *, #472, .T. ) ;
#318 = FACE_OUTER_BOUND ( 'NONE', #239, .T. ) ;
#319 = EDGE_LOOP ( 'NONE', ( #296, #651, #415, #673 ) ) ;
#320 = CARTESIAN_POINT ( 'NONE',  ( -12.69999999999999929, 0.000000000000000000, -6.255502511150466738 ) ) ;
#321 = AXIS2_PLACEMENT_3D ( 'NONE', #619, #569, #134 ) ;
#322 = CARTESIAN_POINT ( 'NONE',  ( -15.24020847153581926, 0.000000000000000000, -2.227010588465543783 ) ) ;
#323 = ADVANCED_FACE ( 'NONE', ( #164 ), #590, .F. ) ;
#324 = VECTOR ( 'NONE', #600, 1000.000000000000000 ) ;
#325 = AXIS2_PLACEMENT_3D ( 'NONE', #141, #254, #465 ) ;
#326 = DIRECTION ( 'NONE',  ( 0.000000000000000000, 0.000000000000000000, 1.000000000000000000 ) ) ;
#327 = FACE_OUTER_BOUND ( 'NONE', #371, .T. ) ;
#328 = FACE_BOUND ( 'NONE', #149, .T. ) ;
#329 = CARTESIAN_POINT ( 'NONE',  ( 12.69999999999999929, 12.69999999999999929, -6.255502511150466738 ) ) ;
#330 = LOCAL_TIME ( 12, 10, 32.00000000000000000, #301 ) ;
#331 = CARTESIAN_POINT ( 'NONE',  ( 12.69999999999999929, 12.69999999999999929, -6.255502511150466738 ) ) ;
#332 = CARTESIAN_POINT ( 'NONE',  ( -3.330940032491590763, 12.69999999999999929, 5.282505418827790677 ) ) ;
#333 = EDGE_LOOP ( 'NONE', ( #561, #15, #99, #194 ) ) ;
#334 = DIRECTION ( 'NONE',  ( 0.000000000000000000, -1.000000000000000000, 0.000000000000000000 ) ) ;
#335 = CIRCLE ( 'NONE', #67, 4.762500000000004619 ) ;
#336 = AXIS2_PLACEMENT_3D ( 'NONE', #115, #432, #560 ) ;
#337 = AXIS2_PLACEMENT_3D ( 'NONE', #21, #387, #70 ) ;
#338 = ADVANCED_FACE ( 'NONE', ( #160 ), #425, .F. ) ;
#339 = VECTOR ( 'NONE', #689, 1000.000000000000000 ) ;
#340 = DIRECTION ( 'NONE',  ( 0.000000000000000000, -0.000000000000000000, -1.000000000000000000 ) ) ;
#341 = DIRECTION ( 'NONE',  ( -0.9384204468250166853, 0.000000000000000000, 0.3454953906794361318 ) ) ;
#342 = EDGE_LOOP ( 'NONE', ( #374, #260, #175, #477 ) ) ;
#343 = DIRECTION ( 'NONE',  ( 0.000000000000000000, 0.000000000000000000, 1.000000000000000000 ) ) ;
#344 = ORIENTED_EDGE ( 'NONE', *, *, #407, .F. ) ;
#345 = LINE ( 'NONE', #139, #101 ) ;
#346 = CARTESIAN_POINT ( 'NONE',  ( 7.647919260675221717E-16, 60.00000000000000000, -6.244999999999998330 ) ) ;
#348 = EDGE_CURVE ( 'NONE', #449, #105, #391, .T. ) ;
#347 = VERTEX_POINT ( 'NONE', #114 ) ;
#349 = DIRECTION ( 'NONE',  ( 0.9384204468250166853, 0.000000000000000000, 0.3454953906794361318 ) ) ;
#350 = PLANE ( 'NONE',  #39 ) ;
#351 = CARTESIAN_POINT ( 'NONE',  ( 0.000000000000000000, 12.69999999999999929, 2.332952152375707649E-15 ) ) ;
#352 = CARTESIAN_POINT ( 'NONE',  ( 11.05457820188918561, 0.000000000000000000, -10.72472988915460945 ) ) ;
#353 = CARTESIAN_POINT ( 'NONE',  ( 3.469446951953614189E-15, 12.69999999999999929, -6.654799584907672205 ) ) ;
#354 = DATE_AND_TIME ( #248, #154 ) ;
#355 = EDGE_CURVE ( 'NONE', #471, #677, #58, .T. ) ;
#356 = ORIENTED_EDGE ( 'NONE', *, *, #229, .T. ) ;
#357 = DIRECTION ( 'NONE',  ( -0.000000000000000000, 1.000000000000000000, -0.000000000000000000 ) ) ;
#358 = APPLICATION_PROTOCOL_DEFINITION ( 'international standard', 'config_control_design', 1994, #153 ) ;
#359 = AXIS2_PLACEMENT_3D ( 'NONE', #285, #74, #500 ) ;
#360 = ADVANCED_FACE ( 'NONE', ( #486 ), #59, .T. ) ;
#361 = PERSON_AND_ORGANIZATION ( #675, #608 ) ;
#362 = ORIENTED_EDGE ( 'NONE', *, *, #92, .F. ) ;
#363 = PERSON_AND_ORGANIZATION_ROLE ( 'creator' ) ;
#364 = ORIENTED_EDGE ( 'NONE', *, *, #87, .T. ) ;
#365 = DATE_AND_TIME ( #98, #91 ) ;
#366 = CC_DESIGN_PERSON_AND_ORGANIZATION_ASSIGNMENT ( #150, #363, ( #633 ) ) ;
#367 = VECTOR ( 'NONE', #370, 1000.000000000000000 ) ;
#368 = VECTOR ( 'NONE', #174, 1000.000000000000114 ) ;
#369 = EDGE_LOOP ( 'NONE', ( #456, #102, #66, #189 ) ) ;
#370 = DIRECTION ( 'NONE',  ( -0.000000000000000000, 1.000000000000000000, -0.000000000000000000 ) ) ;
#371 = EDGE_LOOP ( 'NONE', ( #681, #635, #207, #155 ) ) ;
#372 = DIRECTION ( 'NONE',  ( -0.000000000000000000, 1.000000000000000000, -0.000000000000000000 ) ) ;
#373 = CC_DESIGN_PERSON_AND_ORGANIZATION_ASSIGNMENT ( #575, #258, ( #586 ) ) ;
#374 = ORIENTED_EDGE ( 'NONE', *, *, #148, .F. ) ;
#375 = CARTESIAN_POINT ( 'NONE',  ( 0.000000000000000000, 0.000000000000000000, 2.332952152375707649E-15 ) ) ;
#376 = DIRECTION ( 'NONE',  ( 0.000000000000000000, 0.000000000000000000, -1.000000000000000000 ) ) ;
#377 = CARTESIAN_POINT ( 'NONE',  ( -11.05457820188918561, 0.000000000000000000, -10.72472988915460945 ) ) ;
#378 = DIRECTION ( 'NONE',  ( 0.000000000000000000, -1.000000000000000000, 0.000000000000000000 ) ) ;
#379 = DIRECTION ( 'NONE',  ( 0.000000000000000000, -1.000000000000000000, 0.000000000000000000 ) ) ;
#380 = PRODUCT ( 'Probe holder', 'Probe holder', '', ( #308 ) ) ;
#381 = FACE_OUTER_BOUND ( 'NONE', #162, .T. ) ;
#382 = DIRECTION ( 'NONE',  ( 0.9384204468250166853, 0.000000000000000000, 0.3454953906794361318 ) ) ;
#383 = VERTEX_POINT ( 'NONE', #272 ) ;
#384 = CYLINDRICAL_SURFACE ( 'NONE', #264, 4.762500000000004619 ) ;
#385 = ADVANCED_FACE ( 'NONE', ( #476 ), #656, .F. ) ;
#386 = CIRCLE ( 'NONE', #311, 3.378199999999996095 ) ;
#387 = DIRECTION ( 'NONE',  ( 0.000000000000000000, -1.000000000000000000, 0.000000000000000000 ) ) ;
#388 = CARTESIAN_POINT ( 'NONE',  ( 0.000000000000000000, 0.000000000000000000, 6.245000000000002771 ) ) ;
#389 = ORIENTED_EDGE ( 'NONE', *, *, #348, .T. ) ;
#390 = CARTESIAN_POINT ( 'NONE',  ( 2.157618714793076098, 0.000000000000000000, -5.860435690422222343 ) ) ;
#391 = CIRCLE ( 'NONE', #403, 4.762500000000004619 ) ;
#392 = VECTOR ( 'NONE', #357, 1000.000000000000000 ) ;
#393 = ORIENTED_EDGE ( 'NONE', *, *, #69, .F. ) ;
#394 = LINE ( 'NONE', #223, #94 ) ;
#395 = ORIENTED_EDGE ( 'NONE', *, *, #29, .F. ) ;
#396 = CARTESIAN_POINT ( 'NONE',  ( 3.330940032491590319, 0.000000000000000000, 5.282505418827789789 ) ) ;
#397 = EDGE_CURVE ( 'NONE', #178, #643, #3, .T. ) ;
#398 = ORIENTED_EDGE ( 'NONE', *, *, #587, .F. ) ;
#399 = DIRECTION ( 'NONE',  ( 0.000000000000000000, 0.000000000000000000, -1.000000000000000000 ) ) ;
#400 = AXIS2_PLACEMENT_3D ( 'NONE', #447, #602, #547 ) ;
#401 = ORIENTED_EDGE ( 'NONE', *, *, #271, .F. ) ;
#402 = CARTESIAN_POINT ( 'NONE',  ( 3.330940032491590319, 12.69999999999999929, 5.282505418827789789 ) ) ;
#403 = AXIS2_PLACEMENT_3D ( 'NONE', #218, #222, #62 ) ;
#404 = CIRCLE ( 'NONE', #647, 3.100000000000000089 ) ;
#405 = DIRECTION ( 'NONE',  ( -0.8458775690676999526, 0.000000000000000000, 0.5333771068841617335 ) ) ;
#406 = SECURITY_CLASSIFICATION_LEVEL ( 'unclassified' ) ;
#407 = EDGE_CURVE ( 'NONE', #604, #201, #93, .T. ) ;
#408 = CARTESIAN_POINT ( 'NONE',  ( 3.330940032491590763, 12.69999999999999929, 5.282505418827790677 ) ) ;
#409 = PERSON_AND_ORGANIZATION ( #675, #608 ) ;
#410 = EDGE_CURVE ( 'NONE', #641, #699, #420, .T. ) ;
#411 = EDGE_LOOP ( 'NONE', ( #701, #49 ) ) ;
#412 = DIRECTION ( 'NONE',  ( 0.000000000000000000, 0.000000000000000000, 1.000000000000000000 ) ) ;
#413 = VECTOR ( 'NONE', #662, 999.9999999999998863 ) ;
#414 = AXIS2_PLACEMENT_3D ( 'NONE', #208, #378, #116 ) ;
#415 = ORIENTED_EDGE ( 'NONE', *, *, #573, .T. ) ;
#416 = APPROVAL_DATE_TIME ( #365, #679 ) ;
#417 = CC_DESIGN_PERSON_AND_ORGANIZATION_ASSIGNMENT ( #361, #45, ( #490 ) ) ;
#418 = ORIENTED_EDGE ( 'NONE', *, *, #303, .F. ) ;
#419 = ORIENTED_EDGE ( 'NONE', *, *, #168, .T. ) ;
#420 = LINE ( 'NONE', #429, #522 ) ;
#421 = CC_DESIGN_SECURITY_CLASSIFICATION ( #490, ( #586 ) ) ;
#422 = CIRCLE ( 'NONE', #1, 6.245000000000000995 ) ;
#423 = VECTOR ( 'NONE', #341, 999.9999999999998863 ) ;
#424 = ORIENTED_EDGE ( 'NONE', *, *, #407, .T. ) ;
#425 = PLANE ( 'NONE',  #81 ) ;
#426 = VECTOR ( 'NONE', #405, 1000.000000000000114 ) ;
#427 = CC_DESIGN_PERSON_AND_ORGANIZATION_ASSIGNMENT ( #305, #637, ( #380 ) ) ;
#428 = ORIENTED_EDGE ( 'NONE', *, *, #667, .F. ) ;
#429 = CARTESIAN_POINT ( 'NONE',  ( 11.05457820188918561, 12.69999999999999929, -10.72472988915460945 ) ) ;
#430 = ADVANCED_FACE ( 'NONE', ( #318 ), #163, .T. ) ;
#431 = DIRECTION ( 'NONE',  ( -0.000000000000000000, 1.000000000000000000, -0.000000000000000000 ) ) ;
#432 = DIRECTION ( 'NONE',  ( 0.000000000000000000, -1.000000000000000000, 0.000000000000000000 ) ) ;
#433 = PRODUCT_DEFINITION_SHAPE ( 'NONE', 'NONE',  #633 ) ;
#434 = DIRECTION ( 'NONE',  ( 0.000000000000000000, 0.000000000000000000, -1.000000000000000000 ) ) ;
#435 = DIRECTION ( 'NONE',  ( -0.000000000000000000, 1.000000000000000000, -0.000000000000000000 ) ) ;
#436 = DIRECTION ( 'NONE',  ( 0.000000000000000000, -1.000000000000000000, 0.000000000000000000 ) ) ;
#437 = CARTESIAN_POINT ( 'NONE',  ( 7.647919260675221717E-16, 0.000000000000000000, -6.244999999999998330 ) ) ;
#438 = EDGE_CURVE ( 'NONE', #582, #549, #335, .T. ) ;
#439 = ORIENTED_EDGE ( 'NONE', *, *, #616, .F. ) ;
#440 = LINE ( 'NONE', #627, #202 ) ;
#441 = VERTEX_POINT ( 'NONE', #216 ) ;
#442 = CARTESIAN_POINT ( 'NONE',  ( 12.69999999999999929, 12.69999999999999929, -11.01800251115047224 ) ) ;
#443 = DIRECTION ( 'NONE',  ( 0.000000000000000000, 0.000000000000000000, -1.000000000000000000 ) ) ;
#444 = EDGE_LOOP ( 'NONE', ( #439, #234, #111, #257 ) ) ;
#445 = DIRECTION ( 'NONE',  ( 0.9384204468250165743, 0.000000000000000000, -0.3454953906794360208 ) ) ;
#446 = ORIENTED_EDGE ( 'NONE', *, *, #667, .T. ) ;
#447 = CARTESIAN_POINT ( 'NONE',  ( 0.000000000000000000, 0.000000000000000000, 2.332952152375707649E-15 ) ) ;
#448 = LINE ( 'NONE', #60, #368 ) ;
#449 = VERTEX_POINT ( 'NONE', #322 ) ;
#450 = CARTESIAN_POINT ( 'NONE',  ( 12.69999999999999929, 12.69999999999999929, -9.633702511150463721 ) ) ;
#451 = AXIS2_PLACEMENT_3D ( 'NONE', #663, #170, #672 ) ;
#452 = CARTESIAN_POINT ( 'NONE',  ( 0.000000000000000000, 60.00000000000000000, 0.000000000000000000 ) ) ;
#453 = ORIENTED_EDGE ( 'NONE', *, *, #18, .F. ) ;
#454 = CARTESIAN_POINT ( 'NONE',  ( -12.69999999999999929, 12.69999999999999929, -6.255502511150466738 ) ) ;
#455 = LINE ( 'NONE', #680, #552 ) ;
#456 = ORIENTED_EDGE ( 'NONE', *, *, #244, .T. ) ;
#457 = DIRECTION ( 'NONE',  ( 0.000000000000000000, 0.000000000000000000, -1.000000000000000000 ) ) ;
#458 = DIRECTION ( 'NONE',  ( 0.000000000000000000, -1.000000000000000000, 0.000000000000000000 ) ) ;
#459 = EDGE_LOOP ( 'NONE', ( #589, #525, #615, #424 ) ) ;
#460 = APPROVAL_PERSON_ORGANIZATION ( #640, #679, #528 ) ;
#461 = DIRECTION ( 'NONE',  ( 0.000000000000000000, -1.000000000000000000, 0.000000000000000000 ) ) ;
#462 = APPROVAL_DATE_TIME ( #354, #195 ) ;
#463 = AXIS2_PLACEMENT_3D ( 'NONE', #54, #478, #702 ) ;
#464 = CIRCLE ( 'NONE', #157, 4.762500000000004619 ) ;
#466 = ADVANCED_FACE ( 'NONE', ( #52, #156, #538, #328 ), #263, .T. ) ;
#465 = DIRECTION ( 'NONE',  ( 0.000000000000000000, 0.000000000000000000, -1.000000000000000000 ) ) ;
#467 = APPROVAL_DATE_TIME ( #96, #518 ) ;
#468 = EDGE_LOOP ( 'NONE', ( #530, #309, #418, #473, #210, #613, #317, #230, #79, #362 ) ) ;
#469 = CARTESIAN_POINT ( 'NONE',  ( 12.69999999999999929, 12.69999999999999929, -6.255502511150466738 ) ) ;
#470 = APPROVAL_ROLE ( '' ) ;
#471 = VERTEX_POINT ( 'NONE', #542 ) ;
#472 = EDGE_CURVE ( 'NONE', #178, #383, #579, .T. ) ;
#473 = ORIENTED_EDGE ( 'NONE', *, *, #438, .F. ) ;
#474 = APPLICATION_PROTOCOL_DEFINITION ( 'international standard', 'config_control_design', 1994, #571 ) ;
#475 = ORIENTED_EDGE ( 'NONE', *, *, #244, .F. ) ;
#476 = FACE_OUTER_BOUND ( 'NONE', #444, .T. ) ;
#477 = ORIENTED_EDGE ( 'NONE', *, *, #536, .F. ) ;
#478 = DIRECTION ( 'NONE',  ( 0.000000000000000000, -1.000000000000000000, 0.000000000000000000 ) ) ;
#479 = EDGE_CURVE ( 'NONE', #347, #53, #249, .T. ) ;
#480 =( GEOMETRIC_REPRESENTATION_CONTEXT ( 3 ) GLOBAL_UNCERTAINTY_ASSIGNED_CONTEXT ( ( #270 ) ) GLOBAL_UNIT_ASSIGNED_CONTEXT ( ( #517, #695, #41 ) ) REPRESENTATION_CONTEXT ( 'NONE', 'WORKASPACE' ) );
#481 = AXIS2_PLACEMENT_3D ( 'NONE', #375, #431, #595 ) ;
#482 = ORIENTED_EDGE ( 'NONE', *, *, #48, .T. ) ;
#483 = DIRECTION ( 'NONE',  ( 0.000000000000000000, 0.000000000000000000, -1.000000000000000000 ) ) ;
#484 = AXIS2_PLACEMENT_3D ( 'NONE', #658, #232, #64 ) ;
#485 = ADVANCED_FACE ( 'NONE', ( #493, #275, #281 ), #559, .F. ) ;
#486 = FACE_OUTER_BOUND ( 'NONE', #130, .T. ) ;
#487 = LINE ( 'NONE', #120, #68 ) ;
#488 = DIRECTION ( 'NONE',  ( 0.000000000000000000, -1.000000000000000000, 0.000000000000000000 ) ) ;
#489 = CYLINDRICAL_SURFACE ( 'NONE', #540, 4.762500000000004619 ) ;
#490 = SECURITY_CLASSIFICATION ( '', '', #406 ) ;
#491 = EDGE_CURVE ( 'NONE', #133, #568, #609, .T. ) ;
#492 = AXIS2_PLACEMENT_3D ( 'NONE', #650, #593, #326 ) ;
#493 = FACE_OUTER_BOUND ( 'NONE', #468, .T. ) ;
#494 = DIRECTION ( 'NONE',  ( 0.000000000000000000, -1.000000000000000000, 0.000000000000000000 ) ) ;
#495 = ORIENTED_EDGE ( 'NONE', *, *, #237, .F. ) ;
#496 = PLANE ( 'NONE',  #484 ) ;
#497 = LINE ( 'NONE', #603, #213 ) ;
#498 = ORIENTED_EDGE ( 'NONE', *, *, #161, .F. ) ;
#499 = DIRECTION ( 'NONE',  ( 0.000000000000000000, 0.000000000000000000, 1.000000000000000000 ) ) ;
#500 = DIRECTION ( 'NONE',  ( 0.000000000000000000, 0.000000000000000000, 1.000000000000000000 ) ) ;
#501 = CARTESIAN_POINT ( 'NONE',  ( 0.000000000000000000, 0.000000000000000000, 3.100000000000000089 ) ) ;
#503 = ADVANCED_FACE ( 'NONE', ( #553 ), #169, .T. ) ;
#502 = EDGE_LOOP ( 'NONE', ( #446, #583, #498, #688 ) ) ;
#504 = PLANE ( 'NONE',  #177 ) ;
#505 = VERTEX_POINT ( 'NONE', #442 ) ;
#506 = AXIS2_PLACEMENT_3D ( 'NONE', #103, #412, #206 ) ;
#507 = FACE_OUTER_BOUND ( 'NONE', #606, .T. ) ;
#508 = ORIENTED_EDGE ( 'NONE', *, *, #479, .F. ) ;
#509 = DIRECTION ( 'NONE',  ( 0.8458775690676999526, 0.000000000000000000, 0.5333771068841617335 ) ) ;
#510 = VECTOR ( 'NONE', #382, 999.9999999999998863 ) ;
#511 = ADVANCED_FACE ( 'NONE', ( #381 ), #496, .T. ) ;
#512 = FACE_BOUND ( 'NONE', #2, .T. ) ;
#513 = ORIENTED_EDGE ( 'NONE', *, *, #61, .F. ) ;
#514 = CARTESIAN_POINT ( 'NONE',  ( 12.69999999999999929, 12.69999999999999929, -9.633702511150463721 ) ) ;
#515 = DIRECTION ( 'NONE',  ( 0.000000000000000000, -1.000000000000000000, 0.000000000000000000 ) ) ;
#516 = DIRECTION ( 'NONE',  ( 0.000000000000000000, 0.000000000000000000, -1.000000000000000000 ) ) ;
#517 =( LENGTH_UNIT ( ) NAMED_UNIT ( * ) SI_UNIT ( .MILLI., .METRE. ) );
#518 = APPROVAL ( #632, 'UNSPECIFIED' ) ;
#519 = CARTESIAN_POINT ( 'NONE',  ( 3.796405077356794918E-16, 60.00000000000000000, -3.100000000000000089 ) ) ;
#520 = LINE ( 'NONE', #353, #557 ) ;
#521 = CALENDAR_DATE ( 2026, 26, 5 ) ;
#522 = VECTOR ( 'NONE', #644, 1000.000000000000000 ) ;
#523 = CIRCLE ( 'NONE', #192, 4.762500000000004619 ) ;
#524 = AXIS2_PLACEMENT_3D ( 'NONE', #84, #515, #33 ) ;
#525 = ORIENTED_EDGE ( 'NONE', *, *, #87, .F. ) ;
#526 = CARTESIAN_POINT ( 'NONE',  ( -15.24020847153581926, 12.69999999999999929, -2.227010588465543783 ) ) ;
#527 = EDGE_LOOP ( 'NONE', ( #313, #685, #592, #283 ) ) ;
#528 = APPROVAL_ROLE ( '' ) ;
#529 = EDGE_CURVE ( 'NONE', #643, #182, #302, .T. ) ;
#530 = ORIENTED_EDGE ( 'NONE', *, *, #558, .F. ) ;
#531 = DATE_AND_TIME ( #521, #274 ) ;
#532 = ORIENTED_EDGE ( 'NONE', *, *, #100, .T. ) ;
#533 = EDGE_CURVE ( 'NONE', #641, #291, #16, .T. ) ;
#534 = ORIENTED_EDGE ( 'NONE', *, *, #107, .F. ) ;
#535 = CARTESIAN_POINT ( 'NONE',  ( -12.69999999999999929, 12.69999999999999929, -6.255502511150466738 ) ) ;
#536 = EDGE_CURVE ( 'NONE', #226, #306, #10, .T. ) ;
#537 = ORIENTED_EDGE ( 'NONE', *, *, #298, .F. ) ;
#538 = FACE_BOUND ( 'NONE', #205, .T. ) ;
#539 = CC_DESIGN_APPROVAL ( #679, ( #633 ) ) ;
#540 = AXIS2_PLACEMENT_3D ( 'NONE', #9, #657, #167 ) ;
#541 = AXIS2_PLACEMENT_3D ( 'NONE', #452, #623, #185 ) ;
#542 = CARTESIAN_POINT ( 'NONE',  ( -12.69999999999999929, 12.69999999999999929, -2.877302511150467090 ) ) ;
#543 = DIRECTION ( 'NONE',  ( 0.8458775690676999526, 0.000000000000000000, -0.5333771068841617335 ) ) ;
#544 = DIRECTION ( 'NONE',  ( -0.8458775690676999526, 0.000000000000000000, -0.5333771068841617335 ) ) ;
#545 = CYLINDRICAL_SURFACE ( 'NONE', #11, 3.378199999999999648 ) ;
#546 = CC_DESIGN_DATE_AND_TIME_ASSIGNMENT ( #252, #690, ( #490 ) ) ;
#547 = DIRECTION ( 'NONE',  ( 0.000000000000000000, 0.000000000000000000, 1.000000000000000000 ) ) ;
#548 = DIRECTION ( 'NONE',  ( 0.000000000000000000, 0.000000000000000000, 1.000000000000000000 ) ) ;
#549 = VERTEX_POINT ( 'NONE', #611 ) ;
#550 = LOCAL_TIME ( 12, 10, 32.00000000000000000, #578 ) ;
#551 = AXIS2_PLACEMENT_3D ( 'NONE', #211, #109, #483 ) ;
#552 = VECTOR ( 'NONE', #458, 1000.000000000000000 ) ;
#553 = FACE_OUTER_BOUND ( 'NONE', #342, .T. ) ;
#554 = CARTESIAN_POINT ( 'NONE',  ( 12.69999999999999929, 0.000000000000000000, -2.877302511150470643 ) ) ;
#555 = ORIENTED_EDGE ( 'NONE', *, *, #698, .T. ) ;
#556 = CYLINDRICAL_SURFACE ( 'NONE', #221, 3.100000000000000089 ) ;
#557 = VECTOR ( 'NONE', #631, 1000.000000000000000 ) ;
#558 = EDGE_CURVE ( 'NONE', #641, #505, #683, .T. ) ;
#559 = PLANE ( 'NONE',  #267 ) ;
#560 = DIRECTION ( 'NONE',  ( 0.000000000000000000, 0.000000000000000000, -1.000000000000000000 ) ) ;
#561 = ORIENTED_EDGE ( 'NONE', *, *, #607, .F. ) ;
#562 = LINE ( 'NONE', #28, #703 ) ;
#563 = FACE_OUTER_BOUND ( 'NONE', #648, .T. ) ;
#564 = ADVANCED_FACE ( 'NONE', ( #682 ), #556, .F. ) ;
#565 = EDGE_LOOP ( 'NONE', ( #555, #265, #628, #31 ) ) ;
#566 = CARTESIAN_POINT ( 'NONE',  ( 11.05457820188918561, 12.69999999999999929, -10.72472988915460945 ) ) ;
#567 = LINE ( 'NONE', #30, #104 ) ;
#568 = VERTEX_POINT ( 'NONE', #187 ) ;
#569 = DIRECTION ( 'NONE',  ( 0.000000000000000000, 1.000000000000000000, 0.000000000000000000 ) ) ;
#570 = CARTESIAN_POINT ( 'NONE',  ( -12.69999999999999929, 0.000000000000000000, -11.01800251115047224 ) ) ;
#571 = APPLICATION_CONTEXT ( 'configuration controlled 3d designs of mechanical parts and assemblies' ) ;
#572 = DIRECTION ( 'NONE',  ( 0.000000000000000000, 1.000000000000000000, 0.000000000000000000 ) ) ;
#573 = EDGE_CURVE ( 'NONE', #242, #666, #440, .T. ) ;
#574 = DIRECTION ( 'NONE',  ( 0.000000000000000000, 0.000000000000000000, 1.000000000000000000 ) ) ;
#575 = PERSON_AND_ORGANIZATION ( #675, #608 ) ;
#576 = CIRCLE ( 'NONE', #321, 3.100000000000000089 ) ;
#577 = LINE ( 'NONE', #408, #339 ) ;
#578 = COORDINATED_UNIVERSAL_TIME_OFFSET ( 5, 0, .BEHIND. ) ;
#579 = CIRCLE ( 'NONE', #551, 6.245000000000000995 ) ;
#580 = CIRCLE ( 'NONE', #146, 3.378199999999996095 ) ;
#581 = CALENDAR_DATE ( 2026, 26, 5 ) ;
#582 = VERTEX_POINT ( 'NONE', #172 ) ;
#583 = ORIENTED_EDGE ( 'NONE', *, *, #397, .F. ) ;
#584 = ORIENTED_EDGE ( 'NONE', *, *, #410, .F. ) ;
#585 = DATE_TIME_ROLE ( 'creation_date' ) ;
#586 = PRODUCT_DEFINITION_FORMATION_WITH_SPECIFIED_SOURCE ( 'ANY', '', #380, .NOT_KNOWN. ) ;
#587 = EDGE_CURVE ( 'NONE', #203, #642, #674, .T. ) ;
#588 = AXIS2_PLACEMENT_3D ( 'NONE', #251, #43, #304 ) ;
#589 = ORIENTED_EDGE ( 'NONE', *, *, #179, .F. ) ;
#590 = CYLINDRICAL_SURFACE ( 'NONE', #696, 3.100000000000000089 ) ;
#591 = EDGE_CURVE ( 'NONE', #630, #604, #86, .T. ) ;
#592 = ORIENTED_EDGE ( 'NONE', *, *, #692, .T. ) ;
#593 = DIRECTION ( 'NONE',  ( -0.000000000000000000, 1.000000000000000000, -0.000000000000000000 ) ) ;
#594 = ORIENTED_EDGE ( 'NONE', *, *, #55, .T. ) ;
#595 = DIRECTION ( 'NONE',  ( 0.000000000000000000, 0.000000000000000000, 1.000000000000000000 ) ) ;
#596 = AXIS2_PLACEMENT_3D ( 'NONE', #240, #235, #343 ) ;
#597 = LINE ( 'NONE', #654, #367 ) ;
#598 = DIRECTION ( 'NONE',  ( 0.000000000000000000, -1.000000000000000000, 0.000000000000000000 ) ) ;
#599 = ADVANCED_FACE ( 'NONE', ( #621 ), #504, .F. ) ;
#600 = DIRECTION ( 'NONE',  ( 0.000000000000000000, -1.000000000000000000, 0.000000000000000000 ) ) ;
#601 = DIRECTION ( 'NONE',  ( 0.000000000000000000, 1.000000000000000000, 0.000000000000000000 ) ) ;
#602 = DIRECTION ( 'NONE',  ( 0.000000000000000000, 1.000000000000000000, 0.000000000000000000 ) ) ;
#603 = CARTESIAN_POINT ( 'NONE',  ( 15.24020847153581926, 12.69999999999999929, -2.227010588465543783 ) ) ;
#604 = VERTEX_POINT ( 'NONE', #73 ) ;
#605 = DIRECTION ( 'NONE',  ( 0.000000000000000000, 0.000000000000000000, -1.000000000000000000 ) ) ;
#606 = EDGE_LOOP ( 'NONE', ( #136, #495, #138, #693 ) ) ;
#607 = EDGE_CURVE ( 'NONE', #217, #159, #576, .T. ) ;
#608 = ORGANIZATION ( 'UNSPECIFIED', 'UNSPECIFIED', '' ) ;
#609 = CIRCLE ( 'NONE', #359, 3.100000000000000089 ) ;
#610 = ADVANCED_BREP_SHAPE_REPRESENTATION ( 'Probe holder', ( #634, #506 ), #480 ) ;
#611 = CARTESIAN_POINT ( 'NONE',  ( -11.05457820188918561, 12.69999999999999929, -10.72472988915460945 ) ) ;
#612 = CARTESIAN_POINT ( 'NONE',  ( 12.69999999999999929, 0.000000000000000000, -11.01800251115047224 ) ) ;
#613 = ORIENTED_EDGE ( 'NONE', *, *, #161, .T. ) ;
#614 = DIRECTION ( 'NONE',  ( 0.000000000000000000, -1.000000000000000000, 0.000000000000000000 ) ) ;
#615 = ORIENTED_EDGE ( 'NONE', *, *, #591, .T. ) ;
#616 = EDGE_CURVE ( 'NONE', #441, #630, #386, .T. ) ;
#617 = CARTESIAN_POINT ( 'NONE',  ( 12.69999999999999929, 0.000000000000000000, -6.255502511150466738 ) ) ;
#618 = ORIENTED_EDGE ( 'NONE', *, *, #271, .T. ) ;
#619 = CARTESIAN_POINT ( 'NONE',  ( 0.000000000000000000, 0.000000000000000000, 0.000000000000000000 ) ) ;
#620 = ORIENTED_EDGE ( 'NONE', *, *, #472, .F. ) ;
#621 = FACE_OUTER_BOUND ( 'NONE', #369, .T. ) ;
#622 = VECTOR ( 'NONE', #190, 1000.000000000000000 ) ;
#623 = DIRECTION ( 'NONE',  ( 0.000000000000000000, -1.000000000000000000, 0.000000000000000000 ) ) ;
#624 = CIRCLE ( 'NONE', #250, 6.245000000000000995 ) ;
#626 = ADVANCED_FACE ( 'NONE', ( #35 ), #384, .T. ) ;
#625 = VERTEX_POINT ( 'NONE', #396 ) ;
#627 = CARTESIAN_POINT ( 'NONE',  ( 3.330940032491591207, 12.69999999999999929, 5.282505418827788901 ) ) ;
#628 = ORIENTED_EDGE ( 'NONE', *, *, #348, .F. ) ;
#629 = DIRECTION ( 'NONE',  ( 0.000000000000000000, 0.000000000000000000, 1.000000000000000000 ) ) ;
#630 = VERTEX_POINT ( 'NONE', #514 ) ;
#631 = DIRECTION ( 'NONE',  ( 0.000000000000000000, -1.000000000000000000, 0.000000000000000000 ) ) ;
#632 = APPROVAL_STATUS ( 'not_yet_approved' ) ;
#633 = PRODUCT_DEFINITION ( 'UNKNOWN', '', #586, #704 ) ;
#634 = MANIFOLD_SOLID_BREP ( 'Cut-Extrude4', #42 ) ;
#635 = ORIENTED_EDGE ( 'NONE', *, *, #143, .T. ) ;
#636 = VECTOR ( 'NONE', #349, 999.9999999999998863 ) ;
#637 = PERSON_AND_ORGANIZATION_ROLE ( 'design_owner' ) ;
#638 = CIRCLE ( 'NONE', #336, 3.378199999999999648 ) ;
#639 = ORIENTED_EDGE ( 'NONE', *, *, #616, .T. ) ;
#640 = PERSON_AND_ORGANIZATION ( #675, #608 ) ;
#641 = VERTEX_POINT ( 'NONE', #566 ) ;
#642 = VERTEX_POINT ( 'NONE', #284 ) ;
#643 = VERTEX_POINT ( 'NONE', #231 ) ;
#644 = DIRECTION ( 'NONE',  ( 0.000000000000000000, -1.000000000000000000, 0.000000000000000000 ) ) ;
#645 = APPROVAL_PERSON_ORGANIZATION ( #409, #518, #470 ) ;
#646 = CC_DESIGN_PERSON_AND_ORGANIZATION_ASSIGNMENT ( #687, #197, ( #586 ) ) ;
#647 = AXIS2_PLACEMENT_3D ( 'NONE', #89, #572, #574 ) ;
#648 = EDGE_LOOP ( 'NONE', ( #171, #215 ) ) ;
#649 = AXIS2_PLACEMENT_3D ( 'NONE', #351, #461, #95 ) ;
#650 = CARTESIAN_POINT ( 'NONE',  ( 0.000000000000000000, 0.000000000000000000, 2.332952152375707649E-15 ) ) ;
#651 = ORIENTED_EDGE ( 'NONE', *, *, #184, .F. ) ;
#652 = CARTESIAN_POINT ( 'NONE',  ( 12.69999999999999929, 12.69999999999999929, -6.255502511150466738 ) ) ;
#653 = ADVANCED_FACE ( 'NONE', ( #176 ), #32, .F. ) ;
#654 = CARTESIAN_POINT ( 'NONE',  ( 0.000000000000000000, 0.000000000000000000, 3.100000000000000089 ) ) ;
#655 = CARTESIAN_POINT ( 'NONE',  ( 15.24020847153581926, 12.69999999999999929, -2.227010588465543783 ) ) ;
#656 = CYLINDRICAL_SURFACE ( 'NONE', #278, 3.378199999999996095 ) ;
#657 = DIRECTION ( 'NONE',  ( 0.000000000000000000, -1.000000000000000000, 0.000000000000000000 ) ) ;
#658 = CARTESIAN_POINT ( 'NONE',  ( 2.157618714793076098, 12.69999999999999929, -5.860435690422222343 ) ) ;
#659 = CARTESIAN_POINT ( 'NONE',  ( 3.469446951953614189E-15, 12.69999999999999929, -6.654799584907672205 ) ) ;
#660 = VERTEX_POINT ( 'NONE', #129 ) ;
#661 = DIRECTION ( 'NONE',  ( -0.8458775690676999526, 0.000000000000000000, 0.5333771068841617335 ) ) ;
#662 = DIRECTION ( 'NONE',  ( -0.9384204468250166853, 0.000000000000000000, 0.3454953906794361318 ) ) ;
#663 = CARTESIAN_POINT ( 'NONE',  ( 0.000000000000000000, 60.00000000000000000, 0.000000000000000000 ) ) ;
#664 = ORIENTED_EDGE ( 'NONE', *, *, #529, .F. ) ;
#665 = CARTESIAN_POINT ( 'NONE',  ( 12.69999999999999929, 12.69999999999999929, -6.255502511150466738 ) ) ;
#666 = VERTEX_POINT ( 'NONE', #402 ) ;
#667 = EDGE_CURVE ( 'NONE', #449, #643, #345, .T. ) ;
#668 = CIRCLE ( 'NONE', #596, 6.245000000000000995 ) ;
#669 = VECTOR ( 'NONE', #166, 1000.000000000000000 ) ;
#670 = CIRCLE ( 'NONE', #12, 4.762500000000004619 ) ;
#671 = DIRECTION ( 'NONE',  ( 0.000000000000000000, 0.000000000000000000, -1.000000000000000000 ) ) ;
#672 = DIRECTION ( 'NONE',  ( 0.000000000000000000, 0.000000000000000000, 1.000000000000000000 ) ) ;
#673 = ORIENTED_EDGE ( 'NONE', *, *, #29, .T. ) ;
#674 = LINE ( 'NONE', #390, #636 ) ;
#675 = PERSON ( 'UNSPECIFIED', 'UNSPECIFIED', 'UNSPECIFIED', ('UNSPECIFIED'), ('UNSPECIFIED'), ('UNSPECIFIED') ) ;
#676 = CARTESIAN_POINT ( 'NONE',  ( 12.69999999999999929, 0.000000000000000000, -6.255502511150466738 ) ) ;
#677 = VERTEX_POINT ( 'NONE', #24 ) ;
#678 = DIRECTION ( 'NONE',  ( 0.000000000000000000, -1.000000000000000000, 0.000000000000000000 ) ) ;
#679 = APPROVAL ( #152, 'UNSPECIFIED' ) ;
#680 = CARTESIAN_POINT ( 'NONE',  ( 12.69999999999999929, 12.69999999999999929, -11.01800251115047224 ) ) ;
#681 = ORIENTED_EDGE ( 'NONE', *, *, #355, .F. ) ;
#682 = FACE_OUTER_BOUND ( 'NONE', #333, .T. ) ;
#683 = CIRCLE ( 'NONE', #56, 4.762500000000004619 ) ;
#684 = CARTESIAN_POINT ( 'NONE',  ( 3.330940032491591207, 12.69999999999999929, 5.282505418827788901 ) ) ;
#685 = ORIENTED_EDGE ( 'NONE', *, *, #438, .T. ) ;
#686 = CARTESIAN_POINT ( 'NONE',  ( 3.330940032491591207, 0.000000000000000000, 5.282505418827788901 ) ) ;
#687 = PERSON_AND_ORGANIZATION ( #675, #608 ) ;
#688 = ORIENTED_EDGE ( 'NONE', *, *, #209, .T. ) ;
#689 = DIRECTION ( 'NONE',  ( 0.000000000000000000, -1.000000000000000000, 0.000000000000000000 ) ) ;
#690 = DATE_TIME_ROLE ( 'classification_date' ) ;
#691 = EDGE_CURVE ( 'NONE', #660, #128, #668, .T. ) ;
#692 = EDGE_CURVE ( 'NONE', #549, #203, #562, .T. ) ;
#693 = ORIENTED_EDGE ( 'NONE', *, *, #61, .T. ) ;
#694 = AXIS2_PLACEMENT_3D ( 'NONE', #173, #13, #119 ) ;
#695 =( NAMED_UNIT ( * ) PLANE_ANGLE_UNIT ( ) SI_UNIT ( $, .RADIAN. ) );
#696 = AXIS2_PLACEMENT_3D ( 'NONE', #266, #372, #261 ) ;
#697 = EDGE_LOOP ( 'NONE', ( #364, #639 ) ) ;
#698 = EDGE_CURVE ( 'NONE', #82, #582, #113, .T. ) ;
#699 = VERTEX_POINT ( 'NONE', #352 ) ;
#700 = DIRECTION ( 'NONE',  ( 0.000000000000000000, -1.000000000000000000, 0.000000000000000000 ) ) ;
#701 = ORIENTED_EDGE ( 'NONE', *, *, #37, .T. ) ;
#702 = DIRECTION ( 'NONE',  ( 0.000000000000000000, -0.000000000000000000, -1.000000000000000000 ) ) ;
#703 = VECTOR ( 'NONE', #678, 1000.000000000000000 ) ;
#704 = DESIGN_CONTEXT ( 'detailed design', #153, 'design' ) ;
ENDSEC;
END-ISO-10303-21;
