ISO-10303-21;
HEADER;
FILE_DESCRIPTION (( 'STEP AP203' ),
    '1' );
FILE_NAME ('Probe touch plate.STEP',
    '2026-06-10T15:41:55',
    ( '' ),
    ( '' ),
    'SwSTEP 2.0',
    'SolidWorks 2025',
    '' );
FILE_SCHEMA (( 'CONFIG_CONTROL_DESIGN' ));
ENDSEC;

DATA;
#1 = FACE_OUTER_BOUND ( 'NONE', #51, .T. ) ;
#2 = CIRCLE ( 'NONE', #295, 0.3740157480314960647 ) ;
#3 = CARTESIAN_POINT ( 'NONE',  ( 0.000000000000000000, 0.2600000000000000089, -0.1387795269685039579 ) ) ;
#4 = PRODUCT_RELATED_PRODUCT_CATEGORY ( 'detail', '', ( #41 ) ) ;
#5 = CARTESIAN_POINT ( 'NONE',  ( 1.699559034891621151E-17, 0.2600000000000000089, 0.1387795269685039579 ) ) ;
#6 = CARTESIAN_POINT ( 'NONE',  ( 0.000000000000000000, 0.2600000000000000089, -0.3740157480314960647 ) ) ;
#7 = CARTESIAN_POINT ( 'NONE',  ( 0.000000000000000000, 0.2600000000000000089, 0.000000000000000000 ) ) ;
#8 = FACE_BOUND ( 'NONE', #263, .T. ) ;
#9 = DIRECTION ( 'NONE',  ( 0.000000000000000000, 1.000000000000000000, 0.000000000000000000 ) ) ;
#10 = DIRECTION ( 'NONE',  ( 0.000000000000000000, 0.000000000000000000, -1.000000000000000000 ) ) ;
#11 = CIRCLE ( 'NONE', #108, 0.2490157480314949268 ) ;
#12 = CC_DESIGN_PERSON_AND_ORGANIZATION_ASSIGNMENT ( #48, #252, ( #58 ) ) ;
#13 = APPLICATION_PROTOCOL_DEFINITION ( 'international standard', 'config_control_design', 1994, #144 ) ;
#14 =( NAMED_UNIT ( * ) SI_UNIT ( $, .STERADIAN. ) SOLID_ANGLE_UNIT ( ) );
#15 = EDGE_LOOP ( 'NONE', ( #301, #168, #284, #162 ) ) ;
#16 = CALENDAR_DATE ( 2026, 10, 6 ) ;
#17 = ORIENTED_EDGE ( 'NONE', *, *, #228, .F. ) ;
#18 = CIRCLE ( 'NONE', #19, 0.3740157480314960647 ) ;
#19 = AXIS2_PLACEMENT_3D ( 'NONE', #288, #236, #122 ) ;
#20 = CALENDAR_DATE ( 2026, 10, 6 ) ;
#21 = ORIENTED_EDGE ( 'NONE', *, *, #106, .F. ) ;
#22 = LENGTH_MEASURE_WITH_UNIT ( LENGTH_MEASURE( 0.02539999999999999897 ), #259 );
#23 = ADVANCED_FACE ( 'NONE', ( #31 ), #169, .T. ) ;
#24 = APPROVAL_PERSON_ORGANIZATION ( #278, #120, #250 ) ;
#25 = CARTESIAN_POINT ( 'NONE',  ( 0.000000000000000000, 0.3224999999999999534, -0.3740157480314960647 ) ) ;
#26 = CARTESIAN_POINT ( 'NONE',  ( 0.000000000000000000, 0.1250000000000005829, 0.000000000000000000 ) ) ;
#27 = DIRECTION ( 'NONE',  ( 0.000000000000000000, 0.000000000000000000, 1.000000000000000000 ) ) ;
#28 = CIRCLE ( 'NONE', #209, 0.1387795269685039579 ) ;
#29 = CC_DESIGN_APPROVAL ( #38, ( #137 ) ) ;
#30 = LINE ( 'NONE', #3, #71 ) ;
#31 = FACE_OUTER_BOUND ( 'NONE', #190, .T. ) ;
#32 = FACE_OUTER_BOUND ( 'NONE', #15, .T. ) ;
#33 = ADVANCED_FACE ( 'NONE', ( #218 ), #77, .T. ) ;
#34 = CARTESIAN_POINT ( 'NONE',  ( 4.580371886574745485E-17, 0.1250000000000005829, -0.3740157480314960647 ) ) ;
#35 = AXIS2_PLACEMENT_3D ( 'NONE', #7, #274, #110 ) ;
#36 = CARTESIAN_POINT ( 'NONE',  ( 0.000000000000000000, 0.1250000000000005829, 0.3740157480314960647 ) ) ;
#37 = DIRECTION ( 'NONE',  ( -0.000000000000000000, -1.000000000000000000, -0.000000000000000000 ) ) ;
#38 = APPROVAL ( #188, 'UNSPECIFIED' ) ;
#39 = CYLINDRICAL_SURFACE ( 'NONE', #126, 0.1387795269685039579 ) ;
#40 = AXIS2_PLACEMENT_3D ( 'NONE', #293, #84, #227 ) ;
#41 = PRODUCT ( 'Probe touch plate', 'Probe touch plate', '', ( #115 ) ) ;
#42 = CALENDAR_DATE ( 2026, 10, 6 ) ;
#43 = PERSON_AND_ORGANIZATION ( #249, #64 ) ;
#44 = VERTEX_POINT ( 'NONE', #25 ) ;
#45 = EDGE_CURVE ( 'NONE', #260, #44, #18, .T. ) ;
#46 = COORDINATED_UNIVERSAL_TIME_OFFSET ( 5, 0, .BEHIND. ) ;
#47 = ORIENTED_EDGE ( 'NONE', *, *, #264, .T. ) ;
#48 = PERSON_AND_ORGANIZATION ( #249, #64 ) ;
#49 = ORIENTED_EDGE ( 'NONE', *, *, #306, .F. ) ;
#50 = DATE_AND_TIME ( #16, #166 ) ;
#51 = EDGE_LOOP ( 'NONE', ( #276, #141, #104, #124 ) ) ;
#52 = ADVANCED_FACE ( 'NONE', ( #1 ), #197, .T. ) ;
#53 = CARTESIAN_POINT ( 'NONE',  ( 0.000000000000000000, 0.1250000000000005829, 0.000000000000000000 ) ) ;
#54 = AXIS2_PLACEMENT_3D ( 'NONE', #135, #136, #248 ) ;
#55 = EDGE_LOOP ( 'NONE', ( #215, #279 ) ) ;
#56 = ORIENTED_EDGE ( 'NONE', *, *, #216, .T. ) ;
#57 = CARTESIAN_POINT ( 'NONE',  ( 0.000000000000000000, 0.2600000000000000089, 0.000000000000000000 ) ) ;
#58 = PRODUCT_DEFINITION_FORMATION_WITH_SPECIFIED_SOURCE ( 'ANY', '', #41, .NOT_KNOWN. ) ;
#59 = DIRECTION ( 'NONE',  ( -0.000000000000000000, -1.000000000000000000, -0.000000000000000000 ) ) ;
#60 = CYLINDRICAL_SURFACE ( 'NONE', #262, 0.3740157480314960647 ) ;
#61 = EDGE_CURVE ( 'NONE', #260, #73, #222, .T. ) ;
#62 = FACE_OUTER_BOUND ( 'NONE', #298, .T. ) ;
#63 = CARTESIAN_POINT ( 'NONE',  ( 0.000000000000000000, 0.1250000000000005829, -0.3740157480314960647 ) ) ;
#64 = ORGANIZATION ( 'UNSPECIFIED', 'UNSPECIFIED', '' ) ;
#65 = DIRECTION ( 'NONE',  ( -0.000000000000000000, -1.000000000000000000, -0.000000000000000000 ) ) ;
#66 = CARTESIAN_POINT ( 'NONE',  ( 0.000000000000000000, 0.2600000000000000089, 0.000000000000000000 ) ) ;
#67 = APPROVAL_STATUS ( 'not_yet_approved' ) ;
#68 = PERSON_AND_ORGANIZATION_ROLE ( 'creator' ) ;
#69 = COORDINATED_UNIVERSAL_TIME_OFFSET ( 5, 0, .BEHIND. ) ;
#70 = ORIENTED_EDGE ( 'NONE', *, *, #155, .T. ) ;
#71 = VECTOR ( 'NONE', #128, 39.37007874015748143 ) ;
#72 = EDGE_CURVE ( 'NONE', #44, #260, #2, .T. ) ;
#73 = VERTEX_POINT ( 'NONE', #261 ) ;
#74 = VERTEX_POINT ( 'NONE', #238 ) ;
#75 = AXIS2_PLACEMENT_3D ( 'NONE', #97, #140, #185 ) ;
#76 = DATE_AND_TIME ( #20, #235 ) ;
#77 = PLANE ( 'NONE',  #98 ) ;
#78 = UNCERTAINTY_MEASURE_WITH_UNIT (LENGTH_MEASURE( 1.000000000000000082E-05 ), #280, 'distance_accuracy_value', 'NONE');
#79 = DIRECTION ( 'NONE',  ( 0.000000000000000000, -0.000000000000000000, 1.000000000000000000 ) ) ;
#80 = CARTESIAN_POINT ( 'NONE',  ( 0.000000000000000000, 0.3224999999999999534, 0.000000000000000000 ) ) ;
#81 = APPROVAL ( #254, 'UNSPECIFIED' ) ;
#82 = DIRECTION ( 'NONE',  ( 0.000000000000000000, -0.000000000000000000, 1.000000000000000000 ) ) ;
#83 = CARTESIAN_POINT ( 'NONE',  ( 4.580371886574745485E-17, 0.3224999999999999534, 0.3740157480314960647 ) ) ;
#84 = DIRECTION ( 'NONE',  ( 0.000000000000000000, 1.000000000000000000, 0.000000000000000000 ) ) ;
#85 = EDGE_CURVE ( 'NONE', #73, #303, #205, .T. ) ;
#86 = VECTOR ( 'NONE', #102, 39.37007874015748143 ) ;
#87 = DIRECTION ( 'NONE',  ( 0.000000000000000000, 0.000000000000000000, 1.000000000000000000 ) ) ;
#88 = AXIS2_PLACEMENT_3D ( 'NONE', #107, #270, #180 ) ;
#89 = APPROVAL_DATE_TIME ( #50, #38 ) ;
#90 = EDGE_CURVE ( 'NONE', #213, #74, #30, .T. ) ;
#91 = ORIENTED_EDGE ( 'NONE', *, *, #45, .T. ) ;
#92 = LOCAL_TIME ( 11, 41, 55.00000000000000000, #116 ) ;
#93 = DATE_TIME_ROLE ( 'classification_date' ) ;
#94 = SECURITY_CLASSIFICATION_LEVEL ( 'unclassified' ) ;
#95 = ORIENTED_EDGE ( 'NONE', *, *, #163, .F. ) ;
#96 = ADVANCED_FACE ( 'NONE', ( #173 ), #266, .F. ) ;
#97 = CARTESIAN_POINT ( 'NONE',  ( 0.000000000000000000, 0.000000000000000000, 0.000000000000000000 ) ) ;
#98 = AXIS2_PLACEMENT_3D ( 'NONE', #80, #129, #79 ) ;
#99 = DESIGN_CONTEXT ( 'detailed design', #144, 'design' ) ;
#100 = VERTEX_POINT ( 'NONE', #5 ) ;
#101 = DIRECTION ( 'NONE',  ( 0.000000000000000000, 0.000000000000000000, -1.000000000000000000 ) ) ;
#102 = DIRECTION ( 'NONE',  ( -0.000000000000000000, -1.000000000000000000, -0.000000000000000000 ) ) ;
#103 = AXIS2_PLACEMENT_3D ( 'NONE', #149, #192, #101 ) ;
#104 = ORIENTED_EDGE ( 'NONE', *, *, #85, .F. ) ;
#105 = ORIENTED_EDGE ( 'NONE', *, *, #267, .F. ) ;
#106 = EDGE_CURVE ( 'NONE', #151, #305, #11, .T. ) ;
#107 = CARTESIAN_POINT ( 'NONE',  ( 0.000000000000000000, 0.000000000000000000, 0.000000000000000000 ) ) ;
#108 = AXIS2_PLACEMENT_3D ( 'NONE', #175, #234, #158 ) ;
#109 = CC_DESIGN_APPROVAL ( #120, ( #58 ) ) ;
#110 = DIRECTION ( 'NONE',  ( 0.000000000000000000, 0.000000000000000000, 1.000000000000000000 ) ) ;
#111 = PLANE ( 'NONE',  #40 ) ;
#112 = CARTESIAN_POINT ( 'NONE',  ( 0.000000000000000000, 0.2600000000000000089, 0.000000000000000000 ) ) ;
#113 = CIRCLE ( 'NONE', #131, 0.1387795269685039579 ) ;
#114 = CARTESIAN_POINT ( 'NONE',  ( 0.000000000000000000, 0.1250000000000005829, 0.000000000000000000 ) ) ;
#115 = MECHANICAL_CONTEXT ( 'NONE', #117, 'mechanical' ) ;
#116 = COORDINATED_UNIVERSAL_TIME_OFFSET ( 5, 0, .BEHIND. ) ;
#117 = APPLICATION_CONTEXT ( 'configuration controlled 3d designs of mechanical parts and assemblies' ) ;
#118 = LOCAL_TIME ( 11, 41, 55.00000000000000000, #182 ) ;
#119 = APPROVAL_ROLE ( '' ) ;
#120 = APPROVAL ( #67, 'UNSPECIFIED' ) ;
#121 = VECTOR ( 'NONE', #292, 39.37007874015748143 ) ;
#122 = DIRECTION ( 'NONE',  ( 0.000000000000000000, 0.000000000000000000, 1.000000000000000000 ) ) ;
#123 = EDGE_CURVE ( 'NONE', #305, #303, #291, .T. ) ;
#124 = ORIENTED_EDGE ( 'NONE', *, *, #155, .F. ) ;
#125 = ORIENTED_EDGE ( 'NONE', *, *, #223, .T. ) ;
#126 = AXIS2_PLACEMENT_3D ( 'NONE', #66, #65, #181 ) ;
#127 = PRODUCT_DEFINITION_SHAPE ( 'NONE', 'NONE',  #137 ) ;
#128 = DIRECTION ( 'NONE',  ( -0.000000000000000000, -1.000000000000000000, -0.000000000000000000 ) ) ;
#129 = DIRECTION ( 'NONE',  ( 0.000000000000000000, 1.000000000000000000, 0.000000000000000000 ) ) ;
#130 = DIRECTION ( 'NONE',  ( 0.000000000000000000, 0.000000000000000000, 1.000000000000000000 ) ) ;
#131 = AXIS2_PLACEMENT_3D ( 'NONE', #112, #9, #130 ) ;
#132 = CARTESIAN_POINT ( 'NONE',  ( 0.000000000000000000, 0.000000000000000000, 0.2490157480314949268 ) ) ;
#133 = ADVANCED_FACE ( 'NONE', ( #203 ), #39, .F. ) ;
#134 = DIRECTION ( 'NONE',  ( -0.000000000000000000, 1.000000000000000000, -0.000000000000000000 ) ) ;
#135 = CARTESIAN_POINT ( 'NONE',  ( 0.000000000000000000, 0.1250000000000005829, 0.000000000000000000 ) ) ;
#136 = DIRECTION ( 'NONE',  ( -0.000000000000000000, 1.000000000000000000, -0.000000000000000000 ) ) ;
#137 = PRODUCT_DEFINITION ( 'UNKNOWN', '', #58, #99 ) ;
#138 = MANIFOLD_SOLID_BREP ( 'Chamfer1', #287 ) ;
#139 = COORDINATED_UNIVERSAL_TIME_OFFSET ( 5, 0, .BEHIND. ) ;
#140 = DIRECTION ( 'NONE',  ( 0.000000000000000000, 0.000000000000000000, 1.000000000000000000 ) ) ;
#141 = ORIENTED_EDGE ( 'NONE', *, *, #123, .T. ) ;
#142 = CC_DESIGN_SECURITY_CLASSIFICATION ( #272, ( #58 ) ) ;
#143 = PERSON_AND_ORGANIZATION ( #249, #64 ) ;
#144 = APPLICATION_CONTEXT ( 'configuration controlled 3d designs of mechanical parts and assemblies' ) ;
#145 = DIRECTION ( 'NONE',  ( 0.000000000000000000, 0.000000000000000000, -1.000000000000000000 ) ) ;
#146 = AXIS2_PLACEMENT_3D ( 'NONE', #157, #271, #82 ) ;
#147 = APPROVAL_PERSON_ORGANIZATION ( #143, #81, #119 ) ;
#148 = ADVANCED_FACE ( 'NONE', ( #156 ), #154, .F. ) ;
#149 = CARTESIAN_POINT ( 'NONE',  ( 0.000000000000000000, 0.2600000000000000089, 0.000000000000000000 ) ) ;
#150 = ORIENTED_EDGE ( 'NONE', *, *, #90, .T. ) ;
#151 = VERTEX_POINT ( 'NONE', #132 ) ;
#152 = ORIENTED_EDGE ( 'NONE', *, *, #72, .F. ) ;
#153 = DIRECTION ( 'NONE',  ( 0.000000000000000000, 1.000000000000000000, 0.000000000000000000 ) ) ;
#154 = PLANE ( 'NONE',  #146 ) ;
#155 = EDGE_CURVE ( 'NONE', #151, #73, #177, .T. ) ;
#156 = FACE_OUTER_BOUND ( 'NONE', #55, .T. ) ;
#157 = CARTESIAN_POINT ( 'NONE',  ( 0.000000000000000000, 0.2600000000000000089, 0.000000000000000000 ) ) ;
#158 = DIRECTION ( 'NONE',  ( 0.000000000000000000, 0.000000000000000000, 1.000000000000000000 ) ) ;
#159 = ADVANCED_FACE ( 'NONE', ( #294 ), #256, .T. ) ;
#160 = APPROVAL_DATE_TIME ( #258, #120 ) ;
#161 = CALENDAR_DATE ( 2026, 10, 6 ) ;
#162 = ORIENTED_EDGE ( 'NONE', *, *, #264, .F. ) ;
#163 = EDGE_CURVE ( 'NONE', #100, #253, #247, .T. ) ;
#164 = DATE_AND_TIME ( #42, #118 ) ;
#165 = AXIS2_PLACEMENT_3D ( 'NONE', #179, #229, #87 ) ;
#166 = LOCAL_TIME ( 11, 41, 55.00000000000000000, #69 ) ;
#167 = PERSON_AND_ORGANIZATION ( #249, #64 ) ;
#168 = ORIENTED_EDGE ( 'NONE', *, *, #61, .T. ) ;
#169 = CYLINDRICAL_SURFACE ( 'NONE', #103, 0.3740157480314960647 ) ;
#170 = CIRCLE ( 'NONE', #35, 0.1387795269685039579 ) ;
#171 = CARTESIAN_POINT ( 'NONE',  ( 0.000000000000000000, 0.3224999999999999534, 0.000000000000000000 ) ) ;
#172 = CC_DESIGN_PERSON_AND_ORGANIZATION_ASSIGNMENT ( #214, #212, ( #272 ) ) ;
#173 = FACE_OUTER_BOUND ( 'NONE', #195, .T. ) ;
#174 = SHAPE_DEFINITION_REPRESENTATION ( #127, #187 ) ;
#175 = CARTESIAN_POINT ( 'NONE',  ( 0.000000000000000000, 0.000000000000000000, 0.000000000000000000 ) ) ;
#176 = AXIS2_PLACEMENT_3D ( 'NONE', #26, #268, #219 ) ;
#177 = LINE ( 'NONE', #36, #121 ) ;
#178 = DIRECTION ( 'NONE',  ( -0.000000000000000000, -1.000000000000000000, -0.000000000000000000 ) ) ;
#179 = CARTESIAN_POINT ( 'NONE',  ( 0.000000000000000000, 0.000000000000000000, 0.000000000000000000 ) ) ;
#180 = DIRECTION ( 'NONE',  ( 0.000000000000000000, 0.000000000000000000, 1.000000000000000000 ) ) ;
#181 = DIRECTION ( 'NONE',  ( 0.000000000000000000, 0.000000000000000000, -1.000000000000000000 ) ) ;
#182 = COORDINATED_UNIVERSAL_TIME_OFFSET ( 5, 0, .BEHIND. ) ;
#183 = APPLICATION_PROTOCOL_DEFINITION ( 'international standard', 'config_control_design', 1994, #117 ) ;
#184 = ORIENTED_EDGE ( 'NONE', *, *, #90, .F. ) ;
#185 = DIRECTION ( 'NONE',  ( 1.000000000000000000, 0.000000000000000000, 0.000000000000000000 ) ) ;
#186 = ORIENTED_EDGE ( 'NONE', *, *, #123, .F. ) ;
#187 = ADVANCED_BREP_SHAPE_REPRESENTATION ( 'Probe touch plate', ( #138, #75 ), #282 ) ;
#188 = APPROVAL_STATUS ( 'not_yet_approved' ) ;
#189 = CC_DESIGN_DATE_AND_TIME_ASSIGNMENT ( #300, #93, ( #272 ) ) ;
#190 = EDGE_LOOP ( 'NONE', ( #281, #152, #47, #265 ) ) ;
#191 = EDGE_LOOP ( 'NONE', ( #217, #91 ) ) ;
#192 = DIRECTION ( 'NONE',  ( -0.000000000000000000, -1.000000000000000000, -0.000000000000000000 ) ) ;
#193 = CIRCLE ( 'NONE', #88, 0.1387795269685039579 ) ;
#194 = EDGE_LOOP ( 'NONE', ( #186, #21, #70, #49 ) ) ;
#195 = EDGE_LOOP ( 'NONE', ( #56, #240, #105, #184 ) ) ;
#196 = DIRECTION ( 'NONE',  ( 8.659560562354951347E-17, 0.7071067811865459074, -0.7071067811865491270 ) ) ;
#197 = CONICAL_SURFACE ( 'NONE', #176, 0.3740157480314960647, 0.7853981633974504994 ) ;
#198 = LOCAL_TIME ( 11, 41, 55.00000000000000000, #139 ) ;
#199 = CC_DESIGN_PERSON_AND_ORGANIZATION_ASSIGNMENT ( #43, #283, ( #58 ) ) ;
#200 = DIRECTION ( 'NONE',  ( -0.000000000000000000, -1.000000000000000000, -0.000000000000000000 ) ) ;
#201 = DIMENSIONAL_EXPONENTS ( 1.000000000000000000, 0.000000000000000000, 0.000000000000000000, 0.000000000000000000, 0.000000000000000000, 0.000000000000000000, 0.000000000000000000 ) ;
#202 = CARTESIAN_POINT ( 'NONE',  ( 0.000000000000000000, 0.2600000000000000089, -0.1387795269685039579 ) ) ;
#203 = FACE_OUTER_BOUND ( 'NONE', #290, .T. ) ;
#204 = EDGE_CURVE ( 'NONE', #305, #151, #225, .T. ) ;
#205 = CIRCLE ( 'NONE', #304, 0.3740157480314960647 ) ;
#206 = APPROVAL_PERSON_ORGANIZATION ( #302, #38, #231 ) ;
#207 = DIRECTION ( 'NONE',  ( 0.000000000000000000, 0.000000000000000000, 1.000000000000000000 ) ) ;
#208 = PERSON_AND_ORGANIZATION ( #249, #64 ) ;
#209 = AXIS2_PLACEMENT_3D ( 'NONE', #226, #153, #224 ) ;
#210 = CALENDAR_DATE ( 2026, 10, 6 ) ;
#211 = ADVANCED_FACE ( 'NONE', ( #32 ), #60, .T. ) ;
#212 = PERSON_AND_ORGANIZATION_ROLE ( 'classification_officer' ) ;
#213 = VERTEX_POINT ( 'NONE', #202 ) ;
#214 = PERSON_AND_ORGANIZATION ( #249, #64 ) ;
#215 = ORIENTED_EDGE ( 'NONE', *, *, #216, .F. ) ;
#216 = EDGE_CURVE ( 'NONE', #213, #100, #113, .T. ) ;
#217 = ORIENTED_EDGE ( 'NONE', *, *, #72, .T. ) ;
#218 = FACE_OUTER_BOUND ( 'NONE', #191, .T. ) ;
#219 = DIRECTION ( 'NONE',  ( 0.000000000000000000, 0.000000000000000000, 1.000000000000000000 ) ) ;
#220 = DIRECTION ( 'NONE',  ( 0.000000000000000000, 0.000000000000000000, 1.000000000000000000 ) ) ;
#221 = DIRECTION ( 'NONE',  ( -0.000000000000000000, 1.000000000000000000, -0.000000000000000000 ) ) ;
#222 = LINE ( 'NONE', #308, #86 ) ;
#223 = EDGE_CURVE ( 'NONE', #100, #213, #170, .T. ) ;
#224 = DIRECTION ( 'NONE',  ( 0.000000000000000000, 0.000000000000000000, 1.000000000000000000 ) ) ;
#225 = CIRCLE ( 'NONE', #165, 0.2490157480314949268 ) ;
#226 = CARTESIAN_POINT ( 'NONE',  ( 0.000000000000000000, 0.000000000000000000, 0.000000000000000000 ) ) ;
#227 = DIRECTION ( 'NONE',  ( 0.000000000000000000, -0.000000000000000000, 1.000000000000000000 ) ) ;
#228 = EDGE_CURVE ( 'NONE', #253, #74, #28, .T. ) ;
#229 = DIRECTION ( 'NONE',  ( -0.000000000000000000, -1.000000000000000000, -0.000000000000000000 ) ) ;
#230 = PERSON_AND_ORGANIZATION_ROLE ( 'design_owner' ) ;
#231 = APPROVAL_ROLE ( '' ) ;
#232 = ORIENTED_EDGE ( 'NONE', *, *, #106, .T. ) ;
#233 = AXIS2_PLACEMENT_3D ( 'NONE', #57, #59, #145 ) ;
#234 = DIRECTION ( 'NONE',  ( -0.000000000000000000, -1.000000000000000000, -0.000000000000000000 ) ) ;
#235 = LOCAL_TIME ( 11, 41, 55.00000000000000000, #46 ) ;
#236 = DIRECTION ( 'NONE',  ( 0.000000000000000000, 1.000000000000000000, 0.000000000000000000 ) ) ;
#237 = DIRECTION ( 'NONE',  ( 0.000000000000000000, 1.000000000000000000, 0.000000000000000000 ) ) ;
#238 = CARTESIAN_POINT ( 'NONE',  ( 0.000000000000000000, 0.000000000000000000, -0.1387795269685039579 ) ) ;
#239 = CIRCLE ( 'NONE', #257, 0.3740157480314960647 ) ;
#240 = ORIENTED_EDGE ( 'NONE', *, *, #163, .T. ) ;
#241 = CC_DESIGN_PERSON_AND_ORGANIZATION_ASSIGNMENT ( #208, #68, ( #137 ) ) ;
#242 = CARTESIAN_POINT ( 'NONE',  ( 1.699559034891621151E-17, 0.2600000000000000089, 0.1387795269685039579 ) ) ;
#243 = CARTESIAN_POINT ( 'NONE',  ( 1.699559034891621151E-17, 0.000000000000000000, 0.1387795269685039579 ) ) ;
#244 = VECTOR ( 'NONE', #178, 39.37007874015748143 ) ;
#245 = CC_DESIGN_APPROVAL ( #81, ( #272 ) ) ;
#246 = CARTESIAN_POINT ( 'NONE',  ( 3.814967637107642798E-17, 0.000000000000000000, -0.2490157480314949268 ) ) ;
#247 = LINE ( 'NONE', #242, #299 ) ;
#248 = DIRECTION ( 'NONE',  ( 0.000000000000000000, 0.000000000000000000, 1.000000000000000000 ) ) ;
#249 = PERSON ( 'UNSPECIFIED', 'UNSPECIFIED', 'UNSPECIFIED', ('UNSPECIFIED'), ('UNSPECIFIED'), ('UNSPECIFIED') ) ;
#250 = APPROVAL_ROLE ( '' ) ;
#251 = CC_DESIGN_DATE_AND_TIME_ASSIGNMENT ( #164, #275, ( #137 ) ) ;
#252 = PERSON_AND_ORGANIZATION_ROLE ( 'creator' ) ;
#253 = VERTEX_POINT ( 'NONE', #243 ) ;
#254 = APPROVAL_STATUS ( 'not_yet_approved' ) ;
#255 = ORIENTED_EDGE ( 'NONE', *, *, #267, .T. ) ;
#256 = CONICAL_SURFACE ( 'NONE', #54, 0.3740157480314960647, 0.7853981633974504994 ) ;
#257 = AXIS2_PLACEMENT_3D ( 'NONE', #114, #134, #207 ) ;
#258 = DATE_AND_TIME ( #161, #198 ) ;
#259 =( LENGTH_UNIT ( ) NAMED_UNIT ( * ) SI_UNIT ( $, .METRE. ) );
#260 = VERTEX_POINT ( 'NONE', #83 ) ;
#261 = CARTESIAN_POINT ( 'NONE',  ( 4.580371886574745485E-17, 0.1250000000000005829, 0.3740157480314960647 ) ) ;
#262 = AXIS2_PLACEMENT_3D ( 'NONE', #269, #200, #10 ) ;
#263 = EDGE_LOOP ( 'NONE', ( #255, #289 ) ) ;
#264 = EDGE_CURVE ( 'NONE', #44, #303, #273, .T. ) ;
#265 = ORIENTED_EDGE ( 'NONE', *, *, #306, .T. ) ;
#266 = CYLINDRICAL_SURFACE ( 'NONE', #233, 0.1387795269685039579 ) ;
#267 = EDGE_CURVE ( 'NONE', #74, #253, #193, .T. ) ;
#268 = DIRECTION ( 'NONE',  ( -0.000000000000000000, 1.000000000000000000, -0.000000000000000000 ) ) ;
#269 = CARTESIAN_POINT ( 'NONE',  ( 0.000000000000000000, 0.2600000000000000089, 0.000000000000000000 ) ) ;
#270 = DIRECTION ( 'NONE',  ( 0.000000000000000000, 1.000000000000000000, 0.000000000000000000 ) ) ;
#271 = DIRECTION ( 'NONE',  ( 0.000000000000000000, 1.000000000000000000, 0.000000000000000000 ) ) ;
#272 = SECURITY_CLASSIFICATION ( '', '', #94 ) ;
#273 = LINE ( 'NONE', #6, #244 ) ;
#274 = DIRECTION ( 'NONE',  ( 0.000000000000000000, 1.000000000000000000, 0.000000000000000000 ) ) ;
#275 = DATE_TIME_ROLE ( 'creation_date' ) ;
#276 = ORIENTED_EDGE ( 'NONE', *, *, #204, .F. ) ;
#277 = VECTOR ( 'NONE', #196, 39.37007874015748143 ) ;
#278 = PERSON_AND_ORGANIZATION ( #249, #64 ) ;
#279 = ORIENTED_EDGE ( 'NONE', *, *, #223, .F. ) ;
#280 =( CONVERSION_BASED_UNIT ( 'INCH', #22 ) LENGTH_UNIT ( ) NAMED_UNIT ( #201 ) );
#281 = ORIENTED_EDGE ( 'NONE', *, *, #61, .F. ) ;
#282 =( GEOMETRIC_REPRESENTATION_CONTEXT ( 3 ) GLOBAL_UNCERTAINTY_ASSIGNED_CONTEXT ( ( #78 ) ) GLOBAL_UNIT_ASSIGNED_CONTEXT ( ( #280, #297, #14 ) ) REPRESENTATION_CONTEXT ( 'NONE', 'WORKASPACE' ) );
#283 = PERSON_AND_ORGANIZATION_ROLE ( 'design_supplier' ) ;
#284 = ORIENTED_EDGE ( 'NONE', *, *, #85, .T. ) ;
#285 = ORIENTED_EDGE ( 'NONE', *, *, #204, .T. ) ;
#286 = ADVANCED_FACE ( 'NONE', ( #62, #8 ), #111, .F. ) ;
#287 = CLOSED_SHELL ( 'NONE', ( #52, #96, #211, #286, #23, #133, #148, #33, #159 ) ) ;
#288 = CARTESIAN_POINT ( 'NONE',  ( 0.000000000000000000, 0.3224999999999999534, 0.000000000000000000 ) ) ;
#289 = ORIENTED_EDGE ( 'NONE', *, *, #228, .T. ) ;
#290 = EDGE_LOOP ( 'NONE', ( #95, #125, #150, #17 ) ) ;
#291 = LINE ( 'NONE', #34, #277 ) ;
#292 = DIRECTION ( 'NONE',  ( 0.000000000000000000, 0.7071067811865459074, 0.7071067811865491270 ) ) ;
#293 = CARTESIAN_POINT ( 'NONE',  ( 0.000000000000000000, 0.000000000000000000, 0.000000000000000000 ) ) ;
#294 = FACE_OUTER_BOUND ( 'NONE', #194, .T. ) ;
#295 = AXIS2_PLACEMENT_3D ( 'NONE', #171, #237, #27 ) ;
#296 = CC_DESIGN_PERSON_AND_ORGANIZATION_ASSIGNMENT ( #167, #230, ( #41 ) ) ;
#297 =( NAMED_UNIT ( * ) PLANE_ANGLE_UNIT ( ) SI_UNIT ( $, .RADIAN. ) );
#298 = EDGE_LOOP ( 'NONE', ( #232, #285 ) ) ;
#299 = VECTOR ( 'NONE', #37, 39.37007874015748143 ) ;
#300 = DATE_AND_TIME ( #210, #92 ) ;
#301 = ORIENTED_EDGE ( 'NONE', *, *, #45, .F. ) ;
#302 = PERSON_AND_ORGANIZATION ( #249, #64 ) ;
#303 = VERTEX_POINT ( 'NONE', #63 ) ;
#304 = AXIS2_PLACEMENT_3D ( 'NONE', #53, #221, #220 ) ;
#305 = VERTEX_POINT ( 'NONE', #246 ) ;
#306 = EDGE_CURVE ( 'NONE', #303, #73, #239, .T. ) ;
#307 = APPROVAL_DATE_TIME ( #76, #81 ) ;
#308 = CARTESIAN_POINT ( 'NONE',  ( 4.580371886574745485E-17, 0.2600000000000000089, 0.3740157480314960647 ) ) ;
ENDSEC;
END-ISO-10303-21;
