ISO-10303-21;
HEADER;
FILE_DESCRIPTION (( 'STEP AP203' ),
    '1' );
FILE_NAME ('x hard cover.STEP',
    '2026-05-26T16:10:59',
    ( '' ),
    ( '' ),
    'SwSTEP 2.0',
    'SolidWorks 2025',
    '' );
FILE_SCHEMA (( 'CONFIG_CONTROL_DESIGN' ));
ENDSEC;

DATA;
#1 = VECTOR ( 'NONE', #711, 39.37007874015748143 ) ;
#2 = ORIENTED_EDGE ( 'NONE', *, *, #105, .T. ) ;
#3 = DIRECTION ( 'NONE',  ( 0.000000000000000000, -0.000000000000000000, 1.000000000000000000 ) ) ;
#4 = DIRECTION ( 'NONE',  ( -0.000000000000000000, -1.000000000000000000, -0.000000000000000000 ) ) ;
#5 = CARTESIAN_POINT ( 'NONE',  ( 0.000000000000000000, 0.000000000000000000, 0.000000000000000000 ) ) ;
#6 = DIRECTION ( 'NONE',  ( 1.000000000000000000, 0.000000000000000000, 0.000000000000000000 ) ) ;
#7 = ORIENTED_EDGE ( 'NONE', *, *, #363, .F. ) ;
#8 = LINE ( 'NONE', #671, #365 ) ;
#9 = ORIENTED_EDGE ( 'NONE', *, *, #194, .F. ) ;
#10 = PERSON_AND_ORGANIZATION ( #187, #618 ) ;
#11 = VECTOR ( 'NONE', #74, 39.37007874015748143 ) ;
#12 = CARTESIAN_POINT ( 'NONE',  ( -0.8763779527559054650, -1.034023850722467817E-16, 0.000000000000000000 ) ) ;
#13 =( GEOMETRIC_REPRESENTATION_CONTEXT ( 3 ) GLOBAL_UNCERTAINTY_ASSIGNED_CONTEXT ( ( #285 ) ) GLOBAL_UNIT_ASSIGNED_CONTEXT ( ( #40, #619, #168 ) ) REPRESENTATION_CONTEXT ( 'NONE', 'WORKASPACE' ) );
#14 = EDGE_CURVE ( 'NONE', #351, #197, #597, .T. ) ;
#15 = CARTESIAN_POINT ( 'NONE',  ( 0.000000000000000000, -0.2181099999999999983, 0.1000000000000000056 ) ) ;
#16 = EDGE_CURVE ( 'NONE', #647, #587, #64, .T. ) ;
#17 = DIRECTION ( 'NONE',  ( -0.000000000000000000, -1.000000000000000000, -0.000000000000000000 ) ) ;
#18 = DIRECTION ( 'NONE',  ( -1.000000000000000000, 0.000000000000000000, 1.365923996832131609E-16 ) ) ;
#19 = CIRCLE ( 'NONE', #211, 0.1330000000000008675 ) ;
#20 = FACE_BOUND ( 'NONE', #366, .T. ) ;
#21 = DIRECTION ( 'NONE',  ( 1.365923996832131609E-16, -0.000000000000000000, 1.000000000000000000 ) ) ;
#22 = ORIENTED_EDGE ( 'NONE', *, *, #553, .T. ) ;
#23 = DIRECTION ( 'NONE',  ( 1.000000000000000000, 0.000000000000000000, 0.000000000000000000 ) ) ;
#24 = LINE ( 'NONE', #140, #152 ) ;
#25 = ORIENTED_EDGE ( 'NONE', *, *, #621, .F. ) ;
#26 = VECTOR ( 'NONE', #122, 39.37007874015748143 ) ;
#27 = SHAPE_DEFINITION_REPRESENTATION ( #58, #377 ) ;
#28 = EDGE_CURVE ( 'NONE', #687, #216, #273, .T. ) ;
#29 = DIRECTION ( 'NONE',  ( 1.707404996040164512E-16, 0.000000000000000000, 1.000000000000000000 ) ) ;
#30 = ORIENTED_EDGE ( 'NONE', *, *, #324, .F. ) ;
#31 = ADVANCED_FACE ( 'NONE', ( #500 ), #506, .F. ) ;
#32 = DIRECTION ( 'NONE',  ( 0.000000000000000000, 0.000000000000000000, 1.000000000000000000 ) ) ;
#33 = ORIENTED_EDGE ( 'NONE', *, *, #651, .F. ) ;
#34 = LINE ( 'NONE', #535, #602 ) ;
#35 = PLANE ( 'NONE',  #171 ) ;
#36 = ORIENTED_EDGE ( 'NONE', *, *, #83, .T. ) ;
#37 = VECTOR ( 'NONE', #23, 39.37007874015748143 ) ;
#38 = CARTESIAN_POINT ( 'NONE',  ( 8.123622047244094091, 0.000000000000000000, 0.000000000000000000 ) ) ;
#39 = ORIENTED_EDGE ( 'NONE', *, *, #159, .F. ) ;
#40 =( CONVERSION_BASED_UNIT ( 'INCH', #542 ) LENGTH_UNIT ( ) NAMED_UNIT ( #193 ) );
#41 = LINE ( 'NONE', #38, #522 ) ;
#42 = ORIENTED_EDGE ( 'NONE', *, *, #225, .T. ) ;
#43 = ADVANCED_FACE ( 'NONE', ( #447 ), #665, .F. ) ;
#44 = LINE ( 'NONE', #605, #543 ) ;
#45 = ORIENTED_EDGE ( 'NONE', *, *, #498, .T. ) ;
#46 = LINE ( 'NONE', #499, #279 ) ;
#47 = CARTESIAN_POINT ( 'NONE',  ( 8.500000000000000000, 0.000000000000000000, -0.5055118110236219708 ) ) ;
#48 = SECURITY_CLASSIFICATION ( '', '', #172 ) ;
#49 = LINE ( 'NONE', #695, #633 ) ;
#50 = EDGE_LOOP ( 'NONE', ( #283, #128, #419, #387 ) ) ;
#51 = AXIS2_PLACEMENT_3D ( 'NONE', #655, #4, #230 ) ;
#52 = EDGE_CURVE ( 'NONE', #372, #607, #60, .T. ) ;
#53 = DIRECTION ( 'NONE',  ( -1.000000000000000000, -0.000000000000000000, -0.000000000000000000 ) ) ;
#54 = EDGE_LOOP ( 'NONE', ( #233, #440, #30, #486, #9, #112, #435, #205 ) ) ;
#55 = PERSON_AND_ORGANIZATION ( #187, #618 ) ;
#56 = VECTOR ( 'NONE', #3, 39.37007874015748143 ) ;
#57 = CARTESIAN_POINT ( 'NONE',  ( -0.8763779527559052429, -2.215354089999999943, -1.000000000000000000 ) ) ;
#58 = PRODUCT_DEFINITION_SHAPE ( 'NONE', 'NONE',  #217 ) ;
#59 = ORIENTED_EDGE ( 'NONE', *, *, #308, .T. ) ;
#60 = LINE ( 'NONE', #57, #715 ) ;
#61 = CARTESIAN_POINT ( 'NONE',  ( -0.5000000000000000000, 0.1000000000000000056, -0.6385118110236219779 ) ) ;
#62 = ORIENTED_EDGE ( 'NONE', *, *, #242, .F. ) ;
#63 = DIRECTION ( 'NONE',  ( 0.000000000000000000, 0.000000000000000000, 1.000000000000000000 ) ) ;
#64 = CIRCLE ( 'NONE', #467, 0.1330000000000008675 ) ;
#65 = EDGE_CURVE ( 'NONE', #372, #351, #667, .T. ) ;
#66 = AXIS2_PLACEMENT_3D ( 'NONE', #479, #692, #584 ) ;
#67 = EDGE_CURVE ( 'NONE', #197, #154, #169, .T. ) ;
#68 = DIRECTION ( 'NONE',  ( 0.000000000000000000, 1.000000000000000000, 0.000000000000000000 ) ) ;
#69 = DIRECTION ( 'NONE',  ( -0.000000000000000000, -0.000000000000000000, 1.000000000000000000 ) ) ;
#70 = DIRECTION ( 'NONE',  ( 0.000000000000000000, 1.000000000000000000, 0.000000000000000000 ) ) ;
#71 = CARTESIAN_POINT ( 'NONE',  ( 8.123622047244094091, -0.2181099999999999983, 0.1000000000000000056 ) ) ;
#72 = DATE_AND_TIME ( #313, #526 ) ;
#73 = VECTOR ( 'NONE', #648, 39.37007874015748143 ) ;
#74 = DIRECTION ( 'NONE',  ( -1.000000000000000000, -0.000000000000000000, -1.365923996832131363E-16 ) ) ;
#75 = CARTESIAN_POINT ( 'NONE',  ( 0.000000000000000000, 0.1000000000000000056, 0.000000000000000000 ) ) ;
#76 = EDGE_LOOP ( 'NONE', ( #161, #495, #338, #442 ) ) ;
#77 = DIRECTION ( 'NONE',  ( 1.000000000000000000, 0.000000000000000000, 0.000000000000000000 ) ) ;
#78 = APPROVAL ( #339, 'UNSPECIFIED' ) ;
#79 = LINE ( 'NONE', #427, #319 ) ;
#80 = ADVANCED_FACE ( 'NONE', ( #173 ), #464, .F. ) ;
#81 = VERTEX_POINT ( 'NONE', #118 ) ;
#82 = VECTOR ( 'NONE', #340, 39.37007874015748143 ) ;
#83 = EDGE_CURVE ( 'NONE', #687, #219, #239, .T. ) ;
#84 = CC_DESIGN_PERSON_AND_ORGANIZATION_ASSIGNMENT ( #451, #622, ( #217 ) ) ;
#85 = LINE ( 'NONE', #309, #380 ) ;
#86 = VERTEX_POINT ( 'NONE', #389 ) ;
#87 = VECTOR ( 'NONE', #317, 39.37007874015748143 ) ;
#88 = CARTESIAN_POINT ( 'NONE',  ( 8.500000000000000000, 0.000000000000000000, -0.3725118110236210756 ) ) ;
#89 = DIRECTION ( 'NONE',  ( 0.000000000000000000, 1.000000000000000000, -0.000000000000000000 ) ) ;
#90 = ORIENTED_EDGE ( 'NONE', *, *, #14, .T. ) ;
#91 = FACE_OUTER_BOUND ( 'NONE', #437, .T. ) ;
#92 = CARTESIAN_POINT ( 'NONE',  ( 0.000000000000000000, 0.000000000000000000, -1.000000000000000000 ) ) ;
#93 = EDGE_LOOP ( 'NONE', ( #503, #278, #383, #540, #709, #106 ) ) ;
#94 = LINE ( 'NONE', #99, #264 ) ;
#95 = AXIS2_PLACEMENT_3D ( 'NONE', #646, #414, #29 ) ;
#96 = ADVANCED_FACE ( 'NONE', ( #508 ), #404, .F. ) ;
#97 = PLANE ( 'NONE',  #244 ) ;
#98 = ORIENTED_EDGE ( 'NONE', *, *, #159, .T. ) ;
#99 = CARTESIAN_POINT ( 'NONE',  ( 8.876377952755905909, 0.000000000000000000, 0.000000000000000000 ) ) ;
#100 = AXIS2_PLACEMENT_3D ( 'NONE', #104, #316, #202 ) ;
#101 = ORIENTED_EDGE ( 'NONE', *, *, #530, .F. ) ;
#102 = FACE_OUTER_BOUND ( 'NONE', #639, .T. ) ;
#103 = ORIENTED_EDGE ( 'NONE', *, *, #458, .T. ) ;
#104 = CARTESIAN_POINT ( 'NONE',  ( -0.1236220472440944934, -1.325034753795316211, -0.6870078740157474773 ) ) ;
#105 = EDGE_CURVE ( 'NONE', #476, #228, #241, .T. ) ;
#106 = ORIENTED_EDGE ( 'NONE', *, *, #601, .T. ) ;
#107 = DIRECTION ( 'NONE',  ( 0.000000000000000000, 1.000000000000000000, 0.000000000000000000 ) ) ;
#108 = ORIENTED_EDGE ( 'NONE', *, *, #689, .F. ) ;
#109 = DATE_AND_TIME ( #610, #575 ) ;
#110 = ADVANCED_FACE ( 'NONE', ( #286 ), #460, .F. ) ;
#111 = DIRECTION ( 'NONE',  ( -0.7071067811865486830, 0.000000000000000000, -0.7071067811865462405 ) ) ;
#112 = ORIENTED_EDGE ( 'NONE', *, *, #569, .T. ) ;
#113 = DIRECTION ( 'NONE',  ( 0.000000000000000000, 0.000000000000000000, -1.000000000000000000 ) ) ;
#114 = PERSON_AND_ORGANIZATION_ROLE ( 'design_supplier' ) ;
#115 = VECTOR ( 'NONE', #490, 39.37007874015748143 ) ;
#116 = DIRECTION ( 'NONE',  ( -1.365923996832131363E-16, 0.000000000000000000, 1.000000000000000000 ) ) ;
#117 = ORIENTED_EDGE ( 'NONE', *, *, #402, .F. ) ;
#118 = CARTESIAN_POINT ( 'NONE',  ( 8.123622047244094091, -0.2181099999999999983, 0.000000000000000000 ) ) ;
#119 = DIRECTION ( 'NONE',  ( -1.179883459494639851E-16, 1.000000000000000000, 0.000000000000000000 ) ) ;
#120 = AXIS2_PLACEMENT_3D ( 'NONE', #611, #116, #626 ) ;
#121 = LINE ( 'NONE', #333, #82 ) ;
#122 = DIRECTION ( 'NONE',  ( 1.000000000000000000, 0.000000000000000000, 0.000000000000000000 ) ) ;
#123 = CARTESIAN_POINT ( 'NONE',  ( 0.000000000000000000, 0.000000000000000000, 0.1000000000000000056 ) ) ;
#124 = VECTOR ( 'NONE', #580, 39.37007874015748143 ) ;
#125 = ORIENTED_EDGE ( 'NONE', *, *, #606, .T. ) ;
#126 = CARTESIAN_POINT ( 'NONE',  ( -0.4366141732283480015, 0.000000000000000000, -1.000000000000000000 ) ) ;
#127 = PLANE ( 'NONE',  #631 ) ;
#128 = ORIENTED_EDGE ( 'NONE', *, *, #676, .T. ) ;
#129 = ORIENTED_EDGE ( 'NONE', *, *, #694, .F. ) ;
#130 = LINE ( 'NONE', #466, #124 ) ;
#131 = VECTOR ( 'NONE', #550, 39.37007874015748143 ) ;
#132 = EDGE_CURVE ( 'NONE', #287, #704, #449, .T. ) ;
#133 = DIRECTION ( 'NONE',  ( 0.000000000000000000, 1.000000000000000000, 0.000000000000000000 ) ) ;
#134 = ORIENTED_EDGE ( 'NONE', *, *, #606, .F. ) ;
#135 = EDGE_CURVE ( 'NONE', #609, #287, #121, .T. ) ;
#136 = CC_DESIGN_DATE_AND_TIME_ASSIGNMENT ( #72, #702, ( #48 ) ) ;
#137 = DIRECTION ( 'NONE',  ( -0.000000000000000000, -0.000000000000000000, -1.000000000000000000 ) ) ;
#138 = ORIENTED_EDGE ( 'NONE', *, *, #676, .F. ) ;
#139 = CARTESIAN_POINT ( 'NONE',  ( 8.500000000000000000, 0.1000000000000000056, -0.3725118110236210756 ) ) ;
#140 = CARTESIAN_POINT ( 'NONE',  ( -0.5000000000000000000, 0.1000000000000000056, -0.3725118110236219637 ) ) ;
#141 = ORIENTED_EDGE ( 'NONE', *, *, #135, .F. ) ;
#142 = VECTOR ( 'NONE', #215, 39.37007874015748854 ) ;
#143 = CARTESIAN_POINT ( 'NONE',  ( 8.436614173228347724, 0.1000000000000000056, -1.000000000000000000 ) ) ;
#144 = FACE_OUTER_BOUND ( 'NONE', #616, .T. ) ;
#145 = ORIENTED_EDGE ( 'NONE', *, *, #194, .T. ) ;
#146 = CARTESIAN_POINT ( 'NONE',  ( -0.1236220472440943546, -0.2181099999999999983, 0.1000000000000000194 ) ) ;
#147 = DIRECTION ( 'NONE',  ( 0.000000000000000000, 1.000000000000000000, -0.000000000000000000 ) ) ;
#148 = VERTEX_POINT ( 'NONE', #454 ) ;
#149 = DIRECTION ( 'NONE',  ( 0.000000000000000000, 1.000000000000000000, -0.000000000000000000 ) ) ;
#150 = VECTOR ( 'NONE', #290, 39.37007874015748143 ) ;
#151 = ORIENTED_EDGE ( 'NONE', *, *, #67, .T. ) ;
#152 = VECTOR ( 'NONE', #638, 39.37007874015748143 ) ;
#153 = DIRECTION ( 'NONE',  ( 0.7071067811865487940, -0.000000000000000000, 0.7071067811865463515 ) ) ;
#154 = VERTEX_POINT ( 'NONE', #394 ) ;
#155 = EDGE_CURVE ( 'NONE', #607, #369, #557, .T. ) ;
#156 = DIRECTION ( 'NONE',  ( 0.7071067811865462405, -0.000000000000000000, -0.7071067811865486830 ) ) ;
#157 = APPLICATION_CONTEXT ( 'configuration controlled 3d designs of mechanical parts and assemblies' ) ;
#158 = EDGE_LOOP ( 'NONE', ( #210, #668, #45, #250, #361, #257 ) ) ;
#159 = EDGE_CURVE ( 'NONE', #325, #266, #583, .T. ) ;
#160 = LINE ( 'NONE', #441, #617 ) ;
#161 = ORIENTED_EDGE ( 'NONE', *, *, #155, .F. ) ;
#162 = DATE_AND_TIME ( #669, #707 ) ;
#163 = DIRECTION ( 'NONE',  ( 0.000000000000000000, -1.000000000000000000, 0.000000000000000000 ) ) ;
#164 = CC_DESIGN_PERSON_AND_ORGANIZATION_ASSIGNMENT ( #332, #393, ( #397 ) ) ;
#165 = ORIENTED_EDGE ( 'NONE', *, *, #363, .T. ) ;
#166 = PLANE ( 'NONE',  #406 ) ;
#167 = CARTESIAN_POINT ( 'NONE',  ( -0.9999999999999996669, -2.215354089999999943, 0.1000000000000000056 ) ) ;
#168 =( NAMED_UNIT ( * ) SI_UNIT ( $, .STERADIAN. ) SOLID_ANGLE_UNIT ( ) );
#169 = LINE ( 'NONE', #615, #306 ) ;
#170 = ORIENTED_EDGE ( 'NONE', *, *, #651, .T. ) ;
#171 = AXIS2_PLACEMENT_3D ( 'NONE', #75, #133, #305 ) ;
#172 = SECURITY_CLASSIFICATION_LEVEL ( 'unclassified' ) ;
#173 = FACE_OUTER_BOUND ( 'NONE', #282, .T. ) ;
#174 = APPROVAL_PERSON_ORGANIZATION ( #10, #681, #388 ) ;
#175 = ORIENTED_EDGE ( 'NONE', *, *, #402, .T. ) ;
#176 = COORDINATED_UNIVERSAL_TIME_OFFSET ( 5, 0, .BEHIND. ) ;
#177 = CARTESIAN_POINT ( 'NONE',  ( 0.2816929133858266932, 0.1000000000000000056, -0.2816929133858276924 ) ) ;
#178 = ADVANCED_FACE ( 'NONE', ( #623 ), #512, .F. ) ;
#179 = CARTESIAN_POINT ( 'NONE',  ( -0.5000000000000000000, 0.1000000000000000056, -0.5055118110236219708 ) ) ;
#180 = VECTOR ( 'NONE', #378, 39.37007874015748143 ) ;
#181 = EDGE_CURVE ( 'NONE', #325, #554, #562, .T. ) ;
#182 = CARTESIAN_POINT ( 'NONE',  ( 8.876377952755905909, 0.000000000000000000, 1.224646758794610314E-16 ) ) ;
#183 = AXIS2_PLACEMENT_3D ( 'NONE', #364, #209, #32 ) ;
#184 = PLANE ( 'NONE',  #350 ) ;
#185 = DIRECTION ( 'NONE',  ( -0.000000000000000000, 0.000000000000000000, 1.000000000000000000 ) ) ;
#186 = FACE_OUTER_BOUND ( 'NONE', #158, .T. ) ;
#187 = PERSON ( 'UNSPECIFIED', 'UNSPECIFIED', 'UNSPECIFIED', ('UNSPECIFIED'), ('UNSPECIFIED'), ('UNSPECIFIED') ) ;
#188 = AXIS2_PLACEMENT_3D ( 'NONE', #472, #470, #525 ) ;
#189 = EDGE_CURVE ( 'NONE', #712, #154, #8, .T. ) ;
#190 = ORIENTED_EDGE ( 'NONE', *, *, #621, .T. ) ;
#191 = CARTESIAN_POINT ( 'NONE',  ( -0.1236220472440943546, 0.1000000000000000056, 0.1000000000000000056 ) ) ;
#192 = CALENDAR_DATE ( 2026, 26, 5 ) ;
#193 = DIMENSIONAL_EXPONENTS ( 1.000000000000000000, 0.000000000000000000, 0.000000000000000000, 0.000000000000000000, 0.000000000000000000, 0.000000000000000000, 0.000000000000000000 ) ;
#194 = EDGE_CURVE ( 'NONE', #219, #369, #518, .T. ) ;
#195 = FACE_OUTER_BOUND ( 'NONE', #658, .T. ) ;
#196 = AXIS2_PLACEMENT_3D ( 'NONE', #5, #226, #457 ) ;
#197 = VERTEX_POINT ( 'NONE', #675 ) ;
#198 = APPROVAL ( #208, 'UNSPECIFIED' ) ;
#199 = APPROVAL_ROLE ( '' ) ;
#200 = CARTESIAN_POINT ( 'NONE',  ( -0.5000000000000000000, 0.000000000000000000, -0.3725118110236219082 ) ) ;
#201 = ORIENTED_EDGE ( 'NONE', *, *, #641, .F. ) ;
#202 = DIRECTION ( 'NONE',  ( 0.000000000000000000, 1.000000000000000000, 0.000000000000000000 ) ) ;
#203 = EDGE_LOOP ( 'NONE', ( #90, #151, #696, #22, #190, #450, #428, #222 ) ) ;
#204 = DIRECTION ( 'NONE',  ( -1.179883459494639851E-16, 1.000000000000000000, -0.000000000000000000 ) ) ;
#205 = ORIENTED_EDGE ( 'NONE', *, *, #221, .F. ) ;
#206 = DIRECTION ( 'NONE',  ( 0.000000000000000000, -1.000000000000000000, 0.000000000000000000 ) ) ;
#207 = ORIENTED_EDGE ( 'NONE', *, *, #181, .T. ) ;
#208 = APPROVAL_STATUS ( 'not_yet_approved' ) ;
#209 = DIRECTION ( 'NONE',  ( 0.000000000000000000, 1.000000000000000000, 0.000000000000000000 ) ) ;
#210 = ORIENTED_EDGE ( 'NONE', *, *, #342, .F. ) ;
#211 = AXIS2_PLACEMENT_3D ( 'NONE', #555, #147, #505 ) ;
#212 = CARTESIAN_POINT ( 'NONE',  ( -0.8763779527559052429, -2.215354089999999943, 0.1000000000000000056 ) ) ;
#213 = CARTESIAN_POINT ( 'NONE',  ( -0.8763779527559054650, 0.1000000000000000056, -1.000000000000000000 ) ) ;
#214 = ORIENTED_EDGE ( 'NONE', *, *, #478, .F. ) ;
#215 = DIRECTION ( 'NONE',  ( 0.7071067811865486830, -0.000000000000000000, 0.7071067811865462405 ) ) ;
#216 = VERTEX_POINT ( 'NONE', #567 ) ;
#217 = PRODUCT_DEFINITION ( 'UNKNOWN', '', #397, #452 ) ;
#218 = DIRECTION ( 'NONE',  ( 0.000000000000000000, 1.000000000000000000, 0.000000000000000000 ) ) ;
#219 = VERTEX_POINT ( 'NONE', #401 ) ;
#220 = CARTESIAN_POINT ( 'NONE',  ( 8.123622047244094091, 0.1000000000000000056, -0.6870078740157463670 ) ) ;
#221 = EDGE_CURVE ( 'NONE', #712, #315, #343, .T. ) ;
#222 = ORIENTED_EDGE ( 'NONE', *, *, #65, .T. ) ;
#223 = CARTESIAN_POINT ( 'NONE',  ( 8.123622047244094091, -0.2181099999999999983, -1.000000000000000000 ) ) ;
#224 = ORIENTED_EDGE ( 'NONE', *, *, #132, .F. ) ;
#225 = EDGE_CURVE ( 'NONE', #327, #554, #261, .T. ) ;
#226 = DIRECTION ( 'NONE',  ( 0.000000000000000000, 0.000000000000000000, 1.000000000000000000 ) ) ;
#227 = CC_DESIGN_PERSON_AND_ORGANIZATION_ASSIGNMENT ( #614, #114, ( #397 ) ) ;
#228 = VERTEX_POINT ( 'NONE', #523 ) ;
#229 = CARTESIAN_POINT ( 'NONE',  ( 0.000000000000000000, 0.1000000000000000056, 0.000000000000000000 ) ) ;
#230 = DIRECTION ( 'NONE',  ( 0.000000000000000000, 0.000000000000000000, -1.000000000000000000 ) ) ;
#231 = APPROVAL_DATE_TIME ( #109, #681 ) ;
#232 = DIRECTION ( 'NONE',  ( 0.000000000000000000, 0.000000000000000000, 1.000000000000000000 ) ) ;
#233 = ORIENTED_EDGE ( 'NONE', *, *, #302, .T. ) ;
#234 = CARTESIAN_POINT ( 'NONE',  ( 8.123622047244094091, 0.000000000000000000, 0.000000000000000000 ) ) ;
#235 = ORIENTED_EDGE ( 'NONE', *, *, #345, .T. ) ;
#236 = VECTOR ( 'NONE', #632, 39.37007874015748143 ) ;
#237 = EDGE_CURVE ( 'NONE', #228, #558, #294, .T. ) ;
#238 = DIRECTION ( 'NONE',  ( -0.000000000000000000, -1.000000000000000000, -0.000000000000000000 ) ) ;
#239 = LINE ( 'NONE', #519, #405 ) ;
#240 = ADVANCED_FACE ( 'NONE', ( #352, #20 ), #521, .F. ) ;
#241 = LINE ( 'NONE', #177, #344 ) ;
#242 = EDGE_CURVE ( 'NONE', #216, #357, #685, .T. ) ;
#243 = CARTESIAN_POINT ( 'NONE',  ( 8.000000000000000000, 0.000000000000000000, -1.000000000000000000 ) ) ;
#244 = AXIS2_PLACEMENT_3D ( 'NONE', #229, #544, #654 ) ;
#245 = CARTESIAN_POINT ( 'NONE',  ( 0.000000000000000000, 0.1000000000000000056, -1.000000000000000000 ) ) ;
#246 = CARTESIAN_POINT ( 'NONE',  ( -0.8763779527559054650, 0.1000000000000000056, -1.000000000000000000 ) ) ;
#247 = PLANE ( 'NONE',  #410 ) ;
#248 = PLANE ( 'NONE',  #95 ) ;
#249 = VECTOR ( 'NONE', #238, 39.37007874015748143 ) ;
#250 = ORIENTED_EDGE ( 'NONE', *, *, #302, .F. ) ;
#251 = DATE_AND_TIME ( #192, #362 ) ;
#252 = LINE ( 'NONE', #418, #541 ) ;
#253 = EDGE_LOOP ( 'NONE', ( #59, #445, #335, #214 ) ) ;
#254 = DIRECTION ( 'NONE',  ( 0.000000000000000000, 0.000000000000000000, -1.000000000000000000 ) ) ;
#255 = VERTEX_POINT ( 'NONE', #182 ) ;
#256 = LINE ( 'NONE', #546, #142 ) ;
#257 = ORIENTED_EDGE ( 'NONE', *, *, #67, .F. ) ;
#258 = DIRECTION ( 'NONE',  ( -1.179883459494639851E-16, 1.000000000000000000, -0.000000000000000000 ) ) ;
#259 = ORIENTED_EDGE ( 'NONE', *, *, #434, .F. ) ;
#260 = CARTESIAN_POINT ( 'NONE',  ( 8.123622047244094091, 0.000000000000000000, 1.073253166997897067E-16 ) ) ;
#261 = CIRCLE ( 'NONE', #670, 0.1329999999999999793 ) ;
#262 = FACE_BOUND ( 'NONE', #480, .T. ) ;
#263 = EDGE_LOOP ( 'NONE', ( #175, #652, #36, #145, #108, #129 ) ) ;
#264 = VECTOR ( 'NONE', #206, 39.37007874015748143 ) ;
#265 = CARTESIAN_POINT ( 'NONE',  ( -0.8763779527559054650, 0.000000000000000000, -1.000000000000000000 ) ) ;
#266 = VERTEX_POINT ( 'NONE', #570 ) ;
#267 = ADVANCED_FACE ( 'NONE', ( #576 ), #184, .F. ) ;
#268 = FACE_OUTER_BOUND ( 'NONE', #50, .T. ) ;
#269 = EDGE_CURVE ( 'NONE', #372, #310, #408, .T. ) ;
#270 = VERTEX_POINT ( 'NONE', #126 ) ;
#271 = LINE ( 'NONE', #494, #1 ) ;
#272 = CC_DESIGN_PERSON_AND_ORGANIZATION_ASSIGNMENT ( #284, #511, ( #48 ) ) ;
#273 = LINE ( 'NONE', #660, #180 ) ;
#274 = CARTESIAN_POINT ( 'NONE',  ( 8.000000000000000000, 0.000000000000000000, 0.000000000000000000 ) ) ;
#275 = VECTOR ( 'NONE', #398, 39.37007874015748143 ) ;
#276 = VERTEX_POINT ( 'NONE', #191 ) ;
#277 = DIRECTION ( 'NONE',  ( 0.000000000000000000, 0.000000000000000000, 1.000000000000000000 ) ) ;
#278 = ORIENTED_EDGE ( 'NONE', *, *, #135, .T. ) ;
#279 = VECTOR ( 'NONE', #592, 39.37007874015748143 ) ;
#280 = APPLICATION_PROTOCOL_DEFINITION ( 'international standard', 'config_control_design', 1994, #400 ) ;
#281 = CARTESIAN_POINT ( 'NONE',  ( -0.9999999999999996669, -2.215354089999999943, 0.1000000000000000056 ) ) ;
#282 = EDGE_LOOP ( 'NONE', ( #431, #629, #556, #700, #329, #672 ) ) ;
#283 = ORIENTED_EDGE ( 'NONE', *, *, #477, .T. ) ;
#284 = PERSON_AND_ORGANIZATION ( #187, #618 ) ;
#285 = UNCERTAINTY_MEASURE_WITH_UNIT (LENGTH_MEASURE( 1.000000000000000082E-05 ), #40, 'distance_accuracy_value', 'NONE');
#286 = FACE_OUTER_BOUND ( 'NONE', #390, .T. ) ;
#287 = VERTEX_POINT ( 'NONE', #409 ) ;
#288 = DIRECTION ( 'NONE',  ( -1.707404996040164512E-16, 0.000000000000000000, -1.000000000000000000 ) ) ;
#289 = VECTOR ( 'NONE', #254, 39.37007874015748143 ) ;
#290 = DIRECTION ( 'NONE',  ( -0.000000000000000000, -1.000000000000000000, -0.000000000000000000 ) ) ;
#291 = ADVANCED_FACE ( 'NONE', ( #688 ), #247, .T. ) ;
#292 = ADVANCED_FACE ( 'NONE', ( #630 ), #627, .T. ) ;
#293 = CARTESIAN_POINT ( 'NONE',  ( -0.8763779527559054650, 0.1000000000000000056, -1.000000000000000000 ) ) ;
#294 = LINE ( 'NONE', #245, #574 ) ;
#295 = CARTESIAN_POINT ( 'NONE',  ( -0.5000000000000000000, 0.000000000000000000, -0.5055118110236219708 ) ) ;
#296 = VECTOR ( 'NONE', #53, 39.37007874015748143 ) ;
#297 = APPROVAL_PERSON_ORGANIZATION ( #502, #78, #514 ) ;
#298 = ORIENTED_EDGE ( 'NONE', *, *, #679, .T. ) ;
#299 = CARTESIAN_POINT ( 'NONE',  ( -0.9999999999999996669, -2.215354089999999943, 0.000000000000000000 ) ) ;
#300 = LINE ( 'NONE', #590, #289 ) ;
#301 = VERTEX_POINT ( 'NONE', #349 ) ;
#302 = EDGE_CURVE ( 'NONE', #712, #276, #130, .T. ) ;
#303 = CC_DESIGN_SECURITY_CLASSIFICATION ( #48, ( #397 ) ) ;
#304 = DIRECTION ( 'NONE',  ( -1.000000000000000000, -0.000000000000000000, -0.000000000000000000 ) ) ;
#305 = DIRECTION ( 'NONE',  ( 0.000000000000000000, -0.000000000000000000, 1.000000000000000000 ) ) ;
#306 = VECTOR ( 'NONE', #163, 39.37007874015748143 ) ;
#307 = ORIENTED_EDGE ( 'NONE', *, *, #368, .T. ) ;
#308 = EDGE_CURVE ( 'NONE', #81, #154, #359, .T. ) ;
#309 = CARTESIAN_POINT ( 'NONE',  ( 8.123622047244094091, 0.1000000000000000056, -1.000000000000000000 ) ) ;
#310 = VERTEX_POINT ( 'NONE', #684 ) ;
#311 = DIRECTION ( 'NONE',  ( 0.000000000000000000, 1.000000000000000000, -0.000000000000000000 ) ) ;
#312 = ORIENTED_EDGE ( 'NONE', *, *, #477, .F. ) ;
#313 = CALENDAR_DATE ( 2026, 26, 5 ) ;
#314 = DIRECTION ( 'NONE',  ( 0.000000000000000000, 0.000000000000000000, -1.000000000000000000 ) ) ;
#315 = VERTEX_POINT ( 'NONE', #71 ) ;
#316 = DIRECTION ( 'NONE',  ( -0.7071067811865463515, 0.000000000000000000, 0.7071067811865487940 ) ) ;
#317 = DIRECTION ( 'NONE',  ( -1.000000000000000000, 0.000000000000000000, 1.365923996832131609E-16 ) ) ;
#318 = ORIENTED_EDGE ( 'NONE', *, *, #342, .T. ) ;
#319 = VECTOR ( 'NONE', #356, 39.37007874015748143 ) ;
#320 = ADVANCED_FACE ( 'NONE', ( #186 ), #248, .F. ) ;
#321 = LINE ( 'NONE', #213, #468 ) ;
#322 = ORIENTED_EDGE ( 'NONE', *, *, #355, .F. ) ;
#323 = DIRECTION ( 'NONE',  ( -0.000000000000000000, -0.000000000000000000, 1.000000000000000000 ) ) ;
#324 = EDGE_CURVE ( 'NONE', #607, #86, #252, .T. ) ;
#325 = VERTEX_POINT ( 'NONE', #581 ) ;
#326 = LINE ( 'NONE', #596, #296 ) ;
#327 = VERTEX_POINT ( 'NONE', #200 ) ;
#328 = LINE ( 'NONE', #139, #73 ) ;
#329 = ORIENTED_EDGE ( 'NONE', *, *, #458, .F. ) ;
#330 = CARTESIAN_POINT ( 'NONE',  ( -0.8763779527559054650, 0.1000000000000000056, -1.000000000000000000 ) ) ;
#331 = ORIENTED_EDGE ( 'NONE', *, *, #242, .T. ) ;
#332 = PERSON_AND_ORGANIZATION ( #187, #618 ) ;
#333 = CARTESIAN_POINT ( 'NONE',  ( 8.123622047244094091, -1.325034753795316211, -0.6870078740157463670 ) ) ;
#334 = ORIENTED_EDGE ( 'NONE', *, *, #434, .T. ) ;
#335 = ORIENTED_EDGE ( 'NONE', *, *, #221, .T. ) ;
#336 = AXIS2_PLACEMENT_3D ( 'NONE', #482, #89, #314 ) ;
#337 = CARTESIAN_POINT ( 'NONE',  ( 8.876377952755905909, -2.215354089999999943, -1.000000000000000000 ) ) ;
#338 = ORIENTED_EDGE ( 'NONE', *, *, #269, .T. ) ;
#339 = APPROVAL_STATUS ( 'not_yet_approved' ) ;
#340 = DIRECTION ( 'NONE',  ( 0.000000000000000000, -1.000000000000000000, 0.000000000000000000 ) ) ;
#341 = APPLICATION_PROTOCOL_DEFINITION ( 'international standard', 'config_control_design', 1994, #157 ) ;
#342 = EDGE_CURVE ( 'NONE', #148, #197, #593, .T. ) ;
#343 = LINE ( 'NONE', #15, #26 ) ;
#344 = VECTOR ( 'NONE', #111, 39.37007874015748854 ) ;
#345 = EDGE_CURVE ( 'NONE', #351, #509, #360, .T. ) ;
#346 = ADVANCED_FACE ( 'NONE', ( #144 ), #127, .F. ) ;
#347 = CARTESIAN_POINT ( 'NONE',  ( -0.5000000000000000000, 0.1000000000000000056, -0.5055118110236219708 ) ) ;
#348 = DIRECTION ( 'NONE',  ( -0.000000000000000000, 0.000000000000000000, 1.000000000000000000 ) ) ;
#349 = CARTESIAN_POINT ( 'NONE',  ( 8.123622047244094091, 0.1000000000000000056, 0.1000000000000000056 ) ) ;
#350 = AXIS2_PLACEMENT_3D ( 'NONE', #628, #185, #682 ) ;
#351 = VERTEX_POINT ( 'NONE', #411 ) ;
#352 = FACE_OUTER_BOUND ( 'NONE', #524, .T. ) ;
#353 = COORDINATED_UNIVERSAL_TIME_OFFSET ( 5, 0, .BEHIND. ) ;
#354 = CC_DESIGN_APPROVAL ( #681, ( #397 ) ) ;
#355 = EDGE_CURVE ( 'NONE', #687, #591, #79, .T. ) ;
#356 = DIRECTION ( 'NONE',  ( -1.000000000000000000, -0.000000000000000000, -1.365923996832131363E-16 ) ) ;
#357 = VERTEX_POINT ( 'NONE', #690 ) ;
#358 = EDGE_LOOP ( 'NONE', ( #138, #298, #534, #637 ) ) ;
#359 = LINE ( 'NONE', #469, #455 ) ;
#360 = LINE ( 'NONE', #642, #487 ) ;
#361 = ORIENTED_EDGE ( 'NONE', *, *, #189, .T. ) ;
#362 = LOCAL_TIME ( 12, 10, 59.00000000000000000, #573 ) ;
#363 = EDGE_CURVE ( 'NONE', #266, #327, #24, .T. ) ;
#364 = CARTESIAN_POINT ( 'NONE',  ( -0.5000000000000000000, 0.000000000000000000, -0.5055118110236219708 ) ) ;
#365 = VECTOR ( 'NONE', #288, 39.37007874015748143 ) ;
#366 = EDGE_LOOP ( 'NONE', ( #334, #42 ) ) ;
#367 = DIRECTION ( 'NONE',  ( -0.000000000000000000, 1.000000000000000000, -0.000000000000000000 ) ) ;
#368 = EDGE_CURVE ( 'NONE', #591, #609, #703, .T. ) ;
#369 = VERTEX_POINT ( 'NONE', #686 ) ;
#370 = VECTOR ( 'NONE', #258, 39.37007874015748143 ) ;
#371 = CARTESIAN_POINT ( 'NONE',  ( 3.718307086614188073, 0.1000000000000000056, 3.718307086614175194 ) ) ;
#372 = VERTEX_POINT ( 'NONE', #578 ) ;
#373 = CARTESIAN_POINT ( 'NONE',  ( 8.123622047244094091, -1.325034753795316211, -1.000000000000000000 ) ) ;
#374 = LINE ( 'NONE', #92, #87 ) ;
#375 = ORIENTED_EDGE ( 'NONE', *, *, #225, .F. ) ;
#376 = DIRECTION ( 'NONE',  ( 0.000000000000000000, -1.000000000000000000, 0.000000000000000000 ) ) ;
#377 = ADVANCED_BREP_SHAPE_REPRESENTATION ( 'x hard cover', ( #453, #196 ), #13 ) ;
#378 = DIRECTION ( 'NONE',  ( -0.000000000000000000, -1.000000000000000000, -0.000000000000000000 ) ) ;
#379 = PLANE ( 'NONE',  #559 ) ;
#380 = VECTOR ( 'NONE', #137, 39.37007874015748143 ) ;
#381 = EDGE_LOOP ( 'NONE', ( #312, #532 ) ) ;
#382 = FACE_BOUND ( 'NONE', #415, .T. ) ;
#383 = ORIENTED_EDGE ( 'NONE', *, *, #132, .T. ) ;
#384 = LINE ( 'NONE', #484, #683 ) ;
#385 = ORIENTED_EDGE ( 'NONE', *, *, #28, .T. ) ;
#386 = DIRECTION ( 'NONE',  ( -0.000000000000000000, -0.000000000000000000, 1.000000000000000000 ) ) ;
#387 = ORIENTED_EDGE ( 'NONE', *, *, #577, .F. ) ;
#388 = APPROVAL_ROLE ( '' ) ;
#389 = CARTESIAN_POINT ( 'NONE',  ( -0.8763779527559054650, 0.1000000000000000056, 0.1000000000000000056 ) ) ;
#390 = EDGE_LOOP ( 'NONE', ( #331, #612, #322, #385 ) ) ;
#391 = FACE_OUTER_BOUND ( 'NONE', #425, .T. ) ;
#392 = ORIENTED_EDGE ( 'NONE', *, *, #547, .T. ) ;
#393 = PERSON_AND_ORGANIZATION_ROLE ( 'creator' ) ;
#394 = CARTESIAN_POINT ( 'NONE',  ( -0.1236220472440943685, -0.2181099999999999983, 0.000000000000000000 ) ) ;
#395 = ORIENTED_EDGE ( 'NONE', *, *, #237, .F. ) ;
#396 = VECTOR ( 'NONE', #429, 39.37007874015748143 ) ;
#397 = PRODUCT_DEFINITION_FORMATION_WITH_SPECIFIED_SOURCE ( 'ANY', '', #433, .NOT_KNOWN. ) ;
#398 = DIRECTION ( 'NONE',  ( -1.179883459494639851E-16, 1.000000000000000000, -0.000000000000000000 ) ) ;
#399 = COORDINATED_UNIVERSAL_TIME_OFFSET ( 5, 0, .BEHIND. ) ;
#400 = APPLICATION_CONTEXT ( 'configuration controlled 3d designs of mechanical parts and assemblies' ) ;
#401 = CARTESIAN_POINT ( 'NONE',  ( 8.876377952755905909, 0.1000000000000000056, 0.1000000000000000056 ) ) ;
#402 = EDGE_CURVE ( 'NONE', #255, #216, #300, .T. ) ;
#403 = ADVANCED_FACE ( 'NONE', ( #195, #527 ), #35, .T. ) ;
#404 = CYLINDRICAL_SURFACE ( 'NONE', #653, 0.1330000000000000626 ) ;
#405 = VECTOR ( 'NONE', #69, 39.37007874015748143 ) ;
#406 = AXIS2_PLACEMENT_3D ( 'NONE', #446, #153, #664 ) ;
#407 = DIRECTION ( 'NONE',  ( 0.000000000000000000, 0.000000000000000000, 1.000000000000000000 ) ) ;
#408 = LINE ( 'NONE', #299, #37 ) ;
#409 = CARTESIAN_POINT ( 'NONE',  ( 8.123622047244094091, 0.000000000000000000, -0.6870078740157463670 ) ) ;
#410 = AXIS2_PLACEMENT_3D ( 'NONE', #123, #348, #77 ) ;
#411 = CARTESIAN_POINT ( 'NONE',  ( -0.8763779527559054650, -1.189752361303681098E-22, 0.000000000000000000 ) ) ;
#412 = DIRECTION ( 'NONE',  ( 0.000000000000000000, 1.000000000000000000, 0.000000000000000000 ) ) ;
#413 = CC_DESIGN_APPROVAL ( #78, ( #217 ) ) ;
#414 = DIRECTION ( 'NONE',  ( -1.000000000000000000, 0.000000000000000000, 1.707404996040164512E-16 ) ) ;
#415 = EDGE_LOOP ( 'NONE', ( #39, #101 ) ) ;
#416 = ADVANCED_FACE ( 'NONE', ( #533 ), #531, .F. ) ;
#417 = EDGE_CURVE ( 'NONE', #301, #609, #85, .T. ) ;
#418 = CARTESIAN_POINT ( 'NONE',  ( -0.8763779527559054650, 0.1000000000000000056, 0.1000000000000000056 ) ) ;
#419 = ORIENTED_EDGE ( 'NONE', *, *, #443, .F. ) ;
#420 = APPROVAL_PERSON_ORGANIZATION ( #589, #198, #199 ) ;
#421 = CARTESIAN_POINT ( 'NONE',  ( 8.500000000000000000, 0.1000000000000000056, -0.5055118110236219708 ) ) ;
#422 = CARTESIAN_POINT ( 'NONE',  ( -0.1236220472440943685, 0.000000000000000000, 2.110729010852799859E-17 ) ) ;
#423 = ORIENTED_EDGE ( 'NONE', *, *, #355, .T. ) ;
#424 = DIRECTION ( 'NONE',  ( -0.000000000000000000, -1.000000000000000000, -0.000000000000000000 ) ) ;
#425 = EDGE_LOOP ( 'NONE', ( #563, #2, #691, #392, #548 ) ) ;
#426 = CIRCLE ( 'NONE', #504, 0.1329999999999999793 ) ;
#427 = CARTESIAN_POINT ( 'NONE',  ( 8.000000000000000000, 0.1000000000000000056, -1.000000000000000000 ) ) ;
#428 = ORIENTED_EDGE ( 'NONE', *, *, #269, .F. ) ;
#429 = DIRECTION ( 'NONE',  ( 1.000000000000000000, 0.000000000000000000, 1.224646799147352961E-16 ) ) ;
#430 = PLANE ( 'NONE',  #588 ) ;
#431 = ORIENTED_EDGE ( 'NONE', *, *, #65, .F. ) ;
#432 = CYLINDRICAL_SURFACE ( 'NONE', #517, 0.1330000000000008675 ) ;
#433 = PRODUCT ( 'x hard cover', 'x hard cover', '', ( #444 ) ) ;
#434 = EDGE_CURVE ( 'NONE', #554, #327, #474, .T. ) ;
#435 = ORIENTED_EDGE ( 'NONE', *, *, #601, .F. ) ;
#436 = FACE_OUTER_BOUND ( 'NONE', #613, .T. ) ;
#437 = EDGE_LOOP ( 'NONE', ( #134, #33, #497, #585 ) ) ;
#438 = AXIS2_PLACEMENT_3D ( 'NONE', #167, #560, #604 ) ;
#439 = FACE_OUTER_BOUND ( 'NONE', #93, .T. ) ;
#440 = ORIENTED_EDGE ( 'NONE', *, *, #571, .T. ) ;
#441 = CARTESIAN_POINT ( 'NONE',  ( -0.1236220472440945489, 0.1000000000000000056, -1.000000000000000000 ) ) ;
#442 = ORIENTED_EDGE ( 'NONE', *, *, #689, .T. ) ;
#443 = EDGE_CURVE ( 'NONE', #587, #647, #645, .T. ) ;
#444 = MECHANICAL_CONTEXT ( 'NONE', #157, 'mechanical' ) ;
#445 = ORIENTED_EDGE ( 'NONE', *, *, #189, .F. ) ;
#446 = CARTESIAN_POINT ( 'NONE',  ( 8.436614173228347724, 0.1000000000000000056, -1.000000000000000000 ) ) ;
#447 = FACE_OUTER_BOUND ( 'NONE', #76, .T. ) ;
#448 = PERSON_AND_ORGANIZATION_ROLE ( 'design_owner' ) ;
#449 = LINE ( 'NONE', #234, #624 ) ;
#450 = ORIENTED_EDGE ( 'NONE', *, *, #694, .T. ) ;
#451 = PERSON_AND_ORGANIZATION ( #187, #618 ) ;
#452 = DESIGN_CONTEXT ( 'detailed design', #400, 'design' ) ;
#453 = MANIFOLD_SOLID_BREP ( 'Chamfer1', #461 ) ;
#454 = CARTESIAN_POINT ( 'NONE',  ( -0.1236220472440944934, 0.000000000000000000, -0.6870078740157474773 ) ) ;
#455 = VECTOR ( 'NONE', #304, 39.37007874015748143 ) ;
#456 = EDGE_LOOP ( 'NONE', ( #98, #165, #259, #491 ) ) ;
#457 = DIRECTION ( 'NONE',  ( 1.000000000000000000, 0.000000000000000000, 0.000000000000000000 ) ) ;
#458 = EDGE_CURVE ( 'NONE', #509, #558, #536, .T. ) ;
#459 = CIRCLE ( 'NONE', #489, 0.1330000000000008675 ) ;
#460 = PLANE ( 'NONE',  #120 ) ;
#461 = CLOSED_SHELL ( 'NONE', ( #699, #31, #492, #403, #240, #346, #96, #267, #43, #291, #565, #110, #416, #292, #178, #80, #625, #320, #528, #656 ) ) ;
#462 = EDGE_CURVE ( 'NONE', #270, #509, #374, .T. ) ;
#463 = CC_DESIGN_DATE_AND_TIME_ASSIGNMENT ( #162, #666, ( #217 ) ) ;
#464 = PLANE ( 'NONE',  #680 ) ;
#465 = CC_DESIGN_APPROVAL ( #198, ( #48 ) ) ;
#466 = CARTESIAN_POINT ( 'NONE',  ( -0.1236220472440943546, -1.325034753795316211, 0.1000000000000000056 ) ) ;
#467 = AXIS2_PLACEMENT_3D ( 'NONE', #47, #545, #113 ) ;
#468 = VECTOR ( 'NONE', #386, 39.37007874015748143 ) ;
#469 = CARTESIAN_POINT ( 'NONE',  ( 0.000000000000000000, -0.2181099999999999983, 0.000000000000000000 ) ) ;
#470 = DIRECTION ( 'NONE',  ( 0.000000000000000000, 1.000000000000000000, 0.000000000000000000 ) ) ;
#471 = CARTESIAN_POINT ( 'NONE',  ( -0.1236220472440944934, 0.1000000000000000056, -0.6870078740157474773 ) ) ;
#472 = CARTESIAN_POINT ( 'NONE',  ( 0.000000000000000000, 0.000000000000000000, 0.000000000000000000 ) ) ;
#473 = AXIS2_PLACEMENT_3D ( 'NONE', #347, #68, #232 ) ;
#474 = CIRCLE ( 'NONE', #183, 0.1329999999999999793 ) ;
#475 = CARTESIAN_POINT ( 'NONE',  ( 0.000000000000000000, 0.1000000000000000056, -1.000000000000000000 ) ) ;
#476 = VERTEX_POINT ( 'NONE', #471 ) ;
#477 = EDGE_CURVE ( 'NONE', #600, #579, #19, .T. ) ;
#478 = EDGE_CURVE ( 'NONE', #81, #315, #708, .T. ) ;
#479 = CARTESIAN_POINT ( 'NONE',  ( 8.500000000000000000, 0.1000000000000000056, -0.5055118110236219708 ) ) ;
#480 = EDGE_LOOP ( 'NONE', ( #510, #714 ) ) ;
#481 = PRODUCT_RELATED_PRODUCT_CATEGORY ( 'detail', '', ( #433 ) ) ;
#482 = CARTESIAN_POINT ( 'NONE',  ( 8.500000000000000000, 0.000000000000000000, -0.5055118110236219708 ) ) ;
#483 = ORIENTED_EDGE ( 'NONE', *, *, #368, .F. ) ;
#484 = CARTESIAN_POINT ( 'NONE',  ( 3.718307086614188073, 0.000000000000000000, 3.718307086614175194 ) ) ;
#485 = DIRECTION ( 'NONE',  ( 1.000000000000000000, 0.000000000000000000, -1.365923996832131609E-16 ) ) ;
#486 = ORIENTED_EDGE ( 'NONE', *, *, #155, .T. ) ;
#487 = VECTOR ( 'NONE', #636, 39.37007874015748143 ) ;
#488 =( LENGTH_UNIT ( ) NAMED_UNIT ( * ) SI_UNIT ( $, .METRE. ) );
#489 = AXIS2_PLACEMENT_3D ( 'NONE', #421, #311, #538 ) ;
#490 = DIRECTION ( 'NONE',  ( 0.000000000000000000, 1.000000000000000000, 0.000000000000000000 ) ) ;
#491 = ORIENTED_EDGE ( 'NONE', *, *, #181, .F. ) ;
#492 = ADVANCED_FACE ( 'NONE', ( #391, #382 ), #97, .T. ) ;
#493 = CARTESIAN_POINT ( 'NONE',  ( 8.500000000000000000, 0.1000000000000000056, -0.3725118110236210756 ) ) ;
#494 = CARTESIAN_POINT ( 'NONE',  ( -1.000000000000000000, 0.1000000000000000056, 0.1000000000000000056 ) ) ;
#495 = ORIENTED_EDGE ( 'NONE', *, *, #52, .F. ) ;
#496 = CARTESIAN_POINT ( 'NONE',  ( 8.500000000000000000, 0.1000000000000000056, -0.5055118110236219708 ) ) ;
#497 = ORIENTED_EDGE ( 'NONE', *, *, #105, .F. ) ;
#498 = EDGE_CURVE ( 'NONE', #476, #276, #160, .T. ) ;
#499 = CARTESIAN_POINT ( 'NONE',  ( 8.500000000000000000, 0.1000000000000000056, -0.6385118110236228661 ) ) ;
#500 = FACE_OUTER_BOUND ( 'NONE', #456, .T. ) ;
#501 = VECTOR ( 'NONE', #6, 39.37007874015748143 ) ;
#502 = PERSON_AND_ORGANIZATION ( #187, #618 ) ;
#503 = ORIENTED_EDGE ( 'NONE', *, *, #417, .T. ) ;
#504 = AXIS2_PLACEMENT_3D ( 'NONE', #659, #218, #277 ) ;
#505 = DIRECTION ( 'NONE',  ( 0.000000000000000000, 0.000000000000000000, -1.000000000000000000 ) ) ;
#506 = CYLINDRICAL_SURFACE ( 'NONE', #51, 0.1330000000000000626 ) ;
#507 = APPROVAL_STATUS ( 'not_yet_approved' ) ;
#508 = FACE_OUTER_BOUND ( 'NONE', #529, .T. ) ;
#509 = VERTEX_POINT ( 'NONE', #265 ) ;
#510 = ORIENTED_EDGE ( 'NONE', *, *, #443, .T. ) ;
#511 = PERSON_AND_ORGANIZATION_ROLE ( 'classification_officer' ) ;
#512 = PLANE ( 'NONE',  #566 ) ;
#513 = ORIENTED_EDGE ( 'NONE', *, *, #14, .F. ) ;
#514 = APPROVAL_ROLE ( '' ) ;
#515 = DIRECTION ( 'NONE',  ( -1.000000000000000000, 0.000000000000000000, 0.000000000000000000 ) ) ;
#516 = VECTOR ( 'NONE', #698, 39.37007874015748854 ) ;
#517 = AXIS2_PLACEMENT_3D ( 'NONE', #496, #424, #644 ) ;
#518 = LINE ( 'NONE', #564, #249 ) ;
#519 = CARTESIAN_POINT ( 'NONE',  ( 8.876377952755905909, 0.1000000000000000056, -1.000000000000000000 ) ) ;
#520 = CC_DESIGN_PERSON_AND_ORGANIZATION_ASSIGNMENT ( #55, #448, ( #433 ) ) ;
#521 = PLANE ( 'NONE',  #188 ) ;
#522 = VECTOR ( 'NONE', #107, 39.37007874015748143 ) ;
#523 = CARTESIAN_POINT ( 'NONE',  ( -0.4366141732283480015, 0.1000000000000000056, -1.000000000000000000 ) ) ;
#524 = EDGE_LOOP ( 'NONE', ( #643, #125, #318, #513, #235 ) ) ;
#525 = DIRECTION ( 'NONE',  ( 0.000000000000000000, -0.000000000000000000, 1.000000000000000000 ) ) ;
#526 = LOCAL_TIME ( 12, 10, 59.00000000000000000, #353 ) ;
#527 = FACE_BOUND ( 'NONE', #381, .T. ) ;
#528 = ADVANCED_FACE ( 'NONE', ( #436 ), #166, .F. ) ;
#529 = EDGE_LOOP ( 'NONE', ( #7, #663, #207, #375 ) ) ;
#530 = EDGE_CURVE ( 'NONE', #266, #325, #426, .T. ) ;
#531 = CYLINDRICAL_SURFACE ( 'NONE', #66, 0.1330000000000008675 ) ;
#532 = ORIENTED_EDGE ( 'NONE', *, *, #679, .F. ) ;
#533 = FACE_OUTER_BOUND ( 'NONE', #358, .T. ) ;
#534 = ORIENTED_EDGE ( 'NONE', *, *, #577, .T. ) ;
#535 = CARTESIAN_POINT ( 'NONE',  ( 8.876377952755905909, -2.215354089999999943, -1.000000000000000000 ) ) ;
#536 = LINE ( 'NONE', #246, #370 ) ;
#537 = ORIENTED_EDGE ( 'NONE', *, *, #569, .F. ) ;
#538 = DIRECTION ( 'NONE',  ( 0.000000000000000000, 0.000000000000000000, -1.000000000000000000 ) ) ;
#539 = DIRECTION ( 'NONE',  ( 1.707404996040164512E-16, 0.000000000000000000, 1.000000000000000000 ) ) ;
#540 = ORIENTED_EDGE ( 'NONE', *, *, #553, .F. ) ;
#541 = VECTOR ( 'NONE', #204, 39.37007874015748143 ) ;
#542 = LENGTH_MEASURE_WITH_UNIT ( LENGTH_MEASURE( 0.02539999999999999897 ), #488 );
#543 = VECTOR ( 'NONE', #552, 39.37007874015748143 ) ;
#544 = DIRECTION ( 'NONE',  ( 0.000000000000000000, 1.000000000000000000, 0.000000000000000000 ) ) ;
#545 = DIRECTION ( 'NONE',  ( 0.000000000000000000, 1.000000000000000000, -0.000000000000000000 ) ) ;
#546 = CARTESIAN_POINT ( 'NONE',  ( -0.1236220472440944934, 0.000000000000000000, -0.6870078740157474773 ) ) ;
#547 = EDGE_CURVE ( 'NONE', #558, #86, #321, .T. ) ;
#548 = ORIENTED_EDGE ( 'NONE', *, *, #571, .F. ) ;
#549 = CARTESIAN_POINT ( 'NONE',  ( -0.5000000000000000000, 0.000000000000000000, -0.6385118110236219779 ) ) ;
#550 = DIRECTION ( 'NONE',  ( 1.000000000000000000, -0.000000000000000000, -1.224646799147353207E-16 ) ) ;
#551 = EDGE_CURVE ( 'NONE', #148, #476, #608, .T. ) ;
#552 = DIRECTION ( 'NONE',  ( 0.000000000000000000, -1.000000000000000000, 0.000000000000000000 ) ) ;
#553 = EDGE_CURVE ( 'NONE', #81, #704, #41, .T. ) ;
#554 = VERTEX_POINT ( 'NONE', #549 ) ;
#555 = CARTESIAN_POINT ( 'NONE',  ( 8.500000000000000000, 0.1000000000000000056, -0.5055118110236219708 ) ) ;
#556 = ORIENTED_EDGE ( 'NONE', *, *, #324, .T. ) ;
#557 = LINE ( 'NONE', #281, #501 ) ;
#558 = VERTEX_POINT ( 'NONE', #330 ) ;
#559 = AXIS2_PLACEMENT_3D ( 'NONE', #373, #640, #657 ) ;
#560 = DIRECTION ( 'NONE',  ( 0.000000000000000000, 1.000000000000000000, 0.000000000000000000 ) ) ;
#561 = DATE_AND_TIME ( #661, #673 ) ;
#562 = LINE ( 'NONE', #61, #150 ) ;
#563 = ORIENTED_EDGE ( 'NONE', *, *, #498, .F. ) ;
#564 = CARTESIAN_POINT ( 'NONE',  ( 8.876377952755905909, -2.215354089999999943, 0.1000000000000000056 ) ) ;
#565 = ADVANCED_FACE ( 'NONE', ( #102, #262 ), #430, .T. ) ;
#566 = AXIS2_PLACEMENT_3D ( 'NONE', #337, #515, #63 ) ;
#567 = CARTESIAN_POINT ( 'NONE',  ( 8.876377952755905909, 0.000000000000000000, -0.9999999999999998890 ) ) ;
#568 = DIRECTION ( 'NONE',  ( -0.000000000000000000, -0.000000000000000000, 1.000000000000000000 ) ) ;
#569 = EDGE_CURVE ( 'NONE', #219, #301, #326, .T. ) ;
#570 = CARTESIAN_POINT ( 'NONE',  ( -0.5000000000000000000, 0.1000000000000000056, -0.3725118110236219082 ) ) ;
#571 = EDGE_CURVE ( 'NONE', #276, #86, #271, .T. ) ;
#572 = CARTESIAN_POINT ( 'NONE',  ( 0.000000000000000000, -0.2181099999999999983, 0.000000000000000000 ) ) ;
#573 = COORDINATED_UNIVERSAL_TIME_OFFSET ( 5, 0, .BEHIND. ) ;
#574 = VECTOR ( 'NONE', #18, 39.37007874015748143 ) ;
#575 = LOCAL_TIME ( 12, 10, 59.00000000000000000, #399 ) ;
#576 = FACE_OUTER_BOUND ( 'NONE', #203, .T. ) ;
#577 = EDGE_CURVE ( 'NONE', #600, #587, #46, .T. ) ;
#578 = CARTESIAN_POINT ( 'NONE',  ( -0.8763779527559052429, -2.215354089999999943, 0.000000000000000000 ) ) ;
#579 = VERTEX_POINT ( 'NONE', #493 ) ;
#580 = DIRECTION ( 'NONE',  ( -0.000000000000000000, 1.000000000000000000, -0.000000000000000000 ) ) ;
#581 = CARTESIAN_POINT ( 'NONE',  ( -0.5000000000000000000, 0.1000000000000000056, -0.6385118110236219779 ) ) ;
#582 = ORIENTED_EDGE ( 'NONE', *, *, #417, .F. ) ;
#583 = CIRCLE ( 'NONE', #473, 0.1329999999999999793 ) ;
#584 = DIRECTION ( 'NONE',  ( 0.000000000000000000, 0.000000000000000000, -1.000000000000000000 ) ) ;
#585 = ORIENTED_EDGE ( 'NONE', *, *, #551, .F. ) ;
#586 = CARTESIAN_POINT ( 'NONE',  ( 8.500000000000000000, 0.1000000000000000056, -0.6385118110236228661 ) ) ;
#587 = VERTEX_POINT ( 'NONE', #595 ) ;
#588 = AXIS2_PLACEMENT_3D ( 'NONE', #649, #376, #716 ) ;
#589 = PERSON_AND_ORGANIZATION ( #187, #618 ) ;
#590 = CARTESIAN_POINT ( 'NONE',  ( 8.876377952755905909, 0.000000000000000000, 0.000000000000000000 ) ) ;
#591 = VERTEX_POINT ( 'NONE', #143 ) ;
#592 = DIRECTION ( 'NONE',  ( -0.000000000000000000, -1.000000000000000000, -0.000000000000000000 ) ) ;
#593 = LINE ( 'NONE', #422, #236 ) ;
#594 = ORIENTED_EDGE ( 'NONE', *, *, #83, .F. ) ;
#595 = CARTESIAN_POINT ( 'NONE',  ( 8.500000000000000000, 0.000000000000000000, -0.6385118110236228661 ) ) ;
#596 = CARTESIAN_POINT ( 'NONE',  ( -1.000000000000000000, 0.1000000000000000056, 0.1000000000000000056 ) ) ;
#597 = LINE ( 'NONE', #650, #131 ) ;
#598 = AXIS2_PLACEMENT_3D ( 'NONE', #572, #412, #635 ) ;
#599 = LINE ( 'NONE', #274, #396 ) ;
#600 = VERTEX_POINT ( 'NONE', #586 ) ;
#601 = EDGE_CURVE ( 'NONE', #315, #301, #710, .T. ) ;
#602 = VECTOR ( 'NONE', #323, 39.37007874015748143 ) ;
#603 = CARTESIAN_POINT ( 'NONE',  ( -0.1236220472440944934, -1.325034753795316211, -0.6870078740157474773 ) ) ;
#604 = DIRECTION ( 'NONE',  ( 0.000000000000000000, -0.000000000000000000, 1.000000000000000000 ) ) ;
#605 = CARTESIAN_POINT ( 'NONE',  ( -0.4366141732283480015, 0.1000000000000000056, -1.000000000000000000 ) ) ;
#606 = EDGE_CURVE ( 'NONE', #270, #148, #256, .T. ) ;
#607 = VERTEX_POINT ( 'NONE', #212 ) ;
#608 = LINE ( 'NONE', #603, #115 ) ;
#609 = VERTEX_POINT ( 'NONE', #220 ) ;
#610 = CALENDAR_DATE ( 2026, 26, 5 ) ;
#611 = CARTESIAN_POINT ( 'NONE',  ( 8.000000000000000000, 0.1000000000000000056, -1.000000000000000000 ) ) ;
#612 = ORIENTED_EDGE ( 'NONE', *, *, #678, .T. ) ;
#613 = EDGE_LOOP ( 'NONE', ( #201, #141, #483, #634 ) ) ;
#614 = PERSON_AND_ORGANIZATION ( #187, #618 ) ;
#615 = CARTESIAN_POINT ( 'NONE',  ( -0.1236220472440943685, 0.000000000000000000, 0.000000000000000000 ) ) ;
#616 = EDGE_LOOP ( 'NONE', ( #395, #170, #693, #103 ) ) ;
#617 = VECTOR ( 'NONE', #539, 39.37007874015748143 ) ;
#618 = ORGANIZATION ( 'UNSPECIFIED', 'UNSPECIFIED', '' ) ;
#619 =( NAMED_UNIT ( * ) PLANE_ANGLE_UNIT ( ) SI_UNIT ( $, .RADIAN. ) );
#620 = DIRECTION ( 'NONE',  ( 1.000000000000000000, 1.179883459494639851E-16, 0.000000000000000000 ) ) ;
#621 = EDGE_CURVE ( 'NONE', #704, #255, #599, .T. ) ;
#622 = PERSON_AND_ORGANIZATION_ROLE ( 'creator' ) ;
#623 = FACE_OUTER_BOUND ( 'NONE', #263, .T. ) ;
#624 = VECTOR ( 'NONE', #662, 39.37007874015748143 ) ;
#625 = ADVANCED_FACE ( 'NONE', ( #439 ), #379, .F. ) ;
#626 = DIRECTION ( 'NONE',  ( 1.000000000000000000, 0.000000000000000000, 1.365923996832131363E-16 ) ) ;
#627 = PLANE ( 'NONE',  #598 ) ;
#628 = CARTESIAN_POINT ( 'NONE',  ( 0.000000000000000000, 0.000000000000000000, 0.000000000000000000 ) ) ;
#629 = ORIENTED_EDGE ( 'NONE', *, *, #52, .T. ) ;
#630 = FACE_OUTER_BOUND ( 'NONE', #253, .T. ) ;
#631 = AXIS2_PLACEMENT_3D ( 'NONE', #475, #21, #485 ) ;
#632 = DIRECTION ( 'NONE',  ( 1.707404996040164512E-16, -0.000000000000000000, 1.000000000000000000 ) ) ;
#633 = VECTOR ( 'NONE', #149, 39.37007874015748143 ) ;
#634 = ORIENTED_EDGE ( 'NONE', *, *, #678, .F. ) ;
#635 = DIRECTION ( 'NONE',  ( 0.000000000000000000, -0.000000000000000000, 1.000000000000000000 ) ) ;
#636 = DIRECTION ( 'NONE',  ( 0.000000000000000000, 0.000000000000000000, -1.000000000000000000 ) ) ;
#637 = ORIENTED_EDGE ( 'NONE', *, *, #16, .F. ) ;
#638 = DIRECTION ( 'NONE',  ( -0.000000000000000000, -1.000000000000000000, -0.000000000000000000 ) ) ;
#639 = EDGE_LOOP ( 'NONE', ( #224, #717, #62, #117, #25 ) ) ;
#640 = DIRECTION ( 'NONE',  ( 1.000000000000000000, 0.000000000000000000, -0.000000000000000000 ) ) ;
#641 = EDGE_CURVE ( 'NONE', #287, #357, #384, .T. ) ;
#642 = CARTESIAN_POINT ( 'NONE',  ( -0.8763779527559054650, 0.000000000000000000, 0.000000000000000000 ) ) ;
#643 = ORIENTED_EDGE ( 'NONE', *, *, #462, .F. ) ;
#644 = DIRECTION ( 'NONE',  ( 0.000000000000000000, 0.000000000000000000, -1.000000000000000000 ) ) ;
#645 = CIRCLE ( 'NONE', #336, 0.1330000000000008675 ) ;
#646 = CARTESIAN_POINT ( 'NONE',  ( -0.1236220472440945489, -1.325034753795316211, -1.000000000000000000 ) ) ;
#647 = VERTEX_POINT ( 'NONE', #88 ) ;
#648 = DIRECTION ( 'NONE',  ( -0.000000000000000000, -1.000000000000000000, -0.000000000000000000 ) ) ;
#649 = CARTESIAN_POINT ( 'NONE',  ( 0.000000000000000000, 0.000000000000000000, 0.000000000000000000 ) ) ;
#650 = CARTESIAN_POINT ( 'NONE',  ( 0.000000000000000000, 0.000000000000000000, 0.000000000000000000 ) ) ;
#651 = EDGE_CURVE ( 'NONE', #228, #270, #44, .T. ) ;
#652 = ORIENTED_EDGE ( 'NONE', *, *, #28, .F. ) ;
#653 = AXIS2_PLACEMENT_3D ( 'NONE', #179, #17, #677 ) ;
#654 = DIRECTION ( 'NONE',  ( 0.000000000000000000, -0.000000000000000000, 1.000000000000000000 ) ) ;
#655 = CARTESIAN_POINT ( 'NONE',  ( -0.5000000000000000000, 0.1000000000000000056, -0.5055118110236219708 ) ) ;
#656 = ADVANCED_FACE ( 'NONE', ( #91 ), #705, .F. ) ;
#657 = DIRECTION ( 'NONE',  ( -0.000000000000000000, 0.000000000000000000, -1.000000000000000000 ) ) ;
#658 = EDGE_LOOP ( 'NONE', ( #423, #307, #582, #537, #594 ) ) ;
#659 = CARTESIAN_POINT ( 'NONE',  ( -0.5000000000000000000, 0.1000000000000000056, -0.5055118110236219708 ) ) ;
#660 = CARTESIAN_POINT ( 'NONE',  ( 8.876377952755905909, -2.215354089999999943, -1.000000000000000000 ) ) ;
#661 = CALENDAR_DATE ( 2026, 26, 5 ) ;
#662 = DIRECTION ( 'NONE',  ( 0.000000000000000000, 0.000000000000000000, 1.000000000000000000 ) ) ;
#663 = ORIENTED_EDGE ( 'NONE', *, *, #530, .T. ) ;
#664 = DIRECTION ( 'NONE',  ( 0.000000000000000000, 1.000000000000000000, 0.000000000000000000 ) ) ;
#665 = PLANE ( 'NONE',  #438 ) ;
#666 = DATE_TIME_ROLE ( 'creation_date' ) ;
#667 = LINE ( 'NONE', #12, #275 ) ;
#668 = ORIENTED_EDGE ( 'NONE', *, *, #551, .T. ) ;
#669 = CALENDAR_DATE ( 2026, 26, 5 ) ;
#670 = AXIS2_PLACEMENT_3D ( 'NONE', #295, #70, #407 ) ;
#671 = CARTESIAN_POINT ( 'NONE',  ( -0.1236220472440945489, -0.2181099999999999983, -1.000000000000000000 ) ) ;
#672 = ORIENTED_EDGE ( 'NONE', *, *, #345, .F. ) ;
#673 = LOCAL_TIME ( 12, 10, 59.00000000000000000, #718 ) ;
#674 = APPROVAL_DATE_TIME ( #561, #78 ) ;
#675 = CARTESIAN_POINT ( 'NONE',  ( -0.1236220472440943685, 0.000000000000000000, 0.000000000000000000 ) ) ;
#676 = EDGE_CURVE ( 'NONE', #579, #647, #328, .T. ) ;
#677 = DIRECTION ( 'NONE',  ( 0.000000000000000000, 0.000000000000000000, -1.000000000000000000 ) ) ;
#678 = EDGE_CURVE ( 'NONE', #357, #591, #49, .T. ) ;
#679 = EDGE_CURVE ( 'NONE', #579, #600, #459, .T. ) ;
#680 = AXIS2_PLACEMENT_3D ( 'NONE', #293, #620, #119 ) ;
#681 = APPROVAL ( #507, 'UNSPECIFIED' ) ;
#682 = DIRECTION ( 'NONE',  ( 1.000000000000000000, 0.000000000000000000, 0.000000000000000000 ) ) ;
#683 = VECTOR ( 'NONE', #156, 39.37007874015748854 ) ;
#684 = CARTESIAN_POINT ( 'NONE',  ( 8.876377952755905909, -2.215354089999999943, 0.000000000000000000 ) ) ;
#685 = LINE ( 'NONE', #243, #11 ) ;
#686 = CARTESIAN_POINT ( 'NONE',  ( 8.876377952755905909, -2.215354089999999943, 0.1000000000000000056 ) ) ;
#687 = VERTEX_POINT ( 'NONE', #701 ) ;
#688 = FACE_OUTER_BOUND ( 'NONE', #54, .T. ) ;
#689 = EDGE_CURVE ( 'NONE', #310, #369, #34, .T. ) ;
#690 = CARTESIAN_POINT ( 'NONE',  ( 8.436614173228347724, 0.000000000000000000, -1.000000000000000000 ) ) ;
#691 = ORIENTED_EDGE ( 'NONE', *, *, #237, .T. ) ;
#692 = DIRECTION ( 'NONE',  ( -0.000000000000000000, -1.000000000000000000, -0.000000000000000000 ) ) ;
#693 = ORIENTED_EDGE ( 'NONE', *, *, #462, .T. ) ;
#694 = EDGE_CURVE ( 'NONE', #255, #310, #94, .T. ) ;
#695 = CARTESIAN_POINT ( 'NONE',  ( 8.436614173228347724, 0.1000000000000000056, -1.000000000000000000 ) ) ;
#696 = ORIENTED_EDGE ( 'NONE', *, *, #308, .F. ) ;
#697 = APPROVAL_DATE_TIME ( #251, #198 ) ;
#698 = DIRECTION ( 'NONE',  ( -0.7071067811865462405, -0.000000000000000000, 0.7071067811865486830 ) ) ;
#699 = ADVANCED_FACE ( 'NONE', ( #268 ), #432, .F. ) ;
#700 = ORIENTED_EDGE ( 'NONE', *, *, #547, .F. ) ;
#701 = CARTESIAN_POINT ( 'NONE',  ( 8.876377952755905909, 0.1000000000000000056, -1.000000000000000000 ) ) ;
#702 = DATE_TIME_ROLE ( 'classification_date' ) ;
#703 = LINE ( 'NONE', #371, #516 ) ;
#704 = VERTEX_POINT ( 'NONE', #260 ) ;
#705 = PLANE ( 'NONE',  #100 ) ;
#706 = VECTOR ( 'NONE', #367, 39.37007874015748143 ) ;
#707 = LOCAL_TIME ( 12, 10, 59.00000000000000000, #176 ) ;
#708 = LINE ( 'NONE', #223, #56 ) ;
#709 = ORIENTED_EDGE ( 'NONE', *, *, #478, .T. ) ;
#710 = LINE ( 'NONE', #713, #706 ) ;
#711 = DIRECTION ( 'NONE',  ( -1.000000000000000000, -0.000000000000000000, -0.000000000000000000 ) ) ;
#712 = VERTEX_POINT ( 'NONE', #146 ) ;
#713 = CARTESIAN_POINT ( 'NONE',  ( 8.123622047244094091, -1.325034753795316211, 0.1000000000000000056 ) ) ;
#714 = ORIENTED_EDGE ( 'NONE', *, *, #16, .T. ) ;
#715 = VECTOR ( 'NONE', #568, 39.37007874015748143 ) ;
#716 = DIRECTION ( 'NONE',  ( 0.000000000000000000, -0.000000000000000000, -1.000000000000000000 ) ) ;
#717 = ORIENTED_EDGE ( 'NONE', *, *, #641, .T. ) ;
#718 = COORDINATED_UNIVERSAL_TIME_OFFSET ( 5, 0, .BEHIND. ) ;
ENDSEC;
END-ISO-10303-21;
