ISO-10303-21;
HEADER;
FILE_DESCRIPTION (( 'STEP AP203' ),
    '1' );
FILE_NAME ('X-Axis Limit switch mount.STEP',
    '2026-05-26T16:11:22',
    ( '' ),
    ( '' ),
    'SwSTEP 2.0',
    'SolidWorks 2025',
    '' );
FILE_SCHEMA (( 'CONFIG_CONTROL_DESIGN' ));
ENDSEC;

DATA;
#1 = CYLINDRICAL_SURFACE ( 'NONE', #150, 3.000000000000000888 ) ;
#2 = DIRECTION ( 'NONE',  ( 0.000000000000000000, 1.000000000000000000, 1.692413147294445970E-16 ) ) ;
#3 = AXIS2_PLACEMENT_3D ( 'NONE', #831, #252, #834 ) ;
#4 = VERTEX_POINT ( 'NONE', #560 ) ;
#5 = AXIS2_PLACEMENT_3D ( 'NONE', #500, #481, #100 ) ;
#6 = CARTESIAN_POINT ( 'NONE',  ( -101.5999999999999943, 2.999999999999987566, 3.000000000000000000 ) ) ;
#7 = ORIENTED_EDGE ( 'NONE', *, *, #106, .T. ) ;
#8 = CIRCLE ( 'NONE', #121, 3.000000000000000888 ) ;
#9 = CARTESIAN_POINT ( 'NONE',  ( -91.06594999999998663, -13.76500000000000412, 9.585000000000004405 ) ) ;
#10 = ADVANCED_FACE ( 'NONE', ( #363 ), #13, .T. ) ;
#11 = ORIENTED_EDGE ( 'NONE', *, *, #468, .T. ) ;
#12 = CIRCLE ( 'NONE', #303, 3.000000000000000888 ) ;
#13 = PLANE ( 'NONE',  #321 ) ;
#14 = ADVANCED_FACE ( 'NONE', ( #780, #61, #588 ), #845, .F. ) ;
#15 = ORIENTED_EDGE ( 'NONE', *, *, #261, .F. ) ;
#16 = VECTOR ( 'NONE', #267, 1000.000000000000000 ) ;
#17 = ADVANCED_FACE ( 'NONE', ( #122 ), #324, .T. ) ;
#18 = ORIENTED_EDGE ( 'NONE', *, *, #163, .T. ) ;
#19 = EDGE_LOOP ( 'NONE', ( #22, #52, #42, #548, #7, #801 ) ) ;
#20 = FACE_BOUND ( 'NONE', #227, .T. ) ;
#21 = LINE ( 'NONE', #493, #265 ) ;
#22 = ORIENTED_EDGE ( 'NONE', *, *, #559, .F. ) ;
#23 = DIRECTION ( 'NONE',  ( -0.000000000000000000, -1.000000000000000000, -0.000000000000000000 ) ) ;
#24 = DIRECTION ( 'NONE',  ( -0.000000000000000000, 1.000000000000000000, 1.269309860470834724E-16 ) ) ;
#25 = DIRECTION ( 'NONE',  ( 0.000000000000000000, 0.000000000000000000, -1.000000000000000000 ) ) ;
#26 = VERTEX_POINT ( 'NONE', #590 ) ;
#27 = FACE_BOUND ( 'NONE', #545, .T. ) ;
#28 = CC_DESIGN_APPROVAL ( #746, ( #400 ) ) ;
#29 = LINE ( 'NONE', #618, #146 ) ;
#30 = APPLICATION_CONTEXT ( 'configuration controlled 3d designs of mechanical parts and assemblies' ) ;
#31 = PLANE ( 'NONE',  #561 ) ;
#32 = ORIENTED_EDGE ( 'NONE', *, *, #374, .F. ) ;
#33 = DIRECTION ( 'NONE',  ( 0.000000000000000000, 0.000000000000000000, -1.000000000000000000 ) ) ;
#34 = ORIENTED_EDGE ( 'NONE', *, *, #408, .F. ) ;
#35 = CYLINDRICAL_SURFACE ( 'NONE', #821, 3.000000000000000888 ) ;
#36 = CARTESIAN_POINT ( 'NONE',  ( 1.685726319026331618E-15, -4.765000000000000568, 3.000000000000000888 ) ) ;
#37 = EDGE_CURVE ( 'NONE', #411, #760, #767, .T. ) ;
#38 = ORIENTED_EDGE ( 'NONE', *, *, #218, .F. ) ;
#39 = DIRECTION ( 'NONE',  ( 0.000000000000000000, 1.000000000000000000, 1.692413147294445970E-16 ) ) ;
#40 = LINE ( 'NONE', #622, #236 ) ;
#41 = DIRECTION ( 'NONE',  ( -0.000000000000000000, 1.000000000000000000, 1.269309860470834724E-16 ) ) ;
#42 = ORIENTED_EDGE ( 'NONE', *, *, #798, .F. ) ;
#43 = DIRECTION ( 'NONE',  ( 0.000000000000000000, 0.000000000000000000, 1.000000000000000000 ) ) ;
#44 = AXIS2_PLACEMENT_3D ( 'NONE', #710, #191, #66 ) ;
#45 = CARTESIAN_POINT ( 'NONE',  ( -91.06594999999998663, -4.765000000000003233, 33.58500000000001506 ) ) ;
#46 = DIRECTION ( 'NONE',  ( -0.000000000000000000, 0.000000000000000000, -1.000000000000000000 ) ) ;
#47 = VECTOR ( 'NONE', #127, 1000.000000000000000 ) ;
#48 = ORIENTED_EDGE ( 'NONE', *, *, #842, .F. ) ;
#49 = CARTESIAN_POINT ( 'NONE',  ( -91.06594999999998663, -13.76500000000000767, 30.58500000000000796 ) ) ;
#50 = DIRECTION ( 'NONE',  ( -0.000000000000000000, -1.000000000000000000, -0.000000000000000000 ) ) ;
#51 = PERSON_AND_ORGANIZATION ( #62, #116 ) ;
#52 = ORIENTED_EDGE ( 'NONE', *, *, #792, .T. ) ;
#53 = CARTESIAN_POINT ( 'NONE',  ( -91.06594999999998663, -16.76500000000001478, 30.58500000000000796 ) ) ;
#54 = ADVANCED_FACE ( 'NONE', ( #394 ), #458, .F. ) ;
#55 = LINE ( 'NONE', #509, #308 ) ;
#56 = VECTOR ( 'NONE', #96, 1000.000000000000000 ) ;
#57 = CARTESIAN_POINT ( 'NONE',  ( -35.06594999999999374, -16.76500000000001478, 12.58500000000000618 ) ) ;
#58 = AXIS2_PLACEMENT_3D ( 'NONE', #364, #174, #698 ) ;
#59 = CARTESIAN_POINT ( 'NONE',  ( -4.999999999999997335, 3.000000000000000000, -12.69999999999999751 ) ) ;
#60 = MECHANICAL_CONTEXT ( 'NONE', #707, 'mechanical' ) ;
#61 = FACE_BOUND ( 'NONE', #287, .T. ) ;
#62 = PERSON ( 'UNSPECIFIED', 'UNSPECIFIED', 'UNSPECIFIED', ('UNSPECIFIED'), ('UNSPECIFIED'), ('UNSPECIFIED') ) ;
#63 = APPROVAL_ROLE ( '' ) ;
#64 = VERTEX_POINT ( 'NONE', #382 ) ;
#65 = EDGE_CURVE ( 'NONE', #627, #103, #444, .T. ) ;
#66 = DIRECTION ( 'NONE',  ( 0.000000000000000000, 0.000000000000000000, 1.000000000000000000 ) ) ;
#67 = CARTESIAN_POINT ( 'NONE',  ( -101.5999999999999943, 2.999999999999987566, 0.000000000000000000 ) ) ;
#68 = AXIS2_PLACEMENT_3D ( 'NONE', #317, #50, #579 ) ;
#69 = LOCAL_TIME ( 12, 11, 22.00000000000000000, #646 ) ;
#70 = EDGE_LOOP ( 'NONE', ( #145, #97, #107, #160 ) ) ;
#71 = LINE ( 'NONE', #67, #385 ) ;
#72 = EDGE_LOOP ( 'NONE', ( #225, #147, #752, #340 ) ) ;
#73 = AXIS2_PLACEMENT_3D ( 'NONE', #702, #39, #567 ) ;
#74 = CARTESIAN_POINT ( 'NONE',  ( -101.5999999999999943, -4.765000000000005009, 41.00000000000000711 ) ) ;
#75 = COORDINATED_UNIVERSAL_TIME_OFFSET ( 5, 0, .BEHIND. ) ;
#76 = ADVANCED_FACE ( 'NONE', ( #650 ), #1, .F. ) ;
#77 = EDGE_CURVE ( 'NONE', #765, #797, #517, .T. ) ;
#78 = ORIENTED_EDGE ( 'NONE', *, *, #98, .T. ) ;
#79 = EDGE_CURVE ( 'NONE', #572, #741, #644, .T. ) ;
#80 = VECTOR ( 'NONE', #161, 1000.000000000000000 ) ;
#81 = ORIENTED_EDGE ( 'NONE', *, *, #140, .F. ) ;
#82 = ORIENTED_EDGE ( 'NONE', *, *, #98, .F. ) ;
#83 = VECTOR ( 'NONE', #759, 1000.000000000000000 ) ;
#84 = CIRCLE ( 'NONE', #58, 3.000000000000009770 ) ;
#85 = DIRECTION ( 'NONE',  ( 0.000000000000000000, 0.000000000000000000, 1.000000000000000000 ) ) ;
#86 = ORIENTED_EDGE ( 'NONE', *, *, #274, .F. ) ;
#87 = EDGE_LOOP ( 'NONE', ( #731, #133, #510, #441 ) ) ;
#88 = DIRECTION ( 'NONE',  ( 0.000000000000000000, -1.369518533665900065E-16, 1.000000000000000000 ) ) ;
#89 = FACE_OUTER_BOUND ( 'NONE', #789, .T. ) ;
#90 = ORIENTED_EDGE ( 'NONE', *, *, #292, .T. ) ;
#91 = CARTESIAN_POINT ( 'NONE',  ( -91.06594999999998663, -4.765000000000003233, 27.58499999999999730 ) ) ;
#92 = EDGE_LOOP ( 'NONE', ( #744, #486, #300, #353 ) ) ;
#93 = CARTESIAN_POINT ( 'NONE',  ( -91.06594999999998663, -13.76500000000000412, 6.584999999999997300 ) ) ;
#94 = DIRECTION ( 'NONE',  ( 0.000000000000000000, -1.000000000000000000, -1.692413147294445970E-16 ) ) ;
#95 = ORIENTED_EDGE ( 'NONE', *, *, #454, .F. ) ;
#96 = DIRECTION ( 'NONE',  ( -0.000000000000000000, -1.000000000000000000, -0.000000000000000000 ) ) ;
#97 = ORIENTED_EDGE ( 'NONE', *, *, #840, .T. ) ;
#98 = EDGE_CURVE ( 'NONE', #202, #542, #526, .T. ) ;
#99 = DIRECTION ( 'NONE',  ( 4.436121892174556143E-17, 1.369518533665900065E-16, -1.000000000000000000 ) ) ;
#100 = DIRECTION ( 'NONE',  ( 0.000000000000000000, 0.000000000000000000, 1.000000000000000000 ) ) ;
#101 = VERTEX_POINT ( 'NONE', #391 ) ;
#102 = DIRECTION ( 'NONE',  ( -0.000000000000000000, -1.000000000000000000, -0.000000000000000000 ) ) ;
#103 = VERTEX_POINT ( 'NONE', #388 ) ;
#104 = DIRECTION ( 'NONE',  ( -1.000000000000000000, 0.000000000000000000, 0.000000000000000000 ) ) ;
#105 = LINE ( 'NONE', #36, #671 ) ;
#106 = EDGE_CURVE ( 'NONE', #797, #210, #585, .T. ) ;
#107 = ORIENTED_EDGE ( 'NONE', *, *, #473, .T. ) ;
#108 = DIRECTION ( 'NONE',  ( 0.000000000000000000, 1.000000000000000000, 1.156482317317870739E-15 ) ) ;
#109 = EDGE_CURVE ( 'NONE', #760, #139, #455, .T. ) ;
#110 = DIRECTION ( 'NONE',  ( 0.000000000000000000, 0.000000000000000000, 1.000000000000000000 ) ) ;
#111 = CARTESIAN_POINT ( 'NONE',  ( -35.06594999999999374, -13.76500000000000412, 9.585000000000004405 ) ) ;
#112 = VERTEX_POINT ( 'NONE', #366 ) ;
#113 = CARTESIAN_POINT ( 'NONE',  ( 0.000000000000000000, -10.76500000000000590, 41.00000000000000711 ) ) ;
#114 = AXIS2_PLACEMENT_3D ( 'NONE', #53, #695, #370 ) ;
#115 = FACE_OUTER_BOUND ( 'NONE', #368, .T. ) ;
#116 = ORGANIZATION ( 'UNSPECIFIED', 'UNSPECIFIED', '' ) ;
#117 = CARTESIAN_POINT ( 'NONE',  ( -35.06594999999999374, -13.76500000000000767, 30.58500000000000796 ) ) ;
#118 = ORIENTED_EDGE ( 'NONE', *, *, #824, .F. ) ;
#119 = CC_DESIGN_PERSON_AND_ORGANIZATION_ASSIGNMENT ( #208, #471, ( #400 ) ) ;
#120 = CARTESIAN_POINT ( 'NONE',  ( -4.999999999999997335, 0.000000000000000000, -12.69999999999999751 ) ) ;
#121 = AXIS2_PLACEMENT_3D ( 'NONE', #432, #621, #248 ) ;
#122 = FACE_OUTER_BOUND ( 'NONE', #726, .T. ) ;
#123 = DIRECTION ( 'NONE',  ( 0.000000000000000000, 1.000000000000000000, 1.692413147294445970E-16 ) ) ;
#124 = VECTOR ( 'NONE', #721, 1000.000000000000000 ) ;
#125 = CARTESIAN_POINT ( 'NONE',  ( -4.999999999999997335, 3.000000000000000000, -15.69999999999999929 ) ) ;
#126 = ADVANCED_FACE ( 'NONE', ( #435 ), #686, .F. ) ;
#127 = DIRECTION ( 'NONE',  ( -0.000000000000000000, 1.000000000000000000, 1.269309860470834724E-16 ) ) ;
#128 = AXIS2_PLACEMENT_3D ( 'NONE', #301, #817, #833 ) ;
#129 = UNCERTAINTY_MEASURE_WITH_UNIT (LENGTH_MEASURE( 1.000000000000000082E-05 ), #389, 'distance_accuracy_value', 'NONE');
#130 = DIRECTION ( 'NONE',  ( 0.000000000000000000, -1.000000000000000000, -1.156482317317870739E-15 ) ) ;
#131 = DATE_TIME_ROLE ( 'creation_date' ) ;
#132 = ADVANCED_FACE ( 'NONE', ( #115 ), #583, .F. ) ;
#133 = ORIENTED_EDGE ( 'NONE', *, *, #297, .F. ) ;
#134 = DIRECTION ( 'NONE',  ( -1.000000000000000000, 0.000000000000000000, 0.000000000000000000 ) ) ;
#135 = LINE ( 'NONE', #532, #667 ) ;
#136 = ORIENTED_EDGE ( 'NONE', *, *, #269, .T. ) ;
#137 = CARTESIAN_POINT ( 'NONE',  ( -35.06594999999999374, -13.76500000000000767, 30.58500000000000796 ) ) ;
#138 = AXIS2_PLACEMENT_3D ( 'NONE', #320, #259, #720 ) ;
#139 = VERTEX_POINT ( 'NONE', #45 ) ;
#140 = EDGE_CURVE ( 'NONE', #492, #577, #371, .T. ) ;
#141 = CARTESIAN_POINT ( 'NONE',  ( -91.06594999999998663, -13.76500000000000767, 27.58499999999999730 ) ) ;
#142 = ADVANCED_FACE ( 'NONE', ( #569 ), #706, .F. ) ;
#143 = PERSON_AND_ORGANIZATION_ROLE ( 'creator' ) ;
#144 = EDGE_CURVE ( 'NONE', #797, #597, #638, .T. ) ;
#145 = ORIENTED_EDGE ( 'NONE', *, *, #37, .F. ) ;
#146 = VECTOR ( 'NONE', #24, 1000.000000000000000 ) ;
#147 = ORIENTED_EDGE ( 'NONE', *, *, #497, .F. ) ;
#148 = ORIENTED_EDGE ( 'NONE', *, *, #537, .T. ) ;
#149 = PLANE ( 'NONE',  #663 ) ;
#150 = AXIS2_PLACEMENT_3D ( 'NONE', #326, #330, #262 ) ;
#151 = ORIENTED_EDGE ( 'NONE', *, *, #649, .T. ) ;
#152 = VECTOR ( 'NONE', #763, 1000.000000000000000 ) ;
#153 = LINE ( 'NONE', #355, #257 ) ;
#154 = CARTESIAN_POINT ( 'NONE',  ( -101.5999999999999943, -4.765000000000005009, 41.00000000000000711 ) ) ;
#155 = ORIENTED_EDGE ( 'NONE', *, *, #190, .T. ) ;
#156 = DIRECTION ( 'NONE',  ( 0.000000000000000000, 1.000000000000000000, -0.000000000000000000 ) ) ;
#157 = ORIENTED_EDGE ( 'NONE', *, *, #339, .T. ) ;
#158 = CARTESIAN_POINT ( 'NONE',  ( 0.000000000000000000, -4.765000000000000568, -7.127007852088406508E-16 ) ) ;
#159 = DIRECTION ( 'NONE',  ( -1.000000000000000000, 0.000000000000000000, 0.000000000000000000 ) ) ;
#160 = ORIENTED_EDGE ( 'NONE', *, *, #109, .F. ) ;
#161 = DIRECTION ( 'NONE',  ( -0.000000000000000000, 1.000000000000000000, 1.269309860470834724E-16 ) ) ;
#162 = ORIENTED_EDGE ( 'NONE', *, *, #79, .T. ) ;
#163 = EDGE_CURVE ( 'NONE', #741, #273, #592, .T. ) ;
#164 = DIRECTION ( 'NONE',  ( 0.000000000000000000, 0.000000000000000000, 1.000000000000000000 ) ) ;
#165 = AXIS2_PLACEMENT_3D ( 'NONE', #443, #499, #768 ) ;
#166 = CARTESIAN_POINT ( 'NONE',  ( -91.06594999999998663, -4.765000000000001457, 6.584999999999997300 ) ) ;
#167 = ORIENTED_EDGE ( 'NONE', *, *, #325, .F. ) ;
#168 = CARTESIAN_POINT ( 'NONE',  ( -91.06594999999998663, -4.765000000000001457, 9.585000000000004405 ) ) ;
#169 = LINE ( 'NONE', #361, #712 ) ;
#170 = EDGE_CURVE ( 'NONE', #770, #420, #328, .T. ) ;
#171 = AXIS2_PLACEMENT_3D ( 'NONE', #485, #271, #426 ) ;
#172 = CARTESIAN_POINT ( 'NONE',  ( 0.000000000000000000, 0.000000000000000000, 0.000000000000000000 ) ) ;
#173 = VERTEX_POINT ( 'NONE', #641 ) ;
#174 = DIRECTION ( 'NONE',  ( 0.000000000000000000, 1.000000000000000000, 1.269309860470834477E-16 ) ) ;
#175 = EDGE_CURVE ( 'NONE', #139, #293, #603, .T. ) ;
#176 = DIRECTION ( 'NONE',  ( 0.000000000000000000, 0.000000000000000000, 1.000000000000000000 ) ) ;
#177 = CARTESIAN_POINT ( 'NONE',  ( -91.06594999999998663, -16.76500000000001478, 30.58500000000000796 ) ) ;
#178 = EDGE_LOOP ( 'NONE', ( #690, #658, #739, #278 ) ) ;
#179 = LINE ( 'NONE', #502, #829 ) ;
#180 = DIRECTION ( 'NONE',  ( 0.000000000000000000, 0.000000000000000000, 1.000000000000000000 ) ) ;
#181 = APPROVAL_ROLE ( '' ) ;
#182 = ORIENTED_EDGE ( 'NONE', *, *, #612, .T. ) ;
#183 = CARTESIAN_POINT ( 'NONE',  ( -91.06594999999998663, -13.76500000000000412, 12.58500000000001329 ) ) ;
#184 = LINE ( 'NONE', #379, #643 ) ;
#185 = LOCAL_TIME ( 12, 11, 22.00000000000000000, #664 ) ;
#186 = CARTESIAN_POINT ( 'NONE',  ( 0.000000000000000000, 0.000000000000000000, 3.000000000000000000 ) ) ;
#187 = EDGE_LOOP ( 'NONE', ( #311, #209 ) ) ;
#188 = DIRECTION ( 'NONE',  ( -0.000000000000000000, 1.000000000000000000, 1.269309860470834724E-16 ) ) ;
#189 = DIRECTION ( 'NONE',  ( 0.000000000000000000, 0.000000000000000000, -1.000000000000000000 ) ) ;
#190 = EDGE_CURVE ( 'NONE', #437, #542, #779, .T. ) ;
#191 = DIRECTION ( 'NONE',  ( 0.000000000000000000, 1.000000000000000000, 1.269309860470834477E-16 ) ) ;
#192 = CARTESIAN_POINT ( 'NONE',  ( -101.5999999999999943, 2.999999999999987566, 3.000000000000000000 ) ) ;
#193 = CIRCLE ( 'NONE', #272, 3.000000000000000888 ) ;
#194 = DIRECTION ( 'NONE',  ( 0.000000000000000000, 0.000000000000000000, -1.000000000000000000 ) ) ;
#195 = DIRECTION ( 'NONE',  ( 1.000000000000000000, 0.000000000000000000, 0.000000000000000000 ) ) ;
#196 = AXIS2_PLACEMENT_3D ( 'NONE', #696, #677, #826 ) ;
#197 = AXIS2_PLACEMENT_3D ( 'NONE', #662, #156, #637 ) ;
#198 = ORIENTED_EDGE ( 'NONE', *, *, #254, .F. ) ;
#199 = CARTESIAN_POINT ( 'NONE',  ( -91.06594999999998663, -13.76500000000000767, 30.58500000000000796 ) ) ;
#200 = CYLINDRICAL_SURFACE ( 'NONE', #461, 3.000000000000002665 ) ;
#201 = DATE_AND_TIME ( #341, #185 ) ;
#202 = VERTEX_POINT ( 'NONE', #753 ) ;
#203 = DIRECTION ( 'NONE',  ( 0.000000000000000000, -1.692413147294445970E-16, 1.000000000000000000 ) ) ;
#204 = APPROVAL_STATUS ( 'not_yet_approved' ) ;
#205 = EDGE_CURVE ( 'NONE', #4, #765, #40, .T. ) ;
#206 = VERTEX_POINT ( 'NONE', #634 ) ;
#207 = LINE ( 'NONE', #470, #648 ) ;
#208 = PERSON_AND_ORGANIZATION ( #62, #116 ) ;
#209 = ORIENTED_EDGE ( 'NONE', *, *, #65, .F. ) ;
#210 = VERTEX_POINT ( 'NONE', #825 ) ;
#211 = ORIENTED_EDGE ( 'NONE', *, *, #649, .F. ) ;
#212 = DATE_TIME_ROLE ( 'classification_date' ) ;
#213 = EDGE_LOOP ( 'NONE', ( #270, #607, #652, #401 ) ) ;
#214 = EDGE_LOOP ( 'NONE', ( #32, #348, #415, #247 ) ) ;
#215 = ADVANCED_BREP_SHAPE_REPRESENTATION ( 'X-Axis Limit switch mount', ( #655, #490 ), #222 ) ;
#216 = CARTESIAN_POINT ( 'NONE',  ( -35.00000000000000000, 0.000000000000000000, -15.69999999999999929 ) ) ;
#217 = AXIS2_PLACEMENT_3D ( 'NONE', #120, #298, #176 ) ;
#218 = EDGE_CURVE ( 'NONE', #601, #273, #184, .T. ) ;
#219 = DIRECTION ( 'NONE',  ( 0.000000000000000000, -0.000000000000000000, 1.000000000000000000 ) ) ;
#220 = ORIENTED_EDGE ( 'NONE', *, *, #413, .F. ) ;
#221 = DIRECTION ( 'NONE',  ( 0.000000000000000000, 0.000000000000000000, -1.000000000000000000 ) ) ;
#222 =( GEOMETRIC_REPRESENTATION_CONTEXT ( 3 ) GLOBAL_UNCERTAINTY_ASSIGNED_CONTEXT ( ( #129 ) ) GLOBAL_UNIT_ASSIGNED_CONTEXT ( ( #389, #639, #635 ) ) REPRESENTATION_CONTEXT ( 'NONE', 'WORKASPACE' ) );
#223 = FACE_BOUND ( 'NONE', #187, .T. ) ;
#224 = CYLINDRICAL_SURFACE ( 'NONE', #5, 3.000000000000000888 ) ;
#225 = ORIENTED_EDGE ( 'NONE', *, *, #540, .F. ) ;
#226 = FACE_BOUND ( 'NONE', #469, .T. ) ;
#227 = EDGE_LOOP ( 'NONE', ( #276, #701 ) ) ;
#228 = AXIS2_PLACEMENT_3D ( 'NONE', #546, #803, #349 ) ;
#229 = CARTESIAN_POINT ( 'NONE',  ( -101.5999999999999943, -4.765000000000000568, 3.000000000000000888 ) ) ;
#230 = VERTEX_POINT ( 'NONE', #235 ) ;
#231 = CARTESIAN_POINT ( 'NONE',  ( -35.00000000000000000, 0.000000000000000000, -9.699999999999997513 ) ) ;
#232 = CC_DESIGN_PERSON_AND_ORGANIZATION_ASSIGNMENT ( #586, #143, ( #839 ) ) ;
#233 = ORIENTED_EDGE ( 'NONE', *, *, #764, .F. ) ;
#234 = EDGE_CURVE ( 'NONE', #610, #770, #169, .T. ) ;
#235 = CARTESIAN_POINT ( 'NONE',  ( 0.000000000000000000, -13.76500000000000945, 41.00000000000000000 ) ) ;
#236 = VECTOR ( 'NONE', #99, 1000.000000000000000 ) ;
#237 = CARTESIAN_POINT ( 'NONE',  ( -101.5999999999999943, -13.76500000000000945, 41.00000000000000000 ) ) ;
#238 = EDGE_CURVE ( 'NONE', #577, #492, #12, .T. ) ;
#239 = ORIENTED_EDGE ( 'NONE', *, *, #290, .T. ) ;
#240 = CARTESIAN_POINT ( 'NONE',  ( -35.06594999999999374, -4.765000000000003233, 27.58500000000000441 ) ) ;
#241 = CARTESIAN_POINT ( 'NONE',  ( 0.000000000000000000, 3.000000000000000000, 3.000000000000000000 ) ) ;
#242 = CARTESIAN_POINT ( 'NONE',  ( 0.000000000000000000, 3.000000000000000000, -22.22499999999999787 ) ) ;
#243 = VERTEX_POINT ( 'NONE', #245 ) ;
#244 = CARTESIAN_POINT ( 'NONE',  ( 1.113914500088409188E-16, 0.000000000000000000, -22.22499999999999787 ) ) ;
#245 = CARTESIAN_POINT ( 'NONE',  ( -35.06594999999999374, -13.76500000000000767, 27.58500000000000441 ) ) ;
#246 = PERSON_AND_ORGANIZATION_ROLE ( 'design_owner' ) ;
#247 = ORIENTED_EDGE ( 'NONE', *, *, #234, .F. ) ;
#248 = DIRECTION ( 'NONE',  ( 0.000000000000000000, 0.000000000000000000, 1.000000000000000000 ) ) ;
#249 = CARTESIAN_POINT ( 'NONE',  ( -35.06594999999999374, -4.765000000000003233, 30.58500000000000796 ) ) ;
#250 = CARTESIAN_POINT ( 'NONE',  ( -101.5999999999999943, 2.999999999999987566, 3.000000000000000000 ) ) ;
#251 = ORIENTED_EDGE ( 'NONE', *, *, #274, .T. ) ;
#252 = DIRECTION ( 'NONE',  ( 0.000000000000000000, 1.000000000000000000, -0.000000000000000000 ) ) ;
#253 = APPROVAL_DATE_TIME ( #838, #685 ) ;
#254 = EDGE_CURVE ( 'NONE', #542, #437, #193, .T. ) ;
#255 = DIRECTION ( 'NONE',  ( 0.000000000000000000, 0.000000000000000000, -1.000000000000000000 ) ) ;
#256 = PLANE ( 'NONE',  #528 ) ;
#257 = VECTOR ( 'NONE', #552, 1000.000000000000000 ) ;
#258 = ADVANCED_FACE ( 'NONE', ( #819 ), #35, .F. ) ;
#259 = DIRECTION ( 'NONE',  ( 0.000000000000000000, 1.000000000000000000, -0.000000000000000000 ) ) ;
#260 = DIRECTION ( 'NONE',  ( 0.000000000000000000, 0.000000000000000000, -1.000000000000000000 ) ) ;
#261 = EDGE_CURVE ( 'NONE', #26, #427, #576, .T. ) ;
#262 = DIRECTION ( 'NONE',  ( 0.000000000000000000, 0.000000000000000000, 1.000000000000000000 ) ) ;
#263 = FACE_OUTER_BOUND ( 'NONE', #72, .T. ) ;
#264 = PERSON_AND_ORGANIZATION ( #62, #116 ) ;
#265 = VECTOR ( 'NONE', #570, 1000.000000000000000 ) ;
#266 = EDGE_LOOP ( 'NONE', ( #167, #604, #393, #81 ) ) ;
#267 = DIRECTION ( 'NONE',  ( 0.000000000000000000, -1.000000000000000000, 0.000000000000000000 ) ) ;
#268 = COORDINATED_UNIVERSAL_TIME_OFFSET ( 5, 0, .BEHIND. ) ;
#269 = EDGE_CURVE ( 'NONE', #661, #101, #684, .T. ) ;
#270 = ORIENTED_EDGE ( 'NONE', *, *, #339, .F. ) ;
#271 = DIRECTION ( 'NONE',  ( 0.000000000000000000, 1.000000000000000000, -0.000000000000000000 ) ) ;
#272 = AXIS2_PLACEMENT_3D ( 'NONE', #504, #699, #439 ) ;
#273 = VERTEX_POINT ( 'NONE', #787 ) ;
#274 = EDGE_CURVE ( 'NONE', #173, #661, #421, .T. ) ;
#275 = CARTESIAN_POINT ( 'NONE',  ( -40.00000000000000000, 3.000000000000000000, 0.000000000000000000 ) ) ;
#276 = ORIENTED_EDGE ( 'NONE', *, *, #175, .F. ) ;
#277 = AXIS2_PLACEMENT_3D ( 'NONE', #137, #335, #221 ) ;
#278 = ORIENTED_EDGE ( 'NONE', *, *, #694, .T. ) ;
#279 = ORIENTED_EDGE ( 'NONE', *, *, #709, .F. ) ;
#280 = CARTESIAN_POINT ( 'NONE',  ( -101.5999999999999943, 2.999999999999987566, 3.000000000000000000 ) ) ;
#281 = CARTESIAN_POINT ( 'NONE',  ( -35.00000000000000000, 3.000000000000000000, -12.69999999999999751 ) ) ;
#282 = VERTEX_POINT ( 'NONE', #74 ) ;
#283 = DIRECTION ( 'NONE',  ( 0.000000000000000000, -1.000000000000000000, 0.000000000000000000 ) ) ;
#284 = ORIENTED_EDGE ( 'NONE', *, *, #612, .F. ) ;
#285 = CARTESIAN_POINT ( 'NONE',  ( -40.00000000000000000, 3.000000000000000000, 0.000000000000000000 ) ) ;
#286 = FACE_OUTER_BOUND ( 'NONE', #531, .T. ) ;
#287 = EDGE_LOOP ( 'NONE', ( #398, #828 ) ) ;
#288 = DIRECTION ( 'NONE',  ( -0.000000000000000000, 1.000000000000000000, 1.269309860470834724E-16 ) ) ;
#289 = LOCAL_TIME ( 12, 11, 22.00000000000000000, #543 ) ;
#290 = EDGE_CURVE ( 'NONE', #206, #64, #71, .T. ) ;
#291 = DIRECTION ( 'NONE',  ( 0.000000000000000000, 1.692413147294445970E-16, -1.000000000000000000 ) ) ;
#292 = EDGE_CURVE ( 'NONE', #26, #230, #679, .T. ) ;
#293 = VERTEX_POINT ( 'NONE', #91 ) ;
#294 = PRODUCT ( 'X-Axis Limit switch mount', 'X-Axis Limit switch mount', '', ( #60 ) ) ;
#295 = LINE ( 'NONE', #692, #844 ) ;
#296 = CIRCLE ( 'NONE', #453, 3.000000000000000888 ) ;
#297 = EDGE_CURVE ( 'NONE', #786, #101, #135, .T. ) ;
#298 = DIRECTION ( 'NONE',  ( 0.000000000000000000, 1.000000000000000000, -0.000000000000000000 ) ) ;
#299 = LINE ( 'NONE', #172, #814 ) ;
#300 = ORIENTED_EDGE ( 'NONE', *, *, #77, .T. ) ;
#301 = CARTESIAN_POINT ( 'NONE',  ( -91.06594999999998663, -16.76500000000001478, 9.585000000000004405 ) ) ;
#302 = DIRECTION ( 'NONE',  ( 0.000000000000000000, 0.000000000000000000, 1.000000000000000000 ) ) ;
#303 = AXIS2_PLACEMENT_3D ( 'NONE', #375, #703, #164 ) ;
#304 = CARTESIAN_POINT ( 'NONE',  ( -101.5999999999999943, -4.764999999999998792, 3.000000000000000000 ) ) ;
#305 = ORIENTED_EDGE ( 'NONE', *, *, #106, .F. ) ;
#306 = DIRECTION ( 'NONE',  ( 0.000000000000000000, 1.000000000000000000, 1.269309860470834477E-16 ) ) ;
#307 = DIRECTION ( 'NONE',  ( 0.000000000000000000, 0.000000000000000000, -1.000000000000000000 ) ) ;
#308 = VECTOR ( 'NONE', #704, 1000.000000000000000 ) ;
#309 = CIRCLE ( 'NONE', #691, 3.000000000000002665 ) ;
#310 = CARTESIAN_POINT ( 'NONE',  ( 0.000000000000000000, -13.76500000000000945, 41.00000000000000000 ) ) ;
#311 = ORIENTED_EDGE ( 'NONE', *, *, #434, .F. ) ;
#312 = DIRECTION ( 'NONE',  ( 0.000000000000000000, 0.000000000000000000, -1.000000000000000000 ) ) ;
#313 = CARTESIAN_POINT ( 'NONE',  ( -35.06594999999999374, -4.765000000000001457, 9.585000000000004405 ) ) ;
#314 = EDGE_CURVE ( 'NONE', #243, #420, #491, .T. ) ;
#315 = DIRECTION ( 'NONE',  ( 0.000000000000000000, 0.000000000000000000, 1.000000000000000000 ) ) ;
#316 = ORIENTED_EDGE ( 'NONE', *, *, #290, .F. ) ;
#317 = CARTESIAN_POINT ( 'NONE',  ( -35.00000000000000000, 3.000000000000000000, -12.69999999999999751 ) ) ;
#318 = ADVANCED_FACE ( 'NONE', ( #263 ), #331, .F. ) ;
#319 = DIRECTION ( 'NONE',  ( -0.000000000000000000, -0.000000000000000000, -1.000000000000000000 ) ) ;
#320 = CARTESIAN_POINT ( 'NONE',  ( 0.000000000000000000, 0.000000000000000000, 0.000000000000000000 ) ) ;
#321 = AXIS2_PLACEMENT_3D ( 'NONE', #275, #134, #653 ) ;
#322 = CIRCLE ( 'NONE', #794, 3.000000000000009770 ) ;
#323 = ADVANCED_FACE ( 'NONE', ( #556 ), #594, .F. ) ;
#324 = PLANE ( 'NONE',  #360 ) ;
#325 = EDGE_CURVE ( 'NONE', #697, #492, #549, .T. ) ;
#326 = CARTESIAN_POINT ( 'NONE',  ( -35.06594999999999374, -16.76500000000001478, 9.585000000000004405 ) ) ;
#327 = APPROVAL_DATE_TIME ( #666, #536 ) ;
#328 = CIRCLE ( 'NONE', #805, 3.000000000000002665 ) ;
#329 = EDGE_LOOP ( 'NONE', ( #593, #157 ) ) ;
#330 = DIRECTION ( 'NONE',  ( -0.000000000000000000, 1.000000000000000000, 1.269309860470834724E-16 ) ) ;
#331 = CYLINDRICAL_SURFACE ( 'NONE', #428, 3.000000000000007994 ) ;
#332 = SHAPE_DEFINITION_REPRESENTATION ( #796, #215 ) ;
#333 = APPROVAL_PERSON_ORGANIZATION ( #651, #746, #392 ) ;
#334 = EDGE_LOOP ( 'NONE', ( #38, #182, #162, #220 ) ) ;
#335 = DIRECTION ( 'NONE',  ( 0.000000000000000000, 1.000000000000000000, 1.692413147294445970E-16 ) ) ;
#336 = AXIS2_PLACEMENT_3D ( 'NONE', #177, #41, #547 ) ;
#337 = ORIENTED_EDGE ( 'NONE', *, *, #37, .T. ) ;
#338 = DIRECTION ( 'NONE',  ( 0.000000000000000000, 0.000000000000000000, -1.000000000000000000 ) ) ;
#339 = EDGE_CURVE ( 'NONE', #544, #483, #390, .T. ) ;
#340 = ORIENTED_EDGE ( 'NONE', *, *, #434, .T. ) ;
#341 = CALENDAR_DATE ( 2026, 26, 5 ) ;
#342 = ORIENTED_EDGE ( 'NONE', *, *, #571, .F. ) ;
#343 = VECTOR ( 'NONE', #159, 1000.000000000000000 ) ;
#344 = ORIENTED_EDGE ( 'NONE', *, *, #261, .T. ) ;
#345 = AXIS2_PLACEMENT_3D ( 'NONE', #534, #2, #740 ) ;
#346 = CARTESIAN_POINT ( 'NONE',  ( -35.06594999999999374, -13.76500000000000767, 33.58500000000000796 ) ) ;
#347 = ORIENTED_EDGE ( 'NONE', *, *, #413, .T. ) ;
#348 = ORIENTED_EDGE ( 'NONE', *, *, #314, .T. ) ;
#349 = DIRECTION ( 'NONE',  ( 0.000000000000000000, 0.000000000000000000, 1.000000000000000000 ) ) ;
#350 = DIRECTION ( 'NONE',  ( 0.000000000000000000, 1.000000000000000000, 1.692413147294445970E-16 ) ) ;
#351 = EDGE_LOOP ( 'NONE', ( #378, #95 ) ) ;
#352 = DIRECTION ( 'NONE',  ( 0.000000000000000000, 1.000000000000000000, 1.692413147294445970E-16 ) ) ;
#353 = ORIENTED_EDGE ( 'NONE', *, *, #144, .T. ) ;
#354 = EDGE_CURVE ( 'NONE', #597, #678, #723, .T. ) ;
#355 = CARTESIAN_POINT ( 'NONE',  ( 0.000000000000000000, 0.000000000000000000, -0.000000000000000000 ) ) ;
#356 = DIRECTION ( 'NONE',  ( 0.000000000000000000, 1.692413147294445970E-16, -1.000000000000000000 ) ) ;
#357 = ORIENTED_EDGE ( 'NONE', *, *, #325, .T. ) ;
#358 = CARTESIAN_POINT ( 'NONE',  ( 0.000000000000000000, 0.000000000000000000, 0.000000000000000000 ) ) ;
#359 = ORIENTED_EDGE ( 'NONE', *, *, #109, .T. ) ;
#360 = AXIS2_PLACEMENT_3D ( 'NONE', #523, #452, #130 ) ;
#361 = CARTESIAN_POINT ( 'NONE',  ( -35.06594999999999374, -16.76500000000001478, 33.58500000000000796 ) ) ;
#362 = DIRECTION ( 'NONE',  ( 0.000000000000000000, 1.000000000000000000, -0.000000000000000000 ) ) ;
#363 = FACE_OUTER_BOUND ( 'NONE', #541, .T. ) ;
#364 = CARTESIAN_POINT ( 'NONE',  ( -91.06594999999998663, -4.765000000000003233, 30.58500000000000796 ) ) ;
#365 = CIRCLE ( 'NONE', #73, 3.000000000000007994 ) ;
#366 = CARTESIAN_POINT ( 'NONE',  ( -35.06594999999999374, -13.76500000000000412, 6.585000000000004405 ) ) ;
#367 = FACE_OUTER_BOUND ( 'NONE', #87, .T. ) ;
#368 = EDGE_LOOP ( 'NONE', ( #719, #344, #151, #34, #305, #816, #625, #11 ) ) ;
#369 = FACE_OUTER_BOUND ( 'NONE', #213, .T. ) ;
#370 = DIRECTION ( 'NONE',  ( 0.000000000000000000, 0.000000000000000000, 1.000000000000000000 ) ) ;
#371 = CIRCLE ( 'NONE', #3, 3.000000000000000888 ) ;
#372 = EDGE_LOOP ( 'NONE', ( #806, #673 ) ) ;
#373 = CARTESIAN_POINT ( 'NONE',  ( -91.06594999999998663, -16.76500000000001478, 6.584999999999997300 ) ) ;
#374 = EDGE_CURVE ( 'NONE', #243, #610, #605, .T. ) ;
#375 = CARTESIAN_POINT ( 'NONE',  ( -35.00000000000000000, 0.000000000000000000, -12.69999999999999751 ) ) ;
#376 = VECTOR ( 'NONE', #430, 1000.000000000000000 ) ;
#377 = PLANE ( 'NONE',  #459 ) ;
#378 = ORIENTED_EDGE ( 'NONE', *, *, #170, .F. ) ;
#379 = CARTESIAN_POINT ( 'NONE',  ( -4.999999999999997335, 3.000000000000000000, -9.699999999999997513 ) ) ;
#380 = CIRCLE ( 'NONE', #228, 3.000000000000000888 ) ;
#381 = CARTESIAN_POINT ( 'NONE',  ( 0.000000000000000000, 0.000000000000000000, 0.000000000000000000 ) ) ;
#382 = CARTESIAN_POINT ( 'NONE',  ( -101.5999999999999943, -13.76500000000000234, -2.270641353000779854E-16 ) ) ;
#383 = CC_DESIGN_PERSON_AND_ORGANIZATION_ASSIGNMENT ( #51, #246, ( #294 ) ) ;
#384 = ADVANCED_FACE ( 'NONE', ( #27, #226, #598 ), #745, .T. ) ;
#385 = VECTOR ( 'NONE', #283, 1000.000000000000000 ) ;
#386 = APPROVAL_STATUS ( 'not_yet_approved' ) ;
#387 = EDGE_CURVE ( 'NONE', #202, #112, #575, .T. ) ;
#388 = CARTESIAN_POINT ( 'NONE',  ( -91.06594999999998663, -4.765000000000001457, 12.58500000000001329 ) ) ;
#389 =( LENGTH_UNIT ( ) NAMED_UNIT ( * ) SI_UNIT ( .MILLI., .METRE. ) );
#390 = CIRCLE ( 'NONE', #503, 3.000000000000007994 ) ;
#391 = CARTESIAN_POINT ( 'NONE',  ( -40.00000000000000000, 0.000000000000000000, -22.22499999999999787 ) ) ;
#392 = APPROVAL_ROLE ( '' ) ;
#393 = ORIENTED_EDGE ( 'NONE', *, *, #529, .T. ) ;
#394 = FACE_OUTER_BOUND ( 'NONE', #334, .T. ) ;
#395 = DIRECTION ( 'NONE',  ( 0.000000000000000000, 0.000000000000000000, 1.000000000000000000 ) ) ;
#396 = APPROVAL_STATUS ( 'not_yet_approved' ) ;
#397 = VECTOR ( 'NONE', #255, 1000.000000000000000 ) ;
#398 = ORIENTED_EDGE ( 'NONE', *, *, #238, .T. ) ;
#399 = CARTESIAN_POINT ( 'NONE',  ( -40.00000000000000000, 0.000000000000000000, -0.000000000000000000 ) ) ;
#400 = PRODUCT_DEFINITION_FORMATION_WITH_SPECIFIED_SOURCE ( 'ANY', '', #294, .NOT_KNOWN. ) ;
#401 = ORIENTED_EDGE ( 'NONE', *, *, #687, .F. ) ;
#402 = ADVANCED_FACE ( 'NONE', ( #784 ), #200, .F. ) ;
#403 = CARTESIAN_POINT ( 'NONE',  ( -35.06594999999999374, -16.76500000000001478, 30.58500000000000796 ) ) ;
#404 = SECURITY_CLASSIFICATION_LEVEL ( 'unclassified' ) ;
#405 = VECTOR ( 'NONE', #681, 1000.000000000000000 ) ;
#406 = ORIENTED_EDGE ( 'NONE', *, *, #297, .T. ) ;
#407 = CALENDAR_DATE ( 2026, 26, 5 ) ;
#408 = EDGE_CURVE ( 'NONE', #210, #538, #207, .T. ) ;
#409 = ORIENTED_EDGE ( 'NONE', *, *, #824, .T. ) ;
#410 = VECTOR ( 'NONE', #203, 1000.000000000000000 ) ;
#411 = VERTEX_POINT ( 'NONE', #141 ) ;
#412 = VECTOR ( 'NONE', #463, 1000.000000000000000 ) ;
#413 = EDGE_CURVE ( 'NONE', #273, #741, #756, .T. ) ;
#414 = DIRECTION ( 'NONE',  ( -0.000000000000000000, 1.000000000000000000, 1.269309860470834724E-16 ) ) ;
#415 = ORIENTED_EDGE ( 'NONE', *, *, #454, .T. ) ;
#416 = VECTOR ( 'NONE', #584, 1000.000000000000000 ) ;
#417 = ORIENTED_EDGE ( 'NONE', *, *, #387, .F. ) ;
#418 = FACE_BOUND ( 'NONE', #351, .T. ) ;
#419 = CARTESIAN_POINT ( 'NONE',  ( -35.00000000000000000, 3.000000000000000000, -9.699999999999997513 ) ) ;
#420 = VERTEX_POINT ( 'NONE', #240 ) ;
#421 = LINE ( 'NONE', #611, #456 ) ;
#422 = EDGE_CURVE ( 'NONE', #64, #26, #179, .T. ) ;
#423 = DIRECTION ( 'NONE',  ( 0.000000000000000000, 1.000000000000000000, 1.369518533665900065E-16 ) ) ;
#424 = PLANE ( 'NONE',  #716 ) ;
#425 = ORIENTED_EDGE ( 'NONE', *, *, #792, .F. ) ;
#426 = DIRECTION ( 'NONE',  ( 0.000000000000000000, 0.000000000000000000, 1.000000000000000000 ) ) ;
#427 = VERTEX_POINT ( 'NONE', #507 ) ;
#428 = AXIS2_PLACEMENT_3D ( 'NONE', #660, #288, #395 ) ;
#429 = DIRECTION ( 'NONE',  ( -1.000000000000000000, -1.237868622129119302E-16, 0.000000000000000000 ) ) ;
#430 = DIRECTION ( 'NONE',  ( 0.000000000000000000, -1.369518533665900065E-16, 1.000000000000000000 ) ) ;
#431 = EDGE_LOOP ( 'NONE', ( #582, #462, #155, #82 ) ) ;
#432 = CARTESIAN_POINT ( 'NONE',  ( -35.00000000000000000, 3.000000000000000000, -12.69999999999999751 ) ) ;
#433 = CIRCLE ( 'NONE', #672, 3.000000000000007994 ) ;
#434 = EDGE_CURVE ( 'NONE', #103, #627, #433, .T. ) ;
#435 = FACE_OUTER_BOUND ( 'NONE', #836, .T. ) ;
#436 = CYLINDRICAL_SURFACE ( 'NONE', #336, 3.000000000000009770 ) ;
#437 = VERTEX_POINT ( 'NONE', #438 ) ;
#438 = CARTESIAN_POINT ( 'NONE',  ( -35.06594999999999374, -4.765000000000001457, 6.585000000000004405 ) ) ;
#439 = DIRECTION ( 'NONE',  ( 0.000000000000000000, 0.000000000000000000, 1.000000000000000000 ) ) ;
#440 = FACE_OUTER_BOUND ( 'NONE', #515, .T. ) ;
#441 = ORIENTED_EDGE ( 'NONE', *, *, #408, .T. ) ;
#442 = DIRECTION ( 'NONE',  ( -1.000000000000000000, 0.000000000000000000, -0.000000000000000000 ) ) ;
#443 = CARTESIAN_POINT ( 'NONE',  ( -91.06594999999998663, -4.765000000000003233, 30.58500000000000796 ) ) ;
#444 = CIRCLE ( 'NONE', #44, 3.000000000000007994 ) ;
#445 = LINE ( 'NONE', #192, #484 ) ;
#446 = ORIENTED_EDGE ( 'NONE', *, *, #810, .F. ) ;
#447 = CARTESIAN_POINT ( 'NONE',  ( 0.000000000000000000, 3.000000000000000000, 0.000000000000000000 ) ) ;
#448 = DIRECTION ( 'NONE',  ( 1.000000000000000000, 0.000000000000000000, -0.000000000000000000 ) ) ;
#449 = ORIENTED_EDGE ( 'NONE', *, *, #190, .F. ) ;
#450 = PRODUCT_RELATED_PRODUCT_CATEGORY ( 'detail', '', ( #294 ) ) ;
#451 = ADVANCED_FACE ( 'NONE', ( #369 ), #766, .F. ) ;
#452 = DIRECTION ( 'NONE',  ( 0.000000000000000000, -1.156482317317870739E-15, 1.000000000000000000 ) ) ;
#453 = AXIS2_PLACEMENT_3D ( 'NONE', #281, #362, #738 ) ;
#454 = EDGE_CURVE ( 'NONE', #420, #770, #309, .T. ) ;
#455 = LINE ( 'NONE', #783, #657 ) ;
#456 = VECTOR ( 'NONE', #23, 1000.000000000000000 ) ;
#457 = CARTESIAN_POINT ( 'NONE',  ( 0.000000000000000000, 0.000000000000000000, -22.22499999999999787 ) ) ;
#458 = CYLINDRICAL_SURFACE ( 'NONE', #551, 3.000000000000000888 ) ;
#459 = AXIS2_PLACEMENT_3D ( 'NONE', #186, #260, #769 ) ;
#460 = LINE ( 'NONE', #457, #152 ) ;
#461 = AXIS2_PLACEMENT_3D ( 'NONE', #403, #464, #790 ) ;
#462 = ORIENTED_EDGE ( 'NONE', *, *, #571, .T. ) ;
#463 = DIRECTION ( 'NONE',  ( -1.224646799147353207E-16, 1.000000000000000000, -0.000000000000000000 ) ) ;
#464 = DIRECTION ( 'NONE',  ( -0.000000000000000000, 1.000000000000000000, 1.269309860470834724E-16 ) ) ;
#465 = EDGE_CURVE ( 'NONE', #760, #411, #322, .T. ) ;
#466 = ORIENTED_EDGE ( 'NONE', *, *, #810, .T. ) ;
#467 = CARTESIAN_POINT ( 'NONE',  ( -35.06594999999999374, -16.76500000000001478, 27.58500000000000441 ) ) ;
#468 = EDGE_CURVE ( 'NONE', #4, #230, #578, .T. ) ;
#469 = EDGE_LOOP ( 'NONE', ( #636, #557 ) ) ;
#470 = CARTESIAN_POINT ( 'NONE',  ( 1.113914500088409188E-16, 3.000000000000000000, -22.22499999999999787 ) ) ;
#471 = PERSON_AND_ORGANIZATION_ROLE ( 'design_supplier' ) ;
#472 = ORIENTED_EDGE ( 'NONE', *, *, #163, .F. ) ;
#473 = EDGE_CURVE ( 'NONE', #293, #139, #84, .T. ) ;
#474 = ADVANCED_FACE ( 'NONE', ( #562 ), #573, .T. ) ;
#475 = ORIENTED_EDGE ( 'NONE', *, *, #645, .F. ) ;
#476 = ORIENTED_EDGE ( 'NONE', *, *, #568, .F. ) ;
#477 = DATE_AND_TIME ( #530, #289 ) ;
#478 = EDGE_LOOP ( 'NONE', ( #475, #148, #233, #812, #620, #239 ) ) ;
#479 = VECTOR ( 'NONE', #429, 1000.000000000000000 ) ;
#480 = CARTESIAN_POINT ( 'NONE',  ( -4.999999999999997335, 3.000000000000000000, -9.699999999999997513 ) ) ;
#481 = DIRECTION ( 'NONE',  ( -0.000000000000000000, 1.000000000000000000, 1.269309860470834724E-16 ) ) ;
#482 = SECURITY_CLASSIFICATION ( '', '', #404 ) ;
#483 = VERTEX_POINT ( 'NONE', #183 ) ;
#484 = VECTOR ( 'NONE', #319, 1000.000000000000000 ) ;
#485 = CARTESIAN_POINT ( 'NONE',  ( 0.000000000000000000, 3.000000000000000000, 0.000000000000000000 ) ) ;
#486 = ORIENTED_EDGE ( 'NONE', *, *, #775, .F. ) ;
#487 = LINE ( 'NONE', #285, #405 ) ;
#488 = FACE_BOUND ( 'NONE', #372, .T. ) ;
#489 = ORIENTED_EDGE ( 'NONE', *, *, #422, .T. ) ;
#490 = AXIS2_PLACEMENT_3D ( 'NONE', #381, #315, #195 ) ;
#491 = LINE ( 'NONE', #467, #80 ) ;
#492 = VERTEX_POINT ( 'NONE', #231 ) ;
#493 = CARTESIAN_POINT ( 'NONE',  ( -91.06594999999998663, -16.76500000000001478, 12.58500000000001329 ) ) ;
#494 = EDGE_LOOP ( 'NONE', ( #669, #446, #615, #668 ) ) ;
#495 = CARTESIAN_POINT ( 'NONE',  ( -35.06594999999999374, -4.765000000000003233, 30.58500000000000796 ) ) ;
#496 = EDGE_LOOP ( 'NONE', ( #466, #832 ) ) ;
#497 = EDGE_CURVE ( 'NONE', #483, #544, #365, .T. ) ;
#498 = AXIS2_PLACEMENT_3D ( 'NONE', #313, #629, #302 ) ;
#499 = DIRECTION ( 'NONE',  ( 0.000000000000000000, 1.000000000000000000, 1.269309860470834477E-16 ) ) ;
#500 = CARTESIAN_POINT ( 'NONE',  ( -35.06594999999999374, -16.76500000000001478, 9.585000000000004405 ) ) ;
#501 = ORIENTED_EDGE ( 'NONE', *, *, #79, .F. ) ;
#502 = CARTESIAN_POINT ( 'NONE',  ( -101.5999999999999943, -13.76500000000000234, -2.270641353000779854E-16 ) ) ;
#503 = AXIS2_PLACEMENT_3D ( 'NONE', #9, #352, #807 ) ;
#504 = CARTESIAN_POINT ( 'NONE',  ( -35.06594999999999374, -4.765000000000001457, 9.585000000000004405 ) ) ;
#505 = CARTESIAN_POINT ( 'NONE',  ( -35.00000000000000000, 3.000000000000000000, -15.69999999999999929 ) ) ;
#506 = ORIENTED_EDGE ( 'NONE', *, *, #537, .F. ) ;
#507 = CARTESIAN_POINT ( 'NONE',  ( 0.000000000000000000, 0.000000000000000000, 0.000000000000000000 ) ) ;
#508 = CARTESIAN_POINT ( 'NONE',  ( 0.000000000000000000, 3.000000000000000000, 0.000000000000000000 ) ) ;
#509 = CARTESIAN_POINT ( 'NONE',  ( 0.000000000000000000, 3.000000000000000000, 0.000000000000000000 ) ) ;
#510 = ORIENTED_EDGE ( 'NONE', *, *, #714, .F. ) ;
#511 = DIRECTION ( 'NONE',  ( 0.000000000000000000, -1.000000000000000000, -1.156482317317870739E-15 ) ) ;
#512 = DESIGN_CONTEXT ( 'detailed design', #30, 'design' ) ;
#513 = DIRECTION ( 'NONE',  ( 0.000000000000000000, 1.000000000000000000, 1.269309860470834477E-16 ) ) ;
#514 = EDGE_CURVE ( 'NONE', #680, #697, #8, .T. ) ;
#515 = EDGE_LOOP ( 'NONE', ( #342, #417, #78, #665 ) ) ;
#516 = CC_DESIGN_SECURITY_CLASSIFICATION ( #482, ( #400 ) ) ;
#517 = LINE ( 'NONE', #647, #412 ) ;
#518 = CARTESIAN_POINT ( 'NONE',  ( -40.00000000000000000, 3.000000000000000000, -22.22499999999999787 ) ) ;
#519 = LOCAL_TIME ( 12, 11, 22.00000000000000000, #268 ) ;
#520 = DIRECTION ( 'NONE',  ( 0.000000000000000000, 1.000000000000000000, 1.692413147294445970E-16 ) ) ;
#521 = VECTOR ( 'NONE', #613, 1000.000000000000000 ) ;
#522 = CARTESIAN_POINT ( 'NONE',  ( 0.000000000000000000, 3.000000000000000000, 3.000000000000000000 ) ) ;
#523 = CARTESIAN_POINT ( 'NONE',  ( -143.0366987102013354, -10.76500000000000590, 41.00000000000000711 ) ) ;
#524 = APPLICATION_PROTOCOL_DEFINITION ( 'international standard', 'config_control_design', 1994, #707 ) ;
#525 = VECTOR ( 'NONE', #188, 1000.000000000000000 ) ;
#526 = LINE ( 'NONE', #57, #525 ) ;
#527 = DIRECTION ( 'NONE',  ( -0.000000000000000000, -1.000000000000000000, -0.000000000000000000 ) ) ;
#528 = AXIS2_PLACEMENT_3D ( 'NONE', #250, #448, #46 ) ;
#529 = EDGE_CURVE ( 'NONE', #680, #577, #295, .T. ) ;
#530 = CALENDAR_DATE ( 2026, 26, 5 ) ;
#531 = EDGE_LOOP ( 'NONE', ( #409, #724, #489, #90 ) ) ;
#532 = CARTESIAN_POINT ( 'NONE',  ( -40.00000000000000000, 3.000000000000000000, -22.22499999999999787 ) ) ;
#533 = EDGE_LOOP ( 'NONE', ( #15, #705, #316, #425, #251, #476 ) ) ;
#534 = CARTESIAN_POINT ( 'NONE',  ( -35.06594999999999374, -13.76500000000000412, 9.585000000000004405 ) ) ;
#535 = AXIS2_PLACEMENT_3D ( 'NONE', #654, #527, #338 ) ;
#536 = APPROVAL ( #396, 'UNSPECIFIED' ) ;
#537 = EDGE_CURVE ( 'NONE', #693, #282, #823, .T. ) ;
#538 = VERTEX_POINT ( 'NONE', #244 ) ;
#539 = PERSON_AND_ORGANIZATION_ROLE ( 'classification_officer' ) ;
#540 = EDGE_CURVE ( 'NONE', #544, #627, #761, .T. ) ;
#541 = EDGE_LOOP ( 'NONE', ( #550, #86, #640, #406 ) ) ;
#542 = VERTEX_POINT ( 'NONE', #809 ) ;
#543 = COORDINATED_UNIVERSAL_TIME_OFFSET ( 5, 0, .BEHIND. ) ;
#544 = VERTEX_POINT ( 'NONE', #93 ) ;
#545 = EDGE_LOOP ( 'NONE', ( #279, #284 ) ) ;
#546 = CARTESIAN_POINT ( 'NONE',  ( -4.999999999999997335, 3.000000000000000000, -12.69999999999999751 ) ) ;
#547 = DIRECTION ( 'NONE',  ( 0.000000000000000000, 0.000000000000000000, 1.000000000000000000 ) ) ;
#548 = ORIENTED_EDGE ( 'NONE', *, *, #144, .F. ) ;
#549 = LINE ( 'NONE', #813, #56 ) ;
#550 = ORIENTED_EDGE ( 'NONE', *, *, #269, .F. ) ;
#551 = AXIS2_PLACEMENT_3D ( 'NONE', #59, #717, #776 ) ;
#552 = DIRECTION ( 'NONE',  ( -1.000000000000000000, 0.000000000000000000, 0.000000000000000000 ) ) ;
#553 = FACE_BOUND ( 'NONE', #496, .T. ) ;
#554 = CC_DESIGN_APPROVAL ( #685, ( #839 ) ) ;
#555 = ORIENTED_EDGE ( 'NONE', *, *, #709, .T. ) ;
#556 = FACE_OUTER_BOUND ( 'NONE', #802, .T. ) ;
#557 = ORIENTED_EDGE ( 'NONE', *, *, #617, .F. ) ;
#558 = LINE ( 'NONE', #229, #376 ) ;
#559 = EDGE_CURVE ( 'NONE', #173, #786, #487, .T. ) ;
#560 = CARTESIAN_POINT ( 'NONE',  ( 0.000000000000000000, -4.765000000000005009, 41.00000000000000711 ) ) ;
#561 = AXIS2_PLACEMENT_3D ( 'NONE', #748, #219, #820 ) ;
#562 = FACE_OUTER_BOUND ( 'NONE', #533, .T. ) ;
#563 = ORIENTED_EDGE ( 'NONE', *, *, #465, .T. ) ;
#564 = CARTESIAN_POINT ( 'NONE',  ( -35.00000000000000000, 3.000000000000000000, -12.69999999999999751 ) ) ;
#565 = LINE ( 'NONE', #242, #343 ) ;
#566 = ORIENTED_EDGE ( 'NONE', *, *, #218, .T. ) ;
#567 = DIRECTION ( 'NONE',  ( 0.000000000000000000, 0.000000000000000000, -1.000000000000000000 ) ) ;
#568 = EDGE_CURVE ( 'NONE', #427, #661, #153, .T. ) ;
#569 = FACE_OUTER_BOUND ( 'NONE', #70, .T. ) ;
#570 = DIRECTION ( 'NONE',  ( -0.000000000000000000, 1.000000000000000000, 1.269309860470834724E-16 ) ) ;
#571 = EDGE_CURVE ( 'NONE', #112, #437, #29, .T. ) ;
#572 = VERTEX_POINT ( 'NONE', #732 ) ;
#573 = PLANE ( 'NONE',  #708 ) ;
#574 = CIRCLE ( 'NONE', #196, 3.000000000000000888 ) ;
#575 = CIRCLE ( 'NONE', #345, 3.000000000000000888 ) ;
#576 = LINE ( 'NONE', #508, #749 ) ;
#577 = VERTEX_POINT ( 'NONE', #216 ) ;
#578 = LINE ( 'NONE', #113, #718 ) ;
#579 = DIRECTION ( 'NONE',  ( 0.000000000000000000, 0.000000000000000000, -1.000000000000000000 ) ) ;
#580 = CC_DESIGN_PERSON_AND_ORGANIZATION_ASSIGNMENT ( #788, #785, ( #400 ) ) ;
#581 = APPLICATION_PROTOCOL_DEFINITION ( 'international standard', 'config_control_design', 1994, #30 ) ;
#582 = ORIENTED_EDGE ( 'NONE', *, *, #715, .F. ) ;
#583 = PLANE ( 'NONE',  #733 ) ;
#584 = DIRECTION ( 'NONE',  ( -1.000000000000000000, 0.000000000000000000, 0.000000000000000000 ) ) ;
#585 = LINE ( 'NONE', #841, #397 ) ;
#586 = PERSON_AND_ORGANIZATION ( #62, #116 ) ;
#587 = ADVANCED_FACE ( 'NONE', ( #608 ), #742, .F. ) ;
#588 = FACE_OUTER_BOUND ( 'NONE', #631, .T. ) ;
#589 = LINE ( 'NONE', #310, #416 ) ;
#590 = CARTESIAN_POINT ( 'NONE',  ( 0.000000000000000000, -13.76500000000000234, -2.270641353000779854E-16 ) ) ;
#591 = CARTESIAN_POINT ( 'NONE',  ( 0.000000000000000000, -13.76500000000000234, -2.270641353000779854E-16 ) ) ;
#592 = CIRCLE ( 'NONE', #217, 3.000000000000000888 ) ;
#593 = ORIENTED_EDGE ( 'NONE', *, *, #497, .T. ) ;
#594 = CYLINDRICAL_SURFACE ( 'NONE', #535, 3.000000000000000888 ) ;
#595 = CC_DESIGN_APPROVAL ( #536, ( #482 ) ) ;
#596 = CIRCLE ( 'NONE', #737, 3.000000000000000888 ) ;
#597 = VERTEX_POINT ( 'NONE', #280 ) ;
#598 = FACE_OUTER_BOUND ( 'NONE', #19, .T. ) ;
#599 = VECTOR ( 'NONE', #108, 1000.000000000000000 ) ;
#600 = CC_DESIGN_DATE_AND_TIME_ASSIGNMENT ( #201, #212, ( #482 ) ) ;
#601 = VERTEX_POINT ( 'NONE', #480 ) ;
#602 = ADVANCED_FACE ( 'NONE', ( #670, #20, #736, #418, #223 ), #149, .T. ) ;
#603 = CIRCLE ( 'NONE', #165, 3.000000000000009770 ) ;
#604 = ORIENTED_EDGE ( 'NONE', *, *, #617, .T. ) ;
#605 = CIRCLE ( 'NONE', #277, 3.000000000000002665 ) ;
#606 = ORIENTED_EDGE ( 'NONE', *, *, #840, .F. ) ;
#607 = ORIENTED_EDGE ( 'NONE', *, *, #540, .T. ) ;
#608 = FACE_OUTER_BOUND ( 'NONE', #214, .T. ) ;
#609 = DIRECTION ( 'NONE',  ( 0.000000000000000000, 0.000000000000000000, -1.000000000000000000 ) ) ;
#610 = VERTEX_POINT ( 'NONE', #346 ) ;
#611 = CARTESIAN_POINT ( 'NONE',  ( -40.00000000000000000, 3.000000000000000000, 0.000000000000000000 ) ) ;
#612 = EDGE_CURVE ( 'NONE', #601, #572, #380, .T. ) ;
#613 = DIRECTION ( 'NONE',  ( -0.000000000000000000, 1.000000000000000000, 1.269309860470834724E-16 ) ) ;
#614 = LINE ( 'NONE', #154, #83 ) ;
#615 = ORIENTED_EDGE ( 'NONE', *, *, #234, .T. ) ;
#616 = DIRECTION ( 'NONE',  ( -0.000000000000000000, -1.000000000000000000, -0.000000000000000000 ) ) ;
#617 = EDGE_CURVE ( 'NONE', #697, #680, #296, .T. ) ;
#618 = CARTESIAN_POINT ( 'NONE',  ( -35.06594999999999374, -16.76500000000001478, 6.585000000000004405 ) ) ;
#619 = CARTESIAN_POINT ( 'NONE',  ( -91.06594999999998663, -13.76500000000000767, 33.58500000000001506 ) ) ;
#620 = ORIENTED_EDGE ( 'NONE', *, *, #798, .T. ) ;
#621 = DIRECTION ( 'NONE',  ( 0.000000000000000000, 1.000000000000000000, -0.000000000000000000 ) ) ;
#622 = CARTESIAN_POINT ( 'NONE',  ( 0.000000000000000000, -4.765000000000005009, 41.00000000000000711 ) ) ;
#623 = CARTESIAN_POINT ( 'NONE',  ( -35.06594999999999374, -4.765000000000003233, 33.58500000000000796 ) ) ;
#624 = ADVANCED_FACE ( 'NONE', ( #367 ), #31, .F. ) ;
#625 = ORIENTED_EDGE ( 'NONE', *, *, #205, .F. ) ;
#626 = CARTESIAN_POINT ( 'NONE',  ( -101.5999999999999943, -10.76500000000000590, 41.00000000000000711 ) ) ;
#627 = VERTEX_POINT ( 'NONE', #166 ) ;
#628 = ADVANCED_FACE ( 'NONE', ( #89 ), #436, .F. ) ;
#629 = DIRECTION ( 'NONE',  ( 0.000000000000000000, 1.000000000000000000, 1.269309860470834477E-16 ) ) ;
#630 = DIRECTION ( 'NONE',  ( -1.000000000000000000, 0.000000000000000000, 0.000000000000000000 ) ) ;
#631 = EDGE_LOOP ( 'NONE', ( #136, #48, #211, #683 ) ) ;
#632 = DIRECTION ( 'NONE',  ( 0.000000000000000000, 0.000000000000000000, 1.000000000000000000 ) ) ;
#633 = VECTOR ( 'NONE', #772, 1000.000000000000000 ) ;
#634 = CARTESIAN_POINT ( 'NONE',  ( -101.5999999999999943, 2.999999999999987566, 0.000000000000000000 ) ) ;
#635 =( NAMED_UNIT ( * ) SI_UNIT ( $, .STERADIAN. ) SOLID_ANGLE_UNIT ( ) );
#636 = ORIENTED_EDGE ( 'NONE', *, *, #514, .F. ) ;
#637 = DIRECTION ( 'NONE',  ( 0.000000000000000000, 0.000000000000000000, 1.000000000000000000 ) ) ;
#638 = LINE ( 'NONE', #241, #479 ) ;
#639 =( NAMED_UNIT ( * ) PLANE_ANGLE_UNIT ( ) SI_UNIT ( $, .RADIAN. ) );
#640 = ORIENTED_EDGE ( 'NONE', *, *, #559, .T. ) ;
#641 = CARTESIAN_POINT ( 'NONE',  ( -40.00000000000000000, 3.000000000000000000, 0.000000000000000000 ) ) ;
#642 = FACE_OUTER_BOUND ( 'NONE', #92, .T. ) ;
#643 = VECTOR ( 'NONE', #837, 1000.000000000000000 ) ;
#644 = LINE ( 'NONE', #125, #633 ) ;
#645 = EDGE_CURVE ( 'NONE', #693, #64, #700, .T. ) ;
#646 = COORDINATED_UNIVERSAL_TIME_OFFSET ( 5, 0, .BEHIND. ) ;
#647 = CARTESIAN_POINT ( 'NONE',  ( 0.000000000000000000, 3.000000000000000000, 3.000000000000000000 ) ) ;
#648 = VECTOR ( 'NONE', #725, 1000.000000000000000 ) ;
#649 = EDGE_CURVE ( 'NONE', #427, #538, #299, .T. ) ;
#650 = FACE_OUTER_BOUND ( 'NONE', #431, .T. ) ;
#651 = PERSON_AND_ORGANIZATION ( #62, #116 ) ;
#652 = ORIENTED_EDGE ( 'NONE', *, *, #65, .T. ) ;
#653 = DIRECTION ( 'NONE',  ( 0.000000000000000000, 0.000000000000000000, 1.000000000000000000 ) ) ;
#654 = CARTESIAN_POINT ( 'NONE',  ( -4.999999999999997335, 3.000000000000000000, -12.69999999999999751 ) ) ;
#655 = MANIFOLD_SOLID_BREP ( 'Cut-Extrude2', #689 ) ;
#656 = DATE_AND_TIME ( #791, #519 ) ;
#657 = VECTOR ( 'NONE', #713, 1000.000000000000000 ) ;
#658 = ORIENTED_EDGE ( 'NONE', *, *, #775, .T. ) ;
#659 = CC_DESIGN_PERSON_AND_ORGANIZATION_ASSIGNMENT ( #799, #539, ( #482 ) ) ;
#660 = CARTESIAN_POINT ( 'NONE',  ( -91.06594999999998663, -16.76500000000001478, 9.585000000000004405 ) ) ;
#661 = VERTEX_POINT ( 'NONE', #811 ) ;
#662 = CARTESIAN_POINT ( 'NONE',  ( -4.999999999999997335, 0.000000000000000000, -12.69999999999999751 ) ) ;
#663 = AXIS2_PLACEMENT_3D ( 'NONE', #158, #423, #88 ) ;
#664 = COORDINATED_UNIVERSAL_TIME_OFFSET ( 5, 0, .BEHIND. ) ;
#665 = ORIENTED_EDGE ( 'NONE', *, *, #254, .T. ) ;
#666 = DATE_AND_TIME ( #407, #735 ) ;
#667 = VECTOR ( 'NONE', #616, 1000.000000000000000 ) ;
#668 = ORIENTED_EDGE ( 'NONE', *, *, #170, .T. ) ;
#669 = ORIENTED_EDGE ( 'NONE', *, *, #314, .F. ) ;
#670 = FACE_BOUND ( 'NONE', #795, .T. ) ;
#671 = VECTOR ( 'NONE', #630, 1000.000000000000000 ) ;
#672 = AXIS2_PLACEMENT_3D ( 'NONE', #168, #830, #632 ) ;
#673 = ORIENTED_EDGE ( 'NONE', *, *, #715, .T. ) ;
#674 = ADVANCED_FACE ( 'NONE', ( #440 ), #224, .F. ) ;
#675 = ORIENTED_EDGE ( 'NONE', *, *, #175, .T. ) ;
#676 = CARTESIAN_POINT ( 'NONE',  ( -35.06594999999999374, -16.76500000000001478, 30.58500000000000796 ) ) ;
#677 = DIRECTION ( 'NONE',  ( 0.000000000000000000, 1.000000000000000000, -0.000000000000000000 ) ) ;
#678 = VERTEX_POINT ( 'NONE', #304 ) ;
#679 = LINE ( 'NONE', #591, #410 ) ;
#680 = VERTEX_POINT ( 'NONE', #505 ) ;
#681 = DIRECTION ( 'NONE',  ( 0.000000000000000000, 0.000000000000000000, -1.000000000000000000 ) ) ;
#682 = CARTESIAN_POINT ( 'NONE',  ( 0.000000000000000000, -13.76500000000000234, -2.329606697250804960E-15 ) ) ;
#683 = ORIENTED_EDGE ( 'NONE', *, *, #568, .T. ) ;
#684 = LINE ( 'NONE', #399, #124 ) ;
#685 = APPROVAL ( #386, 'UNSPECIFIED' ) ;
#686 = CYLINDRICAL_SURFACE ( 'NONE', #68, 3.000000000000000888 ) ;
#687 = EDGE_CURVE ( 'NONE', #483, #103, #21, .T. ) ;
#688 = CARTESIAN_POINT ( 'NONE',  ( 9.509382395379197428E-16, -4.765000000000000568, 3.000000000000000000 ) ) ;
#689 = CLOSED_SHELL ( 'NONE', ( #323, #126, #587, #76, #451, #142, #132, #474, #800, #17, #628, #318, #674, #402, #10, #258, #54, #624, #384, #14, #778, #602, #727 ) ) ;
#690 = ORIENTED_EDGE ( 'NONE', *, *, #205, .T. ) ;
#691 = AXIS2_PLACEMENT_3D ( 'NONE', #495, #306, #43 ) ;
#692 = CARTESIAN_POINT ( 'NONE',  ( -35.00000000000000000, 3.000000000000000000, -15.69999999999999929 ) ) ;
#693 = VERTEX_POINT ( 'NONE', #237 ) ;
#694 = EDGE_CURVE ( 'NONE', #282, #4, #614, .T. ) ;
#695 = DIRECTION ( 'NONE',  ( -0.000000000000000000, 1.000000000000000000, 1.269309860470834724E-16 ) ) ;
#696 = CARTESIAN_POINT ( 'NONE',  ( -4.999999999999997335, 3.000000000000000000, -12.69999999999999751 ) ) ;
#697 = VERTEX_POINT ( 'NONE', #419 ) ;
#698 = DIRECTION ( 'NONE',  ( 0.000000000000000000, 0.000000000000000000, 1.000000000000000000 ) ) ;
#699 = DIRECTION ( 'NONE',  ( 0.000000000000000000, 1.000000000000000000, 1.269309860470834477E-16 ) ) ;
#700 = LINE ( 'NONE', #804, #773 ) ;
#701 = ORIENTED_EDGE ( 'NONE', *, *, #473, .F. ) ;
#702 = CARTESIAN_POINT ( 'NONE',  ( -91.06594999999998663, -13.76500000000000412, 9.585000000000004405 ) ) ;
#703 = DIRECTION ( 'NONE',  ( 0.000000000000000000, 1.000000000000000000, -0.000000000000000000 ) ) ;
#704 = DIRECTION ( 'NONE',  ( -1.000000000000000000, -1.237868622129119302E-16, 0.000000000000000000 ) ) ;
#705 = ORIENTED_EDGE ( 'NONE', *, *, #422, .F. ) ;
#706 = CYLINDRICAL_SURFACE ( 'NONE', #114, 3.000000000000009770 ) ;
#707 = APPLICATION_CONTEXT ( 'configuration controlled 3d designs of mechanical parts and assemblies' ) ;
#708 = AXIS2_PLACEMENT_3D ( 'NONE', #358, #33, #442 ) ;
#709 = EDGE_CURVE ( 'NONE', #572, #601, #574, .T. ) ;
#710 = CARTESIAN_POINT ( 'NONE',  ( -91.06594999999998663, -4.765000000000001457, 9.585000000000004405 ) ) ;
#711 = PERSON_AND_ORGANIZATION ( #62, #116 ) ;
#712 = VECTOR ( 'NONE', #747, 1000.000000000000000 ) ;
#713 = DIRECTION ( 'NONE',  ( -0.000000000000000000, 1.000000000000000000, 1.269309860470834724E-16 ) ) ;
#714 = EDGE_CURVE ( 'NONE', #210, #786, #565, .T. ) ;
#715 = EDGE_CURVE ( 'NONE', #112, #202, #596, .T. ) ;
#716 = AXIS2_PLACEMENT_3D ( 'NONE', #682, #94, #356 ) ;
#717 = DIRECTION ( 'NONE',  ( -0.000000000000000000, -1.000000000000000000, -0.000000000000000000 ) ) ;
#718 = VECTOR ( 'NONE', #511, 1000.000000000000000 ) ;
#719 = ORIENTED_EDGE ( 'NONE', *, *, #292, .F. ) ;
#720 = DIRECTION ( 'NONE',  ( 0.000000000000000000, 0.000000000000000000, 1.000000000000000000 ) ) ;
#721 = DIRECTION ( 'NONE',  ( 0.000000000000000000, 0.000000000000000000, -1.000000000000000000 ) ) ;
#722 = ORIENTED_EDGE ( 'NONE', *, *, #238, .F. ) ;
#723 = LINE ( 'NONE', #6, #16 ) ;
#724 = ORIENTED_EDGE ( 'NONE', *, *, #645, .T. ) ;
#725 = DIRECTION ( 'NONE',  ( -0.000000000000000000, -1.000000000000000000, -0.000000000000000000 ) ) ;
#726 = EDGE_LOOP ( 'NONE', ( #506, #118, #793, #755 ) ) ;
#727 = ADVANCED_FACE ( 'NONE', ( #286, #553, #488, #743, #754 ), #424, .T. ) ;
#728 = AXIS2_PLACEMENT_3D ( 'NONE', #676, #414, #85 ) ;
#729 = APPROVAL_DATE_TIME ( #656, #746 ) ;
#730 = ORIENTED_EDGE ( 'NONE', *, *, #529, .F. ) ;
#731 = ORIENTED_EDGE ( 'NONE', *, *, #842, .T. ) ;
#732 = CARTESIAN_POINT ( 'NONE',  ( -4.999999999999997335, 3.000000000000000000, -15.69999999999999929 ) ) ;
#733 = AXIS2_PLACEMENT_3D ( 'NONE', #447, #104, #110 ) ;
#734 = EDGE_LOOP ( 'NONE', ( #563, #337 ) ) ;
#735 = LOCAL_TIME ( 12, 11, 22.00000000000000000, #75 ) ;
#736 = FACE_OUTER_BOUND ( 'NONE', #178, .T. ) ;
#737 = AXIS2_PLACEMENT_3D ( 'NONE', #111, #350, #25 ) ;
#738 = DIRECTION ( 'NONE',  ( 0.000000000000000000, 0.000000000000000000, 1.000000000000000000 ) ) ;
#739 = ORIENTED_EDGE ( 'NONE', *, *, #764, .T. ) ;
#740 = DIRECTION ( 'NONE',  ( 0.000000000000000000, 0.000000000000000000, -1.000000000000000000 ) ) ;
#741 = VERTEX_POINT ( 'NONE', #815 ) ;
#742 = CYLINDRICAL_SURFACE ( 'NONE', #728, 3.000000000000002665 ) ;
#743 = FACE_BOUND ( 'NONE', #329, .T. ) ;
#744 = ORIENTED_EDGE ( 'NONE', *, *, #354, .T. ) ;
#745 = PLANE ( 'NONE',  #171 ) ;
#746 = APPROVAL ( #204, 'UNSPECIFIED' ) ;
#747 = DIRECTION ( 'NONE',  ( -0.000000000000000000, 1.000000000000000000, 1.269309860470834724E-16 ) ) ;
#748 = CARTESIAN_POINT ( 'NONE',  ( 0.000000000000000000, 3.000000000000000000, -22.22499999999999787 ) ) ;
#749 = VECTOR ( 'NONE', #762, 1000.000000000000000 ) ;
#750 = ORIENTED_EDGE ( 'NONE', *, *, #465, .F. ) ;
#751 = DIRECTION ( 'NONE',  ( 0.000000000000000000, 1.000000000000000000, 1.692413147294445970E-16 ) ) ;
#752 = ORIENTED_EDGE ( 'NONE', *, *, #687, .T. ) ;
#753 = CARTESIAN_POINT ( 'NONE',  ( -35.06594999999999374, -13.76500000000000412, 12.58500000000000618 ) ) ;
#754 = FACE_BOUND ( 'NONE', #734, .T. ) ;
#755 = ORIENTED_EDGE ( 'NONE', *, *, #694, .F. ) ;
#756 = CIRCLE ( 'NONE', #197, 3.000000000000000888 ) ;
#757 = DIRECTION ( 'NONE',  ( 1.000000000000000000, 0.000000000000000000, 0.000000000000000000 ) ) ;
#758 = DIRECTION ( 'NONE',  ( -0.000000000000000000, -1.000000000000000000, -0.000000000000000000 ) ) ;
#759 = DIRECTION ( 'NONE',  ( 1.000000000000000000, 0.000000000000000000, 0.000000000000000000 ) ) ;
#760 = VERTEX_POINT ( 'NONE', #619 ) ;
#761 = LINE ( 'NONE', #373, #521 ) ;
#762 = DIRECTION ( 'NONE',  ( -1.224646799147353207E-16, 1.000000000000000000, -0.000000000000000000 ) ) ;
#763 = DIRECTION ( 'NONE',  ( -1.000000000000000000, 0.000000000000000000, 0.000000000000000000 ) ) ;
#764 = EDGE_CURVE ( 'NONE', #678, #282, #558, .T. ) ;
#765 = VERTEX_POINT ( 'NONE', #688 ) ;
#766 = CYLINDRICAL_SURFACE ( 'NONE', #128, 3.000000000000007994 ) ;
#767 = CIRCLE ( 'NONE', #781, 3.000000000000009770 ) ;
#768 = DIRECTION ( 'NONE',  ( 0.000000000000000000, 0.000000000000000000, 1.000000000000000000 ) ) ;
#769 = DIRECTION ( 'NONE',  ( -1.000000000000000000, 0.000000000000000000, -0.000000000000000000 ) ) ;
#770 = VERTEX_POINT ( 'NONE', #623 ) ;
#771 = APPROVAL_PERSON_ORGANIZATION ( #264, #536, #63 ) ;
#772 = DIRECTION ( 'NONE',  ( -0.000000000000000000, -1.000000000000000000, -0.000000000000000000 ) ) ;
#773 = VECTOR ( 'NONE', #291, 1000.000000000000000 ) ;
#774 = CC_DESIGN_DATE_AND_TIME_ASSIGNMENT ( #477, #131, ( #839 ) ) ;
#775 = EDGE_CURVE ( 'NONE', #765, #678, #105, .T. ) ;
#776 = DIRECTION ( 'NONE',  ( 0.000000000000000000, 0.000000000000000000, -1.000000000000000000 ) ) ;
#777 = LINE ( 'NONE', #846, #47 ) ;
#778 = ADVANCED_FACE ( 'NONE', ( #642 ), #377, .F. ) ;
#779 = CIRCLE ( 'NONE', #498, 3.000000000000000888 ) ;
#780 = FACE_BOUND ( 'NONE', #822, .T. ) ;
#781 = AXIS2_PLACEMENT_3D ( 'NONE', #199, #520, #194 ) ;
#782 = AXIS2_PLACEMENT_3D ( 'NONE', #117, #123, #189 ) ;
#783 = CARTESIAN_POINT ( 'NONE',  ( -91.06594999999998663, -16.76500000000001478, 33.58500000000001506 ) ) ;
#784 = FACE_OUTER_BOUND ( 'NONE', #494, .T. ) ;
#785 = PERSON_AND_ORGANIZATION_ROLE ( 'creator' ) ;
#786 = VERTEX_POINT ( 'NONE', #518 ) ;
#787 = CARTESIAN_POINT ( 'NONE',  ( -4.999999999999997335, 0.000000000000000000, -9.699999999999997513 ) ) ;
#788 = PERSON_AND_ORGANIZATION ( #62, #116 ) ;
#789 = EDGE_LOOP ( 'NONE', ( #606, #750, #359, #675 ) ) ;
#790 = DIRECTION ( 'NONE',  ( 0.000000000000000000, 0.000000000000000000, 1.000000000000000000 ) ) ;
#791 = CALENDAR_DATE ( 2026, 26, 5 ) ;
#792 = EDGE_CURVE ( 'NONE', #173, #206, #55, .T. ) ;
#793 = ORIENTED_EDGE ( 'NONE', *, *, #468, .F. ) ;
#794 = AXIS2_PLACEMENT_3D ( 'NONE', #49, #751, #312 ) ;
#795 = EDGE_LOOP ( 'NONE', ( #198, #449 ) ) ;
#796 = PRODUCT_DEFINITION_SHAPE ( 'NONE', 'NONE',  #839 ) ;
#797 = VERTEX_POINT ( 'NONE', #522 ) ;
#798 = EDGE_CURVE ( 'NONE', #597, #206, #445, .T. ) ;
#799 = PERSON_AND_ORGANIZATION ( #62, #116 ) ;
#800 = ADVANCED_FACE ( 'NONE', ( #843 ), #256, .F. ) ;
#801 = ORIENTED_EDGE ( 'NONE', *, *, #714, .T. ) ;
#802 = EDGE_LOOP ( 'NONE', ( #555, #566, #472, #501 ) ) ;
#803 = DIRECTION ( 'NONE',  ( 0.000000000000000000, 1.000000000000000000, -0.000000000000000000 ) ) ;
#804 = CARTESIAN_POINT ( 'NONE',  ( -101.5999999999999943, -13.76500000000000945, 41.00000000000000000 ) ) ;
#805 = AXIS2_PLACEMENT_3D ( 'NONE', #249, #513, #180 ) ;
#806 = ORIENTED_EDGE ( 'NONE', *, *, #387, .T. ) ;
#807 = DIRECTION ( 'NONE',  ( 0.000000000000000000, 0.000000000000000000, -1.000000000000000000 ) ) ;
#808 = APPROVAL_PERSON_ORGANIZATION ( #711, #685, #181 ) ;
#809 = CARTESIAN_POINT ( 'NONE',  ( -35.06594999999999374, -4.765000000000001457, 12.58500000000000618 ) ) ;
#810 = EDGE_CURVE ( 'NONE', #610, #243, #827, .T. ) ;
#811 = CARTESIAN_POINT ( 'NONE',  ( -40.00000000000000000, 0.000000000000000000, 0.000000000000000000 ) ) ;
#812 = ORIENTED_EDGE ( 'NONE', *, *, #354, .F. ) ;
#813 = CARTESIAN_POINT ( 'NONE',  ( -35.00000000000000000, 3.000000000000000000, -9.699999999999997513 ) ) ;
#814 = VECTOR ( 'NONE', #609, 1000.000000000000000 ) ;
#815 = CARTESIAN_POINT ( 'NONE',  ( -4.999999999999997335, 0.000000000000000000, -15.69999999999999929 ) ) ;
#816 = ORIENTED_EDGE ( 'NONE', *, *, #77, .F. ) ;
#817 = DIRECTION ( 'NONE',  ( -0.000000000000000000, 1.000000000000000000, 1.269309860470834724E-16 ) ) ;
#818 = ORIENTED_EDGE ( 'NONE', *, *, #514, .T. ) ;
#819 = FACE_OUTER_BOUND ( 'NONE', #266, .T. ) ;
#820 = DIRECTION ( 'NONE',  ( 1.000000000000000000, 0.000000000000000000, -0.000000000000000000 ) ) ;
#821 = AXIS2_PLACEMENT_3D ( 'NONE', #564, #758, #307 ) ;
#822 = EDGE_LOOP ( 'NONE', ( #18, #347 ) ) ;
#823 = LINE ( 'NONE', #626, #599 ) ;
#824 = EDGE_CURVE ( 'NONE', #230, #693, #589, .T. ) ;
#825 = CARTESIAN_POINT ( 'NONE',  ( 1.113914500088409188E-16, 3.000000000000000000, -22.22499999999999787 ) ) ;
#826 = DIRECTION ( 'NONE',  ( 0.000000000000000000, 0.000000000000000000, 1.000000000000000000 ) ) ;
#827 = CIRCLE ( 'NONE', #782, 3.000000000000002665 ) ;
#828 = ORIENTED_EDGE ( 'NONE', *, *, #140, .T. ) ;
#829 = VECTOR ( 'NONE', #757, 1000.000000000000000 ) ;
#830 = DIRECTION ( 'NONE',  ( 0.000000000000000000, 1.000000000000000000, 1.269309860470834477E-16 ) ) ;
#831 = CARTESIAN_POINT ( 'NONE',  ( -35.00000000000000000, 0.000000000000000000, -12.69999999999999751 ) ) ;
#832 = ORIENTED_EDGE ( 'NONE', *, *, #374, .T. ) ;
#833 = DIRECTION ( 'NONE',  ( 0.000000000000000000, 0.000000000000000000, 1.000000000000000000 ) ) ;
#834 = DIRECTION ( 'NONE',  ( 0.000000000000000000, 0.000000000000000000, 1.000000000000000000 ) ) ;
#835 = CALENDAR_DATE ( 2026, 26, 5 ) ;
#836 = EDGE_LOOP ( 'NONE', ( #818, #357, #722, #730 ) ) ;
#837 = DIRECTION ( 'NONE',  ( -0.000000000000000000, -1.000000000000000000, -0.000000000000000000 ) ) ;
#838 = DATE_AND_TIME ( #835, #69 ) ;
#839 = PRODUCT_DEFINITION ( 'UNKNOWN', '', #400, #512 ) ;
#840 = EDGE_CURVE ( 'NONE', #411, #293, #777, .T. ) ;
#841 = CARTESIAN_POINT ( 'NONE',  ( 0.000000000000000000, 3.000000000000000000, 0.000000000000000000 ) ) ;
#842 = EDGE_CURVE ( 'NONE', #538, #101, #460, .T. ) ;
#843 = FACE_OUTER_BOUND ( 'NONE', #478, .T. ) ;
#844 = VECTOR ( 'NONE', #102, 1000.000000000000000 ) ;
#845 = PLANE ( 'NONE',  #138 ) ;
#846 = CARTESIAN_POINT ( 'NONE',  ( -91.06594999999998663, -16.76500000000001478, 27.58499999999999730 ) ) ;
ENDSEC;
END-ISO-10303-21;
