ISO-10303-21;
HEADER;
FILE_DESCRIPTION (( 'STEP AP203' ),
    '1' );
FILE_NAME ('X-axis Way Cover Bed Side.STEP',
    '2026-05-26T16:11:39',
    ( '' ),
    ( '' ),
    'SwSTEP 2.0',
    'SolidWorks 2025',
    '' );
FILE_SCHEMA (( 'CONFIG_CONTROL_DESIGN' ));
ENDSEC;

DATA;
#1 = DIRECTION ( 'NONE',  ( 0.000000000000000000, 0.000000000000000000, -1.000000000000000000 ) ) ;
#2 = ADVANCED_FACE ( 'NONE', ( #1065 ), #1410, .F. ) ;
#3 = CALENDAR_DATE ( 2026, 26, 5 ) ;
#4 = LINE ( 'NONE', #777, #530 ) ;
#5 = ORIENTED_EDGE ( 'NONE', *, *, #972, .T. ) ;
#6 = FACE_OUTER_BOUND ( 'NONE', #856, .T. ) ;
#7 = EDGE_CURVE ( 'NONE', #119, #1039, #91, .T. ) ;
#8 = VECTOR ( 'NONE', #59, 1000.000000000000114 ) ;
#9 = DIRECTION ( 'NONE',  ( -0.000000000000000000, -0.000000000000000000, -1.000000000000000000 ) ) ;
#10 = AXIS2_PLACEMENT_3D ( 'NONE', #705, #1248, #576 ) ;
#11 = DATE_TIME_ROLE ( 'creation_date' ) ;
#12 = LINE ( 'NONE', #1331, #977 ) ;
#13 = EDGE_CURVE ( 'NONE', #726, #1211, #1078, .T. ) ;
#14 = EDGE_LOOP ( 'NONE', ( #20, #773, #266, #463, #1291, #527 ) ) ;
#15 = CARTESIAN_POINT ( 'NONE',  ( -30.03549999999998832, -12.69999999999999929, 51.18100000000001160 ) ) ;
#16 = DIRECTION ( 'NONE',  ( -0.7071067811865487940, 0.7071067811865462405, 0.000000000000000000 ) ) ;
#17 = CARTESIAN_POINT ( 'NONE',  ( -13.90649999999998876, -22.26000000000000156, 5.820998786000009417 ) ) ;
#18 = FACE_OUTER_BOUND ( 'NONE', #198, .T. ) ;
#19 = LINE ( 'NONE', #356, #293 ) ;
#20 = ORIENTED_EDGE ( 'NONE', *, *, #903, .T. ) ;
#21 = DIRECTION ( 'NONE',  ( 1.000000000000000000, 0.000000000000000000, 0.000000000000000000 ) ) ;
#22 = DIRECTION ( 'NONE',  ( 0.000000000000000000, 1.000000000000000000, -0.000000000000000000 ) ) ;
#23 = LINE ( 'NONE', #1232, #338 ) ;
#24 = EDGE_LOOP ( 'NONE', ( #306, #207, #1081, #1309, #1284 ) ) ;
#25 = CARTESIAN_POINT ( 'NONE',  ( -13.90649999999998876, -3.000000000000006217, 0.000000000000000000 ) ) ;
#26 = CARTESIAN_POINT ( 'NONE',  ( 12.69999999999998508, 2.269999999999994245, 51.18099999999999739 ) ) ;
#27 = CIRCLE ( 'NONE', #1016, 3.429000000000001602 ) ;
#28 = ORIENTED_EDGE ( 'NONE', *, *, #56, .F. ) ;
#29 = VECTOR ( 'NONE', #710, 1000.000000000000000 ) ;
#30 = VECTOR ( 'NONE', #1071, 1000.000000000000000 ) ;
#31 = PLANE ( 'NONE',  #751 ) ;
#32 = DIRECTION ( 'NONE',  ( 0.000000000000000000, 1.000000000000000000, 0.000000000000000000 ) ) ;
#33 = EDGE_CURVE ( 'NONE', #100, #860, #515, .T. ) ;
#34 = EDGE_CURVE ( 'NONE', #1370, #1127, #764, .T. ) ;
#35 = APPLICATION_CONTEXT ( 'configuration controlled 3d designs of mechanical parts and assemblies' ) ;
#36 = LINE ( 'NONE', #905, #201 ) ;
#37 = ORIENTED_EDGE ( 'NONE', *, *, #92, .T. ) ;
#38 = VECTOR ( 'NONE', #1371, 1000.000000000000000 ) ;
#39 = DIRECTION ( 'NONE',  ( 1.000000000000000000, 0.000000000000000000, -1.365923996832132842E-16 ) ) ;
#40 = FACE_OUTER_BOUND ( 'NONE', #353, .T. ) ;
#41 = CIRCLE ( 'NONE', #516, 3.429000000000001602 ) ;
#42 = ORIENTED_EDGE ( 'NONE', *, *, #691, .F. ) ;
#43 = ADVANCED_FACE ( 'NONE', ( #742 ), #959, .F. ) ;
#44 = FACE_OUTER_BOUND ( 'NONE', #220, .T. ) ;
#45 = CARTESIAN_POINT ( 'NONE',  ( 1.769999999999993356, 0.000000000000000000, -1.770000000000002016 ) ) ;
#46 = DIRECTION ( 'NONE',  ( 0.000000000000000000, 0.000000000000000000, 1.000000000000000000 ) ) ;
#47 = ORIENTED_EDGE ( 'NONE', *, *, #671, .T. ) ;
#48 = PERSON_AND_ORGANIZATION ( #1185, #953 ) ;
#49 = DIRECTION ( 'NONE',  ( -1.000000000000000000, 0.000000000000000000, 0.000000000000000000 ) ) ;
#50 = EDGE_LOOP ( 'NONE', ( #432, #974, #868, #324 ) ) ;
#51 = DIRECTION ( 'NONE',  ( 0.000000000000000000, 0.000000000000000000, -1.000000000000000000 ) ) ;
#52 = DIRECTION ( 'NONE',  ( -0.000000000000000000, 0.000000000000000000, -1.000000000000000000 ) ) ;
#53 = CARTESIAN_POINT ( 'NONE',  ( -19.05000000000001137, 2.269999999999994245, -1.770000000000002016 ) ) ;
#54 = VERTEX_POINT ( 'NONE', #205 ) ;
#55 = DIRECTION ( 'NONE',  ( -0.000000000000000000, 0.000000000000000000, -1.000000000000000000 ) ) ;
#56 = EDGE_CURVE ( 'NONE', #1405, #393, #986, .T. ) ;
#57 = ORIENTED_EDGE ( 'NONE', *, *, #229, .T. ) ;
#58 = CARTESIAN_POINT ( 'NONE',  ( 12.69999999999998863, 0.000000000000000000, 51.18099999999999739 ) ) ;
#59 = DIRECTION ( 'NONE',  ( 0.7071067811865457964, -0.000000000000000000, 0.7071067811865492381 ) ) ;
#60 = VECTOR ( 'NONE', #859, 1000.000000000000000 ) ;
#61 = ORIENTED_EDGE ( 'NONE', *, *, #975, .T. ) ;
#62 = DIRECTION ( 'NONE',  ( 0.000000000000000000, 1.000000000000000000, 0.000000000000000000 ) ) ;
#63 = EDGE_CURVE ( 'NONE', #228, #1171, #1296, .T. ) ;
#64 = EDGE_CURVE ( 'NONE', #706, #733, #630, .T. ) ;
#65 = ORIENTED_EDGE ( 'NONE', *, *, #1282, .T. ) ;
#66 = AXIS2_PLACEMENT_3D ( 'NONE', #501, #1013, #133 ) ;
#67 = CARTESIAN_POINT ( 'NONE',  ( -31.35649999999997561, -22.25999999999999801, 51.18100000000000449 ) ) ;
#68 = LINE ( 'NONE', #278, #199 ) ;
#69 = ORIENTED_EDGE ( 'NONE', *, *, #779, .T. ) ;
#70 = CARTESIAN_POINT ( 'NONE',  ( -39.30649999999998556, -3.000000000000006217, 0.000000000000000000 ) ) ;
#71 = EDGE_LOOP ( 'NONE', ( #1414, #582, #794, #1079 ) ) ;
#72 = CARTESIAN_POINT ( 'NONE',  ( -192.9129999999999825, 2.269999999999994245, 51.18099999999999739 ) ) ;
#73 = DIRECTION ( 'NONE',  ( 0.000000000000000000, 0.7071067811865435759, -0.7071067811865515695 ) ) ;
#74 = DIRECTION ( 'NONE',  ( -1.365923996832132842E-16, -0.000000000000000000, -1.000000000000000000 ) ) ;
#75 = VECTOR ( 'NONE', #1220, 1000.000000000000000 ) ;
#76 = VERTEX_POINT ( 'NONE', #322 ) ;
#77 = DIRECTION ( 'NONE',  ( 0.000000000000000000, 1.000000000000000000, -0.000000000000000000 ) ) ;
#78 = EDGE_CURVE ( 'NONE', #622, #1405, #964, .T. ) ;
#79 = VECTOR ( 'NONE', #500, 1000.000000000000000 ) ;
#80 = FACE_OUTER_BOUND ( 'NONE', #1012, .T. ) ;
#81 = EDGE_LOOP ( 'NONE', ( #619, #603, #143, #948, #1217, #1152 ) ) ;
#82 = VECTOR ( 'NONE', #524, 1000.000000000000000 ) ;
#83 = LINE ( 'NONE', #493, #1067 ) ;
#84 = AXIS2_PLACEMENT_3D ( 'NONE', #635, #154, #1246 ) ;
#85 = CARTESIAN_POINT ( 'NONE',  ( 0.000000000000000000, -3.000000000000006217, 8.820998786000000536 ) ) ;
#86 = DIRECTION ( 'NONE',  ( 0.000000000000000000, 0.000000000000000000, 1.000000000000000000 ) ) ;
#87 = VERTEX_POINT ( 'NONE', #1290 ) ;
#88 = ORIENTED_EDGE ( 'NONE', *, *, #1074, .T. ) ;
#89 = DIRECTION ( 'NONE',  ( 0.000000000000000000, 0.000000000000000000, 1.000000000000000000 ) ) ;
#90 = DIRECTION ( 'NONE',  ( 0.000000000000000000, 0.000000000000000000, -1.000000000000000000 ) ) ;
#91 = LINE ( 'NONE', #625, #1334 ) ;
#92 = EDGE_CURVE ( 'NONE', #1272, #438, #312, .T. ) ;
#93 = ORIENTED_EDGE ( 'NONE', *, *, #360, .F. ) ;
#94 = EDGE_LOOP ( 'NONE', ( #535, #522, #1032, #28 ) ) ;
#95 = FACE_OUTER_BOUND ( 'NONE', #296, .T. ) ;
#96 = CIRCLE ( 'NONE', #725, 3.428999999999987836 ) ;
#97 = VECTOR ( 'NONE', #971, 1000.000000000000000 ) ;
#98 = PERSON_AND_ORGANIZATION_ROLE ( 'design_owner' ) ;
#99 = ORIENTED_EDGE ( 'NONE', *, *, #190, .T. ) ;
#100 = VERTEX_POINT ( 'NONE', #757 ) ;
#101 = ORIENTED_EDGE ( 'NONE', *, *, #965, .F. ) ;
#102 = AXIS2_PLACEMENT_3D ( 'NONE', #1263, #1163, #398 ) ;
#103 = CARTESIAN_POINT ( 'NONE',  ( 12.69999999999998153, 2.269999999999994245, 51.18099999999999739 ) ) ;
#104 = APPROVAL_ROLE ( '' ) ;
#105 = VERTEX_POINT ( 'NONE', #111 ) ;
#106 = ORIENTED_EDGE ( 'NONE', *, *, #614, .T. ) ;
#107 = VERTEX_POINT ( 'NONE', #347 ) ;
#108 = EDGE_CURVE ( 'NONE', #1332, #473, #372, .T. ) ;
#109 = DIRECTION ( 'NONE',  ( 0.000000000000000000, 0.000000000000000000, 1.000000000000000000 ) ) ;
#110 = APPROVAL_DATE_TIME ( #448, #814 ) ;
#111 = CARTESIAN_POINT ( 'NONE',  ( 12.69999999999998863, -3.000000000000002665, 51.18099999999999739 ) ) ;
#112 = EDGE_LOOP ( 'NONE', ( #879, #547, #759, #867 ) ) ;
#113 = CARTESIAN_POINT ( 'NONE',  ( 1.769999999999993356, 2.270000000000000462, 21.58999999999998565 ) ) ;
#114 = ADVANCED_FACE ( 'NONE', ( #40 ), #365, .F. ) ;
#115 = CARTESIAN_POINT ( 'NONE',  ( -26.60649999999998627, -12.69999999999999929, 51.18100000000001160 ) ) ;
#116 = COORDINATED_UNIVERSAL_TIME_OFFSET ( 5, 0, .BEHIND. ) ;
#117 = CYLINDRICAL_SURFACE ( 'NONE', #1158, 3.428999999999987836 ) ;
#118 = VECTOR ( 'NONE', #894, 1000.000000000000000 ) ;
#119 = VERTEX_POINT ( 'NONE', #1126 ) ;
#120 = EDGE_LOOP ( 'NONE', ( #692, #1025, #1395, #521 ) ) ;
#121 = CARTESIAN_POINT ( 'NONE',  ( -3.142247407067489512E-30, 2.294704387520198855E-14, 51.18099999999999739 ) ) ;
#122 = PLANE ( 'NONE',  #166 ) ;
#123 = VECTOR ( 'NONE', #388, 1000.000000000000000 ) ;
#124 = DIRECTION ( 'NONE',  ( -0.000000000000000000, 0.000000000000000000, 1.000000000000000000 ) ) ;
#125 = VECTOR ( 'NONE', #695, 1000.000000000000000 ) ;
#126 = LINE ( 'NONE', #898, #1088 ) ;
#127 = ORIENTED_EDGE ( 'NONE', *, *, #532, .F. ) ;
#128 = DIRECTION ( 'NONE',  ( 0.000000000000000000, -0.000000000000000000, 1.000000000000000000 ) ) ;
#129 = CARTESIAN_POINT ( 'NONE',  ( -3.810000000000035580, 3.106988124944954422E-13, 51.18099999999999739 ) ) ;
#130 = CARTESIAN_POINT ( 'NONE',  ( -39.30649999999998556, -14.30999999999987793, 8.820998785999996983 ) ) ;
#131 = EDGE_LOOP ( 'NONE', ( #592, #918, #993, #632 ) ) ;
#132 = ADVANCED_FACE ( 'NONE', ( #1097 ), #227, .T. ) ;
#133 = DIRECTION ( 'NONE',  ( 0.000000000000000000, -1.000000000000000000, 0.000000000000000000 ) ) ;
#134 = LINE ( 'NONE', #1014, #648 ) ;
#135 = ADVANCED_FACE ( 'NONE', ( #475 ), #802, .T. ) ;
#136 = ORIENTED_EDGE ( 'NONE', *, *, #772, .T. ) ;
#137 = PLANE ( 'NONE',  #1137 ) ;
#138 = CARTESIAN_POINT ( 'NONE',  ( 12.70000000000001883, -3.000000000000005329, 215.6505560765380665 ) ) ;
#139 = LINE ( 'NONE', #1038, #125 ) ;
#140 = VERTEX_POINT ( 'NONE', #546 ) ;
#141 = DIRECTION ( 'NONE',  ( 1.365923996832132842E-16, -0.000000000000000000, 1.000000000000000000 ) ) ;
#142 = CARTESIAN_POINT ( 'NONE',  ( -31.35649999999997561, -22.25999999999999801, 8.820998786000000536 ) ) ;
#143 = ORIENTED_EDGE ( 'NONE', *, *, #1173, .T. ) ;
#144 = VECTOR ( 'NONE', #162, 1000.000000000000000 ) ;
#145 = CARTESIAN_POINT ( 'NONE',  ( -192.9129999999999825, 0.000000000000000000, 51.18099999999999739 ) ) ;
#146 = LINE ( 'NONE', #678, #761 ) ;
#147 = CARTESIAN_POINT ( 'NONE',  ( -167.5764999999999816, -3.000000000000002665, 51.18100000000000449 ) ) ;
#148 = ORIENTED_EDGE ( 'NONE', *, *, #459, .F. ) ;
#149 = AXIS2_PLACEMENT_3D ( 'NONE', #1075, #1294, #882 ) ;
#150 = LINE ( 'NONE', #590, #557 ) ;
#151 = LINE ( 'NONE', #1243, #217 ) ;
#152 = VECTOR ( 'NONE', #358, 1000.000000000000000 ) ;
#153 = VERTEX_POINT ( 'NONE', #142 ) ;
#154 = DIRECTION ( 'NONE',  ( 0.000000000000000000, -0.000000000000000000, 1.000000000000000000 ) ) ;
#155 = CARTESIAN_POINT ( 'NONE',  ( 0.000000000000000000, 0.000000000000000000, 49.91099999999999426 ) ) ;
#156 = DIRECTION ( 'NONE',  ( 0.000000000000000000, 0.000000000000000000, 1.000000000000000000 ) ) ;
#157 = EDGE_CURVE ( 'NONE', #860, #228, #341, .T. ) ;
#158 = ORIENTED_EDGE ( 'NONE', *, *, #1390, .F. ) ;
#159 = SECURITY_CLASSIFICATION_LEVEL ( 'unclassified' ) ;
#160 = DIRECTION ( 'NONE',  ( 0.000000000000000000, 0.000000000000000000, -1.000000000000000000 ) ) ;
#161 = ORIENTED_EDGE ( 'NONE', *, *, #845, .T. ) ;
#162 = DIRECTION ( 'NONE',  ( -0.000000000000000000, -0.000000000000000000, -1.000000000000000000 ) ) ;
#163 = LINE ( 'NONE', #1045, #8 ) ;
#164 = FACE_OUTER_BOUND ( 'NONE', #480, .T. ) ;
#165 = VERTEX_POINT ( 'NONE', #1216 ) ;
#166 = AXIS2_PLACEMENT_3D ( 'NONE', #559, #16, #837 ) ;
#167 = EDGE_CURVE ( 'NONE', #1189, #76, #1360, .T. ) ;
#168 = PERSON_AND_ORGANIZATION_ROLE ( 'creator' ) ;
#169 = LINE ( 'NONE', #456, #979 ) ;
#170 = ORIENTED_EDGE ( 'NONE', *, *, #167, .F. ) ;
#171 = PRODUCT ( 'X-axis Way Cover Bed Side', 'X-axis Way Cover Bed Side', '', ( #1188 ) ) ;
#172 = AXIS2_PLACEMENT_3D ( 'NONE', #333, #1194, #664 ) ;
#173 = LINE ( 'NONE', #609, #79 ) ;
#174 = FACE_OUTER_BOUND ( 'NONE', #1161, .T. ) ;
#175 = PRODUCT_RELATED_PRODUCT_CATEGORY ( 'detail', '', ( #171 ) ) ;
#176 = AXIS2_PLACEMENT_3D ( 'NONE', #1102, #1323, #682 ) ;
#177 = ORIENTED_EDGE ( 'NONE', *, *, #1037, .T. ) ;
#178 = ORIENTED_EDGE ( 'NONE', *, *, #881, .F. ) ;
#179 = APPROVAL_ROLE ( '' ) ;
#180 = CARTESIAN_POINT ( 'NONE',  ( -167.5764999999999816, 0.000000000000000000, 51.18099999999999739 ) ) ;
#181 = ORIENTED_EDGE ( 'NONE', *, *, #400, .T. ) ;
#182 = AXIS2_PLACEMENT_3D ( 'NONE', #781, #639, #1192 ) ;
#183 = FACE_OUTER_BOUND ( 'NONE', #1267, .T. ) ;
#184 = CARTESIAN_POINT ( 'NONE',  ( -10.40999999999996639, 1.270000000000000018, -10.41000000000001791 ) ) ;
#185 = ORIENTED_EDGE ( 'NONE', *, *, #741, .F. ) ;
#186 = CALENDAR_DATE ( 2026, 26, 5 ) ;
#187 = CARTESIAN_POINT ( 'NONE',  ( -167.5764999999999816, -3.000000000000002665, 51.18100000000000449 ) ) ;
#188 = ADVANCED_FACE ( 'NONE', ( #690 ), #117, .F. ) ;
#189 = ORIENTED_EDGE ( 'NONE', *, *, #1160, .T. ) ;
#190 = EDGE_CURVE ( 'NONE', #923, #675, #1226, .T. ) ;
#191 = CARTESIAN_POINT ( 'NONE',  ( 0.000000000000000000, 1.270000000000000018, 0.000000000000000000 ) ) ;
#192 = FACE_OUTER_BOUND ( 'NONE', #120, .T. ) ;
#193 = ORIENTED_EDGE ( 'NONE', *, *, #644, .T. ) ;
#194 = DIRECTION ( 'NONE',  ( 0.000000000000000000, 0.000000000000000000, -1.000000000000000000 ) ) ;
#195 = LINE ( 'NONE', #1378, #1273 ) ;
#196 = EDGE_CURVE ( 'NONE', #1055, #378, #126, .T. ) ;
#197 = DIRECTION ( 'NONE',  ( 0.000000000000000000, 0.000000000000000000, 1.000000000000000000 ) ) ;
#198 = EDGE_LOOP ( 'NONE', ( #1021, #509, #1292, #301, #1184, #1073, #431, #504, #1342, #443, #1261, #1228 ) ) ;
#199 = VECTOR ( 'NONE', #1392, 1000.000000000000000 ) ;
#200 = ORIENTED_EDGE ( 'NONE', *, *, #1108, .T. ) ;
#201 = VECTOR ( 'NONE', #798, 1000.000000000000000 ) ;
#202 = EDGE_CURVE ( 'NONE', #733, #393, #4, .T. ) ;
#203 = CARTESIAN_POINT ( 'NONE',  ( -176.4029999999999632, 4.445000000000000284, 49.91100000000001558 ) ) ;
#204 = LINE ( 'NONE', #593, #1333 ) ;
#205 = CARTESIAN_POINT ( 'NONE',  ( -161.1629999999999825, 2.269999999999994245, -1.770000000000002016 ) ) ;
#206 = ORIENTED_EDGE ( 'NONE', *, *, #932, .T. ) ;
#207 = ORIENTED_EDGE ( 'NONE', *, *, #319, .T. ) ;
#208 = CARTESIAN_POINT ( 'NONE',  ( -181.9829999999999757, 1.270000000000000018, 21.58999999999998565 ) ) ;
#209 = EDGE_CURVE ( 'NONE', #1332, #534, #232, .T. ) ;
#210 = APPLICATION_PROTOCOL_DEFINITION ( 'international standard', 'config_control_design', 1994, #717 ) ;
#211 = ORIENTED_EDGE ( 'NONE', *, *, #1031, .T. ) ;
#212 = EDGE_LOOP ( 'NONE', ( #961, #743, #314, #611 ) ) ;
#213 = ORIENTED_EDGE ( 'NONE', *, *, #304, .T. ) ;
#214 = APPROVAL ( #437, 'UNSPECIFIED' ) ;
#215 = PLANE ( 'NONE',  #703 ) ;
#216 = LOCAL_TIME ( 12, 11, 39.00000000000000000, #933 ) ;
#217 = VECTOR ( 'NONE', #699, 1000.000000000000000 ) ;
#218 = PERSON_AND_ORGANIZATION ( #1185, #953 ) ;
#219 = DIRECTION ( 'NONE',  ( 0.000000000000000000, 1.000000000000000000, -0.000000000000000000 ) ) ;
#220 = EDGE_LOOP ( 'NONE', ( #181, #329, #851, #271, #566 ) ) ;
#221 = ORIENTED_EDGE ( 'NONE', *, *, #849, .T. ) ;
#222 = VECTOR ( 'NONE', #821, 1000.000000000000114 ) ;
#223 = VECTOR ( 'NONE', #280, 1000.000000000000000 ) ;
#224 = LINE ( 'NONE', #1095, #272 ) ;
#225 = EDGE_CURVE ( 'NONE', #1177, #654, #12, .T. ) ;
#226 = APPROVAL_ROLE ( '' ) ;
#227 = PLANE ( 'NONE',  #1104 ) ;
#228 = VERTEX_POINT ( 'NONE', #449 ) ;
#229 = EDGE_CURVE ( 'NONE', #1183, #153, #674, .T. ) ;
#230 = LINE ( 'NONE', #1219, #560 ) ;
#231 = CARTESIAN_POINT ( 'NONE',  ( 1.769999999999993356, 1.270000000000000018, 21.58999999999998565 ) ) ;
#232 = LINE ( 'NONE', #665, #745 ) ;
#233 = ORIENTED_EDGE ( 'NONE', *, *, #975, .F. ) ;
#234 = CARTESIAN_POINT ( 'NONE',  ( -181.9829999999999757, 0.000000000000000000, -1.770000000000002016 ) ) ;
#235 = DIRECTION ( 'NONE',  ( 1.000000000000000000, 0.000000000000000000, 0.000000000000000000 ) ) ;
#236 = CARTESIAN_POINT ( 'NONE',  ( -161.1629999999999825, 2.269999999999994245, -1.770000000000002016 ) ) ;
#237 = DIRECTION ( 'NONE',  ( -1.000000000000000000, 0.000000000000000000, 0.000000000000000000 ) ) ;
#238 = VECTOR ( 'NONE', #1109, 1000.000000000000000 ) ;
#239 = CC_DESIGN_PERSON_AND_ORGANIZATION_ASSIGNMENT ( #48, #1150, ( #1157 ) ) ;
#240 = ORIENTED_EDGE ( 'NONE', *, *, #1037, .F. ) ;
#241 = CARTESIAN_POINT ( 'NONE',  ( -181.9829999999999757, 0.000000000000000000, -1.770000000000002016 ) ) ;
#242 = CARTESIAN_POINT ( 'NONE',  ( 1.769999999999993356, 1.270000000000000240, 49.91099999999999426 ) ) ;
#243 = AXIS2_PLACEMENT_3D ( 'NONE', #115, #440, #428 ) ;
#244 = DIRECTION ( 'NONE',  ( 1.000000000000000000, -0.000000000000000000, -1.349894005516621999E-16 ) ) ;
#245 = ORIENTED_EDGE ( 'NONE', *, *, #1347, .F. ) ;
#246 = EDGE_CURVE ( 'NONE', #1265, #76, #19, .T. ) ;
#247 = CARTESIAN_POINT ( 'NONE',  ( -166.3064999999999998, -22.25999999999999801, 8.820998785999996983 ) ) ;
#248 = DIRECTION ( 'NONE',  ( -0.000000000000000000, 0.000000000000000000, -1.000000000000000000 ) ) ;
#249 = ORIENTED_EDGE ( 'NONE', *, *, #261, .T. ) ;
#250 = FACE_OUTER_BOUND ( 'NONE', #683, .T. ) ;
#251 = DIRECTION ( 'NONE',  ( -1.000000000000000000, 0.000000000000000000, 0.000000000000000000 ) ) ;
#252 = EDGE_CURVE ( 'NONE', #1072, #1236, #467, .T. ) ;
#253 = DIRECTION ( 'NONE',  ( -1.000000000000000000, 2.916201808798666708E-16, 0.000000000000000000 ) ) ;
#254 = ORIENTED_EDGE ( 'NONE', *, *, #275, .F. ) ;
#255 = EDGE_CURVE ( 'NONE', #1098, #1236, #134, .T. ) ;
#256 = DIRECTION ( 'NONE',  ( -0.000000000000000000, -1.000000000000000000, -0.000000000000000000 ) ) ;
#257 = CARTESIAN_POINT ( 'NONE',  ( -176.4029999999999632, 2.269999999999994245, 51.18099999999999739 ) ) ;
#258 = VERTEX_POINT ( 'NONE', #1340 ) ;
#259 = DIRECTION ( 'NONE',  ( 0.000000000000000000, 0.000000000000000000, -1.000000000000000000 ) ) ;
#260 = CARTESIAN_POINT ( 'NONE',  ( 0.000000000000000000, 0.000000000000000000, 51.18099999999999739 ) ) ;
#261 = EDGE_CURVE ( 'NONE', #646, #1411, #151, .T. ) ;
#262 = LINE ( 'NONE', #53, #1068 ) ;
#263 = ORIENTED_EDGE ( 'NONE', *, *, #845, .F. ) ;
#264 = LINE ( 'NONE', #827, #297 ) ;
#265 = LINE ( 'NONE', #1134, #1049 ) ;
#266 = ORIENTED_EDGE ( 'NONE', *, *, #304, .F. ) ;
#267 = EDGE_CURVE ( 'NONE', #165, #1199, #265, .T. ) ;
#268 = CARTESIAN_POINT ( 'NONE',  ( -19.05000000000001137, 2.269999999999994245, -1.770000000000002016 ) ) ;
#269 = DIRECTION ( 'NONE',  ( 0.000000000000000000, 0.000000000000000000, 1.000000000000000000 ) ) ;
#270 = CARTESIAN_POINT ( 'NONE',  ( -39.30649999999998556, -14.30999999999987793, 5.820998786000001424 ) ) ;
#271 = ORIENTED_EDGE ( 'NONE', *, *, #670, .F. ) ;
#272 = VECTOR ( 'NONE', #109, 1000.000000000000000 ) ;
#273 = LINE ( 'NONE', #598, #1164 ) ;
#274 = VECTOR ( 'NONE', #1351, 1000.000000000000000 ) ;
#275 = EDGE_CURVE ( 'NONE', #1272, #967, #470, .T. ) ;
#276 = ORIENTED_EDGE ( 'NONE', *, *, #246, .T. ) ;
#277 = CARTESIAN_POINT ( 'NONE',  ( -13.90649999999998876, -22.26000000000000156, 0.000000000000000000 ) ) ;
#278 = CARTESIAN_POINT ( 'NONE',  ( -63.29825000000025170, 63.29825000000003143, 8.820998786000000536 ) ) ;
#279 = ADVANCED_FACE ( 'NONE', ( #913 ), #1344, .F. ) ;
#280 = DIRECTION ( 'NONE',  ( -1.000000000000000000, 0.000000000000000000, 0.000000000000000000 ) ) ;
#281 = ORIENTED_EDGE ( 'NONE', *, *, #1278, .F. ) ;
#282 = LINE ( 'NONE', #809, #1090 ) ;
#283 = ORIENTED_EDGE ( 'NONE', *, *, #863, .T. ) ;
#284 = DIRECTION ( 'NONE',  ( -1.000000000000000000, 0.000000000000000000, 0.000000000000000000 ) ) ;
#285 = DIRECTION ( 'NONE',  ( 0.000000000000000000, -1.000000000000000000, -0.000000000000000000 ) ) ;
#286 = ORIENTED_EDGE ( 'NONE', *, *, #78, .T. ) ;
#287 = APPROVAL_DATE_TIME ( #394, #857 ) ;
#288 = CARTESIAN_POINT ( 'NONE',  ( -167.5764999999999816, -3.000000000000002665, 51.18100000000000449 ) ) ;
#289 = EDGE_LOOP ( 'NONE', ( #57, #313, #596, #363 ) ) ;
#290 = VECTOR ( 'NONE', #1268, 1000.000000000000000 ) ;
#291 = CARTESIAN_POINT ( 'NONE',  ( -166.3064999999999998, -3.000000000000006217, 0.000000000000000000 ) ) ;
#292 = CARTESIAN_POINT ( 'NONE',  ( -167.5764999999999816, 0.000000000000000000, 51.18099999999999739 ) ) ;
#293 = VECTOR ( 'NONE', #457, 1000.000000000000000 ) ;
#294 = LINE ( 'NONE', #947, #1386 ) ;
#295 = EDGE_CURVE ( 'NONE', #307, #1183, #350, .T. ) ;
#296 = EDGE_LOOP ( 'NONE', ( #483, #807, #430, #189 ) ) ;
#297 = VECTOR ( 'NONE', #689, 1000.000000000000114 ) ;
#298 = DIRECTION ( 'NONE',  ( 0.000000000000000000, 0.000000000000000000, -1.000000000000000000 ) ) ;
#299 = ADVANCED_FACE ( 'NONE', ( #1238 ), #453, .F. ) ;
#300 = LINE ( 'NONE', #187, #998 ) ;
#301 = ORIENTED_EDGE ( 'NONE', *, *, #275, .T. ) ;
#302 = CARTESIAN_POINT ( 'NONE',  ( -166.3064999999999998, -3.000000000000006217, 5.820998786000009417 ) ) ;
#303 = DIRECTION ( 'NONE',  ( 0.7071067811865492381, 0.000000000000000000, 0.7071067811865457964 ) ) ;
#304 = EDGE_CURVE ( 'NONE', #706, #880, #702, .T. ) ;
#305 = CARTESIAN_POINT ( 'NONE',  ( 12.69999999999998863, 4.445000000000000284, -5.489001213999997297 ) ) ;
#306 = ORIENTED_EDGE ( 'NONE', *, *, #481, .F. ) ;
#307 = VERTEX_POINT ( 'NONE', #694 ) ;
#308 = EDGE_CURVE ( 'NONE', #1127, #54, #461, .T. ) ;
#309 = CLOSED_SHELL ( 'NONE', ( #1321, #188, #1406, #808, #1419, #279, #43, #1196, #850, #435, #505, #899, #720, #520, #1264, #585, #936, #1241, #564, #713, #1179, #351, #1094, #399, #1210, #885, #832, #132, #755, #553, #783, #114, #819, #1167, #1250, #135, #1155, #1040, #299, #2, #853, #414, #1007 ) ) ;
#310 = DIRECTION ( 'NONE',  ( -1.000000000000000000, 0.000000000000000000, -0.000000000000000000 ) ) ;
#311 = CARTESIAN_POINT ( 'NONE',  ( -26.60649999999998627, -12.69999999999999929, 51.18100000000001160 ) ) ;
#312 = LINE ( 'NONE', #750, #552 ) ;
#313 = ORIENTED_EDGE ( 'NONE', *, *, #1367, .T. ) ;
#314 = ORIENTED_EDGE ( 'NONE', *, *, #1229, .T. ) ;
#315 = VECTOR ( 'NONE', #402, 1000.000000000000000 ) ;
#316 = ORIENTED_EDGE ( 'NONE', *, *, #267, .F. ) ;
#317 = VECTOR ( 'NONE', #479, 1000.000000000000000 ) ;
#318 = EDGE_CURVE ( 'NONE', #1417, #622, #921, .T. ) ;
#319 = EDGE_CURVE ( 'NONE', #1043, #1055, #1139, .T. ) ;
#320 = LINE ( 'NONE', #984, #886 ) ;
#321 = CARTESIAN_POINT ( 'NONE',  ( 0.000000000000000000, 0.000000000000000000, 0.000000000000000000 ) ) ;
#322 = CARTESIAN_POINT ( 'NONE',  ( -157.0354999999999848, -12.69999999999997620, 5.820998786000002312 ) ) ;
#323 = ORIENTED_EDGE ( 'NONE', *, *, #627, .T. ) ;
#324 = ORIENTED_EDGE ( 'NONE', *, *, #518, .F. ) ;
#325 = ORIENTED_EDGE ( 'NONE', *, *, #962, .F. ) ;
#326 = LINE ( 'NONE', #775, #747 ) ;
#327 = CALENDAR_DATE ( 2026, 26, 5 ) ;
#328 = ORIENTED_EDGE ( 'NONE', *, *, #1076, .T. ) ;
#329 = ORIENTED_EDGE ( 'NONE', *, *, #1390, .T. ) ;
#330 = ORIENTED_EDGE ( 'NONE', *, *, #1376, .T. ) ;
#331 = CARTESIAN_POINT ( 'NONE',  ( -192.9129999999999825, 4.445000000000000284, 49.91100000000001558 ) ) ;
#332 = CC_DESIGN_APPROVAL ( #214, ( #874 ) ) ;
#333 = CARTESIAN_POINT ( 'NONE',  ( 3.358255390439657262, -3.000000000000005329, -5.489001213999997297 ) ) ;
#334 = CARTESIAN_POINT ( 'NONE',  ( 0.000000000000000000, -3.000000000000006217, 5.820998786000009417 ) ) ;
#335 = EDGE_CURVE ( 'NONE', #556, #1297, #1129, .T. ) ;
#336 = ORIENTED_EDGE ( 'NONE', *, *, #772, .F. ) ;
#337 = VECTOR ( 'NONE', #877, 1000.000000000000000 ) ;
#338 = VECTOR ( 'NONE', #1123, 1000.000000000000000 ) ;
#339 = DIRECTION ( 'NONE',  ( 1.000000000000000000, 0.000000000000000000, 0.000000000000000000 ) ) ;
#340 = PLANE ( 'NONE',  #354 ) ;
#341 = LINE ( 'NONE', #26, #906 ) ;
#342 = VERTEX_POINT ( 'NONE', #368 ) ;
#343 = LINE ( 'NONE', #780, #587 ) ;
#344 = FACE_OUTER_BOUND ( 'NONE', #50, .T. ) ;
#345 = CC_DESIGN_PERSON_AND_ORGANIZATION_ASSIGNMENT ( #218, #168, ( #1270 ) ) ;
#346 = CARTESIAN_POINT ( 'NONE',  ( 0.000000000000000000, 0.000000000000000000, 49.91100000000001558 ) ) ;
#347 = CARTESIAN_POINT ( 'NONE',  ( -167.5764999999999816, -3.000000000000006217, 8.820998786000000536 ) ) ;
#348 = ORIENTED_EDGE ( 'NONE', *, *, #688, .T. ) ;
#349 = CARTESIAN_POINT ( 'NONE',  ( -166.3064999999999998, -3.000000000000006217, 8.820998786000000536 ) ) ;
#350 = LINE ( 'NONE', #376, #969 ) ;
#351 = ADVANCED_FACE ( 'NONE', ( #805 ), #359, .T. ) ;
#352 = LINE ( 'NONE', #147, #631 ) ;
#353 = EDGE_LOOP ( 'NONE', ( #896, #722, #1385, #855 ) ) ;
#354 = AXIS2_PLACEMENT_3D ( 'NONE', #658, #866, #650 ) ;
#355 = CARTESIAN_POINT ( 'NONE',  ( 12.69999999999998863, -3.000000000000005329, -5.489001214000025719 ) ) ;
#356 = CARTESIAN_POINT ( 'NONE',  ( -157.0354999999999848, -12.69999999999997620, 51.18100000000002581 ) ) ;
#357 = ORIENTED_EDGE ( 'NONE', *, *, #1069, .F. ) ;
#358 = DIRECTION ( 'NONE',  ( -1.000000000000000000, 0.000000000000000000, 0.000000000000000000 ) ) ;
#359 = PLANE ( 'NONE',  #1307 ) ;
#360 = EDGE_CURVE ( 'NONE', #1236, #1072, #27, .T. ) ;
#361 = VECTOR ( 'NONE', #49, 1000.000000000000000 ) ;
#362 = PLANE ( 'NONE',  #10 ) ;
#363 = ORIENTED_EDGE ( 'NONE', *, *, #1299, .F. ) ;
#364 = PLANE ( 'NONE',  #822 ) ;
#365 = PLANE ( 'NONE',  #934 ) ;
#366 = ORIENTED_EDGE ( 'NONE', *, *, #1058, .F. ) ;
#367 = DIRECTION ( 'NONE',  ( -0.000000000000000000, 0.000000000000000000, 1.000000000000000000 ) ) ;
#368 = CARTESIAN_POINT ( 'NONE',  ( -39.30649999999998556, -3.000000000000006217, -5.489001213999997297 ) ) ;
#369 = CARTESIAN_POINT ( 'NONE',  ( -26.60649999999999338, -12.69999999999999929, 8.820998786000000536 ) ) ;
#370 = EDGE_LOOP ( 'NONE', ( #1168, #1224, #1287, #357, #542, #178 ) ) ;
#371 = CARTESIAN_POINT ( 'NONE',  ( -167.5764999999999816, 0.000000000000000000, 0.000000000000000000 ) ) ;
#372 = LINE ( 'NONE', #257, #790 ) ;
#373 = EDGE_CURVE ( 'NONE', #926, #1283, #146, .T. ) ;
#374 = ORIENTED_EDGE ( 'NONE', *, *, #1108, .F. ) ;
#375 = DIRECTION ( 'NONE',  ( 1.000000000000000000, 0.000000000000000000, 0.000000000000000000 ) ) ;
#376 = CARTESIAN_POINT ( 'NONE',  ( -13.90649999999998876, 27.26656571201958812, 8.820998786000000536 ) ) ;
#377 = FACE_OUTER_BOUND ( 'NONE', #523, .T. ) ;
#378 = VERTEX_POINT ( 'NONE', #1029 ) ;
#379 = CALENDAR_DATE ( 2026, 26, 5 ) ;
#380 = CARTESIAN_POINT ( 'NONE',  ( 1.769999999999993356, 0.000000000000000000, -1.770000000000002016 ) ) ;
#381 = EDGE_CURVE ( 'NONE', #473, #910, #478, .T. ) ;
#382 = ORIENTED_EDGE ( 'NONE', *, *, #1221, .F. ) ;
#383 = DIRECTION ( 'NONE',  ( -0.000000000000000000, -1.000000000000000000, -0.000000000000000000 ) ) ;
#384 = DIRECTION ( 'NONE',  ( -0.000000000000000000, -1.000000000000000000, -0.000000000000000000 ) ) ;
#385 = CARTESIAN_POINT ( 'NONE',  ( -167.5764999999999816, 0.000000000000000000, 8.820998786000000536 ) ) ;
#386 = ORIENTED_EDGE ( 'NONE', *, *, #1367, .F. ) ;
#387 = AXIS2_PLACEMENT_3D ( 'NONE', #1281, #303, #1312 ) ;
#388 = DIRECTION ( 'NONE',  ( 0.000000000000000000, 0.000000000000000000, -1.000000000000000000 ) ) ;
#389 = VECTOR ( 'NONE', #1001, 1000.000000000000000 ) ;
#390 = EDGE_LOOP ( 'NONE', ( #1379, #833, #281, #1346 ) ) ;
#391 = CARTESIAN_POINT ( 'NONE',  ( -148.8565000000000111, -22.25999999999999801, 5.820998786000002312 ) ) ;
#392 = CARTESIAN_POINT ( 'NONE',  ( -12.63649999999999451, 0.000000000000000000, 8.820998786000000536 ) ) ;
#393 = VERTEX_POINT ( 'NONE', #242 ) ;
#394 = DATE_AND_TIME ( #379, #839 ) ;
#395 = PLANE ( 'NONE',  #1407 ) ;
#396 = EDGE_LOOP ( 'NONE', ( #1249, #221, #1233, #404, #283, #233 ) ) ;
#397 = CARTESIAN_POINT ( 'NONE',  ( -192.9129999999999825, -3.000000000000002665, 51.18100000000000449 ) ) ;
#398 = DIRECTION ( 'NONE',  ( 0.000000000000000000, 0.000000000000000000, -1.000000000000000000 ) ) ;
#399 = ADVANCED_FACE ( 'NONE', ( #813 ), #797, .T. ) ;
#400 = EDGE_CURVE ( 'NONE', #258, #378, #1247, .T. ) ;
#401 = SHAPE_DEFINITION_REPRESENTATION ( #618, #1300 ) ;
#402 = DIRECTION ( 'NONE',  ( 0.000000000000000000, 0.000000000000000000, -1.000000000000000000 ) ) ;
#403 = AXIS2_PLACEMENT_3D ( 'NONE', #928, #1327, #787 ) ;
#404 = ORIENTED_EDGE ( 'NONE', *, *, #209, .T. ) ;
#405 = LINE ( 'NONE', #1146, #144 ) ;
#406 = LINE ( 'NONE', #292, #514 ) ;
#407 = LINE ( 'NONE', #848, #940 ) ;
#408 = EDGE_LOOP ( 'NONE', ( #490, #1093, #193, #637, #1413, #1132, #981, #1209 ) ) ;
#409 = AXIS2_PLACEMENT_3D ( 'NONE', #454, #46, #569 ) ;
#410 = LINE ( 'NONE', #617, #956 ) ;
#411 = EDGE_CURVE ( 'NONE', #923, #1411, #685, .T. ) ;
#412 = DIRECTION ( 'NONE',  ( 0.000000000000000000, 1.000000000000000000, -0.000000000000000000 ) ) ;
#413 = DIRECTION ( 'NONE',  ( 1.000000000000000000, 0.000000000000000000, 0.000000000000000000 ) ) ;
#414 = ADVANCED_FACE ( 'NONE', ( #1106 ), #122, .F. ) ;
#415 = ORIENTED_EDGE ( 'NONE', *, *, #1058, .T. ) ;
#416 = PLANE ( 'NONE',  #653 ) ;
#417 = CARTESIAN_POINT ( 'NONE',  ( -3.810000000000007603, 1.270000000000000018, 49.91100000000001558 ) ) ;
#418 = ORIENTED_EDGE ( 'NONE', *, *, #737, .F. ) ;
#419 = EDGE_CURVE ( 'NONE', #1297, #1190, #1280, .T. ) ;
#420 = ORIENTED_EDGE ( 'NONE', *, *, #1313, .T. ) ;
#421 = LOCAL_TIME ( 12, 11, 39.00000000000000000, #1096 ) ;
#422 = DIRECTION ( 'NONE',  ( 1.000000000000000000, -0.000000000000000000, 0.000000000000000000 ) ) ;
#423 =( NAMED_UNIT ( * ) SI_UNIT ( $, .STERADIAN. ) SOLID_ANGLE_UNIT ( ) );
#424 = ORIENTED_EDGE ( 'NONE', *, *, #951, .F. ) ;
#425 = ORIENTED_EDGE ( 'NONE', *, *, #167, .T. ) ;
#426 = VECTOR ( 'NONE', #73, 999.9999999999998863 ) ;
#427 = ORIENTED_EDGE ( 'NONE', *, *, #360, .T. ) ;
#428 = DIRECTION ( 'NONE',  ( -1.000000000000000000, 0.000000000000000000, 0.000000000000000000 ) ) ;
#429 = DIRECTION ( 'NONE',  ( 1.000000000000000000, 0.000000000000000000, 0.000000000000000000 ) ) ;
#430 = ORIENTED_EDGE ( 'NONE', *, *, #932, .F. ) ;
#431 = ORIENTED_EDGE ( 'NONE', *, *, #1222, .F. ) ;
#432 = ORIENTED_EDGE ( 'NONE', *, *, #581, .T. ) ;
#433 = EDGE_CURVE ( 'NONE', #654, #119, #734, .T. ) ;
#434 = EDGE_CURVE ( 'NONE', #378, #666, #1172, .T. ) ;
#435 = ADVANCED_FACE ( 'NONE', ( #1066 ), #1387, .T. ) ;
#436 = CARTESIAN_POINT ( 'NONE',  ( -181.9829999999999757, 2.269999999999994245, 21.58999999999998209 ) ) ;
#437 = APPROVAL_STATUS ( 'not_yet_approved' ) ;
#438 = VERTEX_POINT ( 'NONE', #507 ) ;
#439 = VERTEX_POINT ( 'NONE', #392 ) ;
#440 = DIRECTION ( 'NONE',  ( -1.365923996832132842E-16, -0.000000000000000000, -1.000000000000000000 ) ) ;
#441 = CARTESIAN_POINT ( 'NONE',  ( -24.63000000000004164, 2.269999999999994245, 3.809999999999991172 ) ) ;
#442 = CARTESIAN_POINT ( 'NONE',  ( -181.9830000000000041, 4.445000000000000284, 21.58999999999998209 ) ) ;
#443 = ORIENTED_EDGE ( 'NONE', *, *, #863, .F. ) ;
#444 = VECTOR ( 'NONE', #1259, 1000.000000000000000 ) ;
#445 = CARTESIAN_POINT ( 'NONE',  ( -13.90649999999998876, -22.25999999999999801, 8.820998785999996983 ) ) ;
#446 = VECTOR ( 'NONE', #1028, 1000.000000000000000 ) ;
#447 = FACE_OUTER_BOUND ( 'NONE', #1008, .T. ) ;
#448 = DATE_AND_TIME ( #327, #421 ) ;
#449 = CARTESIAN_POINT ( 'NONE',  ( 12.69999999999998863, 2.269999999999994245, -5.489001213999998185 ) ) ;
#450 = EDGE_CURVE ( 'NONE', #1298, #87, #68, .T. ) ;
#451 = VERTEX_POINT ( 'NONE', #302 ) ;
#452 = DIRECTION ( 'NONE',  ( 0.000000000000000000, 0.000000000000000000, 1.000000000000000000 ) ) ;
#453 = PLANE ( 'NONE',  #403 ) ;
#454 = CARTESIAN_POINT ( 'NONE',  ( -153.6065000000000111, -12.69999999999997620, 8.820998786000000536 ) ) ;
#455 = EDGE_LOOP ( 'NONE', ( #765, #200, #570, #1418 ) ) ;
#456 = CARTESIAN_POINT ( 'NONE',  ( -3.810000000000007603, 0.000000000000000000, 49.91099999999999426 ) ) ;
#457 = DIRECTION ( 'NONE',  ( -1.365923996832132842E-16, -0.000000000000000000, -1.000000000000000000 ) ) ;
#458 = ORIENTED_EDGE ( 'NONE', *, *, #252, .F. ) ;
#459 = EDGE_CURVE ( 'NONE', #1370, #646, #738, .T. ) ;
#460 = CARTESIAN_POINT ( 'NONE',  ( 0.000000000000000000, -22.25999999999999801, 8.820998786000000536 ) ) ;
#461 = LINE ( 'NONE', #1336, #667 ) ;
#462 = PLANE ( 'NONE',  #1314 ) ;
#463 = ORIENTED_EDGE ( 'NONE', *, *, #64, .T. ) ;
#464 = VECTOR ( 'NONE', #1380, 1000.000000000000000 ) ;
#465 = DIRECTION ( 'NONE',  ( -1.000000000000000000, 0.000000000000000000, 0.000000000000000000 ) ) ;
#466 = DIRECTION ( 'NONE',  ( -1.365923996832132842E-16, -0.000000000000000000, -1.000000000000000000 ) ) ;
#467 = CIRCLE ( 'NONE', #673, 3.429000000000001602 ) ;
#468 = ORIENTED_EDGE ( 'NONE', *, *, #691, .T. ) ;
#469 = DIRECTION ( 'NONE',  ( 0.000000000000000000, -1.000000000000000000, -0.000000000000000000 ) ) ;
#470 = LINE ( 'NONE', #129, #118 ) ;
#471 = VECTOR ( 'NONE', #792, 1000.000000000000000 ) ;
#472 = FACE_OUTER_BOUND ( 'NONE', #1092, .T. ) ;
#473 = VERTEX_POINT ( 'NONE', #946 ) ;
#474 = CARTESIAN_POINT ( 'NONE',  ( -24.63000000000004164, 1.270000000000000018, 3.809999999999991172 ) ) ;
#475 = FACE_OUTER_BOUND ( 'NONE', #1240, .T. ) ;
#476 = VERTEX_POINT ( 'NONE', #960 ) ;
#477 = CARTESIAN_POINT ( 'NONE',  ( -153.6065000000000111, -12.69999999999997620, 51.18100000000002581 ) ) ;
#478 = LINE ( 'NONE', #1352, #75 ) ;
#479 = DIRECTION ( 'NONE',  ( 0.000000000000000000, -1.000000000000000000, 3.469446951953634305E-15 ) ) ;
#480 = EDGE_LOOP ( 'NONE', ( #708, #1103, #1204, #799 ) ) ;
#481 = EDGE_CURVE ( 'NONE', #1043, #1116, #410, .T. ) ;
#482 = CARTESIAN_POINT ( 'NONE',  ( 0.000000000000000000, 0.000000000000000000, 0.000000000000000000 ) ) ;
#483 = ORIENTED_EDGE ( 'NONE', *, *, #925, .F. ) ;
#484 = LINE ( 'NONE', #67, #29 ) ;
#485 = DIRECTION ( 'NONE',  ( -0.000000000000000000, 0.000000000000000000, 1.000000000000000000 ) ) ;
#486 = DIRECTION ( 'NONE',  ( 0.000000000000000000, -1.000000000000000000, 0.000000000000000000 ) ) ;
#487 = ORIENTED_EDGE ( 'NONE', *, *, #1221, .T. ) ;
#488 = VECTOR ( 'NONE', #568, 1000.000000000000000 ) ;
#489 = DIRECTION ( 'NONE',  ( 0.000000000000000000, -1.000000000000000000, 0.000000000000000000 ) ) ;
#490 = ORIENTED_EDGE ( 'NONE', *, *, #267, .T. ) ;
#491 = AXIS2_PLACEMENT_3D ( 'NONE', #1316, #810, #659 ) ;
#492 = DIRECTION ( 'NONE',  ( 0.000000000000000000, 1.000000000000000000, -0.000000000000000000 ) ) ;
#493 = CARTESIAN_POINT ( 'NONE',  ( -79.69650000000038403, 1.270000000000000018, 79.69649999999998613 ) ) ;
#494 = ORIENTED_EDGE ( 'NONE', *, *, #419, .T. ) ;
#495 = VECTOR ( 'NONE', #62, 1000.000000000000000 ) ;
#496 = FACE_OUTER_BOUND ( 'NONE', #589, .T. ) ;
#497 = VECTOR ( 'NONE', #244, 1000.000000000000000 ) ;
#498 = EDGE_LOOP ( 'NONE', ( #158, #1310, #599, #543 ) ) ;
#499 = EDGE_CURVE ( 'NONE', #451, #258, #711, .T. ) ;
#500 = DIRECTION ( 'NONE',  ( 0.000000000000000000, 0.000000000000000000, -1.000000000000000000 ) ) ;
#501 = CARTESIAN_POINT ( 'NONE',  ( -19.05000000000001137, 4.445000000000000284, -1.770000000000010676 ) ) ;
#502 = CARTESIAN_POINT ( 'NONE',  ( -30.03549999999999542, -12.69999999999999929, 8.820998786000000536 ) ) ;
#503 = EDGE_CURVE ( 'NONE', #675, #1127, #83, .T. ) ;
#504 = ORIENTED_EDGE ( 'NONE', *, *, #419, .F. ) ;
#505 = ADVANCED_FACE ( 'NONE', ( #831 ), #1063, .T. ) ;
#506 = CARTESIAN_POINT ( 'NONE',  ( 1.769999999999993356, 2.269999999999994245, 21.58999999999998209 ) ) ;
#507 = CARTESIAN_POINT ( 'NONE',  ( -12.63649999999999451, 0.000000000000000000, 51.18099999999999739 ) ) ;
#508 = CARTESIAN_POINT ( 'NONE',  ( -39.30649999999998556, -3.000000000000006217, 5.820998786000009417 ) ) ;
#509 = ORIENTED_EDGE ( 'NONE', *, *, #951, .T. ) ;
#510 = AXIS2_PLACEMENT_3D ( 'NONE', #321, #554, #429 ) ;
#511 = LINE ( 'NONE', #1060, #911 ) ;
#512 = EDGE_CURVE ( 'NONE', #753, #736, #406, .T. ) ;
#513 = DIRECTION ( 'NONE',  ( 0.7071067811865492381, 0.000000000000000000, -0.7071067811865457964 ) ) ;
#514 = VECTOR ( 'NONE', #77, 1000.000000000000000 ) ;
#515 = LINE ( 'NONE', #1084, #30 ) ;
#516 = AXIS2_PLACEMENT_3D ( 'NONE', #369, #806, #562 ) ;
#517 = CARTESIAN_POINT ( 'NONE',  ( 0.000000000000000000, -3.000000000000006217, 8.820998786000000536 ) ) ;
#518 = EDGE_CURVE ( 'NONE', #1124, #1055, #511, .T. ) ;
#519 = DIRECTION ( 'NONE',  ( -0.000000000000000000, 0.000000000000000000, 1.000000000000000000 ) ) ;
#520 = ADVANCED_FACE ( 'NONE', ( #1256 ), #844, .F. ) ;
#521 = ORIENTED_EDGE ( 'NONE', *, *, #600, .T. ) ;
#522 = ORIENTED_EDGE ( 'NONE', *, *, #800, .T. ) ;
#523 = EDGE_LOOP ( 'NONE', ( #336, #937, #652, #386 ) ) ;
#524 = DIRECTION ( 'NONE',  ( 0.000000000000000000, 1.000000000000000000, -3.469446951953634305E-15 ) ) ;
#525 = CARTESIAN_POINT ( 'NONE',  ( -192.9129999999999825, 2.269999999999994245, 51.18099999999999739 ) ) ;
#526 = DIRECTION ( 'NONE',  ( 0.000000000000000000, 0.000000000000000000, 1.000000000000000000 ) ) ;
#527 = ORIENTED_EDGE ( 'NONE', *, *, #1317, .T. ) ;
#528 = ORIENTED_EDGE ( 'NONE', *, *, #538, .T. ) ;
#529 = AXIS2_PLACEMENT_3D ( 'NONE', #311, #812, #284 ) ;
#530 = VECTOR ( 'NONE', #1208, 1000.000000000000000 ) ;
#531 = PLANE ( 'NONE',  #1341 ) ;
#532 = EDGE_CURVE ( 'NONE', #1177, #107, #1374, .T. ) ;
#533 = PERSON_AND_ORGANIZATION ( #1185, #953 ) ;
#534 = VERTEX_POINT ( 'NONE', #602 ) ;
#535 = ORIENTED_EDGE ( 'NONE', *, *, #78, .F. ) ;
#536 = VECTOR ( 'NONE', #339, 1000.000000000000000 ) ;
#537 = EDGE_LOOP ( 'NONE', ( #1372, #1252, #425, #615 ) ) ;
#538 = EDGE_CURVE ( 'NONE', #54, #923, #163, .T. ) ;
#539 = CARTESIAN_POINT ( 'NONE',  ( 1.769999999999993356, 2.269999999999994245, -1.770000000000002016 ) ) ;
#540 = COORDINATED_UNIVERSAL_TIME_OFFSET ( 5, 0, .BEHIND. ) ;
#541 = CARTESIAN_POINT ( 'NONE',  ( -13.90649999999998876, -22.25999999999999801, 51.18100000000000449 ) ) ;
#542 = ORIENTED_EDGE ( 'NONE', *, *, #1160, .F. ) ;
#543 = ORIENTED_EDGE ( 'NONE', *, *, #1191, .F. ) ;
#544 = CARTESIAN_POINT ( 'NONE',  ( -192.9129999999999825, 2.269999999999994245, -5.489001213999997297 ) ) ;
#545 = FACE_OUTER_BOUND ( 'NONE', #988, .T. ) ;
#546 = CARTESIAN_POINT ( 'NONE',  ( -181.9829999999999757, 1.270000000000000240, 49.91099999999999426 ) ) ;
#547 = ORIENTED_EDGE ( 'NONE', *, *, #459, .T. ) ;
#548 = VECTOR ( 'NONE', #1114, 1000.000000000000000 ) ;
#549 = DIRECTION ( 'NONE',  ( 1.000000000000000000, 0.000000000000000000, -0.000000000000000000 ) ) ;
#550 = EDGE_CURVE ( 'NONE', #342, #666, #1154, .T. ) ;
#551 = CARTESIAN_POINT ( 'NONE',  ( -176.4029999999999632, 4.445000000000000284, 27.17000000000003723 ) ) ;
#552 = VECTOR ( 'NONE', #636, 1000.000000000000000 ) ;
#553 = ADVANCED_FACE ( 'NONE', ( #174 ), #610, .F. ) ;
#554 = DIRECTION ( 'NONE',  ( 0.000000000000000000, 0.000000000000000000, 1.000000000000000000 ) ) ;
#555 = CARTESIAN_POINT ( 'NONE',  ( -153.6065000000000111, -12.69999999999997620, 51.18100000000002581 ) ) ;
#556 = VERTEX_POINT ( 'NONE', #1225 ) ;
#557 = VECTOR ( 'NONE', #160, 1000.000000000000000 ) ;
#558 = FACE_OUTER_BOUND ( 'NONE', #71, .T. ) ;
#559 = CARTESIAN_POINT ( 'NONE',  ( -148.8565000000000111, -22.25999999999999801, 51.18100000000000449 ) ) ;
#560 = VECTOR ( 'NONE', #583, 1000.000000000000000 ) ;
#561 = EDGE_CURVE ( 'NONE', #342, #1171, #1004, .T. ) ;
#562 = DIRECTION ( 'NONE',  ( 1.000000000000000000, 0.000000000000000000, 0.000000000000000000 ) ) ;
#563 = DIRECTION ( 'NONE',  ( -1.000000000000000000, 0.000000000000000000, 0.000000000000000000 ) ) ;
#564 = ADVANCED_FACE ( 'NONE', ( #18 ), #364, .F. ) ;
#565 = EDGE_CURVE ( 'NONE', #726, #1055, #1151, .T. ) ;
#566 = ORIENTED_EDGE ( 'NONE', *, *, #499, .T. ) ;
#567 = DIRECTION ( 'NONE',  ( 1.000000000000000000, 0.000000000000000000, 0.000000000000000000 ) ) ;
#568 = DIRECTION ( 'NONE',  ( 0.000000000000000000, 1.000000000000000000, 0.000000000000000000 ) ) ;
#569 = DIRECTION ( 'NONE',  ( 1.000000000000000000, 0.000000000000000000, 0.000000000000000000 ) ) ;
#570 = ORIENTED_EDGE ( 'NONE', *, *, #1214, .T. ) ;
#571 = DIRECTION ( 'NONE',  ( 0.000000000000000000, 0.000000000000000000, 1.000000000000000000 ) ) ;
#572 = CARTESIAN_POINT ( 'NONE',  ( 0.000000000000000000, -22.25999999999999801, 8.820998786000000536 ) ) ;
#573 = ORIENTED_EDGE ( 'NONE', *, *, #411, .F. ) ;
#574 = FACE_BOUND ( 'NONE', #892, .T. ) ;
#575 = CARTESIAN_POINT ( 'NONE',  ( -3.810000000000007603, 4.445000000000000284, 27.17000000000003723 ) ) ;
#576 = DIRECTION ( 'NONE',  ( 0.000000000000000000, 0.000000000000000000, -1.000000000000000000 ) ) ;
#577 = ORIENTED_EDGE ( 'NONE', *, *, #723, .T. ) ;
#578 = VECTOR ( 'NONE', #1402, 1000.000000000000000 ) ;
#579 = LINE ( 'NONE', #25, #123 ) ;
#580 = DIRECTION ( 'NONE',  ( -1.365923996832132842E-16, -0.000000000000000000, -1.000000000000000000 ) ) ;
#581 = EDGE_CURVE ( 'NONE', #1124, #87, #935, .T. ) ;
#582 = ORIENTED_EDGE ( 'NONE', *, *, #202, .F. ) ;
#583 = DIRECTION ( 'NONE',  ( 0.000000000000000000, 0.000000000000000000, 1.000000000000000000 ) ) ;
#584 = DIRECTION ( 'NONE',  ( 0.7071067811865457964, -0.000000000000000000, 0.7071067811865492381 ) ) ;
#585 = ADVANCED_FACE ( 'NONE', ( #715 ), #1022, .F. ) ;
#586 = VECTOR ( 'NONE', #916, 1000.000000000000000 ) ;
#587 = VECTOR ( 'NONE', #452, 1000.000000000000000 ) ;
#588 = DIRECTION ( 'NONE',  ( 0.000000000000000000, 0.000000000000000000, 1.000000000000000000 ) ) ;
#589 = EDGE_LOOP ( 'NONE', ( #983, #835, #213, #106, #177, #1350, #1046, #328 ) ) ;
#590 = CARTESIAN_POINT ( 'NONE',  ( -140.9064999999999941, -3.000000000000006217, 0.000000000000000000 ) ) ;
#591 = DIRECTION ( 'NONE',  ( 0.000000000000000000, 0.000000000000000000, -1.000000000000000000 ) ) ;
#592 = ORIENTED_EDGE ( 'NONE', *, *, #671, .F. ) ;
#593 = CARTESIAN_POINT ( 'NONE',  ( -13.90649999999998876, 27.26656571201958812, 5.820998786000009417 ) ) ;
#594 = CARTESIAN_POINT ( 'NONE',  ( -31.35649999999997561, -22.25999999999999801, 5.820998786000002312 ) ) ;
#595 = CARTESIAN_POINT ( 'NONE',  ( -3.810000000000035580, 3.106988124944954422E-13, 49.91099999999999426 ) ) ;
#596 = ORIENTED_EDGE ( 'NONE', *, *, #481, .T. ) ;
#597 = DATE_AND_TIME ( #186, #216 ) ;
#598 = CARTESIAN_POINT ( 'NONE',  ( -3.810000000000007603, 0.000000000000000000, 51.18099999999999739 ) ) ;
#599 = ORIENTED_EDGE ( 'NONE', *, *, #450, .F. ) ;
#600 = EDGE_CURVE ( 'NONE', #1057, #736, #681, .T. ) ;
#601 = LINE ( 'NONE', #58, #606 ) ;
#602 = CARTESIAN_POINT ( 'NONE',  ( -176.4029999999999632, -1.208654451933713058E-15, 51.18099999999999739 ) ) ;
#603 = ORIENTED_EDGE ( 'NONE', *, *, #512, .T. ) ;
#604 = CARTESIAN_POINT ( 'NONE',  ( -12.63649999999999451, -25.40000000000000568, 8.820998786000000536 ) ) ;
#605 = EDGE_CURVE ( 'NONE', #1405, #967, #169, .T. ) ;
#606 = VECTOR ( 'NONE', #492, 1000.000000000000000 ) ;
#607 = ORIENTED_EDGE ( 'NONE', *, *, #1076, .F. ) ;
#608 = VECTOR ( 'NONE', #86, 1000.000000000000000 ) ;
#609 = CARTESIAN_POINT ( 'NONE',  ( -176.4029999999999632, 1.270000000000000018, 49.91100000000001558 ) ) ;
#610 = PLANE ( 'NONE',  #66 ) ;
#611 = ORIENTED_EDGE ( 'NONE', *, *, #433, .T. ) ;
#612 = VECTOR ( 'NONE', #1348, 1000.000000000000000 ) ;
#613 = DIRECTION ( 'NONE',  ( 0.000000000000000000, -1.000000000000000000, 0.000000000000000000 ) ) ;
#614 = EDGE_CURVE ( 'NONE', #880, #1324, #1363, .T. ) ;
#615 = ORIENTED_EDGE ( 'NONE', *, *, #246, .F. ) ;
#616 = CARTESIAN_POINT ( 'NONE',  ( -153.6065000000000111, -12.69999999999997620, 8.820998786000000536 ) ) ;
#617 = CARTESIAN_POINT ( 'NONE',  ( -13.90649999999998876, -22.25999999999999801, 5.820998786000001424 ) ) ;
#618 = PRODUCT_DEFINITION_SHAPE ( 'NONE', 'NONE',  #874 ) ;
#619 = ORIENTED_EDGE ( 'NONE', *, *, #779, .F. ) ;
#620 = APPROVAL_STATUS ( 'not_yet_approved' ) ;
#621 = DIRECTION ( 'NONE',  ( 0.000000000000000000, -1.000000000000000000, 0.000000000000000000 ) ) ;
#622 = VERTEX_POINT ( 'NONE', #1133 ) ;
#623 = DIRECTION ( 'NONE',  ( 0.000000000000000000, 0.000000000000000000, -1.000000000000000000 ) ) ;
#624 = PLANE ( 'NONE',  #387 ) ;
#625 = CARTESIAN_POINT ( 'NONE',  ( -13.90649999999998876, -22.25999999999999801, 5.820998786000001424 ) ) ;
#626 = DIRECTION ( 'NONE',  ( -0.000000000000000000, -0.000000000000000000, -1.000000000000000000 ) ) ;
#627 = EDGE_CURVE ( 'NONE', #1411, #1324, #264, .T. ) ;
#628 = DIRECTION ( 'NONE',  ( -1.000000000000000000, 0.000000000000000000, 0.000000000000000000 ) ) ;
#629 = AXIS2_PLACEMENT_3D ( 'NONE', #1166, #519, #858 ) ;
#630 = LINE ( 'NONE', #1403, #608 ) ;
#631 = VECTOR ( 'NONE', #588, 1000.000000000000000 ) ;
#632 = ORIENTED_EDGE ( 'NONE', *, *, #318, .F. ) ;
#633 = VERTEX_POINT ( 'NONE', #817 ) ;
#634 = CARTESIAN_POINT ( 'NONE',  ( -181.9829999999999757, 0.000000000000000000, 0.000000000000000000 ) ) ;
#635 = CARTESIAN_POINT ( 'NONE',  ( 0.000000000000000000, 0.000000000000000000, 5.820998786000001424 ) ) ;
#636 = DIRECTION ( 'NONE',  ( -1.000000000000000000, -7.332769396067994153E-15, 0.000000000000000000 ) ) ;
#637 = ORIENTED_EDGE ( 'NONE', *, *, #13, .F. ) ;
#638 = ORIENTED_EDGE ( 'NONE', *, *, #962, .T. ) ;
#639 = DIRECTION ( 'NONE',  ( 0.000000000000000000, -1.000000000000000000, -0.000000000000000000 ) ) ;
#640 = VECTOR ( 'NONE', #1169, 1000.000000000000000 ) ;
#641 = PERSON_AND_ORGANIZATION ( #1185, #953 ) ;
#642 = ORIENTED_EDGE ( 'NONE', *, *, #581, .F. ) ;
#643 = EDGE_CURVE ( 'NONE', #675, #646, #1144, .T. ) ;
#644 = EDGE_CURVE ( 'NONE', #307, #1211, #579, .T. ) ;
#645 = EDGE_LOOP ( 'NONE', ( #1420, #1397, #1034, #65, #875, #5, #69, #700 ) ) ;
#646 = VERTEX_POINT ( 'NONE', #474 ) ;
#647 = LOCAL_TIME ( 12, 11, 39.00000000000000000, #116 ) ;
#648 = VECTOR ( 'NONE', #466, 1000.000000000000000 ) ;
#649 = FACE_OUTER_BOUND ( 'NONE', #396, .T. ) ;
#650 = DIRECTION ( 'NONE',  ( 1.000000000000000000, 0.000000000000000000, -0.000000000000000000 ) ) ;
#651 = DIRECTION ( 'NONE',  ( 0.000000000000000000, 1.000000000000000000, -0.000000000000000000 ) ) ;
#652 = ORIENTED_EDGE ( 'NONE', *, *, #319, .F. ) ;
#653 = AXIS2_PLACEMENT_3D ( 'NONE', #1266, #310, #724 ) ;
#654 = VERTEX_POINT ( 'NONE', #247 ) ;
#655 = AXIS2_PLACEMENT_3D ( 'NONE', #1050, #1174, #1056 ) ;
#656 = ORIENTED_EDGE ( 'NONE', *, *, #503, .F. ) ;
#657 = DIRECTION ( 'NONE',  ( 0.000000000000000000, -1.000000000000000000, 0.000000000000000000 ) ) ;
#658 = CARTESIAN_POINT ( 'NONE',  ( 0.000000000000000000, 0.000000000000000000, 5.820998786000001424 ) ) ;
#659 = DIRECTION ( 'NONE',  ( 0.000000000000000000, 0.000000000000000000, 1.000000000000000000 ) ) ;
#660 = ORIENTED_EDGE ( 'NONE', *, *, #989, .T. ) ;
#661 = CYLINDRICAL_SURFACE ( 'NONE', #1388, 3.428999999999987836 ) ;
#662 = EDGE_CURVE ( 'NONE', #439, #1057, #1251, .T. ) ;
#663 = DIRECTION ( 'NONE',  ( 0.000000000000000000, 1.000000000000000000, 0.000000000000000000 ) ) ;
#664 = DIRECTION ( 'NONE',  ( 0.000000000000000000, 0.7071067811865435759, -0.7071067811865515695 ) ) ;
#665 = CARTESIAN_POINT ( 'NONE',  ( -176.4029999999999632, 0.000000000000000000, 51.18099999999999739 ) ) ;
#666 = VERTEX_POINT ( 'NONE', #908 ) ;
#667 = VECTOR ( 'NONE', #32, 1000.000000000000000 ) ;
#668 = DIRECTION ( 'NONE',  ( -0.000000000000000000, 0.000000000000000000, 1.000000000000000000 ) ) ;
#669 = DIRECTION ( 'NONE',  ( -0.000000000000000000, 0.000000000000000000, 1.000000000000000000 ) ) ;
#670 = EDGE_CURVE ( 'NONE', #451, #119, #1125, .T. ) ;
#671 = EDGE_CURVE ( 'NONE', #1165, #1417, #282, .T. ) ;
#672 = FACE_OUTER_BOUND ( 'NONE', #1404, .T. ) ;
#673 = AXIS2_PLACEMENT_3D ( 'NONE', #793, #248, #1118 ) ;
#674 = LINE ( 'NONE', #572, #238 ) ;
#675 = VERTEX_POINT ( 'NONE', #1242 ) ;
#676 = VECTOR ( 'NONE', #1269, 1000.000000000000000 ) ;
#677 = FACE_OUTER_BOUND ( 'NONE', #1329, .T. ) ;
#678 = CARTESIAN_POINT ( 'NONE',  ( -101.7865000000004301, 1.270000000000000018, 101.7864999999999469 ) ) ;
#679 = LINE ( 'NONE', #236, #957 ) ;
#680 = ORIENTED_EDGE ( 'NONE', *, *, #295, .F. ) ;
#681 = LINE ( 'NONE', #371, #865 ) ;
#682 = DIRECTION ( 'NONE',  ( 1.000000000000000000, 0.000000000000000000, 0.000000000000000000 ) ) ;
#683 = EDGE_LOOP ( 'NONE', ( #825, #1354, #976, #1305 ) ) ;
#684 = CARTESIAN_POINT ( 'NONE',  ( -150.1775000000000091, -12.69999999999997620, 5.820998786000002312 ) ) ;
#685 = LINE ( 'NONE', #1010, #784 ) ;
#686 = DIRECTION ( 'NONE',  ( 0.000000000000000000, 0.7071067811865435759, -0.7071067811865515695 ) ) ;
#687 = ORIENTED_EDGE ( 'NONE', *, *, #157, .T. ) ;
#688 = EDGE_CURVE ( 'NONE', #258, #666, #150, .T. ) ;
#689 = DIRECTION ( 'NONE',  ( 0.7071067811865492381, -0.000000000000000000, -0.7071067811865457964 ) ) ;
#690 = FACE_OUTER_BOUND ( 'NONE', #537, .T. ) ;
#691 = EDGE_CURVE ( 'NONE', #76, #1189, #1200, .T. ) ;
#692 = ORIENTED_EDGE ( 'NONE', *, *, #512, .F. ) ;
#693 = DIRECTION ( 'NONE',  ( -1.000000000000000000, 0.000000000000000000, 0.000000000000000000 ) ) ;
#694 = CARTESIAN_POINT ( 'NONE',  ( -13.90649999999998876, -3.000000000000006217, 8.820998786000000536 ) ) ;
#695 = DIRECTION ( 'NONE',  ( 0.000000000000000000, -1.000000000000000000, 0.000000000000000000 ) ) ;
#696 = EDGE_LOOP ( 'NONE', ( #966, #861, #276, #468 ) ) ;
#697 = VECTOR ( 'NONE', #90, 1000.000000000000000 ) ;
#698 = CARTESIAN_POINT ( 'NONE',  ( -166.3064999999999998, 27.26656571201958812, 5.820998786000009417 ) ) ;
#699 = DIRECTION ( 'NONE',  ( 0.000000000000000000, 1.000000000000000000, 0.000000000000000000 ) ) ;
#700 = ORIENTED_EDGE ( 'NONE', *, *, #925, .T. ) ;
#701 = DIRECTION ( 'NONE',  ( 1.000000000000000000, 0.000000000000000000, 0.000000000000000000 ) ) ;
#702 = LINE ( 'NONE', #45, #488 ) ;
#703 = AXIS2_PLACEMENT_3D ( 'NONE', #203, #1089, #89 ) ;
#704 = AXIS2_PLACEMENT_3D ( 'NONE', #1148, #21, #1113 ) ;
#705 = CARTESIAN_POINT ( 'NONE',  ( -31.35649999999997561, -22.25999999999999801, 51.18100000000000449 ) ) ;
#706 = VERTEX_POINT ( 'NONE', #380 ) ;
#707 = DIRECTION ( 'NONE',  ( 0.000000000000000000, -0.000000000000000000, -1.000000000000000000 ) ) ;
#708 = ORIENTED_EDGE ( 'NONE', *, *, #670, .T. ) ;
#709 = EDGE_CURVE ( 'NONE', #100, #1272, #273, .T. ) ;
#710 = DIRECTION ( 'NONE',  ( -0.000000000000000000, 0.000000000000000000, -1.000000000000000000 ) ) ;
#711 = LINE ( 'NONE', #1381, #676 ) ;
#712 = PLANE ( 'NONE',  #704 ) ;
#713 = ADVANCED_FACE ( 'NONE', ( #192 ), #416, .F. ) ;
#714 = ORIENTED_EDGE ( 'NONE', *, *, #450, .T. ) ;
#715 = FACE_OUTER_BOUND ( 'NONE', #370, .T. ) ;
#716 = ORIENTED_EDGE ( 'NONE', *, *, #565, .T. ) ;
#717 = APPLICATION_CONTEXT ( 'configuration controlled 3d designs of mechanical parts and assemblies' ) ;
#718 = LINE ( 'NONE', #506, #788 ) ;
#719 = CARTESIAN_POINT ( 'NONE',  ( -3.810000000000007603, 4.445000000000000284, 49.91100000000001558 ) ) ;
#720 = ADVANCED_FACE ( 'NONE', ( #80 ), #1064, .F. ) ;
#721 = EDGE_CURVE ( 'NONE', #438, #165, #1070, .T. ) ;
#722 = ORIENTED_EDGE ( 'NONE', *, *, #849, .F. ) ;
#723 = EDGE_CURVE ( 'NONE', #105, #1171, #195, .T. ) ;
#724 = DIRECTION ( 'NONE',  ( -0.000000000000000000, 0.000000000000000000, 1.000000000000000000 ) ) ;
#725 = AXIS2_PLACEMENT_3D ( 'NONE', #616, #1373, #701 ) ;
#726 = VERTEX_POINT ( 'NONE', #508 ) ;
#727 = AXIS2_PLACEMENT_3D ( 'NONE', #541, #219, #526 ) ;
#728 = UNCERTAINTY_MEASURE_WITH_UNIT (LENGTH_MEASURE( 1.000000000000000082E-05 ), #1295, 'distance_accuracy_value', 'NONE');
#729 = LINE ( 'NONE', #525, #1198 ) ;
#730 = CARTESIAN_POINT ( 'NONE',  ( -181.9829999999999757, 0.000000000000000000, 49.91099999999999426 ) ) ;
#731 = AXIS2_PLACEMENT_3D ( 'NONE', #1356, #55, #1033 ) ;
#732 = FACE_OUTER_BOUND ( 'NONE', #289, .T. ) ;
#733 = VERTEX_POINT ( 'NONE', #1159 ) ;
#734 = LINE ( 'NONE', #1053, #640 ) ;
#735 = DIRECTION ( 'NONE',  ( 0.000000000000000000, 0.000000000000000000, 1.000000000000000000 ) ) ;
#736 = VERTEX_POINT ( 'NONE', #180 ) ;
#737 = EDGE_CURVE ( 'NONE', #1199, #307, #1276, .T. ) ;
#738 = LINE ( 'NONE', #184, #222 ) ;
#739 = ORIENTED_EDGE ( 'NONE', *, *, #411, .T. ) ;
#740 = CARTESIAN_POINT ( 'NONE',  ( -181.9829999999999757, 2.270000000000000462, -1.770000000000002016 ) ) ;
#741 = EDGE_CURVE ( 'NONE', #1199, #439, #1288, .T. ) ;
#742 = FACE_OUTER_BOUND ( 'NONE', #408, .T. ) ;
#743 = ORIENTED_EDGE ( 'NONE', *, *, #1191, .T. ) ;
#744 = ORIENTED_EDGE ( 'NONE', *, *, #63, .F. ) ;
#745 = VECTOR ( 'NONE', #997, 1000.000000000000000 ) ;
#746 = DIRECTION ( 'NONE',  ( 0.000000000000000000, -1.000000000000000000, 0.000000000000000000 ) ) ;
#747 = VECTOR ( 'NONE', #657, 1000.000000000000000 ) ;
#748 = CC_DESIGN_DATE_AND_TIME_ASSIGNMENT ( #1416, #11, ( #874 ) ) ;
#749 = CARTESIAN_POINT ( 'NONE',  ( -167.5764999999999816, 0.000000000000000000, 8.820998786000000536 ) ) ;
#750 = CARTESIAN_POINT ( 'NONE',  ( -4.761427309039232424E-27, 6.493354763880101290E-13, 51.18099999999999739 ) ) ;
#751 = AXIS2_PLACEMENT_3D ( 'NONE', #804, #668, #1335 ) ;
#752 = ORIENTED_EDGE ( 'NONE', *, *, #400, .F. ) ;
#753 = VERTEX_POINT ( 'NONE', #288 ) ;
#754 = EDGE_CURVE ( 'NONE', #803, #1190, #407, .T. ) ;
#755 = ADVANCED_FACE ( 'NONE', ( #496 ), #1393, .T. ) ;
#756 = CARTESIAN_POINT ( 'NONE',  ( -180.2129999999999939, 1.270000000000000018, 49.91100000000001558 ) ) ;
#757 = CARTESIAN_POINT ( 'NONE',  ( -3.810000000000007603, 2.269999999999994245, 51.18099999999999739 ) ) ;
#758 = ORIENTED_EDGE ( 'NONE', *, *, #538, .F. ) ;
#759 = ORIENTED_EDGE ( 'NONE', *, *, #643, .F. ) ;
#760 = EDGE_CURVE ( 'NONE', #726, #342, #1384, .T. ) ;
#761 = VECTOR ( 'NONE', #584, 1000.000000000000000 ) ;
#762 = PLANE ( 'NONE',  #149 ) ;
#763 = PERSON_AND_ORGANIZATION ( #1185, #953 ) ;
#764 = LINE ( 'NONE', #1203, #97 ) ;
#765 = ORIENTED_EDGE ( 'NONE', *, *, #255, .F. ) ;
#766 = ORIENTED_EDGE ( 'NONE', *, *, #1325, .F. ) ;
#767 = CC_DESIGN_PERSON_AND_ORGANIZATION_ASSIGNMENT ( #1143, #826, ( #1270 ) ) ;
#768 = LINE ( 'NONE', #1306, #1293 ) ;
#769 = ORIENTED_EDGE ( 'NONE', *, *, #335, .T. ) ;
#770 = AXIS2_PLACEMENT_3D ( 'NONE', #952, #412, #735 ) ;
#771 = VECTOR ( 'NONE', #567, 1000.000000000000000 ) ;
#772 = EDGE_CURVE ( 'NONE', #1124, #153, #854, .T. ) ;
#773 = ORIENTED_EDGE ( 'NONE', *, *, #1347, .T. ) ;
#774 = LINE ( 'NONE', #145, #446 ) ;
#775 = CARTESIAN_POINT ( 'NONE',  ( -181.9829999999999757, 1.270000000000000240, 49.91099999999999426 ) ) ;
#776 = LINE ( 'NONE', #346, #578 ) ;
#777 = CARTESIAN_POINT ( 'NONE',  ( 1.769999999999993356, 0.000000000000000000, 49.91099999999999426 ) ) ;
#778 = ORIENTED_EDGE ( 'NONE', *, *, #196, .T. ) ;
#779 = EDGE_CURVE ( 'NONE', #753, #1362, #300, .T. ) ;
#780 = CARTESIAN_POINT ( 'NONE',  ( -181.9829999999999757, 2.269999999999994245, -1.269999999999996909 ) ) ;
#781 = CARTESIAN_POINT ( 'NONE',  ( 0.000000000000000000, 2.270000000000000462, 0.000000000000000000 ) ) ;
#782 = DIRECTION ( 'NONE',  ( 0.000000000000000000, 0.000000000000000000, 1.000000000000000000 ) ) ;
#783 = ADVANCED_FACE ( 'NONE', ( #838 ), #395, .F. ) ;
#784 = VECTOR ( 'NONE', #1122, 1000.000000000000000 ) ;
#785 = ORIENTED_EDGE ( 'NONE', *, *, #157, .F. ) ;
#786 = LINE ( 'NONE', #241, #771 ) ;
#787 = DIRECTION ( 'NONE',  ( 0.000000000000000000, 0.000000000000000000, 1.000000000000000000 ) ) ;
#788 = VECTOR ( 'NONE', #51, 1000.000000000000000 ) ;
#789 = CARTESIAN_POINT ( 'NONE',  ( 12.69999999999998863, -3.000000000000005329, -5.489001214000025719 ) ) ;
#790 = VECTOR ( 'NONE', #891, 1000.000000000000000 ) ;
#791 = VERTEX_POINT ( 'NONE', #502 ) ;
#792 = DIRECTION ( 'NONE',  ( 1.000000000000000000, 0.000000000000000000, -6.103324382627934694E-17 ) ) ;
#793 = CARTESIAN_POINT ( 'NONE',  ( -26.60649999999999338, -12.69999999999999929, 5.820998786000002312 ) ) ;
#794 = ORIENTED_EDGE ( 'NONE', *, *, #1412, .T. ) ;
#795 = VECTOR ( 'NONE', #663, 1000.000000000000000 ) ;
#796 = FACE_OUTER_BOUND ( 'NONE', #696, .T. ) ;
#797 = PLANE ( 'NONE',  #1285 ) ;
#798 = DIRECTION ( 'NONE',  ( 0.000000000000000000, 7.656524645920016286E-18, 1.000000000000000000 ) ) ;
#799 = ORIENTED_EDGE ( 'NONE', *, *, #1282, .F. ) ;
#800 = EDGE_CURVE ( 'NONE', #622, #633, #294, .T. ) ;
#801 = DIRECTION ( 'NONE',  ( 0.000000000000000000, -1.000000000000000000, 0.000000000000000000 ) ) ;
#802 = PLANE ( 'NONE',  #491 ) ;
#803 = VERTEX_POINT ( 'NONE', #740 ) ;
#804 = CARTESIAN_POINT ( 'NONE',  ( 0.000000000000000000, 0.000000000000000000, 49.91099999999999426 ) ) ;
#805 = FACE_OUTER_BOUND ( 'NONE', #81, .T. ) ;
#806 = DIRECTION ( 'NONE',  ( 0.000000000000000000, 0.000000000000000000, 1.000000000000000000 ) ) ;
#807 = ORIENTED_EDGE ( 'NONE', *, *, #1244, .T. ) ;
#808 = ADVANCED_FACE ( 'NONE', ( #732 ), #1061, .F. ) ;
#809 = CARTESIAN_POINT ( 'NONE',  ( -3.810000000000007603, 2.270000000000000462, 27.17000000000003723 ) ) ;
#810 = DIRECTION ( 'NONE',  ( -1.000000000000000000, 0.000000000000000000, 0.000000000000000000 ) ) ;
#811 = ORIENTED_EDGE ( 'NONE', *, *, #308, .F. ) ;
#812 = DIRECTION ( 'NONE',  ( -1.365923996832132842E-16, -0.000000000000000000, -1.000000000000000000 ) ) ;
#813 = FACE_OUTER_BOUND ( 'NONE', #900, .T. ) ;
#814 = APPROVAL ( #878, 'UNSPECIFIED' ) ;
#815 = LINE ( 'NONE', #1011, #1111 ) ;
#816 = VERTEX_POINT ( 'NONE', #1170 ) ;
#817 = CARTESIAN_POINT ( 'NONE',  ( 1.769999999999993356, 1.270000000000000018, 21.58999999999998565 ) ) ;
#818 = ORIENTED_EDGE ( 'NONE', *, *, #1286, .T. ) ;
#819 = ADVANCED_FACE ( 'NONE', ( #958 ), #624, .F. ) ;
#820 = DIRECTION ( 'NONE',  ( -0.000000000000000000, 0.000000000000000000, 1.000000000000000000 ) ) ;
#821 = DIRECTION ( 'NONE',  ( -0.7071067811865492381, -0.000000000000000000, 0.7071067811865457964 ) ) ;
#822 = AXIS2_PLACEMENT_3D ( 'NONE', #482, #489, #707 ) ;
#823 = CIRCLE ( 'NONE', #887, 3.429000000000001602 ) ;
#824 = LINE ( 'NONE', #1257, #223 ) ;
#825 = ORIENTED_EDGE ( 'NONE', *, *, #1074, .F. ) ;
#826 = PERSON_AND_ORGANIZATION_ROLE ( 'design_supplier' ) ;
#827 = CARTESIAN_POINT ( 'NONE',  ( -19.05000000000001137, 2.270000000000000462, -1.770000000000010676 ) ) ;
#828 = EDGE_CURVE ( 'NONE', #140, #1318, #1100, .T. ) ;
#829 = ORIENTED_EDGE ( 'NONE', *, *, #760, .F. ) ;
#830 = FACE_OUTER_BOUND ( 'NONE', #1304, .T. ) ;
#831 = FACE_OUTER_BOUND ( 'NONE', #112, .T. ) ;
#832 = ADVANCED_FACE ( 'NONE', ( #1320 ), #1301, .T. ) ;
#833 = ORIENTED_EDGE ( 'NONE', *, *, #1299, .T. ) ;
#834 = CARTESIAN_POINT ( 'NONE',  ( -155.5829999999999700, 4.445000000000000284, 3.809999999999999165 ) ) ;
#835 = ORIENTED_EDGE ( 'NONE', *, *, #1222, .T. ) ;
#836 = DIRECTION ( 'NONE',  ( 0.000000000000000000, -1.000000000000000000, 0.000000000000000000 ) ) ;
#837 = DIRECTION ( 'NONE',  ( 0.000000000000000000, 0.000000000000000000, 1.000000000000000000 ) ) ;
#838 = FACE_OUTER_BOUND ( 'NONE', #1149, .T. ) ;
#839 = LOCAL_TIME ( 12, 11, 39.00000000000000000, #1041 ) ;
#840 = CC_DESIGN_APPROVAL ( #814, ( #1270 ) ) ;
#841 = ORIENTED_EDGE ( 'NONE', *, *, #108, .T. ) ;
#842 = VECTOR ( 'NONE', #1176, 1000.000000000000000 ) ;
#843 = CARTESIAN_POINT ( 'NONE',  ( -176.4029999999999632, 1.270000000000000018, 49.91099999999999426 ) ) ;
#844 = PLANE ( 'NONE',  #1110 ) ;
#845 = EDGE_CURVE ( 'NONE', #140, #1297, #326, .T. ) ;
#846 = AXIS2_PLACEMENT_3D ( 'NONE', #191, #285, #623 ) ;
#847 = VECTOR ( 'NONE', #1115, 1000.000000000000000 ) ;
#848 = CARTESIAN_POINT ( 'NONE',  ( -181.9829999999999757, 2.270000000000000462, -1.770000000000002016 ) ) ;
#849 = EDGE_CURVE ( 'NONE', #1283, #473, #864, .T. ) ;
#850 = ADVANCED_FACE ( 'NONE', ( #870 ), #1398, .F. ) ;
#851 = ORIENTED_EDGE ( 'NONE', *, *, #7, .F. ) ;
#852 = CARTESIAN_POINT ( 'NONE',  ( -140.9064999999999941, -3.000000000000005329, -5.489001213999997297 ) ) ;
#853 = ADVANCED_FACE ( 'NONE', ( #344 ), #762, .F. ) ;
#854 = LINE ( 'NONE', #943, #38 ) ;
#855 = ORIENTED_EDGE ( 'NONE', *, *, #1031, .F. ) ;
#856 = EDGE_LOOP ( 'NONE', ( #873, #714, #642, #136, #1080, #680, #418, #869, #1135, #818, #127, #1145 ) ) ;
#857 = APPROVAL ( #620, 'UNSPECIFIED' ) ;
#858 = DIRECTION ( 'NONE',  ( 1.000000000000000000, 0.000000000000000000, 0.000000000000000000 ) ) ;
#859 = DIRECTION ( 'NONE',  ( -0.000000000000000000, -0.000000000000000000, 1.000000000000000000 ) ) ;
#860 = VERTEX_POINT ( 'NONE', #103 ) ;
#861 = ORIENTED_EDGE ( 'NONE', *, *, #965, .T. ) ;
#862 = VECTOR ( 'NONE', #1023, 1000.000000000000000 ) ;
#863 = EDGE_CURVE ( 'NONE', #534, #556, #1207, .T. ) ;
#864 = LINE ( 'NONE', #551, #795 ) ;
#865 = VECTOR ( 'NONE', #571, 1000.000000000000000 ) ;
#866 = DIRECTION ( 'NONE',  ( 0.000000000000000000, -0.000000000000000000, 1.000000000000000000 ) ) ;
#867 = ORIENTED_EDGE ( 'NONE', *, *, #503, .T. ) ;
#868 = ORIENTED_EDGE ( 'NONE', *, *, #196, .F. ) ;
#869 = ORIENTED_EDGE ( 'NONE', *, *, #741, .T. ) ;
#870 = FACE_OUTER_BOUND ( 'NONE', #455, .T. ) ;
#871 = APPLICATION_PROTOCOL_DEFINITION ( 'international standard', 'config_control_design', 1994, #35 ) ;
#872 = DIRECTION ( 'NONE',  ( 1.000000000000000000, -0.000000000000000000, -0.000000000000000000 ) ) ;
#873 = ORIENTED_EDGE ( 'NONE', *, *, #1229, .F. ) ;
#874 = PRODUCT_DEFINITION ( 'UNKNOWN', '', #1270, #1279 ) ;
#875 = ORIENTED_EDGE ( 'NONE', *, *, #532, .T. ) ;
#876 = VECTOR ( 'NONE', #298, 1000.000000000000000 ) ;
#877 = DIRECTION ( 'NONE',  ( -1.365923996832132842E-16, -0.000000000000000000, -1.000000000000000000 ) ) ;
#878 = APPROVAL_STATUS ( 'not_yet_approved' ) ;
#879 = ORIENTED_EDGE ( 'NONE', *, *, #34, .F. ) ;
#880 = VERTEX_POINT ( 'NONE', #539 ) ;
#881 = EDGE_CURVE ( 'NONE', #228, #954, #320, .T. ) ;
#882 = DIRECTION ( 'NONE',  ( 0.000000000000000000, 0.000000000000000000, 1.000000000000000000 ) ) ;
#883 = PERSON_AND_ORGANIZATION ( #1185, #953 ) ;
#884 = CARTESIAN_POINT ( 'NONE',  ( 1.769999999999993356, 0.000000000000000000, 0.000000000000000000 ) ) ;
#885 = ADVANCED_FACE ( 'NONE', ( #447 ), #890, .F. ) ;
#886 = VECTOR ( 'NONE', #1415, 1000.000000000000000 ) ;
#887 = AXIS2_PLACEMENT_3D ( 'NONE', #1141, #156, #1030 ) ;
#888 = ORIENTED_EDGE ( 'NONE', *, *, #754, .F. ) ;
#889 = LINE ( 'NONE', #15, #274 ) ;
#890 = PLANE ( 'NONE',  #182 ) ;
#891 = DIRECTION ( 'NONE',  ( 0.000000000000000000, 0.000000000000000000, -1.000000000000000000 ) ) ;
#892 = EDGE_LOOP ( 'NONE', ( #766, #101 ) ) ;
#893 = FACE_BOUND ( 'NONE', #1087, .T. ) ;
#894 = DIRECTION ( 'NONE',  ( -0.000000000000000000, -0.000000000000000000, -1.000000000000000000 ) ) ;
#895 = LINE ( 'NONE', #789, #497 ) ;
#896 = ORIENTED_EDGE ( 'NONE', *, *, #381, .F. ) ;
#897 = CARTESIAN_POINT ( 'NONE',  ( -180.2129999999999939, 4.445000000000000284, -5.489001213999999074 ) ) ;
#898 = CARTESIAN_POINT ( 'NONE',  ( 3.358255390439657262, -14.30999999999988503, 5.820998786000009417 ) ) ;
#899 = ADVANCED_FACE ( 'NONE', ( #649 ), #215, .F. ) ;
#900 = EDGE_LOOP ( 'NONE', ( #1112, #330, #1205, #1391, #37, #1051 ) ) ;
#901 = LINE ( 'NONE', #121, #389 ) ;
#902 = DIRECTION ( 'NONE',  ( -0.7071067811865463515, 0.7071067811865487940, 0.000000000000000000 ) ) ;
#903 = EDGE_CURVE ( 'NONE', #633, #1165, #990, .T. ) ;
#904 = VECTOR ( 'NONE', #836, 1000.000000000000000 ) ;
#905 = CARTESIAN_POINT ( 'NONE',  ( -181.9829999999999757, 1.270000000000000018, 21.58999999999998565 ) ) ;
#906 = VECTOR ( 'NONE', #992, 1000.000000000000000 ) ;
#907 = EDGE_LOOP ( 'NONE', ( #42, #170 ) ) ;
#908 = CARTESIAN_POINT ( 'NONE',  ( -140.9064999999999941, -3.000000000000006217, -5.489001213999997297 ) ) ;
#909 = DIRECTION ( 'NONE',  ( -1.000000000000000000, 0.000000000000000000, 0.000000000000000000 ) ) ;
#910 = VERTEX_POINT ( 'NONE', #436 ) ;
#911 = VECTOR ( 'NONE', #626, 1000.000000000000000 ) ;
#912 = CARTESIAN_POINT ( 'NONE',  ( -12.63649999999999451, 212.9456876847032731, 0.000000000000000000 ) ) ;
#913 = FACE_OUTER_BOUND ( 'NONE', #645, .T. ) ;
#914 = DIRECTION ( 'NONE',  ( 1.000000000000000000, 0.000000000000000000, 0.000000000000000000 ) ) ;
#915 = ORIENTED_EDGE ( 'NONE', *, *, #1214, .F. ) ;
#916 = DIRECTION ( 'NONE',  ( 1.000000000000000000, -0.000000000000000000, -1.349894005516621999E-16 ) ) ;
#917 = DIRECTION ( 'NONE',  ( -0.7071067811865492381, 0.000000000000000000, 0.7071067811865457964 ) ) ;
#918 = ORIENTED_EDGE ( 'NONE', *, *, #903, .F. ) ;
#919 = CC_DESIGN_PERSON_AND_ORGANIZATION_ASSIGNMENT ( #533, #980, ( #874 ) ) ;
#920 = DIRECTION ( 'NONE',  ( -1.000000000000000000, 0.000000000000000000, -0.000000000000000000 ) ) ;
#921 = LINE ( 'NONE', #575, #548 ) ;
#922 = CARTESIAN_POINT ( 'NONE',  ( -39.30649999999998556, 27.26656571201958812, 0.000000000000000000 ) ) ;
#923 = VERTEX_POINT ( 'NONE', #968 ) ;
#924 = CARTESIAN_POINT ( 'NONE',  ( 0.000000000000000000, -14.30999999999987793, 8.820998786000000536 ) ) ;
#925 = EDGE_CURVE ( 'NONE', #1362, #476, #1187, .T. ) ;
#926 = VERTEX_POINT ( 'NONE', #208 ) ;
#927 = PLANE ( 'NONE',  #84 ) ;
#928 = CARTESIAN_POINT ( 'NONE',  ( -13.90649999999998876, 27.26656571201958812, 0.000000000000000000 ) ) ;
#929 = CARTESIAN_POINT ( 'NONE',  ( -31.35649999999996851, -22.25999999999999801, 5.820998786000001424 ) ) ;
#930 = ORIENTED_EDGE ( 'NONE', *, *, #1376, .F. ) ;
#931 = CC_DESIGN_APPROVAL ( #857, ( #1157 ) ) ;
#932 = EDGE_CURVE ( 'NONE', #954, #1338, #768, .T. ) ;
#933 = COORDINATED_UNIVERSAL_TIME_OFFSET ( 5, 0, .BEHIND. ) ;
#934 = AXIS2_PLACEMENT_3D ( 'NONE', #442, #917, #1349 ) ;
#935 = LINE ( 'NONE', #924, #612 ) ;
#936 = ADVANCED_FACE ( 'NONE', ( #95 ), #531, .F. ) ;
#937 = ORIENTED_EDGE ( 'NONE', *, *, #518, .T. ) ;
#938 = CARTESIAN_POINT ( 'NONE',  ( -157.0354999999999848, -12.69999999999997620, 8.820998786000000536 ) ) ;
#939 = CARTESIAN_POINT ( 'NONE',  ( 3.358255390439657262, -3.000000000000005329, -5.489001213999997297 ) ) ;
#940 = VECTOR ( 'NONE', #621, 1000.000000000000000 ) ;
#941 = CIRCLE ( 'NONE', #409, 3.428999999999987836 ) ;
#942 = ORIENTED_EDGE ( 'NONE', *, *, #614, .F. ) ;
#943 = CARTESIAN_POINT ( 'NONE',  ( -26.80825000000004010, -26.80824999999995129, 8.820998786000000536 ) ) ;
#944 = ORIENTED_EDGE ( 'NONE', *, *, #190, .F. ) ;
#945 = CARTESIAN_POINT ( 'NONE',  ( -176.4029999999999632, 1.270000000000000018, 27.17000000000003723 ) ) ;
#946 = CARTESIAN_POINT ( 'NONE',  ( -176.4029999999999632, 2.269999999999994245, 27.17000000000003723 ) ) ;
#947 = CARTESIAN_POINT ( 'NONE',  ( 11.68000000000000504, 1.270000000000000018, 11.67999999999994820 ) ) ;
#948 = ORIENTED_EDGE ( 'NONE', *, *, #209, .F. ) ;
#949 = CARTESIAN_POINT ( 'NONE',  ( 12.69999999999998863, 4.445000000000000284, 49.91100000000001558 ) ) ;
#950 = DIRECTION ( 'NONE',  ( 1.000000000000000000, -0.000000000000000000, -0.000000000000000000 ) ) ;
#951 = EDGE_CURVE ( 'NONE', #439, #438, #224, .T. ) ;
#952 = CARTESIAN_POINT ( 'NONE',  ( -13.90649999999998876, -22.25999999999999801, 51.18100000000000449 ) ) ;
#953 = ORGANIZATION ( 'UNSPECIFIED', 'UNSPECIFIED', '' ) ;
#954 = VERTEX_POINT ( 'NONE', #544 ) ;
#955 = DIRECTION ( 'NONE',  ( 1.000000000000000000, -0.000000000000000000, 0.000000000000000000 ) ) ;
#956 = VECTOR ( 'NONE', #950, 1000.000000000000000 ) ;
#957 = VECTOR ( 'NONE', #253, 1000.000000000000000 ) ;
#958 = FACE_OUTER_BOUND ( 'NONE', #131, .T. ) ;
#959 = PLANE ( 'NONE',  #1400 ) ;
#960 = CARTESIAN_POINT ( 'NONE',  ( -192.9129999999999825, -3.000000000000005329, -5.489001213999997297 ) ) ;
#961 = ORIENTED_EDGE ( 'NONE', *, *, #7, .T. ) ;
#962 = EDGE_CURVE ( 'NONE', #791, #1098, #823, .T. ) ;
#963 = DIRECTION ( 'NONE',  ( 0.000000000000000000, -1.000000000000000000, 0.000000000000000000 ) ) ;
#964 = LINE ( 'NONE', #417, #60 ) ;
#965 = EDGE_CURVE ( 'NONE', #816, #1265, #941, .T. ) ;
#966 = ORIENTED_EDGE ( 'NONE', *, *, #1119, .F. ) ;
#967 = VERTEX_POINT ( 'NONE', #595 ) ;
#968 = CARTESIAN_POINT ( 'NONE',  ( -155.5829999999999700, 2.269999999999994245, 3.809999999999999165 ) ) ;
#969 = VECTOR ( 'NONE', #384, 1000.000000000000000 ) ;
#970 = CARTESIAN_POINT ( 'NONE',  ( -181.9829999999999757, 0.000000000000000000, 49.91099999999999426 ) ) ;
#971 = DIRECTION ( 'NONE',  ( -1.000000000000000000, 0.000000000000000000, 0.000000000000000000 ) ) ;
#972 = EDGE_CURVE ( 'NONE', #107, #753, #352, .T. ) ;
#973 = EDGE_LOOP ( 'NONE', ( #494, #888, #487, #211, #88, #161 ) ) ;
#974 = ORIENTED_EDGE ( 'NONE', *, *, #1375, .T. ) ;
#975 = EDGE_CURVE ( 'NONE', #1318, #556, #139, .T. ) ;
#976 = ORIENTED_EDGE ( 'NONE', *, *, #1401, .F. ) ;
#977 = VECTOR ( 'NONE', #1005, 1000.000000000000000 ) ;
#978 = CARTESIAN_POINT ( 'NONE',  ( -192.9129999999999541, -3.000000000000005329, 215.6505560765380949 ) ) ;
#979 = VECTOR ( 'NONE', #801, 1000.000000000000000 ) ;
#980 = PERSON_AND_ORGANIZATION_ROLE ( 'creator' ) ;
#981 = ORIENTED_EDGE ( 'NONE', *, *, #723, .F. ) ;
#982 = ORIENTED_EDGE ( 'NONE', *, *, #261, .F. ) ;
#983 = ORIENTED_EDGE ( 'NONE', *, *, #754, .T. ) ;
#984 = CARTESIAN_POINT ( 'NONE',  ( 12.69999999999998863, 2.269999999999994245, -5.489001213999997297 ) ) ;
#985 = CARTESIAN_POINT ( 'NONE',  ( -3.810000000000007603, 2.269999999999994245, 27.17000000000003723 ) ) ;
#986 = LINE ( 'NONE', #1091, #1218 ) ;
#987 = ORIENTED_EDGE ( 'NONE', *, *, #318, .T. ) ;
#988 = EDGE_LOOP ( 'NONE', ( #1156, #778, #1245, #1258 ) ) ;
#989 = EDGE_CURVE ( 'NONE', #1055, #342, #815, .T. ) ;
#990 = LINE ( 'NONE', #231, #82 ) ;
#991 =( NAMED_UNIT ( * ) PLANE_ANGLE_UNIT ( ) SI_UNIT ( $, .RADIAN. ) );
#992 = DIRECTION ( 'NONE',  ( 6.122193184454189221E-17, 0.000000000000000000, -1.000000000000000000 ) ) ;
#993 = ORIENTED_EDGE ( 'NONE', *, *, #800, .F. ) ;
#994 = LINE ( 'NONE', #1319, #1366 ) ;
#995 = CARTESIAN_POINT ( 'NONE',  ( -176.4029999999999632, -1.208654451933713058E-15, 51.18099999999999739 ) ) ;
#996 = PLANE ( 'NONE',  #172 ) ;
#997 = DIRECTION ( 'NONE',  ( 0.000000000000000000, -1.000000000000000000, 0.000000000000000000 ) ) ;
#998 = VECTOR ( 'NONE', #1271, 1000.000000000000000 ) ;
#999 = AXIS2_PLACEMENT_3D ( 'NONE', #1337, #124, #914 ) ;
#1000 = EDGE_LOOP ( 'NONE', ( #366, #987, #286, #1142, #254, #1178 ) ) ;
#1001 = DIRECTION ( 'NONE',  ( -1.000000000000000000, -1.369347365245245551E-16, 0.000000000000000000 ) ) ;
#1002 = DIRECTION ( 'NONE',  ( 1.000000000000000000, 0.000000000000000000, 0.000000000000000000 ) ) ;
#1003 = LINE ( 'NONE', #1131, #317 ) ;
#1004 = LINE ( 'NONE', #355, #586 ) ;
#1005 = DIRECTION ( 'NONE',  ( -0.000000000000000000, -1.000000000000000000, -0.000000000000000000 ) ) ;
#1006 = MANIFOLD_SOLID_BREP ( 'Chamfer2', #309 ) ;
#1007 = ADVANCED_FACE ( 'NONE', ( #377 ), #362, .F. ) ;
#1008 = EDGE_LOOP ( 'NONE', ( #739, #323, #942, #245, #47, #415, #1197, #687, #1015, #206, #420, #841, #1120, #382, #607, #528 ) ) ;
#1009 = LINE ( 'NONE', #460, #152 ) ;
#1010 = CARTESIAN_POINT ( 'NONE',  ( -161.1629999999999825, 2.269999999999994245, 3.809999999999999609 ) ) ;
#1011 = CARTESIAN_POINT ( 'NONE',  ( -39.30649999999998556, -3.000000000000005329, -5.489001213999997297 ) ) ;
#1012 = EDGE_LOOP ( 'NONE', ( #1186, #249, #573, #99 ) ) ;
#1013 = DIRECTION ( 'NONE',  ( -0.7071067811865457964, -0.000000000000000000, -0.7071067811865492381 ) ) ;
#1014 = CARTESIAN_POINT ( 'NONE',  ( -23.17749999999998778, -12.69999999999999929, 51.18100000000001160 ) ) ;
#1015 = ORIENTED_EDGE ( 'NONE', *, *, #881, .T. ) ;
#1016 = AXIS2_PLACEMENT_3D ( 'NONE', #1036, #52, #235 ) ;
#1017 = PLANE ( 'NONE',  #1027 ) ;
#1018 = DIRECTION ( 'NONE',  ( 1.000000000000000000, 0.000000000000000000, 0.000000000000000000 ) ) ;
#1019 = APPROVAL_PERSON_ORGANIZATION ( #1377, #857, #179 ) ;
#1020 = CARTESIAN_POINT ( 'NONE',  ( -148.8564999999999543, -22.25999999999999801, 5.820998786000001424 ) ) ;
#1021 = ORIENTED_EDGE ( 'NONE', *, *, #662, .F. ) ;
#1022 = PLANE ( 'NONE',  #1227 ) ;
#1023 = DIRECTION ( 'NONE',  ( 0.000000000000000000, -1.000000000000000000, 0.000000000000000000 ) ) ;
#1024 = CC_DESIGN_PERSON_AND_ORGANIZATION_ASSIGNMENT ( #641, #98, ( #171 ) ) ;
#1025 = ORIENTED_EDGE ( 'NONE', *, *, #972, .F. ) ;
#1026 = AXIS2_PLACEMENT_3D ( 'NONE', #634, #422, #1 ) ;
#1027 = AXIS2_PLACEMENT_3D ( 'NONE', #1212, #128, #549 ) ;
#1028 = DIRECTION ( 'NONE',  ( 0.000000000000000000, 1.000000000000000000, -0.000000000000000000 ) ) ;
#1029 = CARTESIAN_POINT ( 'NONE',  ( -140.9064999999999941, -14.30999999999987793, 5.820998786000001424 ) ) ;
#1030 = DIRECTION ( 'NONE',  ( 1.000000000000000000, 0.000000000000000000, 0.000000000000000000 ) ) ;
#1031 = EDGE_CURVE ( 'NONE', #910, #926, #1003, .T. ) ;
#1032 = ORIENTED_EDGE ( 'NONE', *, *, #1317, .F. ) ;
#1033 = DIRECTION ( 'NONE',  ( 1.000000000000000000, 0.000000000000000000, 0.000000000000000000 ) ) ;
#1034 = ORIENTED_EDGE ( 'NONE', *, *, #499, .F. ) ;
#1035 = LINE ( 'NONE', #277, #697 ) ;
#1036 = CARTESIAN_POINT ( 'NONE',  ( -26.60649999999999338, -12.69999999999999929, 5.820998786000002312 ) ) ;
#1037 = EDGE_CURVE ( 'NONE', #1324, #1370, #262, .T. ) ;
#1038 = CARTESIAN_POINT ( 'NONE',  ( -176.4029999999999632, 0.000000000000000000, 49.91099999999999426 ) ) ;
#1039 = VERTEX_POINT ( 'NONE', #1020 ) ;
#1040 = ADVANCED_FACE ( 'NONE', ( #472 ), #462, .F. ) ;
#1041 = COORDINATED_UNIVERSAL_TIME_OFFSET ( 5, 0, .BEHIND. ) ;
#1042 = CARTESIAN_POINT ( 'NONE',  ( -39.30649999999998556, 27.26656571201958812, 5.820998786000009417 ) ) ;
#1043 = VERTEX_POINT ( 'NONE', #929 ) ;
#1044 = CARTESIAN_POINT ( 'NONE',  ( -3.810000000000035580, 3.106988124944954422E-13, 51.18099999999999739 ) ) ;
#1045 = CARTESIAN_POINT ( 'NONE',  ( -155.5829999999999700, 2.270000000000000462, 3.809999999999999165 ) ) ;
#1046 = ORIENTED_EDGE ( 'NONE', *, *, #308, .T. ) ;
#1047 = APPROVAL_PERSON_ORGANIZATION ( #763, #814, #226 ) ;
#1048 = AXIS2_PLACEMENT_3D ( 'NONE', #138, #22, #269 ) ;
#1049 = VECTOR ( 'NONE', #591, 1000.000000000000000 ) ;
#1050 = CARTESIAN_POINT ( 'NONE',  ( -161.1629999999999825, 4.445000000000000284, 3.809999999999999609 ) ) ;
#1051 = ORIENTED_EDGE ( 'NONE', *, *, #721, .T. ) ;
#1052 = LINE ( 'NONE', #1289, #464 ) ;
#1053 = CARTESIAN_POINT ( 'NONE',  ( -166.3064999999999998, -22.25999999999999801, 51.18100000000000449 ) ) ;
#1054 = VECTOR ( 'NONE', #9, 1000.000000000000000 ) ;
#1055 = VERTEX_POINT ( 'NONE', #270 ) ;
#1056 = DIRECTION ( 'NONE',  ( -1.000000000000000000, 0.000000000000000000, 6.103324382627934694E-17 ) ) ;
#1057 = VERTEX_POINT ( 'NONE', #385 ) ;
#1058 = EDGE_CURVE ( 'NONE', #1417, #100, #23, .T. ) ;
#1059 = CYLINDRICAL_SURFACE ( 'NONE', #529, 3.429000000000001602 ) ;
#1060 = CARTESIAN_POINT ( 'NONE',  ( -39.30649999999998556, -14.30999999999987793, 51.18100000000000449 ) ) ;
#1061 = PLANE ( 'NONE',  #770 ) ;
#1062 = ORIENTED_EDGE ( 'NONE', *, *, #828, .T. ) ;
#1063 = PLANE ( 'NONE',  #846 ) ;
#1064 = PLANE ( 'NONE',  #655 ) ;
#1065 = FACE_OUTER_BOUND ( 'NONE', #212, .T. ) ;
#1066 = FACE_OUTER_BOUND ( 'NONE', #94, .T. ) ;
#1067 = VECTOR ( 'NONE', #1274, 1000.000000000000114 ) ;
#1068 = VECTOR ( 'NONE', #486, 1000.000000000000000 ) ;
#1069 = EDGE_CURVE ( 'NONE', #476, #666, #895, .T. ) ;
#1070 = LINE ( 'NONE', #1181, #1311 ) ;
#1071 = DIRECTION ( 'NONE',  ( 1.000000000000000000, 0.000000000000000000, 0.000000000000000000 ) ) ;
#1072 = VERTEX_POINT ( 'NONE', #1215 ) ;
#1073 = ORIENTED_EDGE ( 'NONE', *, *, #64, .F. ) ;
#1074 = EDGE_CURVE ( 'NONE', #926, #140, #36, .T. ) ;
#1075 = CARTESIAN_POINT ( 'NONE',  ( -39.30649999999998556, -14.30999999999987793, 51.18100000000000449 ) ) ;
#1076 = EDGE_CURVE ( 'NONE', #54, #803, #679, .T. ) ;
#1077 = DIRECTION ( 'NONE',  ( 0.000000000000000000, 0.000000000000000000, 1.000000000000000000 ) ) ;
#1078 = LINE ( 'NONE', #334, #1175 ) ;
#1079 = ORIENTED_EDGE ( 'NONE', *, *, #605, .F. ) ;
#1080 = ORIENTED_EDGE ( 'NONE', *, *, #229, .F. ) ;
#1081 = ORIENTED_EDGE ( 'NONE', *, *, #565, .F. ) ;
#1082 = DIRECTION ( 'NONE',  ( 0.000000000000000000, 0.000000000000000000, 1.000000000000000000 ) ) ;
#1083 = VECTOR ( 'NONE', #902, 1000.000000000000000 ) ;
#1084 = CARTESIAN_POINT ( 'NONE',  ( -3.810000000000007603, 2.269999999999994245, 51.18099999999999739 ) ) ;
#1085 = ORIENTED_EDGE ( 'NONE', *, *, #434, .F. ) ;
#1086 = APPROVAL_PERSON_ORGANIZATION ( #883, #214, #104 ) ;
#1087 = EDGE_LOOP ( 'NONE', ( #325, #374 ) ) ;
#1088 = VECTOR ( 'NONE', #563, 1000.000000000000000 ) ;
#1089 = DIRECTION ( 'NONE',  ( -1.000000000000000000, 0.000000000000000000, 0.000000000000000000 ) ) ;
#1090 = VECTOR ( 'NONE', #1339, 1000.000000000000000 ) ;
#1091 = CARTESIAN_POINT ( 'NONE',  ( 0.000000000000000000, 1.270000000000000018, 49.91100000000001558 ) ) ;
#1092 = EDGE_LOOP ( 'NONE', ( #660, #829, #716 ) ) ;
#1093 = ORIENTED_EDGE ( 'NONE', *, *, #737, .T. ) ;
#1094 = ADVANCED_FACE ( 'NONE', ( #672 ), #1107, .F. ) ;
#1095 = CARTESIAN_POINT ( 'NONE',  ( -12.63649999999999451, 0.000000000000000000, 0.000000000000000000 ) ) ;
#1096 = COORDINATED_UNIVERSAL_TIME_OFFSET ( 5, 0, .BEHIND. ) ;
#1097 = FACE_OUTER_BOUND ( 'NONE', #14, .T. ) ;
#1098 = VERTEX_POINT ( 'NONE', #1345 ) ;
#1099 = CARTESIAN_POINT ( 'NONE',  ( 0.000000000000000000, 1.270000000000000018, 0.000000000000000000 ) ) ;
#1100 = LINE ( 'NONE', #756, #536 ) ;
#1101 = FACE_BOUND ( 'NONE', #1394, .T. ) ;
#1102 = CARTESIAN_POINT ( 'NONE',  ( -153.6065000000000111, -12.69999999999997620, 5.820998786000002312 ) ) ;
#1103 = ORIENTED_EDGE ( 'NONE', *, *, #433, .F. ) ;
#1104 = AXIS2_PLACEMENT_3D ( 'NONE', #884, #909, #782 ) ;
#1105 = DIRECTION ( 'NONE',  ( -0.000000000000000000, -1.000000000000000000, -0.000000000000000000 ) ) ;
#1106 = FACE_OUTER_BOUND ( 'NONE', #498, .T. ) ;
#1107 = PLANE ( 'NONE',  #999 ) ;
#1108 = EDGE_CURVE ( 'NONE', #1098, #791, #41, .T. ) ;
#1109 = DIRECTION ( 'NONE',  ( -1.000000000000000000, 0.000000000000000000, 0.000000000000000000 ) ) ;
#1110 = AXIS2_PLACEMENT_3D ( 'NONE', #719, #955, #194 ) ;
#1111 = VECTOR ( 'NONE', #686, 999.9999999999998863 ) ;
#1112 = ORIENTED_EDGE ( 'NONE', *, *, #1140, .F. ) ;
#1113 = DIRECTION ( 'NONE',  ( 0.000000000000000000, 0.000000000000000000, -1.000000000000000000 ) ) ;
#1114 = DIRECTION ( 'NONE',  ( 0.000000000000000000, -1.000000000000000000, -0.000000000000000000 ) ) ;
#1115 = DIRECTION ( 'NONE',  ( -1.365923996832132842E-16, -0.000000000000000000, -1.000000000000000000 ) ) ;
#1116 = VERTEX_POINT ( 'NONE', #17 ) ;
#1117 = CARTESIAN_POINT ( 'NONE',  ( -12.63649999999999451, 0.000000000000000000, 8.820998786000000536 ) ) ;
#1118 = DIRECTION ( 'NONE',  ( 1.000000000000000000, 0.000000000000000000, 0.000000000000000000 ) ) ;
#1119 = EDGE_CURVE ( 'NONE', #816, #1189, #1328, .T. ) ;
#1120 = ORIENTED_EDGE ( 'NONE', *, *, #381, .T. ) ;
#1121 = DIRECTION ( 'NONE',  ( -1.365923996832132842E-16, -0.000000000000000000, -1.000000000000000000 ) ) ;
#1122 = DIRECTION ( 'NONE',  ( 1.000000000000000000, 0.000000000000000000, -6.103324382627934694E-17 ) ) ;
#1123 = DIRECTION ( 'NONE',  ( 0.000000000000000000, 0.000000000000000000, 1.000000000000000000 ) ) ;
#1124 = VERTEX_POINT ( 'NONE', #130 ) ;
#1125 = LINE ( 'NONE', #698, #444 ) ;
#1126 = CARTESIAN_POINT ( 'NONE',  ( -166.3064999999999998, -22.25999999999999801, 5.820998786000001424 ) ) ;
#1127 = VERTEX_POINT ( 'NONE', #1239 ) ;
#1128 = CARTESIAN_POINT ( 'NONE',  ( -12.63649999999998030, -3.000000000000006217, 8.820998786000000536 ) ) ;
#1129 = LINE ( 'NONE', #155, #1193 ) ;
#1130 = LOCAL_TIME ( 12, 11, 39.00000000000000000, #540 ) ;
#1131 = CARTESIAN_POINT ( 'NONE',  ( -181.9829999999999757, 2.269999999999994245, 21.58999999999998209 ) ) ;
#1132 = ORIENTED_EDGE ( 'NONE', *, *, #561, .T. ) ;
#1133 = CARTESIAN_POINT ( 'NONE',  ( -3.810000000000007603, 1.270000000000000018, 27.17000000000003723 ) ) ;
#1134 = CARTESIAN_POINT ( 'NONE',  ( -12.63649999999999451, -3.000000000000002665, 5.820998786000009417 ) ) ;
#1135 = ORIENTED_EDGE ( 'NONE', *, *, #662, .T. ) ;
#1136 = VECTOR ( 'NONE', #1369, 1000.000000000000000 ) ;
#1137 = AXIS2_PLACEMENT_3D ( 'NONE', #1099, #469, #259 ) ;
#1138 = CARTESIAN_POINT ( 'NONE',  ( -176.4029999999999632, 2.269999999999994245, 51.18099999999999739 ) ) ;
#1139 = LINE ( 'NONE', #594, #1083 ) ;
#1140 = EDGE_CURVE ( 'NONE', #105, #165, #824, .T. ) ;
#1141 = CARTESIAN_POINT ( 'NONE',  ( -26.60649999999999338, -12.69999999999999929, 8.820998786000000536 ) ) ;
#1142 = ORIENTED_EDGE ( 'NONE', *, *, #605, .T. ) ;
#1143 = PERSON_AND_ORGANIZATION ( #1185, #953 ) ;
#1144 = LINE ( 'NONE', #1330, #471 ) ;
#1145 = ORIENTED_EDGE ( 'NONE', *, *, #225, .T. ) ;
#1146 = CARTESIAN_POINT ( 'NONE',  ( -140.9064999999999941, -14.30999999999987793, 51.18100000000000449 ) ) ;
#1147 = DIRECTION ( 'NONE',  ( -1.000000000000000000, 0.000000000000000000, 0.000000000000000000 ) ) ;
#1148 = CARTESIAN_POINT ( 'NONE',  ( -166.3064999999999998, 27.26656571201958812, 0.000000000000000000 ) ) ;
#1149 = EDGE_LOOP ( 'NONE', ( #758, #811, #656, #944 ) ) ;
#1150 = PERSON_AND_ORGANIZATION_ROLE ( 'classification_officer' ) ;
#1151 = LINE ( 'NONE', #1042, #1180 ) ;
#1152 = ORIENTED_EDGE ( 'NONE', *, *, #1244, .F. ) ;
#1153 = CARTESIAN_POINT ( 'NONE',  ( -19.05000000000001137, 1.270000000000000018, -1.770000000000002016 ) ) ;
#1154 = LINE ( 'NONE', #939, #1136 ) ;
#1155 = ADVANCED_FACE ( 'NONE', ( #164 ), #712, .F. ) ;
#1156 = ORIENTED_EDGE ( 'NONE', *, *, #989, .F. ) ;
#1157 = SECURITY_CLASSIFICATION ( '', '', #159 ) ;
#1158 = AXIS2_PLACEMENT_3D ( 'NONE', #555, #580, #237 ) ;
#1159 = CARTESIAN_POINT ( 'NONE',  ( 1.769999999999993356, 0.000000000000000000, 49.91099999999999426 ) ) ;
#1160 = EDGE_CURVE ( 'NONE', #954, #476, #994, .T. ) ;
#1161 = EDGE_LOOP ( 'NONE', ( #1277, #982, #148, #240 ) ) ;
#1162 = DIRECTION ( 'NONE',  ( -1.000000000000000000, 0.000000000000000000, 0.000000000000000000 ) ) ;
#1163 = DIRECTION ( 'NONE',  ( 0.000000000000000000, -1.000000000000000000, -0.000000000000000000 ) ) ;
#1164 = VECTOR ( 'NONE', #746, 1000.000000000000000 ) ;
#1165 = VERTEX_POINT ( 'NONE', #113 ) ;
#1166 = CARTESIAN_POINT ( 'NONE',  ( 0.000000000000000000, 0.000000000000000000, -1.770000000000002016 ) ) ;
#1167 = ADVANCED_FACE ( 'NONE', ( #6, #574, #893 ), #1017, .T. ) ;
#1168 = ORIENTED_EDGE ( 'NONE', *, *, #63, .T. ) ;
#1169 = DIRECTION ( 'NONE',  ( -0.000000000000000000, -0.000000000000000000, -1.000000000000000000 ) ) ;
#1170 = CARTESIAN_POINT ( 'NONE',  ( -150.1775000000000091, -12.69999999999997620, 8.820998786000000536 ) ) ;
#1171 = VERTEX_POINT ( 'NONE', #1326 ) ;
#1172 = LINE ( 'NONE', #852, #426 ) ;
#1173 = EDGE_CURVE ( 'NONE', #736, #534, #901, .T. ) ;
#1174 = DIRECTION ( 'NONE',  ( -6.103324382627934694E-17, 0.000000000000000000, -1.000000000000000000 ) ) ;
#1175 = VECTOR ( 'NONE', #1303, 1000.000000000000000 ) ;
#1176 = DIRECTION ( 'NONE',  ( -0.000000000000000000, -1.000000000000000000, -0.000000000000000000 ) ) ;
#1177 = VERTEX_POINT ( 'NONE', #349 ) ;
#1178 = ORIENTED_EDGE ( 'NONE', *, *, #709, .F. ) ;
#1179 = ADVANCED_FACE ( 'NONE', ( #677 ), #1343, .T. ) ;
#1180 = VECTOR ( 'NONE', #256, 1000.000000000000000 ) ;
#1181 = CARTESIAN_POINT ( 'NONE',  ( -12.63649999999999451, 0.000000000000000000, 51.18099999999999739 ) ) ;
#1182 = LINE ( 'NONE', #291, #1383 ) ;
#1183 = VERTEX_POINT ( 'NONE', #445 ) ;
#1184 = ORIENTED_EDGE ( 'NONE', *, *, #1412, .F. ) ;
#1185 = PERSON ( 'UNSPECIFIED', 'UNSPECIFIED', 'UNSPECIFIED', ('UNSPECIFIED'), ('UNSPECIFIED'), ('UNSPECIFIED') ) ;
#1186 = ORIENTED_EDGE ( 'NONE', *, *, #643, .T. ) ;
#1187 = LINE ( 'NONE', #978, #337 ) ;
#1188 = MECHANICAL_CONTEXT ( 'NONE', #35, 'mechanical' ) ;
#1189 = VERTEX_POINT ( 'NONE', #684 ) ;
#1190 = VERTEX_POINT ( 'NONE', #234 ) ;
#1191 = EDGE_CURVE ( 'NONE', #1039, #1298, #230, .T. ) ;
#1192 = DIRECTION ( 'NONE',  ( 0.000000000000000000, 0.000000000000000000, -1.000000000000000000 ) ) ;
#1193 = VECTOR ( 'NONE', #251, 1000.000000000000000 ) ;
#1194 = DIRECTION ( 'NONE',  ( 0.000000000000000000, -0.7071067811865515695, -0.7071067811865435759 ) ) ;
#1195 = CARTESIAN_POINT ( 'NONE',  ( 12.70000000000001883, -3.000000000000005329, 215.6505560765380665 ) ) ;
#1196 = ADVANCED_FACE ( 'NONE', ( #796 ), #661, .F. ) ;
#1197 = ORIENTED_EDGE ( 'NONE', *, *, #33, .T. ) ;
#1198 = VECTOR ( 'NONE', #375, 1000.000000000000000 ) ;
#1199 = VERTEX_POINT ( 'NONE', #1128 ) ;
#1200 = CIRCLE ( 'NONE', #731, 3.428999999999987836 ) ;
#1201 = DIRECTION ( 'NONE',  ( 0.000000000000000000, 0.000000000000000000, -1.000000000000000000 ) ) ;
#1202 = AXIS2_PLACEMENT_3D ( 'NONE', #912, #920, #367 ) ;
#1203 = CARTESIAN_POINT ( 'NONE',  ( -19.05000000000001137, 1.270000000000000018, -1.770000000000002016 ) ) ;
#1204 = ORIENTED_EDGE ( 'NONE', *, *, #225, .F. ) ;
#1205 = ORIENTED_EDGE ( 'NONE', *, *, #33, .F. ) ;
#1206 = FACE_BOUND ( 'NONE', #907, .T. ) ;
#1207 = LINE ( 'NONE', #995, #1054 ) ;
#1208 = DIRECTION ( 'NONE',  ( 0.000000000000000000, 1.000000000000000000, 0.000000000000000000 ) ) ;
#1209 = ORIENTED_EDGE ( 'NONE', *, *, #1140, .T. ) ;
#1210 = ADVANCED_FACE ( 'NONE', ( #558 ), #31, .F. ) ;
#1211 = VERTEX_POINT ( 'NONE', #1237 ) ;
#1212 = CARTESIAN_POINT ( 'NONE',  ( 0.000000000000000000, 0.000000000000000000, 8.820998786000000536 ) ) ;
#1213 = DIRECTION ( 'NONE',  ( -0.000000000000000000, -1.000000000000000000, -0.000000000000000000 ) ) ;
#1214 = EDGE_CURVE ( 'NONE', #791, #1072, #889, .T. ) ;
#1215 = CARTESIAN_POINT ( 'NONE',  ( -30.03549999999999542, -12.69999999999999929, 5.820998786000002312 ) ) ;
#1216 = CARTESIAN_POINT ( 'NONE',  ( -12.63649999999999451, -3.000000000000002665, 51.18099999999999739 ) ) ;
#1217 = ORIENTED_EDGE ( 'NONE', *, *, #1313, .F. ) ;
#1218 = VECTOR ( 'NONE', #413, 1000.000000000000000 ) ;
#1219 = CARTESIAN_POINT ( 'NONE',  ( -148.8565000000000111, -22.25999999999999801, 51.18100000000000449 ) ) ;
#1220 = DIRECTION ( 'NONE',  ( -0.7071067811865457964, -0.000000000000000000, -0.7071067811865492381 ) ) ;
#1221 = EDGE_CURVE ( 'NONE', #803, #910, #343, .T. ) ;
#1222 = EDGE_CURVE ( 'NONE', #1190, #706, #786, .T. ) ;
#1223 = CARTESIAN_POINT ( 'NONE',  ( -150.1775000000000091, -12.69999999999997620, 51.18100000000002581 ) ) ;
#1224 = ORIENTED_EDGE ( 'NONE', *, *, #561, .F. ) ;
#1225 = CARTESIAN_POINT ( 'NONE',  ( -176.4029999999999632, -1.208654451933713058E-15, 49.91099999999999426 ) ) ;
#1226 = LINE ( 'NONE', #1235, #862 ) ;
#1227 = AXIS2_PLACEMENT_3D ( 'NONE', #897, #141, #39 ) ;
#1228 = ORIENTED_EDGE ( 'NONE', *, *, #600, .F. ) ;
#1229 = EDGE_CURVE ( 'NONE', #1298, #654, #1009, .T. ) ;
#1230 = CARTESIAN_POINT ( 'NONE',  ( -23.17749999999999488, -12.69999999999999929, 5.820998786000002312 ) ) ;
#1231 = CARTESIAN_POINT ( 'NONE',  ( 0.000000000000000000, 0.000000000000000000, 51.18099999999999739 ) ) ;
#1232 = CARTESIAN_POINT ( 'NONE',  ( -3.810000000000007603, 2.269999999999994245, 21.58999999999999631 ) ) ;
#1233 = ORIENTED_EDGE ( 'NONE', *, *, #108, .F. ) ;
#1234 = CARTESIAN_POINT ( 'NONE',  ( 1.769999999999993356, 2.269999999999994245, -1.770000000000002016 ) ) ;
#1235 = CARTESIAN_POINT ( 'NONE',  ( -155.5829999999999700, 4.445000000000000284, 3.809999999999999165 ) ) ;
#1236 = VERTEX_POINT ( 'NONE', #1230 ) ;
#1237 = CARTESIAN_POINT ( 'NONE',  ( -13.90649999999998876, -3.000000000000006217, 5.820998786000009417 ) ) ;
#1238 = FACE_OUTER_BOUND ( 'NONE', #390, .T. ) ;
#1239 = CARTESIAN_POINT ( 'NONE',  ( -161.1629999999999825, 1.270000000000000018, -1.770000000000002016 ) ) ;
#1240 = EDGE_LOOP ( 'NONE', ( #752, #348, #1085 ) ) ;
#1241 = ADVANCED_FACE ( 'NONE', ( #250 ), #137, .T. ) ;
#1242 = CARTESIAN_POINT ( 'NONE',  ( -155.5829999999999700, 1.270000000000000018, 3.809999999999999165 ) ) ;
#1243 = CARTESIAN_POINT ( 'NONE',  ( -24.63000000000004164, 4.445000000000000284, 3.809999999999991172 ) ) ;
#1244 = EDGE_CURVE ( 'NONE', #1362, #1338, #774, .T. ) ;
#1245 = ORIENTED_EDGE ( 'NONE', *, *, #434, .T. ) ;
#1246 = DIRECTION ( 'NONE',  ( 1.000000000000000000, 0.000000000000000000, -0.000000000000000000 ) ) ;
#1247 = LINE ( 'NONE', #1359, #1396 ) ;
#1248 = DIRECTION ( 'NONE',  ( 0.7071067811865487940, 0.7071067811865462405, 0.000000000000000000 ) ) ;
#1249 = ORIENTED_EDGE ( 'NONE', *, *, #1401, .T. ) ;
#1250 = ADVANCED_FACE ( 'NONE', ( #44, #1206 ), #927, .F. ) ;
#1251 = LINE ( 'NONE', #1117, #1253 ) ;
#1252 = ORIENTED_EDGE ( 'NONE', *, *, #1119, .T. ) ;
#1253 = VECTOR ( 'NONE', #465, 1000.000000000000000 ) ;
#1254 = AXIS2_PLACEMENT_3D ( 'NONE', #949, #1162, #1077 ) ;
#1255 = LINE ( 'NONE', #749, #904 ) ;
#1256 = FACE_OUTER_BOUND ( 'NONE', #1000, .T. ) ;
#1257 = CARTESIAN_POINT ( 'NONE',  ( 12.69999999999998863, -3.000000000000002665, 51.18099999999999739 ) ) ;
#1258 = ORIENTED_EDGE ( 'NONE', *, *, #550, .F. ) ;
#1259 = DIRECTION ( 'NONE',  ( -0.000000000000000000, -1.000000000000000000, -0.000000000000000000 ) ) ;
#1260 = CC_DESIGN_DATE_AND_TIME_ASSIGNMENT ( #597, #1355, ( #1157 ) ) ;
#1261 = ORIENTED_EDGE ( 'NONE', *, *, #1173, .F. ) ;
#1262 = CARTESIAN_POINT ( 'NONE',  ( -148.8565000000000111, -22.25999999999999801, 8.820998786000000536 ) ) ;
#1263 = CARTESIAN_POINT ( 'NONE',  ( 0.000000000000000000, 1.270000000000000018, 0.000000000000000000 ) ) ;
#1264 = ADVANCED_FACE ( 'NONE', ( #830 ), #1358, .F. ) ;
#1265 = VERTEX_POINT ( 'NONE', #938 ) ;
#1266 = CARTESIAN_POINT ( 'NONE',  ( -167.5764999999999816, 212.9456876847032731, 0.000000000000000000 ) ) ;
#1267 = EDGE_LOOP ( 'NONE', ( #638, #1364, #427, #915 ) ) ;
#1268 = DIRECTION ( 'NONE',  ( -0.7071067811865463515, -0.7071067811865487940, -0.000000000000000000 ) ) ;
#1269 = DIRECTION ( 'NONE',  ( 1.000000000000000000, 0.000000000000000000, 0.000000000000000000 ) ) ;
#1270 = PRODUCT_DEFINITION_FORMATION_WITH_SPECIFIED_SOURCE ( 'ANY', '', #171, .NOT_KNOWN. ) ;
#1271 = DIRECTION ( 'NONE',  ( -1.000000000000000000, 0.000000000000000000, 0.000000000000000000 ) ) ;
#1272 = VERTEX_POINT ( 'NONE', #1044 ) ;
#1273 = VECTOR ( 'NONE', #74, 1000.000000000000000 ) ;
#1274 = DIRECTION ( 'NONE',  ( -0.7071067811865457964, -0.000000000000000000, -0.7071067811865492381 ) ) ;
#1275 = VECTOR ( 'NONE', #1147, 1000.000000000000000 ) ;
#1276 = LINE ( 'NONE', #85, #1365 ) ;
#1277 = ORIENTED_EDGE ( 'NONE', *, *, #627, .F. ) ;
#1278 = EDGE_CURVE ( 'NONE', #1211, #1116, #204, .T. ) ;
#1279 = DESIGN_CONTEXT ( 'detailed design', #717, 'design' ) ;
#1280 = LINE ( 'NONE', #730, #876 ) ;
#1281 = CARTESIAN_POINT ( 'NONE',  ( -3.810000000000007603, 4.445000000000000284, 27.17000000000003723 ) ) ;
#1282 = EDGE_CURVE ( 'NONE', #451, #1177, #1182, .T. ) ;
#1283 = VERTEX_POINT ( 'NONE', #945 ) ;
#1284 = ORIENTED_EDGE ( 'NONE', *, *, #1278, .T. ) ;
#1285 = AXIS2_PLACEMENT_3D ( 'NONE', #1231, #669, #1002 ) ;
#1286 = EDGE_CURVE ( 'NONE', #1057, #107, #1255, .T. ) ;
#1287 = ORIENTED_EDGE ( 'NONE', *, *, #550, .T. ) ;
#1288 = LINE ( 'NONE', #604, #495 ) ;
#1289 = CARTESIAN_POINT ( 'NONE',  ( 1.769999999999993356, 1.270000000000000240, 49.91099999999999426 ) ) ;
#1290 = CARTESIAN_POINT ( 'NONE',  ( -140.9064999999999941, -14.30999999999987793, 8.820998785999996983 ) ) ;
#1291 = ORIENTED_EDGE ( 'NONE', *, *, #202, .T. ) ;
#1292 = ORIENTED_EDGE ( 'NONE', *, *, #92, .F. ) ;
#1293 = VECTOR ( 'NONE', #1082, 1000.000000000000000 ) ;
#1294 = DIRECTION ( 'NONE',  ( 0.000000000000000000, 1.000000000000000000, -0.000000000000000000 ) ) ;
#1295 =( LENGTH_UNIT ( ) NAMED_UNIT ( * ) SI_UNIT ( .MILLI., .METRE. ) );
#1296 = LINE ( 'NONE', #305, #842 ) ;
#1297 = VERTEX_POINT ( 'NONE', #970 ) ;
#1298 = VERTEX_POINT ( 'NONE', #1262 ) ;
#1299 = EDGE_CURVE ( 'NONE', #1183, #1116, #1035, .T. ) ;
#1300 = ADVANCED_BREP_SHAPE_REPRESENTATION ( 'X-axis Way Cover Bed Side', ( #1006, #510 ), #1399 ) ;
#1301 = PLANE ( 'NONE',  #1026 ) ;
#1302 = DATE_AND_TIME ( #3, #647 ) ;
#1303 = DIRECTION ( 'NONE',  ( 1.000000000000000000, 0.000000000000000000, 0.000000000000000000 ) ) ;
#1304 = EDGE_LOOP ( 'NONE', ( #930, #577, #744, #785 ) ) ;
#1305 = ORIENTED_EDGE ( 'NONE', *, *, #828, .F. ) ;
#1306 = CARTESIAN_POINT ( 'NONE',  ( -192.9129999999999825, 2.269999999999994245, -5.489001213999997297 ) ) ;
#1307 = AXIS2_PLACEMENT_3D ( 'NONE', #260, #485, #1018 ) ;
#1308 = FACE_OUTER_BOUND ( 'NONE', #24, .T. ) ;
#1309 = ORIENTED_EDGE ( 'NONE', *, *, #13, .T. ) ;
#1310 = ORIENTED_EDGE ( 'NONE', *, *, #1375, .F. ) ;
#1311 = VECTOR ( 'NONE', #963, 1000.000000000000000 ) ;
#1312 = DIRECTION ( 'NONE',  ( 0.000000000000000000, -1.000000000000000000, 0.000000000000000000 ) ) ;
#1313 = EDGE_CURVE ( 'NONE', #1338, #1332, #729, .T. ) ;
#1314 = AXIS2_PLACEMENT_3D ( 'NONE', #922, #1361, #1353 ) ;
#1315 = CARTESIAN_POINT ( 'NONE',  ( -3.810000000000007603, 1.270000000000000240, 49.91099999999999426 ) ) ;
#1316 = CARTESIAN_POINT ( 'NONE',  ( -140.9064999999999941, 27.26656571201958812, 0.000000000000000000 ) ) ;
#1317 = EDGE_CURVE ( 'NONE', #393, #633, #1052, .T. ) ;
#1318 = VERTEX_POINT ( 'NONE', #843 ) ;
#1319 = CARTESIAN_POINT ( 'NONE',  ( -192.9129999999999825, 4.445000000000000284, -5.489001213999997297 ) ) ;
#1320 = FACE_OUTER_BOUND ( 'NONE', #973, .T. ) ;
#1321 = ADVANCED_FACE ( 'NONE', ( #183 ), #1059, .F. ) ;
#1322 = APPROVAL_DATE_TIME ( #1302, #214 ) ;
#1323 = DIRECTION ( 'NONE',  ( -0.000000000000000000, 0.000000000000000000, -1.000000000000000000 ) ) ;
#1324 = VERTEX_POINT ( 'NONE', #268 ) ;
#1325 = EDGE_CURVE ( 'NONE', #1265, #816, #96, .T. ) ;
#1326 = CARTESIAN_POINT ( 'NONE',  ( 12.69999999999998863, -3.000000000000005329, -5.489001214000025719 ) ) ;
#1327 = DIRECTION ( 'NONE',  ( -1.000000000000000000, 0.000000000000000000, 0.000000000000000000 ) ) ;
#1328 = LINE ( 'NONE', #1223, #847 ) ;
#1329 = EDGE_LOOP ( 'NONE', ( #316, #1357, #424, #185 ) ) ;
#1330 = CARTESIAN_POINT ( 'NONE',  ( -161.1629999999999825, 1.270000000000000018, 3.809999999999999609 ) ) ;
#1331 = CARTESIAN_POINT ( 'NONE',  ( -166.3064999999999998, 27.26656571201958812, 8.820998786000000536 ) ) ;
#1332 = VERTEX_POINT ( 'NONE', #1138 ) ;
#1333 = VECTOR ( 'NONE', #383, 1000.000000000000000 ) ;
#1334 = VECTOR ( 'NONE', #872, 1000.000000000000000 ) ;
#1335 = DIRECTION ( 'NONE',  ( 1.000000000000000000, 0.000000000000000000, 0.000000000000000000 ) ) ;
#1336 = CARTESIAN_POINT ( 'NONE',  ( -161.1629999999999825, 1.270000000000000018, -1.770000000000002016 ) ) ;
#1337 = CARTESIAN_POINT ( 'NONE',  ( 0.000000000000000000, 0.000000000000000000, 49.91099999999999426 ) ) ;
#1338 = VERTEX_POINT ( 'NONE', #72 ) ;
#1339 = DIRECTION ( 'NONE',  ( -0.7071067811865457964, -0.000000000000000000, 0.7071067811865492381 ) ) ;
#1340 = CARTESIAN_POINT ( 'NONE',  ( -140.9064999999999941, -3.000000000000006217, 5.820998786000009417 ) ) ;
#1341 = AXIS2_PLACEMENT_3D ( 'NONE', #331, #1408, #1201 ) ;
#1342 = ORIENTED_EDGE ( 'NONE', *, *, #335, .F. ) ;
#1343 = PLANE ( 'NONE',  #1202 ) ;
#1344 = PLANE ( 'NONE',  #1048 ) ;
#1345 = CARTESIAN_POINT ( 'NONE',  ( -23.17749999999999488, -12.69999999999999929, 8.820998786000000536 ) ) ;
#1346 = ORIENTED_EDGE ( 'NONE', *, *, #644, .F. ) ;
#1347 = EDGE_CURVE ( 'NONE', #1165, #880, #718, .T. ) ;
#1348 = DIRECTION ( 'NONE',  ( -1.000000000000000000, 0.000000000000000000, 0.000000000000000000 ) ) ;
#1349 = DIRECTION ( 'NONE',  ( 0.000000000000000000, -1.000000000000000000, 0.000000000000000000 ) ) ;
#1350 = ORIENTED_EDGE ( 'NONE', *, *, #34, .T. ) ;
#1351 = DIRECTION ( 'NONE',  ( -1.365923996832132842E-16, -0.000000000000000000, -1.000000000000000000 ) ) ;
#1352 = CARTESIAN_POINT ( 'NONE',  ( -181.9830000000000041, 2.270000000000000462, 21.58999999999998209 ) ) ;
#1353 = DIRECTION ( 'NONE',  ( 0.000000000000000000, 0.000000000000000000, 1.000000000000000000 ) ) ;
#1354 = ORIENTED_EDGE ( 'NONE', *, *, #373, .T. ) ;
#1355 = DATE_TIME_ROLE ( 'classification_date' ) ;
#1356 = CARTESIAN_POINT ( 'NONE',  ( -153.6065000000000111, -12.69999999999997620, 5.820998786000002312 ) ) ;
#1357 = ORIENTED_EDGE ( 'NONE', *, *, #721, .F. ) ;
#1358 = PLANE ( 'NONE',  #1254 ) ;
#1359 = CARTESIAN_POINT ( 'NONE',  ( -140.9064999999999941, 27.26656571201958812, 5.820998786000009417 ) ) ;
#1360 = CIRCLE ( 'NONE', #176, 3.428999999999987836 ) ;
#1361 = DIRECTION ( 'NONE',  ( -1.000000000000000000, 0.000000000000000000, 0.000000000000000000 ) ) ;
#1362 = VERTEX_POINT ( 'NONE', #397 ) ;
#1363 = LINE ( 'NONE', #1234, #361 ) ;
#1364 = ORIENTED_EDGE ( 'NONE', *, *, #255, .T. ) ;
#1365 = VECTOR ( 'NONE', #628, 1000.000000000000000 ) ;
#1366 = VECTOR ( 'NONE', #1105, 1000.000000000000000 ) ;
#1367 = EDGE_CURVE ( 'NONE', #153, #1043, #484, .T. ) ;
#1368 = LINE ( 'NONE', #391, #290 ) ;
#1369 = DIRECTION ( 'NONE',  ( -1.000000000000000000, 0.000000000000000000, 0.000000000000000000 ) ) ;
#1370 = VERTEX_POINT ( 'NONE', #1153 ) ;
#1371 = DIRECTION ( 'NONE',  ( 0.7071067811865463515, -0.7071067811865487940, -0.000000000000000000 ) ) ;
#1372 = ORIENTED_EDGE ( 'NONE', *, *, #1325, .T. ) ;
#1373 = DIRECTION ( 'NONE',  ( 0.000000000000000000, 0.000000000000000000, 1.000000000000000000 ) ) ;
#1374 = LINE ( 'NONE', #517, #1275 ) ;
#1375 = EDGE_CURVE ( 'NONE', #87, #378, #405, .T. ) ;
#1376 = EDGE_CURVE ( 'NONE', #105, #860, #601, .T. ) ;
#1377 = PERSON_AND_ORGANIZATION ( #1185, #953 ) ;
#1378 = CARTESIAN_POINT ( 'NONE',  ( 12.70000000000001883, -3.000000000000005329, 215.6505560765380665 ) ) ;
#1379 = ORIENTED_EDGE ( 'NONE', *, *, #295, .T. ) ;
#1380 = DIRECTION ( 'NONE',  ( 0.000000000000000000, -7.656524645920016286E-18, -1.000000000000000000 ) ) ;
#1381 = CARTESIAN_POINT ( 'NONE',  ( 0.000000000000000000, -3.000000000000006217, 5.820998786000009417 ) ) ;
#1382 = CC_DESIGN_SECURITY_CLASSIFICATION ( #1157, ( #1270 ) ) ;
#1383 = VECTOR ( 'NONE', #820, 1000.000000000000000 ) ;
#1384 = LINE ( 'NONE', #70, #315 ) ;
#1385 = ORIENTED_EDGE ( 'NONE', *, *, #373, .F. ) ;
#1386 = VECTOR ( 'NONE', #1389, 1000.000000000000000 ) ;
#1387 = PLANE ( 'NONE',  #102 ) ;
#1388 = AXIS2_PLACEMENT_3D ( 'NONE', #477, #1121, #693 ) ;
#1389 = DIRECTION ( 'NONE',  ( 0.7071067811865457964, -0.000000000000000000, -0.7071067811865492381 ) ) ;
#1390 = EDGE_CURVE ( 'NONE', #378, #1039, #1368, .T. ) ;
#1391 = ORIENTED_EDGE ( 'NONE', *, *, #709, .T. ) ;
#1392 = DIRECTION ( 'NONE',  ( 0.7071067811865463515, 0.7071067811865487940, -0.000000000000000000 ) ) ;
#1393 = PLANE ( 'NONE',  #629 ) ;
#1394 = EDGE_LOOP ( 'NONE', ( #458, #93 ) ) ;
#1395 = ORIENTED_EDGE ( 'NONE', *, *, #1286, .F. ) ;
#1396 = VECTOR ( 'NONE', #1213, 1000.000000000000000 ) ;
#1397 = ORIENTED_EDGE ( 'NONE', *, *, #688, .F. ) ;
#1398 = CYLINDRICAL_SURFACE ( 'NONE', #243, 3.429000000000001602 ) ;
#1399 =( GEOMETRIC_REPRESENTATION_CONTEXT ( 3 ) GLOBAL_UNCERTAINTY_ASSIGNED_CONTEXT ( ( #728 ) ) GLOBAL_UNIT_ASSIGNED_CONTEXT ( ( #1295, #991, #423 ) ) REPRESENTATION_CONTEXT ( 'NONE', 'WORKASPACE' ) );
#1400 = AXIS2_PLACEMENT_3D ( 'NONE', #1195, #651, #197 ) ;
#1401 = EDGE_CURVE ( 'NONE', #1318, #1283, #173, .T. ) ;
#1402 = DIRECTION ( 'NONE',  ( -1.000000000000000000, 0.000000000000000000, 0.000000000000000000 ) ) ;
#1403 = CARTESIAN_POINT ( 'NONE',  ( 1.769999999999993356, 0.000000000000000000, -1.269999999999996909 ) ) ;
#1404 = EDGE_LOOP ( 'NONE', ( #1062, #61, #769, #263 ) ) ;
#1405 = VERTEX_POINT ( 'NONE', #1315 ) ;
#1406 = ADVANCED_FACE ( 'NONE', ( #1101, #1308 ), #340, .F. ) ;
#1407 = AXIS2_PLACEMENT_3D ( 'NONE', #834, #513, #613 ) ;
#1408 = DIRECTION ( 'NONE',  ( 1.000000000000000000, -0.000000000000000000, 0.000000000000000000 ) ) ;
#1409 = CALENDAR_DATE ( 2026, 26, 5 ) ;
#1410 = PLANE ( 'NONE',  #727 ) ;
#1411 = VERTEX_POINT ( 'NONE', #441 ) ;
#1412 = EDGE_CURVE ( 'NONE', #733, #967, #776, .T. ) ;
#1413 = ORIENTED_EDGE ( 'NONE', *, *, #760, .T. ) ;
#1414 = ORIENTED_EDGE ( 'NONE', *, *, #56, .T. ) ;
#1415 = DIRECTION ( 'NONE',  ( -1.000000000000000000, 0.000000000000000000, 0.000000000000000000 ) ) ;
#1416 = DATE_AND_TIME ( #1409, #1130 ) ;
#1417 = VERTEX_POINT ( 'NONE', #985 ) ;
#1418 = ORIENTED_EDGE ( 'NONE', *, *, #252, .T. ) ;
#1419 = ADVANCED_FACE ( 'NONE', ( #545 ), #996, .T. ) ;
#1420 = ORIENTED_EDGE ( 'NONE', *, *, #1069, .T. ) ;
ENDSEC;
END-ISO-10303-21;
