ISO-10303-21;
HEADER;
FILE_DESCRIPTION (( 'STEP AP203' ),
    '1' );
FILE_NAME ('X-axis Way Cover Mount.STEP',
    '2026-05-26T16:13:01',
    ( '' ),
    ( '' ),
    'SwSTEP 2.0',
    'SolidWorks 2025',
    '' );
FILE_SCHEMA (( 'CONFIG_CONTROL_DESIGN' ));
ENDSEC;

DATA;
#1 = ORIENTED_EDGE ( 'NONE', *, *, #463, .T. ) ;
#2 = CARTESIAN_POINT ( 'NONE',  ( -0.2499999999999997224, -1.200787402598424869, 1.870078740157480324 ) ) ;
#3 = DIRECTION ( 'NONE',  ( -0.000000000000000000, -1.000000000000000000, -0.000000000000000000 ) ) ;
#4 = EDGE_CURVE ( 'NONE', #363, #197, #171, .T. ) ;
#5 = DIRECTION ( 'NONE',  ( 0.000000000000000000, 0.000000000000000000, 1.000000000000000000 ) ) ;
#6 = AXIS2_PLACEMENT_3D ( 'NONE', #653, #85, #297 ) ;
#7 = FACE_OUTER_BOUND ( 'NONE', #209, .T. ) ;
#8 = ADVANCED_FACE ( 'NONE', ( #283 ), #239, .F. ) ;
#9 = FACE_BOUND ( 'NONE', #550, .T. ) ;
#10 = DESIGN_CONTEXT ( 'detailed design', #147, 'design' ) ;
#11 = EDGE_CURVE ( 'NONE', #145, #412, #18, .T. ) ;
#12 = VERTEX_POINT ( 'NONE', #289 ) ;
#13 = VECTOR ( 'NONE', #523, 39.37007874015748143 ) ;
#14 = DIRECTION ( 'NONE',  ( 1.224646799147353207E-16, 0.000000000000000000, 1.000000000000000000 ) ) ;
#15 = LOCAL_TIME ( 12, 13, 1.000000000000000000, #212 ) ;
#16 = ORIENTED_EDGE ( 'NONE', *, *, #366, .F. ) ;
#17 = CARTESIAN_POINT ( 'NONE',  ( -1.000000000000000000, 0.5000000000000000000, 2.112204724409448620 ) ) ;
#18 = LINE ( 'NONE', #123, #510 ) ;
#19 = CIRCLE ( 'NONE', #422, 0.1377952755905512972 ) ;
#20 = EDGE_LOOP ( 'NONE', ( #244, #495, #137, #361, #16, #124 ) ) ;
#21 = DIRECTION ( 'NONE',  ( 0.000000000000000000, -1.000000000000000000, 0.000000000000000000 ) ) ;
#22 = EDGE_CURVE ( 'NONE', #393, #307, #541, .T. ) ;
#23 = CARTESIAN_POINT ( 'NONE',  ( -0.8750000000000001110, 0.5000000000000000000, 2.064102362204724095 ) ) ;
#24 = VERTEX_POINT ( 'NONE', #492 ) ;
#25 = DIRECTION ( 'NONE',  ( -0.000000000000000000, -1.000000000000000000, 0.000000000000000000 ) ) ;
#26 = ORIENTED_EDGE ( 'NONE', *, *, #534, .T. ) ;
#27 = CARTESIAN_POINT ( 'NONE',  ( -1.000000000000000000, 0.000000000000000000, 2.362204724409448620 ) ) ;
#28 = CARTESIAN_POINT ( 'NONE',  ( -0.2499999999999997224, -1.200787402598424869, 0.4921259842519684069 ) ) ;
#29 = ORIENTED_EDGE ( 'NONE', *, *, #467, .F. ) ;
#30 = LINE ( 'NONE', #655, #329 ) ;
#31 = VERTEX_POINT ( 'NONE', #335 ) ;
#32 = FACE_OUTER_BOUND ( 'NONE', #42, .T. ) ;
#33 = CARTESIAN_POINT ( 'NONE',  ( 0.000000000000000000, 0.5000000000000000000, 2.362204724409448620 ) ) ;
#34 = EDGE_LOOP ( 'NONE', ( #83, #354 ) ) ;
#35 = VECTOR ( 'NONE', #5, 39.37007874015748143 ) ;
#36 = CIRCLE ( 'NONE', #6, 0.1377952755905511584 ) ;
#37 = DIRECTION ( 'NONE',  ( 0.000000000000000000, 0.000000000000000000, -1.000000000000000000 ) ) ;
#38 = CIRCLE ( 'NONE', #392, 0.1377952755905512972 ) ;
#39 = DIRECTION ( 'NONE',  ( 0.000000000000000000, 0.000000000000000000, -1.000000000000000000 ) ) ;
#40 = ORIENTED_EDGE ( 'NONE', *, *, #11, .F. ) ;
#41 = EDGE_CURVE ( 'NONE', #12, #122, #64, .T. ) ;
#42 = EDGE_LOOP ( 'NONE', ( #383, #90, #185, #227 ) ) ;
#43 = DIRECTION ( 'NONE',  ( 0.000000000000000000, -1.000000000000000000, 0.000000000000000000 ) ) ;
#44 = ORIENTED_EDGE ( 'NONE', *, *, #118, .F. ) ;
#45 = VERTEX_POINT ( 'NONE', #230 ) ;
#46 = APPROVAL_STATUS ( 'not_yet_approved' ) ;
#47 = FACE_OUTER_BOUND ( 'NONE', #601, .T. ) ;
#48 = DIRECTION ( 'NONE',  ( 1.000000000000000000, 0.000000000000000000, 0.000000000000000000 ) ) ;
#49 = AXIS2_PLACEMENT_3D ( 'NONE', #320, #526, #528 ) ;
#50 = PRODUCT_DEFINITION ( 'UNKNOWN', '', #573, #10 ) ;
#51 = CARTESIAN_POINT ( 'NONE',  ( -1.000000000000000000, 0.5000000000000000000, 2.041077998578921909E-17 ) ) ;
#52 = PERSON_AND_ORGANIZATION ( #153, #101 ) ;
#53 = ADVANCED_BREP_SHAPE_REPRESENTATION ( 'X-axis Way Cover Mount', ( #477, #531 ), #453 ) ;
#54 = CIRCLE ( 'NONE', #415, 0.1377952755905511584 ) ;
#55 = DIRECTION ( 'NONE',  ( 0.000000000000000000, 0.000000000000000000, 1.000000000000000000 ) ) ;
#56 = DIRECTION ( 'NONE',  ( -1.000000000000000000, 0.000000000000000000, 0.000000000000000000 ) ) ;
#57 = AXIS2_PLACEMENT_3D ( 'NONE', #28, #134, #184 ) ;
#58 = ORIENTED_EDGE ( 'NONE', *, *, #22, .F. ) ;
#59 = LINE ( 'NONE', #221, #208 ) ;
#60 = CC_DESIGN_PERSON_AND_ORGANIZATION_ASSIGNMENT ( #475, #621, ( #50 ) ) ;
#61 = ORIENTED_EDGE ( 'NONE', *, *, #594, .F. ) ;
#62 = PLANE ( 'NONE',  #636 ) ;
#63 = CARTESIAN_POINT ( 'NONE',  ( -0.8750000000000001110, 0.5000000000000000000, 0.2981023622047244692 ) ) ;
#64 = CIRCLE ( 'NONE', #457, 0.1329999999999999238 ) ;
#65 = EDGE_CURVE ( 'NONE', #170, #393, #286, .T. ) ;
#66 = VECTOR ( 'NONE', #462, 39.37007874015748143 ) ;
#67 = DIRECTION ( 'NONE',  ( 0.000000000000000000, 0.000000000000000000, -1.000000000000000000 ) ) ;
#68 = LINE ( 'NONE', #284, #359 ) ;
#69 = AXIS2_PLACEMENT_3D ( 'NONE', #189, #240, #79 ) ;
#70 = FACE_BOUND ( 'NONE', #656, .T. ) ;
#71 = ORIENTED_EDGE ( 'NONE', *, *, #603, .T. ) ;
#72 = EDGE_CURVE ( 'NONE', #333, #307, #494, .T. ) ;
#73 = ORIENTED_EDGE ( 'NONE', *, *, #538, .T. ) ;
#74 = LINE ( 'NONE', #488, #480 ) ;
#75 = ORIENTED_EDGE ( 'NONE', *, *, #72, .T. ) ;
#76 = LENGTH_MEASURE_WITH_UNIT ( LENGTH_MEASURE( 0.02539999999999999897 ), #236 );
#77 = CARTESIAN_POINT ( 'NONE',  ( 0.000000000000000000, -1.594488189999999861, 0.000000000000000000 ) ) ;
#78 = ORIENTED_EDGE ( 'NONE', *, *, #481, .T. ) ;
#79 = DIRECTION ( 'NONE',  ( 0.000000000000000000, 0.000000000000000000, -1.000000000000000000 ) ) ;
#80 = EDGE_CURVE ( 'NONE', #519, #586, #386, .T. ) ;
#81 = LINE ( 'NONE', #125, #105 ) ;
#82 = DIRECTION ( 'NONE',  ( 0.000000000000000000, 0.000000000000000000, 1.000000000000000000 ) ) ;
#83 = ORIENTED_EDGE ( 'NONE', *, *, #293, .T. ) ;
#84 = CARTESIAN_POINT ( 'NONE',  ( -0.8750000000000001110, 0.5000000000000000000, 0.5641023622047244279 ) ) ;
#85 = DIRECTION ( 'NONE',  ( 0.000000000000000000, -1.000000000000000000, 0.000000000000000000 ) ) ;
#86 = EDGE_LOOP ( 'NONE', ( #242, #113, #100, #231 ) ) ;
#87 = CARTESIAN_POINT ( 'NONE',  ( -0.2499999999999997224, -1.594488189999999861, 1.732283464566929165 ) ) ;
#88 = ORIENTED_EDGE ( 'NONE', *, *, #403, .T. ) ;
#89 = ORIENTED_EDGE ( 'NONE', *, *, #263, .T. ) ;
#90 = ORIENTED_EDGE ( 'NONE', *, *, #397, .T. ) ;
#91 = EDGE_CURVE ( 'NONE', #116, #188, #384, .T. ) ;
#92 = DIRECTION ( 'NONE',  ( 0.000000000000000000, -1.000000000000000000, 0.000000000000000000 ) ) ;
#93 = AXIS2_PLACEMENT_3D ( 'NONE', #279, #543, #437 ) ;
#94 = CIRCLE ( 'NONE', #369, 0.1377952755905512972 ) ;
#95 = CARTESIAN_POINT ( 'NONE',  ( -1.250000000000000000, 0.5000000000000000000, 0.000000000000000000 ) ) ;
#96 = AXIS2_PLACEMENT_3D ( 'NONE', #95, #201, #37 ) ;
#97 = LINE ( 'NONE', #607, #604 ) ;
#98 = CALENDAR_DATE ( 2026, 26, 5 ) ;
#99 = LINE ( 'NONE', #312, #13 ) ;
#100 = ORIENTED_EDGE ( 'NONE', *, *, #22, .T. ) ;
#101 = ORGANIZATION ( 'UNSPECIFIED', 'UNSPECIFIED', '' ) ;
#102 = DATE_AND_TIME ( #205, #232 ) ;
#103 = DIRECTION ( 'NONE',  ( -0.000000000000000000, -1.000000000000000000, -0.000000000000000000 ) ) ;
#104 = CLOSED_SHELL ( 'NONE', ( #378, #508, #450, #520, #438, #673, #111, #411, #8, #536, #164, #127, #287, #634, #552, #178, #571, #630, #140, #643 ) ) ;
#105 = VECTOR ( 'NONE', #339, 39.37007874015748143 ) ;
#106 = MECHANICAL_CONTEXT ( 'NONE', #210, 'mechanical' ) ;
#107 = DIRECTION ( 'NONE',  ( 0.000000000000000000, 0.000000000000000000, 1.000000000000000000 ) ) ;
#108 = CYLINDRICAL_SURFACE ( 'NONE', #220, 0.1329999999999999238 ) ;
#109 = ORIENTED_EDGE ( 'NONE', *, *, #309, .T. ) ;
#110 = DIRECTION ( 'NONE',  ( 0.000000000000000000, 0.000000000000000000, -1.000000000000000000 ) ) ;
#111 = ADVANCED_FACE ( 'NONE', ( #638 ), #62, .T. ) ;
#112 = AXIS2_PLACEMENT_3D ( 'NONE', #295, #505, #250 ) ;
#113 = ORIENTED_EDGE ( 'NONE', *, *, #65, .T. ) ;
#114 = LINE ( 'NONE', #640, #303 ) ;
#115 = EDGE_CURVE ( 'NONE', #188, #593, #173, .T. ) ;
#116 = VERTEX_POINT ( 'NONE', #595 ) ;
#117 = PLANE ( 'NONE',  #93 ) ;
#118 = EDGE_CURVE ( 'NONE', #562, #598, #114, .T. ) ;
#119 = CYLINDRICAL_SURFACE ( 'NONE', #646, 0.2500000000000000000 ) ;
#120 = AXIS2_PLACEMENT_3D ( 'NONE', #306, #25, #203 ) ;
#121 = CARTESIAN_POINT ( 'NONE',  ( -1.250000000000000000, 0.000000000000000000, 0.000000000000000000 ) ) ;
#122 = VERTEX_POINT ( 'NONE', #331 ) ;
#123 = CARTESIAN_POINT ( 'NONE',  ( -0.8750000000000001110, 0.5000000000000000000, 0.2981023622047244692 ) ) ;
#124 = ORIENTED_EDGE ( 'NONE', *, *, #195, .F. ) ;
#125 = CARTESIAN_POINT ( 'NONE',  ( -0.4999999999999997224, -1.594488189999999861, 2.362204724409448620 ) ) ;
#126 = ORIENTED_EDGE ( 'NONE', *, *, #80, .F. ) ;
#127 = ADVANCED_FACE ( 'NONE', ( #379, #588, #7 ), #117, .F. ) ;
#128 = FACE_BOUND ( 'NONE', #448, .T. ) ;
#129 = CARTESIAN_POINT ( 'NONE',  ( -0.2499999999999997224, -1.594488189999999861, 0.3543307086614172485 ) ) ;
#130 = ORIENTED_EDGE ( 'NONE', *, *, #249, .T. ) ;
#131 = PLANE ( 'NONE',  #316 ) ;
#132 = ORIENTED_EDGE ( 'NONE', *, *, #4, .F. ) ;
#133 = DIRECTION ( 'NONE',  ( 0.000000000000000000, -1.000000000000000000, 0.000000000000000000 ) ) ;
#134 = DIRECTION ( 'NONE',  ( 0.000000000000000000, -1.000000000000000000, 0.000000000000000000 ) ) ;
#135 = ORIENTED_EDGE ( 'NONE', *, *, #641, .T. ) ;
#136 = CARTESIAN_POINT ( 'NONE',  ( -0.8750000000000001110, 0.5000000000000000000, 0.4311023622047244763 ) ) ;
#137 = ORIENTED_EDGE ( 'NONE', *, *, #161, .T. ) ;
#138 = ORIENTED_EDGE ( 'NONE', *, *, #485, .F. ) ;
#139 = DIRECTION ( 'NONE',  ( -1.000000000000000000, 0.000000000000000000, -8.164311994315690102E-17 ) ) ;
#140 = ADVANCED_FACE ( 'NONE', ( #439 ), #119, .T. ) ;
#141 = AXIS2_PLACEMENT_3D ( 'NONE', #548, #511, #561 ) ;
#142 = CC_DESIGN_APPROVAL ( #487, ( #337 ) ) ;
#143 = CARTESIAN_POINT ( 'NONE',  ( 0.000000000000000000, 0.5000000000000000000, 0.000000000000000000 ) ) ;
#144 = CARTESIAN_POINT ( 'NONE',  ( -0.8750000000000001110, 0.5000000000000000000, 2.064102362204724095 ) ) ;
#145 = VERTEX_POINT ( 'NONE', #63 ) ;
#146 = CARTESIAN_POINT ( 'NONE',  ( -0.4999999999999998335, 0.000000000000000000, 2.362204724409448620 ) ) ;
#147 = APPLICATION_CONTEXT ( 'configuration controlled 3d designs of mechanical parts and assemblies' ) ;
#148 = VECTOR ( 'NONE', #645, 39.37007874015748143 ) ;
#149 = ORIENTED_EDGE ( 'NONE', *, *, #330, .T. ) ;
#150 = CARTESIAN_POINT ( 'NONE',  ( -0.4999999999999997224, -1.594488189999999861, 2.362204724409448620 ) ) ;
#151 = EDGE_CURVE ( 'NONE', #363, #341, #74, .T. ) ;
#152 = ORIENTED_EDGE ( 'NONE', *, *, #391, .F. ) ;
#153 = PERSON ( 'UNSPECIFIED', 'UNSPECIFIED', 'UNSPECIFIED', ('UNSPECIFIED'), ('UNSPECIFIED'), ('UNSPECIFIED') ) ;
#154 = COORDINATED_UNIVERSAL_TIME_OFFSET ( 5, 0, .BEHIND. ) ;
#155 = PLANE ( 'NONE',  #496 ) ;
#156 = DATE_AND_TIME ( #466, #298 ) ;
#157 = FACE_OUTER_BOUND ( 'NONE', #564, .T. ) ;
#158 = CIRCLE ( 'NONE', #542, 0.1329999999999999238 ) ;
#159 = EDGE_CURVE ( 'NONE', #412, #417, #305, .T. ) ;
#160 = DIRECTION ( 'NONE',  ( 0.000000000000000000, 0.000000000000000000, 1.000000000000000000 ) ) ;
#161 = EDGE_CURVE ( 'NONE', #657, #593, #68, .T. ) ;
#162 = FACE_OUTER_BOUND ( 'NONE', #613, .T. ) ;
#163 = CARTESIAN_POINT ( 'NONE',  ( -0.8750000000000001110, 0.5000000000000000000, 1.931102362204724310 ) ) ;
#164 = ADVANCED_FACE ( 'NONE', ( #9, #70, #549 ), #247, .T. ) ;
#165 = DIRECTION ( 'NONE',  ( 0.000000000000000000, -1.000000000000000000, -0.000000000000000000 ) ) ;
#166 = EDGE_CURVE ( 'NONE', #31, #207, #606, .T. ) ;
#167 = CARTESIAN_POINT ( 'NONE',  ( 0.000000000000000000, -1.594488189999999861, 2.362204724409448620 ) ) ;
#168 = LOCAL_TIME ( 12, 13, 1.000000000000000000, #317 ) ;
#169 = CARTESIAN_POINT ( 'NONE',  ( -0.8750000000000001110, 0.000000000000000000, 0.4311023622047244763 ) ) ;
#170 = VERTEX_POINT ( 'NONE', #77 ) ;
#171 = CIRCLE ( 'NONE', #191, 0.1377952755905512972 ) ;
#172 = AXIS2_PLACEMENT_3D ( 'NONE', #362, #560, #401 ) ;
#173 = LINE ( 'NONE', #277, #216 ) ;
#174 = VERTEX_POINT ( 'NONE', #455 ) ;
#175 = ORIENTED_EDGE ( 'NONE', *, *, #65, .F. ) ;
#176 = AXIS2_PLACEMENT_3D ( 'NONE', #579, #680, #373 ) ;
#177 = FACE_OUTER_BOUND ( 'NONE', #86, .T. ) ;
#178 = ADVANCED_FACE ( 'NONE', ( #660 ), #190, .T. ) ;
#179 = CARTESIAN_POINT ( 'NONE',  ( 0.000000000000000000, 0.5000000000000000000, 2.362204724409448620 ) ) ;
#180 = ORIENTED_EDGE ( 'NONE', *, *, #11, .T. ) ;
#181 = DIMENSIONAL_EXPONENTS ( 1.000000000000000000, 0.000000000000000000, 0.000000000000000000, 0.000000000000000000, 0.000000000000000000, 0.000000000000000000, 0.000000000000000000 ) ;
#182 = ORIENTED_EDGE ( 'NONE', *, *, #249, .F. ) ;
#183 = DIRECTION ( 'NONE',  ( 0.000000000000000000, 0.000000000000000000, -1.000000000000000000 ) ) ;
#184 = DIRECTION ( 'NONE',  ( 0.000000000000000000, -0.000000000000000000, -1.000000000000000000 ) ) ;
#185 = ORIENTED_EDGE ( 'NONE', *, *, #91, .T. ) ;
#186 = CARTESIAN_POINT ( 'NONE',  ( -0.2499999999999997224, -1.200787402598424869, 1.870078740157480324 ) ) ;
#187 = ORIENTED_EDGE ( 'NONE', *, *, #330, .F. ) ;
#188 = VERTEX_POINT ( 'NONE', #344 ) ;
#189 = CARTESIAN_POINT ( 'NONE',  ( -0.2499999999999997224, -1.594488189999999861, 0.4921259842519684069 ) ) ;
#190 = PLANE ( 'NONE',  #57 ) ;
#191 = AXIS2_PLACEMENT_3D ( 'NONE', #2, #637, #67 ) ;
#192 = EDGE_LOOP ( 'NONE', ( #199, #491, #533, #380 ) ) ;
#193 = CIRCLE ( 'NONE', #172, 0.1377952755905511584 ) ;
#194 = CARTESIAN_POINT ( 'NONE',  ( -0.2499999999999997224, -1.200787402598424869, 0.6299212598425195653 ) ) ;
#195 = EDGE_CURVE ( 'NONE', #389, #45, #451, .T. ) ;
#196 = LINE ( 'NONE', #84, #530 ) ;
#197 = VERTEX_POINT ( 'NONE', #507 ) ;
#198 = DIRECTION ( 'NONE',  ( -0.000000000000000000, -1.000000000000000000, -0.000000000000000000 ) ) ;
#199 = ORIENTED_EDGE ( 'NONE', *, *, #516, .F. ) ;
#200 = AXIS2_PLACEMENT_3D ( 'NONE', #620, #506, #183 ) ;
#201 = DIRECTION ( 'NONE',  ( 1.000000000000000000, 0.000000000000000000, 0.000000000000000000 ) ) ;
#202 = EDGE_LOOP ( 'NONE', ( #340, #658, #664, #44 ) ) ;
#203 = DIRECTION ( 'NONE',  ( 0.000000000000000000, 0.000000000000000000, 1.000000000000000000 ) ) ;
#204 = ORIENTED_EDGE ( 'NONE', *, *, #534, .F. ) ;
#205 = CALENDAR_DATE ( 2026, 26, 5 ) ;
#206 = DIRECTION ( 'NONE',  ( 1.156482317317871478E-16, 0.000000000000000000, 1.000000000000000000 ) ) ;
#207 = VERTEX_POINT ( 'NONE', #129 ) ;
#208 = VECTOR ( 'NONE', #103, 39.37007874015748143 ) ;
#209 = EDGE_LOOP ( 'NONE', ( #514, #78, #567, #88, #73, #408 ) ) ;
#210 = APPLICATION_CONTEXT ( 'configuration controlled 3d designs of mechanical parts and assemblies' ) ;
#211 = DIRECTION ( 'NONE',  ( -0.000000000000000000, -1.000000000000000000, -0.000000000000000000 ) ) ;
#212 = COORDINATED_UNIVERSAL_TIME_OFFSET ( 5, 0, .BEHIND. ) ;
#213 = LINE ( 'NONE', #315, #282 ) ;
#214 = CALENDAR_DATE ( 2026, 26, 5 ) ;
#215 = DIRECTION ( 'NONE',  ( -0.000000000000000000, -1.000000000000000000, -0.000000000000000000 ) ) ;
#216 = VECTOR ( 'NONE', #587, 39.37007874015748143 ) ;
#217 = EDGE_CURVE ( 'NONE', #374, #31, #36, .T. ) ;
#218 = PERSON_AND_ORGANIZATION_ROLE ( 'classification_officer' ) ;
#219 = CARTESIAN_POINT ( 'NONE',  ( -1.000000000000000000, 0.000000000000000000, 2.041077998578921909E-17 ) ) ;
#220 = AXIS2_PLACEMENT_3D ( 'NONE', #163, #211, #631 ) ;
#221 = CARTESIAN_POINT ( 'NONE',  ( -0.2499999999999997224, -1.200787402598424869, 2.007874015748031482 ) ) ;
#222 = APPROVAL ( #427, 'UNSPECIFIED' ) ;
#223 = DIRECTION ( 'NONE',  ( 0.000000000000000000, -1.000000000000000000, 0.000000000000000000 ) ) ;
#224 = CARTESIAN_POINT ( 'NONE',  ( -0.8750000000000001110, 0.5000000000000000000, 0.4311023622047244763 ) ) ;
#225 = AXIS2_PLACEMENT_3D ( 'NONE', #513, #256, #82 ) ;
#226 = DIRECTION ( 'NONE',  ( 0.000000000000000000, 1.000000000000000000, -0.000000000000000000 ) ) ;
#227 = ORIENTED_EDGE ( 'NONE', *, *, #115, .T. ) ;
#228 = UNCERTAINTY_MEASURE_WITH_UNIT (LENGTH_MEASURE( 1.000000000000000082E-05 ), #302, 'distance_accuracy_value', 'NONE');
#229 = ORIENTED_EDGE ( 'NONE', *, *, #654, .F. ) ;
#230 = CARTESIAN_POINT ( 'NONE',  ( 2.892866454678787038E-16, 0.5000000000000000000, 2.362204724409448620 ) ) ;
#231 = ORIENTED_EDGE ( 'NONE', *, *, #72, .F. ) ;
#232 = LOCAL_TIME ( 12, 13, 1.000000000000000000, #583 ) ;
#233 = DIRECTION ( 'NONE',  ( 0.000000000000000000, -0.000000000000000000, 1.000000000000000000 ) ) ;
#234 = EDGE_CURVE ( 'NONE', #174, #504, #499, .T. ) ;
#235 = ORIENTED_EDGE ( 'NONE', *, *, #151, .T. ) ;
#236 =( LENGTH_UNIT ( ) NAMED_UNIT ( * ) SI_UNIT ( $, .METRE. ) );
#237 = DIRECTION ( 'NONE',  ( 0.000000000000000000, 1.000000000000000000, -0.000000000000000000 ) ) ;
#238 = ORIENTED_EDGE ( 'NONE', *, *, #217, .T. ) ;
#239 = CYLINDRICAL_SURFACE ( 'NONE', #265, 0.1329999999999999793 ) ;
#240 = DIRECTION ( 'NONE',  ( 0.000000000000000000, -1.000000000000000000, 0.000000000000000000 ) ) ;
#241 = LINE ( 'NONE', #23, #489 ) ;
#242 = ORIENTED_EDGE ( 'NONE', *, *, #546, .F. ) ;
#243 = CARTESIAN_POINT ( 'NONE',  ( -0.5000000000000000000, 0.000000000000000000, 5.782411586589357392E-17 ) ) ;
#244 = ORIENTED_EDGE ( 'NONE', *, *, #594, .T. ) ;
#245 = ORIENTED_EDGE ( 'NONE', *, *, #159, .T. ) ;
#246 = CYLINDRICAL_SURFACE ( 'NONE', #444, 0.2500000000000000555 ) ;
#247 = PLANE ( 'NONE',  #459 ) ;
#248 = ORIENTED_EDGE ( 'NONE', *, *, #403, .F. ) ;
#249 = EDGE_CURVE ( 'NONE', #586, #12, #241, .T. ) ;
#250 = DIRECTION ( 'NONE',  ( 0.000000000000000000, 0.000000000000000000, -1.000000000000000000 ) ) ;
#251 = ORIENTED_EDGE ( 'NONE', *, *, #293, .F. ) ;
#252 = PLANE ( 'NONE',  #96 ) ;
#253 = VECTOR ( 'NONE', #618, 39.37007874015748143 ) ;
#254 = CARTESIAN_POINT ( 'NONE',  ( -0.5000000000000000000, -1.594488189999999861, 6.123233995736767268E-17 ) ) ;
#255 = EDGE_LOOP ( 'NONE', ( #245, #633 ) ) ;
#256 = DIRECTION ( 'NONE',  ( 0.000000000000000000, 1.000000000000000000, -0.000000000000000000 ) ) ;
#257 = ORIENTED_EDGE ( 'NONE', *, *, #416, .F. ) ;
#258 = VECTOR ( 'NONE', #139, 39.37007874015748143 ) ;
#259 = APPROVAL_ROLE ( '' ) ;
#260 = EDGE_CURVE ( 'NONE', #307, #349, #81, .T. ) ;
#261 = VERTEX_POINT ( 'NONE', #503 ) ;
#262 = LINE ( 'NONE', #243, #512 ) ;
#263 = EDGE_CURVE ( 'NONE', #519, #122, #345, .T. ) ;
#264 = CARTESIAN_POINT ( 'NONE',  ( -0.8750000000000001110, 0.5000000000000000000, 0.4311023622047244763 ) ) ;
#265 = AXIS2_PLACEMENT_3D ( 'NONE', #224, #540, #589 ) ;
#266 = PERSON_AND_ORGANIZATION ( #153, #101 ) ;
#267 = CARTESIAN_POINT ( 'NONE',  ( -1.000000000000000000, 0.5000000000000000000, 0.2500000000000000555 ) ) ;
#268 = DATE_TIME_ROLE ( 'classification_date' ) ;
#269 = CARTESIAN_POINT ( 'NONE',  ( -0.8750000000000001110, 0.5000000000000000000, 1.798102362204724303 ) ) ;
#270 = EDGE_CURVE ( 'NONE', #389, #170, #350, .T. ) ;
#271 = LOCAL_TIME ( 12, 13, 1.000000000000000000, #580 ) ;
#272 = PERSON_AND_ORGANIZATION ( #153, #101 ) ;
#273 = FACE_OUTER_BOUND ( 'NONE', #327, .T. ) ;
#274 = CIRCLE ( 'NONE', #69, 0.1377952755905511584 ) ;
#275 = CARTESIAN_POINT ( 'NONE',  ( -0.8750000000000001110, 0.5000000000000000000, 0.4311023622047244763 ) ) ;
#276 = PRODUCT_RELATED_PRODUCT_CATEGORY ( 'detail', '', ( #627 ) ) ;
#277 = CARTESIAN_POINT ( 'NONE',  ( -1.250000000000000000, 0.5000000000000000000, 2.112204724409448620 ) ) ;
#278 = ORIENTED_EDGE ( 'NONE', *, *, #217, .F. ) ;
#279 = CARTESIAN_POINT ( 'NONE',  ( 0.000000000000000000, 0.000000000000000000, 0.000000000000000000 ) ) ;
#280 = CIRCLE ( 'NONE', #120, 0.2500000000000000555 ) ;
#281 = EDGE_LOOP ( 'NONE', ( #248, #152, #75, #517 ) ) ;
#282 = VECTOR ( 'NONE', #318, 39.37007874015748143 ) ;
#283 = FACE_OUTER_BOUND ( 'NONE', #304, .T. ) ;
#284 = CARTESIAN_POINT ( 'NONE',  ( -1.250000000000000000, 0.5000000000000000000, 0.000000000000000000 ) ) ;
#285 = EDGE_CURVE ( 'NONE', #374, #24, #292, .T. ) ;
#286 = LINE ( 'NONE', #442, #682 ) ;
#287 = ADVANCED_FACE ( 'NONE', ( #662 ), #131, .T. ) ;
#288 = ORIENTED_EDGE ( 'NONE', *, *, #463, .F. ) ;
#289 = CARTESIAN_POINT ( 'NONE',  ( -0.8750000000000001110, 0.000000000000000000, 2.064102362204724095 ) ) ;
#290 = DIRECTION ( 'NONE',  ( -0.000000000000000000, -1.000000000000000000, -0.000000000000000000 ) ) ;
#291 = DIRECTION ( 'NONE',  ( -0.000000000000000000, -1.000000000000000000, -0.000000000000000000 ) ) ;
#292 = LINE ( 'NONE', #675, #388 ) ;
#293 = EDGE_CURVE ( 'NONE', #122, #12, #158, .T. ) ;
#294 = DIRECTION ( 'NONE',  ( -0.000000000000000000, -1.000000000000000000, -0.000000000000000000 ) ) ;
#295 = CARTESIAN_POINT ( 'NONE',  ( -0.8750000000000001110, 0.5000000000000000000, 1.931102362204724310 ) ) ;
#296 = FACE_OUTER_BOUND ( 'NONE', #202, .T. ) ;
#297 = DIRECTION ( 'NONE',  ( 0.000000000000000000, 0.000000000000000000, -1.000000000000000000 ) ) ;
#298 = LOCAL_TIME ( 12, 13, 1.000000000000000000, #154 ) ;
#299 = ORIENTED_EDGE ( 'NONE', *, *, #285, .T. ) ;
#300 = LINE ( 'NONE', #33, #66 ) ;
#301 = ORIENTED_EDGE ( 'NONE', *, *, #391, .T. ) ;
#302 =( CONVERSION_BASED_UNIT ( 'INCH', #76 ) LENGTH_UNIT ( ) NAMED_UNIT ( #181 ) );
#303 = VECTOR ( 'NONE', #165, 39.37007874015748143 ) ;
#304 = EDGE_LOOP ( 'NONE', ( #400, #1, #180, #138 ) ) ;
#305 = CIRCLE ( 'NONE', #405, 0.1329999999999999793 ) ;
#306 = CARTESIAN_POINT ( 'NONE',  ( -1.000000000000000000, 0.000000000000000000, 2.112204724409448620 ) ) ;
#307 = VERTEX_POINT ( 'NONE', #150 ) ;
#308 = CARTESIAN_POINT ( 'NONE',  ( -0.2499999999999997224, -1.594488189999999861, 1.870078740157480324 ) ) ;
#309 = EDGE_CURVE ( 'NONE', #31, #374, #193, .T. ) ;
#310 = APPROVAL_ROLE ( '' ) ;
#311 = CC_DESIGN_APPROVAL ( #222, ( #50 ) ) ;
#312 = CARTESIAN_POINT ( 'NONE',  ( 0.000000000000000000, -1.594488189999999861, 0.000000000000000000 ) ) ;
#313 = ORIENTED_EDGE ( 'NONE', *, *, #166, .T. ) ;
#314 = APPROVAL_DATE_TIME ( #102, #222 ) ;
#315 = CARTESIAN_POINT ( 'NONE',  ( 2.892866454678787038E-16, 0.5000000000000000000, 2.362204724409448620 ) ) ;
#316 = AXIS2_PLACEMENT_3D ( 'NONE', #423, #614, #206 ) ;
#317 = COORDINATED_UNIVERSAL_TIME_OFFSET ( 5, 0, .BEHIND. ) ;
#318 = DIRECTION ( 'NONE',  ( -0.000000000000000000, -1.000000000000000000, -0.000000000000000000 ) ) ;
#319 = CALENDAR_DATE ( 2026, 26, 5 ) ;
#320 = CARTESIAN_POINT ( 'NONE',  ( -1.000000000000000000, 0.000000000000000000, 0.2500000000000000555 ) ) ;
#321 = CC_DESIGN_SECURITY_CLASSIFICATION ( #337, ( #573 ) ) ;
#322 = PRODUCT_DEFINITION_SHAPE ( 'NONE', 'NONE',  #50 ) ;
#323 = DIRECTION ( 'NONE',  ( 0.000000000000000000, 1.000000000000000000, -0.000000000000000000 ) ) ;
#324 = AXIS2_PLACEMENT_3D ( 'NONE', #136, #484, #479 ) ;
#325 = CARTESIAN_POINT ( 'NONE',  ( -0.5000000000000000000, -1.594488189999999861, 5.782411586589357392E-17 ) ) ;
#326 = DIRECTION ( 'NONE',  ( 1.000000000000000000, 0.000000000000000000, -0.000000000000000000 ) ) ;
#327 = EDGE_LOOP ( 'NONE', ( #616, #130, #251, #352 ) ) ;
#328 = DIRECTION ( 'NONE',  ( 0.000000000000000000, 0.000000000000000000, 1.000000000000000000 ) ) ;
#329 = VECTOR ( 'NONE', #43, 39.37007874015748143 ) ;
#330 = EDGE_CURVE ( 'NONE', #341, #261, #94, .T. ) ;
#331 = CARTESIAN_POINT ( 'NONE',  ( -0.8750000000000001110, 0.000000000000000000, 1.798102362204724303 ) ) ;
#332 = AXIS2_PLACEMENT_3D ( 'NONE', #267, #428, #160 ) ;
#333 = VERTEX_POINT ( 'NONE', #254 ) ;
#334 = ORIENTED_EDGE ( 'NONE', *, *, #416, .T. ) ;
#335 = CARTESIAN_POINT ( 'NONE',  ( -0.2499999999999997224, -1.200787402598424869, 0.3543307086614172485 ) ) ;
#336 = EDGE_CURVE ( 'NONE', #598, #188, #280, .T. ) ;
#337 = SECURITY_CLASSIFICATION ( '', '', #429 ) ;
#338 = DIRECTION ( 'NONE',  ( 0.000000000000000000, 0.000000000000000000, -1.000000000000000000 ) ) ;
#339 = DIRECTION ( 'NONE',  ( 0.000000000000000000, 1.000000000000000000, 0.000000000000000000 ) ) ;
#340 = ORIENTED_EDGE ( 'NONE', *, *, #372, .F. ) ;
#341 = VERTEX_POINT ( 'NONE', #87 ) ;
#342 = CC_DESIGN_DATE_AND_TIME_ASSIGNMENT ( #156, #473, ( #50 ) ) ;
#343 = DIRECTION ( 'NONE',  ( -0.000000000000000000, -1.000000000000000000, -0.000000000000000000 ) ) ;
#344 = CARTESIAN_POINT ( 'NONE',  ( -1.250000000000000000, 0.000000000000000000, 2.112204724409448620 ) ) ;
#345 = LINE ( 'NONE', #469, #253 ) ;
#346 = ORIENTED_EDGE ( 'NONE', *, *, #166, .F. ) ;
#347 = CARTESIAN_POINT ( 'NONE',  ( -0.2499999999999997224, -1.594488189999999861, 0.4921259842519684069 ) ) ;
#348 = CARTESIAN_POINT ( 'NONE',  ( 0.000000000000000000, 0.5000000000000000000, 0.000000000000000000 ) ) ;
#349 = VERTEX_POINT ( 'NONE', #146 ) ;
#350 = LINE ( 'NONE', #143, #663 ) ;
#351 = VECTOR ( 'NONE', #599, 39.37007874015748143 ) ;
#352 = ORIENTED_EDGE ( 'NONE', *, *, #263, .F. ) ;
#353 = CARTESIAN_POINT ( 'NONE',  ( -1.250000000000000000, 0.5000000000000000000, 0.2500000000000000555 ) ) ;
#354 = ORIENTED_EDGE ( 'NONE', *, *, #41, .T. ) ;
#355 = DIRECTION ( 'NONE',  ( -0.000000000000000000, -1.000000000000000000, -0.000000000000000000 ) ) ;
#356 =( NAMED_UNIT ( * ) PLANE_ANGLE_UNIT ( ) SI_UNIT ( $, .RADIAN. ) );
#357 = ORIENTED_EDGE ( 'NONE', *, *, #538, .F. ) ;
#358 = CC_DESIGN_PERSON_AND_ORGANIZATION_ASSIGNMENT ( #266, #364, ( #627 ) ) ;
#359 = VECTOR ( 'NONE', #490, 39.37007874015748143 ) ;
#360 = FACE_OUTER_BOUND ( 'NONE', #436, .T. ) ;
#361 = ORIENTED_EDGE ( 'NONE', *, *, #372, .T. ) ;
#362 = CARTESIAN_POINT ( 'NONE',  ( -0.2499999999999997224, -1.200787402598424869, 0.4921259842519684069 ) ) ;
#363 = VERTEX_POINT ( 'NONE', #570 ) ;
#364 = PERSON_AND_ORGANIZATION_ROLE ( 'design_owner' ) ;
#365 = CARTESIAN_POINT ( 'NONE',  ( -8.331998792565880161E-33, 0.5000000000000000000, 1.020538999289461170E-16 ) ) ;
#366 = EDGE_CURVE ( 'NONE', #45, #562, #300, .T. ) ;
#367 = APPLICATION_PROTOCOL_DEFINITION ( 'international standard', 'config_control_design', 1994, #147 ) ;
#368 = PLANE ( 'NONE',  #176 ) ;
#369 = AXIS2_PLACEMENT_3D ( 'NONE', #308, #92, #39 ) ;
#370 = DATE_AND_TIME ( #214, #168 ) ;
#371 = AXIS2_PLACEMENT_3D ( 'NONE', #635, #3, #375 ) ;
#372 = EDGE_CURVE ( 'NONE', #593, #562, #625, .T. ) ;
#373 = DIRECTION ( 'NONE',  ( -1.224646799147353207E-16, 0.000000000000000000, -1.000000000000000000 ) ) ;
#374 = VERTEX_POINT ( 'NONE', #194 ) ;
#375 = DIRECTION ( 'NONE',  ( 0.000000000000000000, 0.000000000000000000, -1.000000000000000000 ) ) ;
#376 = EDGE_CURVE ( 'NONE', #586, #519, #431, .T. ) ;
#377 = LINE ( 'NONE', #532, #569 ) ;
#378 = ADVANCED_FACE ( 'NONE', ( #360 ), #670, .F. ) ;
#379 = FACE_BOUND ( 'NONE', #255, .T. ) ;
#380 = ORIENTED_EDGE ( 'NONE', *, *, #397, .F. ) ;
#381 = DIRECTION ( 'NONE',  ( -0.000000000000000000, -1.000000000000000000, -0.000000000000000000 ) ) ;
#382 = CC_DESIGN_PERSON_AND_ORGANIZATION_ASSIGNMENT ( #521, #572, ( #573 ) ) ;
#383 = ORIENTED_EDGE ( 'NONE', *, *, #161, .F. ) ;
#384 = LINE ( 'NONE', #121, #35 ) ;
#385 = ORIENTED_EDGE ( 'NONE', *, *, #623, .T. ) ;
#386 = CIRCLE ( 'NONE', #624, 0.1329999999999999238 ) ;
#387 = CIRCLE ( 'NONE', #324, 0.1329999999999999793 ) ;
#388 = VECTOR ( 'NONE', #355, 39.37007874015748143 ) ;
#389 = VERTEX_POINT ( 'NONE', #409 ) ;
#390 = DIRECTION ( 'NONE',  ( 0.000000000000000000, 0.000000000000000000, 1.000000000000000000 ) ) ;
#391 = EDGE_CURVE ( 'NONE', #333, #174, #97, .T. ) ;
#392 = AXIS2_PLACEMENT_3D ( 'NONE', #474, #476, #622 ) ;
#393 = VERTEX_POINT ( 'NONE', #518 ) ;
#394 = PLANE ( 'NONE',  #141 ) ;
#395 = DIRECTION ( 'NONE',  ( -1.000000000000000000, 0.000000000000000000, -8.164311994315690102E-17 ) ) ;
#396 = ORIENTED_EDGE ( 'NONE', *, *, #234, .T. ) ;
#397 = EDGE_CURVE ( 'NONE', #657, #116, #30, .T. ) ;
#398 = FACE_OUTER_BOUND ( 'NONE', #420, .T. ) ;
#399 = CARTESIAN_POINT ( 'NONE',  ( 0.000000000000000000, 0.5000000000000000000, 0.000000000000000000 ) ) ;
#400 = ORIENTED_EDGE ( 'NONE', *, *, #641, .F. ) ;
#401 = DIRECTION ( 'NONE',  ( 0.000000000000000000, 0.000000000000000000, -1.000000000000000000 ) ) ;
#402 = ORIENTED_EDGE ( 'NONE', *, *, #654, .T. ) ;
#403 = EDGE_CURVE ( 'NONE', #174, #349, #262, .T. ) ;
#404 = CARTESIAN_POINT ( 'NONE',  ( -0.8750000000000001110, 0.5000000000000000000, 0.5641023622047245389 ) ) ;
#405 = AXIS2_PLACEMENT_3D ( 'NONE', #169, #226, #328 ) ;
#406 = AXIS2_PLACEMENT_3D ( 'NONE', #275, #215, #110 ) ;
#407 = DIRECTION ( 'NONE',  ( 0.000000000000000000, 1.000000000000000000, -0.000000000000000000 ) ) ;
#408 = ORIENTED_EDGE ( 'NONE', *, *, #336, .T. ) ;
#409 = CARTESIAN_POINT ( 'NONE',  ( 0.000000000000000000, 0.5000000000000000000, 0.000000000000000000 ) ) ;
#410 = EDGE_LOOP ( 'NONE', ( #472, #432, #357, #590, #58, #29 ) ) ;
#411 = ADVANCED_FACE ( 'NONE', ( #602 ), #555, .F. ) ;
#412 = VERTEX_POINT ( 'NONE', #456 ) ;
#413 = DIRECTION ( 'NONE',  ( 0.000000000000000000, 0.000000000000000000, -1.000000000000000000 ) ) ;
#414 = ORIENTED_EDGE ( 'NONE', *, *, #4, .T. ) ;
#415 = AXIS2_PLACEMENT_3D ( 'NONE', #347, #133, #338 ) ;
#416 = EDGE_CURVE ( 'NONE', #145, #666, #387, .T. ) ;
#417 = VERTEX_POINT ( 'NONE', #430 ) ;
#418 = DIRECTION ( 'NONE',  ( 0.000000000000000000, 1.000000000000000000, -0.000000000000000000 ) ) ;
#419 = VERTEX_POINT ( 'NONE', #51 ) ;
#420 = EDGE_LOOP ( 'NONE', ( #608, #132, #235, #149 ) ) ;
#421 = PERSON_AND_ORGANIZATION ( #153, #101 ) ;
#422 = AXIS2_PLACEMENT_3D ( 'NONE', #582, #585, #471 ) ;
#423 = CARTESIAN_POINT ( 'NONE',  ( -0.5000000000000000000, -1.594488189999999861, 5.782411586589357392E-17 ) ) ;
#424 = PERSON_AND_ORGANIZATION ( #153, #101 ) ;
#425 = CYLINDRICAL_SURFACE ( 'NONE', #200, 0.1377952755905511584 ) ;
#426 = EDGE_CURVE ( 'NONE', #197, #261, #59, .T. ) ;
#427 = APPROVAL_STATUS ( 'not_yet_approved' ) ;
#428 = DIRECTION ( 'NONE',  ( 0.000000000000000000, 1.000000000000000000, -0.000000000000000000 ) ) ;
#429 = SECURITY_CLASSIFICATION_LEVEL ( 'unclassified' ) ;
#430 = CARTESIAN_POINT ( 'NONE',  ( -0.8750000000000001110, 0.000000000000000000, 0.5641023622047245389 ) ) ;
#431 = CIRCLE ( 'NONE', #566, 0.1329999999999999238 ) ;
#432 = ORIENTED_EDGE ( 'NONE', *, *, #118, .T. ) ;
#433 = DIRECTION ( 'NONE',  ( 1.000000000000000000, 0.000000000000000000, 8.164311994315690102E-17 ) ) ;
#434 = EDGE_CURVE ( 'NONE', #197, #363, #19, .T. ) ;
#435 = FACE_OUTER_BOUND ( 'NONE', #609, .T. ) ;
#436 = EDGE_LOOP ( 'NONE', ( #544, #629, #26, #447 ) ) ;
#437 = DIRECTION ( 'NONE',  ( 0.000000000000000000, 0.000000000000000000, 1.000000000000000000 ) ) ;
#438 = ADVANCED_FACE ( 'NONE', ( #157 ), #155, .F. ) ;
#439 = FACE_OUTER_BOUND ( 'NONE', #192, .T. ) ;
#440 = DIRECTION ( 'NONE',  ( -0.000000000000000000, -1.000000000000000000, -0.000000000000000000 ) ) ;
#441 = APPROVAL_PERSON_ORGANIZATION ( #272, #487, #259 ) ;
#442 = CARTESIAN_POINT ( 'NONE',  ( 0.000000000000000000, -1.594488189999999861, 0.000000000000000000 ) ) ;
#443 = DIRECTION ( 'NONE',  ( 0.000000000000000000, -0.000000000000000000, -1.000000000000000000 ) ) ;
#444 = AXIS2_PLACEMENT_3D ( 'NONE', #17, #551, #454 ) ;
#445 = CARTESIAN_POINT ( 'NONE',  ( -0.8750000000000001110, 0.5000000000000000000, 1.931102362204724310 ) ) ;
#446 = EDGE_LOOP ( 'NONE', ( #414, #615 ) ) ;
#447 = ORIENTED_EDGE ( 'NONE', *, *, #151, .F. ) ;
#448 = EDGE_LOOP ( 'NONE', ( #229, #461 ) ) ;
#449 = FACE_OUTER_BOUND ( 'NONE', #446, .T. ) ;
#450 = ADVANCED_FACE ( 'NONE', ( #435 ), #679, .F. ) ;
#451 = LINE ( 'NONE', #348, #577 ) ;
#452 = DIRECTION ( 'NONE',  ( 1.156482317317871478E-16, 0.000000000000000000, 1.000000000000000000 ) ) ;
#453 =( GEOMETRIC_REPRESENTATION_CONTEXT ( 3 ) GLOBAL_UNCERTAINTY_ASSIGNED_CONTEXT ( ( #228 ) ) GLOBAL_UNIT_ASSIGNED_CONTEXT ( ( #302, #356, #596 ) ) REPRESENTATION_CONTEXT ( 'NONE', 'WORKASPACE' ) );
#454 = DIRECTION ( 'NONE',  ( 0.000000000000000000, 0.000000000000000000, 1.000000000000000000 ) ) ;
#455 = CARTESIAN_POINT ( 'NONE',  ( -0.5000000000000000000, 0.000000000000000000, 6.123233995736767268E-17 ) ) ;
#456 = CARTESIAN_POINT ( 'NONE',  ( -0.8750000000000001110, 0.000000000000000000, 0.2981023622047244692 ) ) ;
#457 = AXIS2_PLACEMENT_3D ( 'NONE', #486, #237, #390 ) ;
#458 = LINE ( 'NONE', #665, #258 ) ;
#459 = AXIS2_PLACEMENT_3D ( 'NONE', #399, #407, #600 ) ;
#460 = AXIS2_PLACEMENT_3D ( 'NONE', #264, #626, #107 ) ;
#461 = ORIENTED_EDGE ( 'NONE', *, *, #623, .F. ) ;
#462 = DIRECTION ( 'NONE',  ( -1.000000000000000000, 0.000000000000000000, 0.000000000000000000 ) ) ;
#463 = EDGE_CURVE ( 'NONE', #666, #145, #578, .T. ) ;
#464 = DIRECTION ( 'NONE',  ( 0.000000000000000000, 0.000000000000000000, 1.000000000000000000 ) ) ;
#465 = ORIENTED_EDGE ( 'NONE', *, *, #41, .F. ) ;
#466 = CALENDAR_DATE ( 2026, 26, 5 ) ;
#467 = EDGE_CURVE ( 'NONE', #45, #393, #213, .T. ) ;
#468 = ORIENTED_EDGE ( 'NONE', *, *, #546, .T. ) ;
#469 = CARTESIAN_POINT ( 'NONE',  ( -0.8750000000000001110, 0.5000000000000000000, 1.798102362204724303 ) ) ;
#470 = CARTESIAN_POINT ( 'NONE',  ( 0.000000000000000000, 0.000000000000000000, 0.000000000000000000 ) ) ;
#471 = DIRECTION ( 'NONE',  ( 0.000000000000000000, 0.000000000000000000, -1.000000000000000000 ) ) ;
#472 = ORIENTED_EDGE ( 'NONE', *, *, #366, .T. ) ;
#473 = DATE_TIME_ROLE ( 'creation_date' ) ;
#474 = CARTESIAN_POINT ( 'NONE',  ( -0.2499999999999997224, -1.594488189999999861, 1.870078740157480324 ) ) ;
#475 = PERSON_AND_ORGANIZATION ( #153, #101 ) ;
#476 = DIRECTION ( 'NONE',  ( 0.000000000000000000, -1.000000000000000000, 0.000000000000000000 ) ) ;
#477 = MANIFOLD_SOLID_BREP ( 'Fillet1', #104 ) ;
#478 = APPROVAL_DATE_TIME ( #529, #487 ) ;
#479 = DIRECTION ( 'NONE',  ( 0.000000000000000000, 0.000000000000000000, 1.000000000000000000 ) ) ;
#480 = VECTOR ( 'NONE', #381, 39.37007874015748143 ) ;
#481 = EDGE_CURVE ( 'NONE', #116, #504, #639, .T. ) ;
#482 = CIRCLE ( 'NONE', #332, 0.2499999999999999722 ) ;
#483 = ORIENTED_EDGE ( 'NONE', *, *, #376, .F. ) ;
#484 = DIRECTION ( 'NONE',  ( 0.000000000000000000, 1.000000000000000000, -0.000000000000000000 ) ) ;
#485 = EDGE_CURVE ( 'NONE', #417, #412, #647, .T. ) ;
#486 = CARTESIAN_POINT ( 'NONE',  ( -0.8750000000000001110, 0.000000000000000000, 1.931102362204724310 ) ) ;
#487 = APPROVAL ( #46, 'UNSPECIFIED' ) ;
#488 = CARTESIAN_POINT ( 'NONE',  ( -0.2499999999999997224, -1.200787402598424869, 1.732283464566929165 ) ) ;
#489 = VECTOR ( 'NONE', #294, 39.37007874015748143 ) ;
#490 = DIRECTION ( 'NONE',  ( 0.000000000000000000, 0.000000000000000000, 1.000000000000000000 ) ) ;
#491 = ORIENTED_EDGE ( 'NONE', *, *, #603, .F. ) ;
#492 = CARTESIAN_POINT ( 'NONE',  ( -0.2499999999999997224, -1.594488189999999861, 0.6299212598425195653 ) ) ;
#493 = AXIS2_PLACEMENT_3D ( 'NONE', #556, #21, #443 ) ;
#494 = LINE ( 'NONE', #325, #148 ) ;
#495 = ORIENTED_EDGE ( 'NONE', *, *, #516, .T. ) ;
#496 = AXIS2_PLACEMENT_3D ( 'NONE', #365, #574, #433 ) ;
#497 = CC_DESIGN_DATE_AND_TIME_ASSIGNMENT ( #527, #268, ( #337 ) ) ;
#498 = DIRECTION ( 'NONE',  ( 0.000000000000000000, 0.000000000000000000, -1.000000000000000000 ) ) ;
#499 = LINE ( 'NONE', #553, #592 ) ;
#500 = DIRECTION ( 'NONE',  ( 0.000000000000000000, 0.000000000000000000, 1.000000000000000000 ) ) ;
#501 = EDGE_LOOP ( 'NONE', ( #187, #204 ) ) ;
#502 = CARTESIAN_POINT ( 'NONE',  ( -0.2499999999999997224, -1.200787402598424869, 1.870078740157480324 ) ) ;
#503 = CARTESIAN_POINT ( 'NONE',  ( -0.2499999999999997224, -1.594488189999999861, 2.007874015748031482 ) ) ;
#504 = VERTEX_POINT ( 'NONE', #219 ) ;
#505 = DIRECTION ( 'NONE',  ( -0.000000000000000000, -1.000000000000000000, -0.000000000000000000 ) ) ;
#506 = DIRECTION ( 'NONE',  ( -0.000000000000000000, -1.000000000000000000, -0.000000000000000000 ) ) ;
#507 = CARTESIAN_POINT ( 'NONE',  ( -0.2499999999999997224, -1.200787402598424869, 2.007874015748031482 ) ) ;
#508 = ADVANCED_FACE ( 'NONE', ( #535 ), #677, .F. ) ;
#509 = DIRECTION ( 'NONE',  ( 0.000000000000000000, 1.000000000000000000, -0.000000000000000000 ) ) ;
#510 = VECTOR ( 'NONE', #440, 39.37007874015748143 ) ;
#511 = DIRECTION ( 'NONE',  ( 0.000000000000000000, 1.000000000000000000, -0.000000000000000000 ) ) ;
#512 = VECTOR ( 'NONE', #452, 39.37007874015748143 ) ;
#513 = CARTESIAN_POINT ( 'NONE',  ( -1.000000000000000000, 0.5000000000000000000, 2.112204724409448620 ) ) ;
#514 = ORIENTED_EDGE ( 'NONE', *, *, #91, .F. ) ;
#515 = AXIS2_PLACEMENT_3D ( 'NONE', #684, #323, #55 ) ;
#516 = EDGE_CURVE ( 'NONE', #419, #657, #482, .T. ) ;
#517 = ORIENTED_EDGE ( 'NONE', *, *, #260, .T. ) ;
#518 = CARTESIAN_POINT ( 'NONE',  ( 2.892866454678787038E-16, -1.594488189999999861, 2.362204724409448620 ) ) ;
#519 = VERTEX_POINT ( 'NONE', #269 ) ;
#520 = ADVANCED_FACE ( 'NONE', ( #273 ), #108, .F. ) ;
#521 = PERSON_AND_ORGANIZATION ( #153, #101 ) ;
#522 = APPROVAL_PERSON_ORGANIZATION ( #52, #222, #672 ) ;
#523 = DIRECTION ( 'NONE',  ( -1.000000000000000000, 0.000000000000000000, 1.224646799147353454E-16 ) ) ;
#524 = APPROVAL_DATE_TIME ( #370, #617 ) ;
#525 = AXIS2_PLACEMENT_3D ( 'NONE', #186, #568, #413 ) ;
#526 = DIRECTION ( 'NONE',  ( -0.000000000000000000, -1.000000000000000000, 0.000000000000000000 ) ) ;
#527 = DATE_AND_TIME ( #98, #15 ) ;
#528 = DIRECTION ( 'NONE',  ( 0.000000000000000000, 0.000000000000000000, 1.000000000000000000 ) ) ;
#529 = DATE_AND_TIME ( #319, #271 ) ;
#530 = VECTOR ( 'NONE', #343, 39.37007874015748143 ) ;
#531 = AXIS2_PLACEMENT_3D ( 'NONE', #470, #575, #48 ) ;
#532 = CARTESIAN_POINT ( 'NONE',  ( 0.000000000000000000, 0.000000000000000000, 2.362204724409448620 ) ) ;
#533 = ORIENTED_EDGE ( 'NONE', *, *, #481, .F. ) ;
#534 = EDGE_CURVE ( 'NONE', #261, #341, #38, .T. ) ;
#535 = FACE_OUTER_BOUND ( 'NONE', #674, .T. ) ;
#536 = ADVANCED_FACE ( 'NONE', ( #162 ), #368, .T. ) ;
#537 = CARTESIAN_POINT ( 'NONE',  ( -1.000000000000000000, 0.5000000000000000000, 0.2500000000000000555 ) ) ;
#538 = EDGE_CURVE ( 'NONE', #349, #598, #377, .T. ) ;
#539 = ORIENTED_EDGE ( 'NONE', *, *, #285, .F. ) ;
#540 = DIRECTION ( 'NONE',  ( -0.000000000000000000, -1.000000000000000000, -0.000000000000000000 ) ) ;
#541 = LINE ( 'NONE', #167, #576 ) ;
#542 = AXIS2_PLACEMENT_3D ( 'NONE', #563, #509, #464 ) ;
#543 = DIRECTION ( 'NONE',  ( 0.000000000000000000, 1.000000000000000000, -0.000000000000000000 ) ) ;
#544 = ORIENTED_EDGE ( 'NONE', *, *, #434, .F. ) ;
#545 = DIRECTION ( 'NONE',  ( 0.000000000000000000, 0.000000000000000000, -1.000000000000000000 ) ) ;
#546 = EDGE_CURVE ( 'NONE', #170, #333, #99, .T. ) ;
#547 = ORIENTED_EDGE ( 'NONE', *, *, #270, .F. ) ;
#548 = CARTESIAN_POINT ( 'NONE',  ( 0.000000000000000000, -1.594488189999999861, 0.000000000000000000 ) ) ;
#549 = FACE_OUTER_BOUND ( 'NONE', #20, .T. ) ;
#550 = EDGE_LOOP ( 'NONE', ( #257, #288 ) ) ;
#551 = DIRECTION ( 'NONE',  ( -0.000000000000000000, 1.000000000000000000, 0.000000000000000000 ) ) ;
#552 = ADVANCED_FACE ( 'NONE', ( #47 ), #425, .F. ) ;
#553 = CARTESIAN_POINT ( 'NONE',  ( -8.331998792565880161E-33, 0.000000000000000000, 1.020538999289461170E-16 ) ) ;
#554 = ORIENTED_EDGE ( 'NONE', *, *, #309, .F. ) ;
#555 = CYLINDRICAL_SURFACE ( 'NONE', #112, 0.1329999999999999238 ) ;
#556 = CARTESIAN_POINT ( 'NONE',  ( -0.2499999999999997224, -1.200787402598424869, 1.870078740157480324 ) ) ;
#557 = CC_DESIGN_PERSON_AND_ORGANIZATION_ASSIGNMENT ( #619, #218, ( #337 ) ) ;
#558 = DIRECTION ( 'NONE',  ( 1.224646799147353207E-16, 0.000000000000000000, 1.000000000000000000 ) ) ;
#559 = EDGE_LOOP ( 'NONE', ( #182, #661, #89, #465 ) ) ;
#560 = DIRECTION ( 'NONE',  ( 0.000000000000000000, -1.000000000000000000, 0.000000000000000000 ) ) ;
#561 = DIRECTION ( 'NONE',  ( 0.000000000000000000, 0.000000000000000000, 1.000000000000000000 ) ) ;
#562 = VERTEX_POINT ( 'NONE', #659 ) ;
#563 = CARTESIAN_POINT ( 'NONE',  ( -0.8750000000000001110, 0.000000000000000000, 1.931102362204724310 ) ) ;
#564 = EDGE_LOOP ( 'NONE', ( #396, #71, #61, #671, #468, #301 ) ) ;
#565 = CARTESIAN_POINT ( 'NONE',  ( -1.000000000000000000, 0.5000000000000000000, 2.041077998578921909E-17 ) ) ;
#566 = AXIS2_PLACEMENT_3D ( 'NONE', #667, #418, #500 ) ;
#567 = ORIENTED_EDGE ( 'NONE', *, *, #234, .F. ) ;
#568 = DIRECTION ( 'NONE',  ( -0.000000000000000000, -1.000000000000000000, -0.000000000000000000 ) ) ;
#569 = VECTOR ( 'NONE', #56, 39.37007874015748143 ) ;
#570 = CARTESIAN_POINT ( 'NONE',  ( -0.2499999999999997224, -1.200787402598424869, 1.732283464566929165 ) ) ;
#571 = ADVANCED_FACE ( 'NONE', ( #398 ), #612, .F. ) ;
#572 = PERSON_AND_ORGANIZATION_ROLE ( 'creator' ) ;
#573 = PRODUCT_DEFINITION_FORMATION_WITH_SPECIFIED_SOURCE ( 'ANY', '', #627, .NOT_KNOWN. ) ;
#574 = DIRECTION ( 'NONE',  ( -8.164311994315690102E-17, 0.000000000000000000, 1.000000000000000000 ) ) ;
#575 = DIRECTION ( 'NONE',  ( 0.000000000000000000, 0.000000000000000000, 1.000000000000000000 ) ) ;
#576 = VECTOR ( 'NONE', #591, 39.37007874015748143 ) ;
#577 = VECTOR ( 'NONE', #558, 39.37007874015748143 ) ;
#578 = CIRCLE ( 'NONE', #460, 0.1329999999999999793 ) ;
#579 = CARTESIAN_POINT ( 'NONE',  ( 0.000000000000000000, 0.5000000000000000000, 0.000000000000000000 ) ) ;
#580 = COORDINATED_UNIVERSAL_TIME_OFFSET ( 5, 0, .BEHIND. ) ;
#581 = CC_DESIGN_PERSON_AND_ORGANIZATION_ASSIGNMENT ( #424, #628, ( #573 ) ) ;
#582 = CARTESIAN_POINT ( 'NONE',  ( -0.2499999999999997224, -1.200787402598424869, 1.870078740157480324 ) ) ;
#583 = COORDINATED_UNIVERSAL_TIME_OFFSET ( 5, 0, .BEHIND. ) ;
#584 = ORIENTED_EDGE ( 'NONE', *, *, #467, .T. ) ;
#585 = DIRECTION ( 'NONE',  ( 0.000000000000000000, -1.000000000000000000, 0.000000000000000000 ) ) ;
#586 = VERTEX_POINT ( 'NONE', #144 ) ;
#587 = DIRECTION ( 'NONE',  ( -0.000000000000000000, 1.000000000000000000, -0.000000000000000000 ) ) ;
#588 = FACE_BOUND ( 'NONE', #34, .T. ) ;
#589 = DIRECTION ( 'NONE',  ( 0.000000000000000000, 0.000000000000000000, -1.000000000000000000 ) ) ;
#590 = ORIENTED_EDGE ( 'NONE', *, *, #260, .F. ) ;
#591 = DIRECTION ( 'NONE',  ( -1.000000000000000000, 0.000000000000000000, 0.000000000000000000 ) ) ;
#592 = VECTOR ( 'NONE', #395, 39.37007874015748143 ) ;
#593 = VERTEX_POINT ( 'NONE', #605 ) ;
#594 = EDGE_CURVE ( 'NONE', #389, #419, #458, .T. ) ;
#595 = CARTESIAN_POINT ( 'NONE',  ( -1.250000000000000000, 0.000000000000000000, 0.2500000000000000555 ) ) ;
#596 =( NAMED_UNIT ( * ) SI_UNIT ( $, .STERADIAN. ) SOLID_ANGLE_UNIT ( ) );
#597 = CARTESIAN_POINT ( 'NONE',  ( -0.2499999999999997224, -1.200787402598424869, 0.3543307086614172485 ) ) ;
#598 = VERTEX_POINT ( 'NONE', #27 ) ;
#599 = DIRECTION ( 'NONE',  ( -0.000000000000000000, 1.000000000000000000, -0.000000000000000000 ) ) ;
#600 = DIRECTION ( 'NONE',  ( 0.000000000000000000, 0.000000000000000000, 1.000000000000000000 ) ) ;
#601 = EDGE_LOOP ( 'NONE', ( #539, #554, #313, #402 ) ) ;
#602 = FACE_OUTER_BOUND ( 'NONE', #559, .T. ) ;
#603 = EDGE_CURVE ( 'NONE', #504, #419, #668, .T. ) ;
#604 = VECTOR ( 'NONE', #610, 39.37007874015748143 ) ;
#605 = CARTESIAN_POINT ( 'NONE',  ( -1.250000000000000000, 0.5000000000000000000, 2.112204724409448620 ) ) ;
#606 = LINE ( 'NONE', #597, #683 ) ;
#607 = CARTESIAN_POINT ( 'NONE',  ( -0.5000000000000000000, -1.594488189999999861, 6.123233995736767268E-17 ) ) ;
#608 = ORIENTED_EDGE ( 'NONE', *, *, #426, .F. ) ;
#609 = EDGE_LOOP ( 'NONE', ( #334, #135, #651, #40 ) ) ;
#610 = DIRECTION ( 'NONE',  ( 0.000000000000000000, 1.000000000000000000, 0.000000000000000000 ) ) ;
#611 = APPROVAL_PERSON_ORGANIZATION ( #421, #617, #310 ) ;
#612 = CYLINDRICAL_SURFACE ( 'NONE', #669, 0.1377952755905512972 ) ;
#613 = EDGE_LOOP ( 'NONE', ( #584, #175, #547, #644 ) ) ;
#614 = DIRECTION ( 'NONE',  ( -1.000000000000000000, 0.000000000000000000, 1.156482317317871478E-16 ) ) ;
#615 = ORIENTED_EDGE ( 'NONE', *, *, #434, .T. ) ;
#616 = ORIENTED_EDGE ( 'NONE', *, *, #80, .T. ) ;
#617 = APPROVAL ( #678, 'UNSPECIFIED' ) ;
#618 = DIRECTION ( 'NONE',  ( -0.000000000000000000, -1.000000000000000000, -0.000000000000000000 ) ) ;
#619 = PERSON_AND_ORGANIZATION ( #153, #101 ) ;
#620 = CARTESIAN_POINT ( 'NONE',  ( -0.2499999999999997224, -1.200787402598424869, 0.4921259842519684069 ) ) ;
#621 = PERSON_AND_ORGANIZATION_ROLE ( 'creator' ) ;
#622 = DIRECTION ( 'NONE',  ( 0.000000000000000000, 0.000000000000000000, -1.000000000000000000 ) ) ;
#623 = EDGE_CURVE ( 'NONE', #24, #207, #54, .T. ) ;
#624 = AXIS2_PLACEMENT_3D ( 'NONE', #445, #650, #642 ) ;
#625 = CIRCLE ( 'NONE', #225, 0.2500000000000000555 ) ;
#626 = DIRECTION ( 'NONE',  ( 0.000000000000000000, 1.000000000000000000, -0.000000000000000000 ) ) ;
#627 = PRODUCT ( 'X-axis Way Cover Mount', 'X-axis Way Cover Mount', '', ( #106 ) ) ;
#628 = PERSON_AND_ORGANIZATION_ROLE ( 'design_supplier' ) ;
#629 = ORIENTED_EDGE ( 'NONE', *, *, #426, .T. ) ;
#630 = ADVANCED_FACE ( 'NONE', ( #449 ), #649, .T. ) ;
#631 = DIRECTION ( 'NONE',  ( 0.000000000000000000, 0.000000000000000000, -1.000000000000000000 ) ) ;
#632 = CC_DESIGN_APPROVAL ( #617, ( #573 ) ) ;
#633 = ORIENTED_EDGE ( 'NONE', *, *, #485, .T. ) ;
#634 = ADVANCED_FACE ( 'NONE', ( #652, #128, #177 ), #394, .F. ) ;
#635 = CARTESIAN_POINT ( 'NONE',  ( -0.2499999999999997224, -1.200787402598424869, 0.4921259842519684069 ) ) ;
#636 = AXIS2_PLACEMENT_3D ( 'NONE', #179, #233, #326 ) ;
#637 = DIRECTION ( 'NONE',  ( 0.000000000000000000, -1.000000000000000000, 0.000000000000000000 ) ) ;
#638 = FACE_OUTER_BOUND ( 'NONE', #410, .T. ) ;
#639 = CIRCLE ( 'NONE', #49, 0.2499999999999999722 ) ;
#640 = CARTESIAN_POINT ( 'NONE',  ( -1.000000000000000000, 0.000000000000000000, 2.362204724409448620 ) ) ;
#641 = EDGE_CURVE ( 'NONE', #666, #417, #196, .T. ) ;
#642 = DIRECTION ( 'NONE',  ( 0.000000000000000000, 0.000000000000000000, 1.000000000000000000 ) ) ;
#643 = ADVANCED_FACE ( 'NONE', ( #296 ), #246, .T. ) ;
#644 = ORIENTED_EDGE ( 'NONE', *, *, #195, .T. ) ;
#645 = DIRECTION ( 'NONE',  ( 1.156482317317871478E-16, 0.000000000000000000, 1.000000000000000000 ) ) ;
#646 = AXIS2_PLACEMENT_3D ( 'NONE', #537, #223, #545 ) ;
#647 = CIRCLE ( 'NONE', #515, 0.1329999999999999793 ) ;
#648 = EDGE_LOOP ( 'NONE', ( #109, #238 ) ) ;
#649 = PLANE ( 'NONE',  #493 ) ;
#650 = DIRECTION ( 'NONE',  ( 0.000000000000000000, 1.000000000000000000, -0.000000000000000000 ) ) ;
#651 = ORIENTED_EDGE ( 'NONE', *, *, #159, .F. ) ;
#652 = FACE_BOUND ( 'NONE', #501, .T. ) ;
#653 = CARTESIAN_POINT ( 'NONE',  ( -0.2499999999999997224, -1.200787402598424869, 0.4921259842519684069 ) ) ;
#654 = EDGE_CURVE ( 'NONE', #207, #24, #274, .T. ) ;
#655 = CARTESIAN_POINT ( 'NONE',  ( -1.250000000000000000, 0.5000000000000000000, 0.2500000000000000555 ) ) ;
#656 = EDGE_LOOP ( 'NONE', ( #126, #483 ) ) ;
#657 = VERTEX_POINT ( 'NONE', #353 ) ;
#658 = ORIENTED_EDGE ( 'NONE', *, *, #115, .F. ) ;
#659 = CARTESIAN_POINT ( 'NONE',  ( -1.000000000000000000, 0.5000000000000000000, 2.362204724409448620 ) ) ;
#660 = FACE_OUTER_BOUND ( 'NONE', #648, .T. ) ;
#661 = ORIENTED_EDGE ( 'NONE', *, *, #376, .T. ) ;
#662 = FACE_OUTER_BOUND ( 'NONE', #281, .T. ) ;
#663 = VECTOR ( 'NONE', #198, 39.37007874015748143 ) ;
#664 = ORIENTED_EDGE ( 'NONE', *, *, #336, .F. ) ;
#665 = CARTESIAN_POINT ( 'NONE',  ( -8.331998792565880161E-33, 0.5000000000000000000, 1.020538999289461170E-16 ) ) ;
#666 = VERTEX_POINT ( 'NONE', #404 ) ;
#667 = CARTESIAN_POINT ( 'NONE',  ( -0.8750000000000001110, 0.5000000000000000000, 1.931102362204724310 ) ) ;
#668 = LINE ( 'NONE', #565, #351 ) ;
#669 = AXIS2_PLACEMENT_3D ( 'NONE', #502, #290, #498 ) ;
#670 = CYLINDRICAL_SURFACE ( 'NONE', #525, 0.1377952755905512972 ) ;
#671 = ORIENTED_EDGE ( 'NONE', *, *, #270, .T. ) ;
#672 = APPROVAL_ROLE ( '' ) ;
#673 = ADVANCED_FACE ( 'NONE', ( #32 ), #252, .F. ) ;
#674 = EDGE_LOOP ( 'NONE', ( #278, #299, #385, #346 ) ) ;
#675 = CARTESIAN_POINT ( 'NONE',  ( -0.2499999999999997224, -1.200787402598424869, 0.6299212598425195653 ) ) ;
#676 = APPLICATION_PROTOCOL_DEFINITION ( 'international standard', 'config_control_design', 1994, #210 ) ;
#677 = CYLINDRICAL_SURFACE ( 'NONE', #371, 0.1377952755905511584 ) ;
#678 = APPROVAL_STATUS ( 'not_yet_approved' ) ;
#679 = CYLINDRICAL_SURFACE ( 'NONE', #406, 0.1329999999999999793 ) ;
#680 = DIRECTION ( 'NONE',  ( 1.000000000000000000, 0.000000000000000000, -1.224646799147353207E-16 ) ) ;
#681 = SHAPE_DEFINITION_REPRESENTATION ( #322, #53 ) ;
#682 = VECTOR ( 'NONE', #14, 39.37007874015748143 ) ;
#683 = VECTOR ( 'NONE', #291, 39.37007874015748143 ) ;
#684 = CARTESIAN_POINT ( 'NONE',  ( -0.8750000000000001110, 0.000000000000000000, 0.4311023622047244763 ) ) ;
ENDSEC;
END-ISO-10303-21;
