ISO-10303-21;
HEADER;
FILE_DESCRIPTION (( 'STEP AP203' ),
    '1' );
FILE_NAME ('X-axis Way Cover Motor Side.STEP',
    '2026-05-26T16:12:32',
    ( '' ),
    ( '' ),
    'SwSTEP 2.0',
    'SolidWorks 2025',
    '' );
FILE_SCHEMA (( 'CONFIG_CONTROL_DESIGN' ));
ENDSEC;

DATA;
#1 = LINE ( 'NONE', #1236, #1052 ) ;
#2 = ORIENTED_EDGE ( 'NONE', *, *, #279, .T. ) ;
#3 = CARTESIAN_POINT ( 'NONE',  ( 1.769999999999993356, 1.270000000000000240, 49.91099999999999426 ) ) ;
#4 = ADVANCED_FACE ( 'NONE', ( #565 ), #28, .T. ) ;
#5 = CARTESIAN_POINT ( 'NONE',  ( -192.9129999999999825, 0.000000000000000000, 51.18099999999999739 ) ) ;
#6 = LINE ( 'NONE', #309, #543 ) ;
#7 = ORIENTED_EDGE ( 'NONE', *, *, #155, .F. ) ;
#8 = CARTESIAN_POINT ( 'NONE',  ( -69.73149999999996851, -6.349999999999988987, 6.020998786000000713 ) ) ;
#9 = DIRECTION ( 'NONE',  ( -1.000000000000000000, 0.000000000000000000, -0.000000000000000000 ) ) ;
#10 = DIRECTION ( 'NONE',  ( 0.000000000000000000, -1.000000000000000000, -0.000000000000000000 ) ) ;
#11 = EDGE_CURVE ( 'NONE', #1256, #1202, #1007, .T. ) ;
#12 = DIRECTION ( 'NONE',  ( -0.000000000000000000, -0.000000000000000000, -1.000000000000000000 ) ) ;
#13 = ORIENTED_EDGE ( 'NONE', *, *, #396, .T. ) ;
#14 = AXIS2_PLACEMENT_3D ( 'NONE', #283, #1121, #198 ) ;
#15 = LINE ( 'NONE', #842, #1334 ) ;
#16 = AXIS2_PLACEMENT_3D ( 'NONE', #676, #171, #369 ) ;
#17 = ORIENTED_EDGE ( 'NONE', *, *, #847, .F. ) ;
#18 = LINE ( 'NONE', #638, #191 ) ;
#19 = ORIENTED_EDGE ( 'NONE', *, *, #988, .F. ) ;
#20 = EDGE_LOOP ( 'NONE', ( #845, #415, #661, #286 ) ) ;
#21 = CARTESIAN_POINT ( 'NONE',  ( 12.69999999999998153, 2.269999999999994245, 51.18099999999999739 ) ) ;
#22 = ORIENTED_EDGE ( 'NONE', *, *, #296, .T. ) ;
#23 = CARTESIAN_POINT ( 'NONE',  ( -72.60649999999998272, -6.349999999999988987, 11.02099878599999805 ) ) ;
#24 = VERTEX_POINT ( 'NONE', #1132 ) ;
#25 = ADVANCED_FACE ( 'NONE', ( #701 ), #600, .F. ) ;
#26 = DIRECTION ( 'NONE',  ( -1.000000000000000000, 0.000000000000000000, 0.000000000000000000 ) ) ;
#27 = AXIS2_PLACEMENT_3D ( 'NONE', #122, #766, #229 ) ;
#28 = PLANE ( 'NONE',  #1308 ) ;
#29 = DIRECTION ( 'NONE',  ( 0.000000000000000000, 0.000000000000000000, -1.000000000000000000 ) ) ;
#30 = VECTOR ( 'NONE', #612, 1000.000000000000000 ) ;
#31 = ORIENTED_EDGE ( 'NONE', *, *, #337, .F. ) ;
#32 = DIRECTION ( 'NONE',  ( -0.000000000000000000, -1.000000000000000000, -0.000000000000000000 ) ) ;
#33 = CARTESIAN_POINT ( 'NONE',  ( -59.60650000000000404, -9.700000000000001066, 51.18099999999999028 ) ) ;
#34 = FACE_OUTER_BOUND ( 'NONE', #587, .T. ) ;
#35 = ORIENTED_EDGE ( 'NONE', *, *, #934, .T. ) ;
#36 = DIRECTION ( 'NONE',  ( -1.000000000000000000, 0.000000000000000000, 0.000000000000000000 ) ) ;
#37 = AXIS2_PLACEMENT_3D ( 'NONE', #90, #596, #895 ) ;
#38 = ORIENTED_EDGE ( 'NONE', *, *, #597, .T. ) ;
#39 = CARTESIAN_POINT ( 'NONE',  ( -104.7314999999999827, -6.349999999999983658, 51.18100000000001870 ) ) ;
#40 = ORIENTED_EDGE ( 'NONE', *, *, #361, .T. ) ;
#41 = FACE_OUTER_BOUND ( 'NONE', #1102, .T. ) ;
#42 = EDGE_CURVE ( 'NONE', #899, #1269, #809, .T. ) ;
#43 = DIRECTION ( 'NONE',  ( 0.000000000000000000, -1.000000000000000000, 0.000000000000000000 ) ) ;
#44 = ORIENTED_EDGE ( 'NONE', *, *, #155, .T. ) ;
#45 = LINE ( 'NONE', #464, #106 ) ;
#46 = ORIENTED_EDGE ( 'NONE', *, *, #955, .T. ) ;
#47 = APPLICATION_PROTOCOL_DEFINITION ( 'international standard', 'config_control_design', 1994, #51 ) ;
#48 = CARTESIAN_POINT ( 'NONE',  ( -19.05000000000001137, 4.445000000000000284, -1.770000000000038431 ) ) ;
#49 = VECTOR ( 'NONE', #747, 1000.000000000000000 ) ;
#50 = EDGE_CURVE ( 'NONE', #743, #172, #1111, .T. ) ;
#51 = APPLICATION_CONTEXT ( 'configuration controlled 3d designs of mechanical parts and assemblies' ) ;
#52 = CARTESIAN_POINT ( 'NONE',  ( -69.73149999999996851, -6.349999999999988987, 51.18100000000001160 ) ) ;
#53 = ORIENTED_EDGE ( 'NONE', *, *, #669, .T. ) ;
#54 = MECHANICAL_CONTEXT ( 'NONE', #570, 'mechanical' ) ;
#55 = VECTOR ( 'NONE', #1152, 1000.000000000000000 ) ;
#56 = CARTESIAN_POINT ( 'NONE',  ( -12.63649999999999451, -9.700000000000001066, 11.02099878600000160 ) ) ;
#57 = VECTOR ( 'NONE', #206, 1000.000000000000114 ) ;
#58 = APPROVAL ( #477, 'UNSPECIFIED' ) ;
#59 = VECTOR ( 'NONE', #574, 1000.000000000000000 ) ;
#60 = FACE_OUTER_BOUND ( 'NONE', #1045, .T. ) ;
#61 = EDGE_CURVE ( 'NONE', #123, #1245, #1001, .T. ) ;
#62 = ORIENTED_EDGE ( 'NONE', *, *, #940, .F. ) ;
#63 = LINE ( 'NONE', #482, #971 ) ;
#64 = ORIENTED_EDGE ( 'NONE', *, *, #1033, .T. ) ;
#65 = DIRECTION ( 'NONE',  ( 0.000000000000000000, 0.000000000000000000, 1.000000000000000000 ) ) ;
#66 = CARTESIAN_POINT ( 'NONE',  ( -181.9829999999999757, 2.269999999999994245, 21.58999999999998209 ) ) ;
#67 = ORIENTED_EDGE ( 'NONE', *, *, #526, .T. ) ;
#68 = CARTESIAN_POINT ( 'NONE',  ( -107.6064999999999827, -6.349999999999983658, 6.020998786000000713 ) ) ;
#69 = EDGE_CURVE ( 'NONE', #643, #571, #505, .T. ) ;
#70 = CARTESIAN_POINT ( 'NONE',  ( -120.6064999999999827, -9.700000000000001066, 51.18099999999999028 ) ) ;
#71 = VERTEX_POINT ( 'NONE', #520 ) ;
#72 = PERSON_AND_ORGANIZATION_ROLE ( 'creator' ) ;
#73 = FACE_OUTER_BOUND ( 'NONE', #583, .T. ) ;
#74 = PLANE ( 'NONE',  #945 ) ;
#75 = CARTESIAN_POINT ( 'NONE',  ( 1.769999999999993356, 2.269999999999994245, -1.770000000000002016 ) ) ;
#76 = CC_DESIGN_PERSON_AND_ORGANIZATION_ASSIGNMENT ( #100, #618, ( #390 ) ) ;
#77 = ORIENTED_EDGE ( 'NONE', *, *, #378, .T. ) ;
#78 = LINE ( 'NONE', #157, #342 ) ;
#79 = CARTESIAN_POINT ( 'NONE',  ( -72.60649999999998272, -6.349999999999988987, 23.74892084735787279 ) ) ;
#80 = VERTEX_POINT ( 'NONE', #1234 ) ;
#81 = DIRECTION ( 'NONE',  ( -1.365923996832132842E-16, 0.000000000000000000, -1.000000000000000000 ) ) ;
#82 = AXIS2_PLACEMENT_3D ( 'NONE', #1258, #625, #133 ) ;
#83 = CARTESIAN_POINT ( 'NONE',  ( -176.4029999999999632, -1.208654451933713058E-15, 49.91099999999999426 ) ) ;
#84 = VECTOR ( 'NONE', #620, 1000.000000000000114 ) ;
#85 = CARTESIAN_POINT ( 'NONE',  ( -19.05000000000001137, 2.269999999999994245, -1.770000000000002016 ) ) ;
#86 = CARTESIAN_POINT ( 'NONE',  ( -120.6064999999999827, -9.700000000000001066, 11.02099878600000160 ) ) ;
#87 = ADVANCED_FACE ( 'NONE', ( #1312 ), #619, .T. ) ;
#88 = ORIENTED_EDGE ( 'NONE', *, *, #366, .T. ) ;
#89 = EDGE_LOOP ( 'NONE', ( #914, #136, #1068, #864 ) ) ;
#90 = CARTESIAN_POINT ( 'NONE',  ( -72.60649999999998272, -6.349999999999988987, 11.02099878599999805 ) ) ;
#91 = DIRECTION ( 'NONE',  ( 0.000000000000000000, 0.000000000000000000, -1.000000000000000000 ) ) ;
#92 = AXIS2_PLACEMENT_3D ( 'NONE', #333, #632, #102 ) ;
#93 = PLANE ( 'NONE',  #517 ) ;
#94 = CARTESIAN_POINT ( 'NONE',  ( -104.7314999999999827, -6.349999999999983658, 6.020998786000000713 ) ) ;
#95 = EDGE_LOOP ( 'NONE', ( #1037, #44 ) ) ;
#96 = EDGE_CURVE ( 'NONE', #700, #1332, #906, .T. ) ;
#97 = CARTESIAN_POINT ( 'NONE',  ( 12.69999999999998863, -12.69999999999998863, 51.18099999999999739 ) ) ;
#98 = APPROVAL_PERSON_ORGANIZATION ( #1316, #1064, #593 ) ;
#99 = DIRECTION ( 'NONE',  ( 0.000000000000000000, -1.000000000000000000, 0.000000000000000000 ) ) ;
#100 = PERSON_AND_ORGANIZATION ( #1021, #512 ) ;
#101 = DIRECTION ( 'NONE',  ( 1.000000000000000000, 0.000000000000000000, 0.000000000000000000 ) ) ;
#102 = DIRECTION ( 'NONE',  ( -1.000000000000000000, 0.000000000000000000, 1.927470528863123239E-16 ) ) ;
#103 = PLANE ( 'NONE',  #1285 ) ;
#104 = VERTEX_POINT ( 'NONE', #190 ) ;
#105 = EDGE_CURVE ( 'NONE', #559, #168, #929, .T. ) ;
#106 = VECTOR ( 'NONE', #759, 1000.000000000000000 ) ;
#107 = SECURITY_CLASSIFICATION_LEVEL ( 'unclassified' ) ;
#108 = DIRECTION ( 'NONE',  ( -1.000000000000000000, 0.000000000000000000, 0.000000000000000000 ) ) ;
#109 = AXIS2_PLACEMENT_3D ( 'NONE', #389, #144, #871 ) ;
#110 = DIRECTION ( 'NONE',  ( -0.000000000000000000, 0.000000000000000000, 1.000000000000000000 ) ) ;
#111 = DIRECTION ( 'NONE',  ( -1.000000000000000000, 0.000000000000000000, 1.927470528863117569E-16 ) ) ;
#112 = ORIENTED_EDGE ( 'NONE', *, *, #950, .T. ) ;
#113 = ADVANCED_FACE ( 'NONE', ( #401 ), #422, .T. ) ;
#114 = PERSON_AND_ORGANIZATION_ROLE ( 'design_supplier' ) ;
#115 = LINE ( 'NONE', #537, #170 ) ;
#116 = DIRECTION ( 'NONE',  ( 0.000000000000000000, -1.000000000000000000, 0.000000000000000000 ) ) ;
#117 = PLANE ( 'NONE',  #367 ) ;
#118 = ORIENTED_EDGE ( 'NONE', *, *, #314, .F. ) ;
#119 = VECTOR ( 'NONE', #1175, 1000.000000000000000 ) ;
#120 = CARTESIAN_POINT ( 'NONE',  ( -161.1629999999999825, 4.445000000000000284, 3.809999999999999609 ) ) ;
#121 = ORIENTED_EDGE ( 'NONE', *, *, #50, .F. ) ;
#122 = CARTESIAN_POINT ( 'NONE',  ( -72.60649999999998272, -6.349999999999988987, 51.18100000000001160 ) ) ;
#123 = VERTEX_POINT ( 'NONE', #706 ) ;
#124 = VECTOR ( 'NONE', #1306, 1000.000000000000000 ) ;
#125 = VECTOR ( 'NONE', #1094, 1000.000000000000000 ) ;
#126 = DIRECTION ( 'NONE',  ( -6.103324382627934694E-17, 0.000000000000000000, -1.000000000000000000 ) ) ;
#127 = AXIS2_PLACEMENT_3D ( 'NONE', #821, #1230, #316 ) ;
#128 = VERTEX_POINT ( 'NONE', #1327 ) ;
#129 = CARTESIAN_POINT ( 'NONE',  ( -167.5764999999999816, 212.9456876847032731, 0.000000000000000000 ) ) ;
#130 = VERTEX_POINT ( 'NONE', #183 ) ;
#131 = ADVANCED_FACE ( 'NONE', ( #406 ), #1210, .T. ) ;
#132 = ORIENTED_EDGE ( 'NONE', *, *, #61, .T. ) ;
#133 = DIRECTION ( 'NONE',  ( -1.000000000000000000, 0.000000000000000000, 1.927470528863117569E-16 ) ) ;
#134 = ORIENTED_EDGE ( 'NONE', *, *, #769, .F. ) ;
#135 = CARTESIAN_POINT ( 'NONE',  ( -59.60650000000000404, -12.69999999999998863, 11.02099878600000160 ) ) ;
#136 = ORIENTED_EDGE ( 'NONE', *, *, #1213, .F. ) ;
#137 = ADVANCED_FACE ( 'NONE', ( #73 ), #93, .T. ) ;
#138 = VERTEX_POINT ( 'NONE', #293 ) ;
#139 = ORIENTED_EDGE ( 'NONE', *, *, #254, .T. ) ;
#140 = FACE_OUTER_BOUND ( 'NONE', #95, .T. ) ;
#141 = ORIENTED_EDGE ( 'NONE', *, *, #573, .F. ) ;
#142 = FACE_OUTER_BOUND ( 'NONE', #432, .T. ) ;
#143 = EDGE_LOOP ( 'NONE', ( #121, #252, #1051, #308, #1253, #67, #784, #341 ) ) ;
#144 = DIRECTION ( 'NONE',  ( -1.365923996832132842E-16, -0.000000000000000000, -1.000000000000000000 ) ) ;
#145 = VECTOR ( 'NONE', #1014, 1000.000000000000000 ) ;
#146 = EDGE_LOOP ( 'NONE', ( #692, #233 ) ) ;
#147 = ADVANCED_FACE ( 'NONE', ( #901 ), #1205, .F. ) ;
#148 = CARTESIAN_POINT ( 'NONE',  ( -110.4814999999999827, -6.349999999999983658, 11.02099878600000515 ) ) ;
#149 = ORIENTED_EDGE ( 'NONE', *, *, #1113, .F. ) ;
#150 = DIRECTION ( 'NONE',  ( 0.000000000000000000, -1.000000000000000000, 0.000000000000000000 ) ) ;
#151 = CARTESIAN_POINT ( 'NONE',  ( -167.5764999999999816, -9.700000000000001066, 11.02099878600000160 ) ) ;
#152 = AXIS2_PLACEMENT_3D ( 'NONE', #581, #782, #805 ) ;
#153 = VECTOR ( 'NONE', #36, 1000.000000000000000 ) ;
#154 = DIRECTION ( 'NONE',  ( 1.000000000000000000, 0.000000000000000000, 0.000000000000000000 ) ) ;
#155 = EDGE_CURVE ( 'NONE', #893, #24, #812, .T. ) ;
#156 = ORIENTED_EDGE ( 'NONE', *, *, #1302, .F. ) ;
#157 = CARTESIAN_POINT ( 'NONE',  ( 12.69999999999998508, 2.269999999999994245, 51.18099999999999739 ) ) ;
#158 = VERTEX_POINT ( 'NONE', #85 ) ;
#159 = CARTESIAN_POINT ( 'NONE',  ( -167.5764999999999816, -9.700000000000001066, 51.18099999999999739 ) ) ;
#160 = FACE_BOUND ( 'NONE', #985, .T. ) ;
#161 = EDGE_LOOP ( 'NONE', ( #1160, #246, #38, #1278, #443, #922 ) ) ;
#162 = DATE_AND_TIME ( #181, #919 ) ;
#163 = CC_DESIGN_DATE_AND_TIME_ASSIGNMENT ( #793, #905, ( #824 ) ) ;
#164 = VERTEX_POINT ( 'NONE', #1020 ) ;
#165 = DIRECTION ( 'NONE',  ( 0.000000000000000000, 0.000000000000000000, -1.000000000000000000 ) ) ;
#166 = LOCAL_TIME ( 12, 12, 32.00000000000000000, #935 ) ;
#167 = ADVANCED_FACE ( 'NONE', ( #544 ), #1238, .F. ) ;
#168 = VERTEX_POINT ( 'NONE', #1162 ) ;
#169 = DIRECTION ( 'NONE',  ( 0.000000000000000000, 0.000000000000000000, 1.000000000000000000 ) ) ;
#170 = VECTOR ( 'NONE', #751, 1000.000000000000000 ) ;
#171 = DIRECTION ( 'NONE',  ( -0.000000000000000000, 0.000000000000000000, 1.000000000000000000 ) ) ;
#172 = VERTEX_POINT ( 'NONE', #21 ) ;
#173 = DIRECTION ( 'NONE',  ( 0.000000000000000000, 7.656524645920016286E-18, 1.000000000000000000 ) ) ;
#174 = ORIENTED_EDGE ( 'NONE', *, *, #775, .F. ) ;
#175 = VECTOR ( 'NONE', #974, 1000.000000000000000 ) ;
#176 = ADVANCED_FACE ( 'NONE', ( #732 ), #217, .F. ) ;
#177 = LINE ( 'NONE', #1214, #816 ) ;
#178 = VECTOR ( 'NONE', #506, 1000.000000000000000 ) ;
#179 = CARTESIAN_POINT ( 'NONE',  ( -192.9129999999999825, 2.269999999999994245, 51.18099999999999739 ) ) ;
#180 = ORIENTED_EDGE ( 'NONE', *, *, #1265, .T. ) ;
#181 = CALENDAR_DATE ( 2026, 26, 5 ) ;
#182 = ORIENTED_EDGE ( 'NONE', *, *, #573, .T. ) ;
#183 = CARTESIAN_POINT ( 'NONE',  ( -75.48149999999998272, -6.349999999999988987, 11.02099878599999805 ) ) ;
#184 = ORIENTED_EDGE ( 'NONE', *, *, #442, .T. ) ;
#185 = EDGE_CURVE ( 'NONE', #1034, #615, #115, .T. ) ;
#186 = CARTESIAN_POINT ( 'NONE',  ( -120.6064999999999827, -12.69999999999999929, 11.02099878600000160 ) ) ;
#187 = CARTESIAN_POINT ( 'NONE',  ( 12.69999999999998863, -12.69999999999998863, -5.489001213999998185 ) ) ;
#188 = EDGE_LOOP ( 'NONE', ( #629, #1142, #1040, #707 ) ) ;
#189 = DIRECTION ( 'NONE',  ( 6.122193184454189221E-17, 0.000000000000000000, -1.000000000000000000 ) ) ;
#190 = CARTESIAN_POINT ( 'NONE',  ( -161.1629999999999825, 2.269999999999994245, -1.770000000000002016 ) ) ;
#191 = VECTOR ( 'NONE', #863, 1000.000000000000000 ) ;
#192 = DIRECTION ( 'NONE',  ( -1.000000000000000000, 0.000000000000000000, -0.000000000000000000 ) ) ;
#193 = DIRECTION ( 'NONE',  ( 1.000000000000000000, 0.000000000000000000, 0.000000000000000000 ) ) ;
#194 = ADVANCED_FACE ( 'NONE', ( #428 ), #631, .F. ) ;
#195 = DIRECTION ( 'NONE',  ( -1.000000000000000000, 0.000000000000000000, 0.000000000000000000 ) ) ;
#196 = CIRCLE ( 'NONE', #14, 4.499999999999990230 ) ;
#197 = ORIENTED_EDGE ( 'NONE', *, *, #473, .T. ) ;
#198 = DIRECTION ( 'NONE',  ( -1.000000000000000000, 0.000000000000000000, 1.927470528863123239E-16 ) ) ;
#199 = VECTOR ( 'NONE', #610, 1000.000000000000000 ) ;
#200 = DIRECTION ( 'NONE',  ( -0.000000000000000000, -0.000000000000000000, 1.000000000000000000 ) ) ;
#201 = EDGE_CURVE ( 'NONE', #221, #451, #344, .T. ) ;
#202 = DIRECTION ( 'NONE',  ( -1.365923996832133088E-16, -0.000000000000000000, -1.000000000000000000 ) ) ;
#203 = LINE ( 'NONE', #921, #757 ) ;
#204 = ORIENTED_EDGE ( 'NONE', *, *, #1013, .F. ) ;
#205 = CARTESIAN_POINT ( 'NONE',  ( -68.10649999999996851, -6.349999999999988098, -5.489001214000015061 ) ) ;
#206 = DIRECTION ( 'NONE',  ( -0.7071067811865457964, -0.000000000000000000, -0.7071067811865492381 ) ) ;
#207 = COORDINATED_UNIVERSAL_TIME_OFFSET ( 5, 0, .BEHIND. ) ;
#208 = DIRECTION ( 'NONE',  ( -1.365923996832132842E-16, -0.000000000000000000, -1.000000000000000000 ) ) ;
#209 = CARTESIAN_POINT ( 'NONE',  ( -69.73149999999996851, -6.349999999999988987, 11.02099878599999805 ) ) ;
#210 = EDGE_CURVE ( 'NONE', #553, #379, #745, .T. ) ;
#211 = ORIENTED_EDGE ( 'NONE', *, *, #1065, .T. ) ;
#212 = EDGE_CURVE ( 'NONE', #1332, #883, #636, .T. ) ;
#213 = CARTESIAN_POINT ( 'NONE',  ( -155.5829999999999700, 1.270000000000000018, 3.809999999999999165 ) ) ;
#214 = VECTOR ( 'NONE', #831, 1000.000000000000000 ) ;
#215 = ORIENTED_EDGE ( 'NONE', *, *, #630, .F. ) ;
#216 = CALENDAR_DATE ( 2026, 26, 5 ) ;
#217 = PLANE ( 'NONE',  #1328 ) ;
#218 = DIRECTION ( 'NONE',  ( 0.000000000000000000, 0.000000000000000000, -1.000000000000000000 ) ) ;
#219 = DIRECTION ( 'NONE',  ( 1.000000000000000000, 0.000000000000000000, 0.000000000000000000 ) ) ;
#220 = EDGE_CURVE ( 'NONE', #1301, #71, #836, .T. ) ;
#221 = VERTEX_POINT ( 'NONE', #439 ) ;
#222 = VECTOR ( 'NONE', #275, 1000.000000000000000 ) ;
#223 = CARTESIAN_POINT ( 'NONE',  ( 0.000000000000000000, 1.270000000000000018, 0.000000000000000000 ) ) ;
#224 = LINE ( 'NONE', #1043, #790 ) ;
#225 = DIRECTION ( 'NONE',  ( -1.000000000000000000, 2.916201808798666708E-16, 0.000000000000000000 ) ) ;
#226 = ORIENTED_EDGE ( 'NONE', *, *, #361, .F. ) ;
#227 = DIRECTION ( 'NONE',  ( 0.000000000000000000, 0.000000000000000000, 1.000000000000000000 ) ) ;
#228 = ORIENTED_EDGE ( 'NONE', *, *, #907, .F. ) ;
#229 = DIRECTION ( 'NONE',  ( -1.000000000000000000, 0.000000000000000000, 0.000000000000000000 ) ) ;
#230 = LINE ( 'NONE', #97, #242 ) ;
#231 = EDGE_LOOP ( 'NONE', ( #1323, #323, #542, #139 ) ) ;
#232 = CC_DESIGN_APPROVAL ( #1064, ( #408 ) ) ;
#233 = ORIENTED_EDGE ( 'NONE', *, *, #785, .F. ) ;
#234 = VECTOR ( 'NONE', #722, 1000.000000000000000 ) ;
#235 = DIRECTION ( 'NONE',  ( 0.000000000000000000, 1.000000000000000000, 0.000000000000000000 ) ) ;
#236 = ADVANCED_FACE ( 'NONE', ( #527 ), #651, .T. ) ;
#237 = ORIENTED_EDGE ( 'NONE', *, *, #806, .F. ) ;
#238 = CARTESIAN_POINT ( 'NONE',  ( 0.000000000000000000, 1.270000000000000018, 0.000000000000000000 ) ) ;
#239 = EDGE_LOOP ( 'NONE', ( #1008, #1330, #623, #1270 ) ) ;
#240 = AXIS2_PLACEMENT_3D ( 'NONE', #604, #510, #1321 ) ;
#241 = VERTEX_POINT ( 'NONE', #1138 ) ;
#242 = VECTOR ( 'NONE', #437, 1000.000000000000000 ) ;
#243 = VECTOR ( 'NONE', #270, 1000.000000000000000 ) ;
#244 = CARTESIAN_POINT ( 'NONE',  ( -167.5764999999999816, -12.69999999999998863, 51.18099999999999739 ) ) ;
#245 = VECTOR ( 'NONE', #1090, 1000.000000000000000 ) ;
#246 = ORIENTED_EDGE ( 'NONE', *, *, #1089, .T. ) ;
#247 = FACE_BOUND ( 'NONE', #146, .T. ) ;
#248 = EDGE_CURVE ( 'NONE', #1255, #1212, #1060, .T. ) ;
#249 = ORIENTED_EDGE ( 'NONE', *, *, #579, .T. ) ;
#250 = ORIENTED_EDGE ( 'NONE', *, *, #728, .T. ) ;
#251 = CARTESIAN_POINT ( 'NONE',  ( -180.2129999999999939, 4.445000000000000284, -5.489001213999999074 ) ) ;
#252 = ORIENTED_EDGE ( 'NONE', *, *, #1249, .T. ) ;
#253 = CARTESIAN_POINT ( 'NONE',  ( -3.810000000000035580, 3.106988124944954422E-13, 49.91099999999999426 ) ) ;
#254 = EDGE_CURVE ( 'NONE', #256, #749, #796, .T. ) ;
#255 = VERTEX_POINT ( 'NONE', #8 ) ;
#256 = VERTEX_POINT ( 'NONE', #1243 ) ;
#257 = LINE ( 'NONE', #1188, #243 ) ;
#258 = ORIENTED_EDGE ( 'NONE', *, *, #449, .T. ) ;
#259 = DIRECTION ( 'NONE',  ( 0.000000000000000000, -1.000000000000000000, 0.000000000000000000 ) ) ;
#260 = LINE ( 'NONE', #1085, #909 ) ;
#261 = EDGE_CURVE ( 'NONE', #158, #799, #936, .T. ) ;
#262 = CARTESIAN_POINT ( 'NONE',  ( -68.10649999999996851, -6.349999999999988098, 23.74892084735787279 ) ) ;
#263 = ORIENTED_EDGE ( 'NONE', *, *, #212, .F. ) ;
#264 = DIRECTION ( 'NONE',  ( 0.7071067811865474617, -0.000000000000000000, -0.7071067811865474617 ) ) ;
#265 = EDGE_LOOP ( 'NONE', ( #753, #1087, #22, #149 ) ) ;
#266 = CARTESIAN_POINT ( 'NONE',  ( 12.69999999999998863, -12.69999999999998863, -5.489001213999998185 ) ) ;
#267 = VECTOR ( 'NONE', #26, 1000.000000000000000 ) ;
#268 = AXIS2_PLACEMENT_3D ( 'NONE', #374, #781, #986 ) ;
#269 = EDGE_CURVE ( 'NONE', #516, #976, #15, .T. ) ;
#270 = DIRECTION ( 'NONE',  ( 0.000000000000000000, 0.000000000000000000, -1.000000000000000000 ) ) ;
#271 = ORIENTED_EDGE ( 'NONE', *, *, #1134, .F. ) ;
#272 = LINE ( 'NONE', #877, #1048 ) ;
#273 = ORIENTED_EDGE ( 'NONE', *, *, #1225, .F. ) ;
#274 = DIRECTION ( 'NONE',  ( 0.000000000000000000, 1.000000000000000000, -0.000000000000000000 ) ) ;
#275 = DIRECTION ( 'NONE',  ( -0.000000000000000000, -0.000000000000000000, 1.000000000000000000 ) ) ;
#276 = DIRECTION ( 'NONE',  ( -1.365923996832133088E-16, -0.000000000000000000, -1.000000000000000000 ) ) ;
#277 = ORIENTED_EDGE ( 'NONE', *, *, #720, .T. ) ;
#278 = CARTESIAN_POINT ( 'NONE',  ( -19.05000000000001137, 2.270000000000000462, -1.770000000000038431 ) ) ;
#279 = EDGE_CURVE ( 'NONE', #1212, #379, #957, .T. ) ;
#280 = CARTESIAN_POINT ( 'NONE',  ( -12.63649999999999451, -9.700000000000001066, 11.02099878600000160 ) ) ;
#281 = AXIS2_PLACEMENT_3D ( 'NONE', #307, #110, #714 ) ;
#282 = ORIENTED_EDGE ( 'NONE', *, *, #1265, .F. ) ;
#283 = CARTESIAN_POINT ( 'NONE',  ( -107.6064999999999827, -6.349999999999983658, -5.489001214000008844 ) ) ;
#284 = AXIS2_PLACEMENT_3D ( 'NONE', #313, #804, #412 ) ;
#285 = FACE_OUTER_BOUND ( 'NONE', #970, .T. ) ;
#286 = ORIENTED_EDGE ( 'NONE', *, *, #220, .F. ) ;
#287 = DIRECTION ( 'NONE',  ( 0.000000000000000000, 0.000000000000000000, -1.000000000000000000 ) ) ;
#288 = APPROVAL ( #731, 'UNSPECIFIED' ) ;
#289 = VECTOR ( 'NONE', #200, 1000.000000000000000 ) ;
#290 = LINE ( 'NONE', #1099, #222 ) ;
#291 = DIRECTION ( 'NONE',  ( 1.000000000000000000, 0.000000000000000000, 0.000000000000000000 ) ) ;
#292 = ORIENTED_EDGE ( 'NONE', *, *, #50, .T. ) ;
#293 = CARTESIAN_POINT ( 'NONE',  ( 12.69999999999998863, 2.269999999999994245, -5.489001213999998185 ) ) ;
#294 = EDGE_LOOP ( 'NONE', ( #359, #1054, #1157, #599 ) ) ;
#295 = CARTESIAN_POINT ( 'NONE',  ( -3.810000000000007603, 4.445000000000000284, 27.17000000000000881 ) ) ;
#296 = EDGE_CURVE ( 'NONE', #1255, #1272, #848, .T. ) ;
#297 = CARTESIAN_POINT ( 'NONE',  ( -59.60650000000000404, -9.700000000000001066, 51.18099999999999028 ) ) ;
#298 = CARTESIAN_POINT ( 'NONE',  ( -101.7865000000004301, 1.270000000000000018, 101.7864999999999469 ) ) ;
#299 = AXIS2_PLACEMENT_3D ( 'NONE', #1273, #364, #1076 ) ;
#300 = VERTEX_POINT ( 'NONE', #738 ) ;
#301 = VECTOR ( 'NONE', #850, 1000.000000000000000 ) ;
#302 = DIRECTION ( 'NONE',  ( -1.000000000000000000, 0.000000000000000000, -1.477303364681121271E-16 ) ) ;
#303 = EDGE_CURVE ( 'NONE', #571, #743, #1149, .T. ) ;
#304 = LINE ( 'NONE', #710, #289 ) ;
#305 = DIRECTION ( 'NONE',  ( 0.000000000000000000, -1.000000000000000000, 0.000000000000000000 ) ) ;
#306 = CIRCLE ( 'NONE', #474, 4.500000000000003553 ) ;
#307 = CARTESIAN_POINT ( 'NONE',  ( -107.6064999999999827, -6.349999999999983658, 11.02099878600000515 ) ) ;
#308 = ORIENTED_EDGE ( 'NONE', *, *, #1213, .T. ) ;
#309 = CARTESIAN_POINT ( 'NONE',  ( -181.9829999999999757, 0.000000000000000000, -1.770000000000002016 ) ) ;
#310 = VECTOR ( 'NONE', #880, 1000.000000000000000 ) ;
#311 = DIRECTION ( 'NONE',  ( 0.7071067811865457964, -0.000000000000000000, 0.7071067811865492381 ) ) ;
#312 = ADVANCED_FACE ( 'NONE', ( #450 ), #684, .F. ) ;
#313 = CARTESIAN_POINT ( 'NONE',  ( 0.000000000000000000, 0.000000000000000000, 51.18099999999999739 ) ) ;
#314 = EDGE_CURVE ( 'NONE', #1260, #947, #983, .T. ) ;
#315 = DIRECTION ( 'NONE',  ( -0.7071067811865492381, 0.000000000000000000, 0.7071067811865457964 ) ) ;
#316 = DIRECTION ( 'NONE',  ( 1.000000000000000000, 0.000000000000000000, 0.000000000000000000 ) ) ;
#317 = ORIENTED_EDGE ( 'NONE', *, *, #872, .F. ) ;
#318 = CARTESIAN_POINT ( 'NONE',  ( -12.63649999999999451, 212.9456876847032731, 0.000000000000000000 ) ) ;
#319 = DIRECTION ( 'NONE',  ( 0.000000000000000000, 0.000000000000000000, -1.000000000000000000 ) ) ;
#320 = DIRECTION ( 'NONE',  ( -1.000000000000000000, 0.000000000000000000, 0.000000000000000000 ) ) ;
#321 = EDGE_CURVE ( 'NONE', #552, #158, #1173, .T. ) ;
#322 = CARTESIAN_POINT ( 'NONE',  ( -3.810000000000007603, 2.269999999999994245, 51.18099999999999739 ) ) ;
#323 = ORIENTED_EDGE ( 'NONE', *, *, #703, .F. ) ;
#324 = CARTESIAN_POINT ( 'NONE',  ( -3.810000000000007603, 2.269999999999994245, 21.58999999999999631 ) ) ;
#325 = VECTOR ( 'NONE', #920, 1000.000000000000000 ) ;
#326 = MANIFOLD_SOLID_BREP ( 'Boss-Extrude18', #1031 ) ;
#327 = LINE ( 'NONE', #1015, #851 ) ;
#328 = CARTESIAN_POINT ( 'NONE',  ( -167.5764999999999816, 0.000000000000000000, 0.000000000000000000 ) ) ;
#329 = VERTEX_POINT ( 'NONE', #148 ) ;
#330 = AXIS2_PLACEMENT_3D ( 'NONE', #251, #458, #1315 ) ;
#331 = DIRECTION ( 'NONE',  ( 0.000000000000000000, -1.000000000000000000, 0.000000000000000000 ) ) ;
#332 = VERTEX_POINT ( 'NONE', #979 ) ;
#333 = CARTESIAN_POINT ( 'NONE',  ( -107.6064999999999827, -6.349999999999983658, -5.489001214000008844 ) ) ;
#334 = VECTOR ( 'NONE', #1145, 1000.000000000000000 ) ;
#335 = CARTESIAN_POINT ( 'NONE',  ( -107.6064999999999827, -6.349999999999983658, 6.020998786000000713 ) ) ;
#336 = ORIENTED_EDGE ( 'NONE', *, *, #343, .T. ) ;
#337 = EDGE_CURVE ( 'NONE', #1118, #255, #889, .T. ) ;
#338 = CARTESIAN_POINT ( 'NONE',  ( 1.769999999999993356, 0.000000000000000000, 49.91099999999999426 ) ) ;
#339 = ORIENTED_EDGE ( 'NONE', *, *, #814, .T. ) ;
#340 = DIRECTION ( 'NONE',  ( 0.7071067811865492381, 0.000000000000000000, -0.7071067811865457964 ) ) ;
#341 = ORIENTED_EDGE ( 'NONE', *, *, #1225, .T. ) ;
#342 = VECTOR ( 'NONE', #189, 1000.000000000000000 ) ;
#343 = EDGE_CURVE ( 'NONE', #893, #749, #564, .T. ) ;
#344 = LINE ( 'NONE', #1143, #963 ) ;
#345 = ORIENTED_EDGE ( 'NONE', *, *, #1189, .F. ) ;
#346 = FACE_OUTER_BOUND ( 'NONE', #652, .T. ) ;
#347 = VECTOR ( 'NONE', #305, 1000.000000000000000 ) ;
#348 = ORIENTED_EDGE ( 'NONE', *, *, #762, .T. ) ;
#349 = VECTOR ( 'NONE', #1216, 1000.000000000000000 ) ;
#350 = ADVANCED_FACE ( 'NONE', ( #140, #1086 ), #868, .F. ) ;
#351 = CARTESIAN_POINT ( 'NONE',  ( 1.769999999999993356, 2.269999999999994245, -1.770000000000002016 ) ) ;
#352 = ORIENTED_EDGE ( 'NONE', *, *, #1005, .F. ) ;
#353 = DIRECTION ( 'NONE',  ( -1.365923996832132842E-16, -0.000000000000000000, -1.000000000000000000 ) ) ;
#354 = ADVANCED_FACE ( 'NONE', ( #469 ), #380, .F. ) ;
#355 = VERTEX_POINT ( 'NONE', #875 ) ;
#356 = CARTESIAN_POINT ( 'NONE',  ( 1.769999999999993356, 1.270000000000000018, 21.58999999999998565 ) ) ;
#357 = EDGE_LOOP ( 'NONE', ( #968, #1184, #538, #470 ) ) ;
#358 = CARTESIAN_POINT ( 'NONE',  ( -77.10649999999998272, -6.349999999999988987, 23.74892084735787279 ) ) ;
#359 = ORIENTED_EDGE ( 'NONE', *, *, #1311, .F. ) ;
#360 = PLANE ( 'NONE',  #711 ) ;
#361 = EDGE_CURVE ( 'NONE', #643, #552, #257, .T. ) ;
#362 = CARTESIAN_POINT ( 'NONE',  ( -19.05000000000001137, 1.270000000000000018, -1.770000000000002016 ) ) ;
#363 = ORIENTED_EDGE ( 'NONE', *, *, #321, .T. ) ;
#364 = DIRECTION ( 'NONE',  ( -0.000000000000000000, 0.000000000000000000, 1.000000000000000000 ) ) ;
#365 = FACE_OUTER_BOUND ( 'NONE', #161, .T. ) ;
#366 = EDGE_CURVE ( 'NONE', #138, #451, #475, .T. ) ;
#367 = AXIS2_PLACEMENT_3D ( 'NONE', #1222, #943, #1146 ) ;
#368 = ORIENTED_EDGE ( 'NONE', *, *, #934, .F. ) ;
#369 = DIRECTION ( 'NONE',  ( 1.000000000000000000, 0.000000000000000000, 0.000000000000000000 ) ) ;
#370 = ORIENTED_EDGE ( 'NONE', *, *, #867, .T. ) ;
#371 = AXIS2_PLACEMENT_3D ( 'NONE', #807, #1019, #400 ) ;
#372 = CARTESIAN_POINT ( 'NONE',  ( -12.63649999999999451, 0.000000000000000000, 51.18099999999999739 ) ) ;
#373 = ORIENTED_EDGE ( 'NONE', *, *, #449, .F. ) ;
#374 = CARTESIAN_POINT ( 'NONE',  ( -107.6064999999999827, -6.349999999999983658, 11.02099878600000515 ) ) ;
#375 = CIRCLE ( 'NONE', #1200, 4.499999999999990230 ) ;
#376 = DESIGN_CONTEXT ( 'detailed design', #51, 'design' ) ;
#377 = CARTESIAN_POINT ( 'NONE',  ( -3.810000000000007603, 1.270000000000000018, 49.91100000000001558 ) ) ;
#378 = EDGE_CURVE ( 'NONE', #300, #1095, #1074, .T. ) ;
#379 = VERTEX_POINT ( 'NONE', #356 ) ;
#380 = CYLINDRICAL_SURFACE ( 'NONE', #839, 2.875000000000002665 ) ;
#381 = ORIENTED_EDGE ( 'NONE', *, *, #499, .F. ) ;
#382 = COORDINATED_UNIVERSAL_TIME_OFFSET ( 5, 0, .BEHIND. ) ;
#383 = LINE ( 'NONE', #981, #153 ) ;
#384 = CARTESIAN_POINT ( 'NONE',  ( -12.63649999999999451, 0.000000000000000000, 11.02099878600000160 ) ) ;
#385 = LINE ( 'NONE', #405, #1079 ) ;
#386 = EDGE_CURVE ( 'NONE', #332, #1304, #45, .T. ) ;
#387 = ORIENTED_EDGE ( 'NONE', *, *, #185, .T. ) ;
#388 = COORDINATED_UNIVERSAL_TIME_OFFSET ( 5, 0, .BEHIND. ) ;
#389 = CARTESIAN_POINT ( 'NONE',  ( -107.6064999999999827, -6.349999999999983658, 23.74892084735787634 ) ) ;
#390 = SECURITY_CLASSIFICATION ( '', '', #107 ) ;
#391 = FACE_OUTER_BOUND ( 'NONE', #1070, .T. ) ;
#392 = LINE ( 'NONE', #179, #349 ) ;
#393 = ORIENTED_EDGE ( 'NONE', *, *, #507, .F. ) ;
#394 = CARTESIAN_POINT ( 'NONE',  ( 0.000000000000000000, 0.000000000000000000, 0.000000000000000000 ) ) ;
#395 = CARTESIAN_POINT ( 'NONE',  ( -12.63649999999999451, -9.700000000000001066, 51.18099999999999739 ) ) ;
#396 = EDGE_CURVE ( 'NONE', #799, #822, #1277, .T. ) ;
#397 = VECTOR ( 'NONE', #699, 1000.000000000000000 ) ;
#398 = CARTESIAN_POINT ( 'NONE',  ( -176.4029999999999632, 0.000000000000000000, 51.18099999999999739 ) ) ;
#399 = VECTOR ( 'NONE', #1296, 1000.000000000000000 ) ;
#400 = DIRECTION ( 'NONE',  ( -1.000000000000000000, 0.000000000000000000, 0.000000000000000000 ) ) ;
#401 = FACE_OUTER_BOUND ( 'NONE', #143, .T. ) ;
#402 = ORIENTED_EDGE ( 'NONE', *, *, #950, .F. ) ;
#403 = ADVANCED_FACE ( 'NONE', ( #582 ), #991, .F. ) ;
#404 = CARTESIAN_POINT ( 'NONE',  ( -110.4814999999999827, -6.349999999999983658, 6.020998786000000713 ) ) ;
#405 = CARTESIAN_POINT ( 'NONE',  ( -24.63000000000004164, 4.445000000000000284, 3.809999999999991172 ) ) ;
#406 = FACE_OUTER_BOUND ( 'NONE', #645, .T. ) ;
#407 = DIRECTION ( 'NONE',  ( 1.000000000000000000, -0.000000000000000000, 0.000000000000000000 ) ) ;
#408 = PRODUCT_DEFINITION_FORMATION_WITH_SPECIFIED_SOURCE ( 'ANY', '', #972, .NOT_KNOWN. ) ;
#409 = FACE_OUTER_BOUND ( 'NONE', #980, .T. ) ;
#410 = AXIS2_PLACEMENT_3D ( 'NONE', #1035, #1042, #642 ) ;
#411 = DIRECTION ( 'NONE',  ( 1.000000000000000000, 0.000000000000000000, 0.000000000000000000 ) ) ;
#412 = DIRECTION ( 'NONE',  ( 1.000000000000000000, 0.000000000000000000, 0.000000000000000000 ) ) ;
#413 = LINE ( 'NONE', #819, #234 ) ;
#414 = VERTEX_POINT ( 'NONE', #569 ) ;
#415 = ORIENTED_EDGE ( 'NONE', *, *, #459, .T. ) ;
#416 = AXIS2_PLACEMENT_3D ( 'NONE', #897, #504, #91 ) ;
#417 = FACE_BOUND ( 'NONE', #1309, .T. ) ;
#418 = VECTOR ( 'NONE', #1248, 1000.000000000000000 ) ;
#419 = ORIENTED_EDGE ( 'NONE', *, *, #1182, .F. ) ;
#420 = FACE_OUTER_BOUND ( 'NONE', #89, .T. ) ;
#421 = EDGE_CURVE ( 'NONE', #1318, #1211, #63, .T. ) ;
#422 = PLANE ( 'NONE',  #284 ) ;
#423 = CARTESIAN_POINT ( 'NONE',  ( -167.5764999999999816, -9.700000000000001066, 51.18099999999999739 ) ) ;
#424 = DIRECTION ( 'NONE',  ( 0.000000000000000000, -1.000000000000000000, 3.469446951953634305E-15 ) ) ;
#425 = ORIENTED_EDGE ( 'NONE', *, *, #1165, .F. ) ;
#426 = EDGE_CURVE ( 'NONE', #1202, #615, #777, .T. ) ;
#427 = CIRCLE ( 'NONE', #92, 4.499999999999990230 ) ;
#428 = FACE_OUTER_BOUND ( 'NONE', #357, .T. ) ;
#429 = CARTESIAN_POINT ( 'NONE',  ( -103.1064999999999827, -6.349999999999982769, -5.489001214000009732 ) ) ;
#430 = DIRECTION ( 'NONE',  ( 0.000000000000000000, -0.000000000000000000, -1.000000000000000000 ) ) ;
#431 = AXIS2_PLACEMENT_3D ( 'NONE', #129, #977, #1267 ) ;
#432 = EDGE_LOOP ( 'NONE', ( #31, #1220, #730, #258 ) ) ;
#433 = DIRECTION ( 'NONE',  ( 0.000000000000000000, -0.000000000000000000, -1.000000000000000000 ) ) ;
#434 = DIRECTION ( 'NONE',  ( -0.000000000000000000, 0.000000000000000000, 1.000000000000000000 ) ) ;
#435 = LINE ( 'NONE', #613, #1016 ) ;
#436 = ADVANCED_FACE ( 'NONE', ( #1168, #160, #965 ), #576, .F. ) ;
#437 = DIRECTION ( 'NONE',  ( -1.000000000000000000, 0.000000000000000000, 0.000000000000000000 ) ) ;
#438 = ORIENTED_EDGE ( 'NONE', *, *, #554, .F. ) ;
#439 = CARTESIAN_POINT ( 'NONE',  ( -192.9129999999999825, -12.69999999999998863, -5.489001213999998185 ) ) ;
#440 = EDGE_LOOP ( 'NONE', ( #739, #348 ) ) ;
#441 = LINE ( 'NONE', #870, #301 ) ;
#442 = EDGE_CURVE ( 'NONE', #822, #104, #911, .T. ) ;
#443 = ORIENTED_EDGE ( 'NONE', *, *, #473, .F. ) ;
#444 = DIRECTION ( 'NONE',  ( 0.000000000000000000, -1.000000000000000000, 0.000000000000000000 ) ) ;
#445 = ORIENTED_EDGE ( 'NONE', *, *, #532, .T. ) ;
#446 = PLANE ( 'NONE',  #431 ) ;
#447 = ORIENTED_EDGE ( 'NONE', *, *, #995, .F. ) ;
#448 = CIRCLE ( 'NONE', #982, 2.875000000000002665 ) ;
#449 = EDGE_CURVE ( 'NONE', #414, #255, #1123, .T. ) ;
#450 = FACE_OUTER_BOUND ( 'NONE', #962, .T. ) ;
#451 = VERTEX_POINT ( 'NONE', #187 ) ;
#452 = CARTESIAN_POINT ( 'NONE',  ( 1.769999999999993356, 0.000000000000000000, -1.770000000000002016 ) ) ;
#453 = ORIENTED_EDGE ( 'NONE', *, *, #955, .F. ) ;
#454 = VECTOR ( 'NONE', #1217, 1000.000000000000000 ) ;
#455 = ORIENTED_EDGE ( 'NONE', *, *, #11, .F. ) ;
#456 = VECTOR ( 'NONE', #764, 1000.000000000000000 ) ;
#457 = PRODUCT_DEFINITION_SHAPE ( 'NONE', 'NONE',  #824 ) ;
#458 = DIRECTION ( 'NONE',  ( 1.365923996832132842E-16, -0.000000000000000000, 1.000000000000000000 ) ) ;
#459 = EDGE_CURVE ( 'NONE', #164, #1172, #1101, .T. ) ;
#460 = ORIENTED_EDGE ( 'NONE', *, *, #888, .F. ) ;
#461 = CARTESIAN_POINT ( 'NONE',  ( 1.769999999999993356, 1.270000000000000240, 49.91099999999999426 ) ) ;
#462 = DIRECTION ( 'NONE',  ( 0.000000000000000000, 0.000000000000000000, -1.000000000000000000 ) ) ;
#463 = ORIENTED_EDGE ( 'NONE', *, *, #1171, .F. ) ;
#464 = CARTESIAN_POINT ( 'NONE',  ( -4.761427309039232424E-27, 6.493354763880101290E-13, 51.18099999999999739 ) ) ;
#465 = ORIENTED_EDGE ( 'NONE', *, *, #847, .T. ) ;
#466 = CARTESIAN_POINT ( 'NONE',  ( -167.5764999999999816, 0.000000000000000000, 51.18099999999999739 ) ) ;
#467 = CYLINDRICAL_SURFACE ( 'NONE', #109, 4.499999999999990230 ) ;
#468 = EDGE_LOOP ( 'NONE', ( #7, #336, #953, #345 ) ) ;
#469 = FACE_OUTER_BOUND ( 'NONE', #902, .T. ) ;
#470 = ORIENTED_EDGE ( 'NONE', *, *, #964, .T. ) ;
#471 = APPROVAL_ROLE ( '' ) ;
#472 = PLANE ( 'NONE',  #879 ) ;
#473 = EDGE_CURVE ( 'NONE', #332, #1272, #798, .T. ) ;
#474 = AXIS2_PLACEMENT_3D ( 'NONE', #1009, #81, #111 ) ;
#475 = LINE ( 'NONE', #1067, #734 ) ;
#476 = ORIENTED_EDGE ( 'NONE', *, *, #579, .F. ) ;
#477 = APPROVAL_STATUS ( 'not_yet_approved' ) ;
#478 = DIRECTION ( 'NONE',  ( -1.365923996832133088E-16, -0.000000000000000000, -1.000000000000000000 ) ) ;
#479 = AXIS2_PLACEMENT_3D ( 'NONE', #802, #698, #1105 ) ;
#480 = EDGE_CURVE ( 'NONE', #849, #1237, #385, .T. ) ;
#481 = PLANE ( 'NONE',  #820 ) ;
#482 = CARTESIAN_POINT ( 'NONE',  ( -180.2129999999999939, 1.270000000000000018, 49.91100000000001558 ) ) ;
#483 = ORIENTED_EDGE ( 'NONE', *, *, #42, .F. ) ;
#484 = ORIENTED_EDGE ( 'NONE', *, *, #1056, .F. ) ;
#485 = LINE ( 'NONE', #56, #399 ) ;
#486 = ORIENTED_EDGE ( 'NONE', *, *, #201, .T. ) ;
#487 = LINE ( 'NONE', #398, #124 ) ;
#488 = CC_DESIGN_PERSON_AND_ORGANIZATION_ASSIGNMENT ( #999, #72, ( #408 ) ) ;
#489 = CARTESIAN_POINT ( 'NONE',  ( -103.1064999999999827, -6.349999999999982769, 23.74892084735787634 ) ) ;
#490 = ORIENTED_EDGE ( 'NONE', *, *, #975, .F. ) ;
#491 = ADVANCED_FACE ( 'NONE', ( #509 ), #1107, .F. ) ;
#492 = APPROVAL_DATE_TIME ( #686, #1064 ) ;
#493 = DIRECTION ( 'NONE',  ( -0.7071067811865474617, -0.000000000000000000, 0.7071067811865474617 ) ) ;
#494 = VECTOR ( 'NONE', #259, 1000.000000000000000 ) ;
#495 = ORIENTED_EDGE ( 'NONE', *, *, #269, .T. ) ;
#496 = LINE ( 'NONE', #377, #776 ) ;
#497 = CARTESIAN_POINT ( 'NONE',  ( -3.810000000000007603, 1.270000000000000018, 27.17000000000000881 ) ) ;
#498 = COORDINATED_UNIVERSAL_TIME_OFFSET ( 5, 0, .BEHIND. ) ;
#499 = EDGE_CURVE ( 'NONE', #858, #1256, #1326, .T. ) ;
#500 = DIRECTION ( 'NONE',  ( -0.000000000000000000, -0.000000000000000000, 1.000000000000000000 ) ) ;
#501 = VECTOR ( 'NONE', #815, 1000.000000000000000 ) ;
#502 = DIRECTION ( 'NONE',  ( 0.000000000000000000, -0.000000000000000000, -1.000000000000000000 ) ) ;
#503 = AXIS2_PLACEMENT_3D ( 'NONE', #695, #320, #1228 ) ;
#504 = DIRECTION ( 'NONE',  ( 0.000000000000000000, -1.000000000000000000, -0.000000000000000000 ) ) ;
#505 = LINE ( 'NONE', #1317, #1218 ) ;
#506 = DIRECTION ( 'NONE',  ( 1.000000000000000000, 0.000000000000000000, 0.000000000000000000 ) ) ;
#507 = EDGE_CURVE ( 'NONE', #862, #822, #1224, .T. ) ;
#508 = DIRECTION ( 'NONE',  ( 0.000000000000000000, 0.000000000000000000, -1.000000000000000000 ) ) ;
#509 = FACE_OUTER_BOUND ( 'NONE', #1119, .T. ) ;
#510 = DIRECTION ( 'NONE',  ( 0.000000000000000000, -0.000000000000000000, -1.000000000000000000 ) ) ;
#511 = DIRECTION ( 'NONE',  ( 0.000000000000000000, -1.000000000000000000, 0.000000000000000000 ) ) ;
#512 = ORGANIZATION ( 'UNSPECIFIED', 'UNSPECIFIED', '' ) ;
#513 = ORIENTED_EDGE ( 'NONE', *, *, #96, .T. ) ;
#514 = CARTESIAN_POINT ( 'NONE',  ( -24.63000000000004164, 1.270000000000000018, 3.809999999999991172 ) ) ;
#515 = ADVANCED_FACE ( 'NONE', ( #1003 ), #617, .F. ) ;
#516 = VERTEX_POINT ( 'NONE', #1300 ) ;
#517 = AXIS2_PLACEMENT_3D ( 'NONE', #1126, #595, #319 ) ;
#518 = CARTESIAN_POINT ( 'NONE',  ( -72.60649999999998272, -6.349999999999988987, 6.020998786000000713 ) ) ;
#519 = APPROVAL_ROLE ( '' ) ;
#520 = CARTESIAN_POINT ( 'NONE',  ( -112.1064999999999685, -6.349999999999983658, -5.489001214000007955 ) ) ;
#521 = CARTESIAN_POINT ( 'NONE',  ( -181.9830000000000041, 4.445000000000000284, 21.58999999999998209 ) ) ;
#522 = AXIS2_PLACEMENT_3D ( 'NONE', #1115, #904, #291 ) ;
#523 = DIRECTION ( 'NONE',  ( -0.000000000000000000, 0.000000000000000000, 1.000000000000000000 ) ) ;
#524 = ADVANCED_BREP_SHAPE_REPRESENTATION ( 'X-axis Way Cover Motor Side', ( #326, #1259 ), #808 ) ;
#525 = ORIENTED_EDGE ( 'NONE', *, *, #872, .T. ) ;
#526 = EDGE_CURVE ( 'NONE', #858, #608, #1026, .T. ) ;
#527 = FACE_OUTER_BOUND ( 'NONE', #788, .T. ) ;
#528 = DIRECTION ( 'NONE',  ( 1.000000000000000000, 0.000000000000000000, -6.103324382627934694E-17 ) ) ;
#529 = PLANE ( 'NONE',  #541 ) ;
#530 = ORIENTED_EDGE ( 'NONE', *, *, #1148, .F. ) ;
#531 = DIRECTION ( 'NONE',  ( 0.000000000000000000, -1.000000000000000000, -0.000000000000000000 ) ) ;
#532 = EDGE_CURVE ( 'NONE', #104, #829, #791, .T. ) ;
#533 = CARTESIAN_POINT ( 'NONE',  ( -10.41000000000002501, 1.270000000000000018, -10.41000000000002501 ) ) ;
#534 = LINE ( 'NONE', #735, #715 ) ;
#535 = APPROVAL_PERSON_ORGANIZATION ( #1006, #58, #471 ) ;
#536 = EDGE_LOOP ( 'NONE', ( #678, #476, #992, #837, #1196, #174, #118, #237, #966, #53, #1167, #197 ) ) ;
#537 = CARTESIAN_POINT ( 'NONE',  ( -120.6064999999999827, -9.700000000000001066, 11.02099878600000160 ) ) ;
#538 = ORIENTED_EDGE ( 'NONE', *, *, #720, .F. ) ;
#539 = CARTESIAN_POINT ( 'NONE',  ( -176.4029999999999632, 1.270000000000000018, 49.91099999999999426 ) ) ;
#540 = ADVANCED_FACE ( 'NONE', ( #285 ), #1194, .F. ) ;
#541 = AXIS2_PLACEMENT_3D ( 'NONE', #1324, #1039, #938 ) ;
#542 = ORIENTED_EDGE ( 'NONE', *, *, #1189, .T. ) ;
#543 = VECTOR ( 'NONE', #1032, 1000.000000000000000 ) ;
#544 = FACE_OUTER_BOUND ( 'NONE', #188, .T. ) ;
#545 = ORIENTED_EDGE ( 'NONE', *, *, #940, .T. ) ;
#546 = LINE ( 'NONE', #358, #683 ) ;
#547 = EDGE_CURVE ( 'NONE', #128, #241, #392, .T. ) ;
#548 = ORIENTED_EDGE ( 'NONE', *, *, #499, .T. ) ;
#549 = CARTESIAN_POINT ( 'NONE',  ( -19.05000000000001137, 2.269999999999994245, -1.770000000000002016 ) ) ;
#550 = ORIENTED_EDGE ( 'NONE', *, *, #396, .F. ) ;
#551 = CARTESIAN_POINT ( 'NONE',  ( -176.4029999999999632, 1.270000000000000018, 27.17000000000003723 ) ) ;
#552 = VERTEX_POINT ( 'NONE', #75 ) ;
#553 = VERTEX_POINT ( 'NONE', #497 ) ;
#554 = EDGE_CURVE ( 'NONE', #255, #414, #1100, .T. ) ;
#555 = AXIS2_PLACEMENT_3D ( 'NONE', #1219, #407, #218 ) ;
#556 = DIRECTION ( 'NONE',  ( -1.000000000000000000, 0.000000000000000000, 0.000000000000000000 ) ) ;
#557 = VERTEX_POINT ( 'NONE', #591 ) ;
#558 = LINE ( 'NONE', #954, #494 ) ;
#559 = VERTEX_POINT ( 'NONE', #83 ) ;
#560 = LINE ( 'NONE', #773, #1080 ) ;
#561 = ORIENTED_EDGE ( 'NONE', *, *, #421, .F. ) ;
#562 = ADVANCED_FACE ( 'NONE', ( #1320 ), #1010, .T. ) ;
#563 = VECTOR ( 'NONE', #1252, 1000.000000000000000 ) ;
#564 = LINE ( 'NONE', #262, #175 ) ;
#565 = FACE_OUTER_BOUND ( 'NONE', #843, .T. ) ;
#566 = CARTESIAN_POINT ( 'NONE',  ( -112.1064999999999685, -6.349999999999983658, 6.020998786000000713 ) ) ;
#567 = DIRECTION ( 'NONE',  ( 0.000000000000000000, -1.000000000000000000, 0.000000000000000000 ) ) ;
#568 = VECTOR ( 'NONE', #1139, 1000.000000000000000 ) ;
#569 = CARTESIAN_POINT ( 'NONE',  ( -75.48149999999998272, -6.349999999999988987, 6.020998786000000713 ) ) ;
#570 = APPLICATION_CONTEXT ( 'configuration controlled 3d designs of mechanical parts and assemblies' ) ;
#571 = VERTEX_POINT ( 'NONE', #602 ) ;
#572 = CARTESIAN_POINT ( 'NONE',  ( -120.6064999999999827, -12.69999999999999929, 51.18099999999999028 ) ) ;
#573 = EDGE_CURVE ( 'NONE', #615, #1332, #304, .T. ) ;
#574 = DIRECTION ( 'NONE',  ( 0.000000000000000000, 0.000000000000000000, 1.000000000000000000 ) ) ;
#575 = CC_DESIGN_APPROVAL ( #288, ( #390 ) ) ;
#576 = PLANE ( 'NONE',  #330 ) ;
#577 = ORIENTED_EDGE ( 'NONE', *, *, #212, .T. ) ;
#578 = LINE ( 'NONE', #159, #245 ) ;
#579 = EDGE_CURVE ( 'NONE', #765, #1255, #927, .T. ) ;
#580 = VECTOR ( 'NONE', #500, 1000.000000000000000 ) ;
#581 = CARTESIAN_POINT ( 'NONE',  ( -107.6064999999999827, -6.349999999999983658, 51.18100000000001870 ) ) ;
#582 = FACE_OUTER_BOUND ( 'NONE', #265, .T. ) ;
#583 = EDGE_LOOP ( 'NONE', ( #1179, #859, #606, #716, #835, #370 ) ) ;
#584 = CARTESIAN_POINT ( 'NONE',  ( -181.9829999999999757, 2.270000000000000462, -1.770000000000002016 ) ) ;
#585 = DIRECTION ( 'NONE',  ( 1.000000000000000000, 0.000000000000000000, 0.000000000000000000 ) ) ;
#586 = AXIS2_PLACEMENT_3D ( 'NONE', #813, #430, #1044 ) ;
#587 = EDGE_LOOP ( 'NONE', ( #648, #869, #393, #951 ) ) ;
#588 = CC_DESIGN_DATE_AND_TIME_ASSIGNMENT ( #611, #1027, ( #390 ) ) ;
#589 = CARTESIAN_POINT ( 'NONE',  ( -161.1629999999999825, 2.269999999999994245, 3.809999999999999609 ) ) ;
#590 = ADVANCED_FACE ( 'NONE', ( #420 ), #823, .T. ) ;
#591 = CARTESIAN_POINT ( 'NONE',  ( -167.5764999999999816, -9.700000000000001066, 51.18099999999999739 ) ) ;
#592 = ORIENTED_EDGE ( 'NONE', *, *, #269, .F. ) ;
#593 = APPROVAL_ROLE ( '' ) ;
#594 = ORIENTED_EDGE ( 'NONE', *, *, #185, .F. ) ;
#595 = DIRECTION ( 'NONE',  ( 1.000000000000000000, -0.000000000000000000, 0.000000000000000000 ) ) ;
#596 = DIRECTION ( 'NONE',  ( -0.000000000000000000, 0.000000000000000000, 1.000000000000000000 ) ) ;
#597 = EDGE_CURVE ( 'NONE', #553, #771, #496, .T. ) ;
#598 = CARTESIAN_POINT ( 'NONE',  ( -79.69650000000038403, 1.270000000000000018, 79.69649999999998613 ) ) ;
#599 = ORIENTED_EDGE ( 'NONE', *, *, #261, .F. ) ;
#600 = CYLINDRICAL_SURFACE ( 'NONE', #750, 4.500000000000003553 ) ;
#601 = DIRECTION ( 'NONE',  ( 0.000000000000000000, 1.000000000000000000, -3.469446951953634305E-15 ) ) ;
#602 = CARTESIAN_POINT ( 'NONE',  ( -3.810000000000007603, 2.269999999999994245, 27.17000000000000881 ) ) ;
#603 = PRODUCT_RELATED_PRODUCT_CATEGORY ( 'detail', '', ( #972 ) ) ;
#604 = CARTESIAN_POINT ( 'NONE',  ( -72.60649999999998272, -6.349999999999988987, 6.020998786000000713 ) ) ;
#605 = CARTESIAN_POINT ( 'NONE',  ( -161.1629999999999825, 0.000000000000000000, 11.02099878600000160 ) ) ;
#606 = ORIENTED_EDGE ( 'NONE', *, *, #975, .T. ) ;
#607 = AXIS2_PLACEMENT_3D ( 'NONE', #691, #1208, #705 ) ;
#608 = VERTEX_POINT ( 'NONE', #1298 ) ;
#609 = CARTESIAN_POINT ( 'NONE',  ( 0.000000000000000000, -9.700000000000001066, 0.000000000000000000 ) ) ;
#610 = DIRECTION ( 'NONE',  ( -1.365923996832132842E-16, -0.000000000000000000, -1.000000000000000000 ) ) ;
#611 = DATE_AND_TIME ( #1012, #166 ) ;
#612 = DIRECTION ( 'NONE',  ( 0.7071067811865457964, -0.000000000000000000, 0.7071067811865492381 ) ) ;
#613 = CARTESIAN_POINT ( 'NONE',  ( -3.810000000000007603, 4.445000000000000284, 27.17000000000000881 ) ) ;
#614 = ADVANCED_FACE ( 'NONE', ( #1187 ), #789, .F. ) ;
#615 = VERTEX_POINT ( 'NONE', #186 ) ;
#616 = CARTESIAN_POINT ( 'NONE',  ( -19.05000000000001137, 1.270000000000000018, -1.770000000000002016 ) ) ;
#617 = CYLINDRICAL_SURFACE ( 'NONE', #371, 4.500000000000003553 ) ;
#618 = PERSON_AND_ORGANIZATION_ROLE ( 'classification_officer' ) ;
#619 = PLANE ( 'NONE',  #1140 ) ;
#620 = DIRECTION ( 'NONE',  ( -0.7071067811865474617, -0.000000000000000000, 0.7071067811865474617 ) ) ;
#621 = EDGE_CURVE ( 'NONE', #1301, #164, #375, .T. ) ;
#622 = FACE_OUTER_BOUND ( 'NONE', #634, .T. ) ;
#623 = ORIENTED_EDGE ( 'NONE', *, *, #220, .T. ) ;
#624 = VECTOR ( 'NONE', #235, 1000.000000000000000 ) ;
#625 = DIRECTION ( 'NONE',  ( -1.365923996832132842E-16, 0.000000000000000000, -1.000000000000000000 ) ) ;
#626 = FACE_OUTER_BOUND ( 'NONE', #1023, .T. ) ;
#627 = CIRCLE ( 'NONE', #37, 2.875000000000002665 ) ;
#628 = LINE ( 'NONE', #917, #646 ) ;
#629 = ORIENTED_EDGE ( 'NONE', *, *, #421, .T. ) ;
#630 = EDGE_CURVE ( 'NONE', #1118, #130, #627, .T. ) ;
#631 = PLANE ( 'NONE',  #1195 ) ;
#632 = DIRECTION ( 'NONE',  ( -1.365923996832132842E-16, 0.000000000000000000, -1.000000000000000000 ) ) ;
#633 = CARTESIAN_POINT ( 'NONE',  ( -3.810000000000007603, 1.270000000000000240, 49.91099999999999426 ) ) ;
#634 = EDGE_LOOP ( 'NONE', ( #1250, #1108, #758, #363, #987, #13, #184, #465 ) ) ;
#635 = ADVANCED_FACE ( 'NONE', ( #903 ), #1291, .F. ) ;
#636 = LINE ( 'NONE', #244, #923 ) ;
#637 = ORIENTED_EDGE ( 'NONE', *, *, #689, .F. ) ;
#638 = CARTESIAN_POINT ( 'NONE',  ( 12.69999999999998863, 0.000000000000000000, 51.18099999999999739 ) ) ;
#639 = CARTESIAN_POINT ( 'NONE',  ( -155.5829999999999700, 2.269999999999994245, 3.809999999999999165 ) ) ;
#640 = ORIENTED_EDGE ( 'NONE', *, *, #1325, .F. ) ;
#641 = AXIS2_PLACEMENT_3D ( 'NONE', #825, #800, #912 ) ;
#642 = DIRECTION ( 'NONE',  ( 1.000000000000000000, 0.000000000000000000, 0.000000000000000000 ) ) ;
#643 = VERTEX_POINT ( 'NONE', #989 ) ;
#644 = CARTESIAN_POINT ( 'NONE',  ( -192.9129999999999825, 2.269999999999994245, -5.489001213999997297 ) ) ;
#645 = EDGE_LOOP ( 'NONE', ( #483, #204, #381, #841 ) ) ;
#646 = VECTOR ( 'NONE', #12, 1000.000000000000000 ) ;
#647 = AXIS2_PLACEMENT_3D ( 'NONE', #521, #315, #511 ) ;
#648 = ORIENTED_EDGE ( 'NONE', *, *, #532, .F. ) ;
#649 = VECTOR ( 'NONE', #918, 1000.000000000000000 ) ;
#650 = CIRCLE ( 'NONE', #127, 2.875000000000002665 ) ;
#651 = PLANE ( 'NONE',  #854 ) ;
#652 = EDGE_LOOP ( 'NONE', ( #550, #64, #425, #1174 ) ) ;
#653 = DIRECTION ( 'NONE',  ( 0.000000000000000000, -1.000000000000000000, 0.000000000000000000 ) ) ;
#654 = ORIENTED_EDGE ( 'NONE', *, *, #826, .F. ) ;
#655 = EDGE_CURVE ( 'NONE', #1034, #700, #290, .T. ) ;
#656 = ORIENTED_EDGE ( 'NONE', *, *, #321, .F. ) ;
#657 = DIRECTION ( 'NONE',  ( -1.365923996832133088E-16, -0.000000000000000000, -1.000000000000000000 ) ) ;
#658 = ORIENTED_EDGE ( 'NONE', *, *, #775, .T. ) ;
#659 = LINE ( 'NONE', #857, #1114 ) ;
#660 = CC_DESIGN_PERSON_AND_ORGANIZATION_ASSIGNMENT ( #900, #114, ( #408 ) ) ;
#661 = ORIENTED_EDGE ( 'NONE', *, *, #1106, .T. ) ;
#662 = VECTOR ( 'NONE', #1096, 1000.000000000000000 ) ;
#663 = DIRECTION ( 'NONE',  ( -1.000000000000000000, 0.000000000000000000, 0.000000000000000000 ) ) ;
#664 = ORIENTED_EDGE ( 'NONE', *, *, #11, .T. ) ;
#665 = LINE ( 'NONE', #452, #49 ) ;
#666 = VERTEX_POINT ( 'NONE', #1319 ) ;
#667 = LINE ( 'NONE', #266, #59 ) ;
#668 = UNCERTAINTY_MEASURE_WITH_UNIT (LENGTH_MEASURE( 1.000000000000000082E-05 ), #1180, 'distance_accuracy_value', 'NONE');
#669 = EDGE_CURVE ( 'NONE', #685, #1304, #177, .T. ) ;
#670 = VECTOR ( 'NONE', #1335, 1000.000000000000000 ) ;
#671 = DIRECTION ( 'NONE',  ( -1.365923996832133088E-16, -0.000000000000000000, -1.000000000000000000 ) ) ;
#672 = ORIENTED_EDGE ( 'NONE', *, *, #1013, .T. ) ;
#673 = PERSON_AND_ORGANIZATION ( #1021, #512 ) ;
#674 = LINE ( 'NONE', #994, #801 ) ;
#675 = CIRCLE ( 'NONE', #268, 2.875000000000002665 ) ;
#676 = CARTESIAN_POINT ( 'NONE',  ( -161.1629999999999825, -3.174999999999999822, 6.020998786000001601 ) ) ;
#677 = ADVANCED_FACE ( 'NONE', ( #60 ), #481, .T. ) ;
#678 = ORIENTED_EDGE ( 'NONE', *, *, #296, .F. ) ;
#679 = CARTESIAN_POINT ( 'NONE',  ( -181.9829999999999757, 1.270000000000000240, 49.91099999999999426 ) ) ;
#680 = PLANE ( 'NONE',  #503 ) ;
#681 = ORIENTED_EDGE ( 'NONE', *, *, #689, .T. ) ;
#682 = DIRECTION ( 'NONE',  ( 0.000000000000000000, 0.000000000000000000, -1.000000000000000000 ) ) ;
#683 = VECTOR ( 'NONE', #353, 1000.000000000000000 ) ;
#684 = PLANE ( 'NONE',  #1314 ) ;
#685 = VERTEX_POINT ( 'NONE', #384 ) ;
#686 = DATE_AND_TIME ( #786, #1156 ) ;
#687 = LINE ( 'NONE', #795, #973 ) ;
#688 = VECTOR ( 'NONE', #1155, 1000.000000000000000 ) ;
#689 = EDGE_CURVE ( 'NONE', #379, #643, #797, .T. ) ;
#690 = CARTESIAN_POINT ( 'NONE',  ( 0.000000000000000000, 1.270000000000000018, 0.000000000000000000 ) ) ;
#691 = CARTESIAN_POINT ( 'NONE',  ( -176.4029999999999632, 4.445000000000000284, 49.91100000000001558 ) ) ;
#692 = ORIENTED_EDGE ( 'NONE', *, *, #853, .F. ) ;
#693 = AXIS2_PLACEMENT_3D ( 'NONE', #318, #192, #1018 ) ;
#694 = DIRECTION ( 'NONE',  ( 1.000000000000000000, 0.000000000000000000, 0.000000000000000000 ) ) ;
#695 = CARTESIAN_POINT ( 'NONE',  ( 1.769999999999993356, 0.000000000000000000, 0.000000000000000000 ) ) ;
#696 = ORIENTED_EDGE ( 'NONE', *, *, #248, .T. ) ;
#697 = EDGE_CURVE ( 'NONE', #1269, #858, #887, .T. ) ;
#698 = DIRECTION ( 'NONE',  ( 0.000000000000000000, -0.000000000000000000, -1.000000000000000000 ) ) ;
#699 = DIRECTION ( 'NONE',  ( 0.000000000000000000, 1.000000000000000000, 0.000000000000000000 ) ) ;
#700 = VERTEX_POINT ( 'NONE', #1313 ) ;
#701 = FACE_OUTER_BOUND ( 'NONE', #231, .T. ) ;
#702 = VERTEX_POINT ( 'NONE', #404 ) ;
#703 = EDGE_CURVE ( 'NONE', #24, #893, #1289, .T. ) ;
#704 = DIRECTION ( 'NONE',  ( 0.7071067811865475727, 0.000000000000000000, 0.7071067811865475727 ) ) ;
#705 = DIRECTION ( 'NONE',  ( 0.000000000000000000, 0.000000000000000000, 1.000000000000000000 ) ) ;
#706 = CARTESIAN_POINT ( 'NONE',  ( -181.9829999999999757, 1.270000000000000018, 21.58999999999998565 ) ) ;
#707 = ORIENTED_EDGE ( 'NONE', *, *, #867, .F. ) ;
#708 = ORIENTED_EDGE ( 'NONE', *, *, #741, .F. ) ;
#709 = DIRECTION ( 'NONE',  ( 1.000000000000000000, 0.000000000000000000, 0.000000000000000000 ) ) ;
#710 = CARTESIAN_POINT ( 'NONE',  ( -120.6064999999999827, -12.69999999999999929, 51.18099999999999028 ) ) ;
#711 = AXIS2_PLACEMENT_3D ( 'NONE', #1276, #787, #287 ) ;
#712 = EDGE_CURVE ( 'NONE', #71, #1172, #196, .T. ) ;
#713 = CARTESIAN_POINT ( 'NONE',  ( 0.000000000000000000, 0.000000000000000000, 51.18099999999999739 ) ) ;
#714 = DIRECTION ( 'NONE',  ( 1.000000000000000000, 0.000000000000000000, 0.000000000000000000 ) ) ;
#715 = VECTOR ( 'NONE', #424, 1000.000000000000000 ) ;
#716 = ORIENTED_EDGE ( 'NONE', *, *, #769, .T. ) ;
#717 = FACE_BOUND ( 'NONE', #998, .T. ) ;
#718 = DIRECTION ( 'NONE',  ( 0.000000000000000000, -0.000000000000000000, -1.000000000000000000 ) ) ;
#719 = DATE_AND_TIME ( #216, #833 ) ;
#720 = EDGE_CURVE ( 'NONE', #829, #1237, #1002, .T. ) ;
#721 = CARTESIAN_POINT ( 'NONE',  ( -59.60650000000000404, -9.700000000000001066, 11.02099878600000160 ) ) ;
#722 = DIRECTION ( 'NONE',  ( 0.000000000000000000, -1.000000000000000000, 0.000000000000000000 ) ) ;
#723 = ORIENTED_EDGE ( 'NONE', *, *, #314, .T. ) ;
#724 = LINE ( 'NONE', #328, #55 ) ;
#725 = ORIENTED_EDGE ( 'NONE', *, *, #1047, .T. ) ;
#726 = CARTESIAN_POINT ( 'NONE',  ( 0.000000000000000000, 0.000000000000000000, 49.91100000000001558 ) ) ;
#727 = LINE ( 'NONE', #605, #178 ) ;
#728 = EDGE_CURVE ( 'NONE', #241, #947, #487, .T. ) ;
#729 = CARTESIAN_POINT ( 'NONE',  ( 12.69999999999998863, -12.69999999999998863, 51.18099999999999739 ) ) ;
#730 = ORIENTED_EDGE ( 'NONE', *, *, #1302, .T. ) ;
#731 = APPROVAL_STATUS ( 'not_yet_approved' ) ;
#732 = FACE_OUTER_BOUND ( 'NONE', #536, .T. ) ;
#733 = CARTESIAN_POINT ( 'NONE',  ( -192.9129999999999825, -12.69999999999998863, 51.18099999999999739 ) ) ;
#734 = VECTOR ( 'NONE', #32, 1000.000000000000000 ) ;
#735 = CARTESIAN_POINT ( 'NONE',  ( -181.9829999999999757, 2.269999999999994245, 21.58999999999998209 ) ) ;
#736 = ADVANCED_FACE ( 'NONE', ( #391 ), #74, .F. ) ;
#737 = ORIENTED_EDGE ( 'NONE', *, *, #1089, .F. ) ;
#738 = CARTESIAN_POINT ( 'NONE',  ( -104.7314999999999827, -6.349999999999983658, 11.02099878600000515 ) ) ;
#739 = ORIENTED_EDGE ( 'NONE', *, *, #621, .T. ) ;
#740 = DIRECTION ( 'NONE',  ( -1.000000000000000000, -0.000000000000000000, 1.477303364681121271E-16 ) ) ;
#741 = EDGE_CURVE ( 'NONE', #749, #256, #306, .T. ) ;
#742 = CARTESIAN_POINT ( 'NONE',  ( 1.769999999999993356, 0.000000000000000000, -1.770000000000002016 ) ) ;
#743 = VERTEX_POINT ( 'NONE', #322 ) ;
#744 = EDGE_CURVE ( 'NONE', #355, #765, #6, .T. ) ;
#745 = LINE ( 'NONE', #1053, #1262 ) ;
#746 = ORIENTED_EDGE ( 'NONE', *, *, #547, .T. ) ;
#747 = DIRECTION ( 'NONE',  ( 0.000000000000000000, 1.000000000000000000, 0.000000000000000000 ) ) ;
#748 = AXIS2_PLACEMENT_3D ( 'NONE', #1254, #340, #150 ) ;
#749 = VERTEX_POINT ( 'NONE', #205 ) ;
#750 = AXIS2_PLACEMENT_3D ( 'NONE', #79, #208, #1104 ) ;
#751 = DIRECTION ( 'NONE',  ( 0.000000000000000000, -1.000000000000000000, 0.000000000000000000 ) ) ;
#752 = EDGE_CURVE ( 'NONE', #1211, #559, #1129, .T. ) ;
#753 = ORIENTED_EDGE ( 'NONE', *, *, #1073, .T. ) ;
#754 = DIRECTION ( 'NONE',  ( 0.000000000000000000, -1.000000000000000000, -0.000000000000000000 ) ) ;
#755 = ORIENTED_EDGE ( 'NONE', *, *, #655, .T. ) ;
#756 = VECTOR ( 'NONE', #311, 1000.000000000000114 ) ;
#757 = VECTOR ( 'NONE', #1022, 1000.000000000000000 ) ;
#758 = ORIENTED_EDGE ( 'NONE', *, *, #1209, .T. ) ;
#759 = DIRECTION ( 'NONE',  ( -1.000000000000000000, -7.332769396067994153E-15, 0.000000000000000000 ) ) ;
#760 = EDGE_LOOP ( 'NONE', ( #681, #40, #894, #249, #696, #2 ) ) ;
#761 = CARTESIAN_POINT ( 'NONE',  ( -181.9829999999999757, 0.000000000000000000, 49.91099999999999426 ) ) ;
#762 = EDGE_CURVE ( 'NONE', #164, #1301, #1058, .T. ) ;
#763 = EDGE_LOOP ( 'NONE', ( #1176, #708 ) ) ;
#764 = DIRECTION ( 'NONE',  ( -1.000000000000000000, -1.369347365245245551E-16, 0.000000000000000000 ) ) ;
#765 = VERTEX_POINT ( 'NONE', #742 ) ;
#766 = DIRECTION ( 'NONE',  ( -1.365923996832133088E-16, -0.000000000000000000, -1.000000000000000000 ) ) ;
#767 = ORIENTED_EDGE ( 'NONE', *, *, #210, .F. ) ;
#768 = LINE ( 'NONE', #1280, #1204 ) ;
#769 = EDGE_CURVE ( 'NONE', #993, #123, #534, .T. ) ;
#770 = DIRECTION ( 'NONE',  ( -0.000000000000000000, 0.000000000000000000, 1.000000000000000000 ) ) ;
#771 = VERTEX_POINT ( 'NONE', #633 ) ;
#772 = LINE ( 'NONE', #644, #1215 ) ;
#773 = CARTESIAN_POINT ( 'NONE',  ( -155.5829999999999700, 4.445000000000000284, 3.809999999999999165 ) ) ;
#774 = VECTOR ( 'NONE', #601, 1000.000000000000000 ) ;
#775 = EDGE_CURVE ( 'NONE', #947, #559, #628, .T. ) ;
#776 = VECTOR ( 'NONE', #910, 1000.000000000000000 ) ;
#777 = LINE ( 'NONE', #1183, #949 ) ;
#778 = VERTEX_POINT ( 'NONE', #729 ) ;
#779 = APPROVAL_DATE_TIME ( #162, #58 ) ;
#780 = ORIENTED_EDGE ( 'NONE', *, *, #1311, .T. ) ;
#781 = DIRECTION ( 'NONE',  ( -0.000000000000000000, 0.000000000000000000, 1.000000000000000000 ) ) ;
#782 = DIRECTION ( 'NONE',  ( -1.365923996832133088E-16, -0.000000000000000000, -1.000000000000000000 ) ) ;
#783 = CARTESIAN_POINT ( 'NONE',  ( -72.60649999999998272, -6.349999999999988987, 51.18100000000001160 ) ) ;
#784 = ORIENTED_EDGE ( 'NONE', *, *, #814, .F. ) ;
#785 = EDGE_CURVE ( 'NONE', #1095, #702, #1166, .T. ) ;
#786 = CALENDAR_DATE ( 2026, 26, 5 ) ;
#787 = DIRECTION ( 'NONE',  ( 1.000000000000000000, -0.000000000000000000, 0.000000000000000000 ) ) ;
#788 = EDGE_LOOP ( 'NONE', ( #19, #132, #62, #561 ) ) ;
#789 = PLANE ( 'NONE',  #1144 ) ;
#790 = VECTOR ( 'NONE', #116, 1000.000000000000000 ) ;
#791 = LINE ( 'NONE', #997, #756 ) ;
#792 = ORIENTED_EDGE ( 'NONE', *, *, #1161, .T. ) ;
#793 = DATE_AND_TIME ( #1295, #961 ) ;
#794 = ADVANCED_FACE ( 'NONE', ( #1331 ), #529, .T. ) ;
#795 = CARTESIAN_POINT ( 'NONE',  ( -176.4029999999999632, 1.270000000000000018, 49.91100000000001558 ) ) ;
#796 = CIRCLE ( 'NONE', #82, 4.500000000000003553 ) ;
#797 = LINE ( 'NONE', #1092, #774 ) ;
#798 = LINE ( 'NONE', #1201, #649 ) ;
#799 = VERTEX_POINT ( 'NONE', #616 ) ;
#800 = DIRECTION ( 'NONE',  ( 0.000000000000000000, 1.000000000000000000, 0.000000000000000000 ) ) ;
#801 = VECTOR ( 'NONE', #173, 1000.000000000000000 ) ;
#802 = CARTESIAN_POINT ( 'NONE',  ( -72.60649999999998272, -6.349999999999988987, 6.020998786000000713 ) ) ;
#803 = CARTESIAN_POINT ( 'NONE',  ( -161.1629999999999825, 1.270000000000000018, -1.770000000000002016 ) ) ;
#804 = DIRECTION ( 'NONE',  ( -0.000000000000000000, 0.000000000000000000, 1.000000000000000000 ) ) ;
#805 = DIRECTION ( 'NONE',  ( -1.000000000000000000, 0.000000000000000000, 0.000000000000000000 ) ) ;
#806 = EDGE_CURVE ( 'NONE', #516, #1260, #724, .T. ) ;
#807 = CARTESIAN_POINT ( 'NONE',  ( -72.60649999999998272, -6.349999999999988987, 23.74892084735787279 ) ) ;
#808 =( GEOMETRIC_REPRESENTATION_CONTEXT ( 3 ) GLOBAL_UNCERTAINTY_ASSIGNED_CONTEXT ( ( #668 ) ) GLOBAL_UNIT_ASSIGNED_CONTEXT ( ( #1180, #891, #1203 ) ) REPRESENTATION_CONTEXT ( 'NONE', 'WORKASPACE' ) );
#809 = LINE ( 'NONE', #395, #580 ) ;
#810 = CARTESIAN_POINT ( 'NONE',  ( -192.9129999999999825, 4.445000000000000284, -5.489001213999997297 ) ) ;
#811 = ORIENTED_EDGE ( 'NONE', *, *, #1171, .T. ) ;
#812 = CIRCLE ( 'NONE', #240, 4.500000000000003553 ) ;
#813 = CARTESIAN_POINT ( 'NONE',  ( -107.6064999999999827, -6.349999999999983658, 6.020998786000000713 ) ) ;
#814 = EDGE_CURVE ( 'NONE', #778, #608, #230, .T. ) ;
#815 = DIRECTION ( 'NONE',  ( 0.000000000000000000, 0.000000000000000000, -1.000000000000000000 ) ) ;
#816 = VECTOR ( 'NONE', #169, 1000.000000000000000 ) ;
#817 = CARTESIAN_POINT ( 'NONE',  ( -3.810000000000007603, 2.269999999999994245, 51.18099999999999739 ) ) ;
#818 = VECTOR ( 'NONE', #227, 1000.000000000000000 ) ;
#819 = CARTESIAN_POINT ( 'NONE',  ( -3.810000000000007603, 0.000000000000000000, 49.91099999999999426 ) ) ;
#820 = AXIS2_PLACEMENT_3D ( 'NONE', #690, #1193, #682 ) ;
#821 = CARTESIAN_POINT ( 'NONE',  ( -107.6064999999999827, -6.349999999999983658, 6.020998786000000713 ) ) ;
#822 = VERTEX_POINT ( 'NONE', #834 ) ;
#823 = PLANE ( 'NONE',  #693 ) ;
#824 = PRODUCT_DEFINITION ( 'UNKNOWN', '', #408, #376 ) ;
#825 = CARTESIAN_POINT ( 'NONE',  ( 0.000000000000000000, -9.700000000000001066, 0.000000000000000000 ) ) ;
#826 = EDGE_CURVE ( 'NONE', #608, #1202, #1241, .T. ) ;
#827 = PLANE ( 'NONE',  #555 ) ;
#828 = CARTESIAN_POINT ( 'NONE',  ( 0.000000000000000000, 0.000000000000000000, -1.770000000000002016 ) ) ;
#829 = VERTEX_POINT ( 'NONE', #639 ) ;
#830 = DIRECTION ( 'NONE',  ( 1.000000000000000000, 0.000000000000000000, -4.218418767239443746E-18 ) ) ;
#831 = DIRECTION ( 'NONE',  ( 0.000000000000000000, 1.000000000000000000, -0.000000000000000000 ) ) ;
#832 = ADVANCED_FACE ( 'NONE', ( #409, #717, #417 ), #117, .T. ) ;
#833 = LOCAL_TIME ( 12, 12, 32.00000000000000000, #207 ) ;
#834 = CARTESIAN_POINT ( 'NONE',  ( -161.1629999999999825, 1.270000000000000018, -1.770000000000002016 ) ) ;
#835 = ORIENTED_EDGE ( 'NONE', *, *, #988, .T. ) ;
#836 = LINE ( 'NONE', #855, #688 ) ;
#837 = ORIENTED_EDGE ( 'NONE', *, *, #1240, .F. ) ;
#838 = LINE ( 'NONE', #533, #84 ) ;
#839 = AXIS2_PLACEMENT_3D ( 'NONE', #783, #671, #1081 ) ;
#840 = CARTESIAN_POINT ( 'NONE',  ( -59.60650000000000404, -9.700000000000001066, 51.18099999999999028 ) ) ;
#841 = ORIENTED_EDGE ( 'NONE', *, *, #697, .F. ) ;
#842 = CARTESIAN_POINT ( 'NONE',  ( -167.5764999999999816, 212.9456876847032731, 11.02099878600000160 ) ) ;
#843 = EDGE_LOOP ( 'NONE', ( #654, #1190, #548, #664 ) ) ;
#844 = PLANE ( 'NONE',  #748 ) ;
#845 = ORIENTED_EDGE ( 'NONE', *, *, #762, .F. ) ;
#846 = ORIENTED_EDGE ( 'NONE', *, *, #1047, .F. ) ;
#847 = EDGE_CURVE ( 'NONE', #104, #1116, #1071, .T. ) ;
#848 = LINE ( 'NONE', #726, #267 ) ;
#849 = VERTEX_POINT ( 'NONE', #514 ) ;
#850 = DIRECTION ( 'NONE',  ( 0.000000000000000000, 1.000000000000000000, 0.000000000000000000 ) ) ;
#851 = VECTOR ( 'NONE', #528, 1000.000000000000000 ) ;
#852 = ORIENTED_EDGE ( 'NONE', *, *, #96, .F. ) ;
#853 = EDGE_CURVE ( 'NONE', #702, #1095, #650, .T. ) ;
#854 = AXIS2_PLACEMENT_3D ( 'NONE', #223, #531, #941 ) ;
#855 = CARTESIAN_POINT ( 'NONE',  ( -112.1064999999999685, -6.349999999999983658, 23.74892084735787634 ) ) ;
#856 = EDGE_LOOP ( 'NONE', ( #811, #933, #1082, #944 ) ) ;
#857 = CARTESIAN_POINT ( 'NONE',  ( -12.63649999999999451, 0.000000000000000000, 51.18099999999999739 ) ) ;
#858 = VERTEX_POINT ( 'NONE', #840 ) ;
#859 = ORIENTED_EDGE ( 'NONE', *, *, #1333, .F. ) ;
#860 = VECTOR ( 'NONE', #274, 1000.000000000000000 ) ;
#861 = DIRECTION ( 'NONE',  ( 1.000000000000000000, 0.000000000000000000, 0.000000000000000000 ) ) ;
#862 = VERTEX_POINT ( 'NONE', #213 ) ;
#863 = DIRECTION ( 'NONE',  ( 0.000000000000000000, 1.000000000000000000, -0.000000000000000000 ) ) ;
#864 = ORIENTED_EDGE ( 'NONE', *, *, #1182, .T. ) ;
#865 = ADVANCED_FACE ( 'NONE', ( #622 ), #103, .T. ) ;
#866 = CARTESIAN_POINT ( 'NONE',  ( -181.9829999999999757, 2.269999999999994245, -1.269999999999996909 ) ) ;
#867 = EDGE_CURVE ( 'NONE', #1318, #168, #1, .T. ) ;
#868 = PLANE ( 'NONE',  #16 ) ;
#869 = ORIENTED_EDGE ( 'NONE', *, *, #442, .F. ) ;
#870 = CARTESIAN_POINT ( 'NONE',  ( -176.4029999999999632, 4.445000000000000284, 27.17000000000003723 ) ) ;
#871 = DIRECTION ( 'NONE',  ( -1.000000000000000000, 0.000000000000000000, 0.000000000000000000 ) ) ;
#872 = EDGE_CURVE ( 'NONE', #451, #778, #667, .T. ) ;
#873 = VECTOR ( 'NONE', #740, 1000.000000000000000 ) ;
#874 = CIRCLE ( 'NONE', #281, 2.875000000000002665 ) ;
#875 = CARTESIAN_POINT ( 'NONE',  ( -181.9829999999999757, 0.000000000000000000, -1.770000000000002016 ) ) ;
#876 = ORIENTED_EDGE ( 'NONE', *, *, #785, .T. ) ;
#877 = CARTESIAN_POINT ( 'NONE',  ( -75.48149999999998272, -6.349999999999988987, 51.18100000000001160 ) ) ;
#878 = FACE_OUTER_BOUND ( 'NONE', #294, .T. ) ;
#879 = AXIS2_PLACEMENT_3D ( 'NONE', #48, #1181, #43 ) ;
#880 = DIRECTION ( 'NONE',  ( 1.000000000000000000, 0.000000000000000000, -6.103324382627934694E-17 ) ) ;
#881 = VECTOR ( 'NONE', #225, 1000.000000000000000 ) ;
#882 = DIRECTION ( 'NONE',  ( 0.000000000000000000, 0.000000000000000000, 1.000000000000000000 ) ) ;
#883 = VERTEX_POINT ( 'NONE', #978 ) ;
#884 = PERSON_AND_ORGANIZATION ( #1021, #512 ) ;
#885 = ORIENTED_EDGE ( 'NONE', *, *, #337, .T. ) ;
#886 = CARTESIAN_POINT ( 'NONE',  ( -176.4029999999999632, -1.208654451933713058E-15, 51.18099999999999739 ) ) ;
#887 = LINE ( 'NONE', #1199, #1221 ) ;
#888 = EDGE_CURVE ( 'NONE', #976, #1034, #1078, .T. ) ;
#889 = LINE ( 'NONE', #52, #1011 ) ;
#890 = ORIENTED_EDGE ( 'NONE', *, *, #1257, .T. ) ;
#891 =( NAMED_UNIT ( * ) PLANE_ANGLE_UNIT ( ) SI_UNIT ( $, .RADIAN. ) );
#892 = CARTESIAN_POINT ( 'NONE',  ( -167.5764999999999816, 0.000000000000000000, 51.18099999999999739 ) ) ;
#893 = VERTEX_POINT ( 'NONE', #1287 ) ;
#894 = ORIENTED_EDGE ( 'NONE', *, *, #1209, .F. ) ;
#895 = DIRECTION ( 'NONE',  ( 1.000000000000000000, 0.000000000000000000, 0.000000000000000000 ) ) ;
#896 = CC_DESIGN_APPROVAL ( #58, ( #824 ) ) ;
#897 = CARTESIAN_POINT ( 'NONE',  ( 0.000000000000000000, 2.270000000000000462, 0.000000000000000000 ) ) ;
#898 = ADVANCED_FACE ( 'NONE', ( #365 ), #360, .F. ) ;
#899 = VERTEX_POINT ( 'NONE', #280 ) ;
#900 = PERSON_AND_ORGANIZATION ( #1021, #512 ) ;
#901 = FACE_OUTER_BOUND ( 'NONE', #1266, .T. ) ;
#902 = EDGE_LOOP ( 'NONE', ( #180, #885, #915, #156 ) ) ;
#903 = FACE_OUTER_BOUND ( 'NONE', #956, .T. ) ;
#904 = DIRECTION ( 'NONE',  ( 0.000000000000000000, -0.000000000000000000, -1.000000000000000000 ) ) ;
#905 = DATE_TIME_ROLE ( 'creation_date' ) ;
#906 = LINE ( 'NONE', #1227, #347 ) ;
#907 = EDGE_CURVE ( 'NONE', #557, #976, #578, .T. ) ;
#908 = ORIENTED_EDGE ( 'NONE', *, *, #752, .F. ) ;
#909 = VECTOR ( 'NONE', #478, 1000.000000000000000 ) ;
#910 = DIRECTION ( 'NONE',  ( -0.000000000000000000, -0.000000000000000000, 1.000000000000000000 ) ) ;
#911 = LINE ( 'NONE', #803, #397 ) ;
#912 = DIRECTION ( 'NONE',  ( 0.000000000000000000, -0.000000000000000000, 1.000000000000000000 ) ) ;
#913 = LINE ( 'NONE', #423, #873 ) ;
#914 = ORIENTED_EDGE ( 'NONE', *, *, #42, .T. ) ;
#915 = ORIENTED_EDGE ( 'NONE', *, *, #554, .T. ) ;
#916 = ADVANCED_FACE ( 'NONE', ( #878 ), #472, .F. ) ;
#917 = CARTESIAN_POINT ( 'NONE',  ( -176.4029999999999632, -1.208654451933713058E-15, 51.18099999999999739 ) ) ;
#918 = DIRECTION ( 'NONE',  ( -0.000000000000000000, -0.000000000000000000, -1.000000000000000000 ) ) ;
#919 = LOCAL_TIME ( 12, 12, 32.00000000000000000, #498 ) ;
#920 = DIRECTION ( 'NONE',  ( -1.000000000000000000, 0.000000000000000000, 0.000000000000000000 ) ) ;
#921 = CARTESIAN_POINT ( 'NONE',  ( -181.9830000000000041, 2.270000000000000462, 21.58999999999998209 ) ) ;
#922 = ORIENTED_EDGE ( 'NONE', *, *, #1249, .F. ) ;
#923 = VECTOR ( 'NONE', #108, 1000.000000000000000 ) ;
#924 = DIRECTION ( 'NONE',  ( 0.000000000000000000, -0.000000000000000000, -1.000000000000000000 ) ) ;
#925 = ORIENTED_EDGE ( 'NONE', *, *, #426, .T. ) ;
#926 = ADVANCED_FACE ( 'NONE', ( #1191 ), #467, .F. ) ;
#927 = LINE ( 'NONE', #1232, #670 ) ;
#928 = SHAPE_DEFINITION_REPRESENTATION ( #457, #524 ) ;
#929 = LINE ( 'NONE', #1336, #325 ) ;
#930 = AXIS2_PLACEMENT_3D ( 'NONE', #1282, #770, #154 ) ;
#931 = CYLINDRICAL_SURFACE ( 'NONE', #1122, 4.499999999999990230 ) ;
#932 = DIRECTION ( 'NONE',  ( 1.000000000000000000, 0.000000000000000000, 0.000000000000000000 ) ) ;
#933 = ORIENTED_EDGE ( 'NONE', *, *, #1206, .F. ) ;
#934 = EDGE_CURVE ( 'NONE', #241, #80, #768, .T. ) ;
#935 = COORDINATED_UNIVERSAL_TIME_OFFSET ( 5, 0, .BEHIND. ) ;
#936 = LINE ( 'NONE', #549, #990 ) ;
#937 = LINE ( 'NONE', #5, #214 ) ;
#938 = DIRECTION ( 'NONE',  ( 0.000000000000000000, -0.000000000000000000, -1.000000000000000000 ) ) ;
#939 = ORIENTED_EDGE ( 'NONE', *, *, #853, .T. ) ;
#940 = EDGE_CURVE ( 'NONE', #1211, #1245, #687, .T. ) ;
#941 = DIRECTION ( 'NONE',  ( 0.000000000000000000, 0.000000000000000000, -1.000000000000000000 ) ) ;
#942 = CARTESIAN_POINT ( 'NONE',  ( 0.000000000000000000, 1.270000000000000018, 49.91100000000001558 ) ) ;
#943 = DIRECTION ( 'NONE',  ( -0.000000000000000000, 0.000000000000000000, 1.000000000000000000 ) ) ;
#944 = ORIENTED_EDGE ( 'NONE', *, *, #1065, .F. ) ;
#945 = AXIS2_PLACEMENT_3D ( 'NONE', #295, #704, #1112 ) ;
#946 = DIRECTION ( 'NONE',  ( 0.000000000000000000, -1.000000000000000000, 0.000000000000000000 ) ) ;
#947 = VERTEX_POINT ( 'NONE', #886 ) ;
#948 = CYLINDRICAL_SURFACE ( 'NONE', #27, 2.875000000000002665 ) ;
#949 = VECTOR ( 'NONE', #556, 1000.000000000000000 ) ;
#950 = EDGE_CURVE ( 'NONE', #557, #1260, #1097, .T. ) ;
#951 = ORIENTED_EDGE ( 'NONE', *, *, #964, .F. ) ;
#952 = CARTESIAN_POINT ( 'NONE',  ( 0.000000000000000000, 0.000000000000000000, 0.000000000000000000 ) ) ;
#953 = ORIENTED_EDGE ( 'NONE', *, *, #741, .T. ) ;
#954 = CARTESIAN_POINT ( 'NONE',  ( -3.810000000000007603, 0.000000000000000000, 51.18099999999999739 ) ) ;
#955 = EDGE_CURVE ( 'NONE', #138, #666, #383, .T. ) ;
#956 = EDGE_LOOP ( 'NONE', ( #1242, #77, #876, #447 ) ) ;
#957 = LINE ( 'NONE', #3, #563 ) ;
#958 = ORIENTED_EDGE ( 'NONE', *, *, #1257, .F. ) ;
#959 = CARTESIAN_POINT ( 'NONE',  ( 1.769999999999993356, 0.000000000000000000, 49.91099999999999426 ) ) ;
#960 = ORIENTED_EDGE ( 'NONE', *, *, #597, .F. ) ;
#961 = LOCAL_TIME ( 12, 12, 32.00000000000000000, #388 ) ;
#962 = EDGE_LOOP ( 'NONE', ( #1297, #640, #273, #317 ) ) ;
#963 = VECTOR ( 'NONE', #830, 1000.000000000000000 ) ;
#964 = EDGE_CURVE ( 'NONE', #829, #862, #560, .T. ) ;
#965 = FACE_OUTER_BOUND ( 'NONE', #1072, .T. ) ;
#966 = ORIENTED_EDGE ( 'NONE', *, *, #1056, .T. ) ;
#967 = CARTESIAN_POINT ( 'NONE',  ( -59.60650000000000404, -9.700000000000001066, 11.02099878600000160 ) ) ;
#968 = ORIENTED_EDGE ( 'NONE', *, *, #1165, .T. ) ;
#969 = DIRECTION ( 'NONE',  ( 0.000000000000000000, -1.000000000000000000, 0.000000000000000000 ) ) ;
#970 = EDGE_LOOP ( 'NONE', ( #545, #890, #368, #250, #658, #908 ) ) ;
#971 = VECTOR ( 'NONE', #861, 1000.000000000000000 ) ;
#972 = PRODUCT ( 'X-axis Way Cover Motor Side', 'X-axis Way Cover Motor Side', '', ( #54 ) ) ;
#973 = VECTOR ( 'NONE', #165, 1000.000000000000000 ) ;
#974 = DIRECTION ( 'NONE',  ( -1.365923996832132842E-16, -0.000000000000000000, -1.000000000000000000 ) ) ;
#975 = EDGE_CURVE ( 'NONE', #1116, #993, #1303, .T. ) ;
#976 = VERTEX_POINT ( 'NONE', #1177 ) ;
#977 = DIRECTION ( 'NONE',  ( -1.000000000000000000, 0.000000000000000000, -0.000000000000000000 ) ) ;
#978 = CARTESIAN_POINT ( 'NONE',  ( -192.9129999999999825, -12.69999999999998863, 51.18099999999999739 ) ) ;
#979 = CARTESIAN_POINT ( 'NONE',  ( -3.810000000000035580, 3.106988124944954422E-13, 51.18099999999999739 ) ) ;
#980 = EDGE_LOOP ( 'NONE', ( #455, #672, #419, #484, #495, #1066, #387, #1147 ) ) ;
#981 = CARTESIAN_POINT ( 'NONE',  ( 12.69999999999998863, 2.269999999999994245, -5.489001213999997297 ) ) ;
#982 = AXIS2_PLACEMENT_3D ( 'NONE', #23, #1170, #1261 ) ;
#983 = LINE ( 'NONE', #1178, #456 ) ;
#984 = AXIS2_PLACEMENT_3D ( 'NONE', #1117, #202, #195 ) ;
#985 = EDGE_LOOP ( 'NONE', ( #1150, #1030 ) ) ;
#986 = DIRECTION ( 'NONE',  ( 1.000000000000000000, 0.000000000000000000, 0.000000000000000000 ) ) ;
#987 = ORIENTED_EDGE ( 'NONE', *, *, #261, .T. ) ;
#988 = EDGE_CURVE ( 'NONE', #123, #1318, #674, .T. ) ;
#989 = CARTESIAN_POINT ( 'NONE',  ( 1.769999999999993356, 2.270000000000000462, 21.58999999999998565 ) ) ;
#990 = VECTOR ( 'NONE', #444, 1000.000000000000000 ) ;
#991 = PLANE ( 'NONE',  #930 ) ;
#992 = ORIENTED_EDGE ( 'NONE', *, *, #744, .F. ) ;
#993 = VERTEX_POINT ( 'NONE', #66 ) ;
#994 = CARTESIAN_POINT ( 'NONE',  ( -181.9829999999999757, 1.270000000000000018, 21.58999999999998565 ) ) ;
#995 = EDGE_CURVE ( 'NONE', #329, #702, #260, .T. ) ;
#996 = DIRECTION ( 'NONE',  ( 0.000000000000000000, -1.000000000000000000, 0.000000000000000000 ) ) ;
#997 = CARTESIAN_POINT ( 'NONE',  ( -155.5829999999999700, 2.270000000000000462, 3.809999999999999165 ) ) ;
#998 = EDGE_LOOP ( 'NONE', ( #282, #215 ) ) ;
#999 = PERSON_AND_ORGANIZATION ( #1021, #512 ) ;
#1000 = ORIENTED_EDGE ( 'NONE', *, *, #995, .T. ) ;
#1001 = LINE ( 'NONE', #298, #30 ) ;
#1002 = LINE ( 'NONE', #589, #310 ) ;
#1003 = FACE_OUTER_BOUND ( 'NONE', #468, .T. ) ;
#1004 = EDGE_LOOP ( 'NONE', ( #182, #577, #211, #486, #525, #339, #1275, #925 ) ) ;
#1005 = EDGE_CURVE ( 'NONE', #329, #300, #675, .T. ) ;
#1006 = PERSON_AND_ORGANIZATION ( #1021, #512 ) ;
#1007 = LINE ( 'NONE', #721, #454 ) ;
#1008 = ORIENTED_EDGE ( 'NONE', *, *, #459, .F. ) ;
#1009 = CARTESIAN_POINT ( 'NONE',  ( -72.60649999999998272, -6.349999999999988987, -5.489001214000014173 ) ) ;
#1010 = PLANE ( 'NONE',  #1268 ) ;
#1011 = VECTOR ( 'NONE', #657, 1000.000000000000000 ) ;
#1012 = CALENDAR_DATE ( 2026, 26, 5 ) ;
#1013 = EDGE_CURVE ( 'NONE', #1256, #899, #485, .T. ) ;
#1014 = DIRECTION ( 'NONE',  ( 1.000000000000000000, 0.000000000000000000, 0.000000000000000000 ) ) ;
#1015 = CARTESIAN_POINT ( 'NONE',  ( -161.1629999999999825, 1.270000000000000018, 3.809999999999999609 ) ) ;
#1016 = VECTOR ( 'NONE', #10, 1000.000000000000000 ) ;
#1017 = ORIENTED_EDGE ( 'NONE', *, *, #201, .F. ) ;
#1018 = DIRECTION ( 'NONE',  ( -0.000000000000000000, 0.000000000000000000, 1.000000000000000000 ) ) ;
#1019 = DIRECTION ( 'NONE',  ( -1.365923996832132842E-16, -0.000000000000000000, -1.000000000000000000 ) ) ;
#1020 = CARTESIAN_POINT ( 'NONE',  ( -103.1064999999999827, -6.349999999999982769, 6.020998786000000713 ) ) ;
#1021 = PERSON ( 'UNSPECIFIED', 'UNSPECIFIED', 'UNSPECIFIED', ('UNSPECIFIED'), ('UNSPECIFIED'), ('UNSPECIFIED') ) ;
#1022 = DIRECTION ( 'NONE',  ( -0.7071067811865457964, -0.000000000000000000, -0.7071067811865492381 ) ) ;
#1023 = EDGE_LOOP ( 'NONE', ( #846, #958, #1163, #134 ) ) ;
#1024 = ADVANCED_FACE ( 'NONE', ( #1197 ), #680, .T. ) ;
#1025 = CARTESIAN_POINT ( 'NONE',  ( -161.1629999999999825, 2.269999999999994245, -1.770000000000002016 ) ) ;
#1026 = LINE ( 'NONE', #297, #1244 ) ;
#1027 = DATE_TIME_ROLE ( 'classification_date' ) ;
#1028 = DIRECTION ( 'NONE',  ( -0.000000000000000000, 0.000000000000000000, 1.000000000000000000 ) ) ;
#1029 = LINE ( 'NONE', #810, #334 ) ;
#1030 = ORIENTED_EDGE ( 'NONE', *, *, #1106, .F. ) ;
#1031 = CLOSED_SHELL ( 'NONE', ( #926, #515, #354, #635, #1233, #677, #1286, #540, #194, #898, #312, #436, #1154, #236, #176, #832, #590, #87, #167, #113, #403, #491, #794, #147, #1198, #350, #25, #1290, #1093, #137, #1024, #865, #916, #1281, #1098, #736, #562, #614, #4, #131 ) ) ;
#1032 = DIRECTION ( 'NONE',  ( 1.000000000000000000, 0.000000000000000000, 0.000000000000000000 ) ) ;
#1033 = EDGE_CURVE ( 'NONE', #799, #849, #838, .T. ) ;
#1034 = VERTEX_POINT ( 'NONE', #86 ) ;
#1035 = CARTESIAN_POINT ( 'NONE',  ( 0.000000000000000000, 0.000000000000000000, 49.91099999999999426 ) ) ;
#1036 = DIRECTION ( 'NONE',  ( -1.000000000000000000, 0.000000000000000000, 0.000000000000000000 ) ) ;
#1037 = ORIENTED_EDGE ( 'NONE', *, *, #703, .T. ) ;
#1038 = VECTOR ( 'NONE', #1186, 1000.000000000000000 ) ;
#1039 = DIRECTION ( 'NONE',  ( 0.000000000000000000, -1.000000000000000000, 0.000000000000000000 ) ) ;
#1040 = ORIENTED_EDGE ( 'NONE', *, *, #105, .T. ) ;
#1041 = PERSON_AND_ORGANIZATION ( #1021, #512 ) ;
#1042 = DIRECTION ( 'NONE',  ( -0.000000000000000000, 0.000000000000000000, 1.000000000000000000 ) ) ;
#1043 = CARTESIAN_POINT ( 'NONE',  ( -12.63649999999999451, 212.9456876847032731, 11.02099878600000160 ) ) ;
#1044 = DIRECTION ( 'NONE',  ( 1.000000000000000000, 0.000000000000000000, 0.000000000000000000 ) ) ;
#1045 = EDGE_LOOP ( 'NONE', ( #960, #1049, #1153, #1084 ) ) ;
#1046 = DIRECTION ( 'NONE',  ( -1.000000000000000000, 0.000000000000000000, 6.103324382627934694E-17 ) ) ;
#1047 = EDGE_CURVE ( 'NONE', #80, #993, #203, .T. ) ;
#1048 = VECTOR ( 'NONE', #1284, 1000.000000000000000 ) ;
#1049 = ORIENTED_EDGE ( 'NONE', *, *, #210, .T. ) ;
#1050 = CARTESIAN_POINT ( 'NONE',  ( -12.63649999999999451, -9.700000000000001066, 51.18099999999999739 ) ) ;
#1051 = ORIENTED_EDGE ( 'NONE', *, *, #386, .T. ) ;
#1052 = VECTOR ( 'NONE', #567, 1000.000000000000000 ) ;
#1053 = CARTESIAN_POINT ( 'NONE',  ( 11.67999999999999972, 1.270000000000000018, 11.67999999999999972 ) ) ;
#1054 = ORIENTED_EDGE ( 'NONE', *, *, #480, .F. ) ;
#1055 = DIRECTION ( 'NONE',  ( 0.000000000000000000, 0.000000000000000000, 1.000000000000000000 ) ) ;
#1056 = EDGE_CURVE ( 'NONE', #516, #685, #727, .T. ) ;
#1057 = VECTOR ( 'NONE', #663, 1000.000000000000000 ) ;
#1058 = CIRCLE ( 'NONE', #1226, 4.499999999999990230 ) ;
#1059 = ORIENTED_EDGE ( 'NONE', *, *, #655, .F. ) ;
#1060 = LINE ( 'NONE', #338, #624 ) ;
#1061 = ORIENTED_EDGE ( 'NONE', *, *, #728, .F. ) ;
#1062 = PLANE ( 'NONE',  #299 ) ;
#1063 = ORIENTED_EDGE ( 'NONE', *, *, #1148, .T. ) ;
#1064 = APPROVAL ( #1310, 'UNSPECIFIED' ) ;
#1065 = EDGE_CURVE ( 'NONE', #883, #221, #1329, .T. ) ;
#1066 = ORIENTED_EDGE ( 'NONE', *, *, #888, .T. ) ;
#1067 = CARTESIAN_POINT ( 'NONE',  ( 12.69999999999998863, 4.445000000000000284, -5.489001213999997297 ) ) ;
#1068 = ORIENTED_EDGE ( 'NONE', *, *, #669, .F. ) ;
#1069 = CARTESIAN_POINT ( 'NONE',  ( -24.63000000000004164, 2.269999999999994245, 3.809999999999991172 ) ) ;
#1070 = EDGE_LOOP ( 'NONE', ( #1159, #637, #767, #737 ) ) ;
#1071 = LINE ( 'NONE', #1025, #881 ) ;
#1072 = EDGE_LOOP ( 'NONE', ( #271, #453, #88, #1017 ) ) ;
#1073 = EDGE_CURVE ( 'NONE', #771, #1212, #1127, .T. ) ;
#1074 = LINE ( 'NONE', #39, #1288 ) ;
#1075 = EDGE_LOOP ( 'NONE', ( #1263, #463, #263, #852, #1063, #112, #723, #1061 ) ) ;
#1076 = DIRECTION ( 'NONE',  ( 1.000000000000000000, 0.000000000000000000, 0.000000000000000000 ) ) ;
#1077 = EDGE_LOOP ( 'NONE', ( #373, #438 ) ) ;
#1078 = LINE ( 'NONE', #151, #1125 ) ;
#1079 = VECTOR ( 'NONE', #1130, 1000.000000000000000 ) ;
#1080 = VECTOR ( 'NONE', #969, 1000.000000000000000 ) ;
#1081 = DIRECTION ( 'NONE',  ( -1.000000000000000000, 0.000000000000000000, 0.000000000000000000 ) ) ;
#1082 = ORIENTED_EDGE ( 'NONE', *, *, #1134, .T. ) ;
#1083 = LINE ( 'NONE', #278, #1305 ) ;
#1084 = ORIENTED_EDGE ( 'NONE', *, *, #1073, .F. ) ;
#1085 = CARTESIAN_POINT ( 'NONE',  ( -110.4814999999999827, -6.349999999999983658, 51.18100000000001870 ) ) ;
#1086 = FACE_BOUND ( 'NONE', #1077, .T. ) ;
#1087 = ORIENTED_EDGE ( 'NONE', *, *, #248, .F. ) ;
#1088 = LINE ( 'NONE', #584, #662 ) ;
#1089 = EDGE_CURVE ( 'NONE', #571, #553, #435, .T. ) ;
#1090 = DIRECTION ( 'NONE',  ( 0.000000000000000000, 0.000000000000000000, -1.000000000000000000 ) ) ;
#1091 = APPROVAL_PERSON_ORGANIZATION ( #1041, #288, #519 ) ;
#1092 = CARTESIAN_POINT ( 'NONE',  ( 1.769999999999993356, 1.270000000000000018, 21.58999999999998565 ) ) ;
#1093 = ADVANCED_FACE ( 'NONE', ( #1235 ), #931, .F. ) ;
#1094 = DIRECTION ( 'NONE',  ( -1.000000000000000000, 0.000000000000000000, 0.000000000000000000 ) ) ;
#1095 = VERTEX_POINT ( 'NONE', #94 ) ;
#1096 = DIRECTION ( 'NONE',  ( 0.000000000000000000, -1.000000000000000000, 0.000000000000000000 ) ) ;
#1097 = LINE ( 'NONE', #892, #860 ) ;
#1098 = ADVANCED_FACE ( 'NONE', ( #626 ), #1337, .F. ) ;
#1099 = CARTESIAN_POINT ( 'NONE',  ( -120.6064999999999827, -9.700000000000001066, 51.18099999999999028 ) ) ;
#1100 = CIRCLE ( 'NONE', #522, 2.875000000000002665 ) ;
#1101 = LINE ( 'NONE', #489, #199 ) ;
#1102 = EDGE_LOOP ( 'NONE', ( #1229, #592, #1136, #402 ) ) ;
#1103 = APPLICATION_PROTOCOL_DEFINITION ( 'international standard', 'config_control_design', 1994, #570 ) ;
#1104 = DIRECTION ( 'NONE',  ( -1.000000000000000000, 0.000000000000000000, 0.000000000000000000 ) ) ;
#1105 = DIRECTION ( 'NONE',  ( 1.000000000000000000, 0.000000000000000000, 0.000000000000000000 ) ) ;
#1106 = EDGE_CURVE ( 'NONE', #1172, #71, #427, .T. ) ;
#1107 = PLANE ( 'NONE',  #416 ) ;
#1108 = ORIENTED_EDGE ( 'NONE', *, *, #744, .T. ) ;
#1109 = PERSON_AND_ORGANIZATION_ROLE ( 'design_owner' ) ;
#1110 = ORIENTED_EDGE ( 'NONE', *, *, #69, .T. ) ;
#1111 = LINE ( 'NONE', #817, #145 ) ;
#1112 = DIRECTION ( 'NONE',  ( 0.000000000000000000, -1.000000000000000000, 0.000000000000000000 ) ) ;
#1113 = EDGE_CURVE ( 'NONE', #771, #1272, #413, .T. ) ;
#1114 = VECTOR ( 'NONE', #653, 1000.000000000000000 ) ;
#1115 = CARTESIAN_POINT ( 'NONE',  ( -72.60649999999998272, -6.349999999999988987, 6.020998786000000713 ) ) ;
#1116 = VERTEX_POINT ( 'NONE', #1133 ) ;
#1117 = CARTESIAN_POINT ( 'NONE',  ( -107.6064999999999827, -6.349999999999983658, 51.18100000000001870 ) ) ;
#1118 = VERTEX_POINT ( 'NONE', #209 ) ;
#1119 = EDGE_LOOP ( 'NONE', ( #277, #780, #656, #226, #1110, #1169, #292, #1251, #46, #1283, #746, #35, #725, #490, #17, #445 ) ) ;
#1120 = VECTOR ( 'NONE', #508, 1000.000000000000000 ) ;
#1121 = DIRECTION ( 'NONE',  ( -1.365923996832132842E-16, 0.000000000000000000, -1.000000000000000000 ) ) ;
#1122 = AXIS2_PLACEMENT_3D ( 'NONE', #1239, #1246, #1036 ) ;
#1123 = CIRCLE ( 'NONE', #1223, 2.875000000000002665 ) ;
#1124 = DIRECTION ( 'NONE',  ( 0.000000000000000000, 0.000000000000000000, -1.000000000000000000 ) ) ;
#1125 = VECTOR ( 'NONE', #585, 1000.000000000000000 ) ;
#1126 = CARTESIAN_POINT ( 'NONE',  ( -181.9829999999999757, 0.000000000000000000, 0.000000000000000000 ) ) ;
#1127 = LINE ( 'NONE', #942, #1247 ) ;
#1128 = ORIENTED_EDGE ( 'NONE', *, *, #378, .F. ) ;
#1129 = LINE ( 'NONE', #1141, #418 ) ;
#1130 = DIRECTION ( 'NONE',  ( 0.000000000000000000, 1.000000000000000000, 0.000000000000000000 ) ) ;
#1131 = APPROVAL_DATE_TIME ( #719, #288 ) ;
#1132 = CARTESIAN_POINT ( 'NONE',  ( -77.10649999999998272, -6.349999999999988987, 6.020998786000000713 ) ) ;
#1133 = CARTESIAN_POINT ( 'NONE',  ( -181.9829999999999757, 2.270000000000000462, -1.770000000000002016 ) ) ;
#1134 = EDGE_CURVE ( 'NONE', #666, #221, #1029, .T. ) ;
#1135 = CARTESIAN_POINT ( 'NONE',  ( -59.60650000000000404, -12.69999999999999929, 51.18099999999999028 ) ) ;
#1136 = ORIENTED_EDGE ( 'NONE', *, *, #806, .T. ) ;
#1137 = CC_DESIGN_SECURITY_CLASSIFICATION ( #390, ( #408 ) ) ;
#1138 = CARTESIAN_POINT ( 'NONE',  ( -176.4029999999999632, 2.269999999999994245, 51.18099999999999739 ) ) ;
#1139 = DIRECTION ( 'NONE',  ( 0.000000000000000000, 0.000000000000000000, -1.000000000000000000 ) ) ;
#1140 = AXIS2_PLACEMENT_3D ( 'NONE', #713, #1028, #101 ) ;
#1141 = CARTESIAN_POINT ( 'NONE',  ( -176.4029999999999632, 0.000000000000000000, 49.91099999999999426 ) ) ;
#1142 = ORIENTED_EDGE ( 'NONE', *, *, #752, .T. ) ;
#1143 = CARTESIAN_POINT ( 'NONE',  ( -192.9129999999999825, -12.69999999999998863, -5.489001213999997297 ) ) ;
#1144 = AXIS2_PLACEMENT_3D ( 'NONE', #609, #996, #502 ) ;
#1145 = DIRECTION ( 'NONE',  ( -0.000000000000000000, -1.000000000000000000, -0.000000000000000000 ) ) ;
#1146 = DIRECTION ( 'NONE',  ( 1.000000000000000000, 0.000000000000000000, 0.000000000000000000 ) ) ;
#1147 = ORIENTED_EDGE ( 'NONE', *, *, #426, .F. ) ;
#1148 = EDGE_CURVE ( 'NONE', #700, #557, #913, .T. ) ;
#1149 = LINE ( 'NONE', #324, #818 ) ;
#1150 = ORIENTED_EDGE ( 'NONE', *, *, #712, .F. ) ;
#1151 = FACE_OUTER_BOUND ( 'NONE', #856, .T. ) ;
#1152 = DIRECTION ( 'NONE',  ( 0.000000000000000000, 0.000000000000000000, 1.000000000000000000 ) ) ;
#1153 = ORIENTED_EDGE ( 'NONE', *, *, #279, .F. ) ;
#1154 = ADVANCED_FACE ( 'NONE', ( #1151 ), #827, .F. ) ;
#1155 = DIRECTION ( 'NONE',  ( -1.365923996832132842E-16, -0.000000000000000000, -1.000000000000000000 ) ) ;
#1156 = LOCAL_TIME ( 12, 12, 32.00000000000000000, #382 ) ;
#1157 = ORIENTED_EDGE ( 'NONE', *, *, #1033, .F. ) ;
#1158 = LINE ( 'NONE', #761, #119 ) ;
#1159 = ORIENTED_EDGE ( 'NONE', *, *, #69, .F. ) ;
#1160 = ORIENTED_EDGE ( 'NONE', *, *, #303, .F. ) ;
#1161 = EDGE_CURVE ( 'NONE', #300, #329, #874, .T. ) ;
#1162 = CARTESIAN_POINT ( 'NONE',  ( -181.9829999999999757, 0.000000000000000000, 49.91099999999999426 ) ) ;
#1163 = ORIENTED_EDGE ( 'NONE', *, *, #61, .F. ) ;
#1164 = FACE_OUTER_BOUND ( 'NONE', #440, .T. ) ;
#1165 = EDGE_CURVE ( 'NONE', #862, #849, #327, .T. ) ;
#1166 = CIRCLE ( 'NONE', #586, 2.875000000000002665 ) ;
#1167 = ORIENTED_EDGE ( 'NONE', *, *, #386, .F. ) ;
#1168 = FACE_BOUND ( 'NONE', #763, .T. ) ;
#1169 = ORIENTED_EDGE ( 'NONE', *, *, #303, .T. ) ;
#1170 = DIRECTION ( 'NONE',  ( -0.000000000000000000, 0.000000000000000000, 1.000000000000000000 ) ) ;
#1171 = EDGE_CURVE ( 'NONE', #883, #128, #937, .T. ) ;
#1172 = VERTEX_POINT ( 'NONE', #429 ) ;
#1173 = LINE ( 'NONE', #351, #1057 ) ;
#1174 = ORIENTED_EDGE ( 'NONE', *, *, #507, .T. ) ;
#1175 = DIRECTION ( 'NONE',  ( 0.000000000000000000, 0.000000000000000000, -1.000000000000000000 ) ) ;
#1176 = ORIENTED_EDGE ( 'NONE', *, *, #254, .F. ) ;
#1177 = CARTESIAN_POINT ( 'NONE',  ( -167.5764999999999816, -9.700000000000001066, 11.02099878600000160 ) ) ;
#1178 = CARTESIAN_POINT ( 'NONE',  ( -3.142247407067489512E-30, 2.294704387520198855E-14, 51.18099999999999739 ) ) ;
#1179 = ORIENTED_EDGE ( 'NONE', *, *, #1240, .T. ) ;
#1180 =( LENGTH_UNIT ( ) NAMED_UNIT ( * ) SI_UNIT ( .MILLI., .METRE. ) );
#1181 = DIRECTION ( 'NONE',  ( -0.7071067811865475727, -0.000000000000000000, -0.7071067811865475727 ) ) ;
#1182 = EDGE_CURVE ( 'NONE', #685, #899, #224, .T. ) ;
#1183 = CARTESIAN_POINT ( 'NONE',  ( -12.63649999999999451, -12.69999999999998863, 11.02099878600000160 ) ) ;
#1184 = ORIENTED_EDGE ( 'NONE', *, *, #480, .T. ) ;
#1185 = PERSON_AND_ORGANIZATION_ROLE ( 'creator' ) ;
#1186 = DIRECTION ( 'NONE',  ( 0.000000000000000000, 0.000000000000000000, 1.000000000000000000 ) ) ;
#1187 = FACE_OUTER_BOUND ( 'NONE', #1231, .T. ) ;
#1188 = CARTESIAN_POINT ( 'NONE',  ( 1.769999999999993356, 2.269999999999994245, 21.58999999999998209 ) ) ;
#1189 = EDGE_CURVE ( 'NONE', #24, #256, #546, .T. ) ;
#1190 = ORIENTED_EDGE ( 'NONE', *, *, #526, .F. ) ;
#1191 = FACE_OUTER_BOUND ( 'NONE', #20, .T. ) ;
#1192 = AXIS2_PLACEMENT_3D ( 'NONE', #238, #754, #29 ) ;
#1193 = DIRECTION ( 'NONE',  ( 0.000000000000000000, -1.000000000000000000, -0.000000000000000000 ) ) ;
#1194 = PLANE ( 'NONE',  #607 ) ;
#1195 = AXIS2_PLACEMENT_3D ( 'NONE', #120, #126, #1046 ) ;
#1196 = ORIENTED_EDGE ( 'NONE', *, *, #105, .F. ) ;
#1197 = FACE_OUTER_BOUND ( 'NONE', #760, .T. ) ;
#1198 = ADVANCED_FACE ( 'NONE', ( #142 ), #948, .F. ) ;
#1199 = CARTESIAN_POINT ( 'NONE',  ( -12.63649999999999451, -9.700000000000001066, 51.18099999999999739 ) ) ;
#1200 = AXIS2_PLACEMENT_3D ( 'NONE', #68, #1207, #709 ) ;
#1201 = CARTESIAN_POINT ( 'NONE',  ( -3.810000000000035580, 3.106988124944954422E-13, 51.18099999999999739 ) ) ;
#1202 = VERTEX_POINT ( 'NONE', #135 ) ;
#1203 =( NAMED_UNIT ( * ) SI_UNIT ( $, .STERADIAN. ) SOLID_ANGLE_UNIT ( ) );
#1204 = VECTOR ( 'NONE', #462, 1000.000000000000000 ) ;
#1205 = CYLINDRICAL_SURFACE ( 'NONE', #984, 2.875000000000002665 ) ;
#1206 = EDGE_CURVE ( 'NONE', #666, #128, #772, .T. ) ;
#1207 = DIRECTION ( 'NONE',  ( 0.000000000000000000, -0.000000000000000000, -1.000000000000000000 ) ) ;
#1208 = DIRECTION ( 'NONE',  ( -1.000000000000000000, 0.000000000000000000, 0.000000000000000000 ) ) ;
#1209 = EDGE_CURVE ( 'NONE', #765, #552, #665, .T. ) ;
#1210 = PLANE ( 'NONE',  #641 ) ;
#1211 = VERTEX_POINT ( 'NONE', #539 ) ;
#1212 = VERTEX_POINT ( 'NONE', #461 ) ;
#1213 = EDGE_CURVE ( 'NONE', #1304, #1269, #659, .T. ) ;
#1214 = CARTESIAN_POINT ( 'NONE',  ( -12.63649999999999451, 0.000000000000000000, 0.000000000000000000 ) ) ;
#1215 = VECTOR ( 'NONE', #1055, 1000.000000000000000 ) ;
#1216 = DIRECTION ( 'NONE',  ( 1.000000000000000000, 0.000000000000000000, 0.000000000000000000 ) ) ;
#1217 = DIRECTION ( 'NONE',  ( 0.000000000000000000, -1.000000000000000000, 0.000000000000000000 ) ) ;
#1218 = VECTOR ( 'NONE', #493, 1000.000000000000114 ) ;
#1219 = CARTESIAN_POINT ( 'NONE',  ( -192.9129999999999825, 4.445000000000000284, 49.91100000000001558 ) ) ;
#1220 = ORIENTED_EDGE ( 'NONE', *, *, #630, .T. ) ;
#1221 = VECTOR ( 'NONE', #302, 1000.000000000000000 ) ;
#1222 = CARTESIAN_POINT ( 'NONE',  ( -161.1629999999999825, -3.174999999999999822, 11.02099878600000160 ) ) ;
#1223 = AXIS2_PLACEMENT_3D ( 'NONE', #518, #718, #411 ) ;
#1224 = LINE ( 'NONE', #598, #57 ) ;
#1225 = EDGE_CURVE ( 'NONE', #778, #172, #18, .T. ) ;
#1226 = AXIS2_PLACEMENT_3D ( 'NONE', #335, #924, #219 ) ;
#1227 = CARTESIAN_POINT ( 'NONE',  ( -120.6064999999999827, -9.700000000000001066, 51.18099999999999028 ) ) ;
#1228 = DIRECTION ( 'NONE',  ( 0.000000000000000000, 0.000000000000000000, 1.000000000000000000 ) ) ;
#1229 = ORIENTED_EDGE ( 'NONE', *, *, #907, .T. ) ;
#1230 = DIRECTION ( 'NONE',  ( 0.000000000000000000, -0.000000000000000000, -1.000000000000000000 ) ) ;
#1231 = EDGE_LOOP ( 'NONE', ( #228, #530, #1059, #460 ) ) ;
#1232 = CARTESIAN_POINT ( 'NONE',  ( 1.769999999999993356, 0.000000000000000000, -1.269999999999996909 ) ) ;
#1233 = ADVANCED_FACE ( 'NONE', ( #41 ), #446, .F. ) ;
#1234 = CARTESIAN_POINT ( 'NONE',  ( -176.4029999999999632, 2.269999999999994245, 27.17000000000003723 ) ) ;
#1235 = FACE_OUTER_BOUND ( 'NONE', #239, .T. ) ;
#1236 = CARTESIAN_POINT ( 'NONE',  ( -181.9829999999999757, 1.270000000000000240, 49.91099999999999426 ) ) ;
#1237 = VERTEX_POINT ( 'NONE', #1069 ) ;
#1238 = PLANE ( 'NONE',  #410 ) ;
#1239 = CARTESIAN_POINT ( 'NONE',  ( -107.6064999999999827, -6.349999999999983658, 23.74892084735787634 ) ) ;
#1240 = EDGE_CURVE ( 'NONE', #168, #355, #1158, .T. ) ;
#1241 = LINE ( 'NONE', #1135, #1120 ) ;
#1242 = ORIENTED_EDGE ( 'NONE', *, *, #1005, .T. ) ;
#1243 = CARTESIAN_POINT ( 'NONE',  ( -77.10649999999998272, -6.349999999999988987, -5.489001214000013285 ) ) ;
#1244 = VECTOR ( 'NONE', #99, 1000.000000000000000 ) ;
#1245 = VERTEX_POINT ( 'NONE', #551 ) ;
#1246 = DIRECTION ( 'NONE',  ( -1.365923996832132842E-16, -0.000000000000000000, -1.000000000000000000 ) ) ;
#1247 = VECTOR ( 'NONE', #1322, 1000.000000000000000 ) ;
#1248 = DIRECTION ( 'NONE',  ( 0.000000000000000000, -1.000000000000000000, 0.000000000000000000 ) ) ;
#1249 = EDGE_CURVE ( 'NONE', #743, #332, #558, .T. ) ;
#1250 = ORIENTED_EDGE ( 'NONE', *, *, #1333, .T. ) ;
#1251 = ORIENTED_EDGE ( 'NONE', *, *, #1325, .T. ) ;
#1252 = DIRECTION ( 'NONE',  ( 0.000000000000000000, -7.656524645920016286E-18, -1.000000000000000000 ) ) ;
#1253 = ORIENTED_EDGE ( 'NONE', *, *, #697, .T. ) ;
#1254 = CARTESIAN_POINT ( 'NONE',  ( -155.5829999999999700, 4.445000000000000284, 3.809999999999999165 ) ) ;
#1255 = VERTEX_POINT ( 'NONE', #959 ) ;
#1256 = VERTEX_POINT ( 'NONE', #967 ) ;
#1257 = EDGE_CURVE ( 'NONE', #1245, #80, #441, .T. ) ;
#1258 = CARTESIAN_POINT ( 'NONE',  ( -72.60649999999998272, -6.349999999999988987, -5.489001214000014173 ) ) ;
#1259 = AXIS2_PLACEMENT_3D ( 'NONE', #394, #65, #694 ) ;
#1260 = VERTEX_POINT ( 'NONE', #466 ) ;
#1261 = DIRECTION ( 'NONE',  ( 1.000000000000000000, 0.000000000000000000, 0.000000000000000000 ) ) ;
#1262 = VECTOR ( 'NONE', #1264, 1000.000000000000114 ) ;
#1263 = ORIENTED_EDGE ( 'NONE', *, *, #547, .F. ) ;
#1264 = DIRECTION ( 'NONE',  ( 0.7071067811865474617, -0.000000000000000000, -0.7071067811865474617 ) ) ;
#1265 = EDGE_CURVE ( 'NONE', #130, #1118, #448, .T. ) ;
#1266 = EDGE_LOOP ( 'NONE', ( #1128, #792, #1000, #939 ) ) ;
#1267 = DIRECTION ( 'NONE',  ( -0.000000000000000000, 0.000000000000000000, 1.000000000000000000 ) ) ;
#1268 = AXIS2_PLACEMENT_3D ( 'NONE', #70, #193, #1124 ) ;
#1269 = VERTEX_POINT ( 'NONE', #1050 ) ;
#1270 = ORIENTED_EDGE ( 'NONE', *, *, #712, .T. ) ;
#1271 = DIRECTION ( 'NONE',  ( -1.000000000000000000, 0.000000000000000000, 0.000000000000000000 ) ) ;
#1272 = VERTEX_POINT ( 'NONE', #253 ) ;
#1273 = CARTESIAN_POINT ( 'NONE',  ( -161.1629999999999825, -3.174999999999999822, 6.020998786000001601 ) ) ;
#1274 = CC_DESIGN_PERSON_AND_ORGANIZATION_ASSIGNMENT ( #884, #1185, ( #824 ) ) ;
#1275 = ORIENTED_EDGE ( 'NONE', *, *, #826, .T. ) ;
#1276 = CARTESIAN_POINT ( 'NONE',  ( -3.810000000000007603, 4.445000000000000284, 49.91100000000001558 ) ) ;
#1277 = LINE ( 'NONE', #362, #125 ) ;
#1278 = ORIENTED_EDGE ( 'NONE', *, *, #1113, .T. ) ;
#1279 = PLANE ( 'NONE',  #1192 ) ;
#1280 = CARTESIAN_POINT ( 'NONE',  ( -176.4029999999999632, 2.269999999999994245, 51.18099999999999739 ) ) ;
#1281 = ADVANCED_FACE ( 'NONE', ( #34 ), #844, .F. ) ;
#1282 = CARTESIAN_POINT ( 'NONE',  ( 0.000000000000000000, 0.000000000000000000, 49.91099999999999426 ) ) ;
#1283 = ORIENTED_EDGE ( 'NONE', *, *, #1206, .T. ) ;
#1284 = DIRECTION ( 'NONE',  ( -1.365923996832133088E-16, -0.000000000000000000, -1.000000000000000000 ) ) ;
#1285 = AXIS2_PLACEMENT_3D ( 'NONE', #828, #523, #932 ) ;
#1286 = ADVANCED_FACE ( 'NONE', ( #346 ), #1279, .T. ) ;
#1287 = CARTESIAN_POINT ( 'NONE',  ( -68.10649999999996851, -6.349999999999988098, 6.020998786000000713 ) ) ;
#1288 = VECTOR ( 'NONE', #276, 1000.000000000000000 ) ;
#1289 = CIRCLE ( 'NONE', #479, 4.500000000000003553 ) ;
#1290 = ADVANCED_FACE ( 'NONE', ( #1164, #247 ), #1062, .F. ) ;
#1291 = CYLINDRICAL_SURFACE ( 'NONE', #152, 2.875000000000002665 ) ;
#1292 = EDGE_LOOP ( 'NONE', ( #141, #594, #755, #513 ) ) ;
#1293 = CARTESIAN_POINT ( 'NONE',  ( 12.69999999999998863, 4.445000000000000284, 49.91100000000001558 ) ) ;
#1294 = ORIENTED_EDGE ( 'NONE', *, *, #1161, .F. ) ;
#1295 = CALENDAR_DATE ( 2026, 26, 5 ) ;
#1296 = DIRECTION ( 'NONE',  ( 1.000000000000000000, -0.000000000000000000, -0.000000000000000000 ) ) ;
#1297 = ORIENTED_EDGE ( 'NONE', *, *, #366, .F. ) ;
#1298 = CARTESIAN_POINT ( 'NONE',  ( -59.60650000000000404, -12.69999999999999929, 51.18099999999999028 ) ) ;
#1299 = CC_DESIGN_PERSON_AND_ORGANIZATION_ASSIGNMENT ( #673, #1109, ( #972 ) ) ;
#1300 = CARTESIAN_POINT ( 'NONE',  ( -167.5764999999999816, 0.000000000000000000, 11.02099878600000160 ) ) ;
#1301 = VERTEX_POINT ( 'NONE', #566 ) ;
#1302 = EDGE_CURVE ( 'NONE', #130, #414, #272, .T. ) ;
#1303 = LINE ( 'NONE', #866, #1038 ) ;
#1304 = VERTEX_POINT ( 'NONE', #372 ) ;
#1305 = VECTOR ( 'NONE', #264, 1000.000000000000114 ) ;
#1306 = DIRECTION ( 'NONE',  ( 0.000000000000000000, -1.000000000000000000, 0.000000000000000000 ) ) ;
#1307 = CARTESIAN_POINT ( 'NONE',  ( -59.60650000000000404, -9.700000000000001066, 51.18099999999999028 ) ) ;
#1308 = AXIS2_PLACEMENT_3D ( 'NONE', #33, #9, #434 ) ;
#1309 = EDGE_LOOP ( 'NONE', ( #352, #1294 ) ) ;
#1310 = APPROVAL_STATUS ( 'not_yet_approved' ) ;
#1311 = EDGE_CURVE ( 'NONE', #1237, #158, #1083, .T. ) ;
#1312 = FACE_OUTER_BOUND ( 'NONE', #1075, .T. ) ;
#1313 = CARTESIAN_POINT ( 'NONE',  ( -120.6064999999999827, -9.700000000000001066, 51.18099999999999028 ) ) ;
#1314 = AXIS2_PLACEMENT_3D ( 'NONE', #1293, #1271, #882 ) ;
#1315 = DIRECTION ( 'NONE',  ( 1.000000000000000000, 0.000000000000000000, -1.365923996832132842E-16 ) ) ;
#1316 = PERSON_AND_ORGANIZATION ( #1021, #512 ) ;
#1317 = CARTESIAN_POINT ( 'NONE',  ( -3.810000000000007603, 2.270000000000000462, 27.17000000000000881 ) ) ;
#1318 = VERTEX_POINT ( 'NONE', #679 ) ;
#1319 = CARTESIAN_POINT ( 'NONE',  ( -192.9129999999999825, 2.269999999999994245, -5.489001213999997297 ) ) ;
#1320 = FACE_OUTER_BOUND ( 'NONE', #1292, .T. ) ;
#1321 = DIRECTION ( 'NONE',  ( 1.000000000000000000, 0.000000000000000000, 0.000000000000000000 ) ) ;
#1322 = DIRECTION ( 'NONE',  ( 1.000000000000000000, 0.000000000000000000, 0.000000000000000000 ) ) ;
#1323 = ORIENTED_EDGE ( 'NONE', *, *, #343, .F. ) ;
#1324 = CARTESIAN_POINT ( 'NONE',  ( 0.000000000000000000, -12.69999999999999929, 0.000000000000000000 ) ) ;
#1325 = EDGE_CURVE ( 'NONE', #172, #138, #78, .T. ) ;
#1326 = LINE ( 'NONE', #1307, #501 ) ;
#1327 = CARTESIAN_POINT ( 'NONE',  ( -192.9129999999999825, 2.269999999999994245, 51.18099999999999739 ) ) ;
#1328 = AXIS2_PLACEMENT_3D ( 'NONE', #952, #946, #433 ) ;
#1329 = LINE ( 'NONE', #733, #568 ) ;
#1330 = ORIENTED_EDGE ( 'NONE', *, *, #621, .F. ) ;
#1331 = FACE_OUTER_BOUND ( 'NONE', #1004, .T. ) ;
#1332 = VERTEX_POINT ( 'NONE', #572 ) ;
#1333 = EDGE_CURVE ( 'NONE', #1116, #355, #1088, .T. ) ;
#1334 = VECTOR ( 'NONE', #331, 1000.000000000000000 ) ;
#1335 = DIRECTION ( 'NONE',  ( 0.000000000000000000, 0.000000000000000000, 1.000000000000000000 ) ) ;
#1336 = CARTESIAN_POINT ( 'NONE',  ( 0.000000000000000000, 0.000000000000000000, 49.91099999999999426 ) ) ;
#1337 = PLANE ( 'NONE',  #647 ) ;
ENDSEC;
END-ISO-10303-21;
