ISO-10303-21;
HEADER;
FILE_DESCRIPTION (( 'STEP AP203' ),
    '1' );
FILE_NAME ('Y-axis Way Cover Saddle Side.STEP',
    '2026-05-26T16:15:49',
    ( '' ),
    ( '' ),
    'SwSTEP 2.0',
    'SolidWorks 2025',
    '' );
FILE_SCHEMA (( 'CONFIG_CONTROL_DESIGN' ));
ENDSEC;

DATA;
#1 = UNCERTAINTY_MEASURE_WITH_UNIT (LENGTH_MEASURE( 1.000000000000000082E-05 ), #33, 'distance_accuracy_value', 'NONE');
#2 = DIRECTION ( 'NONE',  ( 1.000000000000000000, 0.000000000000000000, 0.000000000000000000 ) ) ;
#3 = EDGE_CURVE ( 'NONE', #310, #181, #128, .T. ) ;
#4 = SECURITY_CLASSIFICATION ( '', '', #951 ) ;
#5 = ORIENTED_EDGE ( 'NONE', *, *, #237, .F. ) ;
#6 = CARTESIAN_POINT ( 'NONE',  ( -1.413641999999999621, -0.1249999999999999029, 0.7615125899999999337 ) ) ;
#7 = AXIS2_PLACEMENT_3D ( 'NONE', #537, #9, #910 ) ;
#8 = CARTESIAN_POINT ( 'NONE',  ( -5.681358000000000352, 0.000000000000000000, 0.1508975899999996373 ) ) ;
#9 = DIRECTION ( 'NONE',  ( 0.000000000000000000, 1.000000000000000000, -0.000000000000000000 ) ) ;
#10 = CIRCLE ( 'NONE', #162, 0.1377952755905512972 ) ;
#11 = ORIENTED_EDGE ( 'NONE', *, *, #623, .T. ) ;
#12 = CARTESIAN_POINT ( 'NONE',  ( -5.681358000000000352, -0.1250000000000000000, 0.1508975899999996373 ) ) ;
#13 = CYLINDRICAL_SURFACE ( 'NONE', #446, 0.1329999999999997018 ) ;
#14 = DIRECTION ( 'NONE',  ( -1.000000000000000000, 0.000000000000000000, 0.000000000000000000 ) ) ;
#15 = DIRECTION ( 'NONE',  ( 0.000000000000000000, -1.000000000000000000, 0.000000000000000000 ) ) ;
#16 = VERTEX_POINT ( 'NONE', #780 ) ;
#17 = CARTESIAN_POINT ( 'NONE',  ( -5.681358000000000352, 0.000000000000000000, 0.2838975899999993668 ) ) ;
#18 = CIRCLE ( 'NONE', #747, 0.03000000000000002318 ) ;
#19 = FACE_OUTER_BOUND ( 'NONE', #504, .T. ) ;
#20 = VECTOR ( 'NONE', #758, 39.37007874015748143 ) ;
#21 = AXIS2_PLACEMENT_3D ( 'NONE', #754, #75, #370 ) ;
#22 = ADVANCED_FACE ( 'NONE', ( #244, #100, #28 ), #321, .T. ) ;
#23 = DIRECTION ( 'NONE',  ( 0.000000000000000000, 1.000000000000000000, 0.000000000000000000 ) ) ;
#24 = FACE_OUTER_BOUND ( 'NONE', #331, .T. ) ;
#25 = VERTEX_POINT ( 'NONE', #464 ) ;
#26 = EDGE_CURVE ( 'NONE', #613, #473, #710, .T. ) ;
#27 = ORIENTED_EDGE ( 'NONE', *, *, #211, .F. ) ;
#28 = FACE_BOUND ( 'NONE', #108, .T. ) ;
#29 = DIRECTION ( 'NONE',  ( 0.000000000000000000, 0.000000000000000000, 1.000000000000000000 ) ) ;
#30 = CYLINDRICAL_SURFACE ( 'NONE', #653, 0.1999999999999996503 ) ;
#31 = ORIENTED_EDGE ( 'NONE', *, *, #303, .F. ) ;
#32 = ORIENTED_EDGE ( 'NONE', *, *, #151, .F. ) ;
#33 =( CONVERSION_BASED_UNIT ( 'INCH', #798 ) LENGTH_UNIT ( ) NAMED_UNIT ( #565 ) );
#34 = EDGE_CURVE ( 'NONE', #65, #575, #864, .T. ) ;
#35 = DIRECTION ( 'NONE',  ( 0.000000000000000000, -0.000000000000000000, -1.000000000000000000 ) ) ;
#36 = AXIS2_PLACEMENT_3D ( 'NONE', #372, #302, #149 ) ;
#37 = ORIENTED_EDGE ( 'NONE', *, *, #513, .T. ) ;
#38 = ORIENTED_EDGE ( 'NONE', *, *, #803, .T. ) ;
#39 = CIRCLE ( 'NONE', #299, 0.1999999999999996503 ) ;
#40 = ORIENTED_EDGE ( 'NONE', *, *, #3, .F. ) ;
#41 = AXIS2_PLACEMENT_3D ( 'NONE', #137, #442, #953 ) ;
#42 = EDGE_LOOP ( 'NONE', ( #5, #858, #788, #227 ) ) ;
#43 = FACE_OUTER_BOUND ( 'NONE', #485, .T. ) ;
#44 = ADVANCED_FACE ( 'NONE', ( #280 ), #655, .F. ) ;
#45 = CARTESIAN_POINT ( 'NONE',  ( -1.413641999999999621, -0.6906854249492381248, 0.2838975899999993668 ) ) ;
#46 = ORIENTED_EDGE ( 'NONE', *, *, #741, .T. ) ;
#47 = CARTESIAN_POINT ( 'NONE',  ( -5.426357999999999571, 0.3249999999999999556, 0.4315125899999999737 ) ) ;
#48 = EDGE_CURVE ( 'NONE', #217, #65, #751, .T. ) ;
#49 = ORIENTED_EDGE ( 'NONE', *, *, #237, .T. ) ;
#50 = CARTESIAN_POINT ( 'NONE',  ( -2.720728346456692481, 0.1250000000000001110, 0.7615125899999999337 ) ) ;
#51 = DIRECTION ( 'NONE',  ( 0.000000000000000000, 0.000000000000000000, -1.000000000000000000 ) ) ;
#52 = EDGE_CURVE ( 'NONE', #136, #423, #199, .T. ) ;
#53 = AXIS2_PLACEMENT_3D ( 'NONE', #343, #865, #628 ) ;
#54 = CIRCLE ( 'NONE', #445, 0.2250000000000003386 ) ;
#55 = APPLICATION_CONTEXT ( 'configuration controlled 3d designs of mechanical parts and assemblies' ) ;
#56 = CIRCLE ( 'NONE', #21, 0.2000000000000000389 ) ;
#57 = DIRECTION ( 'NONE',  ( 0.000000000000000000, 0.000000000000000000, -1.000000000000000000 ) ) ;
#58 = ORIENTED_EDGE ( 'NONE', *, *, #147, .F. ) ;
#59 = CALENDAR_DATE ( 2026, 26, 5 ) ;
#60 = DIRECTION ( 'NONE',  ( 0.000000000000000000, 0.000000000000000000, -1.000000000000000000 ) ) ;
#61 = ORIENTED_EDGE ( 'NONE', *, *, #26, .T. ) ;
#62 = DIRECTION ( 'NONE',  ( 0.000000000000000000, 1.000000000000000000, -0.000000000000000000 ) ) ;
#63 = EDGE_CURVE ( 'NONE', #419, #89, #77, .T. ) ;
#64 = LINE ( 'NONE', #664, #87 ) ;
#65 = VERTEX_POINT ( 'NONE', #682 ) ;
#66 = LINE ( 'NONE', #453, #174 ) ;
#67 = AXIS2_PLACEMENT_3D ( 'NONE', #842, #238, #456 ) ;
#68 = DATE_AND_TIME ( #514, #762 ) ;
#69 = VECTOR ( 'NONE', #816, 39.37007874015748143 ) ;
#70 = CARTESIAN_POINT ( 'NONE',  ( -2.858523622047243862, 0.1250000000000001110, 0.4615125900000000003 ) ) ;
#71 = DIRECTION ( 'NONE',  ( 0.000000000000000000, -1.000000000000000000, 0.000000000000000000 ) ) ;
#72 = APPLICATION_PROTOCOL_DEFINITION ( 'international standard', 'config_control_design', 1994, #724 ) ;
#73 = EDGE_LOOP ( 'NONE', ( #687, #593, #358, #104 ) ) ;
#74 = CARTESIAN_POINT ( 'NONE',  ( -1.413641999999999621, 0.3250000000000000111, 0.2838975899999993668 ) ) ;
#75 = DIRECTION ( 'NONE',  ( -0.000000000000000000, 1.000000000000000000, -0.000000000000000000 ) ) ;
#76 = ADVANCED_FACE ( 'NONE', ( #965 ), #612, .T. ) ;
#77 = LINE ( 'NONE', #371, #855 ) ;
#78 = CYLINDRICAL_SURFACE ( 'NONE', #172, 0.1377952755905512972 ) ;
#79 = DIRECTION ( 'NONE',  ( -1.000000000000000000, 0.000000000000000000, 0.000000000000000000 ) ) ;
#80 = ADVANCED_FACE ( 'NONE', ( #439 ), #434, .F. ) ;
#81 = AXIS2_PLACEMENT_3D ( 'NONE', #435, #518, #440 ) ;
#82 = ORIENTED_EDGE ( 'NONE', *, *, #919, .T. ) ;
#83 = CARTESIAN_POINT ( 'NONE',  ( -1.413641999999999621, 0.000000000000000000, 0.4168975899999991519 ) ) ;
#84 = CIRCLE ( 'NONE', #732, 0.2249999999999999778 ) ;
#85 = CIRCLE ( 'NONE', #459, 0.1999999999999996780 ) ;
#86 = CYLINDRICAL_SURFACE ( 'NONE', #734, 0.1377952755905512972 ) ;
#87 = VECTOR ( 'NONE', #898, 39.37007874015748143 ) ;
#88 = ORIENTED_EDGE ( 'NONE', *, *, #216, .T. ) ;
#89 = VERTEX_POINT ( 'NONE', #219 ) ;
#90 = DIRECTION ( 'NONE',  ( -0.000000000000000000, 1.000000000000000000, -0.000000000000000000 ) ) ;
#91 = CYLINDRICAL_SURFACE ( 'NONE', #177, 0.2249999999999999778 ) ;
#92 = CARTESIAN_POINT ( 'NONE',  ( -1.413641999999999621, -0.1250000000000000000, 0.2838975899999993668 ) ) ;
#93 = EDGE_CURVE ( 'NONE', #273, #217, #54, .T. ) ;
#94 = DIRECTION ( 'NONE',  ( 0.000000000000000000, 0.000000000000000000, 1.000000000000000000 ) ) ;
#95 = CARTESIAN_POINT ( 'NONE',  ( -4.236476377952755890, 0.1250000000000001110, 0.7615125899999999337 ) ) ;
#96 = DIRECTION ( 'NONE',  ( -0.000000000000000000, -0.000000000000000000, -1.000000000000000000 ) ) ;
#97 = CIRCLE ( 'NONE', #651, 0.03000000000000002318 ) ;
#98 = ORIENTED_EDGE ( 'NONE', *, *, #93, .T. ) ;
#99 = VECTOR ( 'NONE', #236, 39.37007874015748143 ) ;
#100 = FACE_BOUND ( 'NONE', #614, .T. ) ;
#101 = FACE_BOUND ( 'NONE', #497, .T. ) ;
#102 = DIRECTION ( 'NONE',  ( 0.000000000000000000, 0.000000000000000000, 1.000000000000000000 ) ) ;
#103 = EDGE_CURVE ( 'NONE', #307, #791, #669, .T. ) ;
#104 = ORIENTED_EDGE ( 'NONE', *, *, #569, .F. ) ;
#105 = CYLINDRICAL_SURFACE ( 'NONE', #234, 0.2000000000000000389 ) ;
#106 = LINE ( 'NONE', #708, #524 ) ;
#107 = VERTEX_POINT ( 'NONE', #295 ) ;
#108 = EDGE_LOOP ( 'NONE', ( #667, #872 ) ) ;
#109 = CC_DESIGN_PERSON_AND_ORGANIZATION_ASSIGNMENT ( #576, #822, ( #426 ) ) ;
#110 = DIRECTION ( 'NONE',  ( -0.000000000000000000, 1.000000000000000000, -0.000000000000000000 ) ) ;
#111 = DIRECTION ( 'NONE',  ( -0.000000000000000000, 1.000000000000000000, -0.000000000000000000 ) ) ;
#112 = VECTOR ( 'NONE', #540, 39.37007874015748143 ) ;
#113 = ORIENTED_EDGE ( 'NONE', *, *, #618, .T. ) ;
#114 = VECTOR ( 'NONE', #676, 39.37007874015748143 ) ;
#115 = EDGE_LOOP ( 'NONE', ( #32, #11, #316, #725 ) ) ;
#116 = AXIS2_PLACEMENT_3D ( 'NONE', #70, #895, #601 ) ;
#117 = EDGE_LOOP ( 'NONE', ( #605, #264, #567, #696 ) ) ;
#118 = EDGE_LOOP ( 'NONE', ( #738, #195, #338, #454, #37, #643, #804, #261, #132, #844, #82, #337 ) ) ;
#119 = DIRECTION ( 'NONE',  ( -1.000000000000000000, 0.000000000000000000, -0.000000000000000000 ) ) ;
#120 = CARTESIAN_POINT ( 'NONE',  ( -2.996318897637795242, 0.1250000000000001110, 0.7615125899999999337 ) ) ;
#121 = ORIENTED_EDGE ( 'NONE', *, *, #336, .T. ) ;
#122 = DIRECTION ( 'NONE',  ( 0.000000000000000000, 0.000000000000000000, 1.000000000000000000 ) ) ;
#123 = PERSON ( 'UNSPECIFIED', 'UNSPECIFIED', 'UNSPECIFIED', ('UNSPECIFIED'), ('UNSPECIFIED'), ('UNSPECIFIED') ) ;
#124 = APPROVAL_ROLE ( '' ) ;
#125 = CARTESIAN_POINT ( 'NONE',  ( -5.681358000000000352, 0.3250000000000000111, 0.2838975899999993668 ) ) ;
#126 = LOCAL_TIME ( 12, 15, 49.00000000000000000, #659 ) ;
#127 = ORIENTED_EDGE ( 'NONE', *, *, #341, .F. ) ;
#128 = CIRCLE ( 'NONE', #427, 0.1999999999999996780 ) ;
#129 = APPROVAL_ROLE ( '' ) ;
#130 = VECTOR ( 'NONE', #799, 39.37007874015748143 ) ;
#131 = DIRECTION ( 'NONE',  ( 0.000000000000000000, 1.000000000000000000, 0.000000000000000000 ) ) ;
#132 = ORIENTED_EDGE ( 'NONE', *, *, #875, .F. ) ;
#133 = CARTESIAN_POINT ( 'NONE',  ( -1.413641999999999621, -0.1250000000000000000, 0.2838975899999993668 ) ) ;
#134 = EDGE_CURVE ( 'NONE', #486, #262, #688, .T. ) ;
#135 = COORDINATED_UNIVERSAL_TIME_OFFSET ( 5, 0, .BEHIND. ) ;
#136 = VERTEX_POINT ( 'NONE', #148 ) ;
#137 = CARTESIAN_POINT ( 'NONE',  ( 0.000000000000000000, 0.000000000000000000, 0.000000000000000000 ) ) ;
#138 = ORIENTED_EDGE ( 'NONE', *, *, #736, .T. ) ;
#139 = DIRECTION ( 'NONE',  ( 0.000000000000000000, 0.000000000000000000, -1.000000000000000000 ) ) ;
#140 = COORDINATED_UNIVERSAL_TIME_OFFSET ( 5, 0, .BEHIND. ) ;
#141 = EDGE_CURVE ( 'NONE', #613, #680, #97, .T. ) ;
#142 = DIRECTION ( 'NONE',  ( 0.000000000000000000, 0.000000000000000000, 1.000000000000000000 ) ) ;
#143 = ORIENTED_EDGE ( 'NONE', *, *, #482, .F. ) ;
#144 = LINE ( 'NONE', #355, #764 ) ;
#145 = CIRCLE ( 'NONE', #330, 0.1329999999999997295 ) ;
#146 = LINE ( 'NONE', #349, #69 ) ;
#147 = EDGE_CURVE ( 'NONE', #16, #766, #221, .T. ) ;
#148 = CARTESIAN_POINT ( 'NONE',  ( -5.681358000000000352, 0.3250000000000000111, 0.7615125899999999337 ) ) ;
#149 = DIRECTION ( 'NONE',  ( 0.000000000000000000, 0.000000000000000000, 1.000000000000000000 ) ) ;
#150 = DIRECTION ( 'NONE',  ( 0.000000000000000000, 0.000000000000000000, 1.000000000000000000 ) ) ;
#151 = EDGE_CURVE ( 'NONE', #243, #186, #792, .T. ) ;
#152 = ORIENTED_EDGE ( 'NONE', *, *, #647, .F. ) ;
#153 = ORIENTED_EDGE ( 'NONE', *, *, #952, .F. ) ;
#154 = CARTESIAN_POINT ( 'NONE',  ( -1.413641999999999621, 0.3249999999999999556, 0.7615125899999999337 ) ) ;
#155 = PRODUCT ( 'Y-axis Way Cover Saddle Side', 'Y-axis Way Cover Saddle Side', '', ( #447 ) ) ;
#156 = DIRECTION ( 'NONE',  ( -1.000000000000000000, 0.000000000000000000, 0.000000000000000000 ) ) ;
#157 = ORIENTED_EDGE ( 'NONE', *, *, #441, .F. ) ;
#158 = VECTOR ( 'NONE', #850, 39.37007874015748143 ) ;
#159 = VERTEX_POINT ( 'NONE', #359 ) ;
#160 = DIRECTION ( 'NONE',  ( -0.000000000000000000, 1.000000000000000000, -0.000000000000000000 ) ) ;
#161 = AXIS2_PLACEMENT_3D ( 'NONE', #379, #760, #841 ) ;
#162 = AXIS2_PLACEMENT_3D ( 'NONE', #598, #896, #827 ) ;
#163 = FACE_OUTER_BOUND ( 'NONE', #810, .T. ) ;
#164 = EDGE_CURVE ( 'NONE', #16, #903, #960, .T. ) ;
#165 = CARTESIAN_POINT ( 'NONE',  ( -5.681358000000000352, -0.1250000000000000000, 0.4168975899999990964 ) ) ;
#166 = CYLINDRICAL_SURFACE ( 'NONE', #670, 0.2250000000000003386 ) ;
#167 = ORIENTED_EDGE ( 'NONE', *, *, #538, .T. ) ;
#168 = EDGE_CURVE ( 'NONE', #273, #713, #66, .T. ) ;
#169 = CYLINDRICAL_SURFACE ( 'NONE', #883, 0.1377952755905512972 ) ;
#170 = DIRECTION ( 'NONE',  ( 0.000000000000000000, 1.000000000000000000, 0.000000000000000000 ) ) ;
#171 = CARTESIAN_POINT ( 'NONE',  ( -1.638641999999999488, -0.1250000000000000000, 0.000000000000000000 ) ) ;
#172 = AXIS2_PLACEMENT_3D ( 'NONE', #95, #396, #452 ) ;
#173 = LINE ( 'NONE', #467, #828 ) ;
#174 = VECTOR ( 'NONE', #674, 39.37007874015748143 ) ;
#175 = EDGE_CURVE ( 'NONE', #307, #713, #663, .T. ) ;
#176 = EDGE_LOOP ( 'NONE', ( #88, #49 ) ) ;
#177 = AXIS2_PLACEMENT_3D ( 'NONE', #848, #909, #782 ) ;
#178 = ORIENTED_EDGE ( 'NONE', *, *, #193, .F. ) ;
#179 = LINE ( 'NONE', #496, #130 ) ;
#180 = EDGE_CURVE ( 'NONE', #766, #568, #144, .T. ) ;
#181 = VERTEX_POINT ( 'NONE', #588 ) ;
#182 = DIRECTION ( 'NONE',  ( 0.000000000000000000, -1.000000000000000000, 0.000000000000000000 ) ) ;
#183 = FACE_BOUND ( 'NONE', #934, .T. ) ;
#184 = EDGE_LOOP ( 'NONE', ( #460, #941, #720, #31 ) ) ;
#185 = ORIENTED_EDGE ( 'NONE', *, *, #52, .F. ) ;
#186 = VERTEX_POINT ( 'NONE', #966 ) ;
#187 = CARTESIAN_POINT ( 'NONE',  ( -1.413641999999999621, -0.1250000000000000000, 0.2838975899999993668 ) ) ;
#188 = DIRECTION ( 'NONE',  ( -0.000000000000000000, 1.000000000000000000, -0.000000000000000000 ) ) ;
#189 = AXIS2_PLACEMENT_3D ( 'NONE', #770, #300, #703 ) ;
#190 = AXIS2_PLACEMENT_3D ( 'NONE', #239, #15, #314 ) ;
#191 = ORIENTED_EDGE ( 'NONE', *, *, #647, .T. ) ;
#192 = DIRECTION ( 'NONE',  ( -1.000000000000000000, 0.000000000000000000, 0.000000000000000000 ) ) ;
#193 = EDGE_CURVE ( 'NONE', #262, #555, #744, .T. ) ;
#194 = DIRECTION ( 'NONE',  ( 0.000000000000000000, 0.000000000000000000, -1.000000000000000000 ) ) ;
#195 = ORIENTED_EDGE ( 'NONE', *, *, #211, .T. ) ;
#196 = CC_DESIGN_PERSON_AND_ORGANIZATION_ASSIGNMENT ( #893, #508, ( #155 ) ) ;
#197 = CARTESIAN_POINT ( 'NONE',  ( -5.456357999999999819, -0.1250000000000000000, 0.000000000000000000 ) ) ;
#198 = ORIENTED_EDGE ( 'NONE', *, *, #164, .T. ) ;
#199 = LINE ( 'NONE', #756, #397 ) ;
#200 = CALENDAR_DATE ( 2026, 26, 5 ) ;
#201 = CARTESIAN_POINT ( 'NONE',  ( -4.374271653543306826, 0.1250000000000001110, 0.4615125900000000003 ) ) ;
#202 = EDGE_LOOP ( 'NONE', ( #583, #658, #417, #624 ) ) ;
#203 = CARTESIAN_POINT ( 'NONE',  ( -5.456357999999999819, -0.1250000000000000000, 0.4315125899999999737 ) ) ;
#204 = EDGE_CURVE ( 'NONE', #217, #487, #278, .T. ) ;
#205 = AXIS2_PLACEMENT_3D ( 'NONE', #802, #402, #552 ) ;
#206 = CARTESIAN_POINT ( 'NONE',  ( -5.906357999999999997, -0.1250000000000000000, 0.000000000000000000 ) ) ;
#207 = AXIS2_PLACEMENT_3D ( 'NONE', #364, #287, #581 ) ;
#208 = DIRECTION ( 'NONE',  ( -0.000000000000000000, 1.000000000000000000, -0.000000000000000000 ) ) ;
#209 = ORIENTED_EDGE ( 'NONE', *, *, #180, .F. ) ;
#210 = CARTESIAN_POINT ( 'NONE',  ( -4.236476377952755890, 0.1250000000000001110, 0.7615125899999999337 ) ) ;
#211 = EDGE_CURVE ( 'NONE', #561, #65, #84, .T. ) ;
#212 = PERSON_AND_ORGANIZATION ( #123, #220 ) ;
#213 = DIRECTION ( 'NONE',  ( 0.000000000000000000, 1.000000000000000000, 0.000000000000000000 ) ) ;
#214 = DIRECTION ( 'NONE',  ( 0.000000000000000000, 0.000000000000000000, -1.000000000000000000 ) ) ;
#215 = CALENDAR_DATE ( 2026, 26, 5 ) ;
#216 = EDGE_CURVE ( 'NONE', #465, #938, #632, .T. ) ;
#217 = VERTEX_POINT ( 'NONE', #365 ) ;
#218 = CARTESIAN_POINT ( 'NONE',  ( -1.413641999999999621, 0.3250000000000000111, 0.4838975899999994335 ) ) ;
#219 = CARTESIAN_POINT ( 'NONE',  ( -1.188641999999999532, 0.3250000000000000111, 0.2838975899999992558 ) ) ;
#220 = ORGANIZATION ( 'UNSPECIFIED', 'UNSPECIFIED', '' ) ;
#221 = CIRCLE ( 'NONE', #248, 0.2000000000000000389 ) ;
#222 = EDGE_LOOP ( 'NONE', ( #185, #745, #493, #862 ) ) ;
#223 = VECTOR ( 'NONE', #857, 39.37007874015748143 ) ;
#224 = APPROVAL ( #502, 'UNSPECIFIED' ) ;
#225 = LINE ( 'NONE', #525, #332 ) ;
#226 = CARTESIAN_POINT ( 'NONE',  ( -5.456357999999999819, 0.3250000000000000111, 0.5588975899999999442 ) ) ;
#227 = ORIENTED_EDGE ( 'NONE', *, *, #931, .F. ) ;
#228 = CARTESIAN_POINT ( 'NONE',  ( -1.413641999999999621, 0.000000000000000000, 0.2838975899999993668 ) ) ;
#229 = CARTESIAN_POINT ( 'NONE',  ( -5.426357999999999571, -4.843354410690341894, 0.4615125900000000003 ) ) ;
#230 = ORIENTED_EDGE ( 'NONE', *, *, #847, .T. ) ;
#231 = CARTESIAN_POINT ( 'NONE',  ( -2.858523622047243862, 0.1250000000000001110, 0.7615125899999999337 ) ) ;
#232 = CARTESIAN_POINT ( 'NONE',  ( -5.456357999999999819, 0.3250000000000000111, 0.4315125899999999737 ) ) ;
#233 = EDGE_CURVE ( 'NONE', #262, #486, #410, .T. ) ;
#234 = AXIS2_PLACEMENT_3D ( 'NONE', #711, #494, #29 ) ;
#235 = LINE ( 'NONE', #535, #112 ) ;
#236 = DIRECTION ( 'NONE',  ( 0.000000000000000000, 1.000000000000000000, 0.000000000000000000 ) ) ;
#237 = EDGE_CURVE ( 'NONE', #938, #465, #10, .T. ) ;
#238 = DIRECTION ( 'NONE',  ( -1.000000000000000000, 0.000000000000000000, 0.000000000000000000 ) ) ;
#239 = CARTESIAN_POINT ( 'NONE',  ( 0.000000000000000000, 0.000000000000000000, 0.000000000000000000 ) ) ;
#240 = DIRECTION ( 'NONE',  ( 0.000000000000000000, 0.000000000000000000, 1.000000000000000000 ) ) ;
#241 = EDGE_CURVE ( 'NONE', #766, #16, #56, .T. ) ;
#242 = DIRECTION ( 'NONE',  ( 0.000000000000000000, 0.000000000000000000, 1.000000000000000000 ) ) ;
#243 = VERTEX_POINT ( 'NONE', #679 ) ;
#244 = FACE_OUTER_BOUND ( 'NONE', #853, .T. ) ;
#245 = CARTESIAN_POINT ( 'NONE',  ( -1.668641999999999515, -0.1250000000000000000, 0.4315125899999999737 ) ) ;
#246 = APPROVAL_PERSON_ORGANIZATION ( #957, #636, #124 ) ;
#247 = ADVANCED_FACE ( 'NONE', ( #318 ), #91, .T. ) ;
#248 = AXIS2_PLACEMENT_3D ( 'NONE', #811, #955, #972 ) ;
#249 = FACE_OUTER_BOUND ( 'NONE', #834, .T. ) ;
#250 = CIRCLE ( 'NONE', #807, 0.2000000000000000389 ) ;
#251 = VECTOR ( 'NONE', #652, 39.37007874015748143 ) ;
#252 = VERTEX_POINT ( 'NONE', #8 ) ;
#253 = VERTEX_POINT ( 'NONE', #304 ) ;
#254 = CARTESIAN_POINT ( 'NONE',  ( -5.456357999999999819, -0.1250000000000000000, 0.000000000000000000 ) ) ;
#255 = DIRECTION ( 'NONE',  ( -0.000000000000000000, 1.000000000000000000, -0.000000000000000000 ) ) ;
#256 = EDGE_LOOP ( 'NONE', ( #58, #198, #638, #209 ) ) ;
#257 = ORIENTED_EDGE ( 'NONE', *, *, #952, .T. ) ;
#258 = VERTEX_POINT ( 'NONE', #470 ) ;
#259 = CARTESIAN_POINT ( 'NONE',  ( -5.681358000000000352, -0.1250000000000000000, 0.4168975899999990964 ) ) ;
#260 = DIRECTION ( 'NONE',  ( 0.000000000000000000, 0.000000000000000000, 1.000000000000000000 ) ) ;
#261 = ORIENTED_EDGE ( 'NONE', *, *, #141, .T. ) ;
#262 = VERTEX_POINT ( 'NONE', #611 ) ;
#263 = EDGE_CURVE ( 'NONE', #938, #159, #173, .T. ) ;
#264 = ORIENTED_EDGE ( 'NONE', *, *, #103, .T. ) ;
#265 = DIRECTION ( 'NONE',  ( -0.000000000000000000, 1.000000000000000000, -0.000000000000000000 ) ) ;
#266 = CARTESIAN_POINT ( 'NONE',  ( -5.906357999999999997, 0.3250000000000000111, 0.2838975899999997554 ) ) ;
#267 = AXIS2_PLACEMENT_3D ( 'NONE', #908, #904, #832 ) ;
#268 = AXIS2_PLACEMENT_3D ( 'NONE', #582, #969, #292 ) ;
#269 = ORIENTED_EDGE ( 'NONE', *, *, #519, .T. ) ;
#270 = COORDINATED_UNIVERSAL_TIME_OFFSET ( 5, 0, .BEHIND. ) ;
#271 = PLANE ( 'NONE',  #718 ) ;
#272 = ORIENTED_EDGE ( 'NONE', *, *, #500, .F. ) ;
#273 = VERTEX_POINT ( 'NONE', #608 ) ;
#274 = DIRECTION ( 'NONE',  ( 0.000000000000000000, 1.000000000000000000, -0.000000000000000000 ) ) ;
#275 = DATE_TIME_ROLE ( 'classification_date' ) ;
#276 = ADVANCED_FACE ( 'NONE', ( #704, #852 ), #476, .F. ) ;
#277 = DIRECTION ( 'NONE',  ( 0.000000000000000000, 1.000000000000000000, 0.000000000000000000 ) ) ;
#278 = LINE ( 'NONE', #521, #716 ) ;
#279 = ORIENTED_EDGE ( 'NONE', *, *, #429, .F. ) ;
#280 = FACE_OUTER_BOUND ( 'NONE', #184, .T. ) ;
#281 = DIRECTION ( 'NONE',  ( -0.000000000000000000, 1.000000000000000000, -0.000000000000000000 ) ) ;
#282 = EDGE_LOOP ( 'NONE', ( #646, #279 ) ) ;
#283 = DIRECTION ( 'NONE',  ( -0.000000000000000000, 1.000000000000000000, -0.000000000000000000 ) ) ;
#284 = AXIS2_PLACEMENT_3D ( 'NONE', #254, #192, #929 ) ;
#285 = AXIS2_PLACEMENT_3D ( 'NONE', #657, #808, #142 ) ;
#286 = PERSON_AND_ORGANIZATION ( #123, #220 ) ;
#287 = DIRECTION ( 'NONE',  ( 0.000000000000000000, 1.000000000000000000, 0.000000000000000000 ) ) ;
#288 = ORIENTED_EDGE ( 'NONE', *, *, #134, .T. ) ;
#289 = CARTESIAN_POINT ( 'NONE',  ( -4.374271653543306826, 0.1250000000000001110, 0.7615125899999999337 ) ) ;
#290 = APPROVAL_DATE_TIME ( #367, #293 ) ;
#291 = LINE ( 'NONE', #425, #360 ) ;
#292 = DIRECTION ( 'NONE',  ( -1.000000000000000000, 0.000000000000000000, 0.000000000000000000 ) ) ;
#293 = APPROVAL ( #656, 'UNSPECIFIED' ) ;
#294 = DIRECTION ( 'NONE',  ( 0.000000000000000000, 0.000000000000000000, 1.000000000000000000 ) ) ;
#295 = CARTESIAN_POINT ( 'NONE',  ( -5.681358000000000352, 0.3250000000000000111, 0.08389758999999968880 ) ) ;
#296 = ORIENTED_EDGE ( 'NONE', *, *, #803, .F. ) ;
#297 = DIRECTION ( 'NONE',  ( 0.000000000000000000, 0.000000000000000000, -1.000000000000000000 ) ) ;
#298 = ADVANCED_FACE ( 'NONE', ( #163 ), #166, .T. ) ;
#299 = AXIS2_PLACEMENT_3D ( 'NONE', #771, #387, #94 ) ;
#300 = DIRECTION ( 'NONE',  ( 0.000000000000000000, 1.000000000000000000, 0.000000000000000000 ) ) ;
#301 = DIRECTION ( 'NONE',  ( -0.000000000000000000, 1.000000000000000000, -0.000000000000000000 ) ) ;
#302 = DIRECTION ( 'NONE',  ( -1.000000000000000000, 0.000000000000000000, 0.000000000000000000 ) ) ;
#303 = EDGE_CURVE ( 'NONE', #473, #433, #529, .T. ) ;
#304 = CARTESIAN_POINT ( 'NONE',  ( -1.413641999999999621, 0.000000000000000000, 0.1508975899999996373 ) ) ;
#305 = DIRECTION ( 'NONE',  ( -0.000000000000000000, -0.000000000000000000, -1.000000000000000000 ) ) ;
#306 = CARTESIAN_POINT ( 'NONE',  ( -2.858523622047243862, 0.1250000000000001110, 0.7615125899999999337 ) ) ;
#307 = VERTEX_POINT ( 'NONE', #232 ) ;
#308 = CC_DESIGN_DATE_AND_TIME_ASSIGNMENT ( #730, #275, ( #4 ) ) ;
#309 = AXIS2_PLACEMENT_3D ( 'NONE', #92, #607, #240 ) ;
#310 = VERTEX_POINT ( 'NONE', #773 ) ;
#311 = CARTESIAN_POINT ( 'NONE',  ( -5.426357999999999571, -0.1249999999999999029, 0.4315125899999999737 ) ) ;
#312 = AXIS2_PLACEMENT_3D ( 'NONE', #133, #62, #602 ) ;
#313 = AXIS2_PLACEMENT_3D ( 'NONE', #622, #96, #695 ) ;
#314 = DIRECTION ( 'NONE',  ( 0.000000000000000000, -0.000000000000000000, -1.000000000000000000 ) ) ;
#315 = EDGE_CURVE ( 'NONE', #413, #613, #541, .T. ) ;
#316 = ORIENTED_EDGE ( 'NONE', *, *, #429, .T. ) ;
#317 = FACE_OUTER_BOUND ( 'NONE', #755, .T. ) ;
#318 = FACE_OUTER_BOUND ( 'NONE', #406, .T. ) ;
#319 = VERTEX_POINT ( 'NONE', #906 ) ;
#320 = EDGE_CURVE ( 'NONE', #159, #258, #398, .T. ) ;
#321 = PLANE ( 'NONE',  #161 ) ;
#322 = CARTESIAN_POINT ( 'NONE',  ( -5.681358000000000352, 0.3250000000000000111, 0.4838975899999989894 ) ) ;
#323 = CARTESIAN_POINT ( 'NONE',  ( -5.906357999999999997, -4.843354410690341894, 0.7615125899999999337 ) ) ;
#324 = ORIENTED_EDGE ( 'NONE', *, *, #736, .F. ) ;
#325 = DIRECTION ( 'NONE',  ( -0.000000000000000000, -1.000000000000000000, 0.000000000000000000 ) ) ;
#326 = CC_DESIGN_APPROVAL ( #224, ( #426 ) ) ;
#327 = AXIS2_PLACEMENT_3D ( 'NONE', #517, #821, #884 ) ;
#328 = CARTESIAN_POINT ( 'NONE',  ( -1.668641999999999515, 0.3250000000000000111, 0.4615125900000000003 ) ) ;
#329 = ORIENTED_EDGE ( 'NONE', *, *, #34, .F. ) ;
#330 = AXIS2_PLACEMENT_3D ( 'NONE', #340, #942, #51 ) ;
#331 = EDGE_LOOP ( 'NONE', ( #451, #949, #472, #468 ) ) ;
#332 = VECTOR ( 'NONE', #818, 39.37007874015748143 ) ;
#333 = ORIENTED_EDGE ( 'NONE', *, *, #623, .F. ) ;
#334 = FACE_OUTER_BOUND ( 'NONE', #882, .T. ) ;
#335 = CARTESIAN_POINT ( 'NONE',  ( -1.188641999999999532, 0.3250000000000000111, 0.5365125899999999559 ) ) ;
#336 = EDGE_CURVE ( 'NONE', #959, #107, #39, .T. ) ;
#337 = ORIENTED_EDGE ( 'NONE', *, *, #553, .T. ) ;
#338 = ORIENTED_EDGE ( 'NONE', *, *, #48, .F. ) ;
#339 = ORIENTED_EDGE ( 'NONE', *, *, #538, .F. ) ;
#340 = CARTESIAN_POINT ( 'NONE',  ( -1.413641999999999621, -0.1250000000000000000, 0.2838975899999993668 ) ) ;
#341 = EDGE_CURVE ( 'NONE', #680, #887, #392, .T. ) ;
#342 = ORIENTED_EDGE ( 'NONE', *, *, #600, .F. ) ;
#343 = CARTESIAN_POINT ( 'NONE',  ( -1.668641999999999515, 0.3249999999999999556, 0.4315125899999999737 ) ) ;
#344 = CARTESIAN_POINT ( 'NONE',  ( -1.638641999999999488, 0.3250000000000000111, 0.2838975899999993113 ) ) ;
#345 = APPROVAL_PERSON_ORGANIZATION ( #286, #293, #814 ) ;
#346 = AXIS2_PLACEMENT_3D ( 'NONE', #592, #746, #60 ) ;
#347 = EDGE_LOOP ( 'NONE', ( #894, #617 ) ) ;
#348 = EDGE_CURVE ( 'NONE', #769, #701, #870, .T. ) ;
#349 = CARTESIAN_POINT ( 'NONE',  ( -4.098681102362204065, 0.1250000000000001110, 0.7615125899999999337 ) ) ;
#350 = ORIENTED_EDGE ( 'NONE', *, *, #180, .T. ) ;
#351 = PERSON_AND_ORGANIZATION ( #123, #220 ) ;
#352 = ADVANCED_FACE ( 'NONE', ( #19 ), #382, .F. ) ;
#353 = CARTESIAN_POINT ( 'NONE',  ( -5.906357999999999997, 0.3250000000000000111, 0.5365125899999999559 ) ) ;
#354 = ORIENTED_EDGE ( 'NONE', *, *, #723, .F. ) ;
#355 = CARTESIAN_POINT ( 'NONE',  ( -1.413641999999999621, -0.6906854249492381248, 0.4838975899999994335 ) ) ;
#356 = APPLICATION_PROTOCOL_DEFINITION ( 'international standard', 'config_control_design', 1994, #55 ) ;
#357 = CARTESIAN_POINT ( 'NONE',  ( -5.681358000000000352, 0.000000000000000000, 0.2838975899999993668 ) ) ;
#358 = ORIENTED_EDGE ( 'NONE', *, *, #526, .F. ) ;
#359 = CARTESIAN_POINT ( 'NONE',  ( -2.720728346456692481, 0.1250000000000001110, 0.4615125900000000003 ) ) ;
#360 = VECTOR ( 'NONE', #733, 39.37007874015748143 ) ;
#361 = VECTOR ( 'NONE', #274, 39.37007874015748143 ) ;
#362 = AXIS2_PLACEMENT_3D ( 'NONE', #323, #122, #559 ) ;
#363 = APPROVAL_DATE_TIME ( #68, #224 ) ;
#364 = CARTESIAN_POINT ( 'NONE',  ( -5.681358000000000352, -0.1250000000000000000, 0.2838975899999993668 ) ) ;
#365 = CARTESIAN_POINT ( 'NONE',  ( -5.906357999999999997, -0.1250000000000000000, 0.2838975899999999220 ) ) ;
#366 = ADVANCED_FACE ( 'NONE', ( #918 ), #775, .T. ) ;
#367 = DATE_AND_TIME ( #200, #899 ) ;
#368 = ORIENTED_EDGE ( 'NONE', *, *, #204, .T. ) ;
#369 = DIRECTION ( 'NONE',  ( 0.000000000000000000, 0.000000000000000000, -1.000000000000000000 ) ) ;
#370 = DIRECTION ( 'NONE',  ( 0.000000000000000000, 0.000000000000000000, -1.000000000000000000 ) ) ;
#371 = CARTESIAN_POINT ( 'NONE',  ( -1.188641999999999532, 0.3250000000000000111, 0.6838975900000000552 ) ) ;
#372 = CARTESIAN_POINT ( 'NONE',  ( -1.188641999999999532, -0.1250000000000000000, 0.000000000000000000 ) ) ;
#373 = DIRECTION ( 'NONE',  ( -0.000000000000000000, 1.000000000000000000, -0.000000000000000000 ) ) ;
#374 = ORIENTED_EDGE ( 'NONE', *, *, #488, .F. ) ;
#375 = CIRCLE ( 'NONE', #189, 0.2249999999999999223 ) ;
#376 = VECTOR ( 'NONE', #139, 39.37007874015748143 ) ;
#377 = CIRCLE ( 'NONE', #116, 0.1377952755905512972 ) ;
#378 = ADVANCED_FACE ( 'NONE', ( #24 ), #86, .F. ) ;
#379 = CARTESIAN_POINT ( 'NONE',  ( -5.681358000000000352, 0.3250000000000000111, 0.2838975899999993668 ) ) ;
#380 = AXIS2_PLACEMENT_3D ( 'NONE', #737, #57, #825 ) ;
#381 = DIRECTION ( 'NONE',  ( -0.000000000000000000, 1.000000000000000000, -0.000000000000000000 ) ) ;
#382 = CYLINDRICAL_SURFACE ( 'NONE', #313, 0.1377952755905512972 ) ;
#383 = ORIENTED_EDGE ( 'NONE', *, *, #660, .T. ) ;
#384 = CARTESIAN_POINT ( 'NONE',  ( -5.681358000000000352, 0.000000000000000000, 0.2838975899999993668 ) ) ;
#385 = ADVANCED_FACE ( 'NONE', ( #691 ), #13, .F. ) ;
#386 = DIRECTION ( 'NONE',  ( 0.000000000000000000, 0.000000000000000000, -1.000000000000000000 ) ) ;
#387 = DIRECTION ( 'NONE',  ( 0.000000000000000000, 1.000000000000000000, 0.000000000000000000 ) ) ;
#388 = ORIENTED_EDGE ( 'NONE', *, *, #233, .F. ) ;
#389 = EDGE_LOOP ( 'NONE', ( #530, #288 ) ) ;
#390 = LINE ( 'NONE', #921, #586 ) ;
#391 = CC_DESIGN_APPROVAL ( #636, ( #4 ) ) ;
#392 = LINE ( 'NONE', #698, #99 ) ;
#393 = ADVANCED_FACE ( 'NONE', ( #479, #183, #421 ), #271, .T. ) ;
#394 = ORIENTED_EDGE ( 'NONE', *, *, #560, .T. ) ;
#395 = CIRCLE ( 'NONE', #267, 0.2249999999999999223 ) ;
#396 = DIRECTION ( 'NONE',  ( -0.000000000000000000, -0.000000000000000000, -1.000000000000000000 ) ) ;
#397 = VECTOR ( 'NONE', #2, 39.37007874015748143 ) ;
#398 = CIRCLE ( 'NONE', #700, 0.1377952755905512972 ) ;
#399 = CARTESIAN_POINT ( 'NONE',  ( -5.906357999999999997, -0.1250000000000000000, 0.000000000000000000 ) ) ;
#400 = ADVANCED_FACE ( 'NONE', ( #416 ), #564, .F. ) ;
#401 = CYLINDRICAL_SURFACE ( 'NONE', #444, 0.1329999999999997018 ) ;
#402 = DIRECTION ( 'NONE',  ( 0.000000000000000000, 0.000000000000000000, -1.000000000000000000 ) ) ;
#403 = DIRECTION ( 'NONE',  ( -0.000000000000000000, -1.000000000000000000, -0.000000000000000000 ) ) ;
#404 = DIRECTION ( 'NONE',  ( -0.000000000000000000, 1.000000000000000000, -0.000000000000000000 ) ) ;
#405 = EDGE_LOOP ( 'NONE', ( #923, #492, #642, #113 ) ) ;
#406 = EDGE_LOOP ( 'NONE', ( #702, #153, #797, #354 ) ) ;
#407 = CARTESIAN_POINT ( 'NONE',  ( -5.681358000000000352, -4.843354410690341894, 0.7615125899999999337 ) ) ;
#408 = ADVANCED_FACE ( 'NONE', ( #249 ), #30, .F. ) ;
#409 = VECTOR ( 'NONE', #381, 39.37007874015748143 ) ;
#410 = CIRCLE ( 'NONE', #268, 0.1377952755905512972 ) ;
#411 = DIRECTION ( 'NONE',  ( 0.000000000000000000, 0.000000000000000000, -1.000000000000000000 ) ) ;
#412 = AXIS2_PLACEMENT_3D ( 'NONE', #879, #208, #958 ) ;
#413 = VERTEX_POINT ( 'NONE', #328 ) ;
#414 = ORIENTED_EDGE ( 'NONE', *, *, #681, .F. ) ;
#415 = DIRECTION ( 'NONE',  ( -0.000000000000000000, -0.000000000000000000, -1.000000000000000000 ) ) ;
#416 = FACE_OUTER_BOUND ( 'NONE', #777, .T. ) ;
#417 = ORIENTED_EDGE ( 'NONE', *, *, #660, .F. ) ;
#418 = ORIENTED_EDGE ( 'NONE', *, *, #341, .T. ) ;
#419 = VERTEX_POINT ( 'NONE', #335 ) ;
#420 = LINE ( 'NONE', #707, #158 ) ;
#421 = FACE_OUTER_BOUND ( 'NONE', #118, .T. ) ;
#422 = ADVANCED_FACE ( 'NONE', ( #641, #712, #573 ), #930, .T. ) ;
#423 = VERTEX_POINT ( 'NONE', #925 ) ;
#424 = COORDINATED_UNIVERSAL_TIME_OFFSET ( 5, 0, .BEHIND. ) ;
#425 = CARTESIAN_POINT ( 'NONE',  ( -5.456357999999999819, 0.3250000000000000111, 0.4615125900000000003 ) ) ;
#426 = PRODUCT_DEFINITION_FORMATION_WITH_SPECIFIED_SOURCE ( 'ANY', '', #155, .NOT_KNOWN. ) ;
#427 = AXIS2_PLACEMENT_3D ( 'NONE', #384, #845, #544 ) ;
#428 = VECTOR ( 'NONE', #111, 39.37007874015748143 ) ;
#429 = EDGE_CURVE ( 'NONE', #253, #859, #634, .T. ) ;
#430 = ORIENTED_EDGE ( 'NONE', *, *, #315, .F. ) ;
#431 = SHAPE_DEFINITION_REPRESENTATION ( #690, #556 ) ;
#432 = DIRECTION ( 'NONE',  ( 0.000000000000000000, 0.000000000000000000, 1.000000000000000000 ) ) ;
#433 = VERTEX_POINT ( 'NONE', #484 ) ;
#434 = CYLINDRICAL_SURFACE ( 'NONE', #686, 0.1999999999999996503 ) ;
#435 = CARTESIAN_POINT ( 'NONE',  ( 0.000000000000000000, 0.000000000000000000, 0.000000000000000000 ) ) ;
#436 = ORIENTED_EDGE ( 'NONE', *, *, #897, .F. ) ;
#437 = CARTESIAN_POINT ( 'NONE',  ( -5.681358000000000352, 0.3249999999999999556, 0.5365125899999999559 ) ) ;
#438 = ORIENTED_EDGE ( 'NONE', *, *, #488, .T. ) ;
#439 = FACE_OUTER_BOUND ( 'NONE', #868, .T. ) ;
#440 = DIRECTION ( 'NONE',  ( 1.000000000000000000, 0.000000000000000000, 0.000000000000000000 ) ) ;
#441 = EDGE_CURVE ( 'NONE', #639, #25, #787, .T. ) ;
#442 = DIRECTION ( 'NONE',  ( 0.000000000000000000, -1.000000000000000000, 0.000000000000000000 ) ) ;
#443 = CARTESIAN_POINT ( 'NONE',  ( -5.681358000000000352, -0.1250000000000000000, 0.5365125899999999559 ) ) ;
#444 = AXIS2_PLACEMENT_3D ( 'NONE', #726, #110, #946 ) ;
#445 = AXIS2_PLACEMENT_3D ( 'NONE', #888, #901, #881 ) ;
#446 = AXIS2_PLACEMENT_3D ( 'NONE', #914, #843, #260 ) ;
#447 = MECHANICAL_CONTEXT ( 'NONE', #55, 'mechanical' ) ;
#448 = CYLINDRICAL_SURFACE ( 'NONE', #412, 0.1329999999999997018 ) ;
#449 = CC_DESIGN_PERSON_AND_ORGANIZATION_ASSIGNMENT ( #584, #591, ( #595 ) ) ;
#450 = DIRECTION ( 'NONE',  ( -1.000000000000000000, 0.000000000000000000, 0.000000000000000000 ) ) ;
#451 = ORIENTED_EDGE ( 'NONE', *, *, #263, .F. ) ;
#452 = DIRECTION ( 'NONE',  ( -1.000000000000000000, 0.000000000000000000, 0.000000000000000000 ) ) ;
#453 = CARTESIAN_POINT ( 'NONE',  ( -5.456357999999999819, -0.1250000000000000000, 0.2838975899999998664 ) ) ;
#454 = ORIENTED_EDGE ( 'NONE', *, *, #93, .F. ) ;
#455 = EDGE_CURVE ( 'NONE', #433, #307, #574, .T. ) ;
#456 = DIRECTION ( 'NONE',  ( 0.000000000000000000, 0.000000000000000000, 1.000000000000000000 ) ) ;
#457 = DIRECTION ( 'NONE',  ( 0.000000000000000000, 0.000000000000000000, 1.000000000000000000 ) ) ;
#458 = LOCAL_TIME ( 12, 15, 49.00000000000000000, #424 ) ;
#459 = AXIS2_PLACEMENT_3D ( 'NONE', #499, #871, #194 ) ;
#460 = ORIENTED_EDGE ( 'NONE', *, *, #824, .F. ) ;
#461 = VECTOR ( 'NONE', #520, 39.37007874015748143 ) ;
#462 = FACE_OUTER_BOUND ( 'NONE', #42, .T. ) ;
#463 = DIRECTION ( 'NONE',  ( 0.000000000000000000, 0.000000000000000000, -1.000000000000000000 ) ) ;
#464 = CARTESIAN_POINT ( 'NONE',  ( -1.638641999999999488, 0.3250000000000000111, 0.2838975899999993113 ) ) ;
#465 = VERTEX_POINT ( 'NONE', #120 ) ;
#466 = FACE_OUTER_BOUND ( 'NONE', #115, .T. ) ;
#467 = CARTESIAN_POINT ( 'NONE',  ( -2.720728346456692481, 0.1250000000000001110, 0.7615125899999999337 ) ) ;
#468 = ORIENTED_EDGE ( 'NONE', *, *, #600, .T. ) ;
#469 = FACE_OUTER_BOUND ( 'NONE', #907, .T. ) ;
#470 = CARTESIAN_POINT ( 'NONE',  ( -2.996318897637795242, 0.1250000000000001110, 0.4615125900000000003 ) ) ;
#471 = VECTOR ( 'NONE', #683, 39.37007874015748143 ) ;
#472 = ORIENTED_EDGE ( 'NONE', *, *, #931, .T. ) ;
#473 = VERTEX_POINT ( 'NONE', #630 ) ;
#474 = LINE ( 'NONE', #407, #943 ) ;
#475 = AXIS2_PLACEMENT_3D ( 'NONE', #399, #156, #457 ) ;
#476 = PLANE ( 'NONE',  #190 ) ;
#477 = VERTEX_POINT ( 'NONE', #722 ) ;
#478 = DIRECTION ( 'NONE',  ( 0.000000000000000000, 0.000000000000000000, 1.000000000000000000 ) ) ;
#479 = FACE_BOUND ( 'NONE', #347, .T. ) ;
#480 = EDGE_LOOP ( 'NONE', ( #438, #562 ) ) ;
#481 = ORIENTED_EDGE ( 'NONE', *, *, #526, .T. ) ;
#482 = EDGE_CURVE ( 'NONE', #186, #243, #145, .T. ) ;
#483 = DIRECTION ( 'NONE',  ( 0.000000000000000000, 0.000000000000000000, -1.000000000000000000 ) ) ;
#484 = CARTESIAN_POINT ( 'NONE',  ( -5.426357999999999571, 0.3250000000000000111, 0.4615125900000000003 ) ) ;
#485 = EDGE_LOOP ( 'NONE', ( #333, #143, #230, #789 ) ) ;
#486 = VERTEX_POINT ( 'NONE', #785 ) ;
#487 = VERTEX_POINT ( 'NONE', #266 ) ;
#488 = EDGE_CURVE ( 'NONE', #181, #310, #85, .T. ) ;
#489 = PLANE ( 'NONE',  #490 ) ;
#490 = AXIS2_PLACEMENT_3D ( 'NONE', #784, #545, #119 ) ;
#491 = DIRECTION ( 'NONE',  ( -0.000000000000000000, -1.000000000000000000, -0.000000000000000000 ) ) ;
#492 = ORIENTED_EDGE ( 'NONE', *, *, #675, .F. ) ;
#493 = ORIENTED_EDGE ( 'NONE', *, *, #666, .T. ) ;
#494 = DIRECTION ( 'NONE',  ( -0.000000000000000000, 1.000000000000000000, -0.000000000000000000 ) ) ;
#495 = EDGE_CURVE ( 'NONE', #769, #252, #179, .T. ) ;
#496 = CARTESIAN_POINT ( 'NONE',  ( -5.681358000000000352, -0.1250000000000000000, 0.1508975899999996373 ) ) ;
#497 = EDGE_LOOP ( 'NONE', ( #342, #961 ) ) ;
#498 = PERSON_AND_ORGANIZATION_ROLE ( 'classification_officer' ) ;
#499 = CARTESIAN_POINT ( 'NONE',  ( -5.681358000000000352, 0.000000000000000000, 0.2838975899999993668 ) ) ;
#500 = EDGE_CURVE ( 'NONE', #25, #887, #727, .T. ) ;
#501 = ORIENTED_EDGE ( 'NONE', *, *, #147, .T. ) ;
#502 = APPROVAL_STATUS ( 'not_yet_approved' ) ;
#503 = PLANE ( 'NONE',  #41 ) ;
#504 = EDGE_LOOP ( 'NONE', ( #339, #388, #873, #954 ) ) ;
#505 = DIRECTION ( 'NONE',  ( 0.000000000000000000, 0.000000000000000000, -1.000000000000000000 ) ) ;
#506 = AXIS2_PLACEMENT_3D ( 'NONE', #861, #876, #411 ) ;
#507 = CIRCLE ( 'NONE', #380, 0.1377952755905512972 ) ;
#508 = PERSON_AND_ORGANIZATION_ROLE ( 'design_owner' ) ;
#509 = ORIENTED_EDGE ( 'NONE', *, *, #63, .F. ) ;
#510 = CARTESIAN_POINT ( 'NONE',  ( -1.188641999999999532, -0.1250000000000000000, 0.2838975899999993113 ) ) ;
#511 = ORIENTED_EDGE ( 'NONE', *, *, #606, .F. ) ;
#512 = CARTESIAN_POINT ( 'NONE',  ( -1.668641999999999515, -0.1250000000000000000, 0.4315125899999999737 ) ) ;
#513 = EDGE_CURVE ( 'NONE', #273, #791, #948, .T. ) ;
#514 = CALENDAR_DATE ( 2026, 26, 5 ) ;
#515 = DIRECTION ( 'NONE',  ( 0.000000000000000000, 0.000000000000000000, 1.000000000000000000 ) ) ;
#516 = DIRECTION ( 'NONE',  ( -0.000000000000000000, 1.000000000000000000, -0.000000000000000000 ) ) ;
#517 = CARTESIAN_POINT ( 'NONE',  ( -5.426357999999999571, -4.843354410690341894, 0.4315125899999999737 ) ) ;
#518 = DIRECTION ( 'NONE',  ( 0.000000000000000000, 0.000000000000000000, 1.000000000000000000 ) ) ;
#519 = EDGE_CURVE ( 'NONE', #319, #555, #794, .T. ) ;
#520 = DIRECTION ( 'NONE',  ( -0.000000000000000000, 1.000000000000000000, -0.000000000000000000 ) ) ;
#521 = CARTESIAN_POINT ( 'NONE',  ( -5.906357999999999997, -0.1250000000000000000, 0.2838975899999999220 ) ) ;
#522 = VECTOR ( 'NONE', #403, 39.37007874015748143 ) ;
#523 = MANIFOLD_SOLID_BREP ( 'Fillet2', #572 ) ;
#524 = VECTOR ( 'NONE', #404, 39.37007874015748143 ) ;
#525 = CARTESIAN_POINT ( 'NONE',  ( -5.906357999999999997, -0.1249999999999999029, 0.7615125899999999337 ) ) ;
#526 = EDGE_CURVE ( 'NONE', #543, #89, #106, .T. ) ;
#527 = CARTESIAN_POINT ( 'NONE',  ( -2.858523622047243862, 0.1250000000000001110, 0.7615125899999999337 ) ) ;
#528 = PLANE ( 'NONE',  #67 ) ;
#529 = LINE ( 'NONE', #229, #779 ) ;
#530 = ORIENTED_EDGE ( 'NONE', *, *, #233, .T. ) ;
#531 = DIRECTION ( 'NONE',  ( -0.000000000000000000, 1.000000000000000000, -0.000000000000000000 ) ) ;
#532 = CARTESIAN_POINT ( 'NONE',  ( -1.668641999999999515, -0.1249999999999999029, 0.4615125900000000003 ) ) ;
#533 = AXIS2_PLACEMENT_3D ( 'NONE', #615, #23, #697 ) ;
#534 = VECTOR ( 'NONE', #626, 39.37007874015748143 ) ;
#535 = CARTESIAN_POINT ( 'NONE',  ( -5.681358000000000352, -0.6906854249492381248, 0.08389758999999968880 ) ) ;
#536 = DIRECTION ( 'NONE',  ( -1.000000000000000000, 0.000000000000000000, 0.000000000000000000 ) ) ;
#537 = CARTESIAN_POINT ( 'NONE',  ( -5.681358000000000352, -0.1250000000000000000, 0.5365125899999999559 ) ) ;
#538 = EDGE_CURVE ( 'NONE', #486, #319, #146, .T. ) ;
#539 = ORIENTED_EDGE ( 'NONE', *, *, #336, .F. ) ;
#540 = DIRECTION ( 'NONE',  ( -0.000000000000000000, 1.000000000000000000, -0.000000000000000000 ) ) ;
#541 = LINE ( 'NONE', #532, #534 ) ;
#542 = ORIENTED_EDGE ( 'NONE', *, *, #500, .T. ) ;
#543 = VERTEX_POINT ( 'NONE', #510 ) ;
#544 = DIRECTION ( 'NONE',  ( 0.000000000000000000, 0.000000000000000000, -1.000000000000000000 ) ) ;
#545 = DIRECTION ( 'NONE',  ( 0.000000000000000000, 0.000000000000000000, -1.000000000000000000 ) ) ;
#546 = DIRECTION ( 'NONE',  ( -0.000000000000000000, -0.000000000000000000, -1.000000000000000000 ) ) ;
#547 = AXIS2_PLACEMENT_3D ( 'NONE', #187, #793, #478 ) ;
#548 = APPROVAL_PERSON_ORGANIZATION ( #212, #224, #129 ) ;
#549 = DIRECTION ( 'NONE',  ( 0.000000000000000000, 0.000000000000000000, 1.000000000000000000 ) ) ;
#550 = AXIS2_PLACEMENT_3D ( 'NONE', #210, #505, #79 ) ;
#551 = AXIS2_PLACEMENT_3D ( 'NONE', #922, #170, #242 ) ;
#552 = DIRECTION ( 'NONE',  ( -1.000000000000000000, 0.000000000000000000, 0.000000000000000000 ) ) ;
#553 = EDGE_CURVE ( 'NONE', #477, #823, #809, .T. ) ;
#554 = ORIENTED_EDGE ( 'NONE', *, *, #835, .F. ) ;
#555 = VERTEX_POINT ( 'NONE', #201 ) ;
#556 = ADVANCED_BREP_SHAPE_REPRESENTATION ( 'Y-axis Way Cover Saddle Side', ( #523, #81 ), #684 ) ;
#557 = CARTESIAN_POINT ( 'NONE',  ( -5.906357999999999997, -0.1250000000000000000, 0.5365125899999999559 ) ) ;
#558 = FACE_BOUND ( 'NONE', #819, .T. ) ;
#559 = DIRECTION ( 'NONE',  ( 1.000000000000000000, 0.000000000000000000, -0.000000000000000000 ) ) ;
#560 = EDGE_CURVE ( 'NONE', #568, #903, #250, .T. ) ;
#561 = VERTEX_POINT ( 'NONE', #597 ) ;
#562 = ORIENTED_EDGE ( 'NONE', *, *, #3, .T. ) ;
#563 = LINE ( 'NONE', #570, #522 ) ;
#564 = CYLINDRICAL_SURFACE ( 'NONE', #947, 0.2000000000000000389 ) ;
#565 = DIMENSIONAL_EXPONENTS ( 1.000000000000000000, 0.000000000000000000, 0.000000000000000000, 0.000000000000000000, 0.000000000000000000, 0.000000000000000000, 0.000000000000000000 ) ;
#566 = ORIENTED_EDGE ( 'NONE', *, *, #151, .T. ) ;
#567 = ORIENTED_EDGE ( 'NONE', *, *, #513, .F. ) ;
#568 = VERTEX_POINT ( 'NONE', #218 ) ;
#569 = EDGE_CURVE ( 'NONE', #639, #543, #620, .T. ) ;
#570 = CARTESIAN_POINT ( 'NONE',  ( -1.188641999999999532, -0.1249999999999999029, 0.5365125899999999559 ) ) ;
#571 = VECTOR ( 'NONE', #415, 39.37007874015748143 ) ;
#572 = CLOSED_SHELL ( 'NONE', ( #768, #851, #408, #945, #385, #840, #393, #892, #577, #911, #298, #366, #863, #970, #705, #22, #276, #400, #629, #80, #916, #422, #352, #378, #76, #247, #939, #44 ) ) ;
#573 = FACE_OUTER_BOUND ( 'NONE', #222, .T. ) ;
#574 = CIRCLE ( 'NONE', #902, 0.03000000000000002318 ) ;
#575 = VERTEX_POINT ( 'NONE', #353 ) ;
#576 = PERSON_AND_ORGANIZATION ( #123, #220 ) ;
#577 = ADVANCED_FACE ( 'NONE', ( #661 ), #448, .F. ) ;
#578 = DIRECTION ( 'NONE',  ( 0.000000000000000000, -1.000000000000000000, 0.000000000000000000 ) ) ;
#579 = EDGE_LOOP ( 'NONE', ( #609, #915, #61, #800 ) ) ;
#580 = APPROVAL_DATE_TIME ( #806, #636 ) ;
#581 = DIRECTION ( 'NONE',  ( 0.000000000000000000, 0.000000000000000000, 1.000000000000000000 ) ) ;
#582 = CARTESIAN_POINT ( 'NONE',  ( -4.236476377952755890, 0.1250000000000001110, 0.7615125899999999337 ) ) ;
#583 = ORIENTED_EDGE ( 'NONE', *, *, #48, .T. ) ;
#584 = PERSON_AND_ORGANIZATION ( #123, #220 ) ;
#585 = LINE ( 'NONE', #963, #461 ) ;
#586 = VECTOR ( 'NONE', #625, 39.37007874015748143 ) ;
#587 = ORIENTED_EDGE ( 'NONE', *, *, #455, .T. ) ;
#588 = CARTESIAN_POINT ( 'NONE',  ( -5.681358000000000352, 0.000000000000000000, 0.4838975899999989894 ) ) ;
#589 = EDGE_CURVE ( 'NONE', #423, #419, #750, .T. ) ;
#590 = CIRCLE ( 'NONE', #927, 0.2249999999999999778 ) ;
#591 = PERSON_AND_ORGANIZATION_ROLE ( 'creator' ) ;
#592 = CARTESIAN_POINT ( 'NONE',  ( -1.413641999999999621, -0.1249999999999999029, 0.5365125899999999559 ) ) ;
#593 = ORIENTED_EDGE ( 'NONE', *, *, #748, .F. ) ;
#594 = DIRECTION ( 'NONE',  ( -0.000000000000000000, 1.000000000000000000, -0.000000000000000000 ) ) ;
#595 = PRODUCT_DEFINITION ( 'UNKNOWN', '', #426, #765 ) ;
#596 = PERSON_AND_ORGANIZATION_ROLE ( 'creator' ) ;
#597 = CARTESIAN_POINT ( 'NONE',  ( -5.681358000000000352, -0.1249999999999999029, 0.7615125899999999337 ) ) ;
#598 = CARTESIAN_POINT ( 'NONE',  ( -2.858523622047243862, 0.1250000000000001110, 0.7615125899999999337 ) ) ;
#599 = CC_DESIGN_SECURITY_CLASSIFICATION ( #4, ( #426 ) ) ;
#600 = EDGE_CURVE ( 'NONE', #258, #159, #377, .T. ) ;
#601 = DIRECTION ( 'NONE',  ( -1.000000000000000000, 0.000000000000000000, 0.000000000000000000 ) ) ;
#602 = DIRECTION ( 'NONE',  ( 0.000000000000000000, 0.000000000000000000, -1.000000000000000000 ) ) ;
#603 = CC_DESIGN_APPROVAL ( #293, ( #595 ) ) ;
#604 = VECTOR ( 'NONE', #749, 39.37007874015748143 ) ;
#605 = ORIENTED_EDGE ( 'NONE', *, *, #175, .F. ) ;
#606 = EDGE_CURVE ( 'NONE', #555, #319, #507, .T. ) ;
#607 = DIRECTION ( 'NONE',  ( -0.000000000000000000, 1.000000000000000000, -0.000000000000000000 ) ) ;
#608 = CARTESIAN_POINT ( 'NONE',  ( -5.456357999999999819, -0.1250000000000000000, 0.2838975899999998664 ) ) ;
#609 = ORIENTED_EDGE ( 'NONE', *, *, #694, .F. ) ;
#610 = CARTESIAN_POINT ( 'NONE',  ( -5.681358000000000352, 0.000000000000000000, 0.4168975899999991519 ) ) ;
#611 = CARTESIAN_POINT ( 'NONE',  ( -4.374271653543306826, 0.1250000000000001110, 0.7615125899999999337 ) ) ;
#612 = CYLINDRICAL_SURFACE ( 'NONE', #7, 0.2249999999999999778 ) ;
#613 = VERTEX_POINT ( 'NONE', #753 ) ;
#614 = EDGE_LOOP ( 'NONE', ( #539, #414 ) ) ;
#615 = CARTESIAN_POINT ( 'NONE',  ( -1.413641999999999621, 0.3250000000000000111, 0.2838975899999993668 ) ) ;
#616 = DIRECTION ( 'NONE',  ( -0.000000000000000000, -0.000000000000000000, -1.000000000000000000 ) ) ;
#617 = ORIENTED_EDGE ( 'NONE', *, *, #348, .T. ) ;
#618 = EDGE_CURVE ( 'NONE', #729, #252, #767, .T. ) ;
#619 = AXIS2_PLACEMENT_3D ( 'NONE', #228, #90, #386 ) ;
#620 = CIRCLE ( 'NONE', #285, 0.2249999999999999223 ) ;
#621 = LINE ( 'NONE', #846, #409 ) ;
#622 = CARTESIAN_POINT ( 'NONE',  ( -4.236476377952755890, 0.1250000000000001110, 0.7615125899999999337 ) ) ;
#623 = EDGE_CURVE ( 'NONE', #243, #253, #585, .T. ) ;
#624 = ORIENTED_EDGE ( 'NONE', *, *, #204, .F. ) ;
#625 = DIRECTION ( 'NONE',  ( -0.000000000000000000, 1.000000000000000000, -0.000000000000000000 ) ) ;
#626 = DIRECTION ( 'NONE',  ( 0.000000000000000000, -1.000000000000000000, -0.000000000000000000 ) ) ;
#627 = ORIENTED_EDGE ( 'NONE', *, *, #482, .T. ) ;
#628 = DIRECTION ( 'NONE',  ( 0.000000000000000000, 0.000000000000000000, 1.000000000000000000 ) ) ;
#629 = ADVANCED_FACE ( 'NONE', ( #971, #885 ), #503, .F. ) ;
#630 = CARTESIAN_POINT ( 'NONE',  ( -5.426357999999999571, -0.1249999999999999029, 0.4615125900000000003 ) ) ;
#631 = EDGE_LOOP ( 'NONE', ( #27, #672, #152, #329 ) ) ;
#632 = CIRCLE ( 'NONE', #839, 0.1377952755905512972 ) ;
#633 = FACE_OUTER_BOUND ( 'NONE', #579, .T. ) ;
#634 = CIRCLE ( 'NONE', #506, 0.1329999999999997295 ) ;
#635 = CIRCLE ( 'NONE', #207, 0.1329999999999997018 ) ;
#636 = APPROVAL ( #878, 'UNSPECIFIED' ) ;
#637 = DIRECTION ( 'NONE',  ( 0.000000000000000000, 0.000000000000000000, 1.000000000000000000 ) ) ;
#638 = ORIENTED_EDGE ( 'NONE', *, *, #776, .T. ) ;
#639 = VERTEX_POINT ( 'NONE', #742 ) ;
#640 = CYLINDRICAL_SURFACE ( 'NONE', #837, 0.03000000000000002318 ) ;
#641 = FACE_BOUND ( 'NONE', #176, .T. ) ;
#642 = ORIENTED_EDGE ( 'NONE', *, *, #897, .T. ) ;
#643 = ORIENTED_EDGE ( 'NONE', *, *, #824, .T. ) ;
#644 =( LENGTH_UNIT ( ) NAMED_UNIT ( * ) SI_UNIT ( $, .METRE. ) );
#645 = DIRECTION ( 'NONE',  ( 0.000000000000000000, 0.000000000000000000, 1.000000000000000000 ) ) ;
#646 = ORIENTED_EDGE ( 'NONE', *, *, #795, .F. ) ;
#647 = EDGE_CURVE ( 'NONE', #575, #136, #590, .T. ) ;
#648 = ORIENTED_EDGE ( 'NONE', *, *, #164, .F. ) ;
#649 = CARTESIAN_POINT ( 'NONE',  ( -5.456357999999999819, -0.1249999999999999029, 0.4615125900000000003 ) ) ;
#650 = CARTESIAN_POINT ( 'NONE',  ( -1.638641999999999488, 0.3250000000000000111, 0.4315125899999999737 ) ) ;
#651 = AXIS2_PLACEMENT_3D ( 'NONE', #512, #373, #817 ) ;
#652 = DIRECTION ( 'NONE',  ( 0.000000000000000000, 0.000000000000000000, 1.000000000000000000 ) ) ;
#653 = AXIS2_PLACEMENT_3D ( 'NONE', #866, #188, #637 ) ;
#654 = ORIENTED_EDGE ( 'NONE', *, *, #519, .F. ) ;
#655 = CYLINDRICAL_SURFACE ( 'NONE', #327, 0.03000000000000002318 ) ;
#656 = APPROVAL_STATUS ( 'not_yet_approved' ) ;
#657 = CARTESIAN_POINT ( 'NONE',  ( -1.413641999999999621, -0.1250000000000000000, 0.2838975899999993668 ) ) ;
#658 = ORIENTED_EDGE ( 'NONE', *, *, #34, .T. ) ;
#659 = COORDINATED_UNIVERSAL_TIME_OFFSET ( 5, 0, .BEHIND. ) ;
#660 = EDGE_CURVE ( 'NONE', #487, #575, #64, .T. ) ;
#661 = FACE_OUTER_BOUND ( 'NONE', #405, .T. ) ;
#662 = ORIENTED_EDGE ( 'NONE', *, *, #63, .T. ) ;
#663 = LINE ( 'NONE', #226, #376 ) ;
#664 = CARTESIAN_POINT ( 'NONE',  ( -5.906357999999999997, 0.3250000000000000111, 0.2838975899999997554 ) ) ;
#665 = VECTOR ( 'NONE', #265, 39.37007874015748143 ) ;
#666 = EDGE_CURVE ( 'NONE', #561, #823, #225, .T. ) ;
#667 = ORIENTED_EDGE ( 'NONE', *, *, #560, .F. ) ;
#668 = VECTOR ( 'NONE', #820, 39.37007874015748143 ) ;
#669 = LINE ( 'NONE', #203, #604 ) ;
#670 = AXIS2_PLACEMENT_3D ( 'NONE', #763, #301, #102 ) ;
#671 = PERSON_AND_ORGANIZATION ( #123, #220 ) ;
#672 = ORIENTED_EDGE ( 'NONE', *, *, #905, .F. ) ;
#673 = DIRECTION ( 'NONE',  ( 0.000000000000000000, 1.000000000000000000, 0.000000000000000000 ) ) ;
#674 = DIRECTION ( 'NONE',  ( -0.000000000000000000, 1.000000000000000000, -0.000000000000000000 ) ) ;
#675 = EDGE_CURVE ( 'NONE', #701, #769, #635, .T. ) ;
#676 = DIRECTION ( 'NONE',  ( 0.000000000000000000, 0.000000000000000000, 1.000000000000000000 ) ) ;
#677 = DATE_AND_TIME ( #215, #854 ) ;
#678 = DIRECTION ( 'NONE',  ( 0.000000000000000000, 0.000000000000000000, 1.000000000000000000 ) ) ;
#679 = CARTESIAN_POINT ( 'NONE',  ( -1.413641999999999621, -0.1250000000000000000, 0.1508975899999996373 ) ) ;
#680 = VERTEX_POINT ( 'NONE', #968 ) ;
#681 = EDGE_CURVE ( 'NONE', #107, #959, #790, .T. ) ;
#682 = CARTESIAN_POINT ( 'NONE',  ( -5.906357999999999997, -0.1250000000000000000, 0.5365125899999999559 ) ) ;
#683 = DIRECTION ( 'NONE',  ( 0.000000000000000000, 1.000000000000000000, -0.000000000000000000 ) ) ;
#684 =( GEOMETRIC_REPRESENTATION_CONTEXT ( 3 ) GLOBAL_UNCERTAINTY_ASSIGNED_CONTEXT ( ( #1 ) ) GLOBAL_UNIT_ASSIGNED_CONTEXT ( ( #33, #874, #740 ) ) REPRESENTATION_CONTEXT ( 'NONE', 'WORKASPACE' ) );
#685 = DIRECTION ( 'NONE',  ( 0.000000000000000000, 1.000000000000000000, 0.000000000000000000 ) ) ;
#686 = AXIS2_PLACEMENT_3D ( 'NONE', #830, #516, #150 ) ;
#687 = ORIENTED_EDGE ( 'NONE', *, *, #441, .T. ) ;
#688 = CIRCLE ( 'NONE', #550, 0.1377952755905512972 ) ;
#689 = LINE ( 'NONE', #154, #471 ) ;
#690 = PRODUCT_DEFINITION_SHAPE ( 'NONE', 'NONE',  #595 ) ;
#691 = FACE_OUTER_BOUND ( 'NONE', #692, .T. ) ;
#692 = EDGE_LOOP ( 'NONE', ( #877, #940, #38, #436 ) ) ;
#693 = CARTESIAN_POINT ( 'NONE',  ( -1.413641999999999621, 0.000000000000000000, 0.4838975899999994335 ) ) ;
#694 = EDGE_CURVE ( 'NONE', #413, #433, #291, .T. ) ;
#695 = DIRECTION ( 'NONE',  ( -1.000000000000000000, 0.000000000000000000, 0.000000000000000000 ) ) ;
#696 = ORIENTED_EDGE ( 'NONE', *, *, #168, .T. ) ;
#697 = DIRECTION ( 'NONE',  ( 0.000000000000000000, 0.000000000000000000, 1.000000000000000000 ) ) ;
#698 = CARTESIAN_POINT ( 'NONE',  ( -1.638641999999999488, 0.3249999999999999556, 0.4315125899999999737 ) ) ;
#699 = CIRCLE ( 'NONE', #53, 0.03000000000000002318 ) ;
#700 = AXIS2_PLACEMENT_3D ( 'NONE', #838, #463, #833 ) ;
#701 = VERTEX_POINT ( 'NONE', #165 ) ;
#702 = ORIENTED_EDGE ( 'NONE', *, *, #553, .F. ) ;
#703 = DIRECTION ( 'NONE',  ( 0.000000000000000000, 0.000000000000000000, 1.000000000000000000 ) ) ;
#704 = FACE_OUTER_BOUND ( 'NONE', #933, .T. ) ;
#705 = ADVANCED_FACE ( 'NONE', ( #836 ), #528, .T. ) ;
#706 = ORIENTED_EDGE ( 'NONE', *, *, #967, .T. ) ;
#707 = CARTESIAN_POINT ( 'NONE',  ( -1.188641999999999532, -0.1250000000000000000, 0.000000000000000000 ) ) ;
#708 = CARTESIAN_POINT ( 'NONE',  ( -1.188641999999999532, -0.1250000000000000000, 0.2838975899999993113 ) ) ;
#709 = ORIENTED_EDGE ( 'NONE', *, *, #241, .F. ) ;
#710 = LINE ( 'NONE', #649, #900 ) ;
#711 = CARTESIAN_POINT ( 'NONE',  ( -1.413641999999999621, -0.6906854249492381248, 0.2838975899999993668 ) ) ;
#712 = FACE_BOUND ( 'NONE', #389, .T. ) ;
#713 = VERTEX_POINT ( 'NONE', #761 ) ;
#714 = CIRCLE ( 'NONE', #778, 0.1329999999999997295 ) ;
#715 = ORIENTED_EDGE ( 'NONE', *, *, #919, .F. ) ;
#716 = VECTOR ( 'NONE', #594, 39.37007874015748143 ) ;
#717 = LINE ( 'NONE', #721, #571 ) ;
#718 = AXIS2_PLACEMENT_3D ( 'NONE', #936, #578, #35 ) ;
#719 = CARTESIAN_POINT ( 'NONE',  ( -1.638641999999999488, -0.1250000000000000000, 0.2838975899999993668 ) ) ;
#720 = ORIENTED_EDGE ( 'NONE', *, *, #455, .F. ) ;
#721 = CARTESIAN_POINT ( 'NONE',  ( -2.996318897637795242, 0.1250000000000001110, 0.7615125899999999337 ) ) ;
#722 = CARTESIAN_POINT ( 'NONE',  ( -1.188641999999999532, -0.1250000000000000000, 0.5365125899999999559 ) ) ;
#723 = EDGE_CURVE ( 'NONE', #823, #423, #689, .T. ) ;
#724 = APPLICATION_CONTEXT ( 'configuration controlled 3d designs of mechanical parts and assemblies' ) ;
#725 = ORIENTED_EDGE ( 'NONE', *, *, #847, .F. ) ;
#726 = CARTESIAN_POINT ( 'NONE',  ( -1.413641999999999621, -0.1250000000000000000, 0.2838975899999993668 ) ) ;
#727 = LINE ( 'NONE', #344, #251 ) ;
#728 = CC_DESIGN_PERSON_AND_ORGANIZATION_ASSIGNMENT ( #671, #596, ( #426 ) ) ;
#729 = VERTEX_POINT ( 'NONE', #610 ) ;
#730 = DATE_AND_TIME ( #801, #126 ) ;
#731 = VECTOR ( 'NONE', #549, 39.37007874015748143 ) ;
#732 = AXIS2_PLACEMENT_3D ( 'NONE', #443, #71, #891 ) ;
#733 = DIRECTION ( 'NONE',  ( -1.000000000000000000, -0.000000000000000000, -0.000000000000000000 ) ) ;
#734 = AXIS2_PLACEMENT_3D ( 'NONE', #306, #616, #536 ) ;
#735 = ORIENTED_EDGE ( 'NONE', *, *, #52, .T. ) ;
#736 = EDGE_CURVE ( 'NONE', #181, #959, #390, .T. ) ;
#737 = CARTESIAN_POINT ( 'NONE',  ( -4.236476377952755890, 0.1250000000000001110, 0.4615125900000000003 ) ) ;
#738 = ORIENTED_EDGE ( 'NONE', *, *, #666, .F. ) ;
#739 = CARTESIAN_POINT ( 'NONE',  ( -1.413641999999999621, -0.6906854249492381248, 0.08389758999999931410 ) ) ;
#740 =( NAMED_UNIT ( * ) SI_UNIT ( $, .STERADIAN. ) SOLID_ANGLE_UNIT ( ) );
#741 = EDGE_CURVE ( 'NONE', #713, #487, #375, .T. ) ;
#742 = CARTESIAN_POINT ( 'NONE',  ( -1.638641999999999488, -0.1250000000000000000, 0.2838975899999993668 ) ) ;
#743 = ORIENTED_EDGE ( 'NONE', *, *, #741, .F. ) ;
#744 = LINE ( 'NONE', #289, #20 ) ;
#745 = ORIENTED_EDGE ( 'NONE', *, *, #905, .T. ) ;
#746 = DIRECTION ( 'NONE',  ( 0.000000000000000000, -1.000000000000000000, 0.000000000000000000 ) ) ;
#747 = AXIS2_PLACEMENT_3D ( 'NONE', #311, #160, #774 ) ;
#748 = EDGE_CURVE ( 'NONE', #89, #25, #395, .T. ) ;
#749 = DIRECTION ( 'NONE',  ( -0.000000000000000000, -1.000000000000000000, -0.000000000000000000 ) ) ;
#750 = CIRCLE ( 'NONE', #962, 0.2249999999999999778 ) ;
#751 = LINE ( 'NONE', #206, #114 ) ;
#752 = EDGE_LOOP ( 'NONE', ( #964, #296 ) ) ;
#753 = CARTESIAN_POINT ( 'NONE',  ( -1.668641999999999515, -0.1249999999999999029, 0.4615125900000000003 ) ) ;
#754 = CARTESIAN_POINT ( 'NONE',  ( -1.413641999999999621, 0.000000000000000000, 0.2838975899999993668 ) ) ;
#755 = EDGE_LOOP ( 'NONE', ( #509, #257, #715, #481 ) ) ;
#756 = CARTESIAN_POINT ( 'NONE',  ( -5.906357999999999997, 0.3250000000000000111, 0.7615125899999999337 ) ) ;
#757 = LINE ( 'NONE', #171, #731 ) ;
#758 = DIRECTION ( 'NONE',  ( -0.000000000000000000, -0.000000000000000000, -1.000000000000000000 ) ) ;
#759 = ORIENTED_EDGE ( 'NONE', *, *, #175, .T. ) ;
#760 = DIRECTION ( 'NONE',  ( 0.000000000000000000, 1.000000000000000000, 0.000000000000000000 ) ) ;
#761 = CARTESIAN_POINT ( 'NONE',  ( -5.456357999999999819, 0.3250000000000000111, 0.2838975899999997554 ) ) ;
#762 = LOCAL_TIME ( 12, 15, 49.00000000000000000, #270 ) ;
#763 = CARTESIAN_POINT ( 'NONE',  ( -5.681358000000000352, -0.1250000000000000000, 0.2838975899999993668 ) ) ;
#764 = VECTOR ( 'NONE', #283, 39.37007874015748143 ) ;
#765 = DESIGN_CONTEXT ( 'detailed design', #724, 'design' ) ;
#766 = VERTEX_POINT ( 'NONE', #693 ) ;
#767 = CIRCLE ( 'NONE', #886, 0.1329999999999997295 ) ;
#768 = ADVANCED_FACE ( 'NONE', ( #462 ), #169, .F. ) ;
#769 = VERTEX_POINT ( 'NONE', #12 ) ;
#770 = CARTESIAN_POINT ( 'NONE',  ( -5.681358000000000352, 0.3250000000000000111, 0.2838975899999993668 ) ) ;
#771 = CARTESIAN_POINT ( 'NONE',  ( -5.681358000000000352, 0.3250000000000000111, 0.2838975899999993668 ) ) ;
#772 = CYLINDRICAL_SURFACE ( 'NONE', #309, 0.1329999999999997018 ) ;
#773 = CARTESIAN_POINT ( 'NONE',  ( -5.681358000000000352, 0.000000000000000000, 0.08389758999999968880 ) ) ;
#774 = DIRECTION ( 'NONE',  ( 0.000000000000000000, 0.000000000000000000, -1.000000000000000000 ) ) ;
#775 = PLANE ( 'NONE',  #475 ) ;
#776 = EDGE_CURVE ( 'NONE', #903, #568, #805, .T. ) ;
#777 = EDGE_LOOP ( 'NONE', ( #648, #709, #350, #394 ) ) ;
#778 = AXIS2_PLACEMENT_3D ( 'NONE', #17, #531, #912 ) ;
#779 = VECTOR ( 'NONE', #685, 39.37007874015748143 ) ;
#780 = CARTESIAN_POINT ( 'NONE',  ( -1.413641999999999621, 0.000000000000000000, 0.08389758999999931410 ) ) ;
#781 = FACE_OUTER_BOUND ( 'NONE', #117, .T. ) ;
#782 = DIRECTION ( 'NONE',  ( 0.000000000000000000, 0.000000000000000000, -1.000000000000000000 ) ) ;
#783 = PRODUCT_RELATED_PRODUCT_CATEGORY ( 'detail', '', ( #155 ) ) ;
#784 = CARTESIAN_POINT ( 'NONE',  ( -5.456357999999999819, -4.843354410690341894, 0.4615125900000000003 ) ) ;
#785 = CARTESIAN_POINT ( 'NONE',  ( -4.098681102362204065, 0.1250000000000001110, 0.7615125899999999337 ) ) ;
#786 = CARTESIAN_POINT ( 'NONE',  ( -1.413641999999999621, 0.3250000000000000111, 0.08389758999999931410 ) ) ;
#787 = LINE ( 'NONE', #719, #428 ) ;
#788 = ORIENTED_EDGE ( 'NONE', *, *, #320, .T. ) ;
#789 = ORIENTED_EDGE ( 'NONE', *, *, #795, .T. ) ;
#790 = CIRCLE ( 'NONE', #913, 0.1999999999999996503 ) ;
#791 = VERTEX_POINT ( 'NONE', #917 ) ;
#792 = CIRCLE ( 'NONE', #312, 0.1329999999999997295 ) ;
#793 = DIRECTION ( 'NONE',  ( -0.000000000000000000, 1.000000000000000000, -0.000000000000000000 ) ) ;
#794 = CIRCLE ( 'NONE', #205, 0.1377952755905512972 ) ;
#795 = EDGE_CURVE ( 'NONE', #859, #253, #826, .T. ) ;
#796 = DIRECTION ( 'NONE',  ( 0.000000000000000000, 0.000000000000000000, 1.000000000000000000 ) ) ;
#797 = ORIENTED_EDGE ( 'NONE', *, *, #589, .F. ) ;
#798 = LENGTH_MEASURE_WITH_UNIT ( LENGTH_MEASURE( 0.02539999999999999897 ), #644 );
#799 = DIRECTION ( 'NONE',  ( -0.000000000000000000, 1.000000000000000000, -0.000000000000000000 ) ) ;
#800 = ORIENTED_EDGE ( 'NONE', *, *, #303, .T. ) ;
#801 = CALENDAR_DATE ( 2026, 26, 5 ) ;
#802 = CARTESIAN_POINT ( 'NONE',  ( -4.236476377952755890, 0.1250000000000001110, 0.4615125900000000003 ) ) ;
#803 = EDGE_CURVE ( 'NONE', #252, #729, #714, .T. ) ;
#804 = ORIENTED_EDGE ( 'NONE', *, *, #26, .F. ) ;
#805 = CIRCLE ( 'NONE', #533, 0.2000000000000000389 ) ;
#806 = DATE_AND_TIME ( #59, #458 ) ;
#807 = AXIS2_PLACEMENT_3D ( 'NONE', #74, #673, #678 ) ;
#808 = DIRECTION ( 'NONE',  ( -0.000000000000000000, -1.000000000000000000, 0.000000000000000000 ) ) ;
#809 = CIRCLE ( 'NONE', #346, 0.2249999999999999778 ) ;
#810 = EDGE_LOOP ( 'NONE', ( #368, #743, #932, #98 ) ) ;
#811 = CARTESIAN_POINT ( 'NONE',  ( -1.413641999999999621, 0.000000000000000000, 0.2838975899999993668 ) ) ;
#812 = CC_DESIGN_PERSON_AND_ORGANIZATION_ASSIGNMENT ( #351, #498, ( #4 ) ) ;
#813 = ORIENTED_EDGE ( 'NONE', *, *, #241, .T. ) ;
#814 = APPROVAL_ROLE ( '' ) ;
#815 = ORIENTED_EDGE ( 'NONE', *, *, #748, .T. ) ;
#816 = DIRECTION ( 'NONE',  ( -0.000000000000000000, -0.000000000000000000, -1.000000000000000000 ) ) ;
#817 = DIRECTION ( 'NONE',  ( 0.000000000000000000, 0.000000000000000000, -1.000000000000000000 ) ) ;
#818 = DIRECTION ( 'NONE',  ( 1.000000000000000000, 0.000000000000000000, -0.000000000000000000 ) ) ;
#819 = EDGE_LOOP ( 'NONE', ( #511, #654 ) ) ;
#820 = DIRECTION ( 'NONE',  ( -0.000000000000000000, 1.000000000000000000, -0.000000000000000000 ) ) ;
#821 = DIRECTION ( 'NONE',  ( 0.000000000000000000, 1.000000000000000000, 0.000000000000000000 ) ) ;
#822 = PERSON_AND_ORGANIZATION_ROLE ( 'design_supplier' ) ;
#823 = VERTEX_POINT ( 'NONE', #6 ) ;
#824 = EDGE_CURVE ( 'NONE', #791, #473, #18, .T. ) ;
#825 = DIRECTION ( 'NONE',  ( -1.000000000000000000, 0.000000000000000000, 0.000000000000000000 ) ) ;
#826 = CIRCLE ( 'NONE', #619, 0.1329999999999997295 ) ;
#827 = DIRECTION ( 'NONE',  ( -1.000000000000000000, 0.000000000000000000, 0.000000000000000000 ) ) ;
#828 = VECTOR ( 'NONE', #546, 39.37007874015748143 ) ;
#829 = PLANE ( 'NONE',  #36 ) ;
#830 = CARTESIAN_POINT ( 'NONE',  ( -5.681358000000000352, -0.6906854249492381248, 0.2838975899999993668 ) ) ;
#831 = EDGE_LOOP ( 'NONE', ( #944, #418, #272, #157 ) ) ;
#832 = DIRECTION ( 'NONE',  ( 0.000000000000000000, 0.000000000000000000, 1.000000000000000000 ) ) ;
#833 = DIRECTION ( 'NONE',  ( -1.000000000000000000, 0.000000000000000000, 0.000000000000000000 ) ) ;
#834 = EDGE_LOOP ( 'NONE', ( #40, #950, #937, #324 ) ) ;
#835 = EDGE_CURVE ( 'NONE', #310, #107, #235, .T. ) ;
#836 = FACE_OUTER_BOUND ( 'NONE', #831, .T. ) ;
#837 = AXIS2_PLACEMENT_3D ( 'NONE', #245, #182, #483 ) ;
#838 = CARTESIAN_POINT ( 'NONE',  ( -2.858523622047243862, 0.1250000000000001110, 0.4615125900000000003 ) ) ;
#839 = AXIS2_PLACEMENT_3D ( 'NONE', #527, #214, #450 ) ;
#840 = ADVANCED_FACE ( 'NONE', ( #466 ), #772, .F. ) ;
#841 = DIRECTION ( 'NONE',  ( 0.000000000000000000, -0.000000000000000000, 1.000000000000000000 ) ) ;
#842 = CARTESIAN_POINT ( 'NONE',  ( -1.638641999999999488, -0.1250000000000000000, 0.000000000000000000 ) ) ;
#843 = DIRECTION ( 'NONE',  ( -0.000000000000000000, 1.000000000000000000, -0.000000000000000000 ) ) ;
#844 = ORIENTED_EDGE ( 'NONE', *, *, #569, .T. ) ;
#845 = DIRECTION ( 'NONE',  ( -0.000000000000000000, 1.000000000000000000, -0.000000000000000000 ) ) ;
#846 = CARTESIAN_POINT ( 'NONE',  ( -1.413641999999999621, -0.1250000000000000000, 0.4168975899999990964 ) ) ;
#847 = EDGE_CURVE ( 'NONE', #186, #859, #621, .T. ) ;
#848 = CARTESIAN_POINT ( 'NONE',  ( -1.413641999999999621, -4.843354410690341894, 0.5365125899999999559 ) ) ;
#849 = ORIENTED_EDGE ( 'NONE', *, *, #967, .F. ) ;
#850 = DIRECTION ( 'NONE',  ( 0.000000000000000000, 0.000000000000000000, 1.000000000000000000 ) ) ;
#851 = ADVANCED_FACE ( 'NONE', ( #469 ), #78, .F. ) ;
#852 = FACE_BOUND ( 'NONE', #282, .T. ) ;
#853 = EDGE_LOOP ( 'NONE', ( #383, #191, #735, #867, #662, #815, #542, #706, #926, #587, #759, #46 ) ) ;
#854 = LOCAL_TIME ( 12, 15, 49.00000000000000000, #140 ) ;
#855 = VECTOR ( 'NONE', #297, 39.37007874015748143 ) ;
#856 = CYLINDRICAL_SURFACE ( 'NONE', #547, 0.2249999999999999223 ) ;
#857 = DIRECTION ( 'NONE',  ( 0.000000000000000000, 0.000000000000000000, 1.000000000000000000 ) ) ;
#858 = ORIENTED_EDGE ( 'NONE', *, *, #263, .T. ) ;
#859 = VERTEX_POINT ( 'NONE', #83 ) ;
#860 = LINE ( 'NONE', #259, #665 ) ;
#861 = CARTESIAN_POINT ( 'NONE',  ( -1.413641999999999621, 0.000000000000000000, 0.2838975899999993668 ) ) ;
#862 = ORIENTED_EDGE ( 'NONE', *, *, #723, .T. ) ;
#863 = ADVANCED_FACE ( 'NONE', ( #317 ), #829, .F. ) ;
#864 = LINE ( 'NONE', #557, #361 ) ;
#865 = DIRECTION ( 'NONE',  ( -0.000000000000000000, -1.000000000000000000, -0.000000000000000000 ) ) ;
#866 = CARTESIAN_POINT ( 'NONE',  ( -5.681358000000000352, -0.6906854249492381248, 0.2838975899999993668 ) ) ;
#867 = ORIENTED_EDGE ( 'NONE', *, *, #589, .T. ) ;
#868 = EDGE_LOOP ( 'NONE', ( #554, #374, #138, #121 ) ) ;
#869 = PLANE ( 'NONE',  #284 ) ;
#870 = CIRCLE ( 'NONE', #551, 0.1329999999999997018 ) ;
#871 = DIRECTION ( 'NONE',  ( -0.000000000000000000, 1.000000000000000000, -0.000000000000000000 ) ) ;
#872 = ORIENTED_EDGE ( 'NONE', *, *, #776, .F. ) ;
#873 = ORIENTED_EDGE ( 'NONE', *, *, #193, .T. ) ;
#874 =( NAMED_UNIT ( * ) PLANE_ANGLE_UNIT ( ) SI_UNIT ( $, .RADIAN. ) );
#875 = EDGE_CURVE ( 'NONE', #639, #680, #757, .T. ) ;
#876 = DIRECTION ( 'NONE',  ( -0.000000000000000000, 1.000000000000000000, -0.000000000000000000 ) ) ;
#877 = ORIENTED_EDGE ( 'NONE', *, *, #348, .F. ) ;
#878 = APPROVAL_STATUS ( 'not_yet_approved' ) ;
#879 = CARTESIAN_POINT ( 'NONE',  ( -5.681358000000000352, -0.1250000000000000000, 0.2838975899999993668 ) ) ;
#880 = CC_DESIGN_DATE_AND_TIME_ASSIGNMENT ( #677, #889, ( #595 ) ) ;
#881 = DIRECTION ( 'NONE',  ( 0.000000000000000000, 0.000000000000000000, 1.000000000000000000 ) ) ;
#882 = EDGE_LOOP ( 'NONE', ( #920, #430, #849, #127 ) ) ;
#883 = AXIS2_PLACEMENT_3D ( 'NONE', #231, #305, #14 ) ;
#884 = DIRECTION ( 'NONE',  ( 0.000000000000000000, 0.000000000000000000, 1.000000000000000000 ) ) ;
#885 = FACE_BOUND ( 'NONE', #752, .T. ) ;
#886 = AXIS2_PLACEMENT_3D ( 'NONE', #357, #281, #369 ) ;
#887 = VERTEX_POINT ( 'NONE', #650 ) ;
#888 = CARTESIAN_POINT ( 'NONE',  ( -5.681358000000000352, -0.1250000000000000000, 0.2838975899999993668 ) ) ;
#889 = DATE_TIME_ROLE ( 'creation_date' ) ;
#890 = CARTESIAN_POINT ( 'NONE',  ( -1.413641999999999621, 0.3249999999999999556, 0.5365125899999999559 ) ) ;
#891 = DIRECTION ( 'NONE',  ( 0.000000000000000000, 0.000000000000000000, -1.000000000000000000 ) ) ;
#892 = ADVANCED_FACE ( 'NONE', ( #43 ), #401, .F. ) ;
#893 = PERSON_AND_ORGANIZATION ( #123, #220 ) ;
#894 = ORIENTED_EDGE ( 'NONE', *, *, #675, .T. ) ;
#895 = DIRECTION ( 'NONE',  ( 0.000000000000000000, 0.000000000000000000, -1.000000000000000000 ) ) ;
#896 = DIRECTION ( 'NONE',  ( 0.000000000000000000, 0.000000000000000000, -1.000000000000000000 ) ) ;
#897 = EDGE_CURVE ( 'NONE', #701, #729, #860, .T. ) ;
#898 = DIRECTION ( 'NONE',  ( 0.000000000000000000, 0.000000000000000000, 1.000000000000000000 ) ) ;
#899 = LOCAL_TIME ( 12, 15, 49.00000000000000000, #135 ) ;
#900 = VECTOR ( 'NONE', #928, 39.37007874015748143 ) ;
#901 = DIRECTION ( 'NONE',  ( 0.000000000000000000, 1.000000000000000000, -0.000000000000000000 ) ) ;
#902 = AXIS2_PLACEMENT_3D ( 'NONE', #47, #491, #796 ) ;
#903 = VERTEX_POINT ( 'NONE', #786 ) ;
#904 = DIRECTION ( 'NONE',  ( 0.000000000000000000, 1.000000000000000000, 0.000000000000000000 ) ) ;
#905 = EDGE_CURVE ( 'NONE', #136, #561, #474, .T. ) ;
#906 = CARTESIAN_POINT ( 'NONE',  ( -4.098681102362204065, 0.1250000000000001110, 0.4615125900000000003 ) ) ;
#907 = EDGE_LOOP ( 'NONE', ( #956, #167, #269, #178 ) ) ;
#908 = CARTESIAN_POINT ( 'NONE',  ( -1.413641999999999621, 0.3250000000000000111, 0.2838975899999993668 ) ) ;
#909 = DIRECTION ( 'NONE',  ( 0.000000000000000000, -1.000000000000000000, 0.000000000000000000 ) ) ;
#910 = DIRECTION ( 'NONE',  ( 0.000000000000000000, 0.000000000000000000, 1.000000000000000000 ) ) ;
#911 = ADVANCED_FACE ( 'NONE', ( #781 ), #869, .F. ) ;
#912 = DIRECTION ( 'NONE',  ( 0.000000000000000000, 0.000000000000000000, -1.000000000000000000 ) ) ;
#913 = AXIS2_PLACEMENT_3D ( 'NONE', #125, #213, #515 ) ;
#914 = CARTESIAN_POINT ( 'NONE',  ( -5.681358000000000352, -0.1250000000000000000, 0.2838975899999993668 ) ) ;
#915 = ORIENTED_EDGE ( 'NONE', *, *, #315, .T. ) ;
#916 = ADVANCED_FACE ( 'NONE', ( #101, #558, #633 ), #489, .T. ) ;
#917 = CARTESIAN_POINT ( 'NONE',  ( -5.456357999999999819, -0.1250000000000000000, 0.4315125899999999737 ) ) ;
#918 = FACE_OUTER_BOUND ( 'NONE', #202, .T. ) ;
#919 = EDGE_CURVE ( 'NONE', #543, #477, #420, .T. ) ;
#920 = ORIENTED_EDGE ( 'NONE', *, *, #141, .F. ) ;
#921 = CARTESIAN_POINT ( 'NONE',  ( -5.681358000000000352, -0.6906854249492381248, 0.4838975899999989894 ) ) ;
#922 = CARTESIAN_POINT ( 'NONE',  ( -5.681358000000000352, -0.1250000000000000000, 0.2838975899999993668 ) ) ;
#923 = ORIENTED_EDGE ( 'NONE', *, *, #495, .F. ) ;
#924 = FACE_OUTER_BOUND ( 'NONE', #73, .T. ) ;
#925 = CARTESIAN_POINT ( 'NONE',  ( -1.413641999999999621, 0.3250000000000000111, 0.7615125899999999337 ) ) ;
#926 = ORIENTED_EDGE ( 'NONE', *, *, #694, .T. ) ;
#927 = AXIS2_PLACEMENT_3D ( 'NONE', #437, #277, #294 ) ;
#928 = DIRECTION ( 'NONE',  ( -1.000000000000000000, 0.000000000000000000, 0.000000000000000000 ) ) ;
#929 = DIRECTION ( 'NONE',  ( 0.000000000000000000, 0.000000000000000000, 1.000000000000000000 ) ) ;
#930 = PLANE ( 'NONE',  #362 ) ;
#931 = EDGE_CURVE ( 'NONE', #465, #258, #717, .T. ) ;
#932 = ORIENTED_EDGE ( 'NONE', *, *, #168, .F. ) ;
#933 = EDGE_LOOP ( 'NONE', ( #813, #501 ) ) ;
#934 = EDGE_LOOP ( 'NONE', ( #627, #566 ) ) ;
#935 = FACE_OUTER_BOUND ( 'NONE', #256, .T. ) ;
#936 = CARTESIAN_POINT ( 'NONE',  ( 0.000000000000000000, -0.1250000000000000000, 0.000000000000000000 ) ) ;
#937 = ORIENTED_EDGE ( 'NONE', *, *, #681, .T. ) ;
#938 = VERTEX_POINT ( 'NONE', #50 ) ;
#939 = ADVANCED_FACE ( 'NONE', ( #334 ), #640, .F. ) ;
#940 = ORIENTED_EDGE ( 'NONE', *, *, #495, .T. ) ;
#941 = ORIENTED_EDGE ( 'NONE', *, *, #103, .F. ) ;
#942 = DIRECTION ( 'NONE',  ( 0.000000000000000000, 1.000000000000000000, -0.000000000000000000 ) ) ;
#943 = VECTOR ( 'NONE', #325, 39.37007874015748143 ) ;
#944 = ORIENTED_EDGE ( 'NONE', *, *, #875, .T. ) ;
#945 = ADVANCED_FACE ( 'NONE', ( #935 ), #105, .F. ) ;
#946 = DIRECTION ( 'NONE',  ( 0.000000000000000000, 0.000000000000000000, 1.000000000000000000 ) ) ;
#947 = AXIS2_PLACEMENT_3D ( 'NONE', #45, #255, #645 ) ;
#948 = LINE ( 'NONE', #197, #223 ) ;
#949 = ORIENTED_EDGE ( 'NONE', *, *, #216, .F. ) ;
#950 = ORIENTED_EDGE ( 'NONE', *, *, #835, .T. ) ;
#951 = SECURITY_CLASSIFICATION_LEVEL ( 'unclassified' ) ;
#952 = EDGE_CURVE ( 'NONE', #419, #477, #563, .T. ) ;
#953 = DIRECTION ( 'NONE',  ( 0.000000000000000000, -0.000000000000000000, -1.000000000000000000 ) ) ;
#954 = ORIENTED_EDGE ( 'NONE', *, *, #606, .T. ) ;
#955 = DIRECTION ( 'NONE',  ( -0.000000000000000000, 1.000000000000000000, -0.000000000000000000 ) ) ;
#956 = ORIENTED_EDGE ( 'NONE', *, *, #134, .F. ) ;
#957 = PERSON_AND_ORGANIZATION ( #123, #220 ) ;
#958 = DIRECTION ( 'NONE',  ( 0.000000000000000000, 0.000000000000000000, 1.000000000000000000 ) ) ;
#959 = VERTEX_POINT ( 'NONE', #322 ) ;
#960 = LINE ( 'NONE', #739, #668 ) ;
#961 = ORIENTED_EDGE ( 'NONE', *, *, #320, .F. ) ;
#962 = AXIS2_PLACEMENT_3D ( 'NONE', #890, #131, #432 ) ;
#963 = CARTESIAN_POINT ( 'NONE',  ( -1.413641999999999621, -0.1250000000000000000, 0.1508975899999996373 ) ) ;
#964 = ORIENTED_EDGE ( 'NONE', *, *, #618, .F. ) ;
#965 = FACE_OUTER_BOUND ( 'NONE', #631, .T. ) ;
#966 = CARTESIAN_POINT ( 'NONE',  ( -1.413641999999999621, -0.1250000000000000000, 0.4168975899999991519 ) ) ;
#967 = EDGE_CURVE ( 'NONE', #887, #413, #699, .T. ) ;
#968 = CARTESIAN_POINT ( 'NONE',  ( -1.638641999999999488, -0.1250000000000000000, 0.4315125899999999737 ) ) ;
#969 = DIRECTION ( 'NONE',  ( 0.000000000000000000, 0.000000000000000000, -1.000000000000000000 ) ) ;
#970 = ADVANCED_FACE ( 'NONE', ( #924 ), #856, .T. ) ;
#971 = FACE_OUTER_BOUND ( 'NONE', #480, .T. ) ;
#972 = DIRECTION ( 'NONE',  ( 0.000000000000000000, 0.000000000000000000, -1.000000000000000000 ) ) ;
ENDSEC;
END-ISO-10303-21;
