ISO-10303-21;
HEADER;
FILE_DESCRIPTION (( 'STEP AP203' ),
    '1' );
FILE_NAME ('Y-Axis Limit switch mount.STEP',
    '2026-05-26T16:14:22',
    ( '' ),
    ( '' ),
    'SwSTEP 2.0',
    'SolidWorks 2025',
    '' );
FILE_SCHEMA (( 'CONFIG_CONTROL_DESIGN' ));
ENDSEC;

DATA;
#1 = AXIS2_PLACEMENT_3D ( 'NONE', #749, #757, #204 ) ;
#2 = VERTEX_POINT ( 'NONE', #185 ) ;
#3 = AXIS2_PLACEMENT_3D ( 'NONE', #679, #1103, #585 ) ;
#4 = FACE_OUTER_BOUND ( 'NONE', #535, .T. ) ;
#5 = CARTESIAN_POINT ( 'NONE',  ( 68.59999999999999432, 30.00000000000000000, -9.000000000000000000 ) ) ;
#6 = ORIENTED_EDGE ( 'NONE', *, *, #92, .T. ) ;
#7 = ADVANCED_FACE ( 'NONE', ( #263 ), #624, .F. ) ;
#8 = VERTEX_POINT ( 'NONE', #533 ) ;
#9 = CARTESIAN_POINT ( 'NONE',  ( 114.9999999999999858, 40.00000000000000711, -9.000000000000000000 ) ) ;
#10 = DIRECTION ( 'NONE',  ( 0.000000000000000000, 0.000000000000000000, 1.000000000000000000 ) ) ;
#11 = ORIENTED_EDGE ( 'NONE', *, *, #577, .F. ) ;
#12 = EDGE_LOOP ( 'NONE', ( #718, #1125, #913, #16 ) ) ;
#13 = ORIENTED_EDGE ( 'NONE', *, *, #504, .T. ) ;
#14 = DIRECTION ( 'NONE',  ( -1.000000000000000000, -0.000000000000000000, -0.000000000000000000 ) ) ;
#15 = CARTESIAN_POINT ( 'NONE',  ( 80.49999999999994316, 40.00000000000000000, 0.000000000000000000 ) ) ;
#16 = ORIENTED_EDGE ( 'NONE', *, *, #22, .F. ) ;
#17 = VERTEX_POINT ( 'NONE', #893 ) ;
#18 = AXIS2_PLACEMENT_3D ( 'NONE', #133, #378, #31 ) ;
#19 = ORIENTED_EDGE ( 'NONE', *, *, #647, .T. ) ;
#20 = CARTESIAN_POINT ( 'NONE',  ( 0.000000000000000000, 48.00000000000000000, -9.000000000000000000 ) ) ;
#21 = CARTESIAN_POINT ( 'NONE',  ( 73.09999999999999432, 9.000000000000000000, -2.999999999999999112 ) ) ;
#22 = EDGE_CURVE ( 'NONE', #364, #530, #88, .T. ) ;
#23 = LINE ( 'NONE', #842, #790 ) ;
#24 = CARTESIAN_POINT ( 'NONE',  ( 82.24999999999994316, 40.00000000000000000, -6.000000000000000000 ) ) ;
#25 = DIRECTION ( 'NONE',  ( 0.000000000000000000, 0.000000000000000000, 1.000000000000000000 ) ) ;
#26 = EDGE_LOOP ( 'NONE', ( #123, #820, #462, #1014 ) ) ;
#27 = CARTESIAN_POINT ( 'NONE',  ( 0.000000000000000000, 48.00000000000000000, 0.000000000000000000 ) ) ;
#28 = DIRECTION ( 'NONE',  ( 1.000000000000000000, 0.000000000000000000, 0.000000000000000000 ) ) ;
#29 = DIRECTION ( 'NONE',  ( -0.000000000000000000, -0.000000000000000000, -1.000000000000000000 ) ) ;
#30 = ORIENTED_EDGE ( 'NONE', *, *, #320, .T. ) ;
#31 = DIRECTION ( 'NONE',  ( -1.000000000000000000, 0.000000000000000000, 0.000000000000000000 ) ) ;
#32 = ORIENTED_EDGE ( 'NONE', *, *, #92, .F. ) ;
#33 = LINE ( 'NONE', #27, #1086 ) ;
#34 = CARTESIAN_POINT ( 'NONE',  ( 145.0000000000000000, 0.000000000000000000, 0.000000000000000000 ) ) ;
#35 = LINE ( 'NONE', #675, #413 ) ;
#36 = ADVANCED_FACE ( 'NONE', ( #803 ), #354, .F. ) ;
#37 = EDGE_LOOP ( 'NONE', ( #421, #314 ) ) ;
#38 = APPROVAL_ROLE ( '' ) ;
#39 = CARTESIAN_POINT ( 'NONE',  ( 64.09999999999999432, 9.000000000000000000, -9.000000000000000000 ) ) ;
#40 = VERTEX_POINT ( 'NONE', #39 ) ;
#41 = CIRCLE ( 'NONE', #139, 2.750000000000002665 ) ;
#42 = DIRECTION ( 'NONE',  ( -1.000000000000000000, 0.000000000000000000, 0.000000000000000000 ) ) ;
#43 = AXIS2_PLACEMENT_3D ( 'NONE', #720, #998, #1002 ) ;
#44 = AXIS2_PLACEMENT_3D ( 'NONE', #984, #447, #703 ) ;
#45 = DIRECTION ( 'NONE',  ( -1.000000000000000000, 0.000000000000000000, 0.000000000000000000 ) ) ;
#46 = LINE ( 'NONE', #124, #398 ) ;
#47 = EDGE_LOOP ( 'NONE', ( #194, #761, #349, #1083 ) ) ;
#48 = DIRECTION ( 'NONE',  ( -1.000000000000000000, 0.000000000000000000, 0.000000000000000000 ) ) ;
#49 = DIRECTION ( 'NONE',  ( 0.000000000000000000, 0.000000000000000000, -1.000000000000000000 ) ) ;
#50 = DIRECTION ( 'NONE',  ( 1.000000000000000000, 0.000000000000000000, 0.000000000000000000 ) ) ;
#51 = ORIENTED_EDGE ( 'NONE', *, *, #665, .T. ) ;
#52 = EDGE_CURVE ( 'NONE', #1077, #350, #779, .T. ) ;
#53 = EDGE_CURVE ( 'NONE', #743, #157, #41, .T. ) ;
#54 = DIRECTION ( 'NONE',  ( 0.000000000000000000, 0.000000000000000000, 1.000000000000000000 ) ) ;
#55 = EDGE_CURVE ( 'NONE', #179, #379, #449, .T. ) ;
#56 = PERSON_AND_ORGANIZATION_ROLE ( 'creator' ) ;
#57 = ORIENTED_EDGE ( 'NONE', *, *, #273, .F. ) ;
#58 = VECTOR ( 'NONE', #222, 1000.000000000000000 ) ;
#59 = CIRCLE ( 'NONE', #370, 2.749999999999997335 ) ;
#60 = CARTESIAN_POINT ( 'NONE',  ( 114.9999999999999858, 40.00000000000000711, -6.000000000000000000 ) ) ;
#61 = CARTESIAN_POINT ( 'NONE',  ( 68.59999999999999432, 9.000000000000000000, -2.999999999999999112 ) ) ;
#62 = ADVANCED_FACE ( 'NONE', ( #655 ), #838, .F. ) ;
#63 = CIRCLE ( 'NONE', #306, 2.749999999999997335 ) ;
#64 = LOCAL_TIME ( 12, 14, 22.00000000000000000, #594 ) ;
#65 = ORIENTED_EDGE ( 'NONE', *, *, #255, .T. ) ;
#66 = CARTESIAN_POINT ( 'NONE',  ( 0.000000000000000000, 48.00000000000000000, -9.000000000000000000 ) ) ;
#67 = CARTESIAN_POINT ( 'NONE',  ( 71.34999999999999432, 9.000000000000000000, -2.999999999999999112 ) ) ;
#68 = ADVANCED_FACE ( 'NONE', ( #672, #125 ), #960, .T. ) ;
#69 = COORDINATED_UNIVERSAL_TIME_OFFSET ( 5, 0, .BEHIND. ) ;
#70 = VERTEX_POINT ( 'NONE', #846 ) ;
#71 = DIRECTION ( 'NONE',  ( 0.000000000000000000, -0.000000000000000000, -1.000000000000000000 ) ) ;
#72 = PLANE ( 'NONE',  #279 ) ;
#73 = ADVANCED_FACE ( 'NONE', ( #506 ), #154, .F. ) ;
#74 = ADVANCED_FACE ( 'NONE', ( #387 ), #199, .F. ) ;
#75 = APPROVAL_ROLE ( '' ) ;
#76 = VERTEX_POINT ( 'NONE', #114 ) ;
#77 = PLANE ( 'NONE',  #639 ) ;
#78 = CARTESIAN_POINT ( 'NONE',  ( 12.59999999999999964, 9.000000000000000000, -2.999999999999999112 ) ) ;
#79 = VECTOR ( 'NONE', #136, 1000.000000000000000 ) ;
#80 = CIRCLE ( 'NONE', #621, 2.750000000000002665 ) ;
#81 = ORIENTED_EDGE ( 'NONE', *, *, #416, .F. ) ;
#82 = DIRECTION ( 'NONE',  ( 0.000000000000000000, 0.000000000000000000, -1.000000000000000000 ) ) ;
#83 = FACE_BOUND ( 'NONE', #227, .T. ) ;
#84 = ORIENTED_EDGE ( 'NONE', *, *, #949, .T. ) ;
#85 = EDGE_CURVE ( 'NONE', #195, #1052, #514, .T. ) ;
#86 = DIRECTION ( 'NONE',  ( -1.000000000000000000, 0.000000000000000000, -0.000000000000000000 ) ) ;
#87 = FACE_BOUND ( 'NONE', #635, .T. ) ;
#88 = LINE ( 'NONE', #908, #336 ) ;
#89 = EDGE_LOOP ( 'NONE', ( #13, #411 ) ) ;
#90 = DIRECTION ( 'NONE',  ( -0.000000000000000000, -1.000000000000000000, -0.000000000000000000 ) ) ;
#91 = DIRECTION ( 'NONE',  ( -1.000000000000000000, 0.000000000000000000, 0.000000000000000000 ) ) ;
#92 = EDGE_CURVE ( 'NONE', #180, #1056, #1133, .T. ) ;
#93 = VECTOR ( 'NONE', #985, 1000.000000000000000 ) ;
#94 = ORIENTED_EDGE ( 'NONE', *, *, #731, .F. ) ;
#95 = AXIS2_PLACEMENT_3D ( 'NONE', #517, #687, #1043 ) ;
#96 = AXIS2_PLACEMENT_3D ( 'NONE', #201, #211, #380 ) ;
#97 = ORIENTED_EDGE ( 'NONE', *, *, #545, .F. ) ;
#98 = CC_DESIGN_APPROVAL ( #127, ( #437 ) ) ;
#99 = DIRECTION ( 'NONE',  ( 1.000000000000000000, 0.000000000000000000, 0.000000000000000000 ) ) ;
#100 = CYLINDRICAL_SURFACE ( 'NONE', #322, 2.750000000000002665 ) ;
#101 = ORIENTED_EDGE ( 'NONE', *, *, #404, .F. ) ;
#102 = ORIENTED_EDGE ( 'NONE', *, *, #504, .F. ) ;
#103 = ORIENTED_EDGE ( 'NONE', *, *, #919, .F. ) ;
#104 = DIRECTION ( 'NONE',  ( 0.000000000000000000, 0.000000000000000000, -1.000000000000000000 ) ) ;
#105 = CARTESIAN_POINT ( 'NONE',  ( 68.59999999999999432, 30.00000000000000000, -2.999999999999999112 ) ) ;
#106 = ORIENTED_EDGE ( 'NONE', *, *, #1157, .F. ) ;
#107 = ORIENTED_EDGE ( 'NONE', *, *, #450, .F. ) ;
#108 = ORIENTED_EDGE ( 'NONE', *, *, #1135, .T. ) ;
#109 = EDGE_CURVE ( 'NONE', #951, #2, #295, .T. ) ;
#110 = CARTESIAN_POINT ( 'NONE',  ( 8.099999999999996092, 30.00000000000000000, -2.999999999999999112 ) ) ;
#111 = CARTESIAN_POINT ( 'NONE',  ( 12.59999999999999964, 30.00000000000000000, -2.999999999999999112 ) ) ;
#112 = DIRECTION ( 'NONE',  ( -1.000000000000000000, 0.000000000000000000, 0.000000000000000000 ) ) ;
#113 = CARTESIAN_POINT ( 'NONE',  ( 112.2499999999999858, 40.00000000000000711, -9.000000000000000000 ) ) ;
#114 = CARTESIAN_POINT ( 'NONE',  ( 110.4999999999999858, 40.00000000000000711, -6.000000000000000000 ) ) ;
#115 = CLOSED_SHELL ( 'NONE', ( #815, #7, #137, #359, #74, #762, #1057, #905, #329, #933, #358, #36, #871, #685, #859, #631, #159, #833, #988, #795, #415, #802, #176, #925, #845, #373, #609, #62, #68, #73, #233, #492, #305, #832, #264, #872 ) ) ;
#116 = AXIS2_PLACEMENT_3D ( 'NONE', #658, #460, #645 ) ;
#117 = ORIENTED_EDGE ( 'NONE', *, *, #430, .F. ) ;
#118 = CIRCLE ( 'NONE', #1034, 2.750000000000002665 ) ;
#119 = AXIS2_PLACEMENT_3D ( 'NONE', #1092, #290, #922 ) ;
#120 = CARTESIAN_POINT ( 'NONE',  ( 12.59999999999999964, 9.000000000000000000, -2.999999999999999112 ) ) ;
#121 = PLANE ( 'NONE',  #945 ) ;
#122 = CARTESIAN_POINT ( 'NONE',  ( 119.5000000000000000, 40.00000000000000711, -6.000000000000000000 ) ) ;
#123 = ORIENTED_EDGE ( 'NONE', *, *, #890, .F. ) ;
#124 = CARTESIAN_POINT ( 'NONE',  ( 82.24999999999994316, 40.00000000000000000, -9.000000000000000000 ) ) ;
#125 = FACE_BOUND ( 'NONE', #89, .T. ) ;
#126 = VERTEX_POINT ( 'NONE', #574 ) ;
#127 = APPROVAL ( #844, 'UNSPECIFIED' ) ;
#128 = EDGE_CURVE ( 'NONE', #539, #817, #600, .T. ) ;
#129 = LINE ( 'NONE', #931, #1067 ) ;
#130 = FACE_OUTER_BOUND ( 'NONE', #727, .T. ) ;
#131 = CARTESIAN_POINT ( 'NONE',  ( 73.09999999999999432, 30.00000000000000000, -2.999999999999999112 ) ) ;
#132 = PERSON_AND_ORGANIZATION ( #943, #156 ) ;
#133 = CARTESIAN_POINT ( 'NONE',  ( 12.59999999999999964, 30.00000000000000000, -2.999999999999999112 ) ) ;
#134 = VERTEX_POINT ( 'NONE', #742 ) ;
#135 = CARTESIAN_POINT ( 'NONE',  ( 114.9999999999999858, 40.00000000000000711, -6.000000000000000000 ) ) ;
#136 = DIRECTION ( 'NONE',  ( -0.000000000000000000, -0.000000000000000000, -1.000000000000000000 ) ) ;
#137 = ADVANCED_FACE ( 'NONE', ( #864 ), #1007, .F. ) ;
#138 = ORIENTED_EDGE ( 'NONE', *, *, #1028, .T. ) ;
#139 = AXIS2_PLACEMENT_3D ( 'NONE', #758, #940, #1104 ) ;
#140 = DIRECTION ( 'NONE',  ( 0.000000000000000000, 0.000000000000000000, 1.000000000000000000 ) ) ;
#141 = VECTOR ( 'NONE', #357, 1000.000000000000000 ) ;
#142 = VECTOR ( 'NONE', #573, 1000.000000000000000 ) ;
#143 = DIRECTION ( 'NONE',  ( 0.000000000000000000, 0.000000000000000000, 1.000000000000000000 ) ) ;
#144 = ORIENTED_EDGE ( 'NONE', *, *, #771, .T. ) ;
#145 = DIRECTION ( 'NONE',  ( -0.000000000000000000, -0.000000000000000000, 1.000000000000000000 ) ) ;
#146 = VERTEX_POINT ( 'NONE', #1025 ) ;
#147 = EDGE_CURVE ( 'NONE', #862, #1139, #710, .T. ) ;
#148 = DIRECTION ( 'NONE',  ( 0.000000000000000000, 0.000000000000000000, 1.000000000000000000 ) ) ;
#149 = CARTESIAN_POINT ( 'NONE',  ( 80.49999999999994316, 40.00000000000000000, -6.000000000000000000 ) ) ;
#150 = EDGE_LOOP ( 'NONE', ( #523, #311, #101, #269 ) ) ;
#151 = AXIS2_PLACEMENT_3D ( 'NONE', #614, #878, #91 ) ;
#152 = CIRCLE ( 'NONE', #43, 2.750000000000002665 ) ;
#153 = DIRECTION ( 'NONE',  ( 0.000000000000000000, 0.000000000000000000, -1.000000000000000000 ) ) ;
#154 = CYLINDRICAL_SURFACE ( 'NONE', #18, 4.500000000000003553 ) ;
#155 = CIRCLE ( 'NONE', #230, 4.500000000000003553 ) ;
#156 = ORGANIZATION ( 'UNSPECIFIED', 'UNSPECIFIED', '' ) ;
#157 = VERTEX_POINT ( 'NONE', #67 ) ;
#158 = EDGE_CURVE ( 'NONE', #559, #146, #865, .T. ) ;
#159 = ADVANCED_FACE ( 'NONE', ( #782 ), #566, .F. ) ;
#160 = DIRECTION ( 'NONE',  ( 0.000000000000000000, -1.000000000000000000, 0.000000000000000000 ) ) ;
#161 = FACE_OUTER_BOUND ( 'NONE', #188, .T. ) ;
#162 = ORIENTED_EDGE ( 'NONE', *, *, #335, .T. ) ;
#163 = CARTESIAN_POINT ( 'NONE',  ( 65.84999999999999432, 9.000000000000000000, -2.999999999999999112 ) ) ;
#164 = DIRECTION ( 'NONE',  ( 1.000000000000000000, 0.000000000000000000, -0.000000000000000000 ) ) ;
#165 = VERTEX_POINT ( 'NONE', #1149 ) ;
#166 = CARTESIAN_POINT ( 'NONE',  ( 84.99999999999995737, 40.00000000000000000, -6.000000000000000000 ) ) ;
#167 = CARTESIAN_POINT ( 'NONE',  ( 12.59999999999999964, 30.00000000000000000, -9.000000000000000000 ) ) ;
#168 = VECTOR ( 'NONE', #202, 1000.000000000000000 ) ;
#169 = EDGE_CURVE ( 'NONE', #17, #653, #347, .T. ) ;
#170 = CIRCLE ( 'NONE', #1036, 2.750000000000002665 ) ;
#171 = EDGE_LOOP ( 'NONE', ( #1154, #138, #798, #32 ) ) ;
#172 = LINE ( 'NONE', #1155, #759 ) ;
#173 = CARTESIAN_POINT ( 'NONE',  ( 15.34999999999999787, 30.00000000000000000, 0.000000000000000000 ) ) ;
#174 = EDGE_LOOP ( 'NONE', ( #408, #634 ) ) ;
#175 = ORIENTED_EDGE ( 'NONE', *, *, #596, .F. ) ;
#176 = ADVANCED_FACE ( 'NONE', ( #87, #244, #83, #707, #714, #1063, #605 ), #332, .T. ) ;
#177 = DIRECTION ( 'NONE',  ( 1.000000000000000000, 0.000000000000000000, 0.000000000000000000 ) ) ;
#178 = DIRECTION ( 'NONE',  ( 0.000000000000000000, 0.000000000000000000, 1.000000000000000000 ) ) ;
#179 = VERTEX_POINT ( 'NONE', #522 ) ;
#180 = VERTEX_POINT ( 'NONE', #1054 ) ;
#181 = FACE_OUTER_BOUND ( 'NONE', #345, .T. ) ;
#182 = DIRECTION ( 'NONE',  ( -0.000000000000000000, -0.000000000000000000, 1.000000000000000000 ) ) ;
#183 = EDGE_LOOP ( 'NONE', ( #858, #837 ) ) ;
#184 = AXIS2_PLACEMENT_3D ( 'NONE', #1115, #25, #328 ) ;
#185 = CARTESIAN_POINT ( 'NONE',  ( 8.099999999999996092, 30.00000000000000000, -9.000000000000000000 ) ) ;
#186 = AXIS2_PLACEMENT_3D ( 'NONE', #563, #225, #1030 ) ;
#187 = VECTOR ( 'NONE', #829, 1000.000000000000000 ) ;
#188 = EDGE_LOOP ( 'NONE', ( #847, #84 ) ) ;
#189 = FACE_BOUND ( 'NONE', #608, .T. ) ;
#190 = DIRECTION ( 'NONE',  ( 1.000000000000000000, 0.000000000000000000, 0.000000000000000000 ) ) ;
#191 = EDGE_CURVE ( 'NONE', #817, #539, #993, .T. ) ;
#192 = EDGE_CURVE ( 'NONE', #40, #914, #1127, .T. ) ;
#193 = ORIENTED_EDGE ( 'NONE', *, *, #1146, .F. ) ;
#194 = ORIENTED_EDGE ( 'NONE', *, *, #665, .F. ) ;
#195 = VERTEX_POINT ( 'NONE', #797 ) ;
#196 = DIRECTION ( 'NONE',  ( 1.000000000000000000, 0.000000000000000000, 0.000000000000000000 ) ) ;
#197 = CARTESIAN_POINT ( 'NONE',  ( 84.99999999999995737, 40.00000000000000000, -6.000000000000000000 ) ) ;
#198 = DIRECTION ( 'NONE',  ( -0.000000000000000000, -0.000000000000000000, 1.000000000000000000 ) ) ;
#199 = CYLINDRICAL_SURFACE ( 'NONE', #467, 4.500000000000003553 ) ;
#200 = ORIENTED_EDGE ( 'NONE', *, *, #55, .F. ) ;
#201 = CARTESIAN_POINT ( 'NONE',  ( 68.59999999999999432, 30.00000000000000000, -2.999999999999999112 ) ) ;
#202 = DIRECTION ( 'NONE',  ( 0.000000000000000000, 1.000000000000000000, 0.000000000000000000 ) ) ;
#203 = DIRECTION ( 'NONE',  ( 0.000000000000000000, 0.000000000000000000, 1.000000000000000000 ) ) ;
#204 = DIRECTION ( 'NONE',  ( 1.000000000000000000, 0.000000000000000000, 0.000000000000000000 ) ) ;
#205 = DIRECTION ( 'NONE',  ( -1.000000000000000000, 0.000000000000000000, 0.000000000000000000 ) ) ;
#206 = CC_DESIGN_DATE_AND_TIME_ASSIGNMENT ( #883, #879, ( #417 ) ) ;
#207 = AXIS2_PLACEMENT_3D ( 'NONE', #935, #558, #663 ) ;
#208 = EDGE_CURVE ( 'NONE', #126, #954, #259, .T. ) ;
#209 = VERTEX_POINT ( 'NONE', #700 ) ;
#210 = LOCAL_TIME ( 12, 14, 22.00000000000000000, #69 ) ;
#211 = DIRECTION ( 'NONE',  ( 0.000000000000000000, 0.000000000000000000, -1.000000000000000000 ) ) ;
#212 = DIRECTION ( 'NONE',  ( -1.000000000000000000, 0.000000000000000000, 0.000000000000000000 ) ) ;
#213 = DIRECTION ( 'NONE',  ( -0.000000000000000000, -0.000000000000000000, -1.000000000000000000 ) ) ;
#214 = ORIENTED_EDGE ( 'NONE', *, *, #1117, .F. ) ;
#215 = CARTESIAN_POINT ( 'NONE',  ( 0.000000000000000000, 0.000000000000000000, 0.000000000000000000 ) ) ;
#216 = DIRECTION ( 'NONE',  ( -1.000000000000000000, 0.000000000000000000, 0.000000000000000000 ) ) ;
#217 = ORIENTED_EDGE ( 'NONE', *, *, #191, .T. ) ;
#218 = DIRECTION ( 'NONE',  ( 0.000000000000000000, 0.000000000000000000, -1.000000000000000000 ) ) ;
#219 = EDGE_CURVE ( 'NONE', #321, #2, #825, .T. ) ;
#220 = DIRECTION ( 'NONE',  ( 0.000000000000000000, 0.000000000000000000, 1.000000000000000000 ) ) ;
#221 = APPROVAL_DATE_TIME ( #580, #127 ) ;
#222 = DIRECTION ( 'NONE',  ( -0.000000000000000000, -0.000000000000000000, 1.000000000000000000 ) ) ;
#223 = ORIENTED_EDGE ( 'NONE', *, *, #191, .F. ) ;
#224 = LINE ( 'NONE', #818, #434 ) ;
#225 = DIRECTION ( 'NONE',  ( 0.000000000000000000, 0.000000000000000000, 1.000000000000000000 ) ) ;
#226 = COORDINATED_UNIVERSAL_TIME_OFFSET ( 5, 0, .BEHIND. ) ;
#227 = EDGE_LOOP ( 'NONE', ( #193, #693 ) ) ;
#228 = CIRCLE ( 'NONE', #898, 4.500000000000003553 ) ;
#229 = VECTOR ( 'NONE', #220, 1000.000000000000000 ) ;
#230 = AXIS2_PLACEMENT_3D ( 'NONE', #486, #1035, #857 ) ;
#231 = PRODUCT_RELATED_PRODUCT_CATEGORY ( 'detail', '', ( #1102 ) ) ;
#232 = LINE ( 'NONE', #505, #543 ) ;
#233 = ADVANCED_FACE ( 'NONE', ( #888, #249 ), #72, .T. ) ;
#234 = ORIENTED_EDGE ( 'NONE', *, *, #52, .T. ) ;
#235 = CYLINDRICAL_SURFACE ( 'NONE', #452, 4.500000000000003553 ) ;
#236 = ORIENTED_EDGE ( 'NONE', *, *, #1046, .F. ) ;
#237 = DIRECTION ( 'NONE',  ( 0.000000000000000000, 0.000000000000000000, 1.000000000000000000 ) ) ;
#238 = DIRECTION ( 'NONE',  ( -0.000000000000000000, -0.000000000000000000, -1.000000000000000000 ) ) ;
#239 = EDGE_LOOP ( 'NONE', ( #454, #223 ) ) ;
#240 = EDGE_CURVE ( 'NONE', #530, #461, #976, .T. ) ;
#241 = AXIS2_PLACEMENT_3D ( 'NONE', #61, #419, #216 ) ;
#242 = AXIS2_PLACEMENT_3D ( 'NONE', #66, #422, #331 ) ;
#243 = FACE_OUTER_BOUND ( 'NONE', #643, .T. ) ;
#244 = FACE_BOUND ( 'NONE', #1026, .T. ) ;
#245 = CIRCLE ( 'NONE', #96, 4.500000000000003553 ) ;
#246 = APPROVAL_PERSON_ORGANIZATION ( #1050, #622, #861 ) ;
#247 = VERTEX_POINT ( 'NONE', #173 ) ;
#248 = FACE_OUTER_BOUND ( 'NONE', #831, .T. ) ;
#249 = FACE_BOUND ( 'NONE', #843, .T. ) ;
#250 = ADVANCED_BREP_SHAPE_REPRESENTATION ( 'Y-Axis Limit switch mount', ( #950, #603 ), #1113 ) ;
#251 = DATE_TIME_ROLE ( 'creation_date' ) ;
#252 = ORIENTED_EDGE ( 'NONE', *, *, #524, .F. ) ;
#253 = DIRECTION ( 'NONE',  ( 0.000000000000000000, 0.000000000000000000, 1.000000000000000000 ) ) ;
#254 = DIRECTION ( 'NONE',  ( 0.000000000000000000, 0.000000000000000000, 1.000000000000000000 ) ) ;
#255 = EDGE_CURVE ( 'NONE', #721, #446, #1142, .T. ) ;
#256 = EDGE_LOOP ( 'NONE', ( #106, #51, #789, #1078 ) ) ;
#257 = FACE_OUTER_BOUND ( 'NONE', #1008, .T. ) ;
#258 = CARTESIAN_POINT ( 'NONE',  ( 68.59999999999999432, 30.00000000000000000, 0.000000000000000000 ) ) ;
#259 = CIRCLE ( 'NONE', #659, 2.749999999999997335 ) ;
#260 = AXIS2_PLACEMENT_3D ( 'NONE', #579, #497, #112 ) ;
#261 = AXIS2_PLACEMENT_3D ( 'NONE', #812, #980, #266 ) ;
#262 = CIRCLE ( 'NONE', #119, 4.500000000000003553 ) ;
#263 = FACE_OUTER_BOUND ( 'NONE', #957, .T. ) ;
#264 = ADVANCED_FACE ( 'NONE', ( #611, #1156 ), #1071, .T. ) ;
#265 = ORIENTED_EDGE ( 'NONE', *, *, #404, .T. ) ;
#266 = DIRECTION ( 'NONE',  ( 1.000000000000000000, 0.000000000000000000, 0.000000000000000000 ) ) ;
#267 = DIRECTION ( 'NONE',  ( 0.000000000000000000, 0.000000000000000000, -1.000000000000000000 ) ) ;
#268 = EDGE_LOOP ( 'NONE', ( #214, #252, #899, #553 ) ) ;
#269 = ORIENTED_EDGE ( 'NONE', *, *, #169, .F. ) ;
#270 = FACE_OUTER_BOUND ( 'NONE', #736, .T. ) ;
#271 = DIRECTION ( 'NONE',  ( -0.000000000000000000, -0.000000000000000000, -1.000000000000000000 ) ) ;
#272 = VERTEX_POINT ( 'NONE', #792 ) ;
#273 = EDGE_CURVE ( 'NONE', #653, #1037, #628, .T. ) ;
#274 = EDGE_CURVE ( 'NONE', #827, #516, #537, .T. ) ;
#275 = ORIENTED_EDGE ( 'NONE', *, *, #1039, .T. ) ;
#276 = CARTESIAN_POINT ( 'NONE',  ( 84.99999999999995737, 40.00000000000000000, -6.000000000000000000 ) ) ;
#277 = DIRECTION ( 'NONE',  ( 0.000000000000000000, 0.000000000000000000, -1.000000000000000000 ) ) ;
#278 = ORIENTED_EDGE ( 'NONE', *, *, #1096, .F. ) ;
#279 = AXIS2_PLACEMENT_3D ( 'NONE', #78, #532, #443 ) ;
#280 = ORIENTED_EDGE ( 'NONE', *, *, #158, .F. ) ;
#281 = CIRCLE ( 'NONE', #1143, 2.750000000000002665 ) ;
#282 = CIRCLE ( 'NONE', #529, 4.500000000000003553 ) ;
#283 = ORIENTED_EDGE ( 'NONE', *, *, #273, .T. ) ;
#284 = DIRECTION ( 'NONE',  ( 0.000000000000000000, 0.000000000000000000, 1.000000000000000000 ) ) ;
#285 = LINE ( 'NONE', #923, #141 ) ;
#286 = DIRECTION ( 'NONE',  ( 0.000000000000000000, 0.000000000000000000, -1.000000000000000000 ) ) ;
#287 = ORIENTED_EDGE ( 'NONE', *, *, #450, .T. ) ;
#288 = ORIENTED_EDGE ( 'NONE', *, *, #1004, .T. ) ;
#289 = ORIENTED_EDGE ( 'NONE', *, *, #85, .T. ) ;
#290 = DIRECTION ( 'NONE',  ( 0.000000000000000000, 0.000000000000000000, 1.000000000000000000 ) ) ;
#291 = CARTESIAN_POINT ( 'NONE',  ( 17.10000000000000497, 30.00000000000000000, -9.000000000000000000 ) ) ;
#292 = DIRECTION ( 'NONE',  ( -1.000000000000000000, 0.000000000000000000, 0.000000000000000000 ) ) ;
#293 = EDGE_CURVE ( 'NONE', #1056, #134, #493, .T. ) ;
#294 = CARTESIAN_POINT ( 'NONE',  ( 71.34999999999999432, 9.000000000000000000, -9.000000000000000000 ) ) ;
#295 = LINE ( 'NONE', #479, #695 ) ;
#296 = ORIENTED_EDGE ( 'NONE', *, *, #967, .T. ) ;
#297 = PLANE ( 'NONE',  #928 ) ;
#298 = FACE_OUTER_BOUND ( 'NONE', #722, .T. ) ;
#299 = CARTESIAN_POINT ( 'NONE',  ( 71.34999999999999432, 30.00000000000000000, 0.000000000000000000 ) ) ;
#300 = DIRECTION ( 'NONE',  ( -0.000000000000000000, -0.000000000000000000, 1.000000000000000000 ) ) ;
#301 = DIRECTION ( 'NONE',  ( 0.000000000000000000, 0.000000000000000000, 1.000000000000000000 ) ) ;
#302 = AXIS2_PLACEMENT_3D ( 'NONE', #423, #1013, #205 ) ;
#303 = VECTOR ( 'NONE', #669, 1000.000000000000000 ) ;
#304 = ORIENTED_EDGE ( 'NONE', *, *, #274, .F. ) ;
#305 = ADVANCED_FACE ( 'NONE', ( #161, #518 ), #121, .T. ) ;
#306 = AXIS2_PLACEMENT_3D ( 'NONE', #942, #650, #459 ) ;
#307 = VECTOR ( 'NONE', #947, 1000.000000000000000 ) ;
#308 = LINE ( 'NONE', #840, #734 ) ;
#309 = LINE ( 'NONE', #34, #526 ) ;
#310 = LINE ( 'NONE', #1024, #229 ) ;
#311 = ORIENTED_EDGE ( 'NONE', *, *, #85, .F. ) ;
#312 = LINE ( 'NONE', #1124, #187 ) ;
#313 = DIRECTION ( 'NONE',  ( -0.000000000000000000, -0.000000000000000000, -1.000000000000000000 ) ) ;
#314 = ORIENTED_EDGE ( 'NONE', *, *, #666, .F. ) ;
#315 = CARTESIAN_POINT ( 'NONE',  ( 0.000000000000000000, 0.000000000000000000, -9.000000000000000000 ) ) ;
#316 = DIRECTION ( 'NONE',  ( -0.000000000000000000, -0.000000000000000000, 1.000000000000000000 ) ) ;
#317 = DIRECTION ( 'NONE',  ( 1.000000000000000000, 0.000000000000000000, 0.000000000000000000 ) ) ;
#318 = ORIENTED_EDGE ( 'NONE', *, *, #386, .T. ) ;
#319 = FACE_OUTER_BOUND ( 'NONE', #477, .T. ) ;
#320 = EDGE_CURVE ( 'NONE', #1105, #180, #412, .T. ) ;
#321 = VERTEX_POINT ( 'NONE', #291 ) ;
#322 = AXIS2_PLACEMENT_3D ( 'NONE', #367, #1017, #190 ) ;
#323 = VECTOR ( 'NONE', #1033, 1000.000000000000000 ) ;
#324 = AXIS2_PLACEMENT_3D ( 'NONE', #990, #253, #356 ) ;
#325 = DIRECTION ( 'NONE',  ( -1.000000000000000000, 0.000000000000000000, 0.000000000000000000 ) ) ;
#326 = ORIENTED_EDGE ( 'NONE', *, *, #1126, .F. ) ;
#327 = CARTESIAN_POINT ( 'NONE',  ( 68.59999999999999432, 30.00000000000000000, -2.999999999999999112 ) ) ;
#328 = DIRECTION ( 'NONE',  ( 1.000000000000000000, 0.000000000000000000, 0.000000000000000000 ) ) ;
#329 = ADVANCED_FACE ( 'NONE', ( #298 ), #1093, .F. ) ;
#330 = VERTEX_POINT ( 'NONE', #903 ) ;
#331 = DIRECTION ( 'NONE',  ( 0.000000000000000000, -0.000000000000000000, 1.000000000000000000 ) ) ;
#332 = PLANE ( 'NONE',  #617 ) ;
#333 = PERSON_AND_ORGANIZATION ( #943, #156 ) ;
#334 = ORIENTED_EDGE ( 'NONE', *, *, #1072, .T. ) ;
#335 = EDGE_CURVE ( 'NONE', #70, #1153, #228, .T. ) ;
#336 = VECTOR ( 'NONE', #445, 1000.000000000000000 ) ;
#337 = AXIS2_PLACEMENT_3D ( 'NONE', #678, #1128, #965 ) ;
#338 = CARTESIAN_POINT ( 'NONE',  ( 8.099999999999999645, 9.000000000000000000, -2.999999999999999112 ) ) ;
#339 = CARTESIAN_POINT ( 'NONE',  ( 0.000000000000000000, 0.000000000000000000, -9.000000000000000000 ) ) ;
#340 = CIRCLE ( 'NONE', #1144, 2.749999999999997335 ) ;
#341 = ORIENTED_EDGE ( 'NONE', *, *, #293, .T. ) ;
#342 = DIRECTION ( 'NONE',  ( -0.000000000000000000, -0.000000000000000000, 1.000000000000000000 ) ) ;
#343 = DIRECTION ( 'NONE',  ( -1.000000000000000000, 0.000000000000000000, 0.000000000000000000 ) ) ;
#344 = CALENDAR_DATE ( 2026, 26, 5 ) ;
#345 = EDGE_LOOP ( 'NONE', ( #615, #705, #1065, #994 ) ) ;
#346 = DIRECTION ( 'NONE',  ( -1.000000000000000000, 0.000000000000000000, -0.000000000000000000 ) ) ;
#347 = LINE ( 'NONE', #339, #1159 ) ;
#348 = EDGE_CURVE ( 'NONE', #165, #247, #525, .T. ) ;
#349 = ORIENTED_EDGE ( 'NONE', *, *, #515, .T. ) ;
#350 = VERTEX_POINT ( 'NONE', #15 ) ;
#351 = CARTESIAN_POINT ( 'NONE',  ( 73.09999999999999432, 9.000000000000000000, -9.000000000000000000 ) ) ;
#352 = CARTESIAN_POINT ( 'NONE',  ( 68.59999999999999432, 9.000000000000000000, -9.000000000000000000 ) ) ;
#353 = AXIS2_PLACEMENT_3D ( 'NONE', #60, #148, #513 ) ;
#354 = CYLINDRICAL_SURFACE ( 'NONE', #961, 2.750000000000002665 ) ;
#355 = ORIENTED_EDGE ( 'NONE', *, *, #169, .T. ) ;
#356 = DIRECTION ( 'NONE',  ( 1.000000000000000000, 0.000000000000000000, 0.000000000000000000 ) ) ;
#357 = DIRECTION ( 'NONE',  ( 0.000000000000000000, 0.000000000000000000, 1.000000000000000000 ) ) ;
#358 = ADVANCED_FACE ( 'NONE', ( #1010 ), #100, .F. ) ;
#359 = ADVANCED_FACE ( 'NONE', ( #541 ), #911, .F. ) ;
#360 = ORIENTED_EDGE ( 'NONE', *, *, #483, .T. ) ;
#361 = ORIENTED_EDGE ( 'NONE', *, *, #208, .T. ) ;
#362 = CYLINDRICAL_SURFACE ( 'NONE', #664, 4.500000000000003553 ) ;
#363 = DIRECTION ( 'NONE',  ( 1.000000000000000000, 0.000000000000000000, 0.000000000000000000 ) ) ;
#364 = VERTEX_POINT ( 'NONE', #550 ) ;
#365 = ORIENTED_EDGE ( 'NONE', *, *, #771, .F. ) ;
#366 = DIRECTION ( 'NONE',  ( 1.000000000000000000, 0.000000000000000000, 0.000000000000000000 ) ) ;
#367 = CARTESIAN_POINT ( 'NONE',  ( 84.99999999999995737, 40.00000000000000000, -9.000000000000000000 ) ) ;
#368 = AXIS2_PLACEMENT_3D ( 'NONE', #258, #801, #427 ) ;
#369 = ORIENTED_EDGE ( 'NONE', *, *, #1027, .F. ) ;
#370 = AXIS2_PLACEMENT_3D ( 'NONE', #401, #316, #476 ) ;
#371 = VECTOR ( 'NONE', #464, 1000.000000000000000 ) ;
#372 = ORIENTED_EDGE ( 'NONE', *, *, #560, .T. ) ;
#373 = ADVANCED_FACE ( 'NONE', ( #130 ), #932, .F. ) ;
#374 = CARTESIAN_POINT ( 'NONE',  ( 68.59999999999999432, 30.00000000000000000, -9.000000000000000000 ) ) ;
#375 = DIRECTION ( 'NONE',  ( 1.000000000000000000, 0.000000000000000000, 0.000000000000000000 ) ) ;
#376 = DIRECTION ( 'NONE',  ( -1.000000000000000000, 0.000000000000000000, 0.000000000000000000 ) ) ;
#377 =( NAMED_UNIT ( * ) SI_UNIT ( $, .STERADIAN. ) SOLID_ANGLE_UNIT ( ) );
#378 = DIRECTION ( 'NONE',  ( -0.000000000000000000, -0.000000000000000000, -1.000000000000000000 ) ) ;
#379 = VERTEX_POINT ( 'NONE', #21 ) ;
#380 = DIRECTION ( 'NONE',  ( -1.000000000000000000, 0.000000000000000000, 0.000000000000000000 ) ) ;
#381 = DIRECTION ( 'NONE',  ( 0.000000000000000000, 0.000000000000000000, 1.000000000000000000 ) ) ;
#382 = APPLICATION_CONTEXT ( 'configuration controlled 3d designs of mechanical parts and assemblies' ) ;
#383 = LINE ( 'NONE', #660, #601 ) ;
#384 = EDGE_LOOP ( 'NONE', ( #551, #681, #649, #1068 ) ) ;
#385 = APPLICATION_PROTOCOL_DEFINITION ( 'international standard', 'config_control_design', 1994, #444 ) ;
#386 = EDGE_CURVE ( 'NONE', #76, #1153, #474, .T. ) ;
#387 = FACE_OUTER_BOUND ( 'NONE', #26, .T. ) ;
#388 = ORIENTED_EDGE ( 'NONE', *, *, #783, .T. ) ;
#389 = DIRECTION ( 'NONE',  ( 0.000000000000000000, 0.000000000000000000, 1.000000000000000000 ) ) ;
#390 = DIRECTION ( 'NONE',  ( 0.000000000000000000, 1.000000000000000000, 0.000000000000000000 ) ) ;
#391 = DIRECTION ( 'NONE',  ( 0.000000000000000000, 0.000000000000000000, -1.000000000000000000 ) ) ;
#392 = EDGE_LOOP ( 'NONE', ( #986, #805, #289, #144 ) ) ;
#393 = CALENDAR_DATE ( 2026, 26, 5 ) ;
#394 = DIRECTION ( 'NONE',  ( 1.000000000000000000, 0.000000000000000000, 0.000000000000000000 ) ) ;
#395 = AXIS2_PLACEMENT_3D ( 'NONE', #824, #916, #555 ) ;
#396 = CIRCLE ( 'NONE', #586, 2.750000000000002665 ) ;
#397 = ORIENTED_EDGE ( 'NONE', *, *, #590, .T. ) ;
#398 = VECTOR ( 'NONE', #939, 1000.000000000000000 ) ;
#399 = CC_DESIGN_APPROVAL ( #622, ( #760 ) ) ;
#400 = CARTESIAN_POINT ( 'NONE',  ( 64.09999999999999432, 9.000000000000000000, -2.999999999999999112 ) ) ;
#401 = CARTESIAN_POINT ( 'NONE',  ( 12.59999999999999964, 30.00000000000000000, -2.999999999999999112 ) ) ;
#402 = LINE ( 'NONE', #662, #142 ) ;
#403 = EDGE_CURVE ( 'NONE', #552, #330, #118, .T. ) ;
#404 = EDGE_CURVE ( 'NONE', #653, #195, #637, .T. ) ;
#405 = ORIENTED_EDGE ( 'NONE', *, *, #208, .F. ) ;
#406 = CARTESIAN_POINT ( 'NONE',  ( 80.49999999999994316, 40.00000000000000000, -6.000000000000000000 ) ) ;
#407 = CARTESIAN_POINT ( 'NONE',  ( 82.24999999999994316, 40.00000000000000000, -9.000000000000000000 ) ) ;
#408 = ORIENTED_EDGE ( 'NONE', *, *, #623, .T. ) ;
#409 = CARTESIAN_POINT ( 'NONE',  ( 114.9999999999999858, 40.00000000000000711, -9.000000000000000000 ) ) ;
#410 = COORDINATED_UNIVERSAL_TIME_OFFSET ( 5, 0, .BEHIND. ) ;
#411 = ORIENTED_EDGE ( 'NONE', *, *, #416, .T. ) ;
#412 = CIRCLE ( 'NONE', #804, 2.750000000000002665 ) ;
#413 = VECTOR ( 'NONE', #143, 1000.000000000000000 ) ;
#414 = CIRCLE ( 'NONE', #682, 2.750000000000002665 ) ;
#415 = ADVANCED_FACE ( 'NONE', ( #1081 ), #991, .T. ) ;
#416 = EDGE_CURVE ( 'NONE', #733, #983, #886, .T. ) ;
#417 = SECURITY_CLASSIFICATION ( '', '', #435 ) ;
#418 = LINE ( 'NONE', #521, #323 ) ;
#419 = DIRECTION ( 'NONE',  ( 0.000000000000000000, 0.000000000000000000, -1.000000000000000000 ) ) ;
#420 = COORDINATED_UNIVERSAL_TIME_OFFSET ( 5, 0, .BEHIND. ) ;
#421 = ORIENTED_EDGE ( 'NONE', *, *, #335, .F. ) ;
#422 = DIRECTION ( 'NONE',  ( 0.000000000000000000, 1.000000000000000000, 0.000000000000000000 ) ) ;
#423 = CARTESIAN_POINT ( 'NONE',  ( 68.59999999999999432, 30.00000000000000000, -9.000000000000000000 ) ) ;
#424 = EDGE_CURVE ( 'NONE', #146, #559, #1085, .T. ) ;
#425 = ORIENTED_EDGE ( 'NONE', *, *, #1060, .T. ) ;
#426 = CARTESIAN_POINT ( 'NONE',  ( 145.0000000000000000, 0.000000000000000000, -9.000000000000000000 ) ) ;
#427 = DIRECTION ( 'NONE',  ( 1.000000000000000000, 0.000000000000000000, 0.000000000000000000 ) ) ;
#428 = CALENDAR_DATE ( 2026, 26, 5 ) ;
#429 = EDGE_LOOP ( 'NONE', ( #544, #766 ) ) ;
#430 = EDGE_CURVE ( 'NONE', #446, #126, #285, .T. ) ;
#431 = VECTOR ( 'NONE', #182, 1000.000000000000000 ) ;
#432 = DIRECTION ( 'NONE',  ( -0.000000000000000000, -0.000000000000000000, -1.000000000000000000 ) ) ;
#433 = CARTESIAN_POINT ( 'NONE',  ( 0.000000000000000000, 0.000000000000000000, -9.000000000000000000 ) ) ;
#434 = VECTOR ( 'NONE', #1016, 1000.000000000000000 ) ;
#435 = SECURITY_CLASSIFICATION_LEVEL ( 'unclassified' ) ;
#436 = ORIENTED_EDGE ( 'NONE', *, *, #784, .F. ) ;
#437 = PRODUCT_DEFINITION ( 'UNKNOWN', '', #760, #485 ) ;
#438 = EDGE_CURVE ( 'NONE', #461, #530, #152, .T. ) ;
#439 = DIRECTION ( 'NONE',  ( 1.000000000000000000, 0.000000000000000000, 0.000000000000000000 ) ) ;
#440 = CARTESIAN_POINT ( 'NONE',  ( 68.59999999999999432, 9.000000000000000000, 0.000000000000000000 ) ) ;
#441 = ORIENTED_EDGE ( 'NONE', *, *, #1096, .T. ) ;
#442 = CYLINDRICAL_SURFACE ( 'NONE', #44, 2.749999999999997335 ) ;
#443 = DIRECTION ( 'NONE',  ( -1.000000000000000000, 0.000000000000000000, -0.000000000000000000 ) ) ;
#444 = APPLICATION_CONTEXT ( 'configuration controlled 3d designs of mechanical parts and assemblies' ) ;
#445 = DIRECTION ( 'NONE',  ( 0.000000000000000000, 0.000000000000000000, 1.000000000000000000 ) ) ;
#446 = VERTEX_POINT ( 'NONE', #841 ) ;
#447 = DIRECTION ( 'NONE',  ( 0.000000000000000000, 0.000000000000000000, 1.000000000000000000 ) ) ;
#448 = DIRECTION ( 'NONE',  ( -1.000000000000000000, 0.000000000000000000, 0.000000000000000000 ) ) ;
#449 = CIRCLE ( 'NONE', #241, 4.500000000000003553 ) ;
#450 = EDGE_CURVE ( 'NONE', #1037, #769, #309, .T. ) ;
#451 = CIRCLE ( 'NONE', #756, 2.750000000000002665 ) ;
#452 = AXIS2_PLACEMENT_3D ( 'NONE', #955, #808, #973 ) ;
#453 = ORIENTED_EDGE ( 'NONE', *, *, #1147, .F. ) ;
#454 = ORIENTED_EDGE ( 'NONE', *, *, #128, .F. ) ;
#455 = FACE_BOUND ( 'NONE', #702, .T. ) ;
#456 = CARTESIAN_POINT ( 'NONE',  ( 145.0000000000000000, 0.000000000000000000, -9.000000000000000000 ) ) ;
#457 = ORIENTED_EDGE ( 'NONE', *, *, #1072, .F. ) ;
#458 = ORIENTED_EDGE ( 'NONE', *, *, #577, .T. ) ;
#459 = DIRECTION ( 'NONE',  ( 1.000000000000000000, 0.000000000000000000, 0.000000000000000000 ) ) ;
#460 = DIRECTION ( 'NONE',  ( -0.000000000000000000, -0.000000000000000000, 1.000000000000000000 ) ) ;
#461 = VERTEX_POINT ( 'NONE', #753 ) ;
#462 = ORIENTED_EDGE ( 'NONE', *, *, #475, .T. ) ;
#463 = EDGE_LOOP ( 'NONE', ( #1084, #709 ) ) ;
#464 = DIRECTION ( 'NONE',  ( -0.000000000000000000, -0.000000000000000000, -1.000000000000000000 ) ) ;
#465 = DIRECTION ( 'NONE',  ( 1.000000000000000000, 0.000000000000000000, -0.000000000000000000 ) ) ;
#466 = CARTESIAN_POINT ( 'NONE',  ( 12.59999999999999964, 30.00000000000000000, -2.999999999999999112 ) ) ;
#467 = AXIS2_PLACEMENT_3D ( 'NONE', #1138, #313, #918 ) ;
#468 = APPLICATION_PROTOCOL_DEFINITION ( 'international standard', 'config_control_design', 1994, #382 ) ;
#469 = DIRECTION ( 'NONE',  ( -0.000000000000000000, -0.000000000000000000, -1.000000000000000000 ) ) ;
#470 = CIRCLE ( 'NONE', #978, 4.500000000000003553 ) ;
#471 = AXIS2_PLACEMENT_3D ( 'NONE', #895, #627, #1148 ) ;
#472 = EDGE_LOOP ( 'NONE', ( #575, #587 ) ) ;
#473 = DIRECTION ( 'NONE',  ( 0.000000000000000000, 0.000000000000000000, -1.000000000000000000 ) ) ;
#474 = LINE ( 'NONE', #813, #431 ) ;
#475 = EDGE_CURVE ( 'NONE', #914, #40, #470, .T. ) ;
#476 = DIRECTION ( 'NONE',  ( -1.000000000000000000, 0.000000000000000000, 0.000000000000000000 ) ) ;
#477 = EDGE_LOOP ( 'NONE', ( #94, #318, #1150, #1091 ) ) ;
#478 = LINE ( 'NONE', #294, #307 ) ;
#479 = CARTESIAN_POINT ( 'NONE',  ( 8.099999999999996092, 30.00000000000000000, -2.999999999999999112 ) ) ;
#480 = ORIENTED_EDGE ( 'NONE', *, *, #783, .F. ) ;
#481 = DIRECTION ( 'NONE',  ( -1.000000000000000000, 0.000000000000000000, 0.000000000000000000 ) ) ;
#482 = DIRECTION ( 'NONE',  ( 1.000000000000000000, 0.000000000000000000, 0.000000000000000000 ) ) ;
#483 = EDGE_CURVE ( 'NONE', #780, #559, #1120, .T. ) ;
#484 = FACE_OUTER_BOUND ( 'NONE', #47, .T. ) ;
#485 = DESIGN_CONTEXT ( 'detailed design', #444, 'design' ) ;
#486 = CARTESIAN_POINT ( 'NONE',  ( 12.59999999999999964, 30.00000000000000000, -9.000000000000000000 ) ) ;
#487 = CARTESIAN_POINT ( 'NONE',  ( 12.59999999999999964, 9.000000000000000000, -2.999999999999999112 ) ) ;
#488 = EDGE_LOOP ( 'NONE', ( #1131, #564, #1045, #117 ) ) ;
#489 = DIRECTION ( 'NONE',  ( 1.000000000000000000, 0.000000000000000000, 0.000000000000000000 ) ) ;
#490 = CC_DESIGN_PERSON_AND_ORGANIZATION_ASSIGNMENT ( #333, #968, ( #760 ) ) ;
#491 = FACE_BOUND ( 'NONE', #463, .T. ) ;
#492 = ADVANCED_FACE ( 'NONE', ( #484 ), #826, .F. ) ;
#493 = CIRCLE ( 'NONE', #638, 2.750000000000002665 ) ;
#494 = ORIENTED_EDGE ( 'NONE', *, *, #1040, .F. ) ;
#495 = AXIS2_PLACEMENT_3D ( 'NONE', #374, #834, #737 ) ;
#496 = DIRECTION ( 'NONE',  ( -0.000000000000000000, -0.000000000000000000, 1.000000000000000000 ) ) ;
#497 = DIRECTION ( 'NONE',  ( 0.000000000000000000, 0.000000000000000000, -1.000000000000000000 ) ) ;
#498 = UNCERTAINTY_MEASURE_WITH_UNIT (LENGTH_MEASURE( 1.000000000000000082E-05 ), #1012, 'distance_accuracy_value', 'NONE');
#499 =( NAMED_UNIT ( * ) PLANE_ANGLE_UNIT ( ) SI_UNIT ( $, .RADIAN. ) );
#500 = VERTEX_POINT ( 'NONE', #572 ) ;
#501 = CARTESIAN_POINT ( 'NONE',  ( 68.59999999999999432, 30.00000000000000000, -2.999999999999999112 ) ) ;
#502 = APPROVAL_STATUS ( 'not_yet_approved' ) ;
#503 = EDGE_LOOP ( 'NONE', ( #278, #326, #1098, #508 ) ) ;
#504 = EDGE_CURVE ( 'NONE', #983, #733, #59, .T. ) ;
#505 = CARTESIAN_POINT ( 'NONE',  ( 64.09999999999999432, 30.00000000000000000, -2.999999999999999112 ) ) ;
#506 = FACE_OUTER_BOUND ( 'NONE', #384, .T. ) ;
#507 = PERSON_AND_ORGANIZATION ( #943, #156 ) ;
#508 = ORIENTED_EDGE ( 'NONE', *, *, #1015, .F. ) ;
#509 = AXIS2_PLACEMENT_3D ( 'NONE', #929, #1141, #620 ) ;
#510 = AXIS2_PLACEMENT_3D ( 'NONE', #501, #1047, #970 ) ;
#511 = AXIS2_PLACEMENT_3D ( 'NONE', #120, #496, #48 ) ;
#512 = CC_DESIGN_SECURITY_CLASSIFICATION ( #417, ( #760 ) ) ;
#513 = DIRECTION ( 'NONE',  ( 1.000000000000000000, 0.000000000000000000, 0.000000000000000000 ) ) ;
#514 = LINE ( 'NONE', #874, #1049 ) ;
#515 = EDGE_CURVE ( 'NONE', #673, #8, #23, .T. ) ;
#516 = VERTEX_POINT ( 'NONE', #747 ) ;
#517 = CARTESIAN_POINT ( 'NONE',  ( 114.9999999999999858, 40.00000000000000711, 0.000000000000000000 ) ) ;
#518 = FACE_BOUND ( 'NONE', #656, .T. ) ;
#519 = DATE_AND_TIME ( #344, #906 ) ;
#520 = ORIENTED_EDGE ( 'NONE', *, *, #784, .T. ) ;
#521 = CARTESIAN_POINT ( 'NONE',  ( 145.0000000000000000, 48.00000000000000000, -9.000000000000000000 ) ) ;
#522 = CARTESIAN_POINT ( 'NONE',  ( 64.09999999999999432, 9.000000000000000000, -2.999999999999999112 ) ) ;
#523 = ORIENTED_EDGE ( 'NONE', *, *, #1135, .F. ) ;
#524 = EDGE_CURVE ( 'NONE', #157, #743, #396, .T. ) ;
#525 = CIRCLE ( 'NONE', #1064, 2.749999999999997335 ) ;
#526 = VECTOR ( 'NONE', #390, 1000.000000000000000 ) ;
#527 = FACE_OUTER_BOUND ( 'NONE', #1022, .T. ) ;
#528 = DIRECTION ( 'NONE',  ( 0.000000000000000000, 0.000000000000000000, -1.000000000000000000 ) ) ;
#529 = AXIS2_PLACEMENT_3D ( 'NONE', #276, #723, #1080 ) ;
#530 = VERTEX_POINT ( 'NONE', #299 ) ;
#531 = CYLINDRICAL_SURFACE ( 'NONE', #324, 2.750000000000002665 ) ;
#532 = DIRECTION ( 'NONE',  ( 0.000000000000000000, 0.000000000000000000, -1.000000000000000000 ) ) ;
#533 = CARTESIAN_POINT ( 'NONE',  ( 8.099999999999999645, 9.000000000000000000, -9.000000000000000000 ) ) ;
#534 = EDGE_CURVE ( 'NONE', #330, #862, #35, .T. ) ;
#535 = EDGE_LOOP ( 'NONE', ( #629, #457, #894, #361 ) ) ;
#536 = DIRECTION ( 'NONE',  ( -0.000000000000000000, -0.000000000000000000, 1.000000000000000000 ) ) ;
#537 = LINE ( 'NONE', #809, #754 ) ;
#538 = ORIENTED_EDGE ( 'NONE', *, *, #1158, .F. ) ;
#539 = VERTEX_POINT ( 'NONE', #836 ) ;
#540 = CYLINDRICAL_SURFACE ( 'NONE', #777, 4.500000000000003553 ) ;
#541 = FACE_OUTER_BOUND ( 'NONE', #1019, .T. ) ;
#542 = AXIS2_PLACEMENT_3D ( 'NONE', #992, #547, #982 ) ;
#543 = VECTOR ( 'NONE', #787, 1000.000000000000000 ) ;
#544 = ORIENTED_EDGE ( 'NONE', *, *, #1042, .T. ) ;
#545 = EDGE_CURVE ( 'NONE', #733, #165, #383, .T. ) ;
#546 = CIRCLE ( 'NONE', #901, 4.500000000000003553 ) ;
#547 = DIRECTION ( 'NONE',  ( -0.000000000000000000, -0.000000000000000000, 1.000000000000000000 ) ) ;
#548 = EDGE_LOOP ( 'NONE', ( #999, #1041 ) ) ;
#549 = FACE_BOUND ( 'NONE', #975, .T. ) ;
#550 = CARTESIAN_POINT ( 'NONE',  ( 71.34999999999999432, 30.00000000000000000, -2.999999999999999112 ) ) ;
#551 = ORIENTED_EDGE ( 'NONE', *, *, #560, .F. ) ;
#552 = VERTEX_POINT ( 'NONE', #407 ) ;
#553 = ORIENTED_EDGE ( 'NONE', *, *, #128, .T. ) ;
#554 = CARTESIAN_POINT ( 'NONE',  ( 15.34999999999999787, 30.00000000000000000, -2.999999999999999112 ) ) ;
#555 = DIRECTION ( 'NONE',  ( 1.000000000000000000, 0.000000000000000000, 0.000000000000000000 ) ) ;
#556 = CARTESIAN_POINT ( 'NONE',  ( 17.10000000000000497, 30.00000000000000000, -2.999999999999999112 ) ) ;
#557 = ORIENTED_EDGE ( 'NONE', *, *, #1079, .T. ) ;
#558 = DIRECTION ( 'NONE',  ( 0.000000000000000000, 0.000000000000000000, -1.000000000000000000 ) ) ;
#559 = VERTEX_POINT ( 'NONE', #768 ) ;
#560 = EDGE_CURVE ( 'NONE', #630, #321, #1018, .T. ) ;
#561 = CARTESIAN_POINT ( 'NONE',  ( 12.59999999999999964, 30.00000000000000000, -2.999999999999999112 ) ) ;
#562 = CARTESIAN_POINT ( 'NONE',  ( 12.59999999999999964, 30.00000000000000000, 0.000000000000000000 ) ) ;
#563 = CARTESIAN_POINT ( 'NONE',  ( 84.99999999999995737, 40.00000000000000000, 0.000000000000000000 ) ) ;
#564 = ORIENTED_EDGE ( 'NONE', *, *, #717, .T. ) ;
#565 = CIRCLE ( 'NONE', #186, 4.500000000000003553 ) ;
#566 = CYLINDRICAL_SURFACE ( 'NONE', #509, 2.750000000000002665 ) ;
#567 = CIRCLE ( 'NONE', #471, 4.500000000000003553 ) ;
#568 = LOCAL_TIME ( 12, 14, 22.00000000000000000, #226 ) ;
#569 = ORIENTED_EDGE ( 'NONE', *, *, #158, .T. ) ;
#570 = DIRECTION ( 'NONE',  ( 0.000000000000000000, 0.000000000000000000, 1.000000000000000000 ) ) ;
#571 = CARTESIAN_POINT ( 'NONE',  ( 114.9999999999999858, 40.00000000000000711, 0.000000000000000000 ) ) ;
#572 = CARTESIAN_POINT ( 'NONE',  ( 119.5000000000000000, 40.00000000000000711, -6.000000000000000000 ) ) ;
#573 = DIRECTION ( 'NONE',  ( -0.000000000000000000, -1.000000000000000000, -0.000000000000000000 ) ) ;
#574 = CARTESIAN_POINT ( 'NONE',  ( 15.34999999999999787, 9.000000000000000000, 0.000000000000000000 ) ) ;
#575 = ORIENTED_EDGE ( 'NONE', *, *, #55, .T. ) ;
#576 = EDGE_CURVE ( 'NONE', #379, #914, #850, .T. ) ;
#577 = EDGE_CURVE ( 'NONE', #350, #516, #565, .T. ) ;
#578 = CARTESIAN_POINT ( 'NONE',  ( 12.59999999999999964, 9.000000000000000000, -2.999999999999999112 ) ) ;
#579 = CARTESIAN_POINT ( 'NONE',  ( 68.59999999999999432, 30.00000000000000000, -2.999999999999999112 ) ) ;
#580 = DATE_AND_TIME ( #393, #568 ) ;
#581 = DIRECTION ( 'NONE',  ( -1.000000000000000000, 0.000000000000000000, 0.000000000000000000 ) ) ;
#582 = ORIENTED_EDGE ( 'NONE', *, *, #348, .F. ) ;
#583 = CYLINDRICAL_SURFACE ( 'NONE', #495, 2.750000000000002665 ) ;
#584 = PLANE ( 'NONE',  #712 ) ;
#585 = DIRECTION ( 'NONE',  ( -1.000000000000000000, 0.000000000000000000, 0.000000000000000000 ) ) ;
#586 = AXIS2_PLACEMENT_3D ( 'NONE', #946, #198, #292 ) ;
#587 = ORIENTED_EDGE ( 'NONE', *, *, #890, .T. ) ;
#588 = AXIS2_PLACEMENT_3D ( 'NONE', #578, #218, #481 ) ;
#589 = LINE ( 'NONE', #699, #806 ) ;
#590 = EDGE_CURVE ( 'NONE', #500, #70, #934, .T. ) ;
#591 = DIRECTION ( 'NONE',  ( 0.000000000000000000, 0.000000000000000000, 1.000000000000000000 ) ) ;
#592 = EDGE_LOOP ( 'NONE', ( #869, #200, #275, #1061 ) ) ;
#593 = CARTESIAN_POINT ( 'NONE',  ( 145.0000000000000000, 48.00000000000000000, 0.000000000000000000 ) ) ;
#594 = COORDINATED_UNIVERSAL_TIME_OFFSET ( 5, 0, .BEHIND. ) ;
#595 = ORIENTED_EDGE ( 'NONE', *, *, #958, .F. ) ;
#596 = EDGE_CURVE ( 'NONE', #17, #209, #310, .T. ) ;
#597 = CYLINDRICAL_SURFACE ( 'NONE', #510, 4.500000000000003553 ) ;
#598 = DIRECTION ( 'NONE',  ( 1.000000000000000000, 0.000000000000000000, 0.000000000000000000 ) ) ;
#599 = ORIENTED_EDGE ( 'NONE', *, *, #1116, .T. ) ;
#600 = CIRCLE ( 'NONE', #184, 2.750000000000002665 ) ;
#601 = VECTOR ( 'NONE', #755, 1000.000000000000000 ) ;
#602 = AXIS2_PLACEMENT_3D ( 'NONE', #887, #104, #86 ) ;
#603 = AXIS2_PLACEMENT_3D ( 'NONE', #215, #591, #50 ) ;
#604 = CARTESIAN_POINT ( 'NONE',  ( 0.000000000000000000, 0.000000000000000000, -9.000000000000000000 ) ) ;
#605 = FACE_OUTER_BOUND ( 'NONE', #150, .T. ) ;
#606 = PERSON_AND_ORGANIZATION_ROLE ( 'creator' ) ;
#607 = EDGE_CURVE ( 'NONE', #780, #907, #661, .T. ) ;
#608 = EDGE_LOOP ( 'NONE', ( #930, #582 ) ) ;
#609 = ADVANCED_FACE ( 'NONE', ( #938, #491 ), #584, .T. ) ;
#610 = CYLINDRICAL_SURFACE ( 'NONE', #337, 2.750000000000002665 ) ;
#611 = FACE_OUTER_BOUND ( 'NONE', #429, .T. ) ;
#612 = EDGE_LOOP ( 'NONE', ( #776, #11 ) ) ;
#613 = CARTESIAN_POINT ( 'NONE',  ( 0.000000000000000000, 0.000000000000000000, 0.000000000000000000 ) ) ;
#614 = CARTESIAN_POINT ( 'NONE',  ( 12.59999999999999964, 9.000000000000000000, -2.999999999999999112 ) ) ;
#615 = ORIENTED_EDGE ( 'NONE', *, *, #977, .F. ) ;
#616 = VECTOR ( 'NONE', #301, 1000.000000000000000 ) ;
#617 = AXIS2_PLACEMENT_3D ( 'NONE', #433, #528, #1152 ) ;
#618 = VECTOR ( 'NONE', #432, 1000.000000000000000 ) ;
#619 = FACE_OUTER_BOUND ( 'NONE', #488, .T. ) ;
#620 = DIRECTION ( 'NONE',  ( 1.000000000000000000, 0.000000000000000000, 0.000000000000000000 ) ) ;
#621 = AXIS2_PLACEMENT_3D ( 'NONE', #763, #1099, #1087 ) ;
#622 = APPROVAL ( #866, 'UNSPECIFIED' ) ;
#623 = EDGE_CURVE ( 'NONE', #951, #630, #680, .T. ) ;
#624 = CYLINDRICAL_SURFACE ( 'NONE', #542, 4.500000000000003553 ) ;
#625 = PRODUCT_DEFINITION_SHAPE ( 'NONE', 'NONE',  #437 ) ;
#626 = ORIENTED_EDGE ( 'NONE', *, *, #647, .F. ) ;
#627 = DIRECTION ( 'NONE',  ( 0.000000000000000000, 0.000000000000000000, -1.000000000000000000 ) ) ;
#628 = LINE ( 'NONE', #704, #93 ) ;
#629 = ORIENTED_EDGE ( 'NONE', *, *, #717, .F. ) ;
#630 = VERTEX_POINT ( 'NONE', #739 ) ;
#631 = ADVANCED_FACE ( 'NONE', ( #1094 ), #652, .F. ) ;
#632 = CARTESIAN_POINT ( 'NONE',  ( 65.84999999999999432, 9.000000000000000000, 0.000000000000000000 ) ) ;
#633 = DIRECTION ( 'NONE',  ( -1.000000000000000000, 0.000000000000000000, 0.000000000000000000 ) ) ;
#634 = ORIENTED_EDGE ( 'NONE', *, *, #1046, .T. ) ;
#635 = EDGE_LOOP ( 'NONE', ( #1090, #1136 ) ) ;
#636 = FACE_BOUND ( 'NONE', #239, .T. ) ;
#637 = LINE ( 'NONE', #724, #168 ) ;
#638 = AXIS2_PLACEMENT_3D ( 'NONE', #692, #1048, #966 ) ;
#639 = AXIS2_PLACEMENT_3D ( 'NONE', #604, #160, #71 ) ;
#640 = EDGE_LOOP ( 'NONE', ( #520, #30 ) ) ;
#641 = CIRCLE ( 'NONE', #828, 4.500000000000003553 ) ;
#642 = VERTEX_POINT ( 'NONE', #770 ) ;
#643 = EDGE_LOOP ( 'NONE', ( #480, #175, #355, #283 ) ) ;
#644 = CARTESIAN_POINT ( 'NONE',  ( 84.99999999999995737, 40.00000000000000000, -6.000000000000000000 ) ) ;
#645 = DIRECTION ( 'NONE',  ( -1.000000000000000000, 0.000000000000000000, 0.000000000000000000 ) ) ;
#646 = DIRECTION ( 'NONE',  ( -1.000000000000000000, 0.000000000000000000, -0.000000000000000000 ) ) ;
#647 = EDGE_CURVE ( 'NONE', #907, #146, #232, .T. ) ;
#648 = CARTESIAN_POINT ( 'NONE',  ( 117.7500000000000000, 40.00000000000000711, -9.000000000000000000 ) ) ;
#649 = ORIENTED_EDGE ( 'NONE', *, *, #109, .T. ) ;
#650 = DIRECTION ( 'NONE',  ( 0.000000000000000000, 0.000000000000000000, 1.000000000000000000 ) ) ;
#651 = DIRECTION ( 'NONE',  ( 0.000000000000000000, 0.000000000000000000, 1.000000000000000000 ) ) ;
#652 = CYLINDRICAL_SURFACE ( 'NONE', #1129, 2.749999999999997335 ) ;
#653 = VERTEX_POINT ( 'NONE', #426 ) ;
#654 = DIRECTION ( 'NONE',  ( -0.000000000000000000, -0.000000000000000000, -1.000000000000000000 ) ) ;
#655 = FACE_OUTER_BOUND ( 'NONE', #592, .T. ) ;
#656 = EDGE_LOOP ( 'NONE', ( #811, #751 ) ) ;
#657 = CARTESIAN_POINT ( 'NONE',  ( 0.000000000000000000, 48.00000000000000000, 0.000000000000000000 ) ) ;
#658 = CARTESIAN_POINT ( 'NONE',  ( 12.59999999999999964, 30.00000000000000000, -2.999999999999999112 ) ) ;
#659 = AXIS2_PLACEMENT_3D ( 'NONE', #892, #882, #971 ) ;
#660 = CARTESIAN_POINT ( 'NONE',  ( 9.850000000000003197, 30.00000000000000000, -9.000000000000000000 ) ) ;
#661 = CIRCLE ( 'NONE', #260, 4.500000000000003553 ) ;
#662 = CARTESIAN_POINT ( 'NONE',  ( 0.000000000000000000, 0.000000000000000000, -9.000000000000000000 ) ) ;
#663 = DIRECTION ( 'NONE',  ( -1.000000000000000000, 0.000000000000000000, -0.000000000000000000 ) ) ;
#664 = AXIS2_PLACEMENT_3D ( 'NONE', #706, #536, #439 ) ;
#665 = EDGE_CURVE ( 'NONE', #642, #272, #781, .T. ) ;
#666 = EDGE_CURVE ( 'NONE', #1153, #70, #697, .T. ) ;
#667 = EDGE_LOOP ( 'NONE', ( #97, #102, #296, #557 ) ) ;
#668 = DIRECTION ( 'NONE',  ( 0.000000000000000000, 0.000000000000000000, 1.000000000000000000 ) ) ;
#669 = DIRECTION ( 'NONE',  ( -0.000000000000000000, -0.000000000000000000, 1.000000000000000000 ) ) ;
#670 = ORIENTED_EDGE ( 'NONE', *, *, #483, .F. ) ;
#671 = CARTESIAN_POINT ( 'NONE',  ( 110.4999999999999858, 40.00000000000000711, 0.000000000000000000 ) ) ;
#672 = FACE_OUTER_BOUND ( 'NONE', #174, .T. ) ;
#673 = VERTEX_POINT ( 'NONE', #338 ) ;
#674 = CARTESIAN_POINT ( 'NONE',  ( 117.7500000000000000, 40.00000000000000711, -6.000000000000000000 ) ) ;
#675 = CARTESIAN_POINT ( 'NONE',  ( 87.74999999999995737, 40.00000000000000000, -9.000000000000000000 ) ) ;
#676 = PERSON_AND_ORGANIZATION_ROLE ( 'design_owner' ) ;
#677 = ORIENTED_EDGE ( 'NONE', *, *, #607, .F. ) ;
#678 = CARTESIAN_POINT ( 'NONE',  ( 84.99999999999995737, 40.00000000000000000, -9.000000000000000000 ) ) ;
#679 = CARTESIAN_POINT ( 'NONE',  ( 12.59999999999999964, 9.000000000000000000, -2.999999999999999112 ) ) ;
#680 = CIRCLE ( 'NONE', #924, 4.500000000000003553 ) ;
#681 = ORIENTED_EDGE ( 'NONE', *, *, #623, .F. ) ;
#682 = AXIS2_PLACEMENT_3D ( 'NONE', #765, #300, #1095 ) ;
#683 = DIRECTION ( 'NONE',  ( 1.000000000000000000, 0.000000000000000000, 0.000000000000000000 ) ) ;
#684 = PERSON_AND_ORGANIZATION ( #943, #156 ) ;
#685 = ADVANCED_FACE ( 'NONE', ( #1140 ), #610, .F. ) ;
#686 = ORIENTED_EDGE ( 'NONE', *, *, #534, .F. ) ;
#687 = DIRECTION ( 'NONE',  ( 0.000000000000000000, 0.000000000000000000, 1.000000000000000000 ) ) ;
#688 = DIRECTION ( 'NONE',  ( -1.000000000000000000, 0.000000000000000000, 0.000000000000000000 ) ) ;
#689 = CALENDAR_DATE ( 2026, 26, 5 ) ;
#690 = EDGE_LOOP ( 'NONE', ( #107, #57, #265, #1112 ) ) ;
#691 = DIRECTION ( 'NONE',  ( -1.000000000000000000, 0.000000000000000000, 0.000000000000000000 ) ) ;
#692 = CARTESIAN_POINT ( 'NONE',  ( 114.9999999999999858, 40.00000000000000711, -6.000000000000000000 ) ) ;
#693 = ORIENTED_EDGE ( 'NONE', *, *, #219, .F. ) ;
#694 = CC_DESIGN_PERSON_AND_ORGANIZATION_ASSIGNMENT ( #741, #676, ( #1102 ) ) ;
#695 = VECTOR ( 'NONE', #469, 1000.000000000000000 ) ;
#696 = EDGE_CURVE ( 'NONE', #8, #272, #774, .T. ) ;
#697 = CIRCLE ( 'NONE', #95, 4.500000000000003553 ) ;
#698 = AXIS2_PLACEMENT_3D ( 'NONE', #915, #473, #823 ) ;
#699 = CARTESIAN_POINT ( 'NONE',  ( 9.850000000000003197, 9.000000000000000000, -9.000000000000000000 ) ) ;
#700 = CARTESIAN_POINT ( 'NONE',  ( 0.000000000000000000, 0.000000000000000000, 0.000000000000000000 ) ) ;
#701 = PERSON_AND_ORGANIZATION_ROLE ( 'classification_officer' ) ;
#702 = EDGE_LOOP ( 'NONE', ( #599, #889 ) ) ;
#703 = DIRECTION ( 'NONE',  ( 1.000000000000000000, 0.000000000000000000, 0.000000000000000000 ) ) ;
#704 = CARTESIAN_POINT ( 'NONE',  ( 145.0000000000000000, 0.000000000000000000, -9.000000000000000000 ) ) ;
#705 = ORIENTED_EDGE ( 'NONE', *, *, #1116, .F. ) ;
#706 = CARTESIAN_POINT ( 'NONE',  ( 114.9999999999999858, 40.00000000000000711, -6.000000000000000000 ) ) ;
#707 = FACE_BOUND ( 'NONE', #799, .T. ) ;
#708 = EDGE_CURVE ( 'NONE', #195, #769, #418, .T. ) ;
#709 = ORIENTED_EDGE ( 'NONE', *, *, #53, .T. ) ;
#710 = CIRCLE ( 'NONE', #849, 2.750000000000002665 ) ;
#711 = EDGE_LOOP ( 'NONE', ( #341, #1000 ) ) ;
#712 = AXIS2_PLACEMENT_3D ( 'NONE', #856, #286, #646 ) ;
#713 = FACE_BOUND ( 'NONE', #183, .T. ) ;
#714 = FACE_BOUND ( 'NONE', #548, .T. ) ;
#715 = APPROVAL_PERSON_ORGANIZATION ( #507, #814, #75 ) ;
#716 = CARTESIAN_POINT ( 'NONE',  ( 114.9999999999999858, 40.00000000000000711, -9.000000000000000000 ) ) ;
#717 = EDGE_CURVE ( 'NONE', #721, #954, #589, .T. ) ;
#718 = ORIENTED_EDGE ( 'NONE', *, *, #748, .F. ) ;
#719 = CARTESIAN_POINT ( 'NONE',  ( 87.74999999999995737, 40.00000000000000000, -6.000000000000000000 ) ) ;
#720 = CARTESIAN_POINT ( 'NONE',  ( 68.59999999999999432, 30.00000000000000000, 0.000000000000000000 ) ) ;
#721 = VERTEX_POINT ( 'NONE', #1123 ) ;
#722 = EDGE_LOOP ( 'NONE', ( #81, #854, #884, #920 ) ) ;
#723 = DIRECTION ( 'NONE',  ( 0.000000000000000000, 0.000000000000000000, 1.000000000000000000 ) ) ;
#724 = CARTESIAN_POINT ( 'NONE',  ( 145.0000000000000000, 0.000000000000000000, -9.000000000000000000 ) ) ;
#725 = ORIENTED_EDGE ( 'NONE', *, *, #424, .F. ) ;
#726 = CC_DESIGN_DATE_AND_TIME_ASSIGNMENT ( #875, #251, ( #437 ) ) ;
#727 = EDGE_LOOP ( 'NONE', ( #670, #369, #19, #810 ) ) ;
#728 = DIRECTION ( 'NONE',  ( 0.000000000000000000, 0.000000000000000000, 1.000000000000000000 ) ) ;
#729 = DIRECTION ( 'NONE',  ( 0.000000000000000000, 0.000000000000000000, 1.000000000000000000 ) ) ;
#730 = AXIS2_PLACEMENT_3D ( 'NONE', #167, #267, #343 ) ;
#731 = EDGE_CURVE ( 'NONE', #76, #500, #995, .T. ) ;
#732 = AXIS2_PLACEMENT_3D ( 'NONE', #1003, #764, #45 ) ;
#733 = VERTEX_POINT ( 'NONE', #1053 ) ;
#734 = VECTOR ( 'NONE', #284, 1000.000000000000000 ) ;
#735 = ORIENTED_EDGE ( 'NONE', *, *, #904, .F. ) ;
#736 = EDGE_LOOP ( 'NONE', ( #1122, #436, #6, #453 ) ) ;
#737 = DIRECTION ( 'NONE',  ( 1.000000000000000000, 0.000000000000000000, 0.000000000000000000 ) ) ;
#738 = DIRECTION ( 'NONE',  ( 0.000000000000000000, 0.000000000000000000, 1.000000000000000000 ) ) ;
#739 = CARTESIAN_POINT ( 'NONE',  ( 17.10000000000000497, 30.00000000000000000, -2.999999999999999112 ) ) ;
#740 = ORIENTED_EDGE ( 'NONE', *, *, #1117, .T. ) ;
#741 = PERSON_AND_ORGANIZATION ( #943, #156 ) ;
#742 = CARTESIAN_POINT ( 'NONE',  ( 112.2499999999999858, 40.00000000000000711, -6.000000000000000000 ) ) ;
#743 = VERTEX_POINT ( 'NONE', #163 ) ;
#744 = FACE_OUTER_BOUND ( 'NONE', #839, .T. ) ;
#745 = DIRECTION ( 'NONE',  ( -1.000000000000000000, 0.000000000000000000, 0.000000000000000000 ) ) ;
#746 = CC_DESIGN_PERSON_AND_ORGANIZATION_ASSIGNMENT ( #684, #701, ( #417 ) ) ;
#747 = CARTESIAN_POINT ( 'NONE',  ( 89.49999999999995737, 40.00000000000000000, 0.000000000000000000 ) ) ;
#748 = EDGE_CURVE ( 'NONE', #1145, #364, #281, .T. ) ;
#749 = CARTESIAN_POINT ( 'NONE',  ( 84.99999999999995737, 40.00000000000000000, -9.000000000000000000 ) ) ;
#750 = DIRECTION ( 'NONE',  ( -1.000000000000000000, -0.000000000000000000, -0.000000000000000000 ) ) ;
#751 = ORIENTED_EDGE ( 'NONE', *, *, #1015, .T. ) ;
#752 = DIRECTION ( 'NONE',  ( 0.000000000000000000, 0.000000000000000000, 1.000000000000000000 ) ) ;
#753 = CARTESIAN_POINT ( 'NONE',  ( 65.84999999999999432, 30.00000000000000000, 0.000000000000000000 ) ) ;
#754 = VECTOR ( 'NONE', #974, 1000.000000000000000 ) ;
#755 = DIRECTION ( 'NONE',  ( 0.000000000000000000, 0.000000000000000000, 1.000000000000000000 ) ) ;
#756 = AXIS2_PLACEMENT_3D ( 'NONE', #409, #54, #683 ) ;
#757 = DIRECTION ( 'NONE',  ( 0.000000000000000000, 0.000000000000000000, 1.000000000000000000 ) ) ;
#758 = CARTESIAN_POINT ( 'NONE',  ( 68.59999999999999432, 9.000000000000000000, -2.999999999999999112 ) ) ;
#759 = VECTOR ( 'NONE', #90, 1000.000000000000000 ) ;
#760 = PRODUCT_DEFINITION_FORMATION_WITH_SPECIFIED_SOURCE ( 'ANY', '', #1102, .NOT_KNOWN. ) ;
#761 = ORIENTED_EDGE ( 'NONE', *, *, #1004, .F. ) ;
#762 = ADVANCED_FACE ( 'NONE', ( #248 ), #597, .F. ) ;
#763 = CARTESIAN_POINT ( 'NONE',  ( 84.99999999999995737, 40.00000000000000000, -6.000000000000000000 ) ) ;
#764 = DIRECTION ( 'NONE',  ( -0.000000000000000000, -0.000000000000000000, -1.000000000000000000 ) ) ;
#765 = CARTESIAN_POINT ( 'NONE',  ( 68.59999999999999432, 30.00000000000000000, -2.999999999999999112 ) ) ;
#766 = ORIENTED_EDGE ( 'NONE', *, *, #731, .T. ) ;
#767 = CARTESIAN_POINT ( 'NONE',  ( 12.59999999999999964, 30.00000000000000000, 0.000000000000000000 ) ) ;
#768 = CARTESIAN_POINT ( 'NONE',  ( 73.09999999999999432, 30.00000000000000000, -9.000000000000000000 ) ) ;
#769 = VERTEX_POINT ( 'NONE', #593 ) ;
#770 = CARTESIAN_POINT ( 'NONE',  ( 17.10000000000000142, 9.000000000000000000, -2.999999999999999112 ) ) ;
#771 = EDGE_CURVE ( 'NONE', #1052, #936, #778, .T. ) ;
#772 = AXIS2_PLACEMENT_3D ( 'NONE', #487, #1097, #688 ) ;
#773 = APPROVAL_DATE_TIME ( #956, #814 ) ;
#774 = CIRCLE ( 'NONE', #867, 4.500000000000000888 ) ;
#775 = VECTOR ( 'NONE', #1111, 1000.000000000000000 ) ;
#776 = ORIENTED_EDGE ( 'NONE', *, *, #1060, .F. ) ;
#777 = AXIS2_PLACEMENT_3D ( 'NONE', #166, #342, #99 ) ;
#778 = LINE ( 'NONE', #952, #1161 ) ;
#779 = LINE ( 'NONE', #149, #58 ) ;
#780 = VERTEX_POINT ( 'NONE', #877 ) ;
#781 = LINE ( 'NONE', #1132, #618 ) ;
#782 = FACE_OUTER_BOUND ( 'NONE', #268, .T. ) ;
#783 = EDGE_CURVE ( 'NONE', #209, #1037, #881, .T. ) ;
#784 = EDGE_CURVE ( 'NONE', #180, #1105, #451, .T. ) ;
#785 = PERSON_AND_ORGANIZATION ( #943, #156 ) ;
#786 = ORIENTED_EDGE ( 'NONE', *, *, #1042, .F. ) ;
#787 = DIRECTION ( 'NONE',  ( -0.000000000000000000, -0.000000000000000000, -1.000000000000000000 ) ) ;
#788 = DIRECTION ( 'NONE',  ( 1.000000000000000000, 0.000000000000000000, 0.000000000000000000 ) ) ;
#789 = ORIENTED_EDGE ( 'NONE', *, *, #1040, .T. ) ;
#790 = VECTOR ( 'NONE', #29, 1000.000000000000000 ) ;
#791 = CARTESIAN_POINT ( 'NONE',  ( 89.49999999999995737, 40.00000000000000000, -6.000000000000000000 ) ) ;
#792 = CARTESIAN_POINT ( 'NONE',  ( 17.10000000000000142, 9.000000000000000000, -9.000000000000000000 ) ) ;
#793 = PERSON_AND_ORGANIZATION ( #943, #156 ) ;
#794 = EDGE_LOOP ( 'NONE', ( #821, #441, #897, #686 ) ) ;
#795 = ADVANCED_FACE ( 'NONE', ( #959 ), #863, .T. ) ;
#796 = FACE_BOUND ( 'NONE', #37, .T. ) ;
#797 = CARTESIAN_POINT ( 'NONE',  ( 145.0000000000000000, 48.00000000000000000, -9.000000000000000000 ) ) ;
#798 = ORIENTED_EDGE ( 'NONE', *, *, #293, .F. ) ;
#799 = EDGE_LOOP ( 'NONE', ( #725, #280 ) ) ;
#800 = FACE_OUTER_BOUND ( 'NONE', #1031, .T. ) ;
#801 = DIRECTION ( 'NONE',  ( 0.000000000000000000, 0.000000000000000000, 1.000000000000000000 ) ) ;
#802 = ADVANCED_FACE ( 'NONE', ( #243 ), #77, .T. ) ;
#803 = FACE_OUTER_BOUND ( 'NONE', #171, .T. ) ;
#804 = AXIS2_PLACEMENT_3D ( 'NONE', #835, #10, #28 ) ;
#805 = ORIENTED_EDGE ( 'NONE', *, *, #708, .F. ) ;
#806 = VECTOR ( 'NONE', #237, 1000.000000000000000 ) ;
#807 = CIRCLE ( 'NONE', #3, 4.500000000000000888 ) ;
#808 = DIRECTION ( 'NONE',  ( -0.000000000000000000, -0.000000000000000000, 1.000000000000000000 ) ) ;
#809 = CARTESIAN_POINT ( 'NONE',  ( 89.49999999999995737, 40.00000000000000000, -6.000000000000000000 ) ) ;
#810 = ORIENTED_EDGE ( 'NONE', *, *, #424, .T. ) ;
#811 = ORIENTED_EDGE ( 'NONE', *, *, #147, .T. ) ;
#812 = CARTESIAN_POINT ( 'NONE',  ( 68.59999999999999432, 30.00000000000000000, -9.000000000000000000 ) ) ;
#813 = CARTESIAN_POINT ( 'NONE',  ( 110.4999999999999858, 40.00000000000000711, -6.000000000000000000 ) ) ;
#814 = APPROVAL ( #502, 'UNSPECIFIED' ) ;
#815 = ADVANCED_FACE ( 'NONE', ( #319 ), #235, .F. ) ;
#816 = EDGE_LOOP ( 'NONE', ( #288, #1160 ) ) ;
#817 = VERTEX_POINT ( 'NONE', #632 ) ;
#818 = CARTESIAN_POINT ( 'NONE',  ( 65.84999999999999432, 30.00000000000000000, -9.000000000000000000 ) ) ;
#819 = DIRECTION ( 'NONE',  ( 0.000000000000000000, 0.000000000000000000, -1.000000000000000000 ) ) ;
#820 = ORIENTED_EDGE ( 'NONE', *, *, #576, .T. ) ;
#821 = ORIENTED_EDGE ( 'NONE', *, *, #403, .F. ) ;
#822 = ORIENTED_EDGE ( 'NONE', *, *, #696, .F. ) ;
#823 = DIRECTION ( 'NONE',  ( -1.000000000000000000, 0.000000000000000000, 0.000000000000000000 ) ) ;
#824 = CARTESIAN_POINT ( 'NONE',  ( 12.59999999999999964, 30.00000000000000000, -9.000000000000000000 ) ) ;
#825 = CIRCLE ( 'NONE', #730, 4.500000000000003553 ) ;
#826 = CYLINDRICAL_SURFACE ( 'NONE', #732, 4.500000000000000888 ) ;
#827 = VERTEX_POINT ( 'NONE', #791 ) ;
#828 = AXIS2_PLACEMENT_3D ( 'NONE', #561, #848, #42 ) ;
#829 = DIRECTION ( 'NONE',  ( 0.000000000000000000, 0.000000000000000000, 1.000000000000000000 ) ) ;
#830 = DIRECTION ( 'NONE',  ( -0.000000000000000000, -0.000000000000000000, -1.000000000000000000 ) ) ;
#831 = EDGE_LOOP ( 'NONE', ( #677, #360, #569, #626 ) ) ;
#832 = ADVANCED_FACE ( 'NONE', ( #891 ), #540, .F. ) ;
#833 = ADVANCED_FACE ( 'NONE', ( #181 ), #902, .F. ) ;
#834 = DIRECTION ( 'NONE',  ( 0.000000000000000000, 0.000000000000000000, 1.000000000000000000 ) ) ;
#835 = CARTESIAN_POINT ( 'NONE',  ( 114.9999999999999858, 40.00000000000000711, -9.000000000000000000 ) ) ;
#836 = CARTESIAN_POINT ( 'NONE',  ( 71.34999999999999432, 9.000000000000000000, 0.000000000000000000 ) ) ;
#837 = ORIENTED_EDGE ( 'NONE', *, *, #438, .F. ) ;
#838 = CYLINDRICAL_SURFACE ( 'NONE', #1106, 4.500000000000003553 ) ;
#839 = EDGE_LOOP ( 'NONE', ( #735, #365, #108, #969 ) ) ;
#840 = CARTESIAN_POINT ( 'NONE',  ( 112.2499999999999858, 40.00000000000000711, -9.000000000000000000 ) ) ;
#841 = CARTESIAN_POINT ( 'NONE',  ( 15.34999999999999787, 9.000000000000000000, -2.999999999999999112 ) ) ;
#842 = CARTESIAN_POINT ( 'NONE',  ( 8.099999999999999645, 9.000000000000000000, -2.999999999999999112 ) ) ;
#843 = EDGE_LOOP ( 'NONE', ( #334, #65 ) ) ;
#844 = APPROVAL_STATUS ( 'not_yet_approved' ) ;
#845 = ADVANCED_FACE ( 'NONE', ( #527, #455 ), #1075, .T. ) ;
#846 = CARTESIAN_POINT ( 'NONE',  ( 119.5000000000000000, 40.00000000000000711, 0.000000000000000000 ) ) ;
#847 = ORIENTED_EDGE ( 'NONE', *, *, #919, .T. ) ;
#848 = DIRECTION ( 'NONE',  ( 0.000000000000000000, 0.000000000000000000, -1.000000000000000000 ) ) ;
#849 = AXIS2_PLACEMENT_3D ( 'NONE', #1044, #238, #598 ) ;
#850 = LINE ( 'NONE', #917, #1066 ) ;
#851 = AXIS2_PLACEMENT_3D ( 'NONE', #111, #1076, #745 ) ;
#852 = MECHANICAL_CONTEXT ( 'NONE', #382, 'mechanical' ) ;
#853 = CIRCLE ( 'NONE', #1, 2.750000000000002665 ) ;
#854 = ORIENTED_EDGE ( 'NONE', *, *, #545, .T. ) ;
#855 = DIRECTION ( 'NONE',  ( 1.000000000000000000, 0.000000000000000000, 0.000000000000000000 ) ) ;
#856 = CARTESIAN_POINT ( 'NONE',  ( 68.59999999999999432, 9.000000000000000000, -2.999999999999999112 ) ) ;
#857 = DIRECTION ( 'NONE',  ( -1.000000000000000000, 0.000000000000000000, 0.000000000000000000 ) ) ;
#858 = ORIENTED_EDGE ( 'NONE', *, *, #240, .F. ) ;
#859 = ADVANCED_FACE ( 'NONE', ( #4 ), #442, .F. ) ;
#860 = DIRECTION ( 'NONE',  ( 1.000000000000000000, 0.000000000000000000, 0.000000000000000000 ) ) ;
#861 = APPROVAL_ROLE ( '' ) ;
#862 = VERTEX_POINT ( 'NONE', #719 ) ;
#863 = PLANE ( 'NONE',  #242 ) ;
#864 = FACE_OUTER_BOUND ( 'NONE', #256, .T. ) ;
#865 = CIRCLE ( 'NONE', #302, 4.500000000000003553 ) ;
#866 = APPROVAL_STATUS ( 'not_yet_approved' ) ;
#867 = AXIS2_PLACEMENT_3D ( 'NONE', #873, #153, #325 ) ;
#868 = CIRCLE ( 'NONE', #698, 4.500000000000000888 ) ;
#869 = ORIENTED_EDGE ( 'NONE', *, *, #576, .F. ) ;
#870 = CC_DESIGN_APPROVAL ( #814, ( #417 ) ) ;
#871 = ADVANCED_FACE ( 'NONE', ( #270 ), #1070, .F. ) ;
#872 = ADVANCED_FACE ( 'NONE', ( #800 ), #362, .F. ) ;
#873 = CARTESIAN_POINT ( 'NONE',  ( 12.59999999999999964, 9.000000000000000000, -9.000000000000000000 ) ) ;
#874 = CARTESIAN_POINT ( 'NONE',  ( 0.000000000000000000, 48.00000000000000000, -9.000000000000000000 ) ) ;
#875 = DATE_AND_TIME ( #689, #64 ) ;
#876 = ORIENTED_EDGE ( 'NONE', *, *, #904, .T. ) ;
#877 = CARTESIAN_POINT ( 'NONE',  ( 73.09999999999999432, 30.00000000000000000, -2.999999999999999112 ) ) ;
#878 = DIRECTION ( 'NONE',  ( -0.000000000000000000, -0.000000000000000000, 1.000000000000000000 ) ) ;
#879 = DATE_TIME_ROLE ( 'classification_date' ) ;
#880 = ORIENTED_EDGE ( 'NONE', *, *, #607, .T. ) ;
#881 = LINE ( 'NONE', #1038, #962 ) ;
#882 = DIRECTION ( 'NONE',  ( 0.000000000000000000, 0.000000000000000000, 1.000000000000000000 ) ) ;
#883 = DATE_AND_TIME ( #1134, #1020 ) ;
#884 = ORIENTED_EDGE ( 'NONE', *, *, #348, .T. ) ;
#885 = AXIS2_PLACEMENT_3D ( 'NONE', #352, #981, #448 ) ;
#886 = CIRCLE ( 'NONE', #116, 2.749999999999997335 ) ;
#887 = CARTESIAN_POINT ( 'NONE',  ( 68.59999999999999432, 30.00000000000000000, -2.999999999999999112 ) ) ;
#888 = FACE_OUTER_BOUND ( 'NONE', #816, .T. ) ;
#889 = ORIENTED_EDGE ( 'NONE', *, *, #748, .T. ) ;
#890 = EDGE_CURVE ( 'NONE', #379, #179, #567, .T. ) ;
#891 = FACE_OUTER_BOUND ( 'NONE', #964, .T. ) ;
#892 = CARTESIAN_POINT ( 'NONE',  ( 12.59999999999999964, 9.000000000000000000, 0.000000000000000000 ) ) ;
#893 = CARTESIAN_POINT ( 'NONE',  ( 0.000000000000000000, 0.000000000000000000, -9.000000000000000000 ) ) ;
#894 = ORIENTED_EDGE ( 'NONE', *, *, #430, .T. ) ;
#895 = CARTESIAN_POINT ( 'NONE',  ( 68.59999999999999432, 9.000000000000000000, -2.999999999999999112 ) ) ;
#896 = DIRECTION ( 'NONE',  ( 1.000000000000000000, 0.000000000000000000, 0.000000000000000000 ) ) ;
#897 = ORIENTED_EDGE ( 'NONE', *, *, #147, .F. ) ;
#898 = AXIS2_PLACEMENT_3D ( 'NONE', #571, #381, #363 ) ;
#899 = ORIENTED_EDGE ( 'NONE', *, *, #1158, .T. ) ;
#900 = AXIS2_PLACEMENT_3D ( 'NONE', #105, #271, #633 ) ;
#901 = AXIS2_PLACEMENT_3D ( 'NONE', #135, #668, #489 ) ;
#902 = CYLINDRICAL_SURFACE ( 'NONE', #261, 2.750000000000002665 ) ;
#903 = CARTESIAN_POINT ( 'NONE',  ( 87.74999999999995737, 40.00000000000000000, -9.000000000000000000 ) ) ;
#904 = EDGE_CURVE ( 'NONE', #936, #209, #172, .T. ) ;
#905 = ADVANCED_FACE ( 'NONE', ( #997 ), #531, .F. ) ;
#906 = LOCAL_TIME ( 12, 14, 22.00000000000000000, #410 ) ;
#907 = VERTEX_POINT ( 'NONE', #1062 ) ;
#908 = CARTESIAN_POINT ( 'NONE',  ( 71.34999999999999432, 30.00000000000000000, -9.000000000000000000 ) ) ;
#909 = ORIENTED_EDGE ( 'NONE', *, *, #1027, .T. ) ;
#910 = PLANE ( 'NONE',  #1130 ) ;
#911 = CYLINDRICAL_SURFACE ( 'NONE', #851, 4.500000000000003553 ) ;
#912 = ORIENTED_EDGE ( 'NONE', *, *, #386, .F. ) ;
#913 = ORIENTED_EDGE ( 'NONE', *, *, #438, .T. ) ;
#914 = VERTEX_POINT ( 'NONE', #351 ) ;
#915 = CARTESIAN_POINT ( 'NONE',  ( 12.59999999999999964, 9.000000000000000000, -9.000000000000000000 ) ) ;
#916 = DIRECTION ( 'NONE',  ( 0.000000000000000000, 0.000000000000000000, 1.000000000000000000 ) ) ;
#917 = CARTESIAN_POINT ( 'NONE',  ( 73.09999999999999432, 9.000000000000000000, -2.999999999999999112 ) ) ;
#918 = DIRECTION ( 'NONE',  ( -1.000000000000000000, 0.000000000000000000, 0.000000000000000000 ) ) ;
#919 = EDGE_CURVE ( 'NONE', #827, #1077, #282, .T. ) ;
#920 = ORIENTED_EDGE ( 'NONE', *, *, #967, .F. ) ;
#921 = AXIS2_PLACEMENT_3D ( 'NONE', #1059, #254, #164 ) ;
#922 = DIRECTION ( 'NONE',  ( 1.000000000000000000, 0.000000000000000000, 0.000000000000000000 ) ) ;
#923 = CARTESIAN_POINT ( 'NONE',  ( 15.34999999999999787, 9.000000000000000000, -9.000000000000000000 ) ) ;
#924 = AXIS2_PLACEMENT_3D ( 'NONE', #466, #49, #376 ) ;
#925 = ADVANCED_FACE ( 'NONE', ( #1151, #796, #713, #636, #189, #549, #257 ), #910, .F. ) ;
#926 = CIRCLE ( 'NONE', #511, 2.749999999999997335 ) ;
#927 = DIRECTION ( 'NONE',  ( 1.000000000000000000, 0.000000000000000000, 0.000000000000000000 ) ) ;
#928 = AXIS2_PLACEMENT_3D ( 'NONE', #315, #1009, #389 ) ;
#929 = CARTESIAN_POINT ( 'NONE',  ( 68.59999999999999432, 9.000000000000000000, -9.000000000000000000 ) ) ;
#930 = ORIENTED_EDGE ( 'NONE', *, *, #1079, .F. ) ;
#931 = CARTESIAN_POINT ( 'NONE',  ( 15.34999999999999787, 30.00000000000000000, -9.000000000000000000 ) ) ;
#932 = CYLINDRICAL_SURFACE ( 'NONE', #900, 4.500000000000003553 ) ;
#933 = ADVANCED_FACE ( 'NONE', ( #619 ), #1107, .F. ) ;
#934 = LINE ( 'NONE', #122, #303 ) ;
#935 = CARTESIAN_POINT ( 'NONE',  ( 12.59999999999999964, 30.00000000000000000, -2.999999999999999112 ) ) ;
#936 = VERTEX_POINT ( 'NONE', #657 ) ;
#937 = CARTESIAN_POINT ( 'NONE',  ( 145.0000000000000000, 0.000000000000000000, 0.000000000000000000 ) ) ;
#938 = FACE_OUTER_BOUND ( 'NONE', #472, .T. ) ;
#939 = DIRECTION ( 'NONE',  ( 0.000000000000000000, 0.000000000000000000, 1.000000000000000000 ) ) ;
#940 = DIRECTION ( 'NONE',  ( -0.000000000000000000, -0.000000000000000000, 1.000000000000000000 ) ) ;
#941 = ORIENTED_EDGE ( 'NONE', *, *, #109, .F. ) ;
#942 = CARTESIAN_POINT ( 'NONE',  ( 12.59999999999999964, 9.000000000000000000, 0.000000000000000000 ) ) ;
#943 = PERSON ( 'UNSPECIFIED', 'UNSPECIFIED', 'UNSPECIFIED', ('UNSPECIFIED'), ('UNSPECIFIED'), ('UNSPECIFIED') ) ;
#944 = CC_DESIGN_PERSON_AND_ORGANIZATION_ASSIGNMENT ( #785, #56, ( #437 ) ) ;
#945 = AXIS2_PLACEMENT_3D ( 'NONE', #197, #738, #465 ) ;
#946 = CARTESIAN_POINT ( 'NONE',  ( 68.59999999999999432, 9.000000000000000000, -2.999999999999999112 ) ) ;
#947 = DIRECTION ( 'NONE',  ( 0.000000000000000000, 0.000000000000000000, 1.000000000000000000 ) ) ;
#948 = AXIS2_PLACEMENT_3D ( 'NONE', #644, #570, #366 ) ;
#949 = EDGE_CURVE ( 'NONE', #1077, #827, #979, .T. ) ;
#950 = MANIFOLD_SOLID_BREP ( 'Cut-Extrude2', #115 ) ;
#951 = VERTEX_POINT ( 'NONE', #110 ) ;
#952 = CARTESIAN_POINT ( 'NONE',  ( 0.000000000000000000, 48.00000000000000000, -9.000000000000000000 ) ) ;
#953 = APPROVAL_DATE_TIME ( #519, #622 ) ;
#954 = VERTEX_POINT ( 'NONE', #1023 ) ;
#955 = CARTESIAN_POINT ( 'NONE',  ( 114.9999999999999858, 40.00000000000000711, -6.000000000000000000 ) ) ;
#956 = DATE_AND_TIME ( #428, #210 ) ;
#957 = EDGE_LOOP ( 'NONE', ( #1005, #234, #458, #304 ) ) ;
#958 = EDGE_CURVE ( 'NONE', #954, #126, #63, .T. ) ;
#959 = FACE_OUTER_BOUND ( 'NONE', #392, .T. ) ;
#960 = PLANE ( 'NONE',  #207 ) ;
#961 = AXIS2_PLACEMENT_3D ( 'NONE', #716, #1073, #394 ) ;
#962 = VECTOR ( 'NONE', #860, 1000.000000000000000 ) ;
#963 = CIRCLE ( 'NONE', #588, 4.500000000000000888 ) ;
#964 = EDGE_LOOP ( 'NONE', ( #1082, #103, #989, #425 ) ) ;
#965 = DIRECTION ( 'NONE',  ( 1.000000000000000000, 0.000000000000000000, 0.000000000000000000 ) ) ;
#966 = DIRECTION ( 'NONE',  ( 1.000000000000000000, 0.000000000000000000, 0.000000000000000000 ) ) ;
#967 = EDGE_CURVE ( 'NONE', #983, #247, #129, .T. ) ;
#968 = PERSON_AND_ORGANIZATION_ROLE ( 'design_supplier' ) ;
#969 = ORIENTED_EDGE ( 'NONE', *, *, #596, .T. ) ;
#970 = DIRECTION ( 'NONE',  ( -1.000000000000000000, 0.000000000000000000, 0.000000000000000000 ) ) ;
#971 = DIRECTION ( 'NONE',  ( 1.000000000000000000, 0.000000000000000000, 0.000000000000000000 ) ) ;
#972 = ORIENTED_EDGE ( 'NONE', *, *, #53, .F. ) ;
#973 = DIRECTION ( 'NONE',  ( 1.000000000000000000, 0.000000000000000000, 0.000000000000000000 ) ) ;
#974 = DIRECTION ( 'NONE',  ( -0.000000000000000000, -0.000000000000000000, 1.000000000000000000 ) ) ;
#975 = EDGE_LOOP ( 'NONE', ( #405, #595 ) ) ;
#976 = CIRCLE ( 'NONE', #368, 2.750000000000002665 ) ;
#977 = EDGE_CURVE ( 'NONE', #1145, #461, #224, .T. ) ;
#978 = AXIS2_PLACEMENT_3D ( 'NONE', #1108, #391, #1101 ) ;
#979 = CIRCLE ( 'NONE', #948, 4.500000000000003553 ) ;
#980 = DIRECTION ( 'NONE',  ( 0.000000000000000000, 0.000000000000000000, 1.000000000000000000 ) ) ;
#981 = DIRECTION ( 'NONE',  ( 0.000000000000000000, 0.000000000000000000, -1.000000000000000000 ) ) ;
#982 = DIRECTION ( 'NONE',  ( 1.000000000000000000, 0.000000000000000000, 0.000000000000000000 ) ) ;
#983 = VERTEX_POINT ( 'NONE', #554 ) ;
#984 = CARTESIAN_POINT ( 'NONE',  ( 12.59999999999999964, 9.000000000000000000, -9.000000000000000000 ) ) ;
#985 = DIRECTION ( 'NONE',  ( 0.000000000000000000, 0.000000000000000000, 1.000000000000000000 ) ) ;
#986 = ORIENTED_EDGE ( 'NONE', *, *, #1006, .F. ) ;
#987 = CC_DESIGN_PERSON_AND_ORGANIZATION_ASSIGNMENT ( #793, #606, ( #760 ) ) ;
#988 = ADVANCED_FACE ( 'NONE', ( #744 ), #297, .T. ) ;
#989 = ORIENTED_EDGE ( 'NONE', *, *, #274, .T. ) ;
#990 = CARTESIAN_POINT ( 'NONE',  ( 68.59999999999999432, 9.000000000000000000, -9.000000000000000000 ) ) ;
#991 = PLANE ( 'NONE',  #1051 ) ;
#992 = CARTESIAN_POINT ( 'NONE',  ( 84.99999999999995737, 40.00000000000000000, -6.000000000000000000 ) ) ;
#993 = CIRCLE ( 'NONE', #1032, 2.750000000000002665 ) ;
#994 = ORIENTED_EDGE ( 'NONE', *, *, #240, .T. ) ;
#995 = CIRCLE ( 'NONE', #353, 4.500000000000003553 ) ;
#996 = AXIS2_PLACEMENT_3D ( 'NONE', #9, #1058, #177 ) ;
#997 = FACE_OUTER_BOUND ( 'NONE', #1074, .T. ) ;
#998 = DIRECTION ( 'NONE',  ( 0.000000000000000000, 0.000000000000000000, 1.000000000000000000 ) ) ;
#999 = ORIENTED_EDGE ( 'NONE', *, *, #1126, .T. ) ;
#1000 = ORIENTED_EDGE ( 'NONE', *, *, #1147, .T. ) ;
#1001 = CARTESIAN_POINT ( 'NONE',  ( 12.59999999999999964, 9.000000000000000000, -9.000000000000000000 ) ) ;
#1002 = DIRECTION ( 'NONE',  ( 1.000000000000000000, 0.000000000000000000, 0.000000000000000000 ) ) ;
#1003 = CARTESIAN_POINT ( 'NONE',  ( 12.59999999999999964, 9.000000000000000000, -2.999999999999999112 ) ) ;
#1004 = EDGE_CURVE ( 'NONE', #673, #642, #963, .T. ) ;
#1005 = ORIENTED_EDGE ( 'NONE', *, *, #949, .F. ) ;
#1006 = EDGE_CURVE ( 'NONE', #769, #936, #33, .T. ) ;
#1007 = CYLINDRICAL_SURFACE ( 'NONE', #772, 4.500000000000000888 ) ;
#1008 = EDGE_LOOP ( 'NONE', ( #876, #388, #287, #1089 ) ) ;
#1009 = DIRECTION ( 'NONE',  ( -1.000000000000000000, 0.000000000000000000, 0.000000000000000000 ) ) ;
#1010 = FACE_OUTER_BOUND ( 'NONE', #794, .T. ) ;
#1011 = CARTESIAN_POINT ( 'NONE',  ( 12.59999999999999964, 30.00000000000000000, -9.000000000000000000 ) ) ;
#1012 =( LENGTH_UNIT ( ) NAMED_UNIT ( * ) SI_UNIT ( .MILLI., .METRE. ) );
#1013 = DIRECTION ( 'NONE',  ( 0.000000000000000000, 0.000000000000000000, -1.000000000000000000 ) ) ;
#1014 = ORIENTED_EDGE ( 'NONE', *, *, #1039, .F. ) ;
#1015 = EDGE_CURVE ( 'NONE', #1139, #862, #80, .T. ) ;
#1016 = DIRECTION ( 'NONE',  ( 0.000000000000000000, 0.000000000000000000, 1.000000000000000000 ) ) ;
#1017 = DIRECTION ( 'NONE',  ( 0.000000000000000000, 0.000000000000000000, 1.000000000000000000 ) ) ;
#1018 = LINE ( 'NONE', #556, #775 ) ;
#1019 = EDGE_LOOP ( 'NONE', ( #236, #372, #1118, #941 ) ) ;
#1020 = LOCAL_TIME ( 12, 14, 22.00000000000000000, #420 ) ;
#1021 = CARTESIAN_POINT ( 'NONE',  ( 68.59999999999999432, 9.000000000000000000, -2.999999999999999112 ) ) ;
#1022 = EDGE_LOOP ( 'NONE', ( #909, #880 ) ) ;
#1023 = CARTESIAN_POINT ( 'NONE',  ( 9.850000000000003197, 9.000000000000000000, 0.000000000000000000 ) ) ;
#1024 = CARTESIAN_POINT ( 'NONE',  ( 0.000000000000000000, 0.000000000000000000, -9.000000000000000000 ) ) ;
#1025 = CARTESIAN_POINT ( 'NONE',  ( 64.09999999999999432, 30.00000000000000000, -9.000000000000000000 ) ) ;
#1026 = EDGE_LOOP ( 'NONE', ( #822, #494 ) ) ;
#1027 = EDGE_CURVE ( 'NONE', #907, #780, #245, .T. ) ;
#1028 = EDGE_CURVE ( 'NONE', #1105, #134, #308, .T. ) ;
#1029 = FACE_OUTER_BOUND ( 'NONE', #12, .T. ) ;
#1030 = DIRECTION ( 'NONE',  ( 1.000000000000000000, 0.000000000000000000, 0.000000000000000000 ) ) ;
#1031 = EDGE_LOOP ( 'NONE', ( #912, #786, #397, #162 ) ) ;
#1032 = AXIS2_PLACEMENT_3D ( 'NONE', #440, #178, #788 ) ;
#1033 = DIRECTION ( 'NONE',  ( 0.000000000000000000, 0.000000000000000000, 1.000000000000000000 ) ) ;
#1034 = AXIS2_PLACEMENT_3D ( 'NONE', #1100, #651, #482 ) ;
#1035 = DIRECTION ( 'NONE',  ( 0.000000000000000000, 0.000000000000000000, -1.000000000000000000 ) ) ;
#1036 = AXIS2_PLACEMENT_3D ( 'NONE', #1121, #654, #317 ) ;
#1037 = VERTEX_POINT ( 'NONE', #937 ) ;
#1038 = CARTESIAN_POINT ( 'NONE',  ( 0.000000000000000000, 0.000000000000000000, 0.000000000000000000 ) ) ;
#1039 = EDGE_CURVE ( 'NONE', #179, #40, #1119, .T. ) ;
#1040 = EDGE_CURVE ( 'NONE', #272, #8, #868, .T. ) ;
#1041 = ORIENTED_EDGE ( 'NONE', *, *, #403, .T. ) ;
#1042 = EDGE_CURVE ( 'NONE', #500, #76, #546, .T. ) ;
#1043 = DIRECTION ( 'NONE',  ( 1.000000000000000000, 0.000000000000000000, 0.000000000000000000 ) ) ;
#1044 = CARTESIAN_POINT ( 'NONE',  ( 84.99999999999995737, 40.00000000000000000, -6.000000000000000000 ) ) ;
#1045 = ORIENTED_EDGE ( 'NONE', *, *, #958, .T. ) ;
#1046 = EDGE_CURVE ( 'NONE', #630, #951, #641, .T. ) ;
#1047 = DIRECTION ( 'NONE',  ( -0.000000000000000000, -0.000000000000000000, -1.000000000000000000 ) ) ;
#1048 = DIRECTION ( 'NONE',  ( -0.000000000000000000, -0.000000000000000000, -1.000000000000000000 ) ) ;
#1049 = VECTOR ( 'NONE', #750, 1000.000000000000000 ) ;
#1050 = PERSON_AND_ORGANIZATION ( #943, #156 ) ;
#1051 = AXIS2_PLACEMENT_3D ( 'NONE', #456, #1088, #277 ) ;
#1052 = VERTEX_POINT ( 'NONE', #20 ) ;
#1053 = CARTESIAN_POINT ( 'NONE',  ( 9.850000000000003197, 30.00000000000000000, -2.999999999999999112 ) ) ;
#1054 = CARTESIAN_POINT ( 'NONE',  ( 117.7500000000000000, 40.00000000000000711, -9.000000000000000000 ) ) ;
#1055 = SHAPE_DEFINITION_REPRESENTATION ( #625, #250 ) ;
#1056 = VERTEX_POINT ( 'NONE', #674 ) ;
#1057 = ADVANCED_FACE ( 'NONE', ( #1029 ), #583, .F. ) ;
#1058 = DIRECTION ( 'NONE',  ( 0.000000000000000000, 0.000000000000000000, 1.000000000000000000 ) ) ;
#1059 = CARTESIAN_POINT ( 'NONE',  ( 114.9999999999999858, 40.00000000000000711, -6.000000000000000000 ) ) ;
#1060 = EDGE_CURVE ( 'NONE', #516, #350, #262, .T. ) ;
#1061 = ORIENTED_EDGE ( 'NONE', *, *, #192, .T. ) ;
#1062 = CARTESIAN_POINT ( 'NONE',  ( 64.09999999999999432, 30.00000000000000000, -2.999999999999999112 ) ) ;
#1063 = FACE_BOUND ( 'NONE', #640, .T. ) ;
#1064 = AXIS2_PLACEMENT_3D ( 'NONE', #562, #729, #375 ) ;
#1065 = ORIENTED_EDGE ( 'NONE', *, *, #22, .T. ) ;
#1066 = VECTOR ( 'NONE', #213, 1000.000000000000000 ) ;
#1067 = VECTOR ( 'NONE', #728, 1000.000000000000000 ) ;
#1068 = ORIENTED_EDGE ( 'NONE', *, *, #1146, .T. ) ;
#1069 = APPROVAL_PERSON_ORGANIZATION ( #132, #127, #38 ) ;
#1070 = CYLINDRICAL_SURFACE ( 'NONE', #996, 2.750000000000002665 ) ;
#1071 = PLANE ( 'NONE',  #921 ) ;
#1072 = EDGE_CURVE ( 'NONE', #446, #721, #926, .T. ) ;
#1073 = DIRECTION ( 'NONE',  ( 0.000000000000000000, 0.000000000000000000, 1.000000000000000000 ) ) ;
#1074 = EDGE_LOOP ( 'NONE', ( #972, #740, #217, #538 ) ) ;
#1075 = PLANE ( 'NONE',  #602 ) ;
#1076 = DIRECTION ( 'NONE',  ( -0.000000000000000000, -0.000000000000000000, -1.000000000000000000 ) ) ;
#1077 = VERTEX_POINT ( 'NONE', #406 ) ;
#1078 = ORIENTED_EDGE ( 'NONE', *, *, #515, .F. ) ;
#1079 = EDGE_CURVE ( 'NONE', #247, #165, #340, .T. ) ;
#1080 = DIRECTION ( 'NONE',  ( 1.000000000000000000, 0.000000000000000000, 0.000000000000000000 ) ) ;
#1081 = FACE_OUTER_BOUND ( 'NONE', #690, .T. ) ;
#1082 = ORIENTED_EDGE ( 'NONE', *, *, #52, .F. ) ;
#1083 = ORIENTED_EDGE ( 'NONE', *, *, #696, .T. ) ;
#1084 = ORIENTED_EDGE ( 'NONE', *, *, #524, .T. ) ;
#1085 = CIRCLE ( 'NONE', #1109, 4.500000000000003553 ) ;
#1086 = VECTOR ( 'NONE', #14, 1000.000000000000000 ) ;
#1087 = DIRECTION ( 'NONE',  ( 1.000000000000000000, 0.000000000000000000, 0.000000000000000000 ) ) ;
#1088 = DIRECTION ( 'NONE',  ( 1.000000000000000000, 0.000000000000000000, 0.000000000000000000 ) ) ;
#1089 = ORIENTED_EDGE ( 'NONE', *, *, #1006, .T. ) ;
#1090 = ORIENTED_EDGE ( 'NONE', *, *, #192, .F. ) ;
#1091 = ORIENTED_EDGE ( 'NONE', *, *, #590, .F. ) ;
#1092 = CARTESIAN_POINT ( 'NONE',  ( 84.99999999999995737, 40.00000000000000000, 0.000000000000000000 ) ) ;
#1093 = CYLINDRICAL_SURFACE ( 'NONE', #395, 2.749999999999997335 ) ;
#1094 = FACE_OUTER_BOUND ( 'NONE', #667, .T. ) ;
#1095 = DIRECTION ( 'NONE',  ( -1.000000000000000000, 0.000000000000000000, 0.000000000000000000 ) ) ;
#1096 = EDGE_CURVE ( 'NONE', #552, #1139, #46, .T. ) ;
#1097 = DIRECTION ( 'NONE',  ( -0.000000000000000000, -0.000000000000000000, -1.000000000000000000 ) ) ;
#1098 = ORIENTED_EDGE ( 'NONE', *, *, #534, .T. ) ;
#1099 = DIRECTION ( 'NONE',  ( -0.000000000000000000, -0.000000000000000000, -1.000000000000000000 ) ) ;
#1100 = CARTESIAN_POINT ( 'NONE',  ( 84.99999999999995737, 40.00000000000000000, -9.000000000000000000 ) ) ;
#1101 = DIRECTION ( 'NONE',  ( -1.000000000000000000, 0.000000000000000000, 0.000000000000000000 ) ) ;
#1102 = PRODUCT ( 'Y-Axis Limit switch mount', 'Y-Axis Limit switch mount', '', ( #852 ) ) ;
#1103 = DIRECTION ( 'NONE',  ( 0.000000000000000000, 0.000000000000000000, -1.000000000000000000 ) ) ;
#1104 = DIRECTION ( 'NONE',  ( -1.000000000000000000, 0.000000000000000000, 0.000000000000000000 ) ) ;
#1105 = VERTEX_POINT ( 'NONE', #113 ) ;
#1106 = AXIS2_PLACEMENT_3D ( 'NONE', #1021, #830, #581 ) ;
#1107 = CYLINDRICAL_SURFACE ( 'NONE', #1110, 2.749999999999997335 ) ;
#1108 = CARTESIAN_POINT ( 'NONE',  ( 68.59999999999999432, 9.000000000000000000, -9.000000000000000000 ) ) ;
#1109 = AXIS2_PLACEMENT_3D ( 'NONE', #5, #819, #212 ) ;
#1110 = AXIS2_PLACEMENT_3D ( 'NONE', #1001, #752, #196 ) ;
#1111 = DIRECTION ( 'NONE',  ( -0.000000000000000000, -0.000000000000000000, -1.000000000000000000 ) ) ;
#1112 = ORIENTED_EDGE ( 'NONE', *, *, #708, .T. ) ;
#1113 =( GEOMETRIC_REPRESENTATION_CONTEXT ( 3 ) GLOBAL_UNCERTAINTY_ASSIGNED_CONTEXT ( ( #498 ) ) GLOBAL_UNIT_ASSIGNED_CONTEXT ( ( #1012, #499, #377 ) ) REPRESENTATION_CONTEXT ( 'NONE', 'WORKASPACE' ) );
#1114 = CARTESIAN_POINT ( 'NONE',  ( 65.84999999999999432, 30.00000000000000000, -2.999999999999999112 ) ) ;
#1115 = CARTESIAN_POINT ( 'NONE',  ( 68.59999999999999432, 9.000000000000000000, 0.000000000000000000 ) ) ;
#1116 = EDGE_CURVE ( 'NONE', #364, #1145, #414, .T. ) ;
#1117 = EDGE_CURVE ( 'NONE', #743, #817, #312, .T. ) ;
#1118 = ORIENTED_EDGE ( 'NONE', *, *, #219, .T. ) ;
#1119 = LINE ( 'NONE', #400, #371 ) ;
#1120 = LINE ( 'NONE', #131, #79 ) ;
#1121 = CARTESIAN_POINT ( 'NONE',  ( 114.9999999999999858, 40.00000000000000711, -6.000000000000000000 ) ) ;
#1122 = ORIENTED_EDGE ( 'NONE', *, *, #1028, .F. ) ;
#1123 = CARTESIAN_POINT ( 'NONE',  ( 9.850000000000003197, 9.000000000000000000, -2.999999999999999112 ) ) ;
#1124 = CARTESIAN_POINT ( 'NONE',  ( 65.84999999999999432, 9.000000000000000000, -9.000000000000000000 ) ) ;
#1125 = ORIENTED_EDGE ( 'NONE', *, *, #977, .T. ) ;
#1126 = EDGE_CURVE ( 'NONE', #330, #552, #853, .T. ) ;
#1127 = CIRCLE ( 'NONE', #885, 4.500000000000003553 ) ;
#1128 = DIRECTION ( 'NONE',  ( 0.000000000000000000, 0.000000000000000000, 1.000000000000000000 ) ) ;
#1129 = AXIS2_PLACEMENT_3D ( 'NONE', #1011, #203, #927 ) ;
#1130 = AXIS2_PLACEMENT_3D ( 'NONE', #613, #82, #346 ) ;
#1131 = ORIENTED_EDGE ( 'NONE', *, *, #255, .F. ) ;
#1132 = CARTESIAN_POINT ( 'NONE',  ( 17.10000000000000142, 9.000000000000000000, -2.999999999999999112 ) ) ;
#1133 = LINE ( 'NONE', #648, #616 ) ;
#1134 = CALENDAR_DATE ( 2026, 26, 5 ) ;
#1135 = EDGE_CURVE ( 'NONE', #1052, #17, #402, .T. ) ;
#1136 = ORIENTED_EDGE ( 'NONE', *, *, #475, .F. ) ;
#1137 = DIRECTION ( 'NONE',  ( 0.000000000000000000, 0.000000000000000000, 1.000000000000000000 ) ) ;
#1138 = CARTESIAN_POINT ( 'NONE',  ( 68.59999999999999432, 9.000000000000000000, -2.999999999999999112 ) ) ;
#1139 = VERTEX_POINT ( 'NONE', #24 ) ;
#1140 = FACE_OUTER_BOUND ( 'NONE', #503, .T. ) ;
#1141 = DIRECTION ( 'NONE',  ( 0.000000000000000000, 0.000000000000000000, 1.000000000000000000 ) ) ;
#1142 = CIRCLE ( 'NONE', #151, 2.749999999999997335 ) ;
#1143 = AXIS2_PLACEMENT_3D ( 'NONE', #327, #145, #691 ) ;
#1144 = AXIS2_PLACEMENT_3D ( 'NONE', #767, #140, #855 ) ;
#1145 = VERTEX_POINT ( 'NONE', #1114 ) ;
#1146 = EDGE_CURVE ( 'NONE', #2, #321, #155, .T. ) ;
#1147 = EDGE_CURVE ( 'NONE', #134, #1056, #170, .T. ) ;
#1148 = DIRECTION ( 'NONE',  ( -1.000000000000000000, 0.000000000000000000, 0.000000000000000000 ) ) ;
#1149 = CARTESIAN_POINT ( 'NONE',  ( 9.850000000000003197, 30.00000000000000000, 0.000000000000000000 ) ) ;
#1150 = ORIENTED_EDGE ( 'NONE', *, *, #666, .T. ) ;
#1151 = FACE_BOUND ( 'NONE', #612, .T. ) ;
#1152 = DIRECTION ( 'NONE',  ( -1.000000000000000000, 0.000000000000000000, -0.000000000000000000 ) ) ;
#1153 = VERTEX_POINT ( 'NONE', #671 ) ;
#1154 = ORIENTED_EDGE ( 'NONE', *, *, #320, .F. ) ;
#1155 = CARTESIAN_POINT ( 'NONE',  ( 0.000000000000000000, 0.000000000000000000, 0.000000000000000000 ) ) ;
#1156 = FACE_BOUND ( 'NONE', #711, .T. ) ;
#1157 = EDGE_CURVE ( 'NONE', #642, #673, #807, .T. ) ;
#1158 = EDGE_CURVE ( 'NONE', #157, #539, #478, .T. ) ;
#1159 = VECTOR ( 'NONE', #896, 1000.000000000000000 ) ;
#1160 = ORIENTED_EDGE ( 'NONE', *, *, #1157, .T. ) ;
#1161 = VECTOR ( 'NONE', #1137, 1000.000000000000000 ) ;
ENDSEC;
END-ISO-10303-21;
