ISO-10303-21;
HEADER;
FILE_DESCRIPTION (( 'STEP AP203' ),
    '1' );
FILE_NAME ('Y-axis Way Cover Column Side.STEP',
    '2026-05-26T16:14:41',
    ( '' ),
    ( '' ),
    'SwSTEP 2.0',
    'SolidWorks 2025',
    '' );
FILE_SCHEMA (( 'CONFIG_CONTROL_DESIGN' ));
ENDSEC;

DATA;
#1 = ADVANCED_FACE ( 'NONE', ( #50 ), #176, .T. ) ;
#2 = ORIENTED_EDGE ( 'NONE', *, *, #180, .F. ) ;
#3 = DIRECTION ( 'NONE',  ( 0.000000000000000000, 0.000000000000000000, 1.000000000000000000 ) ) ;
#4 = EDGE_CURVE ( 'NONE', #312, #819, #500, .T. ) ;
#5 = CARTESIAN_POINT ( 'NONE',  ( -4.797499999999999432, -0.06122047244094488277, 0.1657873537795266083 ) ) ;
#6 = ORIENTED_EDGE ( 'NONE', *, *, #538, .F. ) ;
#7 = CARTESIAN_POINT ( 'NONE',  ( -2.297499999999999876, -0.06122047244094488277, 0.4905905033858259934 ) ) ;
#8 = CIRCLE ( 'NONE', #777, 0.1181102362204724809 ) ;
#9 = CARTESIAN_POINT ( 'NONE',  ( -4.374271653543306826, 0.1249999999999999861, 0.6838975900000000552 ) ) ;
#10 = EDGE_LOOP ( 'NONE', ( #162, #283, #723, #761 ) ) ;
#11 = VECTOR ( 'NONE', #144, 39.37007874015748143 ) ;
#12 = APPROVAL_STATUS ( 'not_yet_approved' ) ;
#13 = CARTESIAN_POINT ( 'NONE',  ( -2.297499999999999876, 0.3249999999999999556, 0.2838975899999993668 ) ) ;
#14 = EDGE_CURVE ( 'NONE', #444, #547, #633, .T. ) ;
#15 = FACE_BOUND ( 'NONE', #535, .T. ) ;
#16 = VERTEX_POINT ( 'NONE', #635 ) ;
#17 = CALENDAR_DATE ( 2026, 26, 5 ) ;
#18 = CARTESIAN_POINT ( 'NONE',  ( -5.022499999999999964, -0.1250000000000000000, 0.6838975900000000552 ) ) ;
#19 = ORIENTED_EDGE ( 'NONE', *, *, #240, .T. ) ;
#20 = DATE_TIME_ROLE ( 'classification_date' ) ;
#21 = LINE ( 'NONE', #287, #202 ) ;
#22 = SECURITY_CLASSIFICATION ( '', '', #727 ) ;
#23 = CIRCLE ( 'NONE', #108, 0.1377952755905512972 ) ;
#24 = ORIENTED_EDGE ( 'NONE', *, *, #354, .F. ) ;
#25 = FACE_BOUND ( 'NONE', #265, .T. ) ;
#26 = PRODUCT_DEFINITION ( 'UNKNOWN', '', #64, #415 ) ;
#27 = ORIENTED_EDGE ( 'NONE', *, *, #59, .F. ) ;
#28 = CYLINDRICAL_SURFACE ( 'NONE', #447, 0.2066929133858266265 ) ;
#29 = EDGE_CURVE ( 'NONE', #729, #393, #821, .T. ) ;
#30 = ORIENTED_EDGE ( 'NONE', *, *, #550, .F. ) ;
#31 = DIRECTION ( 'NONE',  ( 0.000000000000000000, -0.000000000000000000, -1.000000000000000000 ) ) ;
#32 = CYLINDRICAL_SURFACE ( 'NONE', #666, 0.1377952755905512972 ) ;
#33 = APPROVAL_PERSON_ORGANIZATION ( #823, #154, #763 ) ;
#34 = ORIENTED_EDGE ( 'NONE', *, *, #831, .T. ) ;
#35 = AXIS2_PLACEMENT_3D ( 'NONE', #731, #669, #163 ) ;
#36 = DIRECTION ( 'NONE',  ( -0.000000000000000000, -0.000000000000000000, -1.000000000000000000 ) ) ;
#37 = CARTESIAN_POINT ( 'NONE',  ( -2.297499999999999876, -0.06122047244094488277, 0.2838975899999993668 ) ) ;
#38 = CIRCLE ( 'NONE', #367, 0.2066929133858266265 ) ;
#39 = ADVANCED_FACE ( 'NONE', ( #246 ), #436, .F. ) ;
#40 = VECTOR ( 'NONE', #376, 39.37007874015748143 ) ;
#41 = DIRECTION ( 'NONE',  ( 0.000000000000000000, 0.000000000000000000, -1.000000000000000000 ) ) ;
#42 = AXIS2_PLACEMENT_3D ( 'NONE', #254, #69, #702 ) ;
#43 = ADVANCED_FACE ( 'NONE', ( #684 ), #443, .T. ) ;
#44 = ORIENTED_EDGE ( 'NONE', *, *, #155, .F. ) ;
#45 = DIRECTION ( 'NONE',  ( -0.000000000000000000, 1.000000000000000000, -0.000000000000000000 ) ) ;
#46 = FACE_BOUND ( 'NONE', #75, .T. ) ;
#47 = ORIENTED_EDGE ( 'NONE', *, *, #302, .F. ) ;
#48 = CARTESIAN_POINT ( 'NONE',  ( -4.797499999999999432, -0.06122047244094488277, 0.4020078262204720976 ) ) ;
#49 = AXIS2_PLACEMENT_3D ( 'NONE', #319, #715, #138 ) ;
#50 = FACE_OUTER_BOUND ( 'NONE', #166, .T. ) ;
#51 = ADVANCED_FACE ( 'NONE', ( #368, #624, #46 ), #54, .F. ) ;
#52 = VERTEX_POINT ( 'NONE', #694 ) ;
#53 = CARTESIAN_POINT ( 'NONE',  ( -2.522500000000000409, 0.3249999999999999556, 0.2838975899999991448 ) ) ;
#54 = PLANE ( 'NONE',  #452 ) ;
#55 = VERTEX_POINT ( 'NONE', #235 ) ;
#56 = APPLICATION_PROTOCOL_DEFINITION ( 'international standard', 'config_control_design', 1994, #161 ) ;
#57 = CIRCLE ( 'NONE', #99, 0.1377952755905512972 ) ;
#58 = EDGE_CURVE ( 'NONE', #359, #242, #340, .T. ) ;
#59 = EDGE_CURVE ( 'NONE', #797, #617, #815, .T. ) ;
#60 = CARTESIAN_POINT ( 'NONE',  ( -2.297499999999999876, -0.1250000000000000000, 0.2838975899999993668 ) ) ;
#61 = ORIENTED_EDGE ( 'NONE', *, *, #687, .F. ) ;
#62 = VECTOR ( 'NONE', #36, 39.37007874015748143 ) ;
#63 = FACE_OUTER_BOUND ( 'NONE', #399, .T. ) ;
#64 = PRODUCT_DEFINITION_FORMATION_WITH_SPECIFIED_SOURCE ( 'ANY', '', #258, .NOT_KNOWN. ) ;
#65 = ORIENTED_EDGE ( 'NONE', *, *, #193, .F. ) ;
#66 = CARTESIAN_POINT ( 'NONE',  ( -2.522500000000000409, 0.3249999999999999556, 0.2838975899999991448 ) ) ;
#67 = CARTESIAN_POINT ( 'NONE',  ( -4.572499999999999787, -0.1250000000000000000, 0.2838975899999993113 ) ) ;
#68 = ADVANCED_FACE ( 'NONE', ( #231 ), #631, .F. ) ;
#69 = DIRECTION ( 'NONE',  ( -0.000000000000000000, -1.000000000000000000, -0.000000000000000000 ) ) ;
#70 = VERTEX_POINT ( 'NONE', #751 ) ;
#71 =( NAMED_UNIT ( * ) PLANE_ANGLE_UNIT ( ) SI_UNIT ( $, .RADIAN. ) );
#72 = DIRECTION ( 'NONE',  ( -1.000000000000000000, 0.000000000000000000, 0.000000000000000000 ) ) ;
#73 = AXIS2_PLACEMENT_3D ( 'NONE', #87, #464, #146 ) ;
#74 = DIRECTION ( 'NONE',  ( 1.000000000000000000, 0.000000000000000000, -0.000000000000000000 ) ) ;
#75 = EDGE_LOOP ( 'NONE', ( #463, #211 ) ) ;
#76 = DIRECTION ( 'NONE',  ( 0.000000000000000000, 1.000000000000000000, 0.000000000000000000 ) ) ;
#77 = DIRECTION ( 'NONE',  ( -0.000000000000000000, 1.000000000000000000, -0.000000000000000000 ) ) ;
#78 = CARTESIAN_POINT ( 'NONE',  ( -2.522499999999999520, -0.1250000000000000000, 0.2838975899999990893 ) ) ;
#79 = ORIENTED_EDGE ( 'NONE', *, *, #550, .T. ) ;
#80 = DATE_AND_TIME ( #733, #461 ) ;
#81 = PLANE ( 'NONE',  #140 ) ;
#82 = AXIS2_PLACEMENT_3D ( 'NONE', #126, #76, #511 ) ;
#83 = DIRECTION ( 'NONE',  ( 0.000000000000000000, -0.000000000000000000, 1.000000000000000000 ) ) ;
#84 = ORIENTED_EDGE ( 'NONE', *, *, #160, .F. ) ;
#85 = AXIS2_PLACEMENT_3D ( 'NONE', #807, #496, #431 ) ;
#86 = PERSON_AND_ORGANIZATION ( #324, #792 ) ;
#87 = CARTESIAN_POINT ( 'NONE',  ( -4.797499999999999432, -0.06122047244094488277, 0.2838975899999993668 ) ) ;
#88 = CIRCLE ( 'NONE', #808, 0.2066929133858266265 ) ;
#89 = ORIENTED_EDGE ( 'NONE', *, *, #717, .T. ) ;
#90 = DATE_AND_TIME ( #405, #555 ) ;
#91 = CARTESIAN_POINT ( 'NONE',  ( -4.572499999999999787, -0.1250000000000000000, 0.000000000000000000 ) ) ;
#92 = ORIENTED_EDGE ( 'NONE', *, *, #682, .T. ) ;
#93 = CARTESIAN_POINT ( 'NONE',  ( -2.297499999999999876, -0.06122047244094488277, 0.2838975899999993668 ) ) ;
#94 = LOCAL_TIME ( 12, 14, 41.00000000000000000, #335 ) ;
#95 = EDGE_CURVE ( 'NONE', #260, #612, #227, .T. ) ;
#96 = ORIENTED_EDGE ( 'NONE', *, *, #286, .T. ) ;
#97 = FACE_OUTER_BOUND ( 'NONE', #217, .T. ) ;
#98 = VERTEX_POINT ( 'NONE', #169 ) ;
#99 = AXIS2_PLACEMENT_3D ( 'NONE', #262, #776, #651 ) ;
#100 = LINE ( 'NONE', #618, #62 ) ;
#101 = DIRECTION ( 'NONE',  ( 0.000000000000000000, 0.000000000000000000, 1.000000000000000000 ) ) ;
#102 = ORIENTED_EDGE ( 'NONE', *, *, #459, .F. ) ;
#103 = CARTESIAN_POINT ( 'NONE',  ( -4.572499999999999787, -0.1250000000000000000, 0.000000000000000000 ) ) ;
#104 = ADVANCED_FACE ( 'NONE', ( #119 ), #310, .T. ) ;
#105 = CARTESIAN_POINT ( 'NONE',  ( -2.858523622047243862, 0.1249999999999999861, 0.6838975900000000552 ) ) ;
#106 = EDGE_CURVE ( 'NONE', #242, #359, #255, .T. ) ;
#107 = VERTEX_POINT ( 'NONE', #680 ) ;
#108 = AXIS2_PLACEMENT_3D ( 'NONE', #167, #284, #480 ) ;
#109 = EDGE_LOOP ( 'NONE', ( #65, #448, #89, #423 ) ) ;
#110 = LINE ( 'NONE', #426, #373 ) ;
#111 = EDGE_CURVE ( 'NONE', #114, #242, #769, .T. ) ;
#112 = CARTESIAN_POINT ( 'NONE',  ( -5.022499999999999964, 0.3249999999999999556, 0.2838975899999994223 ) ) ;
#113 = CIRCLE ( 'NONE', #271, 0.1377952755905512972 ) ;
#114 = VERTEX_POINT ( 'NONE', #197 ) ;
#115 = CARTESIAN_POINT ( 'NONE',  ( -2.072499999999999343, -0.1250000000000000000, 0.000000000000000000 ) ) ;
#116 = DIRECTION ( 'NONE',  ( 0.000000000000000000, 1.000000000000000000, -0.000000000000000000 ) ) ;
#117 = ORIENTED_EDGE ( 'NONE', *, *, #282, .T. ) ;
#118 = CYLINDRICAL_SURFACE ( 'NONE', #292, 0.1377952755905512972 ) ;
#119 = FACE_OUTER_BOUND ( 'NONE', #326, .T. ) ;
#120 = ORIENTED_EDGE ( 'NONE', *, *, #189, .T. ) ;
#121 =( NAMED_UNIT ( * ) SI_UNIT ( $, .STERADIAN. ) SOLID_ANGLE_UNIT ( ) );
#122 = EDGE_CURVE ( 'NONE', #819, #589, #88, .T. ) ;
#123 = VECTOR ( 'NONE', #131, 39.37007874015748143 ) ;
#124 = CARTESIAN_POINT ( 'NONE',  ( -2.297499999999999876, -0.06122047244094488277, 0.2838975899999993668 ) ) ;
#125 = ORIENTED_EDGE ( 'NONE', *, *, #391, .T. ) ;
#126 = CARTESIAN_POINT ( 'NONE',  ( -4.797499999999999432, -0.1250000000000000000, 0.2838975899999993668 ) ) ;
#127 = DIRECTION ( 'NONE',  ( -1.000000000000000000, 0.000000000000000000, 0.000000000000000000 ) ) ;
#128 = VERTEX_POINT ( 'NONE', #707 ) ;
#129 = LINE ( 'NONE', #775, #420 ) ;
#130 = ADVANCED_FACE ( 'NONE', ( #581, #325 ), #207, .T. ) ;
#131 = DIRECTION ( 'NONE',  ( -0.000000000000000000, 1.000000000000000000, -0.000000000000000000 ) ) ;
#132 = VECTOR ( 'NONE', #455, 39.37007874015748143 ) ;
#133 = EDGE_LOOP ( 'NONE', ( #747, #84, #102, #482 ) ) ;
#134 = CARTESIAN_POINT ( 'NONE',  ( -5.022499999999999964, 0.3249999999999999556, 0.2838975899999994223 ) ) ;
#135 = AXIS2_PLACEMENT_3D ( 'NONE', #289, #548, #497 ) ;
#136 = LINE ( 'NONE', #264, #660 ) ;
#137 = ORIENTED_EDGE ( 'NONE', *, *, #749, .T. ) ;
#138 = DIRECTION ( 'NONE',  ( 1.000000000000000000, 0.000000000000000000, 0.000000000000000000 ) ) ;
#139 = DIRECTION ( 'NONE',  ( -1.000000000000000000, 0.000000000000000000, 1.787168095804523498E-15 ) ) ;
#140 = AXIS2_PLACEMENT_3D ( 'NONE', #205, #139, #257 ) ;
#141 = LINE ( 'NONE', #398, #11 ) ;
#142 = ORIENTED_EDGE ( 'NONE', *, *, #552, .T. ) ;
#143 = CARTESIAN_POINT ( 'NONE',  ( -4.797499999999999432, -0.06122047244094488277, 0.2838975899999993668 ) ) ;
#144 = DIRECTION ( 'NONE',  ( -0.000000000000000000, 1.000000000000000000, -0.000000000000000000 ) ) ;
#145 = EDGE_LOOP ( 'NONE', ( #137, #344, #752, #644 ) ) ;
#146 = DIRECTION ( 'NONE',  ( 0.000000000000000000, 0.000000000000000000, 1.000000000000000000 ) ) ;
#147 = CIRCLE ( 'NONE', #570, 0.1377952755905512972 ) ;
#148 = ORIENTED_EDGE ( 'NONE', *, *, #106, .F. ) ;
#149 = AXIS2_PLACEMENT_3D ( 'NONE', #150, #201, #721 ) ;
#150 = CARTESIAN_POINT ( 'NONE',  ( -2.858523622047243862, 0.1249999999999999861, 0.4609606699139625618 ) ) ;
#151 = AXIS2_PLACEMENT_3D ( 'NONE', #370, #560, #575 ) ;
#152 = EDGE_LOOP ( 'NONE', ( #339, #565, #300, #664 ) ) ;
#153 = FACE_OUTER_BOUND ( 'NONE', #756, .T. ) ;
#154 = APPROVAL ( #514, 'UNSPECIFIED' ) ;
#155 = EDGE_CURVE ( 'NONE', #714, #55, #298, .T. ) ;
#156 = EDGE_CURVE ( 'NONE', #466, #598, #533, .T. ) ;
#157 = VERTEX_POINT ( 'NONE', #456 ) ;
#158 = CARTESIAN_POINT ( 'NONE',  ( -4.572499999999999787, -0.1250000000000000000, 0.4609606699139625618 ) ) ;
#159 = VECTOR ( 'NONE', #672, 39.37007874015748143 ) ;
#160 = EDGE_CURVE ( 'NONE', #513, #70, #718, .T. ) ;
#161 = APPLICATION_CONTEXT ( 'configuration controlled 3d designs of mechanical parts and assemblies' ) ;
#162 = ORIENTED_EDGE ( 'NONE', *, *, #790, .F. ) ;
#163 = DIRECTION ( 'NONE',  ( 0.000000000000000000, 0.000000000000000000, 1.000000000000000000 ) ) ;
#164 = CARTESIAN_POINT ( 'NONE',  ( -4.797499999999999432, -0.1250000000000000000, 0.4020078262204720976 ) ) ;
#165 = ADVANCED_FACE ( 'NONE', ( #63 ), #194, .F. ) ;
#166 = EDGE_LOOP ( 'NONE', ( #816, #802, #285, #318 ) ) ;
#167 = CARTESIAN_POINT ( 'NONE',  ( -4.236476377952755890, 0.1249999999999999861, 0.4609606699139625618 ) ) ;
#168 = CARTESIAN_POINT ( 'NONE',  ( -2.522499999999999520, 0.3249999999999999556, 0.4609606699139625618 ) ) ;
#169 = CARTESIAN_POINT ( 'NONE',  ( -4.374271653543306826, 0.1249999999999999861, 0.4609606699139625618 ) ) ;
#170 = LINE ( 'NONE', #103, #607 ) ;
#171 = PLANE ( 'NONE',  #656 ) ;
#172 = VECTOR ( 'NONE', #442, 39.37007874015748143 ) ;
#173 = CARTESIAN_POINT ( 'NONE',  ( -4.797499999999999432, -0.1250000000000000000, 0.2838975899999993668 ) ) ;
#174 = VERTEX_POINT ( 'NONE', #385 ) ;
#175 = CARTESIAN_POINT ( 'NONE',  ( -4.572499999999999787, -2.179033132406827278, 0.4609606699139625618 ) ) ;
#176 = CYLINDRICAL_SURFACE ( 'NONE', #245, 0.2249999999999997835 ) ;
#177 = CIRCLE ( 'NONE', #648, 0.1181102362204727585 ) ;
#178 = ORIENTED_EDGE ( 'NONE', *, *, #286, .F. ) ;
#179 = CARTESIAN_POINT ( 'NONE',  ( -5.022499999999999964, -0.1250000000000000000, 0.2838975899999994223 ) ) ;
#180 = EDGE_CURVE ( 'NONE', #612, #55, #652, .T. ) ;
#181 = DIRECTION ( 'NONE',  ( -0.000000000000000000, 1.000000000000000000, -0.000000000000000000 ) ) ;
#182 = EDGE_LOOP ( 'NONE', ( #505, #294, #510, #605 ) ) ;
#183 = CARTESIAN_POINT ( 'NONE',  ( -4.797499999999999432, -0.06122047244094488277, 0.08389758999999917533 ) ) ;
#184 = ORIENTED_EDGE ( 'NONE', *, *, #155, .T. ) ;
#185 = ORIENTED_EDGE ( 'NONE', *, *, #230, .F. ) ;
#186 = LENGTH_MEASURE_WITH_UNIT ( LENGTH_MEASURE( 0.02539999999999999897 ), #383 );
#187 = AXIS2_PLACEMENT_3D ( 'NONE', #251, #515, #74 ) ;
#188 = CARTESIAN_POINT ( 'NONE',  ( -4.797499999999999432, -0.06122047244094488277, 0.2838975899999993668 ) ) ;
#189 = EDGE_CURVE ( 'NONE', #312, #454, #38, .T. ) ;
#190 = VECTOR ( 'NONE', #759, 39.37007874015748143 ) ;
#191 = ORIENTED_EDGE ( 'NONE', *, *, #156, .T. ) ;
#192 = LINE ( 'NONE', #706, #212 ) ;
#193 = EDGE_CURVE ( 'NONE', #174, #199, #141, .T. ) ;
#194 = CYLINDRICAL_SURFACE ( 'NONE', #695, 0.2000000000000001776 ) ;
#195 = VERTEX_POINT ( 'NONE', #578 ) ;
#196 = DIRECTION ( 'NONE',  ( 0.000000000000000000, 0.000000000000000000, -1.000000000000000000 ) ) ;
#197 = CARTESIAN_POINT ( 'NONE',  ( -4.797499999999999432, -0.06122047244094488277, 0.4838975899999995445 ) ) ;
#198 = AXIS2_PLACEMENT_3D ( 'NONE', #237, #435, #506 ) ;
#199 = VERTEX_POINT ( 'NONE', #5 ) ;
#200 = CARTESIAN_POINT ( 'NONE',  ( -2.297499999999999876, -0.06122047244094488277, 0.2838975899999993668 ) ) ;
#201 = DIRECTION ( 'NONE',  ( 0.000000000000000000, 0.000000000000000000, -1.000000000000000000 ) ) ;
#202 = VECTOR ( 'NONE', #742, 39.37007874015748143 ) ;
#203 = CARTESIAN_POINT ( 'NONE',  ( -4.236476377952755890, 0.1249999999999999861, 0.4609606699139625618 ) ) ;
#204 = VERTEX_POINT ( 'NONE', #259 ) ;
#205 = CARTESIAN_POINT ( 'NONE',  ( -2.522500000000000409, -0.1250000000000000000, 4.508131521666911088E-15 ) ) ;
#206 = APPROVAL ( #279, 'UNSPECIFIED' ) ;
#207 = PLANE ( 'NONE',  #517 ) ;
#208 = AXIS2_PLACEMENT_3D ( 'NONE', #175, #305, #498 ) ;
#209 = ORIENTED_EDGE ( 'NONE', *, *, #663, .F. ) ;
#210 = CARTESIAN_POINT ( 'NONE',  ( -2.297499999999999876, -0.1250000000000000000, 0.2838975899999993668 ) ) ;
#211 = ORIENTED_EDGE ( 'NONE', *, *, #377, .T. ) ;
#212 = VECTOR ( 'NONE', #771, 39.37007874015748143 ) ;
#213 = DIMENSIONAL_EXPONENTS ( 1.000000000000000000, 0.000000000000000000, 0.000000000000000000, 0.000000000000000000, 0.000000000000000000, 0.000000000000000000, 0.000000000000000000 ) ;
#214 = SHAPE_DEFINITION_REPRESENTATION ( #704, #216 ) ;
#215 = DIRECTION ( 'NONE',  ( 0.000000000000000000, -1.000000000000000000, 0.000000000000000000 ) ) ;
#216 = ADVANCED_BREP_SHAPE_REPRESENTATION ( 'Y-axis Way Cover Column Side', ( #389, #49 ), #402 ) ;
#217 = EDGE_LOOP ( 'NONE', ( #27, #690, #19, #371 ) ) ;
#218 = APPROVAL_DATE_TIME ( #345, #154 ) ;
#219 = DIRECTION ( 'NONE',  ( 0.000000000000000000, 0.000000000000000000, 1.000000000000000000 ) ) ;
#220 = EDGE_CURVE ( 'NONE', #98, #617, #337, .T. ) ;
#221 = ORIENTED_EDGE ( 'NONE', *, *, #710, .T. ) ;
#222 = FACE_OUTER_BOUND ( 'NONE', #493, .T. ) ;
#223 = EDGE_LOOP ( 'NONE', ( #799, #117, #416, #531 ) ) ;
#224 = CARTESIAN_POINT ( 'NONE',  ( -2.720728346456692481, 0.1250000000000000000, 0.6838975900000000552 ) ) ;
#225 = AXIS2_PLACEMENT_3D ( 'NONE', #573, #619, #301 ) ;
#226 = EDGE_LOOP ( 'NONE', ( #441, #92 ) ) ;
#227 = CIRCLE ( 'NONE', #519, 0.1181102362204724809 ) ;
#228 = LINE ( 'NONE', #603, #713 ) ;
#229 = CARTESIAN_POINT ( 'NONE',  ( -5.022499999999999964, 0.3249999999999999556, 0.6838975900000000552 ) ) ;
#230 = EDGE_CURVE ( 'NONE', #204, #653, #530, .T. ) ;
#231 = FACE_OUTER_BOUND ( 'NONE', #223, .T. ) ;
#232 = CARTESIAN_POINT ( 'NONE',  ( -2.297499999999999876, 0.3249999999999999556, 0.07720467661417274030 ) ) ;
#233 = LINE ( 'NONE', #365, #591 ) ;
#234 = APPLICATION_CONTEXT ( 'configuration controlled 3d designs of mechanical parts and assemblies' ) ;
#235 = CARTESIAN_POINT ( 'NONE',  ( -2.297499999999999876, -0.06122047244094488277, 0.4020078262204718200 ) ) ;
#236 = ORIENTED_EDGE ( 'NONE', *, *, #831, .F. ) ;
#237 = CARTESIAN_POINT ( 'NONE',  ( -4.797499999999999432, -0.1250000000000000000, 0.2838975899999993668 ) ) ;
#238 = CC_DESIGN_APPROVAL ( #154, ( #26 ) ) ;
#239 = DIRECTION ( 'NONE',  ( -0.000000000000000000, 1.000000000000000000, -0.000000000000000000 ) ) ;
#240 = EDGE_CURVE ( 'NONE', #625, #98, #639, .T. ) ;
#241 = AXIS2_PLACEMENT_3D ( 'NONE', #91, #606, #662 ) ;
#242 = VERTEX_POINT ( 'NONE', #773 ) ;
#243 = CYLINDRICAL_SURFACE ( 'NONE', #198, 0.1181102362204727585 ) ;
#244 = ADVANCED_FACE ( 'NONE', ( #453, #462, #657 ), #825, .T. ) ;
#245 = AXIS2_PLACEMENT_3D ( 'NONE', #628, #181, #363 ) ;
#246 = FACE_OUTER_BOUND ( 'NONE', #109, .T. ) ;
#247 = AXIS2_PLACEMENT_3D ( 'NONE', #537, #414, #332 ) ;
#248 = ORIENTED_EDGE ( 'NONE', *, *, #558, .F. ) ;
#249 = DIRECTION ( 'NONE',  ( 0.000000000000000000, 0.000000000000000000, 1.000000000000000000 ) ) ;
#250 = ORIENTED_EDGE ( 'NONE', *, *, #663, .T. ) ;
#251 = CARTESIAN_POINT ( 'NONE',  ( 0.000000000000000000, 0.000000000000000000, 0.6838975900000000552 ) ) ;
#252 = ORIENTED_EDGE ( 'NONE', *, *, #811, .T. ) ;
#253 =( CONVERSION_BASED_UNIT ( 'INCH', #186 ) LENGTH_UNIT ( ) NAMED_UNIT ( #213 ) );
#254 = CARTESIAN_POINT ( 'NONE',  ( -2.297499999999999876, -0.06122047244094488277, 0.2838975899999993668 ) ) ;
#255 = CIRCLE ( 'NONE', #85, 0.2000000000000002331 ) ;
#256 = VERTEX_POINT ( 'NONE', #764 ) ;
#257 = DIRECTION ( 'NONE',  ( 1.787168095804523498E-15, 0.000000000000000000, 1.000000000000000000 ) ) ;
#258 = PRODUCT ( 'Y-axis Way Cover Column Side', 'Y-axis Way Cover Column Side', '', ( #650 ) ) ;
#259 = CARTESIAN_POINT ( 'NONE',  ( -2.522499999999999520, -0.1250000000000000000, 0.2838975899999990893 ) ) ;
#260 = VERTEX_POINT ( 'NONE', #712 ) ;
#261 = CARTESIAN_POINT ( 'NONE',  ( -2.297499999999999876, -0.1250000000000000000, 0.2838975899999993668 ) ) ;
#262 = CARTESIAN_POINT ( 'NONE',  ( -4.236476377952755890, 0.1249999999999999861, 0.6838975900000000552 ) ) ;
#263 = VECTOR ( 'NONE', #671, 39.37007874015748143 ) ;
#264 = CARTESIAN_POINT ( 'NONE',  ( -4.572499999999999787, -0.1249999999999999029, 0.4609606699139625618 ) ) ;
#265 = EDGE_LOOP ( 'NONE', ( #719, #794 ) ) ;
#266 = DIRECTION ( 'NONE',  ( -0.000000000000000000, 1.000000000000000000, -0.000000000000000000 ) ) ;
#267 = CARTESIAN_POINT ( 'NONE',  ( -4.797499999999999432, -0.06122047244094488277, 0.4838975899999995445 ) ) ;
#268 = EDGE_LOOP ( 'NONE', ( #636, #693 ) ) ;
#269 = CALENDAR_DATE ( 2026, 26, 5 ) ;
#270 = LINE ( 'NONE', #328, #549 ) ;
#271 = AXIS2_PLACEMENT_3D ( 'NONE', #716, #587, #524 ) ;
#272 = PLANE ( 'NONE',  #295 ) ;
#273 = ORIENTED_EDGE ( 'NONE', *, *, #805, .F. ) ;
#274 = APPROVAL_ROLE ( '' ) ;
#275 = DIRECTION ( 'NONE',  ( -0.000000000000000000, 1.000000000000000000, -0.000000000000000000 ) ) ;
#276 = EDGE_CURVE ( 'NONE', #466, #513, #136, .T. ) ;
#277 = ORIENTED_EDGE ( 'NONE', *, *, #552, .F. ) ;
#278 = CIRCLE ( 'NONE', #434, 0.1181102362204727585 ) ;
#279 = APPROVAL_STATUS ( 'not_yet_approved' ) ;
#280 = ADVANCED_FACE ( 'NONE', ( #597, #15 ), #272, .T. ) ;
#281 = PLANE ( 'NONE',  #697 ) ;
#282 = EDGE_CURVE ( 'NONE', #454, #589, #528, .T. ) ;
#283 = ORIENTED_EDGE ( 'NONE', *, *, #193, .T. ) ;
#284 = DIRECTION ( 'NONE',  ( 0.000000000000000000, 0.000000000000000000, -1.000000000000000000 ) ) ;
#285 = ORIENTED_EDGE ( 'NONE', *, *, #741, .F. ) ;
#286 = EDGE_CURVE ( 'NONE', #128, #195, #409, .T. ) ;
#287 = CARTESIAN_POINT ( 'NONE',  ( -4.572499999999999787, 0.3249999999999999556, 0.5896156699139625257 ) ) ;
#288 = ORIENTED_EDGE ( 'NONE', *, *, #424, .F. ) ;
#289 = CARTESIAN_POINT ( 'NONE',  ( -4.797499999999999432, 0.3249999999999999556, 0.2838975899999993668 ) ) ;
#290 = CIRCLE ( 'NONE', #348, 0.2066929133858266265 ) ;
#291 = FACE_OUTER_BOUND ( 'NONE', #10, .T. ) ;
#292 = AXIS2_PLACEMENT_3D ( 'NONE', #623, #372, #309 ) ;
#293 = EDGE_CURVE ( 'NONE', #653, #16, #701, .T. ) ;
#294 = ORIENTED_EDGE ( 'NONE', *, *, #59, .T. ) ;
#295 = AXIS2_PLACEMENT_3D ( 'NONE', #338, #539, #83 ) ;
#296 = CARTESIAN_POINT ( 'NONE',  ( -2.858523622047243862, 0.1249999999999999861, 0.4609606699139625618 ) ) ;
#297 = DIRECTION ( 'NONE',  ( -1.000000000000000000, 0.000000000000000000, 0.000000000000000000 ) ) ;
#298 = CIRCLE ( 'NONE', #42, 0.1181102362204724809 ) ;
#299 = CARTESIAN_POINT ( 'NONE',  ( -2.297499999999999876, -0.1250000000000000000, 0.2838975899999993668 ) ) ;
#300 = ORIENTED_EDGE ( 'NONE', *, *, #749, .F. ) ;
#301 = DIRECTION ( 'NONE',  ( 0.000000000000000000, 0.000000000000000000, 1.000000000000000000 ) ) ;
#302 = EDGE_CURVE ( 'NONE', #114, #774, #481, .T. ) ;
#303 = CARTESIAN_POINT ( 'NONE',  ( 0.000000000000000000, 0.3249999999999999556, 0.000000000000000000 ) ) ;
#304 = EDGE_LOOP ( 'NONE', ( #191, #667, #185, #252 ) ) ;
#305 = DIRECTION ( 'NONE',  ( 0.000000000000000000, 0.000000000000000000, -1.000000000000000000 ) ) ;
#306 = CIRCLE ( 'NONE', #616, 0.1181102362204724809 ) ;
#307 = DIRECTION ( 'NONE',  ( -1.000000000000000000, 0.000000000000000000, 0.000000000000000000 ) ) ;
#308 = ORIENTED_EDGE ( 'NONE', *, *, #316, .T. ) ;
#309 = DIRECTION ( 'NONE',  ( -1.000000000000000000, 0.000000000000000000, 0.000000000000000000 ) ) ;
#310 = PLANE ( 'NONE',  #151 ) ;
#311 = AXIS2_PLACEMENT_3D ( 'NONE', #13, #791, #323 ) ;
#312 = VERTEX_POINT ( 'NONE', #7 ) ;
#313 = PERSON_AND_ORGANIZATION ( #324, #792 ) ;
#314 = ADVANCED_FACE ( 'NONE', ( #336 ), #472, .F. ) ;
#315 = EDGE_CURVE ( 'NONE', #52, #766, #270, .T. ) ;
#316 = EDGE_CURVE ( 'NONE', #199, #675, #634, .T. ) ;
#317 = CARTESIAN_POINT ( 'NONE',  ( -4.797499999999999432, -0.06122047244094488277, 0.2838975899999993668 ) ) ;
#318 = ORIENTED_EDGE ( 'NONE', *, *, #379, .T. ) ;
#319 = CARTESIAN_POINT ( 'NONE',  ( 0.000000000000000000, 0.000000000000000000, 0.000000000000000000 ) ) ;
#320 = DIRECTION ( 'NONE',  ( -0.000000000000000000, -0.000000000000000000, -1.000000000000000000 ) ) ;
#321 = EDGE_LOOP ( 'NONE', ( #178, #248 ) ) ;
#322 = DIRECTION ( 'NONE',  ( -0.000000000000000000, -1.000000000000000000, -0.000000000000000000 ) ) ;
#323 = DIRECTION ( 'NONE',  ( 0.000000000000000000, 0.000000000000000000, -1.000000000000000000 ) ) ;
#324 = PERSON ( 'UNSPECIFIED', 'UNSPECIFIED', 'UNSPECIFIED', ('UNSPECIFIED'), ('UNSPECIFIED'), ('UNSPECIFIED') ) ;
#325 = FACE_BOUND ( 'NONE', #355, .T. ) ;
#326 = EDGE_LOOP ( 'NONE', ( #784, #351, #61, #79 ) ) ;
#327 = DIRECTION ( 'NONE',  ( 0.000000000000000000, 0.000000000000000000, -1.000000000000000000 ) ) ;
#328 = CARTESIAN_POINT ( 'NONE',  ( -2.072499999999999343, -0.1250000000000000000, 0.000000000000000000 ) ) ;
#329 = DIRECTION ( 'NONE',  ( 0.000000000000000000, -1.000000000000000000, 0.000000000000000000 ) ) ;
#330 = ORIENTED_EDGE ( 'NONE', *, *, #95, .F. ) ;
#331 = CARTESIAN_POINT ( 'NONE',  ( -4.098681102362204065, 0.1250000000000000000, 0.6838975900000000552 ) ) ;
#332 = DIRECTION ( 'NONE',  ( 0.000000000000000000, 0.000000000000000000, 1.000000000000000000 ) ) ;
#333 = DIRECTION ( 'NONE',  ( -0.000000000000000000, 1.000000000000000000, -0.000000000000000000 ) ) ;
#334 = EDGE_LOOP ( 'NONE', ( #6, #576, #142, #96 ) ) ;
#335 = COORDINATED_UNIVERSAL_TIME_OFFSET ( 5, 0, .BEHIND. ) ;
#336 = FACE_OUTER_BOUND ( 'NONE', #726, .T. ) ;
#337 = CIRCLE ( 'NONE', #492, 0.1377952755905512972 ) ;
#338 = CARTESIAN_POINT ( 'NONE',  ( -2.297499999999999876, -0.06122047244094488277, 0.2838975899999993668 ) ) ;
#339 = ORIENTED_EDGE ( 'NONE', *, *, #638, .T. ) ;
#340 = CIRCLE ( 'NONE', #562, 0.2000000000000002331 ) ;
#341 = CARTESIAN_POINT ( 'NONE',  ( -2.297499999999999876, -0.1250000000000000000, 0.2838975899999993668 ) ) ;
#342 = EDGE_CURVE ( 'NONE', #547, #444, #113, .T. ) ;
#343 = EDGE_CURVE ( 'NONE', #675, #199, #177, .T. ) ;
#344 = ORIENTED_EDGE ( 'NONE', *, *, #356, .T. ) ;
#345 = DATE_AND_TIME ( #827, #604 ) ;
#346 = DIRECTION ( 'NONE',  ( 0.000000000000000000, 0.000000000000000000, 1.000000000000000000 ) ) ;
#347 = ORIENTED_EDGE ( 'NONE', *, *, #824, .F. ) ;
#348 = AXIS2_PLACEMENT_3D ( 'NONE', #37, #678, #101 ) ;
#349 = COORDINATED_UNIVERSAL_TIME_OFFSET ( 5, 0, .BEHIND. ) ;
#350 = DIRECTION ( 'NONE',  ( 0.000000000000000000, 0.000000000000000000, 1.000000000000000000 ) ) ;
#351 = ORIENTED_EDGE ( 'NONE', *, *, #29, .T. ) ;
#352 = FACE_BOUND ( 'NONE', #268, .T. ) ;
#353 = VECTOR ( 'NONE', #728, 39.37007874015748143 ) ;
#354 = EDGE_CURVE ( 'NONE', #204, #52, #754, .T. ) ;
#355 = EDGE_LOOP ( 'NONE', ( #551, #308 ) ) ;
#356 = EDGE_CURVE ( 'NONE', #107, #729, #477, .T. ) ;
#357 = CARTESIAN_POINT ( 'NONE',  ( -4.236476377952755890, 0.1249999999999999861, 0.6838975900000000552 ) ) ;
#358 = LINE ( 'NONE', #179, #172 ) ;
#359 = VERTEX_POINT ( 'NONE', #781 ) ;
#360 = CARTESIAN_POINT ( 'NONE',  ( -2.720728346456692481, 0.1250000000000000000, 0.6838975900000000552 ) ) ;
#361 = APPROVAL_PERSON_ORGANIZATION ( #545, #206, #417 ) ;
#362 = LINE ( 'NONE', #563, #760 ) ;
#363 = DIRECTION ( 'NONE',  ( 0.000000000000000000, 0.000000000000000000, 1.000000000000000000 ) ) ;
#364 = ORIENTED_EDGE ( 'NONE', *, *, #180, .T. ) ;
#365 = CARTESIAN_POINT ( 'NONE',  ( -2.072499999999999343, -0.1250000000000000000, 0.6838975900000000552 ) ) ;
#366 = ADVANCED_FACE ( 'NONE', ( #711 ), #81, .T. ) ;
#367 = AXIS2_PLACEMENT_3D ( 'NONE', #722, #381, #647 ) ;
#368 = FACE_OUTER_BOUND ( 'NONE', #526, .T. ) ;
#369 = CARTESIAN_POINT ( 'NONE',  ( -4.236476377952755890, 0.1249999999999999861, 0.6838975900000000552 ) ) ;
#370 = CARTESIAN_POINT ( 'NONE',  ( -5.022499999999999964, -0.1250000000000000000, 0.000000000000000000 ) ) ;
#371 = ORIENTED_EDGE ( 'NONE', *, *, #220, .T. ) ;
#372 = DIRECTION ( 'NONE',  ( -0.000000000000000000, -0.000000000000000000, -1.000000000000000000 ) ) ;
#373 = VECTOR ( 'NONE', #438, 39.37007874015748143 ) ;
#374 = DIRECTION ( 'NONE',  ( 0.000000000000000000, 0.000000000000000000, -1.000000000000000000 ) ) ;
#375 = VERTEX_POINT ( 'NONE', #67 ) ;
#376 = DIRECTION ( 'NONE',  ( -0.000000000000000000, 1.000000000000000000, -0.000000000000000000 ) ) ;
#377 = EDGE_CURVE ( 'NONE', #589, #819, #611, .T. ) ;
#378 = ORIENTED_EDGE ( 'NONE', *, *, #58, .T. ) ;
#379 = EDGE_CURVE ( 'NONE', #375, #640, #673, .T. ) ;
#380 = LINE ( 'NONE', #66, #725 ) ;
#381 = DIRECTION ( 'NONE',  ( 0.000000000000000000, 1.000000000000000000, 0.000000000000000000 ) ) ;
#382 = ORIENTED_EDGE ( 'NONE', *, *, #111, .T. ) ;
#383 =( LENGTH_UNIT ( ) NAMED_UNIT ( * ) SI_UNIT ( $, .METRE. ) );
#384 = LOCAL_TIME ( 12, 14, 41.00000000000000000, #654 ) ;
#385 = CARTESIAN_POINT ( 'NONE',  ( -4.797499999999999432, -0.1250000000000000000, 0.1657873537795266083 ) ) ;
#386 = EDGE_LOOP ( 'NONE', ( #582, #250 ) ) ;
#387 = VECTOR ( 'NONE', #275, 39.37007874015748143 ) ;
#388 = FACE_OUTER_BOUND ( 'NONE', #621, .T. ) ;
#389 = MANIFOLD_SOLID_BREP ( 'Cut-Extrude6', #507 ) ;
#390 = CARTESIAN_POINT ( 'NONE',  ( -4.797499999999999432, -0.06122047244094488277, 0.08389758999999917533 ) ) ;
#391 = EDGE_CURVE ( 'NONE', #774, #359, #397, .T. ) ;
#392 = DIRECTION ( 'NONE',  ( 0.000000000000000000, 1.000000000000000000, 0.000000000000000000 ) ) ;
#393 = VERTEX_POINT ( 'NONE', #134 ) ;
#394 = ADVANCED_FACE ( 'NONE', ( #786 ), #659, .F. ) ;
#395 = CARTESIAN_POINT ( 'NONE',  ( -2.072499999999999343, -0.1250000000000000000, 0.6838975900000000552 ) ) ;
#396 = AXIS2_PLACEMENT_3D ( 'NONE', #210, #532, #3 ) ;
#397 = LINE ( 'NONE', #390, #353 ) ;
#398 = CARTESIAN_POINT ( 'NONE',  ( -4.797499999999999432, -0.1250000000000000000, 0.1657873537795266083 ) ) ;
#399 = EDGE_LOOP ( 'NONE', ( #209, #125, #148, #475 ) ) ;
#400 = DIRECTION ( 'NONE',  ( 0.000000000000000000, 1.000000000000000000, 0.000000000000000000 ) ) ;
#401 = DIRECTION ( 'NONE',  ( -1.000000000000000000, 0.000000000000000000, 0.000000000000000000 ) ) ;
#402 =( GEOMETRIC_REPRESENTATION_CONTEXT ( 3 ) GLOBAL_UNCERTAINTY_ASSIGNED_CONTEXT ( ( #787 ) ) GLOBAL_UNIT_ASSIGNED_CONTEXT ( ( #253, #71, #121 ) ) REPRESENTATION_CONTEXT ( 'NONE', 'WORKASPACE' ) );
#403 = ORIENTED_EDGE ( 'NONE', *, *, #758, .F. ) ;
#404 = EDGE_CURVE ( 'NONE', #625, #797, #57, .T. ) ;
#405 = CALENDAR_DATE ( 2026, 26, 5 ) ;
#406 = DIRECTION ( 'NONE',  ( -0.000000000000000000, -1.000000000000000000, -0.000000000000000000 ) ) ;
#407 = VECTOR ( 'NONE', #610, 39.37007874015748143 ) ;
#408 = EDGE_CURVE ( 'NONE', #478, #729, #600, .T. ) ;
#409 = CIRCLE ( 'NONE', #149, 0.1377952755905512972 ) ;
#410 = AXIS2_PLACEMENT_3D ( 'NONE', #357, #553, #796 ) ;
#411 = EDGE_LOOP ( 'NONE', ( #788, #378 ) ) ;
#412 = CC_DESIGN_PERSON_AND_ORGANIZATION_ASSIGNMENT ( #789, #536, ( #22 ) ) ;
#413 = AXIS2_PLACEMENT_3D ( 'NONE', #124, #239, #504 ) ;
#414 = DIRECTION ( 'NONE',  ( 0.000000000000000000, 1.000000000000000000, -0.000000000000000000 ) ) ;
#415 = DESIGN_CONTEXT ( 'detailed design', #234, 'design' ) ;
#416 = ORIENTED_EDGE ( 'NONE', *, *, #122, .F. ) ;
#417 = APPROVAL_ROLE ( '' ) ;
#418 = CARTESIAN_POINT ( 'NONE',  ( -5.022499999999999964, -0.1250000000000000000, 0.000000000000000000 ) ) ;
#419 = ORIENTED_EDGE ( 'NONE', *, *, #391, .F. ) ;
#420 = VECTOR ( 'NONE', #445, 39.37007874015748143 ) ;
#421 = CARTESIAN_POINT ( 'NONE',  ( 0.000000000000000000, -0.1250000000000000000, 0.000000000000000000 ) ) ;
#422 = CC_DESIGN_PERSON_AND_ORGANIZATION_ASSIGNMENT ( #602, #541, ( #26 ) ) ;
#423 = ORIENTED_EDGE ( 'NONE', *, *, #316, .F. ) ;
#424 = EDGE_CURVE ( 'NONE', #617, #98, #23, .T. ) ;
#425 = LINE ( 'NONE', #418, #263 ) ;
#426 = CARTESIAN_POINT ( 'NONE',  ( -2.072499999999999343, -0.1250000000000000000, 0.2838975899999990338 ) ) ;
#427 = AXIS2_PLACEMENT_3D ( 'NONE', #341, #772, #460 ) ;
#428 = EDGE_LOOP ( 'NONE', ( #829, #288 ) ) ;
#429 = FACE_OUTER_BOUND ( 'NONE', #133, .T. ) ;
#430 = FACE_OUTER_BOUND ( 'NONE', #632, .T. ) ;
#431 = DIRECTION ( 'NONE',  ( 0.000000000000000000, 0.000000000000000000, -1.000000000000000000 ) ) ;
#432 = ORIENTED_EDGE ( 'NONE', *, *, #354, .T. ) ;
#433 = EDGE_CURVE ( 'NONE', #393, #256, #503, .T. ) ;
#434 = AXIS2_PLACEMENT_3D ( 'NONE', #615, #557, #804 ) ;
#435 = DIRECTION ( 'NONE',  ( -0.000000000000000000, 1.000000000000000000, -0.000000000000000000 ) ) ;
#436 = CYLINDRICAL_SURFACE ( 'NONE', #700, 0.1181102362204727585 ) ;
#437 = PRODUCT_RELATED_PRODUCT_CATEGORY ( 'detail', '', ( #258 ) ) ;
#438 = DIRECTION ( 'NONE',  ( -0.000000000000000000, 1.000000000000000000, -0.000000000000000000 ) ) ;
#439 = AXIS2_PLACEMENT_3D ( 'NONE', #143, #266, #830 ) ;
#440 = DIRECTION ( 'NONE',  ( 0.000000000000000000, -1.000000000000000000, 0.000000000000000000 ) ) ;
#441 = ORIENTED_EDGE ( 'NONE', *, *, #404, .T. ) ;
#442 = DIRECTION ( 'NONE',  ( -0.000000000000000000, 1.000000000000000000, -0.000000000000000000 ) ) ;
#443 = CYLINDRICAL_SURFACE ( 'NONE', #559, 0.2250000000000000611 ) ;
#444 = VERTEX_POINT ( 'NONE', #665 ) ;
#445 = DIRECTION ( 'NONE',  ( 1.787168095804523498E-15, 0.000000000000000000, 1.000000000000000000 ) ) ;
#446 = CARTESIAN_POINT ( 'NONE',  ( -2.858523622047243862, 0.1249999999999999861, 0.6838975900000000552 ) ) ;
#447 = AXIS2_PLACEMENT_3D ( 'NONE', #93, #734, #219 ) ;
#448 = ORIENTED_EDGE ( 'NONE', *, *, #720, .F. ) ;
#449 = COORDINATED_UNIVERSAL_TIME_OFFSET ( 5, 0, .BEHIND. ) ;
#450 = ADVANCED_FACE ( 'NONE', ( #222 ), #798, .F. ) ;
#451 = VECTOR ( 'NONE', #333, 39.37007874015748143 ) ;
#452 = AXIS2_PLACEMENT_3D ( 'NONE', #303, #812, #567 ) ;
#453 = FACE_BOUND ( 'NONE', #601, .T. ) ;
#454 = VERTEX_POINT ( 'NONE', #494 ) ;
#455 = DIRECTION ( 'NONE',  ( -0.000000000000000000, 1.000000000000000000, -0.000000000000000000 ) ) ;
#456 = CARTESIAN_POINT ( 'NONE',  ( -4.797499999999999432, -0.1250000000000000000, 0.4020078262204720976 ) ) ;
#457 = ORIENTED_EDGE ( 'NONE', *, *, #486, .F. ) ;
#458 = CC_DESIGN_PERSON_AND_ORGANIZATION_ASSIGNMENT ( #86, #471, ( #64 ) ) ;
#459 = EDGE_CURVE ( 'NONE', #375, #513, #170, .T. ) ;
#460 = DIRECTION ( 'NONE',  ( 0.000000000000000000, 0.000000000000000000, 1.000000000000000000 ) ) ;
#461 = LOCAL_TIME ( 12, 14, 41.00000000000000000, #349 ) ;
#462 = FACE_BOUND ( 'NONE', #226, .T. ) ;
#463 = ORIENTED_EDGE ( 'NONE', *, *, #122, .T. ) ;
#464 = DIRECTION ( 'NONE',  ( -0.000000000000000000, -1.000000000000000000, -0.000000000000000000 ) ) ;
#465 = CARTESIAN_POINT ( 'NONE',  ( -2.297499999999999876, 0.3249999999999999556, 0.2838975899999993668 ) ) ;
#466 = VERTEX_POINT ( 'NONE', #556 ) ;
#467 = DIRECTION ( 'NONE',  ( 0.000000000000000000, 0.000000000000000000, 1.000000000000000000 ) ) ;
#468 = EDGE_CURVE ( 'NONE', #256, #70, #21, .T. ) ;
#469 = CARTESIAN_POINT ( 'NONE',  ( -2.522499999999999076, -2.179033132406827278, 0.4609606699139625618 ) ) ;
#470 = ORIENTED_EDGE ( 'NONE', *, *, #558, .T. ) ;
#471 = PERSON_AND_ORGANIZATION_ROLE ( 'creator' ) ;
#472 = CYLINDRICAL_SURFACE ( 'NONE', #439, 0.2000000000000001776 ) ;
#473 = ADVANCED_FACE ( 'NONE', ( #429 ), #745, .F. ) ;
#474 = CC_DESIGN_APPROVAL ( #206, ( #64 ) ) ;
#475 = ORIENTED_EDGE ( 'NONE', *, *, #111, .F. ) ;
#476 = DATE_AND_TIME ( #17, #94 ) ;
#477 = LINE ( 'NONE', #595, #783 ) ;
#478 = VERTEX_POINT ( 'NONE', #803 ) ;
#479 = APPROVAL_DATE_TIME ( #90, #584 ) ;
#480 = DIRECTION ( 'NONE',  ( -1.000000000000000000, 0.000000000000000000, 0.000000000000000000 ) ) ;
#481 = CIRCLE ( 'NONE', #508, 0.2000000000000001776 ) ;
#482 = ORIENTED_EDGE ( 'NONE', *, *, #741, .T. ) ;
#483 = DATE_TIME_ROLE ( 'creation_date' ) ;
#484 = LINE ( 'NONE', #737, #407 ) ;
#485 = CC_DESIGN_DATE_AND_TIME_ASSIGNMENT ( #80, #483, ( #26 ) ) ;
#486 = EDGE_CURVE ( 'NONE', #16, #107, #228, .T. ) ;
#487 = ORIENTED_EDGE ( 'NONE', *, *, #801, .F. ) ;
#488 = APPROVAL_PERSON_ORGANIZATION ( #594, #584, #274 ) ;
#489 = DIRECTION ( 'NONE',  ( -0.000000000000000000, -0.000000000000000000, -1.000000000000000000 ) ) ;
#490 = DIRECTION ( 'NONE',  ( -1.000000000000000000, 0.000000000000000000, 0.000000000000000000 ) ) ;
#491 = EDGE_CURVE ( 'NONE', #598, #70, #484, .T. ) ;
#492 = AXIS2_PLACEMENT_3D ( 'NONE', #203, #525, #401 ) ;
#493 = EDGE_LOOP ( 'NONE', ( #403, #487, #364, #44 ) ) ;
#494 = CARTESIAN_POINT ( 'NONE',  ( -2.297499999999999876, -0.06122047244094488277, 0.07720467661417274030 ) ) ;
#495 = DIRECTION ( 'NONE',  ( 0.000000000000000000, 0.000000000000000000, 1.000000000000000000 ) ) ;
#496 = DIRECTION ( 'NONE',  ( 0.000000000000000000, -1.000000000000000000, 0.000000000000000000 ) ) ;
#497 = DIRECTION ( 'NONE',  ( 0.000000000000000000, 0.000000000000000000, -1.000000000000000000 ) ) ;
#498 = DIRECTION ( 'NONE',  ( -1.000000000000000000, 0.000000000000000000, -0.000000000000000000 ) ) ;
#499 = ADVANCED_FACE ( 'NONE', ( #613 ), #28, .F. ) ;
#500 = LINE ( 'NONE', #744, #40 ) ;
#501 = EDGE_LOOP ( 'NONE', ( #658, #685, #516, #24 ) ) ;
#502 = DIRECTION ( 'NONE',  ( -1.000000000000000000, 0.000000000000000000, 0.000000000000000000 ) ) ;
#503 = CIRCLE ( 'NONE', #135, 0.2250000000000001998 ) ;
#504 = DIRECTION ( 'NONE',  ( 0.000000000000000000, 0.000000000000000000, 1.000000000000000000 ) ) ;
#505 = ORIENTED_EDGE ( 'NONE', *, *, #682, .F. ) ;
#506 = DIRECTION ( 'NONE',  ( 0.000000000000000000, 0.000000000000000000, 1.000000000000000000 ) ) ;
#507 = CLOSED_SHELL ( 'NONE', ( #793, #689, #68, #165, #676, #394, #534, #244, #450, #39, #130, #314, #280, #499, #473, #1, #104, #627, #43, #366, #51, #614, #521, #696 ) ) ;
#508 = AXIS2_PLACEMENT_3D ( 'NONE', #724, #400, #590 ) ;
#509 = CARTESIAN_POINT ( 'NONE',  ( -4.098681102362204065, 0.1250000000000000000, 0.6838975900000000552 ) ) ;
#510 = ORIENTED_EDGE ( 'NONE', *, *, #424, .T. ) ;
#511 = DIRECTION ( 'NONE',  ( 0.000000000000000000, 0.000000000000000000, 1.000000000000000000 ) ) ;
#512 = DIRECTION ( 'NONE',  ( 0.000000000000000000, 0.000000000000000000, 1.000000000000000000 ) ) ;
#513 = VERTEX_POINT ( 'NONE', #158 ) ;
#514 = APPROVAL_STATUS ( 'not_yet_approved' ) ;
#515 = DIRECTION ( 'NONE',  ( 0.000000000000000000, 0.000000000000000000, 1.000000000000000000 ) ) ;
#516 = ORIENTED_EDGE ( 'NONE', *, *, #638, .F. ) ;
#517 = AXIS2_PLACEMENT_3D ( 'NONE', #317, #643, #828 ) ;
#518 = VECTOR ( 'NONE', #489, 39.37007874015748143 ) ;
#519 = AXIS2_PLACEMENT_3D ( 'NONE', #60, #116, #755 ) ;
#520 = DIRECTION ( 'NONE',  ( 0.000000000000000000, 1.000000000000000000, 0.000000000000000000 ) ) ;
#521 = ADVANCED_FACE ( 'NONE', ( #97 ), #677, .F. ) ;
#522 = ORIENTED_EDGE ( 'NONE', *, *, #758, .T. ) ;
#523 = DIRECTION ( 'NONE',  ( -0.000000000000000000, -0.000000000000000000, -1.000000000000000000 ) ) ;
#524 = DIRECTION ( 'NONE',  ( -1.000000000000000000, 0.000000000000000000, 0.000000000000000000 ) ) ;
#525 = DIRECTION ( 'NONE',  ( 0.000000000000000000, 0.000000000000000000, -1.000000000000000000 ) ) ;
#526 = EDGE_LOOP ( 'NONE', ( #347, #822, #572, #732, #826, #540, #457, #544 ) ) ;
#527 = DIRECTION ( 'NONE',  ( -1.000000000000000000, 0.000000000000000000, 0.000000000000000000 ) ) ;
#528 = LINE ( 'NONE', #583, #765 ) ;
#529 = CC_DESIGN_SECURITY_CLASSIFICATION ( #22, ( #64 ) ) ;
#530 = LINE ( 'NONE', #78, #451 ) ;
#531 = ORIENTED_EDGE ( 'NONE', *, *, #4, .F. ) ;
#532 = DIRECTION ( 'NONE',  ( -0.000000000000000000, -1.000000000000000000, 0.000000000000000000 ) ) ;
#533 = LINE ( 'NONE', #469, #768 ) ;
#534 = ADVANCED_FACE ( 'NONE', ( #25, #352, #153 ), #281, .T. ) ;
#535 = EDGE_LOOP ( 'NONE', ( #34, #184 ) ) ;
#536 = PERSON_AND_ORGANIZATION_ROLE ( 'classification_officer' ) ;
#537 = CARTESIAN_POINT ( 'NONE',  ( -4.797499999999999432, -0.1250000000000000000, 0.2838975899999993668 ) ) ;
#538 = EDGE_CURVE ( 'NONE', #547, #195, #546, .T. ) ;
#539 = DIRECTION ( 'NONE',  ( 0.000000000000000000, 1.000000000000000000, 0.000000000000000000 ) ) ;
#540 = ORIENTED_EDGE ( 'NONE', *, *, #356, .F. ) ;
#541 = PERSON_AND_ORGANIZATION_ROLE ( 'creator' ) ;
#542 = CARTESIAN_POINT ( 'NONE',  ( -4.797499999999999432, -0.06122047244094488277, 0.2838975899999993668 ) ) ;
#543 = AXIS2_PLACEMENT_3D ( 'NONE', #369, #626, #297 ) ;
#544 = ORIENTED_EDGE ( 'NONE', *, *, #293, .F. ) ;
#545 = PERSON_AND_ORGANIZATION ( #324, #792 ) ;
#546 = LINE ( 'NONE', #224, #518 ) ;
#547 = VERTEX_POINT ( 'NONE', #360 ) ;
#548 = DIRECTION ( 'NONE',  ( 0.000000000000000000, -1.000000000000000000, 0.000000000000000000 ) ) ;
#549 = VECTOR ( 'NONE', #467, 39.37007874015748143 ) ;
#550 = EDGE_CURVE ( 'NONE', #640, #478, #425, .T. ) ;
#551 = ORIENTED_EDGE ( 'NONE', *, *, #343, .T. ) ;
#552 = EDGE_CURVE ( 'NONE', #444, #128, #100, .T. ) ;
#553 = DIRECTION ( 'NONE',  ( -0.000000000000000000, -0.000000000000000000, -1.000000000000000000 ) ) ;
#554 = ORIENTED_EDGE ( 'NONE', *, *, #282, .F. ) ;
#555 = LOCAL_TIME ( 12, 14, 41.00000000000000000, #795 ) ;
#556 = CARTESIAN_POINT ( 'NONE',  ( -2.522499999999999076, -0.1250000000000000000, 0.4609606699139625618 ) ) ;
#557 = DIRECTION ( 'NONE',  ( 0.000000000000000000, 1.000000000000000000, 0.000000000000000000 ) ) ;
#558 = EDGE_CURVE ( 'NONE', #195, #128, #147, .T. ) ;
#559 = AXIS2_PLACEMENT_3D ( 'NONE', #299, #564, #512 ) ;
#560 = DIRECTION ( 'NONE',  ( -1.000000000000000000, 0.000000000000000000, 0.000000000000000000 ) ) ;
#561 = DIRECTION ( 'NONE',  ( 0.000000000000000000, 0.000000000000000000, -1.000000000000000000 ) ) ;
#562 = AXIS2_PLACEMENT_3D ( 'NONE', #688, #440, #571 ) ;
#563 = CARTESIAN_POINT ( 'NONE',  ( -4.572499999999999787, -0.1250000000000000000, 0.2838975899999993113 ) ) ;
#564 = DIRECTION ( 'NONE',  ( -0.000000000000000000, 1.000000000000000000, -0.000000000000000000 ) ) ;
#565 = ORIENTED_EDGE ( 'NONE', *, *, #486, .T. ) ;
#566 = LINE ( 'NONE', #699, #132 ) ;
#567 = DIRECTION ( 'NONE',  ( 0.000000000000000000, -0.000000000000000000, -1.000000000000000000 ) ) ;
#568 = ORIENTED_EDGE ( 'NONE', *, *, #160, .T. ) ;
#569 = CARTESIAN_POINT ( 'NONE',  ( -4.374271653543306826, 0.1249999999999999861, 0.6838975900000000552 ) ) ;
#570 = AXIS2_PLACEMENT_3D ( 'NONE', #296, #561, #809 ) ;
#571 = DIRECTION ( 'NONE',  ( 0.000000000000000000, 0.000000000000000000, -1.000000000000000000 ) ) ;
#572 = ORIENTED_EDGE ( 'NONE', *, *, #468, .F. ) ;
#573 = CARTESIAN_POINT ( 'NONE',  ( -4.797499999999999432, -0.06122047244094488277, 0.2838975899999993668 ) ) ;
#574 = AXIS2_PLACEMENT_3D ( 'NONE', #646, #215, #196 ) ;
#575 = DIRECTION ( 'NONE',  ( 0.000000000000000000, 0.000000000000000000, 1.000000000000000000 ) ) ;
#576 = ORIENTED_EDGE ( 'NONE', *, *, #14, .F. ) ;
#577 = APPLICATION_PROTOCOL_DEFINITION ( 'international standard', 'config_control_design', 1994, #234 ) ;
#578 = CARTESIAN_POINT ( 'NONE',  ( -2.720728346456692481, 0.1250000000000000000, 0.4609606699139625618 ) ) ;
#579 = ORIENTED_EDGE ( 'NONE', *, *, #377, .F. ) ;
#580 = PERSON_AND_ORGANIZATION_ROLE ( 'design_owner' ) ;
#581 = FACE_OUTER_BOUND ( 'NONE', #386, .T. ) ;
#582 = ORIENTED_EDGE ( 'NONE', *, *, #302, .T. ) ;
#583 = CARTESIAN_POINT ( 'NONE',  ( -2.297499999999999876, -0.06122047244094488277, 0.07720467661417274030 ) ) ;
#584 = APPROVAL ( #12, 'UNSPECIFIED' ) ;
#585 = CARTESIAN_POINT ( 'NONE',  ( -2.297499999999999876, -0.1250000000000000000, 0.4020078262204718200 ) ) ;
#586 = ORIENTED_EDGE ( 'NONE', *, *, #491, .F. ) ;
#587 = DIRECTION ( 'NONE',  ( 0.000000000000000000, 0.000000000000000000, -1.000000000000000000 ) ) ;
#588 = CARTESIAN_POINT ( 'NONE',  ( -4.572499999999999787, -2.179033132406827278, 0.4609606699139625618 ) ) ;
#589 = VERTEX_POINT ( 'NONE', #232 ) ;
#590 = DIRECTION ( 'NONE',  ( 0.000000000000000000, 0.000000000000000000, 1.000000000000000000 ) ) ;
#591 = VECTOR ( 'NONE', #45, 39.37007874015748143 ) ;
#592 = DIRECTION ( 'NONE',  ( -0.000000000000000000, 1.000000000000000000, -0.000000000000000000 ) ) ;
#593 = ORIENTED_EDGE ( 'NONE', *, *, #58, .F. ) ;
#594 = PERSON_AND_ORGANIZATION ( #324, #792 ) ;
#595 = CARTESIAN_POINT ( 'NONE',  ( -5.022499999999999964, 0.3249999999999999556, 0.6838975900000000552 ) ) ;
#596 = VECTOR ( 'NONE', #520, 39.37007874015748143 ) ;
#597 = FACE_OUTER_BOUND ( 'NONE', #698, .T. ) ;
#598 = VERTEX_POINT ( 'NONE', #168 ) ;
#599 = APPROVAL_DATE_TIME ( #785, #206 ) ;
#600 = LINE ( 'NONE', #18, #387 ) ;
#601 = EDGE_LOOP ( 'NONE', ( #692, #708 ) ) ;
#602 = PERSON_AND_ORGANIZATION ( #324, #792 ) ;
#603 = CARTESIAN_POINT ( 'NONE',  ( -2.072499999999999343, 0.3249999999999999556, 0.6838975900000000552 ) ) ;
#604 = LOCAL_TIME ( 12, 14, 41.00000000000000000, #449 ) ;
#605 = ORIENTED_EDGE ( 'NONE', *, *, #240, .F. ) ;
#606 = DIRECTION ( 'NONE',  ( -1.000000000000000000, 0.000000000000000000, 0.000000000000000000 ) ) ;
#607 = VECTOR ( 'NONE', #350, 39.37007874015748143 ) ;
#608 = ORIENTED_EDGE ( 'NONE', *, *, #315, .T. ) ;
#609 = AXIS2_PLACEMENT_3D ( 'NONE', #446, #374, #307 ) ;
#610 = DIRECTION ( 'NONE',  ( -1.000000000000000000, -0.000000000000000000, -0.000000000000000000 ) ) ;
#611 = CIRCLE ( 'NONE', #311, 0.2066929133858266265 ) ;
#612 = VERTEX_POINT ( 'NONE', #630 ) ;
#613 = FACE_OUTER_BOUND ( 'NONE', #649, .T. ) ;
#614 = ADVANCED_FACE ( 'NONE', ( #686, #750, #430 ), #753, .T. ) ;
#615 = CARTESIAN_POINT ( 'NONE',  ( -4.797499999999999432, -0.1250000000000000000, 0.2838975899999993668 ) ) ;
#616 = AXIS2_PLACEMENT_3D ( 'NONE', #261, #637, #327 ) ;
#617 = VERTEX_POINT ( 'NONE', #746 ) ;
#618 = CARTESIAN_POINT ( 'NONE',  ( -2.996318897637795242, 0.1249999999999999861, 0.6838975900000000552 ) ) ;
#619 = DIRECTION ( 'NONE',  ( 0.000000000000000000, 1.000000000000000000, 0.000000000000000000 ) ) ;
#620 = ORIENTED_EDGE ( 'NONE', *, *, #276, .T. ) ;
#621 = EDGE_LOOP ( 'NONE', ( #770, #670, #470, #277 ) ) ;
#622 = VECTOR ( 'NONE', #320, 39.37007874015748143 ) ;
#623 = CARTESIAN_POINT ( 'NONE',  ( -4.236476377952755890, 0.1249999999999999861, 0.6838975900000000552 ) ) ;
#624 = FACE_BOUND ( 'NONE', #411, .T. ) ;
#625 = VERTEX_POINT ( 'NONE', #569 ) ;
#626 = DIRECTION ( 'NONE',  ( 0.000000000000000000, 0.000000000000000000, -1.000000000000000000 ) ) ;
#627 = ADVANCED_FACE ( 'NONE', ( #813 ), #171, .F. ) ;
#628 = CARTESIAN_POINT ( 'NONE',  ( -4.797499999999999432, -0.1250000000000000000, 0.2838975899999993668 ) ) ;
#629 = EDGE_LOOP ( 'NONE', ( #330, #522, #236, #2 ) ) ;
#630 = CARTESIAN_POINT ( 'NONE',  ( -2.297499999999999876, -0.1250000000000000000, 0.4020078262204719310 ) ) ;
#631 = CYLINDRICAL_SURFACE ( 'NONE', #413, 0.2066929133858266265 ) ;
#632 = EDGE_LOOP ( 'NONE', ( #748, #620, #568, #586 ) ) ;
#633 = CIRCLE ( 'NONE', #609, 0.1377952755905512972 ) ;
#634 = CIRCLE ( 'NONE', #73, 0.1181102362204727585 ) ;
#635 = CARTESIAN_POINT ( 'NONE',  ( -2.072499999999999343, 0.3249999999999999556, 0.2838975899999990338 ) ) ;
#636 = ORIENTED_EDGE ( 'NONE', *, *, #801, .T. ) ;
#637 = DIRECTION ( 'NONE',  ( 0.000000000000000000, 1.000000000000000000, -0.000000000000000000 ) ) ;
#638 = EDGE_CURVE ( 'NONE', #52, #16, #110, .T. ) ;
#639 = LINE ( 'NONE', #9, #622 ) ;
#640 = VERTEX_POINT ( 'NONE', #817 ) ;
#641 = DIRECTION ( 'NONE',  ( -3.574336191609047785E-15, 0.000000000000000000, -1.000000000000000000 ) ) ;
#642 = CIRCLE ( 'NONE', #82, 0.1181102362204727585 ) ;
#643 = DIRECTION ( 'NONE',  ( 0.000000000000000000, 1.000000000000000000, 0.000000000000000000 ) ) ;
#644 = ORIENTED_EDGE ( 'NONE', *, *, #805, .T. ) ;
#645 = DIRECTION ( 'NONE',  ( 0.000000000000000000, 0.000000000000000000, 1.000000000000000000 ) ) ;
#646 = CARTESIAN_POINT ( 'NONE',  ( -2.297499999999999876, 0.3249999999999999556, 0.2838975899999993668 ) ) ;
#647 = DIRECTION ( 'NONE',  ( 0.000000000000000000, 0.000000000000000000, 1.000000000000000000 ) ) ;
#648 = AXIS2_PLACEMENT_3D ( 'NONE', #542, #406, #655 ) ;
#649 = EDGE_LOOP ( 'NONE', ( #554, #681, #739, #579 ) ) ;
#650 = MECHANICAL_CONTEXT ( 'NONE', #161, 'mechanical' ) ;
#651 = DIRECTION ( 'NONE',  ( -1.000000000000000000, 0.000000000000000000, 0.000000000000000000 ) ) ;
#652 = LINE ( 'NONE', #585, #806 ) ;
#653 = VERTEX_POINT ( 'NONE', #53 ) ;
#654 = COORDINATED_UNIVERSAL_TIME_OFFSET ( 5, 0, .BEHIND. ) ;
#655 = DIRECTION ( 'NONE',  ( 0.000000000000000000, 0.000000000000000000, 1.000000000000000000 ) ) ;
#656 = AXIS2_PLACEMENT_3D ( 'NONE', #115, #502, #495 ) ;
#657 = FACE_OUTER_BOUND ( 'NONE', #145, .T. ) ;
#658 = ORIENTED_EDGE ( 'NONE', *, *, #230, .T. ) ;
#659 = CYLINDRICAL_SURFACE ( 'NONE', #427, 0.1181102362204724809 ) ;
#660 = VECTOR ( 'NONE', #127, 39.37007874015748143 ) ;
#661 = ORIENTED_EDGE ( 'NONE', *, *, #811, .F. ) ;
#662 = DIRECTION ( 'NONE',  ( 0.000000000000000000, 0.000000000000000000, 1.000000000000000000 ) ) ;
#663 = EDGE_CURVE ( 'NONE', #774, #114, #679, .T. ) ;
#664 = ORIENTED_EDGE ( 'NONE', *, *, #315, .F. ) ;
#665 = CARTESIAN_POINT ( 'NONE',  ( -2.996318897637795242, 0.1249999999999999861, 0.6838975900000000552 ) ) ;
#666 = AXIS2_PLACEMENT_3D ( 'NONE', #105, #743, #490 ) ;
#667 = ORIENTED_EDGE ( 'NONE', *, *, #824, .T. ) ;
#668 = PERSON_AND_ORGANIZATION_ROLE ( 'design_supplier' ) ;
#669 = DIRECTION ( 'NONE',  ( -0.000000000000000000, 1.000000000000000000, -0.000000000000000000 ) ) ;
#670 = ORIENTED_EDGE ( 'NONE', *, *, #538, .T. ) ;
#671 = DIRECTION ( 'NONE',  ( 0.000000000000000000, 0.000000000000000000, 1.000000000000000000 ) ) ;
#672 = DIRECTION ( 'NONE',  ( -0.000000000000000000, 1.000000000000000000, -0.000000000000000000 ) ) ;
#673 = CIRCLE ( 'NONE', #247, 0.2249999999999997835 ) ;
#674 = CC_DESIGN_DATE_AND_TIME_ASSIGNMENT ( #476, #20, ( #22 ) ) ;
#675 = VERTEX_POINT ( 'NONE', #48 ) ;
#676 = ADVANCED_FACE ( 'NONE', ( #291 ), #243, .F. ) ;
#677 = CYLINDRICAL_SURFACE ( 'NONE', #410, 0.1377952755905512972 ) ;
#678 = DIRECTION ( 'NONE',  ( 0.000000000000000000, 1.000000000000000000, 0.000000000000000000 ) ) ;
#679 = CIRCLE ( 'NONE', #225, 0.2000000000000001776 ) ;
#680 = CARTESIAN_POINT ( 'NONE',  ( -2.072499999999999343, 0.3249999999999999556, 0.6838975900000000552 ) ) ;
#681 = ORIENTED_EDGE ( 'NONE', *, *, #189, .F. ) ;
#682 = EDGE_CURVE ( 'NONE', #797, #625, #814, .T. ) ;
#683 = CARTESIAN_POINT ( 'NONE',  ( -2.297499999999999876, -0.06122047244094488277, 0.1657873537795268581 ) ) ;
#684 = FACE_OUTER_BOUND ( 'NONE', #501, .T. ) ;
#685 = ORIENTED_EDGE ( 'NONE', *, *, #293, .T. ) ;
#686 = FACE_BOUND ( 'NONE', #321, .T. ) ;
#687 = EDGE_CURVE ( 'NONE', #640, #393, #358, .T. ) ;
#688 = CARTESIAN_POINT ( 'NONE',  ( -4.797499999999999432, 0.3249999999999999556, 0.2838975899999993668 ) ) ;
#689 = ADVANCED_FACE ( 'NONE', ( #691 ), #118, .F. ) ;
#690 = ORIENTED_EDGE ( 'NONE', *, *, #404, .F. ) ;
#691 = FACE_OUTER_BOUND ( 'NONE', #182, .T. ) ;
#692 = ORIENTED_EDGE ( 'NONE', *, *, #14, .T. ) ;
#693 = ORIENTED_EDGE ( 'NONE', *, *, #95, .T. ) ;
#694 = CARTESIAN_POINT ( 'NONE',  ( -2.072499999999999343, -0.1250000000000000000, 0.2838975899999990338 ) ) ;
#695 = AXIS2_PLACEMENT_3D ( 'NONE', #188, #592, #778 ) ;
#696 = ADVANCED_FACE ( 'NONE', ( #820 ), #32, .F. ) ;
#697 = AXIS2_PLACEMENT_3D ( 'NONE', #421, #800, #31 ) ;
#698 = EDGE_LOOP ( 'NONE', ( #120, #221 ) ) ;
#699 = CARTESIAN_POINT ( 'NONE',  ( -2.297499999999999876, -0.1250000000000000000, 0.1657873537795268859 ) ) ;
#700 = AXIS2_PLACEMENT_3D ( 'NONE', #173, #818, #249 ) ;
#701 = CIRCLE ( 'NONE', #574, 0.2250000000000004774 ) ;
#702 = DIRECTION ( 'NONE',  ( 0.000000000000000000, 0.000000000000000000, 1.000000000000000000 ) ) ;
#703 = CC_DESIGN_PERSON_AND_ORGANIZATION_ASSIGNMENT ( #780, #668, ( #64 ) ) ;
#704 = PRODUCT_DEFINITION_SHAPE ( 'NONE', 'NONE',  #26 ) ;
#705 = ORIENTED_EDGE ( 'NONE', *, *, #379, .F. ) ;
#706 = CARTESIAN_POINT ( 'NONE',  ( -6.597500000000000142, -0.1250000000000000000, 0.6838975900000000552 ) ) ;
#707 = CARTESIAN_POINT ( 'NONE',  ( -2.996318897637795242, 0.1249999999999999861, 0.4609606699139625618 ) ) ;
#708 = ORIENTED_EDGE ( 'NONE', *, *, #342, .T. ) ;
#709 = CARTESIAN_POINT ( 'NONE',  ( -2.297499999999999876, 0.3249999999999999556, 0.4905905033858259934 ) ) ;
#710 = EDGE_CURVE ( 'NONE', #454, #312, #290, .T. ) ;
#711 = FACE_OUTER_BOUND ( 'NONE', #304, .T. ) ;
#712 = CARTESIAN_POINT ( 'NONE',  ( -2.297499999999999876, -0.1250000000000000000, 0.1657873537795268581 ) ) ;
#713 = VECTOR ( 'NONE', #346, 39.37007874015748143 ) ;
#714 = VERTEX_POINT ( 'NONE', #683 ) ;
#715 = DIRECTION ( 'NONE',  ( 0.000000000000000000, 0.000000000000000000, 1.000000000000000000 ) ) ;
#716 = CARTESIAN_POINT ( 'NONE',  ( -2.858523622047243862, 0.1249999999999999861, 0.6838975900000000552 ) ) ;
#717 = EDGE_CURVE ( 'NONE', #157, #675, #738, .T. ) ;
#718 = LINE ( 'NONE', #588, #596 ) ;
#719 = ORIENTED_EDGE ( 'NONE', *, *, #720, .T. ) ;
#720 = EDGE_CURVE ( 'NONE', #157, #174, #278, .T. ) ;
#721 = DIRECTION ( 'NONE',  ( -1.000000000000000000, 0.000000000000000000, 0.000000000000000000 ) ) ;
#722 = CARTESIAN_POINT ( 'NONE',  ( -2.297499999999999876, -0.06122047244094488277, 0.2838975899999993668 ) ) ;
#723 = ORIENTED_EDGE ( 'NONE', *, *, #343, .F. ) ;
#724 = CARTESIAN_POINT ( 'NONE',  ( -4.797499999999999432, -0.06122047244094488277, 0.2838975899999993668 ) ) ;
#725 = VECTOR ( 'NONE', #641, 39.37007874015748143 ) ;
#726 = EDGE_LOOP ( 'NONE', ( #419, #47, #382, #593 ) ) ;
#727 = SECURITY_CLASSIFICATION_LEVEL ( 'unclassified' ) ;
#728 = DIRECTION ( 'NONE',  ( -0.000000000000000000, 1.000000000000000000, -0.000000000000000000 ) ) ;
#729 = VERTEX_POINT ( 'NONE', #229 ) ;
#730 = CC_DESIGN_PERSON_AND_ORGANIZATION_ASSIGNMENT ( #313, #580, ( #258 ) ) ;
#731 = CARTESIAN_POINT ( 'NONE',  ( -2.297499999999999876, -0.1250000000000000000, 0.2838975899999993668 ) ) ;
#732 = ORIENTED_EDGE ( 'NONE', *, *, #433, .F. ) ;
#733 = CALENDAR_DATE ( 2026, 26, 5 ) ;
#734 = DIRECTION ( 'NONE',  ( -0.000000000000000000, 1.000000000000000000, -0.000000000000000000 ) ) ;
#735 = CC_DESIGN_APPROVAL ( #584, ( #22 ) ) ;
#736 = ORIENTED_EDGE ( 'NONE', *, *, #459, .T. ) ;
#737 = CARTESIAN_POINT ( 'NONE',  ( -4.572499999999999787, 0.3249999999999999556, 0.4609606699139625618 ) ) ;
#738 = LINE ( 'NONE', #164, #159 ) ;
#739 = ORIENTED_EDGE ( 'NONE', *, *, #4, .T. ) ;
#740 = VECTOR ( 'NONE', #41, 39.37007874015748143 ) ;
#741 = EDGE_CURVE ( 'NONE', #375, #256, #362, .T. ) ;
#742 = DIRECTION ( 'NONE',  ( 0.000000000000000000, 0.000000000000000000, 1.000000000000000000 ) ) ;
#743 = DIRECTION ( 'NONE',  ( -0.000000000000000000, -0.000000000000000000, -1.000000000000000000 ) ) ;
#744 = CARTESIAN_POINT ( 'NONE',  ( -2.297499999999999876, -0.06122047244094488277, 0.4905905033858259934 ) ) ;
#745 = PLANE ( 'NONE',  #241 ) ;
#746 = CARTESIAN_POINT ( 'NONE',  ( -4.098681102362204065, 0.1250000000000000000, 0.4609606699139625618 ) ) ;
#747 = ORIENTED_EDGE ( 'NONE', *, *, #468, .T. ) ;
#748 = ORIENTED_EDGE ( 'NONE', *, *, #156, .F. ) ;
#749 = EDGE_CURVE ( 'NONE', #766, #107, #233, .T. ) ;
#750 = FACE_BOUND ( 'NONE', #428, .T. ) ;
#751 = CARTESIAN_POINT ( 'NONE',  ( -4.572499999999999787, 0.3249999999999999556, 0.4609606699139625618 ) ) ;
#752 = ORIENTED_EDGE ( 'NONE', *, *, #408, .F. ) ;
#753 = PLANE ( 'NONE',  #208 ) ;
#754 = CIRCLE ( 'NONE', #396, 0.2250000000000000611 ) ;
#755 = DIRECTION ( 'NONE',  ( 0.000000000000000000, 0.000000000000000000, -1.000000000000000000 ) ) ;
#756 = EDGE_LOOP ( 'NONE', ( #273, #30, #705, #736, #779, #661, #432, #608 ) ) ;
#757 = CYLINDRICAL_SURFACE ( 'NONE', #762, 0.1377952755905512972 ) ;
#758 = EDGE_CURVE ( 'NONE', #260, #714, #566, .T. ) ;
#759 = DIRECTION ( 'NONE',  ( -0.000000000000000000, -0.000000000000000000, -1.000000000000000000 ) ) ;
#760 = VECTOR ( 'NONE', #810, 39.37007874015748143 ) ;
#761 = ORIENTED_EDGE ( 'NONE', *, *, #717, .F. ) ;
#762 = AXIS2_PLACEMENT_3D ( 'NONE', #767, #523, #527 ) ;
#763 = APPROVAL_ROLE ( '' ) ;
#764 = CARTESIAN_POINT ( 'NONE',  ( -4.572499999999999787, 0.3249999999999999556, 0.2838975899999993113 ) ) ;
#765 = VECTOR ( 'NONE', #77, 39.37007874015748143 ) ;
#766 = VERTEX_POINT ( 'NONE', #395 ) ;
#767 = CARTESIAN_POINT ( 'NONE',  ( -2.858523622047243862, 0.1249999999999999861, 0.6838975900000000552 ) ) ;
#768 = VECTOR ( 'NONE', #392, 39.37007874015748143 ) ;
#769 = LINE ( 'NONE', #267, #123 ) ;
#770 = ORIENTED_EDGE ( 'NONE', *, *, #342, .F. ) ;
#771 = DIRECTION ( 'NONE',  ( 1.000000000000000000, 0.000000000000000000, 0.000000000000000000 ) ) ;
#772 = DIRECTION ( 'NONE',  ( -0.000000000000000000, 1.000000000000000000, -0.000000000000000000 ) ) ;
#773 = CARTESIAN_POINT ( 'NONE',  ( -4.797499999999999432, 0.3249999999999999556, 0.4838975899999995445 ) ) ;
#774 = VERTEX_POINT ( 'NONE', #183 ) ;
#775 = CARTESIAN_POINT ( 'NONE',  ( -2.522500000000000409, -0.1250000000000000000, 4.508131521666911088E-15 ) ) ;
#776 = DIRECTION ( 'NONE',  ( 0.000000000000000000, 0.000000000000000000, -1.000000000000000000 ) ) ;
#777 = AXIS2_PLACEMENT_3D ( 'NONE', #200, #322, #645 ) ;
#778 = DIRECTION ( 'NONE',  ( 0.000000000000000000, 0.000000000000000000, 1.000000000000000000 ) ) ;
#779 = ORIENTED_EDGE ( 'NONE', *, *, #276, .F. ) ;
#780 = PERSON_AND_ORGANIZATION ( #324, #792 ) ;
#781 = CARTESIAN_POINT ( 'NONE',  ( -4.797499999999999432, 0.3249999999999999556, 0.08389758999999913369 ) ) ;
#782 = DIRECTION ( 'NONE',  ( 0.000000000000000000, 0.000000000000000000, -1.000000000000000000 ) ) ;
#783 = VECTOR ( 'NONE', #72, 39.37007874015748143 ) ;
#784 = ORIENTED_EDGE ( 'NONE', *, *, #408, .T. ) ;
#785 = DATE_AND_TIME ( #269, #384 ) ;
#786 = FACE_OUTER_BOUND ( 'NONE', #629, .T. ) ;
#787 = UNCERTAINTY_MEASURE_WITH_UNIT (LENGTH_MEASURE( 1.000000000000000082E-05 ), #253, 'distance_accuracy_value', 'NONE');
#788 = ORIENTED_EDGE ( 'NONE', *, *, #106, .T. ) ;
#789 = PERSON_AND_ORGANIZATION ( #324, #792 ) ;
#790 = EDGE_CURVE ( 'NONE', #174, #157, #642, .T. ) ;
#791 = DIRECTION ( 'NONE',  ( 0.000000000000000000, -1.000000000000000000, 0.000000000000000000 ) ) ;
#792 = ORGANIZATION ( 'UNSPECIFIED', 'UNSPECIFIED', '' ) ;
#793 = ADVANCED_FACE ( 'NONE', ( #388 ), #757, .F. ) ;
#794 = ORIENTED_EDGE ( 'NONE', *, *, #790, .T. ) ;
#795 = COORDINATED_UNIVERSAL_TIME_OFFSET ( 5, 0, .BEHIND. ) ;
#796 = DIRECTION ( 'NONE',  ( -1.000000000000000000, 0.000000000000000000, 0.000000000000000000 ) ) ;
#797 = VERTEX_POINT ( 'NONE', #331 ) ;
#798 = CYLINDRICAL_SURFACE ( 'NONE', #35, 0.1181102362204724809 ) ;
#799 = ORIENTED_EDGE ( 'NONE', *, *, #710, .F. ) ;
#800 = DIRECTION ( 'NONE',  ( 0.000000000000000000, -1.000000000000000000, 0.000000000000000000 ) ) ;
#801 = EDGE_CURVE ( 'NONE', #612, #260, #306, .T. ) ;
#802 = ORIENTED_EDGE ( 'NONE', *, *, #433, .T. ) ;
#803 = CARTESIAN_POINT ( 'NONE',  ( -5.022499999999999964, -0.1250000000000000000, 0.6838975900000000552 ) ) ;
#804 = DIRECTION ( 'NONE',  ( 0.000000000000000000, 0.000000000000000000, 1.000000000000000000 ) ) ;
#805 = EDGE_CURVE ( 'NONE', #478, #766, #192, .T. ) ;
#806 = VECTOR ( 'NONE', #832, 39.37007874015748143 ) ;
#807 = CARTESIAN_POINT ( 'NONE',  ( -4.797499999999999432, 0.3249999999999999556, 0.2838975899999993668 ) ) ;
#808 = AXIS2_PLACEMENT_3D ( 'NONE', #465, #329, #782 ) ;
#809 = DIRECTION ( 'NONE',  ( -1.000000000000000000, 0.000000000000000000, 0.000000000000000000 ) ) ;
#810 = DIRECTION ( 'NONE',  ( -0.000000000000000000, 1.000000000000000000, -0.000000000000000000 ) ) ;
#811 = EDGE_CURVE ( 'NONE', #204, #466, #129, .T. ) ;
#812 = DIRECTION ( 'NONE',  ( 0.000000000000000000, -1.000000000000000000, 0.000000000000000000 ) ) ;
#813 = FACE_OUTER_BOUND ( 'NONE', #152, .T. ) ;
#814 = CIRCLE ( 'NONE', #543, 0.1377952755905512972 ) ;
#815 = LINE ( 'NONE', #509, #190 ) ;
#816 = ORIENTED_EDGE ( 'NONE', *, *, #687, .T. ) ;
#817 = CARTESIAN_POINT ( 'NONE',  ( -5.022499999999999964, -0.1250000000000000000, 0.2838975899999994223 ) ) ;
#818 = DIRECTION ( 'NONE',  ( -0.000000000000000000, 1.000000000000000000, -0.000000000000000000 ) ) ;
#819 = VERTEX_POINT ( 'NONE', #709 ) ;
#820 = FACE_OUTER_BOUND ( 'NONE', #334, .T. ) ;
#821 = LINE ( 'NONE', #112, #740 ) ;
#822 = ORIENTED_EDGE ( 'NONE', *, *, #491, .T. ) ;
#823 = PERSON_AND_ORGANIZATION ( #324, #792 ) ;
#824 = EDGE_CURVE ( 'NONE', #598, #653, #380, .T. ) ;
#825 = PLANE ( 'NONE',  #187 ) ;
#826 = ORIENTED_EDGE ( 'NONE', *, *, #29, .F. ) ;
#827 = CALENDAR_DATE ( 2026, 26, 5 ) ;
#828 = DIRECTION ( 'NONE',  ( 0.000000000000000000, -0.000000000000000000, 1.000000000000000000 ) ) ;
#829 = ORIENTED_EDGE ( 'NONE', *, *, #220, .F. ) ;
#830 = DIRECTION ( 'NONE',  ( 0.000000000000000000, 0.000000000000000000, 1.000000000000000000 ) ) ;
#831 = EDGE_CURVE ( 'NONE', #55, #714, #8, .T. ) ;
#832 = DIRECTION ( 'NONE',  ( -0.000000000000000000, 1.000000000000000000, -0.000000000000000000 ) ) ;
ENDSEC;
END-ISO-10303-21;
