ISO-10303-21;
HEADER;
FILE_DESCRIPTION (( 'STEP AP203' ),
    '1' );
FILE_NAME ('Z-Axis Limit switch mount.STEP',
    '2026-05-26T16:16:19',
    ( '' ),
    ( '' ),
    'SwSTEP 2.0',
    'SolidWorks 2025',
    '' );
FILE_SCHEMA (( 'CONFIG_CONTROL_DESIGN' ));
ENDSEC;

DATA;
#1 = DIRECTION ( 'NONE',  ( 0.000000000000000000, -1.000000000000000000, 0.000000000000000000 ) ) ;
#2 = DIRECTION ( 'NONE',  ( 0.7071067811865512365, 0.000000000000000000, -0.7071067811865439090 ) ) ;
#3 = ORIENTED_EDGE ( 'NONE', *, *, #587, .F. ) ;
#4 = EDGE_CURVE ( 'NONE', #797, #196, #431, .T. ) ;
#5 = EDGE_LOOP ( 'NONE', ( #173, #102, #887, #519 ) ) ;
#6 = DIRECTION ( 'NONE',  ( 0.000000000000000000, 0.000000000000000000, 1.000000000000000000 ) ) ;
#7 = VECTOR ( 'NONE', #776, 1000.000000000000000 ) ;
#8 = DIRECTION ( 'NONE',  ( -0.000000000000000000, 1.000000000000000000, -0.000000000000000000 ) ) ;
#9 = CARTESIAN_POINT ( 'NONE',  ( -3.673940515008153177E-16, 3.000000000000002665, 7.995000170000000850 ) ) ;
#10 = VERTEX_POINT ( 'NONE', #789 ) ;
#11 = VERTEX_POINT ( 'NONE', #578 ) ;
#12 = DIRECTION ( 'NONE',  ( 0.000000000000000000, 0.000000000000000000, -1.000000000000000000 ) ) ;
#13 = LINE ( 'NONE', #381, #625 ) ;
#14 = ORIENTED_EDGE ( 'NONE', *, *, #183, .F. ) ;
#15 = EDGE_CURVE ( 'NONE', #223, #809, #629, .T. ) ;
#16 = DIRECTION ( 'NONE',  ( 0.000000000000000000, 0.000000000000000000, -1.000000000000000000 ) ) ;
#17 = DIRECTION ( 'NONE',  ( 1.167625975951677100E-16, 0.000000000000000000, -1.000000000000000000 ) ) ;
#18 = ORIENTED_EDGE ( 'NONE', *, *, #379, .T. ) ;
#19 = EDGE_CURVE ( 'NONE', #140, #333, #675, .T. ) ;
#20 = CARTESIAN_POINT ( 'NONE',  ( -3.673940306818267335E-16, 3.000000000000002665, 7.995000000000057838 ) ) ;
#21 = CARTESIAN_POINT ( 'NONE',  ( 34.00000000000000000, -16.32000000000000028, 0.4800001699999997262 ) ) ;
#22 = CIRCLE ( 'NONE', #542, 3.000000000000002665 ) ;
#23 = ORIENTED_EDGE ( 'NONE', *, *, #67, .T. ) ;
#24 = CARTESIAN_POINT ( 'NONE',  ( -40.00000000000000000, -3.000000000000000000, -22.57500000000000639 ) ) ;
#25 = ORIENTED_EDGE ( 'NONE', *, *, #751, .F. ) ;
#26 = VECTOR ( 'NONE', #489, 999.9999999999998863 ) ;
#27 = LINE ( 'NONE', #182, #188 ) ;
#28 = EDGE_LOOP ( 'NONE', ( #347, #424, #293, #569 ) ) ;
#29 = VECTOR ( 'NONE', #650, 1000.000000000000000 ) ;
#30 = EDGE_CURVE ( 'NONE', #908, #834, #884, .T. ) ;
#31 = LINE ( 'NONE', #95, #178 ) ;
#32 = FACE_BOUND ( 'NONE', #479, .T. ) ;
#33 = ORIENTED_EDGE ( 'NONE', *, *, #4, .F. ) ;
#34 = AXIS2_PLACEMENT_3D ( 'NONE', #541, #828, #247 ) ;
#35 = FACE_OUTER_BOUND ( 'NONE', #446, .T. ) ;
#36 = EDGE_LOOP ( 'NONE', ( #161, #430, #579, #276 ) ) ;
#37 = VECTOR ( 'NONE', #844, 1000.000000000000000 ) ;
#38 = PERSON_AND_ORGANIZATION ( #415, #873 ) ;
#39 = CC_DESIGN_PERSON_AND_ORGANIZATION_ASSIGNMENT ( #175, #453, ( #299 ) ) ;
#40 = DIRECTION ( 'NONE',  ( 0.000000000000000000, -1.000000000000000000, 0.000000000000000000 ) ) ;
#41 = ORIENTED_EDGE ( 'NONE', *, *, #183, .T. ) ;
#42 = CC_DESIGN_APPROVAL ( #108, ( #273 ) ) ;
#43 = DIRECTION ( 'NONE',  ( 0.000000000000000000, 0.000000000000000000, 1.000000000000000000 ) ) ;
#44 = CARTESIAN_POINT ( 'NONE',  ( 34.00000000000000000, -22.32000000000000028, 0.4800001699999997262 ) ) ;
#45 = ORIENTED_EDGE ( 'NONE', *, *, #626, .T. ) ;
#46 = DIRECTION ( 'NONE',  ( 0.000000000000000000, 0.000000000000000000, -1.000000000000000000 ) ) ;
#47 = PLANE ( 'NONE',  #305 ) ;
#48 = VERTEX_POINT ( 'NONE', #9 ) ;
#49 = ADVANCED_FACE ( 'NONE', ( #211 ), #503, .F. ) ;
#50 = CARTESIAN_POINT ( 'NONE',  ( -35.00000000000000000, 3.000000000000000000, -9.699999999999999289 ) ) ;
#51 = EDGE_CURVE ( 'NONE', #590, #212, #860, .T. ) ;
#52 = CARTESIAN_POINT ( 'NONE',  ( 34.00000000000000000, -22.32000000000000028, 3.480000170000001170 ) ) ;
#53 = CIRCLE ( 'NONE', #358, 3.000000000000002665 ) ;
#54 = ORIENTED_EDGE ( 'NONE', *, *, #500, .T. ) ;
#55 = EDGE_CURVE ( 'NONE', #266, #187, #773, .T. ) ;
#56 = APPROVAL_PERSON_ORGANIZATION ( #390, #108, #827 ) ;
#57 = DIRECTION ( 'NONE',  ( -0.000000000000000000, 1.000000000000000000, -0.000000000000000000 ) ) ;
#58 = FACE_OUTER_BOUND ( 'NONE', #65, .T. ) ;
#59 = DIRECTION ( 'NONE',  ( 0.000000000000000000, -1.000000000000000000, 0.000000000000000000 ) ) ;
#60 = EDGE_LOOP ( 'NONE', ( #653, #567, #396, #778, #282, #892 ) ) ;
#61 = CIRCLE ( 'NONE', #667, 3.000000000000002665 ) ;
#62 = DIRECTION ( 'NONE',  ( 0.000000000000000000, 0.000000000000000000, -1.000000000000000000 ) ) ;
#63 = DIRECTION ( 'NONE',  ( 0.000000000000000000, -1.000000000000000000, 0.000000000000000000 ) ) ;
#64 = LINE ( 'NONE', #355, #749 ) ;
#65 = EDGE_LOOP ( 'NONE', ( #115, #552, #3, #490 ) ) ;
#66 = CYLINDRICAL_SURFACE ( 'NONE', #692, 2.999999999999999112 ) ;
#67 = EDGE_CURVE ( 'NONE', #662, #405, #491, .T. ) ;
#68 = DIRECTION ( 'NONE',  ( 1.000000000000000000, 0.000000000000000000, 0.000000000000000000 ) ) ;
#69 = CARTESIAN_POINT ( 'NONE',  ( -3.673940515008149233E-16, -22.32000000000000028, -62.57499981799999489 ) ) ;
#70 = AXIS2_PLACEMENT_3D ( 'NONE', #718, #913, #200 ) ;
#71 = ORIENTED_EDGE ( 'NONE', *, *, #910, .F. ) ;
#72 = CARTESIAN_POINT ( 'NONE',  ( 34.00000000000000000, -19.32000000000000028, 3.480000170000001170 ) ) ;
#73 = CIRCLE ( 'NONE', #238, 3.000000000000001332 ) ;
#74 = LINE ( 'NONE', #225, #524 ) ;
#75 = DIRECTION ( 'NONE',  ( 0.000000000000000000, 0.000000000000000000, -1.000000000000000000 ) ) ;
#76 = ORIENTED_EDGE ( 'NONE', *, *, #581, .T. ) ;
#77 = CARTESIAN_POINT ( 'NONE',  ( 34.00000000000000000, -19.32000000000000028, -2.519999830000001495 ) ) ;
#78 = CIRCLE ( 'NONE', #120, 3.000000000000000888 ) ;
#79 = DIRECTION ( 'NONE',  ( 0.000000000000000000, 0.000000000000000000, -1.000000000000000000 ) ) ;
#80 = LINE ( 'NONE', #69, #791 ) ;
#81 = ORIENTED_EDGE ( 'NONE', *, *, #815, .T. ) ;
#82 = EDGE_CURVE ( 'NONE', #11, #366, #562, .T. ) ;
#83 = DIRECTION ( 'NONE',  ( 0.000000000000000000, 0.000000000000000000, -1.000000000000000000 ) ) ;
#84 = DIRECTION ( 'NONE',  ( 0.000000000000000000, 0.000000000000000000, -1.000000000000000000 ) ) ;
#85 = VERTEX_POINT ( 'NONE', #417 ) ;
#86 = EDGE_CURVE ( 'NONE', #499, #904, #725, .T. ) ;
#87 = AXIS2_PLACEMENT_3D ( 'NONE', #646, #436, #275 ) ;
#88 = UNCERTAINTY_MEASURE_WITH_UNIT (LENGTH_MEASURE( 1.000000000000000082E-05 ), #383, 'distance_accuracy_value', 'NONE');
#89 = DIRECTION ( 'NONE',  ( 0.000000000000000000, 0.000000000000000000, -1.000000000000000000 ) ) ;
#90 = PLANE ( 'NONE',  #203 ) ;
#91 = ORIENTED_EDGE ( 'NONE', *, *, #659, .T. ) ;
#92 = CARTESIAN_POINT ( 'NONE',  ( -37.17500000000001847, -3.000000000000000000, 0.000000000000000000 ) ) ;
#93 = CARTESIAN_POINT ( 'NONE',  ( -35.00000000000000000, 3.000000000000000000, -12.69999999999999929 ) ) ;
#94 = VERTEX_POINT ( 'NONE', #634 ) ;
#95 = CARTESIAN_POINT ( 'NONE',  ( 13.00000000000000000, -19.32000000000000028, 3.480000169999999393 ) ) ;
#96 = FACE_OUTER_BOUND ( 'NONE', #868, .T. ) ;
#97 = CC_DESIGN_PERSON_AND_ORGANIZATION_ASSIGNMENT ( #38, #669, ( #673 ) ) ;
#98 = VERTEX_POINT ( 'NONE', #221 ) ;
#99 = AXIS2_PLACEMENT_3D ( 'NONE', #808, #736, #84 ) ;
#100 = DIRECTION ( 'NONE',  ( 1.000000000000000000, 0.000000000000000000, 0.000000000000000000 ) ) ;
#101 = FACE_OUTER_BOUND ( 'NONE', #60, .T. ) ;
#102 = ORIENTED_EDGE ( 'NONE', *, *, #720, .F. ) ;
#103 = VECTOR ( 'NONE', #144, 1000.000000000000000 ) ;
#104 = CARTESIAN_POINT ( 'NONE',  ( 40.34999999999999432, -22.32000000000000028, -62.57499981799999489 ) ) ;
#105 = DIRECTION ( 'NONE',  ( 0.000000000000000000, 0.000000000000000000, 1.000000000000000000 ) ) ;
#106 = EDGE_LOOP ( 'NONE', ( #721, #325 ) ) ;
#107 = VECTOR ( 'NONE', #926, 1000.000000000000000 ) ;
#108 = APPROVAL ( #741, 'UNSPECIFIED' ) ;
#109 = COORDINATED_UNIVERSAL_TIME_OFFSET ( 5, 0, .BEHIND. ) ;
#110 = FACE_BOUND ( 'NONE', #699, .T. ) ;
#111 = ADVANCED_FACE ( 'NONE', ( #919 ), #508, .T. ) ;
#112 = EDGE_LOOP ( 'NONE', ( #684, #666 ) ) ;
#113 = VECTOR ( 'NONE', #172, 1000.000000000000000 ) ;
#114 = CARTESIAN_POINT ( 'NONE',  ( -37.17500000000023164, 3.000000000000000000, -25.39999999999999858 ) ) ;
#115 = ORIENTED_EDGE ( 'NONE', *, *, #349, .F. ) ;
#116 = VECTOR ( 'NONE', #155, 1000.000000000000114 ) ;
#117 = FACE_OUTER_BOUND ( 'NONE', #28, .T. ) ;
#118 = DIRECTION ( 'NONE',  ( -0.7071067811865457964, 0.000000000000000000, -0.7071067811865492381 ) ) ;
#119 = ORIENTED_EDGE ( 'NONE', *, *, #659, .F. ) ;
#120 = AXIS2_PLACEMENT_3D ( 'NONE', #754, #693, #105 ) ;
#121 = CALENDAR_DATE ( 2026, 26, 5 ) ;
#122 = DIRECTION ( 'NONE',  ( 1.000000000000000000, 0.000000000000000000, 0.000000000000000000 ) ) ;
#123 = DIRECTION ( 'NONE',  ( 0.000000000000000000, -1.000000000000000000, 0.000000000000000000 ) ) ;
#124 = ORIENTED_EDGE ( 'NONE', *, *, #156, .F. ) ;
#125 = CALENDAR_DATE ( 2026, 26, 5 ) ;
#126 = DIRECTION ( 'NONE',  ( -0.000000000000000000, 1.000000000000000000, -0.000000000000000000 ) ) ;
#127 = FACE_BOUND ( 'NONE', #704, .T. ) ;
#128 = CARTESIAN_POINT ( 'NONE',  ( -35.00000000000000000, -3.000000000000000000, -12.69999999999999929 ) ) ;
#129 = ORIENTED_EDGE ( 'NONE', *, *, #434, .T. ) ;
#130 = APPROVAL_STATUS ( 'not_yet_approved' ) ;
#131 = DIRECTION ( 'NONE',  ( 0.000000000000000000, 0.000000000000000000, -1.000000000000000000 ) ) ;
#132 = CARTESIAN_POINT ( 'NONE',  ( -4.999999999999997335, 3.000000000000000000, -9.699999999999999289 ) ) ;
#133 = ORIENTED_EDGE ( 'NONE', *, *, #600, .T. ) ;
#134 = CARTESIAN_POINT ( 'NONE',  ( -4.999999999999997335, 3.000000000000000000, -12.69999999999999929 ) ) ;
#135 = EDGE_LOOP ( 'NONE', ( #838, #216, #585, #848 ) ) ;
#136 = APPROVAL ( #130, 'UNSPECIFIED' ) ;
#137 = VECTOR ( 'NONE', #628, 1000.000000000000000 ) ;
#138 = CARTESIAN_POINT ( 'NONE',  ( -35.00000000000000000, 3.000000000000000000, -12.69999999999999929 ) ) ;
#139 = CARTESIAN_POINT ( 'NONE',  ( -7.994999999999974349, -3.000000000000000000, 0.000000000000000000 ) ) ;
#140 = VERTEX_POINT ( 'NONE', #795 ) ;
#141 = DIRECTION ( 'NONE',  ( 0.000000000000000000, 0.000000000000000000, -1.000000000000000000 ) ) ;
#142 = VERTEX_POINT ( 'NONE', #360 ) ;
#143 = DIRECTION ( 'NONE',  ( 1.000000000000000000, -0.000000000000000000, 1.167625975951677100E-16 ) ) ;
#144 = DIRECTION ( 'NONE',  ( -0.000000000000000000, 1.000000000000000000, -0.000000000000000000 ) ) ;
#145 = DIRECTION ( 'NONE',  ( 0.000000000000000000, 1.000000000000000000, 0.000000000000000000 ) ) ;
#146 = CIRCLE ( 'NONE', #547, 3.000000000000001332 ) ;
#147 = ORIENTED_EDGE ( 'NONE', *, *, #775, .F. ) ;
#148 = CARTESIAN_POINT ( 'NONE',  ( -35.00000000000000000, 3.000000000000000000, -15.70000000000000284 ) ) ;
#149 = CIRCLE ( 'NONE', #677, 3.000000000000002665 ) ;
#150 = FACE_OUTER_BOUND ( 'NONE', #320, .T. ) ;
#151 = CARTESIAN_POINT ( 'NONE',  ( -3.673940306818267335E-16, 73.63373767758804433, 7.995000000000057838 ) ) ;
#152 = ADVANCED_FACE ( 'NONE', ( #425 ), #849, .F. ) ;
#153 = ORIENTED_EDGE ( 'NONE', *, *, #193, .T. ) ;
#154 = AXIS2_PLACEMENT_3D ( 'NONE', #218, #716, #131 ) ;
#155 = DIRECTION ( 'NONE',  ( 0.7071067811865197061, 0.000000000000000000, -0.7071067811865752173 ) ) ;
#156 = EDGE_CURVE ( 'NONE', #809, #925, #80, .T. ) ;
#157 = CARTESIAN_POINT ( 'NONE',  ( 5.000000000000007994, -16.32000000000000028, -62.57499981799999489 ) ) ;
#158 = ORIENTED_EDGE ( 'NONE', *, *, #317, .T. ) ;
#159 = CARTESIAN_POINT ( 'NONE',  ( 40.34999999999999432, -16.32000000000000028, 7.995000170000000850 ) ) ;
#160 = CARTESIAN_POINT ( 'NONE',  ( 34.00000000000000000, -22.32000000000000028, 0.4800001699999997262 ) ) ;
#161 = ORIENTED_EDGE ( 'NONE', *, *, #246, .T. ) ;
#162 = VECTOR ( 'NONE', #441, 1000.000000000000000 ) ;
#163 = CYLINDRICAL_SURFACE ( 'NONE', #586, 3.000000000000001332 ) ;
#164 = LOCAL_TIME ( 12, 16, 19.00000000000000000, #621 ) ;
#165 = CARTESIAN_POINT ( 'NONE',  ( 8.274938408612480253E-15, 73.63373767758804433, -62.57499981799999489 ) ) ;
#166 = ORIENTED_EDGE ( 'NONE', *, *, #470, .F. ) ;
#167 = EDGE_CURVE ( 'NONE', #595, #94, #450, .T. ) ;
#168 = LINE ( 'NONE', #457, #833 ) ;
#169 = AXIS2_PLACEMENT_3D ( 'NONE', #824, #40, #615 ) ;
#170 = VERTEX_POINT ( 'NONE', #779 ) ;
#171 = PERSON_AND_ORGANIZATION ( #415, #873 ) ;
#172 = DIRECTION ( 'NONE',  ( -0.000000000000000000, -1.000000000000000000, -0.000000000000000000 ) ) ;
#173 = ORIENTED_EDGE ( 'NONE', *, *, #86, .T. ) ;
#174 = AXIS2_PLACEMENT_3D ( 'NONE', #93, #594, #589 ) ;
#175 = PERSON_AND_ORGANIZATION ( #415, #873 ) ;
#176 = FACE_BOUND ( 'NONE', #715, .T. ) ;
#177 = ORIENTED_EDGE ( 'NONE', *, *, #815, .F. ) ;
#178 = VECTOR ( 'NONE', #810, 1000.000000000000000 ) ;
#179 = EDGE_CURVE ( 'NONE', #925, #663, #64, .T. ) ;
#180 = ADVANCED_FACE ( 'NONE', ( #281 ), #882, .F. ) ;
#181 = APPROVAL_DATE_TIME ( #823, #108 ) ;
#182 = CARTESIAN_POINT ( 'NONE',  ( 8.274938408612480253E-15, 73.63373767758804433, -62.57499981799999489 ) ) ;
#183 = EDGE_CURVE ( 'NONE', #11, #170, #670, .T. ) ;
#184 = ORIENTED_EDGE ( 'NONE', *, *, #880, .T. ) ;
#185 = VECTOR ( 'NONE', #792, 1000.000000000000000 ) ;
#186 = CARTESIAN_POINT ( 'NONE',  ( 12.99999999999999822, -22.32000000000000028, -55.51999982999999617 ) ) ;
#187 = VERTEX_POINT ( 'NONE', #512 ) ;
#188 = VECTOR ( 'NONE', #392, 1000.000000000000000 ) ;
#189 = FACE_OUTER_BOUND ( 'NONE', #636, .T. ) ;
#190 = ADVANCED_BREP_SHAPE_REPRESENTATION ( 'Z-Axis Limit switch mount', ( #294, #464 ), #752 ) ;
#191 = FACE_OUTER_BOUND ( 'NONE', #284, .T. ) ;
#192 = EDGE_LOOP ( 'NONE', ( #672, #607, #260, #411 ) ) ;
#193 = EDGE_CURVE ( 'NONE', #658, #98, #146, .T. ) ;
#194 = DIRECTION ( 'NONE',  ( 0.000000000000000000, -0.000000000000000000, 1.000000000000000000 ) ) ;
#195 = DIRECTION ( 'NONE',  ( 0.000000000000000000, -1.000000000000000000, 0.000000000000000000 ) ) ;
#196 = VERTEX_POINT ( 'NONE', #311 ) ;
#197 = AXIS2_PLACEMENT_3D ( 'NONE', #340, #493, #423 ) ;
#198 = CARTESIAN_POINT ( 'NONE',  ( 5.000000000000000888, 0.000000000000000000, 5.838129879758385995E-16 ) ) ;
#199 = FACE_BOUND ( 'NONE', #575, .T. ) ;
#200 = DIRECTION ( 'NONE',  ( 0.000000000000000000, 0.000000000000000000, 1.000000000000000000 ) ) ;
#201 = ADVANCED_FACE ( 'NONE', ( #96 ), #373, .T. ) ;
#202 = FACE_OUTER_BOUND ( 'NONE', #316, .T. ) ;
#203 = AXIS2_PLACEMENT_3D ( 'NONE', #745, #526, #518 ) ;
#204 = DIRECTION ( 'NONE',  ( -0.000000000000000000, -1.000000000000000000, -0.000000000000000000 ) ) ;
#205 = DIRECTION ( 'NONE',  ( 0.000000000000000000, -1.000000000000000000, 0.000000000000000000 ) ) ;
#206 = VERTEX_POINT ( 'NONE', #157 ) ;
#207 = EDGE_CURVE ( 'NONE', #234, #727, #924, .T. ) ;
#208 = CARTESIAN_POINT ( 'NONE',  ( 13.00000000000000000, -19.32000000000000028, 0.4800001699999997262 ) ) ;
#209 = ADVANCED_FACE ( 'NONE', ( #521 ), #226, .F. ) ;
#210 = DIRECTION ( 'NONE',  ( 0.000000000000000000, 0.000000000000000000, 1.000000000000000000 ) ) ;
#211 = FACE_OUTER_BOUND ( 'NONE', #817, .T. ) ;
#212 = VERTEX_POINT ( 'NONE', #454 ) ;
#213 = CARTESIAN_POINT ( 'NONE',  ( 8.274938408612480253E-15, -3.000000000000000000, -62.57499981799999489 ) ) ;
#214 = CARTESIAN_POINT ( 'NONE',  ( 34.00000000000000000, -16.32000000000000028, -58.51999983000000327 ) ) ;
#215 = CARTESIAN_POINT ( 'NONE',  ( -37.17500000000023164, 3.000000000000000000, -25.39999999999999858 ) ) ;
#216 = ORIENTED_EDGE ( 'NONE', *, *, #15, .T. ) ;
#217 = ORIENTED_EDGE ( 'NONE', *, *, #418, .T. ) ;
#218 = CARTESIAN_POINT ( 'NONE',  ( -40.00000000000000000, 3.000000000000000000, 0.000000000000000000 ) ) ;
#219 = EDGE_CURVE ( 'NONE', #405, #662, #235, .T. ) ;
#220 = DIRECTION ( 'NONE',  ( 0.000000000000000000, -1.000000000000000000, 0.000000000000000000 ) ) ;
#221 = CARTESIAN_POINT ( 'NONE',  ( 34.00000000000000000, -22.32000000000000028, -2.519999830000001495 ) ) ;
#222 = AXIS2_PLACEMENT_3D ( 'NONE', #21, #384, #377 ) ;
#223 = VERTEX_POINT ( 'NONE', #370 ) ;
#224 = EDGE_CURVE ( 'NONE', #461, #471, #53, .T. ) ;
#225 = CARTESIAN_POINT ( 'NONE',  ( -3.673940515008153177E-16, -3.000000000000000000, 7.995000170000000850 ) ) ;
#226 = PLANE ( 'NONE',  #338 ) ;
#227 = ORIENTED_EDGE ( 'NONE', *, *, #246, .F. ) ;
#228 = VECTOR ( 'NONE', #679, 1000.000000000000000 ) ;
#229 = DIRECTION ( 'NONE',  ( 0.000000000000000000, -1.000000000000000000, 8.978899979176017947E-17 ) ) ;
#230 = DIRECTION ( 'NONE',  ( 0.000000000000000000, -1.000000000000000000, 0.000000000000000000 ) ) ;
#231 = ORIENTED_EDGE ( 'NONE', *, *, #19, .T. ) ;
#232 = LINE ( 'NONE', #645, #116 ) ;
#233 = DIRECTION ( 'NONE',  ( -1.000000000000000000, 0.000000000000000000, -0.000000000000000000 ) ) ;
#234 = VERTEX_POINT ( 'NONE', #661 ) ;
#235 = CIRCLE ( 'NONE', #99, 3.000000000000002665 ) ;
#236 = ADVANCED_FACE ( 'NONE', ( #657 ), #90, .F. ) ;
#237 = APPROVAL_ROLE ( '' ) ;
#238 = AXIS2_PLACEMENT_3D ( 'NONE', #44, #807, #83 ) ;
#239 = DIRECTION ( 'NONE',  ( 0.000000000000000000, 0.000000000000000000, 1.000000000000000000 ) ) ;
#240 = ORIENTED_EDGE ( 'NONE', *, *, #568, .T. ) ;
#241 = APPLICATION_PROTOCOL_DEFINITION ( 'international standard', 'config_control_design', 1994, #303 ) ;
#242 = LINE ( 'NONE', #165, #462 ) ;
#243 = VECTOR ( 'NONE', #126, 1000.000000000000000 ) ;
#244 = ORIENTED_EDGE ( 'NONE', *, *, #668, .T. ) ;
#245 = DATE_AND_TIME ( #814, #739 ) ;
#246 = EDGE_CURVE ( 'NONE', #196, #206, #13, .T. ) ;
#247 = DIRECTION ( 'NONE',  ( 0.000000000000000000, 0.000000000000000000, 1.000000000000000000 ) ) ;
#248 = ORIENTED_EDGE ( 'NONE', *, *, #321, .T. ) ;
#249 = EDGE_CURVE ( 'NONE', #10, #790, #506, .T. ) ;
#250 = EDGE_CURVE ( 'NONE', #187, #302, #297, .T. ) ;
#251 = APPROVAL_STATUS ( 'not_yet_approved' ) ;
#252 = CARTESIAN_POINT ( 'NONE',  ( -4.999999999999997335, 3.000000000000000000, -9.699999999999999289 ) ) ;
#253 = ORIENTED_EDGE ( 'NONE', *, *, #889, .T. ) ;
#254 = CARTESIAN_POINT ( 'NONE',  ( -40.00000000000000000, -3.000000000000000000, -2.824999999999993960 ) ) ;
#255 = ORIENTED_EDGE ( 'NONE', *, *, #179, .F. ) ;
#256 = VECTOR ( 'NONE', #488, 1000.000000000000000 ) ;
#257 = CC_DESIGN_APPROVAL ( #136, ( #566 ) ) ;
#258 = FACE_OUTER_BOUND ( 'NONE', #135, .T. ) ;
#259 = CARTESIAN_POINT ( 'NONE',  ( -37.17500000000001847, 3.000000000000000000, 0.000000000000000000 ) ) ;
#260 = ORIENTED_EDGE ( 'NONE', *, *, #470, .T. ) ;
#261 = EDGE_CURVE ( 'NONE', #466, #809, #242, .T. ) ;
#262 = AXIS2_PLACEMENT_3D ( 'NONE', #151, #2, #205 ) ;
#263 = APPROVAL_DATE_TIME ( #401, #136 ) ;
#264 = PLANE ( 'NONE',  #598 ) ;
#265 = CARTESIAN_POINT ( 'NONE',  ( -3.673940515008153177E-16, 73.63373767758804433, 7.995000170000000850 ) ) ;
#266 = VERTEX_POINT ( 'NONE', #307 ) ;
#267 = DATE_TIME_ROLE ( 'classification_date' ) ;
#268 = CYLINDRICAL_SURFACE ( 'NONE', #840, 2.999999999999999556 ) ;
#269 = DIRECTION ( 'NONE',  ( 1.000000000000000000, -0.000000000000000000, -0.000000000000000000 ) ) ;
#270 = ORIENTED_EDGE ( 'NONE', *, *, #19, .F. ) ;
#271 = AXIS2_PLACEMENT_3D ( 'NONE', #847, #410, #210 ) ;
#272 = PLANE ( 'NONE',  #767 ) ;
#273 = PRODUCT_DEFINITION ( 'UNKNOWN', '', #299, #630 ) ;
#274 = LINE ( 'NONE', #132, #635 ) ;
#275 = DIRECTION ( 'NONE',  ( -1.224646799147353207E-16, 0.000000000000000000, 1.000000000000000000 ) ) ;
#276 = ORIENTED_EDGE ( 'NONE', *, *, #740, .T. ) ;
#277 = ADVANCED_FACE ( 'NONE', ( #816 ), #301, .F. ) ;
#278 = CARTESIAN_POINT ( 'NONE',  ( 8.274938408612480253E-15, -3.000000000000002665, -62.57499981799999489 ) ) ;
#279 = VECTOR ( 'NONE', #348, 1000.000000000000000 ) ;
#280 = CARTESIAN_POINT ( 'NONE',  ( 34.00000000000000000, -22.32000000000000028, -55.51999983000000327 ) ) ;
#281 = FACE_OUTER_BOUND ( 'NONE', #458, .T. ) ;
#282 = ORIENTED_EDGE ( 'NONE', *, *, #845, .T. ) ;
#283 = AXIS2_PLACEMENT_3D ( 'NONE', #507, #359, #724 ) ;
#284 = EDGE_LOOP ( 'NONE', ( #743, #514, #365, #378 ) ) ;
#285 = FACE_OUTER_BOUND ( 'NONE', #192, .T. ) ;
#286 = DIRECTION ( 'NONE',  ( 0.000000000000000000, -1.000000000000000000, 0.000000000000000000 ) ) ;
#287 = DIRECTION ( 'NONE',  ( 0.000000000000000000, 0.000000000000000000, 1.000000000000000000 ) ) ;
#288 = ORIENTED_EDGE ( 'NONE', *, *, #600, .F. ) ;
#289 = ORIENTED_EDGE ( 'NONE', *, *, #763, .T. ) ;
#290 = CARTESIAN_POINT ( 'NONE',  ( -3.673940515008153177E-16, 3.000000000000002665, 7.995000170000000850 ) ) ;
#291 = CARTESIAN_POINT ( 'NONE',  ( -7.994999999999974349, 3.000000000000000000, 0.000000000000000000 ) ) ;
#292 = CARTESIAN_POINT ( 'NONE',  ( 5.000000000000007994, 3.000000000000002665, -62.57499981799999489 ) ) ;
#293 = ORIENTED_EDGE ( 'NONE', *, *, #548, .T. ) ;
#294 = MANIFOLD_SOLID_BREP ( 'Boss-Extrude6', #862 ) ;
#295 = ORIENTED_EDGE ( 'NONE', *, *, #51, .F. ) ;
#296 = CARTESIAN_POINT ( 'NONE',  ( 12.99999999999999822, -19.32000000000000028, -52.51999982999998906 ) ) ;
#297 = LINE ( 'NONE', #584, #869 ) ;
#298 = EDGE_LOOP ( 'NONE', ( #746, #442, #374, #288 ) ) ;
#299 = PRODUCT_DEFINITION_FORMATION_WITH_SPECIFIED_SOURCE ( 'ANY', '', #673, .NOT_KNOWN. ) ;
#300 = LINE ( 'NONE', #801, #438 ) ;
#301 = CYLINDRICAL_SURFACE ( 'NONE', #174, 3.000000000000002665 ) ;
#302 = VERTEX_POINT ( 'NONE', #24 ) ;
#303 = APPLICATION_CONTEXT ( 'configuration controlled 3d designs of mechanical parts and assemblies' ) ;
#304 = VERTEX_POINT ( 'NONE', #811 ) ;
#305 = AXIS2_PLACEMENT_3D ( 'NONE', #619, #783, #416 ) ;
#306 = CARTESIAN_POINT ( 'NONE',  ( -7.994999999999974349, 3.000000000000000000, 0.000000000000000000 ) ) ;
#307 = CARTESIAN_POINT ( 'NONE',  ( 8.274938408612480253E-15, 3.000000000000002665, -62.57499981799999489 ) ) ;
#308 = EDGE_CURVE ( 'NONE', #663, #223, #168, .T. ) ;
#309 = ORIENTED_EDGE ( 'NONE', *, *, #82, .F. ) ;
#310 = CARTESIAN_POINT ( 'NONE',  ( 0.000000000000000000, 0.000000000000000000, 0.000000000000000000 ) ) ;
#311 = CARTESIAN_POINT ( 'NONE',  ( 5.000000000000004441, -16.32000000000000028, 7.995000170000002626 ) ) ;
#312 = ORIENTED_EDGE ( 'NONE', *, *, #517, .F. ) ;
#313 = VECTOR ( 'NONE', #533, 1000.000000000000000 ) ;
#314 = VECTOR ( 'NONE', #429, 1000.000000000000000 ) ;
#315 = DIRECTION ( 'NONE',  ( 0.000000000000000000, 0.000000000000000000, -1.000000000000000000 ) ) ;
#316 = EDGE_LOOP ( 'NONE', ( #781, #217, #23, #599 ) ) ;
#317 = EDGE_CURVE ( 'NONE', #266, #466, #27, .T. ) ;
#318 = DIRECTION ( 'NONE',  ( 0.000000000000000000, 0.000000000000000000, 1.000000000000000000 ) ) ;
#319 = PLANE ( 'NONE',  #326 ) ;
#320 = EDGE_LOOP ( 'NONE', ( #153, #76, #857, #532 ) ) ;
#321 = EDGE_CURVE ( 'NONE', #341, #361, #582, .T. ) ;
#322 = CC_DESIGN_SECURITY_CLASSIFICATION ( #566, ( #299 ) ) ;
#323 = CALENDAR_DATE ( 2026, 26, 5 ) ;
#324 = DIRECTION ( 'NONE',  ( 0.000000000000000000, -1.000000000000000000, 0.000000000000000000 ) ) ;
#325 = ORIENTED_EDGE ( 'NONE', *, *, #412, .F. ) ;
#326 = AXIS2_PLACEMENT_3D ( 'NONE', #544, #536, #194 ) ;
#327 = PERSON_AND_ORGANIZATION_ROLE ( 'classification_officer' ) ;
#328 = LINE ( 'NONE', #897, #850 ) ;
#329 = VECTOR ( 'NONE', #535, 1000.000000000000000 ) ;
#330 = ORIENTED_EDGE ( 'NONE', *, *, #755, .T. ) ;
#331 = CARTESIAN_POINT ( 'NONE',  ( -35.00000000000000000, -3.000000000000000000, -15.70000000000000284 ) ) ;
#332 = LINE ( 'NONE', #769, #256 ) ;
#333 = VERTEX_POINT ( 'NONE', #398 ) ;
#334 = ADVANCED_FACE ( 'NONE', ( #894, #35, #32 ), #319, .T. ) ;
#335 = LINE ( 'NONE', #606, #313 ) ;
#336 = CARTESIAN_POINT ( 'NONE',  ( 34.00000000000000000, -16.32000000000000028, -55.51999983000000327 ) ) ;
#337 = ORIENTED_EDGE ( 'NONE', *, *, #515, .F. ) ;
#338 = AXIS2_PLACEMENT_3D ( 'NONE', #597, #891, #239 ) ;
#339 = CARTESIAN_POINT ( 'NONE',  ( -37.17500000000001847, 3.000000000000000000, 0.000000000000000000 ) ) ;
#340 = CARTESIAN_POINT ( 'NONE',  ( 12.99999999999999822, -16.32000000000000028, -55.51999982999999617 ) ) ;
#341 = VERTEX_POINT ( 'NONE', #622 ) ;
#342 = CIRCLE ( 'NONE', #419, 3.000000000000002665 ) ;
#343 = EDGE_CURVE ( 'NONE', #770, #85, #328, .T. ) ;
#344 = DATE_AND_TIME ( #121, #164 ) ;
#345 = FACE_OUTER_BOUND ( 'NONE', #874, .T. ) ;
#346 = DIRECTION ( 'NONE',  ( 0.000000000000000000, -1.000000000000000000, 0.000000000000000000 ) ) ;
#347 = ORIENTED_EDGE ( 'NONE', *, *, #581, .F. ) ;
#348 = DIRECTION ( 'NONE',  ( 0.000000000000000000, -1.000000000000000000, 0.000000000000000000 ) ) ;
#349 = EDGE_CURVE ( 'NONE', #85, #499, #335, .T. ) ;
#350 = ORIENTED_EDGE ( 'NONE', *, *, #793, .T. ) ;
#351 = VECTOR ( 'NONE', #921, 1000.000000000000000 ) ;
#352 = ADVANCED_FACE ( 'NONE', ( #468, #686, #258, #905, #110 ), #264, .T. ) ;
#353 = DIRECTION ( 'NONE',  ( 0.000000000000000000, 0.000000000000000000, 1.000000000000000000 ) ) ;
#354 = FACE_OUTER_BOUND ( 'NONE', #474, .T. ) ;
#355 = CARTESIAN_POINT ( 'NONE',  ( 40.34999999999999432, -22.32000000000000028, -62.57499981799999489 ) ) ;
#356 = EDGE_LOOP ( 'NONE', ( #227, #33, #337, #774 ) ) ;
#357 = LINE ( 'NONE', #553, #351 ) ;
#358 = AXIS2_PLACEMENT_3D ( 'NONE', #602, #876, #799 ) ;
#359 = DIRECTION ( 'NONE',  ( 0.000000000000000000, 1.000000000000000000, 0.000000000000000000 ) ) ;
#360 = CARTESIAN_POINT ( 'NONE',  ( 40.34999999999999432, -16.32000000000000028, -62.57499981799999489 ) ) ;
#361 = VERTEX_POINT ( 'NONE', #764 ) ;
#362 = VECTOR ( 'NONE', #859, 1000.000000000000000 ) ;
#363 = FACE_OUTER_BOUND ( 'NONE', #298, .T. ) ;
#364 = CARTESIAN_POINT ( 'NONE',  ( -3.673940515008153177E-16, -3.000000000000002665, 7.995000170000000850 ) ) ;
#365 = ORIENTED_EDGE ( 'NONE', *, *, #914, .T. ) ;
#366 = VERTEX_POINT ( 'NONE', #252 ) ;
#367 = ADVANCED_FACE ( 'NONE', ( #176, #101, #758 ), #549, .T. ) ;
#368 = VECTOR ( 'NONE', #836, 1000.000000000000000 ) ;
#369 = LINE ( 'NONE', #296, #762 ) ;
#370 = CARTESIAN_POINT ( 'NONE',  ( 7.624920943007711160E-15, -22.32000000000000028, 7.995000170000002626 ) ) ;
#371 = ORIENTED_EDGE ( 'NONE', *, *, #613, .F. ) ;
#372 = CARTESIAN_POINT ( 'NONE',  ( 34.00000000000000000, -22.32000000000000028, -58.51999983000000327 ) ) ;
#373 = PLANE ( 'NONE',  #907 ) ;
#374 = ORIENTED_EDGE ( 'NONE', *, *, #343, .T. ) ;
#375 = CC_DESIGN_PERSON_AND_ORGANIZATION_ASSIGNMENT ( #171, #819, ( #299 ) ) ;
#376 = LINE ( 'NONE', #593, #550 ) ;
#377 = DIRECTION ( 'NONE',  ( 0.000000000000000000, 0.000000000000000000, -1.000000000000000000 ) ) ;
#378 = ORIENTED_EDGE ( 'NONE', *, *, #30, .F. ) ;
#379 = EDGE_CURVE ( 'NONE', #266, #590, #899, .T. ) ;
#380 = SECURITY_CLASSIFICATION_LEVEL ( 'unclassified' ) ;
#381 = CARTESIAN_POINT ( 'NONE',  ( 5.000000000000000000, -16.32000000000000028, 7.995000170000002626 ) ) ;
#382 = ORIENTED_EDGE ( 'NONE', *, *, #317, .F. ) ;
#383 =( LENGTH_UNIT ( ) NAMED_UNIT ( * ) SI_UNIT ( .MILLI., .METRE. ) );
#384 = DIRECTION ( 'NONE',  ( 0.000000000000000000, -1.000000000000000000, 0.000000000000000000 ) ) ;
#385 = ORIENTED_EDGE ( 'NONE', *, *, #418, .F. ) ;
#386 = EDGE_CURVE ( 'NONE', #770, #302, #831, .T. ) ;
#387 = VECTOR ( 'NONE', #651, 1000.000000000000000 ) ;
#388 = ADVANCED_FACE ( 'NONE', ( #117 ), #820, .F. ) ;
#389 = ADVANCED_FACE ( 'NONE', ( #189 ), #406, .F. ) ;
#390 = PERSON_AND_ORGANIZATION ( #415, #873 ) ;
#391 = AXIS2_PLACEMENT_3D ( 'NONE', #735, #220, #89 ) ;
#392 = DIRECTION ( 'NONE',  ( 0.000000000000000000, -1.000000000000000000, 0.000000000000000000 ) ) ;
#393 = ORIENTED_EDGE ( 'NONE', *, *, #910, .T. ) ;
#394 = PERSON_AND_ORGANIZATION ( #415, #873 ) ;
#395 = DIRECTION ( 'NONE',  ( 0.000000000000000000, -0.000000000000000000, -1.000000000000000000 ) ) ;
#396 = ORIENTED_EDGE ( 'NONE', *, *, #587, .T. ) ;
#397 = PERSON_AND_ORGANIZATION ( #415, #873 ) ;
#398 = CARTESIAN_POINT ( 'NONE',  ( 13.00000000000000000, -22.32000000000000028, -2.519999829999999275 ) ) ;
#399 = ORIENTED_EDGE ( 'NONE', *, *, #818, .T. ) ;
#400 = AXIS2_PLACEMENT_3D ( 'NONE', #128, #784, #708 ) ;
#401 = DATE_AND_TIME ( #125, #729 ) ;
#402 = ADVANCED_FACE ( 'NONE', ( #610 ), #465, .F. ) ;
#403 = CARTESIAN_POINT ( 'NONE',  ( 34.00000000000000000, -19.32000000000000028, -55.51999983000000327 ) ) ;
#404 = LOCAL_TIME ( 12, 16, 19.00000000000000000, #530 ) ;
#405 = VERTEX_POINT ( 'NONE', #331 ) ;
#406 = PLANE ( 'NONE',  #726 ) ;
#407 = CARTESIAN_POINT ( 'NONE',  ( -35.00000000000000000, 3.000000000000000000, -15.70000000000000284 ) ) ;
#408 = ORIENTED_EDGE ( 'NONE', *, *, #637, .F. ) ;
#409 = CARTESIAN_POINT ( 'NONE',  ( 12.99999999999999822, -16.32000000000000028, -52.51999982999998906 ) ) ;
#410 = DIRECTION ( 'NONE',  ( -0.000000000000000000, 1.000000000000000000, -0.000000000000000000 ) ) ;
#411 = ORIENTED_EDGE ( 'NONE', *, *, #685, .F. ) ;
#412 = EDGE_CURVE ( 'NONE', #94, #595, #78, .T. ) ;
#413 = PERSON_AND_ORGANIZATION ( #415, #873 ) ;
#414 = LINE ( 'NONE', #846, #556 ) ;
#415 = PERSON ( 'UNSPECIFIED', 'UNSPECIFIED', 'UNSPECIFIED', ('UNSPECIFIED'), ('UNSPECIFIED'), ('UNSPECIFIED') ) ;
#416 = DIRECTION ( 'NONE',  ( 0.000000000000000000, -0.000000000000000000, 1.000000000000000000 ) ) ;
#417 = CARTESIAN_POINT ( 'NONE',  ( -40.00000000000000000, 3.000000000000000000, -2.824999999999993960 ) ) ;
#418 = EDGE_CURVE ( 'NONE', #94, #662, #683, .T. ) ;
#419 = AXIS2_PLACEMENT_3D ( 'NONE', #730, #516, #717 ) ;
#420 = VERTEX_POINT ( 'NONE', #916 ) ;
#421 = SHAPE_DEFINITION_REPRESENTATION ( #803, #190 ) ;
#422 = DIRECTION ( 'NONE',  ( -0.000000000000000000, 1.000000000000000000, -0.000000000000000000 ) ) ;
#423 = DIRECTION ( 'NONE',  ( 0.000000000000000000, 0.000000000000000000, -1.000000000000000000 ) ) ;
#424 = ORIENTED_EDGE ( 'NONE', *, *, #722, .T. ) ;
#425 = FACE_OUTER_BOUND ( 'NONE', #855, .T. ) ;
#426 = ORIENTED_EDGE ( 'NONE', *, *, #249, .T. ) ;
#427 = AXIS2_PLACEMENT_3D ( 'NONE', #138, #492, #576 ) ;
#428 = CARTESIAN_POINT ( 'NONE',  ( 34.00000000000000000, -19.32000000000000028, -58.51999983000000327 ) ) ;
#429 = DIRECTION ( 'NONE',  ( -1.000000000000000000, 0.000000000000000000, 0.000000000000000000 ) ) ;
#430 = ORIENTED_EDGE ( 'NONE', *, *, #452, .T. ) ;
#431 = LINE ( 'NONE', #703, #37 ) ;
#432 = ORIENTED_EDGE ( 'NONE', *, *, #753, .F. ) ;
#433 = LINE ( 'NONE', #72, #185 ) ;
#434 = EDGE_CURVE ( 'NONE', #206, #142, #414, .T. ) ;
#435 = LINE ( 'NONE', #525, #329 ) ;
#436 = DIRECTION ( 'NONE',  ( -1.000000000000000000, 0.000000000000000000, -1.224646799147353207E-16 ) ) ;
#437 = ORIENTED_EDGE ( 'NONE', *, *, #740, .F. ) ;
#438 = VECTOR ( 'NONE', #229, 1000.000000000000000 ) ;
#439 = DIRECTION ( 'NONE',  ( -0.000000000000000000, -1.000000000000000000, -0.000000000000000000 ) ) ;
#440 = DIRECTION ( 'NONE',  ( -0.000000000000000000, 1.000000000000000000, -0.000000000000000000 ) ) ;
#441 = DIRECTION ( 'NONE',  ( -1.167625975951677100E-16, 0.000000000000000000, 1.000000000000000000 ) ) ;
#442 = ORIENTED_EDGE ( 'NONE', *, *, #386, .F. ) ;
#443 = VECTOR ( 'NONE', #118, 1000.000000000000000 ) ;
#444 = CARTESIAN_POINT ( 'NONE',  ( 34.00000000000000000, -16.32000000000000028, 0.4800001699999997262 ) ) ;
#445 = DIRECTION ( 'NONE',  ( -0.000000000000000000, -1.000000000000000000, -0.000000000000000000 ) ) ;
#446 = EDGE_LOOP ( 'NONE', ( #133, #592, #244, #330, #688, #295, #642, #504 ) ) ;
#447 = ADVANCED_FACE ( 'NONE', ( #202 ), #865, .F. ) ;
#448 = CARTESIAN_POINT ( 'NONE',  ( -3.673940515008149233E-16, -22.32000000000000028, -62.57499981799999489 ) ) ;
#449 = CARTESIAN_POINT ( 'NONE',  ( -4.999999999999997335, 3.000000000000000000, -12.69999999999999929 ) ) ;
#450 = CIRCLE ( 'NONE', #70, 3.000000000000000888 ) ;
#451 = ORIENTED_EDGE ( 'NONE', *, *, #654, .T. ) ;
#452 = EDGE_CURVE ( 'NONE', #206, #590, #627, .T. ) ;
#453 = PERSON_AND_ORGANIZATION_ROLE ( 'design_supplier' ) ;
#454 = CARTESIAN_POINT ( 'NONE',  ( 5.000000000000000000, 3.000000000000002665, 7.995000170000000850 ) ) ;
#455 = EDGE_LOOP ( 'NONE', ( #920, #738, #255, #695 ) ) ;
#456 = CARTESIAN_POINT ( 'NONE',  ( 34.00000000000000000, -16.32000000000000028, -55.51999983000000327 ) ) ;
#457 = CARTESIAN_POINT ( 'NONE',  ( 40.34999999999999432, -22.32000000000000028, 7.995000170000000850 ) ) ;
#458 = EDGE_LOOP ( 'NONE', ( #821, #676, #350, #14 ) ) ;
#459 = APPLICATION_CONTEXT ( 'configuration controlled 3d designs of mechanical parts and assemblies' ) ;
#460 = DIRECTION ( 'NONE',  ( 0.000000000000000000, -1.000000000000000000, 0.000000000000000000 ) ) ;
#461 = VERTEX_POINT ( 'NONE', #409 ) ;
#462 = VECTOR ( 'NONE', #742, 1000.000000000000000 ) ;
#463 = DIRECTION ( 'NONE',  ( 0.000000000000000000, 0.000000000000000000, -1.000000000000000000 ) ) ;
#464 = AXIS2_PLACEMENT_3D ( 'NONE', #310, #318, #100 ) ;
#465 = CYLINDRICAL_SURFACE ( 'NONE', #652, 3.000000000000002665 ) ;
#466 = VERTEX_POINT ( 'NONE', #278 ) ;
#467 = PERSON_AND_ORGANIZATION_ROLE ( 'creator' ) ;
#468 = FACE_BOUND ( 'NONE', #112, .T. ) ;
#469 = VECTOR ( 'NONE', #501, 1000.000000000000000 ) ;
#470 = EDGE_CURVE ( 'NONE', #234, #304, #852, .T. ) ;
#471 = VERTEX_POINT ( 'NONE', #700 ) ;
#472 = ADVANCED_FACE ( 'NONE', ( #345 ), #268, .F. ) ;
#473 = DIRECTION ( 'NONE',  ( 0.000000000000000000, -1.000000000000000000, 0.000000000000000000 ) ) ;
#474 = EDGE_LOOP ( 'NONE', ( #45, #253, #711, #534 ) ) ;
#475 = AXIS2_PLACEMENT_3D ( 'NONE', #560, #923, #287 ) ;
#476 = DIRECTION ( 'NONE',  ( 0.000000000000000000, -1.000000000000000000, 0.000000000000000000 ) ) ;
#477 = AXIS2_PLACEMENT_3D ( 'NONE', #577, #571, #68 ) ;
#478 = CARTESIAN_POINT ( 'NONE',  ( -3.673940515008153177E-16, 73.63373767758804433, 7.995000170000000850 ) ) ;
#479 = EDGE_LOOP ( 'NONE', ( #309, #870 ) ) ;
#480 = DIRECTION ( 'NONE',  ( 0.000000000000000000, 1.000000000000000000, 0.000000000000000000 ) ) ;
#481 = ADVANCED_FACE ( 'NONE', ( #649 ), #272, .T. ) ;
#482 = DIRECTION ( 'NONE',  ( 0.7071067811865492381, 0.000000000000000000, -0.7071067811865457964 ) ) ;
#483 = EDGE_LOOP ( 'NONE', ( #918, #91 ) ) ;
#484 = VECTOR ( 'NONE', #195, 1000.000000000000000 ) ;
#485 = ADVANCED_FACE ( 'NONE', ( #363 ), #557, .F. ) ;
#486 = ADVANCED_FACE ( 'NONE', ( #285 ), #841, .F. ) ;
#487 = CARTESIAN_POINT ( 'NONE',  ( 5.000000000000007994, -16.32000000000000028, -62.57499981799999489 ) ) ;
#488 = DIRECTION ( 'NONE',  ( -0.000000000000000000, -0.000000000000000000, 1.000000000000000000 ) ) ;
#489 = DIRECTION ( 'NONE',  ( -0.7071067811865511255, 0.000000000000000000, 0.7071067811865440200 ) ) ;
#490 = ORIENTED_EDGE ( 'NONE', *, *, #86, .F. ) ;
#491 = CIRCLE ( 'NONE', #400, 3.000000000000002665 ) ;
#492 = DIRECTION ( 'NONE',  ( -0.000000000000000000, -1.000000000000000000, -0.000000000000000000 ) ) ;
#493 = DIRECTION ( 'NONE',  ( 0.000000000000000000, -1.000000000000000000, 0.000000000000000000 ) ) ;
#494 = DIRECTION ( 'NONE',  ( 1.000000000000000000, 0.000000000000000000, 0.000000000000000000 ) ) ;
#495 = ORIENTED_EDGE ( 'NONE', *, *, #308, .F. ) ;
#496 = CARTESIAN_POINT ( 'NONE',  ( -7.994999999999974349, -3.000000000000000000, 0.000000000000000000 ) ) ;
#497 = DIRECTION ( 'NONE',  ( 0.000000000000000000, -1.000000000000000000, 0.000000000000000000 ) ) ;
#498 = DIRECTION ( 'NONE',  ( 0.000000000000000000, -1.000000000000000000, 0.000000000000000000 ) ) ;
#499 = VERTEX_POINT ( 'NONE', #339 ) ;
#500 = EDGE_CURVE ( 'NONE', #727, #759, #782, .T. ) ;
#501 = DIRECTION ( 'NONE',  ( -0.000000000000000000, 1.000000000000000000, -0.000000000000000000 ) ) ;
#502 = CARTESIAN_POINT ( 'NONE',  ( 40.34999999999999432, -19.32000000000000028, 7.995000170000000850 ) ) ;
#503 = CYLINDRICAL_SURFACE ( 'NONE', #475, 3.000000000000002665 ) ;
#504 = ORIENTED_EDGE ( 'NONE', *, *, #55, .T. ) ;
#505 = LINE ( 'NONE', #148, #813 ) ;
#506 = CIRCLE ( 'NONE', #222, 3.000000000000001332 ) ;
#507 = CARTESIAN_POINT ( 'NONE',  ( -4.999999999999997335, 3.000000000000000000, -12.69999999999999929 ) ) ;
#508 = PLANE ( 'NONE',  #87 ) ;
#509 = ORIENTED_EDGE ( 'NONE', *, *, #539, .F. ) ;
#510 = AXIS2_PLACEMENT_3D ( 'NONE', #444, #1, #79 ) ;
#511 = FACE_OUTER_BOUND ( 'NONE', #829, .T. ) ;
#512 = CARTESIAN_POINT ( 'NONE',  ( -40.00000000000000000, 3.000000000000000000, -22.57500000000000639 ) ) ;
#513 = ADVANCED_FACE ( 'NONE', ( #706 ), #66, .F. ) ;
#514 = ORIENTED_EDGE ( 'NONE', *, *, #737, .T. ) ;
#515 = EDGE_CURVE ( 'NONE', #142, #797, #357, .T. ) ;
#516 = DIRECTION ( 'NONE',  ( 0.000000000000000000, -1.000000000000000000, 0.000000000000000000 ) ) ;
#517 = EDGE_CURVE ( 'NONE', #925, #142, #768, .T. ) ;
#518 = DIRECTION ( 'NONE',  ( -1.000000000000000000, 0.000000000000000000, -0.000000000000000000 ) ) ;
#519 = ORIENTED_EDGE ( 'NONE', *, *, #668, .F. ) ;
#520 = DIRECTION ( 'NONE',  ( 0.000000000000000000, 0.000000000000000000, 1.000000000000000000 ) ) ;
#521 = FACE_OUTER_BOUND ( 'NONE', #455, .T. ) ;
#522 = AXIS2_PLACEMENT_3D ( 'NONE', #134, #145, #867 ) ;
#523 = VERTEX_POINT ( 'NONE', #496 ) ;
#524 = VECTOR ( 'NONE', #794, 999.9999999999998863 ) ;
#525 = CARTESIAN_POINT ( 'NONE',  ( 12.99999999999999822, -19.32000000000000028, -58.51999982999999617 ) ) ;
#526 = DIRECTION ( 'NONE',  ( 0.000000000000000000, 0.000000000000000000, -1.000000000000000000 ) ) ;
#527 = ORIENTED_EDGE ( 'NONE', *, *, #755, .F. ) ;
#528 = AXIS2_PLACEMENT_3D ( 'NONE', #638, #422, #6 ) ;
#529 = EDGE_CURVE ( 'NONE', #212, #48, #644, .T. ) ;
#530 = COORDINATED_UNIVERSAL_TIME_OFFSET ( 5, 0, .BEHIND. ) ;
#531 = CARTESIAN_POINT ( 'NONE',  ( -4.999999999999997335, 3.000000000000000000, -15.69999999999999929 ) ) ;
#532 = ORIENTED_EDGE ( 'NONE', *, *, #548, .F. ) ;
#533 = DIRECTION ( 'NONE',  ( 0.7071067811865457964, -0.000000000000000000, 0.7071067811865492381 ) ) ;
#534 = ORIENTED_EDGE ( 'NONE', *, *, #763, .F. ) ;
#535 = DIRECTION ( 'NONE',  ( -0.000000000000000000, 1.000000000000000000, -0.000000000000000000 ) ) ;
#536 = DIRECTION ( 'NONE',  ( 0.000000000000000000, 1.000000000000000000, 0.000000000000000000 ) ) ;
#537 = ORIENTED_EDGE ( 'NONE', *, *, #412, .T. ) ;
#538 = APPROVAL ( #251, 'UNSPECIFIED' ) ;
#539 = EDGE_CURVE ( 'NONE', #466, #785, #570, .T. ) ;
#540 = MECHANICAL_CONTEXT ( 'NONE', #459, 'mechanical' ) ;
#541 = CARTESIAN_POINT ( 'NONE',  ( 34.00000000000000000, -19.32000000000000028, 0.4800001699999997262 ) ) ;
#542 = AXIS2_PLACEMENT_3D ( 'NONE', #336, #906, #632 ) ;
#543 = ORIENTED_EDGE ( 'NONE', *, *, #863, .T. ) ;
#544 = CARTESIAN_POINT ( 'NONE',  ( 0.000000000000000000, 3.000000000000000000, 0.000000000000000000 ) ) ;
#545 = LINE ( 'NONE', #139, #314 ) ;
#546 = ORIENTED_EDGE ( 'NONE', *, *, #793, .F. ) ;
#547 = AXIS2_PLACEMENT_3D ( 'NONE', #160, #460, #315 ) ;
#548 = EDGE_CURVE ( 'NONE', #658, #790, #433, .T. ) ;
#549 = PLANE ( 'NONE',  #169 ) ;
#550 = VECTOR ( 'NONE', #8, 1000.000000000000000 ) ;
#551 = LINE ( 'NONE', #777, #443 ) ;
#552 = ORIENTED_EDGE ( 'NONE', *, *, #343, .F. ) ;
#553 = CARTESIAN_POINT ( 'NONE',  ( 40.34999999999999432, -16.32000000000000028, -62.57499981799999489 ) ) ;
#554 = FACE_BOUND ( 'NONE', #624, .T. ) ;
#555 = CARTESIAN_POINT ( 'NONE',  ( 7.624920943007711160E-15, -22.32000000000000028, 7.995000170000002626 ) ) ;
#556 = VECTOR ( 'NONE', #122, 1000.000000000000000 ) ;
#557 = PLANE ( 'NONE',  #154 ) ;
#558 = FACE_BOUND ( 'NONE', #483, .T. ) ;
#559 = ORIENTED_EDGE ( 'NONE', *, *, #654, .F. ) ;
#560 = CARTESIAN_POINT ( 'NONE',  ( 12.99999999999999822, -19.32000000000000028, -55.51999982999999617 ) ) ;
#561 = ORIENTED_EDGE ( 'NONE', *, *, #889, .F. ) ;
#562 = CIRCLE ( 'NONE', #522, 3.000000000000000888 ) ;
#563 = CARTESIAN_POINT ( 'NONE',  ( 40.34999999999999432, -19.32000000000000028, -62.57499981799999489 ) ) ;
#564 = DIRECTION ( 'NONE',  ( 0.000000000000000000, 0.000000000000000000, -1.000000000000000000 ) ) ;
#565 = CARTESIAN_POINT ( 'NONE',  ( 13.00000000000000000, -22.32000000000000028, 0.4800001699999997262 ) ) ;
#566 = SECURITY_CLASSIFICATION ( '', '', #380 ) ;
#567 = ORIENTED_EDGE ( 'NONE', *, *, #720, .T. ) ;
#568 = EDGE_CURVE ( 'NONE', #595, #405, #505, .T. ) ;
#569 = ORIENTED_EDGE ( 'NONE', *, *, #249, .F. ) ;
#570 = LINE ( 'NONE', #213, #682 ) ;
#571 = DIRECTION ( 'NONE',  ( -0.000000000000000000, 0.000000000000000000, 1.000000000000000000 ) ) ;
#572 = EDGE_LOOP ( 'NONE', ( #509, #612, #800, #691 ) ) ;
#573 = VECTOR ( 'NONE', #63, 1000.000000000000000 ) ;
#574 = EDGE_LOOP ( 'NONE', ( #408, #728, #41, #851 ) ) ;
#575 = EDGE_LOOP ( 'NONE', ( #393, #648 ) ) ;
#576 = DIRECTION ( 'NONE',  ( 0.000000000000000000, 0.000000000000000000, -1.000000000000000000 ) ) ;
#577 = CARTESIAN_POINT ( 'NONE',  ( -3.673940515008153177E-16, 73.63373767758804433, 7.995000170000000850 ) ) ;
#578 = CARTESIAN_POINT ( 'NONE',  ( -4.999999999999997335, 3.000000000000000000, -15.69999999999999929 ) ) ;
#579 = ORIENTED_EDGE ( 'NONE', *, *, #51, .T. ) ;
#580 = ORIENTED_EDGE ( 'NONE', *, *, #219, .T. ) ;
#581 = EDGE_CURVE ( 'NONE', #98, #10, #723, .T. ) ;
#582 = CIRCLE ( 'NONE', #733, 3.000000000000002665 ) ;
#583 = DIRECTION ( 'NONE',  ( 0.000000000000000000, -1.000000000000000000, 0.000000000000000000 ) ) ;
#584 = CARTESIAN_POINT ( 'NONE',  ( -40.00000000000000000, 3.000000000000000000, -22.57500000000000639 ) ) ;
#585 = ORIENTED_EDGE ( 'NONE', *, *, #156, .T. ) ;
#586 = AXIS2_PLACEMENT_3D ( 'NONE', #660, #440, #520 ) ;
#587 = EDGE_CURVE ( 'NONE', #904, #770, #551, .T. ) ;
#588 = CARTESIAN_POINT ( 'NONE',  ( 34.00000000000000000, -16.32000000000000028, 3.480000170000001170 ) ) ;
#589 = DIRECTION ( 'NONE',  ( 0.000000000000000000, 0.000000000000000000, -1.000000000000000000 ) ) ;
#590 = VERTEX_POINT ( 'NONE', #832 ) ;
#591 = VECTOR ( 'NONE', #911, 1000.000000000000000 ) ;
#592 = ORIENTED_EDGE ( 'NONE', *, *, #349, .T. ) ;
#593 = CARTESIAN_POINT ( 'NONE',  ( 13.00000000000000000, -19.32000000000000028, -2.519999829999999719 ) ) ;
#594 = DIRECTION ( 'NONE',  ( -0.000000000000000000, -1.000000000000000000, -0.000000000000000000 ) ) ;
#595 = VERTEX_POINT ( 'NONE', #407 ) ;
#596 = CALENDAR_DATE ( 2026, 26, 5 ) ;
#597 = CARTESIAN_POINT ( 'NONE',  ( 40.34999999999999432, -19.32000000000000028, -62.57499981799999489 ) ) ;
#598 = AXIS2_PLACEMENT_3D ( 'NONE', #618, #476, #395 ) ;
#599 = ORIENTED_EDGE ( 'NONE', *, *, #568, .F. ) ;
#600 = EDGE_CURVE ( 'NONE', #187, #85, #332, .T. ) ;
#601 = CIRCLE ( 'NONE', #510, 3.000000000000001332 ) ;
#602 = CARTESIAN_POINT ( 'NONE',  ( 12.99999999999999822, -16.32000000000000028, -55.51999982999999617 ) ) ;
#603 = ORIENTED_EDGE ( 'NONE', *, *, #250, .F. ) ;
#604 = VECTOR ( 'NONE', #771, 1000.000000000000000 ) ;
#605 = COORDINATED_UNIVERSAL_TIME_OFFSET ( 5, 0, .BEHIND. ) ;
#606 = CARTESIAN_POINT ( 'NONE',  ( -18.58750000000010161, 3.000000000000000000, 18.58750000000000924 ) ) ;
#607 = ORIENTED_EDGE ( 'NONE', *, *, #613, .T. ) ;
#608 = DATE_AND_TIME ( #323, #404 ) ;
#609 = ADVANCED_FACE ( 'NONE', ( #191 ), #772, .F. ) ;
#610 = FACE_OUTER_BOUND ( 'NONE', #895, .T. ) ;
#611 = AXIS2_PLACEMENT_3D ( 'NONE', #449, #445, #872 ) ;
#612 = ORIENTED_EDGE ( 'NONE', *, *, #261, .T. ) ;
#613 = EDGE_CURVE ( 'NONE', #727, #234, #61, .T. ) ;
#614 = DIRECTION ( 'NONE',  ( 0.000000000000000000, -1.000000000000000000, 0.000000000000000000 ) ) ;
#615 = DIRECTION ( 'NONE',  ( 0.000000000000000000, 0.000000000000000000, -1.000000000000000000 ) ) ;
#616 = ORIENTED_EDGE ( 'NONE', *, *, #219, .F. ) ;
#617 = COORDINATED_UNIVERSAL_TIME_OFFSET ( 5, 0, .BEHIND. ) ;
#618 = CARTESIAN_POINT ( 'NONE',  ( 0.000000000000000000, -22.32000000000000028, 0.000000000000000000 ) ) ;
#619 = CARTESIAN_POINT ( 'NONE',  ( 0.000000000000000000, -16.32000000000000028, 0.000000000000000000 ) ) ;
#620 = ORIENTED_EDGE ( 'NONE', *, *, #696, .T. ) ;
#621 = COORDINATED_UNIVERSAL_TIME_OFFSET ( 5, 0, .BEHIND. ) ;
#622 = CARTESIAN_POINT ( 'NONE',  ( 12.99999999999999822, -22.32000000000000028, -58.51999982999999617 ) ) ;
#623 = FACE_OUTER_BOUND ( 'NONE', #356, .T. ) ;
#624 = EDGE_LOOP ( 'NONE', ( #543, #426 ) ) ;
#625 = VECTOR ( 'NONE', #17, 1000.000000000000000 ) ;
#626 = EDGE_CURVE ( 'NONE', #361, #341, #915, .T. ) ;
#627 = LINE ( 'NONE', #487, #7 ) ;
#628 = DIRECTION ( 'NONE',  ( -0.000000000000000000, 1.000000000000000000, -0.000000000000000000 ) ) ;
#629 = LINE ( 'NONE', #555, #387 ) ;
#630 = DESIGN_CONTEXT ( 'detailed design', #303, 'design' ) ;
#631 = CARTESIAN_POINT ( 'NONE',  ( 34.00000000000000000, -19.32000000000000028, -52.51999982999999617 ) ) ;
#632 = DIRECTION ( 'NONE',  ( 0.000000000000000000, 0.000000000000000000, -1.000000000000000000 ) ) ;
#633 = EDGE_LOOP ( 'NONE', ( #804, #371 ) ) ;
#634 = CARTESIAN_POINT ( 'NONE',  ( -35.00000000000000000, 3.000000000000000000, -9.699999999999997513 ) ) ;
#635 = VECTOR ( 'NONE', #204, 1000.000000000000000 ) ;
#636 = EDGE_LOOP ( 'NONE', ( #879, #158, #864, #603 ) ) ;
#637 = EDGE_CURVE ( 'NONE', #366, #420, #274, .T. ) ;
#638 = CARTESIAN_POINT ( 'NONE',  ( 34.00000000000000000, -19.32000000000000028, -55.51999983000000327 ) ) ;
#639 = CC_DESIGN_DATE_AND_TIME_ASSIGNMENT ( #344, #267, ( #566 ) ) ;
#640 = CYLINDRICAL_SURFACE ( 'NONE', #647, 3.000000000000002665 ) ;
#641 = DIRECTION ( 'NONE',  ( 0.000000000000000000, 0.000000000000000000, 1.000000000000000000 ) ) ;
#642 = ORIENTED_EDGE ( 'NONE', *, *, #379, .F. ) ;
#643 = AXIS2_PLACEMENT_3D ( 'NONE', #748, #230, #802 ) ;
#644 = LINE ( 'NONE', #290, #107 ) ;
#645 = CARTESIAN_POINT ( 'NONE',  ( -40.00000000000000000, -3.000000000000000000, -22.57500000000000639 ) ) ;
#646 = CARTESIAN_POINT ( 'NONE',  ( -3.673940515008153177E-16, 73.63373767758804433, 7.995000170000000850 ) ) ;
#647 = AXIS2_PLACEMENT_3D ( 'NONE', #903, #922, #854 ) ;
#648 = ORIENTED_EDGE ( 'NONE', *, *, #685, .T. ) ;
#649 = FACE_OUTER_BOUND ( 'NONE', #36, .T. ) ;
#650 = DIRECTION ( 'NONE',  ( 0.7071067811865439090, -0.000000000000000000, 0.7071067811865512365 ) ) ;
#651 = DIRECTION ( 'NONE',  ( -1.132537196523674505E-16, 0.000000000000000000, -1.000000000000000000 ) ) ;
#652 = AXIS2_PLACEMENT_3D ( 'NONE', #403, #690, #43 ) ;
#653 = ORIENTED_EDGE ( 'NONE', *, *, #751, .T. ) ;
#654 = EDGE_CURVE ( 'NONE', #48, #785, #698, .T. ) ;
#655 = ORIENTED_EDGE ( 'NONE', *, *, #914, .F. ) ;
#656 = LINE ( 'NONE', #502, #103 ) ;
#657 = FACE_OUTER_BOUND ( 'NONE', #5, .T. ) ;
#658 = VERTEX_POINT ( 'NONE', #52 ) ;
#659 = EDGE_CURVE ( 'NONE', #471, #461, #878, .T. ) ;
#660 = CARTESIAN_POINT ( 'NONE',  ( 34.00000000000000000, -19.32000000000000028, 0.4800001699999997262 ) ) ;
#661 = CARTESIAN_POINT ( 'NONE',  ( 34.00000000000000000, -22.32000000000000028, -52.51999982999999617 ) ) ;
#662 = VERTEX_POINT ( 'NONE', #843 ) ;
#663 = VERTEX_POINT ( 'NONE', #765 ) ;
#664 = CARTESIAN_POINT ( 'NONE',  ( 13.00000000000000000, -16.32000000000000028, 3.480000169999999393 ) ) ;
#665 = DIRECTION ( 'NONE',  ( 0.000000000000000000, -1.000000000000000000, -0.000000000000000000 ) ) ;
#666 = ORIENTED_EDGE ( 'NONE', *, *, #722, .F. ) ;
#667 = AXIS2_PLACEMENT_3D ( 'NONE', #280, #497, #837 ) ;
#668 = EDGE_CURVE ( 'NONE', #499, #825, #694, .T. ) ;
#669 = PERSON_AND_ORGANIZATION_ROLE ( 'design_owner' ) ;
#670 = LINE ( 'NONE', #531, #113 ) ;
#671 = ADVANCED_FACE ( 'NONE', ( #623, #199, #554, #127, #558 ), #47, .T. ) ;
#672 = ORIENTED_EDGE ( 'NONE', *, *, #500, .F. ) ;
#673 = PRODUCT ( 'Z-Axis Limit switch mount', 'Z-Axis Limit switch mount', '', ( #540 ) ) ;
#674 = DIRECTION ( 'NONE',  ( -1.000000000000000000, 0.000000000000000000, 4.299190770698407783E-17 ) ) ;
#675 = CIRCLE ( 'NONE', #687, 2.999999999999999112 ) ;
#676 = ORIENTED_EDGE ( 'NONE', *, *, #637, .T. ) ;
#677 = AXIS2_PLACEMENT_3D ( 'NONE', #456, #614, #463 ) ;
#678 =( NAMED_UNIT ( * ) SI_UNIT ( $, .STERADIAN. ) SOLID_ANGLE_UNIT ( ) );
#679 = DIRECTION ( 'NONE',  ( 0.000000000000000000, 0.000000000000000000, -1.000000000000000000 ) ) ;
#680 = EDGE_LOOP ( 'NONE', ( #788, #883 ) ) ;
#681 = ADVANCED_FACE ( 'NONE', ( #58 ), #702, .F. ) ;
#682 = VECTOR ( 'NONE', #786, 1000.000000000000000 ) ;
#683 = LINE ( 'NONE', #50, #604 ) ;
#684 = ORIENTED_EDGE ( 'NONE', *, *, #193, .F. ) ;
#685 = EDGE_CURVE ( 'NONE', #759, #304, #22, .T. ) ;
#686 = FACE_BOUND ( 'NONE', #633, .T. ) ;
#687 = AXIS2_PLACEMENT_3D ( 'NONE', #565, #59, #141 ) ;
#688 = ORIENTED_EDGE ( 'NONE', *, *, #529, .F. ) ;
#689 = CIRCLE ( 'NONE', #391, 2.999999999999999556 ) ;
#690 = DIRECTION ( 'NONE',  ( -0.000000000000000000, 1.000000000000000000, -0.000000000000000000 ) ) ;
#691 = ORIENTED_EDGE ( 'NONE', *, *, #696, .F. ) ;
#692 = AXIS2_PLACEMENT_3D ( 'NONE', #858, #697, #62 ) ;
#693 = DIRECTION ( 'NONE',  ( 0.000000000000000000, 1.000000000000000000, 0.000000000000000000 ) ) ;
#694 = LINE ( 'NONE', #912, #709 ) ;
#695 = ORIENTED_EDGE ( 'NONE', *, *, #517, .T. ) ;
#696 = EDGE_CURVE ( 'NONE', #785, #223, #707, .T. ) ;
#697 = DIRECTION ( 'NONE',  ( -0.000000000000000000, -1.000000000000000000, -0.000000000000000000 ) ) ;
#698 = LINE ( 'NONE', #478, #484 ) ;
#699 = EDGE_LOOP ( 'NONE', ( #270, #900 ) ) ;
#700 = CARTESIAN_POINT ( 'NONE',  ( 12.99999999999999822, -16.32000000000000028, -58.51999982999999617 ) ) ;
#701 = LOCAL_TIME ( 12, 16, 19.00000000000000000, #605 ) ;
#702 = PLANE ( 'NONE',  #826 ) ;
#703 = CARTESIAN_POINT ( 'NONE',  ( 7.624920943007711160E-15, -16.32000000000000028, 7.995000170000002626 ) ) ;
#704 = EDGE_LOOP ( 'NONE', ( #81, #734 ) ) ;
#705 = CC_DESIGN_DATE_AND_TIME_ASSIGNMENT ( #608, #885, ( #273 ) ) ;
#706 = FACE_OUTER_BOUND ( 'NONE', #574, .T. ) ;
#707 = LINE ( 'NONE', #265, #573 ) ;
#708 = DIRECTION ( 'NONE',  ( 0.000000000000000000, 0.000000000000000000, -1.000000000000000000 ) ) ;
#709 = VECTOR ( 'NONE', #269, 1000.000000000000000 ) ;
#710 = ADVANCED_FACE ( 'NONE', ( #354 ), #640, .F. ) ;
#711 = ORIENTED_EDGE ( 'NONE', *, *, #224, .F. ) ;
#712 = DIRECTION ( 'NONE',  ( 1.167625975951677100E-16, 0.000000000000000000, -1.000000000000000000 ) ) ;
#713 = CARTESIAN_POINT ( 'NONE',  ( -40.00000000000000000, -3.000000000000000000, -2.824999999999993960 ) ) ;
#714 = CARTESIAN_POINT ( 'NONE',  ( -37.17500000000001847, 3.000000000000000000, 0.000000000000000000 ) ) ;
#715 = EDGE_LOOP ( 'NONE', ( #432, #546 ) ) ;
#716 = DIRECTION ( 'NONE',  ( 1.000000000000000000, -0.000000000000000000, 0.000000000000000000 ) ) ;
#717 = DIRECTION ( 'NONE',  ( 0.000000000000000000, 0.000000000000000000, -1.000000000000000000 ) ) ;
#718 = CARTESIAN_POINT ( 'NONE',  ( -35.00000000000000000, 3.000000000000000000, -12.69999999999999929 ) ) ;
#719 = CIRCLE ( 'NONE', #835, 2.999999999999999112 ) ;
#720 = EDGE_CURVE ( 'NONE', #523, #904, #545, .T. ) ;
#721 = ORIENTED_EDGE ( 'NONE', *, *, #167, .F. ) ;
#722 = EDGE_CURVE ( 'NONE', #98, #658, #73, .T. ) ;
#723 = LINE ( 'NONE', #77, #137 ) ;
#724 = DIRECTION ( 'NONE',  ( 0.000000000000000000, 0.000000000000000000, 1.000000000000000000 ) ) ;
#725 = LINE ( 'NONE', #714, #279 ) ;
#726 = AXIS2_PLACEMENT_3D ( 'NONE', #114, #902, #324 ) ;
#727 = VERTEX_POINT ( 'NONE', #372 ) ;
#728 = ORIENTED_EDGE ( 'NONE', *, *, #842, .T. ) ;
#729 = LOCAL_TIME ( 12, 16, 19.00000000000000000, #617 ) ;
#730 = CARTESIAN_POINT ( 'NONE',  ( -4.999999999999997335, -3.000000000000000000, -12.69999999999999929 ) ) ;
#731 = DIRECTION ( 'NONE',  ( 0.000000000000000000, 0.000000000000000000, -1.000000000000000000 ) ) ;
#732 = EDGE_LOOP ( 'NONE', ( #616, #812 ) ) ;
#733 = AXIS2_PLACEMENT_3D ( 'NONE', #186, #473, #46 ) ;
#734 = ORIENTED_EDGE ( 'NONE', *, *, #30, .T. ) ;
#735 = CARTESIAN_POINT ( 'NONE',  ( 13.00000000000000000, -16.32000000000000028, 0.4800001699999997262 ) ) ;
#736 = DIRECTION ( 'NONE',  ( 0.000000000000000000, -1.000000000000000000, 0.000000000000000000 ) ) ;
#737 = EDGE_CURVE ( 'NONE', #333, #140, #719, .T. ) ;
#738 = ORIENTED_EDGE ( 'NONE', *, *, #880, .F. ) ;
#739 = LOCAL_TIME ( 12, 16, 19.00000000000000000, #109 ) ;
#740 = EDGE_CURVE ( 'NONE', #212, #196, #300, .T. ) ;
#741 = APPROVAL_STATUS ( 'not_yet_approved' ) ;
#742 = DIRECTION ( 'NONE',  ( 0.000000000000000000, -1.000000000000000000, 0.000000000000000000 ) ) ;
#743 = ORIENTED_EDGE ( 'NONE', *, *, #818, .F. ) ;
#744 = CARTESIAN_POINT ( 'NONE',  ( 13.00000000000000000, -16.32000000000000028, -2.519999829999999719 ) ) ;
#745 = CARTESIAN_POINT ( 'NONE',  ( 0.000000000000000000, 3.000000000000000000, 0.000000000000000000 ) ) ;
#746 = ORIENTED_EDGE ( 'NONE', *, *, #250, .T. ) ;
#747 =( NAMED_UNIT ( * ) PLANE_ANGLE_UNIT ( ) SI_UNIT ( $, .RADIAN. ) );
#748 = CARTESIAN_POINT ( 'NONE',  ( 34.00000000000000000, -22.32000000000000028, -55.51999983000000327 ) ) ;
#749 = VECTOR ( 'NONE', #641, 1000.000000000000000 ) ;
#750 = EDGE_LOOP ( 'NONE', ( #385, #537, #240, #580 ) ) ;
#751 = EDGE_CURVE ( 'NONE', #785, #523, #74, .T. ) ;
#752 =( GEOMETRIC_REPRESENTATION_CONTEXT ( 3 ) GLOBAL_UNCERTAINTY_ASSIGNED_CONTEXT ( ( #88 ) ) GLOBAL_UNIT_ASSIGNED_CONTEXT ( ( #383, #747, #678 ) ) REPRESENTATION_CONTEXT ( 'NONE', 'WORKASPACE' ) );
#753 = EDGE_CURVE ( 'NONE', #170, #420, #888, .T. ) ;
#754 = CARTESIAN_POINT ( 'NONE',  ( -35.00000000000000000, 3.000000000000000000, -12.69999999999999929 ) ) ;
#755 = EDGE_CURVE ( 'NONE', #825, #48, #866, .T. ) ;
#756 = ORIENTED_EDGE ( 'NONE', *, *, #529, .T. ) ;
#757 = APPROVAL_DATE_TIME ( #245, #538 ) ;
#758 = FACE_BOUND ( 'NONE', #732, .T. ) ;
#759 = VERTEX_POINT ( 'NONE', #214 ) ;
#760 = CARTESIAN_POINT ( 'NONE',  ( 8.274938408612480253E-15, 3.000000000000002665, -62.57499981799999489 ) ) ;
#761 = ORIENTED_EDGE ( 'NONE', *, *, #4, .T. ) ;
#762 = VECTOR ( 'NONE', #871, 1000.000000000000000 ) ;
#763 = EDGE_CURVE ( 'NONE', #361, #461, #369, .T. ) ;
#764 = CARTESIAN_POINT ( 'NONE',  ( 12.99999999999999822, -22.32000000000000028, -52.51999982999998906 ) ) ;
#765 = CARTESIAN_POINT ( 'NONE',  ( 40.34999999999999432, -22.32000000000000028, 7.995000170000000850 ) ) ;
#766 = ORIENTED_EDGE ( 'NONE', *, *, #207, .T. ) ;
#767 = AXIS2_PLACEMENT_3D ( 'NONE', #198, #143, #712 ) ;
#768 = LINE ( 'NONE', #563, #469 ) ;
#769 = CARTESIAN_POINT ( 'NONE',  ( -40.00000000000000000, 3.000000000000000000, 0.000000000000000000 ) ) ;
#770 = VERTEX_POINT ( 'NONE', #713 ) ;
#771 = DIRECTION ( 'NONE',  ( -0.000000000000000000, -1.000000000000000000, -0.000000000000000000 ) ) ;
#772 = CYLINDRICAL_SURFACE ( 'NONE', #271, 2.999999999999999556 ) ;
#773 = LINE ( 'NONE', #215, #26 ) ;
#774 = ORIENTED_EDGE ( 'NONE', *, *, #434, .F. ) ;
#775 = EDGE_CURVE ( 'NONE', #523, #825, #881, .T. ) ;
#776 = DIRECTION ( 'NONE',  ( 0.000000000000000000, 1.000000000000000000, 0.000000000000000000 ) ) ;
#777 = CARTESIAN_POINT ( 'NONE',  ( -37.17500000000001847, -3.000000000000000000, 0.000000000000000000 ) ) ;
#778 = ORIENTED_EDGE ( 'NONE', *, *, #386, .T. ) ;
#779 = CARTESIAN_POINT ( 'NONE',  ( -4.999999999999997335, -3.000000000000000000, -15.70000000000000284 ) ) ;
#780 = ADVANCED_FACE ( 'NONE', ( #150 ), #163, .F. ) ;
#781 = ORIENTED_EDGE ( 'NONE', *, *, #167, .T. ) ;
#782 = LINE ( 'NONE', #428, #591 ) ;
#783 = DIRECTION ( 'NONE',  ( -0.000000000000000000, 1.000000000000000000, 0.000000000000000000 ) ) ;
#784 = DIRECTION ( 'NONE',  ( 0.000000000000000000, -1.000000000000000000, 0.000000000000000000 ) ) ;
#785 = VERTEX_POINT ( 'NONE', #364 ) ;
#786 = DIRECTION ( 'NONE',  ( -1.224646799147353207E-16, 0.000000000000000000, 1.000000000000000000 ) ) ;
#787 = CARTESIAN_POINT ( 'NONE',  ( -4.999999999999997335, -3.000000000000000000, -12.69999999999999929 ) ) ;
#788 = ORIENTED_EDGE ( 'NONE', *, *, #626, .F. ) ;
#789 = CARTESIAN_POINT ( 'NONE',  ( 34.00000000000000000, -16.32000000000000028, -2.519999830000001495 ) ) ;
#790 = VERTEX_POINT ( 'NONE', #588 ) ;
#791 = VECTOR ( 'NONE', #494, 1000.000000000000000 ) ;
#792 = DIRECTION ( 'NONE',  ( -0.000000000000000000, 1.000000000000000000, -0.000000000000000000 ) ) ;
#793 = EDGE_CURVE ( 'NONE', #420, #170, #342, .T. ) ;
#794 = DIRECTION ( 'NONE',  ( -0.7071067736688382288, 0.000000000000000000, -0.7071067887042568056 ) ) ;
#795 = CARTESIAN_POINT ( 'NONE',  ( 13.00000000000000000, -22.32000000000000028, 3.480000169999998949 ) ) ;
#796 = AXIS2_PLACEMENT_3D ( 'NONE', #787, #286, #12 ) ;
#797 = VERTEX_POINT ( 'NONE', #159 ) ;
#798 = PLANE ( 'NONE',  #477 ) ;
#799 = DIRECTION ( 'NONE',  ( 0.000000000000000000, 0.000000000000000000, -1.000000000000000000 ) ) ;
#800 = ORIENTED_EDGE ( 'NONE', *, *, #15, .F. ) ;
#801 = CARTESIAN_POINT ( 'NONE',  ( 5.000000000000000000, 3.000000000000002665, 7.995000170000000850 ) ) ;
#802 = DIRECTION ( 'NONE',  ( 0.000000000000000000, 0.000000000000000000, -1.000000000000000000 ) ) ;
#803 = PRODUCT_DEFINITION_SHAPE ( 'NONE', 'NONE',  #273 ) ;
#804 = ORIENTED_EDGE ( 'NONE', *, *, #207, .F. ) ;
#805 = CC_DESIGN_PERSON_AND_ORGANIZATION_ASSIGNMENT ( #397, #327, ( #566 ) ) ;
#806 = AXIS2_PLACEMENT_3D ( 'NONE', #856, #498, #75 ) ;
#807 = DIRECTION ( 'NONE',  ( 0.000000000000000000, -1.000000000000000000, 0.000000000000000000 ) ) ;
#808 = CARTESIAN_POINT ( 'NONE',  ( -35.00000000000000000, -3.000000000000000000, -12.69999999999999929 ) ) ;
#809 = VERTEX_POINT ( 'NONE', #448 ) ;
#810 = DIRECTION ( 'NONE',  ( -0.000000000000000000, 1.000000000000000000, -0.000000000000000000 ) ) ;
#811 = CARTESIAN_POINT ( 'NONE',  ( 34.00000000000000000, -16.32000000000000028, -52.51999982999999617 ) ) ;
#812 = ORIENTED_EDGE ( 'NONE', *, *, #67, .F. ) ;
#813 = VECTOR ( 'NONE', #439, 1000.000000000000000 ) ;
#814 = CALENDAR_DATE ( 2026, 26, 5 ) ;
#815 = EDGE_CURVE ( 'NONE', #834, #908, #689, .T. ) ;
#816 = FACE_OUTER_BOUND ( 'NONE', #750, .T. ) ;
#817 = EDGE_LOOP ( 'NONE', ( #561, #248, #289, #119 ) ) ;
#818 = EDGE_CURVE ( 'NONE', #333, #908, #376, .T. ) ;
#819 = PERSON_AND_ORGANIZATION_ROLE ( 'creator' ) ;
#820 = CYLINDRICAL_SURFACE ( 'NONE', #34, 3.000000000000001332 ) ;
#821 = ORIENTED_EDGE ( 'NONE', *, *, #82, .T. ) ;
#822 = APPROVAL_PERSON_ORGANIZATION ( #896, #538, #237 ) ;
#823 = DATE_AND_TIME ( #596, #701 ) ;
#824 = CARTESIAN_POINT ( 'NONE',  ( 0.000000000000000000, -3.000000000000000000, 0.000000000000000000 ) ) ;
#825 = VERTEX_POINT ( 'NONE', #291 ) ;
#826 = AXIS2_PLACEMENT_3D ( 'NONE', #259, #482, #346 ) ;
#827 = APPROVAL_ROLE ( '' ) ;
#828 = DIRECTION ( 'NONE',  ( -0.000000000000000000, 1.000000000000000000, -0.000000000000000000 ) ) ;
#829 = EDGE_LOOP ( 'NONE', ( #437, #756, #451, #620, #495, #184, #761 ) ) ;
#830 = ADVANCED_FACE ( 'NONE', ( #511 ), #798, .T. ) ;
#831 = LINE ( 'NONE', #254, #228 ) ;
#832 = CARTESIAN_POINT ( 'NONE',  ( 5.000000000000007994, 3.000000000000002665, -62.57499981799999489 ) ) ;
#833 = VECTOR ( 'NONE', #674, 1000.000000000000000 ) ;
#834 = VERTEX_POINT ( 'NONE', #664 ) ;
#835 = AXIS2_PLACEMENT_3D ( 'NONE', #875, #583, #16 ) ;
#836 = DIRECTION ( 'NONE',  ( 1.000000000000000000, -0.000000000000000000, 0.000000000000000000 ) ) ;
#837 = DIRECTION ( 'NONE',  ( 0.000000000000000000, 0.000000000000000000, -1.000000000000000000 ) ) ;
#838 = ORIENTED_EDGE ( 'NONE', *, *, #308, .T. ) ;
#839 = APPROVAL_ROLE ( '' ) ;
#840 = AXIS2_PLACEMENT_3D ( 'NONE', #208, #57, #353 ) ;
#841 = CYLINDRICAL_SURFACE ( 'NONE', #528, 3.000000000000002665 ) ;
#842 = EDGE_CURVE ( 'NONE', #366, #11, #909, .T. ) ;
#843 = CARTESIAN_POINT ( 'NONE',  ( -35.00000000000000000, -3.000000000000000000, -9.699999999999997513 ) ) ;
#844 = DIRECTION ( 'NONE',  ( -1.000000000000000000, -0.000000000000000000, 4.299190770698407783E-17 ) ) ;
#845 = EDGE_CURVE ( 'NONE', #302, #466, #232, .T. ) ;
#846 = CARTESIAN_POINT ( 'NONE',  ( -3.673940515008149233E-16, -16.32000000000000028, -62.57499981799999489 ) ) ;
#847 = CARTESIAN_POINT ( 'NONE',  ( 13.00000000000000000, -19.32000000000000028, 0.4800001699999997262 ) ) ;
#848 = ORIENTED_EDGE ( 'NONE', *, *, #179, .T. ) ;
#849 = PLANE ( 'NONE',  #262 ) ;
#850 = VECTOR ( 'NONE', #480, 1000.000000000000000 ) ;
#851 = ORIENTED_EDGE ( 'NONE', *, *, #753, .T. ) ;
#852 = LINE ( 'NONE', #631, #243 ) ;
#853 = CC_DESIGN_APPROVAL ( #538, ( #299 ) ) ;
#854 = DIRECTION ( 'NONE',  ( 0.000000000000000000, 0.000000000000000000, 1.000000000000000000 ) ) ;
#855 = EDGE_LOOP ( 'NONE', ( #527, #147, #25, #559 ) ) ;
#856 = CARTESIAN_POINT ( 'NONE',  ( 13.00000000000000000, -16.32000000000000028, 0.4800001699999997262 ) ) ;
#857 = ORIENTED_EDGE ( 'NONE', *, *, #863, .F. ) ;
#858 = CARTESIAN_POINT ( 'NONE',  ( -4.999999999999997335, 3.000000000000000000, -12.69999999999999929 ) ) ;
#859 = DIRECTION ( 'NONE',  ( 0.000000000000000000, 1.000000000000000000, 0.000000000000000000 ) ) ;
#860 = LINE ( 'NONE', #292, #162 ) ;
#861 = ORIENTED_EDGE ( 'NONE', *, *, #452, .F. ) ;
#862 = CLOSED_SHELL ( 'NONE', ( #710, #402, #472, #780, #180, #447, #334, #485, #236, #277, #513, #111, #201, #830, #671, #209, #388, #609, #486, #49, #389, #681, #152, #367, #352, #481 ) ) ;
#863 = EDGE_CURVE ( 'NONE', #790, #10, #601, .T. ) ;
#864 = ORIENTED_EDGE ( 'NONE', *, *, #845, .F. ) ;
#865 = CYLINDRICAL_SURFACE ( 'NONE', #427, 3.000000000000002665 ) ;
#866 = LINE ( 'NONE', #20, #29 ) ;
#867 = DIRECTION ( 'NONE',  ( 0.000000000000000000, 0.000000000000000000, 1.000000000000000000 ) ) ;
#868 = EDGE_LOOP ( 'NONE', ( #382, #18, #861, #129, #312, #124, #898 ) ) ;
#869 = VECTOR ( 'NONE', #665, 1000.000000000000000 ) ;
#870 = ORIENTED_EDGE ( 'NONE', *, *, #842, .F. ) ;
#871 = DIRECTION ( 'NONE',  ( -0.000000000000000000, 1.000000000000000000, -0.000000000000000000 ) ) ;
#872 = DIRECTION ( 'NONE',  ( 0.000000000000000000, 0.000000000000000000, -1.000000000000000000 ) ) ;
#873 = ORGANIZATION ( 'UNSPECIFIED', 'UNSPECIFIED', '' ) ;
#874 = EDGE_LOOP ( 'NONE', ( #231, #399, #177, #655 ) ) ;
#875 = CARTESIAN_POINT ( 'NONE',  ( 13.00000000000000000, -22.32000000000000028, 0.4800001699999997262 ) ) ;
#876 = DIRECTION ( 'NONE',  ( 0.000000000000000000, -1.000000000000000000, 0.000000000000000000 ) ) ;
#877 = CC_DESIGN_PERSON_AND_ORGANIZATION_ASSIGNMENT ( #394, #467, ( #273 ) ) ;
#878 = CIRCLE ( 'NONE', #197, 3.000000000000002665 ) ;
#879 = ORIENTED_EDGE ( 'NONE', *, *, #55, .F. ) ;
#880 = EDGE_CURVE ( 'NONE', #663, #797, #656, .T. ) ;
#881 = LINE ( 'NONE', #306, #362 ) ;
#882 = CYLINDRICAL_SURFACE ( 'NONE', #611, 2.999999999999999112 ) ;
#883 = ORIENTED_EDGE ( 'NONE', *, *, #321, .F. ) ;
#884 = CIRCLE ( 'NONE', #806, 2.999999999999999556 ) ;
#885 = DATE_TIME_ROLE ( 'creation_date' ) ;
#886 = CARTESIAN_POINT ( 'NONE',  ( 8.274938408612480253E-15, 73.63373767758804433, -62.57499981799999489 ) ) ;
#887 = ORIENTED_EDGE ( 'NONE', *, *, #775, .T. ) ;
#888 = CIRCLE ( 'NONE', #796, 3.000000000000002665 ) ;
#889 = EDGE_CURVE ( 'NONE', #341, #471, #435, .T. ) ;
#890 = APPLICATION_PROTOCOL_DEFINITION ( 'international standard', 'config_control_design', 1994, #459 ) ;
#891 = DIRECTION ( 'NONE',  ( -1.000000000000000000, 0.000000000000000000, 0.000000000000000000 ) ) ;
#892 = ORIENTED_EDGE ( 'NONE', *, *, #539, .T. ) ;
#893 = AXIS2_PLACEMENT_3D ( 'NONE', #917, #123, #564 ) ;
#894 = FACE_BOUND ( 'NONE', #106, .T. ) ;
#895 = EDGE_LOOP ( 'NONE', ( #766, #54, #71, #166 ) ) ;
#896 = PERSON_AND_ORGANIZATION ( #415, #873 ) ;
#897 = CARTESIAN_POINT ( 'NONE',  ( -40.00000000000000000, 3.000000000000000000, -2.824999999999993960 ) ) ;
#898 = ORIENTED_EDGE ( 'NONE', *, *, #261, .F. ) ;
#899 = LINE ( 'NONE', #760, #368 ) ;
#900 = ORIENTED_EDGE ( 'NONE', *, *, #737, .F. ) ;
#901 = PRODUCT_RELATED_PRODUCT_CATEGORY ( 'detail', '', ( #673 ) ) ;
#902 = DIRECTION ( 'NONE',  ( 0.7071067811865440200, 0.000000000000000000, 0.7071067811865511255 ) ) ;
#903 = CARTESIAN_POINT ( 'NONE',  ( 12.99999999999999822, -19.32000000000000028, -55.51999982999999617 ) ) ;
#904 = VERTEX_POINT ( 'NONE', #92 ) ;
#905 = FACE_BOUND ( 'NONE', #680, .T. ) ;
#906 = DIRECTION ( 'NONE',  ( 0.000000000000000000, -1.000000000000000000, 0.000000000000000000 ) ) ;
#907 = AXIS2_PLACEMENT_3D ( 'NONE', #886, #731, #233 ) ;
#908 = VERTEX_POINT ( 'NONE', #744 ) ;
#909 = CIRCLE ( 'NONE', #283, 3.000000000000000888 ) ;
#910 = EDGE_CURVE ( 'NONE', #304, #759, #149, .T. ) ;
#911 = DIRECTION ( 'NONE',  ( -0.000000000000000000, 1.000000000000000000, -0.000000000000000000 ) ) ;
#912 = CARTESIAN_POINT ( 'NONE',  ( 0.000000000000000000, 3.000000000000000000, 0.000000000000000000 ) ) ;
#913 = DIRECTION ( 'NONE',  ( 0.000000000000000000, 1.000000000000000000, 0.000000000000000000 ) ) ;
#914 = EDGE_CURVE ( 'NONE', #140, #834, #31, .T. ) ;
#915 = CIRCLE ( 'NONE', #893, 3.000000000000002665 ) ;
#916 = CARTESIAN_POINT ( 'NONE',  ( -4.999999999999997335, -3.000000000000000000, -9.699999999999997513 ) ) ;
#917 = CARTESIAN_POINT ( 'NONE',  ( 12.99999999999999822, -22.32000000000000028, -55.51999982999999617 ) ) ;
#918 = ORIENTED_EDGE ( 'NONE', *, *, #224, .T. ) ;
#919 = FACE_OUTER_BOUND ( 'NONE', #572, .T. ) ;
#920 = ORIENTED_EDGE ( 'NONE', *, *, #515, .T. ) ;
#921 = DIRECTION ( 'NONE',  ( 0.000000000000000000, 0.000000000000000000, 1.000000000000000000 ) ) ;
#922 = DIRECTION ( 'NONE',  ( -0.000000000000000000, 1.000000000000000000, -0.000000000000000000 ) ) ;
#923 = DIRECTION ( 'NONE',  ( -0.000000000000000000, 1.000000000000000000, -0.000000000000000000 ) ) ;
#924 = CIRCLE ( 'NONE', #643, 3.000000000000002665 ) ;
#925 = VERTEX_POINT ( 'NONE', #104 ) ;
#926 = DIRECTION ( 'NONE',  ( -1.000000000000000000, 0.000000000000000000, -0.000000000000000000 ) ) ;
#927 = APPROVAL_PERSON_ORGANIZATION ( #413, #136, #839 ) ;
ENDSEC;
END-ISO-10303-21;
