ISO-10303-21;
HEADER;
FILE_DESCRIPTION (( 'STEP AP203' ),
    '1' );
FILE_NAME ('Z-axis Way Cover Bed Side.STEP',
    '2026-05-26T16:16:38',
    ( '' ),
    ( '' ),
    'SwSTEP 2.0',
    'SolidWorks 2025',
    '' );
FILE_SCHEMA (( 'CONFIG_CONTROL_DESIGN' ));
ENDSEC;

DATA;
#1 = VECTOR ( 'NONE', #1048, 1000.000000000000000 ) ;
#2 = AXIS2_PLACEMENT_3D ( 'NONE', #734, #342, #148 ) ;
#3 = CARTESIAN_POINT ( 'NONE',  ( -19.05000000000001137, 2.269999999999994245, -1.770000000000002016 ) ) ;
#4 = EDGE_LOOP ( 'NONE', ( #298, #239 ) ) ;
#5 = CARTESIAN_POINT ( 'NONE',  ( -192.9129999999999825, 4.445000000000000284, -5.489001213999997297 ) ) ;
#6 = EDGE_LOOP ( 'NONE', ( #1114, #736, #45, #934 ) ) ;
#7 = CARTESIAN_POINT ( 'NONE',  ( -155.5829999999999700, 2.270000000000000462, 3.809999999999999165 ) ) ;
#8 = EDGE_CURVE ( 'NONE', #294, #469, #300, .T. ) ;
#9 = ORIENTED_EDGE ( 'NONE', *, *, #291, .T. ) ;
#10 = CARTESIAN_POINT ( 'NONE',  ( -12.63649999999999451, 212.9456876847032731, 0.000000000000000000 ) ) ;
#11 = VERTEX_POINT ( 'NONE', #684 ) ;
#12 = DIRECTION ( 'NONE',  ( 6.122193184454189221E-17, 0.000000000000000000, -1.000000000000000000 ) ) ;
#13 = ORIENTED_EDGE ( 'NONE', *, *, #46, .T. ) ;
#14 = DIRECTION ( 'NONE',  ( 0.000000000000000000, 0.000000000000000000, 1.000000000000000000 ) ) ;
#15 = PERSON_AND_ORGANIZATION_ROLE ( 'creator' ) ;
#16 = EDGE_LOOP ( 'NONE', ( #1022, #317, #166, #275 ) ) ;
#17 = CARTESIAN_POINT ( 'NONE',  ( 1.769999999999993356, 0.000000000000000000, -1.770000000000002016 ) ) ;
#18 = ORIENTED_EDGE ( 'NONE', *, *, #505, .T. ) ;
#19 = VECTOR ( 'NONE', #812, 1000.000000000000000 ) ;
#20 = LINE ( 'NONE', #482, #1031 ) ;
#21 = VECTOR ( 'NONE', #102, 1000.000000000000000 ) ;
#22 = VECTOR ( 'NONE', #988, 1000.000000000000000 ) ;
#23 = EDGE_CURVE ( 'NONE', #834, #751, #947, .T. ) ;
#24 = PERSON_AND_ORGANIZATION ( #1044, #286 ) ;
#25 = EDGE_CURVE ( 'NONE', #226, #887, #968, .T. ) ;
#26 = EDGE_LOOP ( 'NONE', ( #682, #569, #550, #87 ) ) ;
#27 = DIRECTION ( 'NONE',  ( -1.000000000000000000, 0.000000000000000000, 0.000000000000000000 ) ) ;
#28 = DIRECTION ( 'NONE',  ( 0.000000000000000000, 0.000000000000000000, -1.000000000000000000 ) ) ;
#29 = DIRECTION ( 'NONE',  ( 1.000000000000000000, 0.000000000000000000, 0.000000000000000000 ) ) ;
#30 = EDGE_CURVE ( 'NONE', #96, #11, #1135, .T. ) ;
#31 = DIRECTION ( 'NONE',  ( 1.000000000000000000, 0.000000000000000000, 0.000000000000000000 ) ) ;
#32 = ORIENTED_EDGE ( 'NONE', *, *, #8, .T. ) ;
#33 = DIRECTION ( 'NONE',  ( -1.365923996832133088E-16, -0.000000000000000000, -1.000000000000000000 ) ) ;
#34 = CARTESIAN_POINT ( 'NONE',  ( 0.000000000000000000, 0.000000000000000000, 49.91099999999999426 ) ) ;
#35 = DIRECTION ( 'NONE',  ( 0.000000000000000000, -1.000000000000000000, 0.000000000000000000 ) ) ;
#36 = ADVANCED_FACE ( 'NONE', ( #670 ), #954, .F. ) ;
#37 = VERTEX_POINT ( 'NONE', #199 ) ;
#38 = DIRECTION ( 'NONE',  ( 1.000000000000000000, 0.000000000000000000, 0.000000000000000000 ) ) ;
#39 = DIRECTION ( 'NONE',  ( 0.000000000000000000, -1.000000000000000000, 0.000000000000000000 ) ) ;
#40 = DIRECTION ( 'NONE',  ( 0.000000000000000000, 0.000000000000000000, 1.000000000000000000 ) ) ;
#41 = AXIS2_PLACEMENT_3D ( 'NONE', #1062, #955, #29 ) ;
#42 = EDGE_LOOP ( 'NONE', ( #566, #810 ) ) ;
#43 = CARTESIAN_POINT ( 'NONE',  ( 1.769999999999993356, 0.000000000000000000, 49.91099999999999426 ) ) ;
#44 = ADVANCED_FACE ( 'NONE', ( #589 ), #962, .F. ) ;
#45 = ORIENTED_EDGE ( 'NONE', *, *, #814, .T. ) ;
#46 = EDGE_CURVE ( 'NONE', #172, #96, #501, .T. ) ;
#47 = CARTESIAN_POINT ( 'NONE',  ( 11.67999999999999972, 1.270000000000000018, 11.67999999999999972 ) ) ;
#48 = ORIENTED_EDGE ( 'NONE', *, *, #451, .F. ) ;
#49 = DIRECTION ( 'NONE',  ( 0.000000000000000000, -1.000000000000000000, 0.000000000000000000 ) ) ;
#50 = LINE ( 'NONE', #538, #383 ) ;
#51 = DIRECTION ( 'NONE',  ( 0.000000000000000000, -1.000000000000000000, 0.000000000000000000 ) ) ;
#52 = EDGE_LOOP ( 'NONE', ( #157, #265, #582, #788, #312, #942 ) ) ;
#53 = CARTESIAN_POINT ( 'NONE',  ( 12.69999999999998863, -12.69999999999998863, 51.18099999999999739 ) ) ;
#54 = DIRECTION ( 'NONE',  ( -1.000000000000000000, 0.000000000000000000, -0.000000000000000000 ) ) ;
#55 = FACE_OUTER_BOUND ( 'NONE', #820, .T. ) ;
#56 = CARTESIAN_POINT ( 'NONE',  ( -148.8064999999999998, -4.999999999999980460, -5.489001214000002626 ) ) ;
#57 = ORIENTED_EDGE ( 'NONE', *, *, #1018, .F. ) ;
#58 = CARTESIAN_POINT ( 'NONE',  ( -3.810000000000035580, 3.106988124944954422E-13, 51.18099999999999739 ) ) ;
#59 = LINE ( 'NONE', #1180, #404 ) ;
#60 = LINE ( 'NONE', #243, #1163 ) ;
#61 = ADVANCED_FACE ( 'NONE', ( #403 ), #315, .F. ) ;
#62 = DIRECTION ( 'NONE',  ( 0.000000000000000000, -1.000000000000000000, 0.000000000000000000 ) ) ;
#63 = EDGE_LOOP ( 'NONE', ( #544, #122, #32, #1045 ) ) ;
#64 = DIRECTION ( 'NONE',  ( -1.000000000000000000, 0.000000000000000000, 0.000000000000000000 ) ) ;
#65 = DIRECTION ( 'NONE',  ( 1.000000000000000000, 0.000000000000000000, 0.000000000000000000 ) ) ;
#66 = DIRECTION ( 'NONE',  ( -0.7071067811865474617, -0.000000000000000000, 0.7071067811865474617 ) ) ;
#67 = CARTESIAN_POINT ( 'NONE',  ( -147.1814999999999998, -4.999999999999980460, 11.02099878600000515 ) ) ;
#68 = ADVANCED_FACE ( 'NONE', ( #718 ), #340, .T. ) ;
#69 = VERTEX_POINT ( 'NONE', #436 ) ;
#70 = AXIS2_PLACEMENT_3D ( 'NONE', #437, #1004, #733 ) ;
#71 = EDGE_CURVE ( 'NONE', #781, #1125, #1086, .T. ) ;
#72 = CARTESIAN_POINT ( 'NONE',  ( -35.90649999999998698, -5.000000000000000000, 11.02099878600000515 ) ) ;
#73 = DIRECTION ( 'NONE',  ( -0.000000000000000000, -1.000000000000000000, -0.000000000000000000 ) ) ;
#74 = CARTESIAN_POINT ( 'NONE',  ( -144.3064999999999998, -4.999999999999980460, 6.020998786000000713 ) ) ;
#75 = ORIENTED_EDGE ( 'NONE', *, *, #258, .F. ) ;
#76 = AXIS2_PLACEMENT_3D ( 'NONE', #1145, #192, #1055 ) ;
#77 = VECTOR ( 'NONE', #1129, 1000.000000000000000 ) ;
#78 = CARTESIAN_POINT ( 'NONE',  ( -181.9829999999999757, 0.000000000000000000, 49.91099999999999426 ) ) ;
#79 = VERTEX_POINT ( 'NONE', #1075 ) ;
#80 = EDGE_CURVE ( 'NONE', #1079, #495, #703, .T. ) ;
#81 = LINE ( 'NONE', #1100, #563 ) ;
#82 = VERTEX_POINT ( 'NONE', #817 ) ;
#83 = EDGE_CURVE ( 'NONE', #536, #471, #1185, .T. ) ;
#84 = CARTESIAN_POINT ( 'NONE',  ( -139.8064999999999998, -4.999999999999979572, 6.020998786000000713 ) ) ;
#85 = ORIENTED_EDGE ( 'NONE', *, *, #771, .F. ) ;
#86 = DIRECTION ( 'NONE',  ( 0.000000000000000000, -0.000000000000000000, -1.000000000000000000 ) ) ;
#87 = ORIENTED_EDGE ( 'NONE', *, *, #708, .F. ) ;
#88 = CARTESIAN_POINT ( 'NONE',  ( -192.9129999999999825, -12.69999999999998863, 51.18099999999999739 ) ) ;
#89 = ORIENTED_EDGE ( 'NONE', *, *, #739, .T. ) ;
#90 = CARTESIAN_POINT ( 'NONE',  ( -167.5764999999999816, 0.000000000000000000, 51.18099999999999739 ) ) ;
#91 = VERTEX_POINT ( 'NONE', #140 ) ;
#92 = VECTOR ( 'NONE', #39, 1000.000000000000000 ) ;
#93 = VECTOR ( 'NONE', #1204, 1000.000000000000000 ) ;
#94 = VECTOR ( 'NONE', #49, 1000.000000000000000 ) ;
#95 = DIRECTION ( 'NONE',  ( 1.000000000000000000, 0.000000000000000000, -6.103324382627934694E-17 ) ) ;
#96 = VERTEX_POINT ( 'NONE', #416 ) ;
#97 = CARTESIAN_POINT ( 'NONE',  ( -139.8064999999999998, -4.999999999999979572, -5.489001214000004403 ) ) ;
#98 = ADVANCED_FACE ( 'NONE', ( #230, #724, #334 ), #145, .F. ) ;
#99 = ORIENTED_EDGE ( 'NONE', *, *, #698, .T. ) ;
#100 = CARTESIAN_POINT ( 'NONE',  ( -181.9829999999999757, 0.000000000000000000, 0.000000000000000000 ) ) ;
#101 = ORIENTED_EDGE ( 'NONE', *, *, #910, .T. ) ;
#102 = DIRECTION ( 'NONE',  ( -1.000000000000000000, 0.000000000000000000, 0.000000000000000000 ) ) ;
#103 = DATE_AND_TIME ( #878, #705 ) ;
#104 = ORIENTED_EDGE ( 'NONE', *, *, #597, .F. ) ;
#105 = FACE_OUTER_BOUND ( 'NONE', #897, .T. ) ;
#106 = VECTOR ( 'NONE', #203, 1000.000000000000000 ) ;
#107 = CARTESIAN_POINT ( 'NONE',  ( 1.769999999999993356, 0.000000000000000000, 49.91099999999999426 ) ) ;
#108 = VECTOR ( 'NONE', #430, 1000.000000000000000 ) ;
#109 = CARTESIAN_POINT ( 'NONE',  ( 1.769999999999993356, 2.269999999999994245, -1.770000000000002016 ) ) ;
#110 = CALENDAR_DATE ( 2026, 26, 5 ) ;
#111 = ORIENTED_EDGE ( 'NONE', *, *, #497, .T. ) ;
#112 = CARTESIAN_POINT ( 'NONE',  ( -144.3064999999999998, -4.999999999999980460, 23.74892084735788345 ) ) ;
#113 = VECTOR ( 'NONE', #12, 1000.000000000000000 ) ;
#114 = EDGE_LOOP ( 'NONE', ( #1006, #920, #662, #219 ) ) ;
#115 = AXIS2_PLACEMENT_3D ( 'NONE', #626, #220, #612 ) ;
#116 = DIRECTION ( 'NONE',  ( 0.000000000000000000, -1.000000000000000000, -0.000000000000000000 ) ) ;
#117 = ORIENTED_EDGE ( 'NONE', *, *, #454, .F. ) ;
#118 = CYLINDRICAL_SURFACE ( 'NONE', #149, 2.875000000000002665 ) ;
#119 = EDGE_CURVE ( 'NONE', #716, #775, #608, .T. ) ;
#120 = ORIENTED_EDGE ( 'NONE', *, *, #258, .T. ) ;
#121 = LINE ( 'NONE', #211, #1090 ) ;
#122 = ORIENTED_EDGE ( 'NONE', *, *, #424, .T. ) ;
#123 = FACE_BOUND ( 'NONE', #366, .T. ) ;
#124 = DIRECTION ( 'NONE',  ( 0.000000000000000000, -1.000000000000000000, -0.000000000000000000 ) ) ;
#125 = FACE_OUTER_BOUND ( 'NONE', #512, .T. ) ;
#126 = VECTOR ( 'NONE', #1161, 1000.000000000000000 ) ;
#127 = ORIENTED_EDGE ( 'NONE', *, *, #196, .T. ) ;
#128 = ADVANCED_FACE ( 'NONE', ( #1160 ), #249, .F. ) ;
#129 = CARTESIAN_POINT ( 'NONE',  ( -40.40649999999999409, -5.000000000000000000, -5.489001214000017725 ) ) ;
#130 = VERTEX_POINT ( 'NONE', #889 ) ;
#131 = CARTESIAN_POINT ( 'NONE',  ( -3.142247407067489512E-30, 2.294704387520198855E-14, 51.18099999999999739 ) ) ;
#132 = AXIS2_PLACEMENT_3D ( 'NONE', #658, #641, #370 ) ;
#133 = CC_DESIGN_APPROVAL ( #976, ( #1190 ) ) ;
#134 = EDGE_LOOP ( 'NONE', ( #562, #802, #986, #363, #1198, #452 ) ) ;
#135 = FACE_BOUND ( 'NONE', #42, .T. ) ;
#136 = DIRECTION ( 'NONE',  ( 0.000000000000000000, -1.000000000000000000, 0.000000000000000000 ) ) ;
#137 = DIRECTION ( 'NONE',  ( 0.000000000000000000, 0.000000000000000000, -1.000000000000000000 ) ) ;
#138 = ORIENTED_EDGE ( 'NONE', *, *, #643, .F. ) ;
#139 = CARTESIAN_POINT ( 'NONE',  ( -176.4029999999999632, 2.269999999999994245, 51.18099999999999739 ) ) ;
#140 = CARTESIAN_POINT ( 'NONE',  ( 1.769999999999993356, 1.270000000000000018, 21.58999999999998565 ) ) ;
#141 = CARTESIAN_POINT ( 'NONE',  ( -176.4029999999999632, 2.269999999999994245, 51.18099999999999739 ) ) ;
#142 = DIRECTION ( 'NONE',  ( 0.000000000000000000, 0.000000000000000000, -1.000000000000000000 ) ) ;
#143 = ORIENTED_EDGE ( 'NONE', *, *, #808, .F. ) ;
#144 = DIRECTION ( 'NONE',  ( 0.000000000000000000, 0.000000000000000000, 1.000000000000000000 ) ) ;
#145 = PLANE ( 'NONE',  #880 ) ;
#146 = ADVANCED_FACE ( 'NONE', ( #900 ), #221, .F. ) ;
#147 = CYLINDRICAL_SURFACE ( 'NONE', #70, 2.874999999999988454 ) ;
#148 = DIRECTION ( 'NONE',  ( 1.000000000000000000, 0.000000000000000000, 0.000000000000000000 ) ) ;
#149 = AXIS2_PLACEMENT_3D ( 'NONE', #299, #1159, #398 ) ;
#150 = VECTOR ( 'NONE', #339, 1000.000000000000000 ) ;
#151 = ORIENTED_EDGE ( 'NONE', *, *, #347, .F. ) ;
#152 = FACE_OUTER_BOUND ( 'NONE', #868, .T. ) ;
#153 = DIRECTION ( 'NONE',  ( -1.000000000000000000, 0.000000000000000000, 0.000000000000000000 ) ) ;
#154 = PLANE ( 'NONE',  #653 ) ;
#155 = EDGE_CURVE ( 'NONE', #922, #536, #50, .T. ) ;
#156 = CYLINDRICAL_SURFACE ( 'NONE', #405, 4.500000000000003553 ) ;
#157 = ORIENTED_EDGE ( 'NONE', *, *, #529, .T. ) ;
#158 = LINE ( 'NONE', #428, #94 ) ;
#159 = DIRECTION ( 'NONE',  ( 1.000000000000000000, 0.000000000000000000, 0.000000000000000000 ) ) ;
#160 = DIRECTION ( 'NONE',  ( -1.365923996832133088E-16, -0.000000000000000000, -1.000000000000000000 ) ) ;
#161 =( NAMED_UNIT ( * ) PLANE_ANGLE_UNIT ( ) SI_UNIT ( $, .RADIAN. ) );
#162 = ORIENTED_EDGE ( 'NONE', *, *, #30, .T. ) ;
#163 = VECTOR ( 'NONE', #160, 1000.000000000000000 ) ;
#164 = ADVANCED_FACE ( 'NONE', ( #627 ), #1002, .F. ) ;
#165 = CARTESIAN_POINT ( 'NONE',  ( -181.9829999999999757, 1.270000000000000240, 49.91099999999999426 ) ) ;
#166 = ORIENTED_EDGE ( 'NONE', *, *, #564, .T. ) ;
#167 = CARTESIAN_POINT ( 'NONE',  ( 12.69999999999998863, 0.000000000000000000, 51.18099999999999739 ) ) ;
#168 = EDGE_CURVE ( 'NONE', #944, #657, #421, .T. ) ;
#169 = EDGE_LOOP ( 'NONE', ( #1111, #292 ) ) ;
#170 = LOCAL_TIME ( 12, 16, 38.00000000000000000, #659 ) ;
#171 = DIRECTION ( 'NONE',  ( 0.000000000000000000, 0.000000000000000000, 1.000000000000000000 ) ) ;
#172 = VERTEX_POINT ( 'NONE', #1166 ) ;
#173 = PLANE ( 'NONE',  #132 ) ;
#174 = VERTEX_POINT ( 'NONE', #514 ) ;
#175 = DIRECTION ( 'NONE',  ( 0.000000000000000000, 0.000000000000000000, -1.000000000000000000 ) ) ;
#176 = ORIENTED_EDGE ( 'NONE', *, *, #225, .F. ) ;
#177 = CARTESIAN_POINT ( 'NONE',  ( -176.4029999999999632, -1.208654451933713058E-15, 49.91099999999999426 ) ) ;
#178 = ORIENTED_EDGE ( 'NONE', *, *, #808, .T. ) ;
#179 = LINE ( 'NONE', #287, #727 ) ;
#180 = ORIENTED_EDGE ( 'NONE', *, *, #606, .F. ) ;
#181 = CARTESIAN_POINT ( 'NONE',  ( -192.9129999999999825, -12.69999999999998863, 51.18099999999999739 ) ) ;
#182 = ORIENTED_EDGE ( 'NONE', *, *, #1127, .F. ) ;
#183 = AXIS2_PLACEMENT_3D ( 'NONE', #533, #906, #65 ) ;
#184 = CIRCLE ( 'NONE', #973, 4.500000000000003553 ) ;
#185 = VECTOR ( 'NONE', #1176, 1000.000000000000000 ) ;
#186 = DIRECTION ( 'NONE',  ( 0.000000000000000000, -1.000000000000000000, 0.000000000000000000 ) ) ;
#187 = ORIENTED_EDGE ( 'NONE', *, *, #473, .T. ) ;
#188 = CARTESIAN_POINT ( 'NONE',  ( -31.40649999999997632, -4.999999999999999112, 6.020998786000000713 ) ) ;
#189 = PERSON_AND_ORGANIZATION ( #1044, #286 ) ;
#190 = EDGE_CURVE ( 'NONE', #343, #11, #325, .T. ) ;
#191 = EDGE_LOOP ( 'NONE', ( #756, #646, #1172, #13 ) ) ;
#192 = DIRECTION ( 'NONE',  ( -1.000000000000000000, 0.000000000000000000, 0.000000000000000000 ) ) ;
#193 = ORIENTED_EDGE ( 'NONE', *, *, #953, .F. ) ;
#194 = DIRECTION ( 'NONE',  ( 1.000000000000000000, 0.000000000000000000, 0.000000000000000000 ) ) ;
#195 = APPROVAL_ROLE ( '' ) ;
#196 = EDGE_CURVE ( 'NONE', #372, #748, #236, .T. ) ;
#197 = ORIENTED_EDGE ( 'NONE', *, *, #1054, .T. ) ;
#198 = CARTESIAN_POINT ( 'NONE',  ( -3.810000000000007603, 0.000000000000000000, 49.91099999999999426 ) ) ;
#199 = CARTESIAN_POINT ( 'NONE',  ( -141.4315000000000282, -4.999999999999980460, 11.02099878600000515 ) ) ;
#200 = FACE_OUTER_BOUND ( 'NONE', #270, .T. ) ;
#201 = APPROVAL_DATE_TIME ( #103, #976 ) ;
#202 = ORIENTED_EDGE ( 'NONE', *, *, #583, .T. ) ;
#203 = DIRECTION ( 'NONE',  ( -1.000000000000000000, -7.332769396067994153E-15, 0.000000000000000000 ) ) ;
#204 = VECTOR ( 'NONE', #543, 1000.000000000000000 ) ;
#205 = DIRECTION ( 'NONE',  ( 1.000000000000000000, 0.000000000000000000, 0.000000000000000000 ) ) ;
#206 = CIRCLE ( 'NONE', #581, 2.875000000000002665 ) ;
#207 = LINE ( 'NONE', #697, #1150 ) ;
#208 = ORIENTED_EDGE ( 'NONE', *, *, #354, .T. ) ;
#209 = CARTESIAN_POINT ( 'NONE',  ( -4.761427309039232424E-27, 6.493354763880101290E-13, 51.18099999999999739 ) ) ;
#210 = ORIENTED_EDGE ( 'NONE', *, *, #1018, .T. ) ;
#211 = CARTESIAN_POINT ( 'NONE',  ( -148.8064999999999998, -4.999999999999980460, 23.74892084735788345 ) ) ;
#212 = MANIFOLD_SOLID_BREP ( 'Chamfer1', #725 ) ;
#213 = EDGE_CURVE ( 'NONE', #743, #174, #59, .T. ) ;
#214 = VERTEX_POINT ( 'NONE', #188 ) ;
#215 = DIRECTION ( 'NONE',  ( -1.365923996832132842E-16, -0.000000000000000000, -1.000000000000000000 ) ) ;
#216 = ORIENTED_EDGE ( 'NONE', *, *, #213, .F. ) ;
#217 = LINE ( 'NONE', #782, #126 ) ;
#218 = VECTOR ( 'NONE', #807, 1000.000000000000000 ) ;
#219 = ORIENTED_EDGE ( 'NONE', *, *, #80, .F. ) ;
#220 = DIRECTION ( 'NONE',  ( 0.000000000000000000, -0.000000000000000000, -1.000000000000000000 ) ) ;
#221 = PLANE ( 'NONE',  #598 ) ;
#222 = DIRECTION ( 'NONE',  ( -1.365923996832132842E-16, -0.000000000000000000, -1.000000000000000000 ) ) ;
#223 = VECTOR ( 'NONE', #345, 1000.000000000000000 ) ;
#224 = VECTOR ( 'NONE', #590, 1000.000000000000000 ) ;
#225 = EDGE_CURVE ( 'NONE', #657, #332, #936, .T. ) ;
#226 = VERTEX_POINT ( 'NONE', #464 ) ;
#227 = PRODUCT_RELATED_PRODUCT_CATEGORY ( 'detail', '', ( #371 ) ) ;
#228 = EDGE_CURVE ( 'NONE', #781, #338, #943, .T. ) ;
#229 = FACE_OUTER_BOUND ( 'NONE', #1146, .T. ) ;
#230 = FACE_BOUND ( 'NONE', #1072, .T. ) ;
#231 = DIRECTION ( 'NONE',  ( 0.000000000000000000, -1.000000000000000000, -0.000000000000000000 ) ) ;
#232 = CARTESIAN_POINT ( 'NONE',  ( 12.69999999999998863, -12.69999999999998863, -5.489001213999998185 ) ) ;
#233 = EDGE_CURVE ( 'NONE', #338, #559, #475, .T. ) ;
#234 = ORIENTED_EDGE ( 'NONE', *, *, #630, .T. ) ;
#235 = CARTESIAN_POINT ( 'NONE',  ( 0.000000000000000000, 0.000000000000000000, 49.91099999999999426 ) ) ;
#236 = LINE ( 'NONE', #989, #561 ) ;
#237 = DIRECTION ( 'NONE',  ( -0.000000000000000000, 0.000000000000000000, 1.000000000000000000 ) ) ;
#238 = DIRECTION ( 'NONE',  ( -1.365923996832132842E-16, -0.000000000000000000, -1.000000000000000000 ) ) ;
#239 = ORIENTED_EDGE ( 'NONE', *, *, #1073, .T. ) ;
#240 = ADVANCED_FACE ( 'NONE', ( #1106 ), #262, .F. ) ;
#241 = CARTESIAN_POINT ( 'NONE',  ( 1.769999999999993356, 0.000000000000000000, -1.770000000000002016 ) ) ;
#242 = CARTESIAN_POINT ( 'NONE',  ( -40.40649999999998698, -5.000000000000000000, 23.74892084735786923 ) ) ;
#243 = CARTESIAN_POINT ( 'NONE',  ( -192.9129999999999825, 0.000000000000000000, 51.18099999999999739 ) ) ;
#244 = DIRECTION ( 'NONE',  ( 1.000000000000000000, 0.000000000000000000, 0.000000000000000000 ) ) ;
#245 = CIRCLE ( 'NONE', #993, 4.500000000000003553 ) ;
#246 = VECTOR ( 'NONE', #324, 1000.000000000000000 ) ;
#247 = EDGE_LOOP ( 'NONE', ( #762, #401, #392, #557, #932, #379 ) ) ;
#248 = DIRECTION ( 'NONE',  ( -0.000000000000000000, 0.000000000000000000, 1.000000000000000000 ) ) ;
#249 = CYLINDRICAL_SURFACE ( 'NONE', #701, 2.875000000000002665 ) ;
#250 = FACE_BOUND ( 'NONE', #738, .T. ) ;
#251 = CARTESIAN_POINT ( 'NONE',  ( 0.000000000000000000, 0.000000000000000000, 0.000000000000000000 ) ) ;
#252 = EDGE_CURVE ( 'NONE', #372, #1009, #551, .T. ) ;
#253 = EDGE_CURVE ( 'NONE', #466, #721, #308, .T. ) ;
#254 = ORIENTED_EDGE ( 'NONE', *, *, #1094, .F. ) ;
#255 = LINE ( 'NONE', #348, #527 ) ;
#256 = DIRECTION ( 'NONE',  ( -1.365923996832133088E-16, -0.000000000000000000, -1.000000000000000000 ) ) ;
#257 =( NAMED_UNIT ( * ) SI_UNIT ( $, .STERADIAN. ) SOLID_ANGLE_UNIT ( ) );
#258 = EDGE_CURVE ( 'NONE', #174, #389, #831, .T. ) ;
#259 = ORIENTED_EDGE ( 'NONE', *, *, #80, .T. ) ;
#260 = CARTESIAN_POINT ( 'NONE',  ( -176.4029999999999632, 1.270000000000000018, 49.91100000000001558 ) ) ;
#261 = ORIENTED_EDGE ( 'NONE', *, *, #735, .F. ) ;
#262 = PLANE ( 'NONE',  #601 ) ;
#263 = VECTOR ( 'NONE', #402, 1000.000000000000000 ) ;
#264 = AXIS2_PLACEMENT_3D ( 'NONE', #100, #472, #1126 ) ;
#265 = ORIENTED_EDGE ( 'NONE', *, *, #440, .T. ) ;
#266 = AXIS2_PLACEMENT_3D ( 'NONE', #1168, #819, #1083 ) ;
#267 = CARTESIAN_POINT ( 'NONE',  ( -181.9829999999999757, 2.270000000000000462, -1.770000000000002016 ) ) ;
#268 = VERTEX_POINT ( 'NONE', #97 ) ;
#269 = CARTESIAN_POINT ( 'NONE',  ( -161.1629999999999825, 4.445000000000000284, 3.809999999999999609 ) ) ;
#270 = EDGE_LOOP ( 'NONE', ( #377, #462, #634, #176 ) ) ;
#271 = EDGE_CURVE ( 'NONE', #509, #389, #560, .T. ) ;
#272 = CARTESIAN_POINT ( 'NONE',  ( 1.769999999999993356, 1.270000000000000240, 49.91099999999999426 ) ) ;
#273 = ORIENTED_EDGE ( 'NONE', *, *, #1038, .T. ) ;
#274 = CARTESIAN_POINT ( 'NONE',  ( -144.3064999999999998, -4.999999999999980460, 6.020998786000000713 ) ) ;
#275 = ORIENTED_EDGE ( 'NONE', *, *, #830, .T. ) ;
#276 = VECTOR ( 'NONE', #614, 1000.000000000000114 ) ;
#277 = EDGE_CURVE ( 'NONE', #303, #699, #360, .T. ) ;
#278 = LINE ( 'NONE', #833, #700 ) ;
#279 = ORIENTED_EDGE ( 'NONE', *, *, #451, .T. ) ;
#280 = ADVANCED_FACE ( 'NONE', ( #380 ), #173, .T. ) ;
#281 = CARTESIAN_POINT ( 'NONE',  ( -3.810000000000007603, 0.000000000000000000, 51.18099999999999739 ) ) ;
#282 = COORDINATED_UNIVERSAL_TIME_OFFSET ( 5, 0, .BEHIND. ) ;
#283 = AXIS2_PLACEMENT_3D ( 'NONE', #864, #124, #28 ) ;
#284 = VERTEX_POINT ( 'NONE', #763 ) ;
#285 = CIRCLE ( 'NONE', #41, 2.874999999999988454 ) ;
#286 = ORGANIZATION ( 'UNSPECIFIED', 'UNSPECIFIED', '' ) ;
#287 = CARTESIAN_POINT ( 'NONE',  ( -176.4029999999999632, -1.208654451933713058E-15, 51.18099999999999739 ) ) ;
#288 = ORIENTED_EDGE ( 'NONE', *, *, #708, .T. ) ;
#289 = LINE ( 'NONE', #665, #784 ) ;
#290 = CARTESIAN_POINT ( 'NONE',  ( 0.000000000000000000, 0.000000000000000000, 0.000000000000000000 ) ) ;
#291 = EDGE_CURVE ( 'NONE', #843, #775, #245, .T. ) ;
#292 = ORIENTED_EDGE ( 'NONE', *, *, #939, .F. ) ;
#293 = FACE_OUTER_BOUND ( 'NONE', #52, .T. ) ;
#294 = VERTEX_POINT ( 'NONE', #177 ) ;
#295 = DIRECTION ( 'NONE',  ( -1.000000000000000000, 0.000000000000000000, 0.000000000000000000 ) ) ;
#296 = PERSON_AND_ORGANIZATION_ROLE ( 'design_owner' ) ;
#297 = ADVANCED_FACE ( 'NONE', ( #556 ), #931, .T. ) ;
#298 = ORIENTED_EDGE ( 'NONE', *, *, #463, .T. ) ;
#299 = CARTESIAN_POINT ( 'NONE',  ( -35.90649999999997988, -5.000000000000000000, 51.18100000000000449 ) ) ;
#300 = LINE ( 'NONE', #34, #1 ) ;
#301 = DIRECTION ( 'NONE',  ( 0.000000000000000000, 0.000000000000000000, -1.000000000000000000 ) ) ;
#302 = APPROVAL_STATUS ( 'not_yet_approved' ) ;
#303 = VERTEX_POINT ( 'NONE', #1118 ) ;
#304 = LINE ( 'NONE', #774, #263 ) ;
#305 = CC_DESIGN_PERSON_AND_ORGANIZATION_ASSIGNMENT ( #189, #1148, ( #691 ) ) ;
#306 = VECTOR ( 'NONE', #837, 1000.000000000000000 ) ;
#307 = VERTEX_POINT ( 'NONE', #1026 ) ;
#308 = CIRCLE ( 'NONE', #937, 4.500000000000003553 ) ;
#309 = AXIS2_PLACEMENT_3D ( 'NONE', #290, #678, #31 ) ;
#310 = PLANE ( 'NONE',  #1063 ) ;
#311 = CALENDAR_DATE ( 2026, 26, 5 ) ;
#312 = ORIENTED_EDGE ( 'NONE', *, *, #23, .T. ) ;
#313 = EDGE_CURVE ( 'NONE', #748, #559, #567, .T. ) ;
#314 = PLANE ( 'NONE',  #431 ) ;
#315 = CYLINDRICAL_SURFACE ( 'NONE', #446, 4.500000000000003553 ) ;
#316 = CARTESIAN_POINT ( 'NONE',  ( -181.9829999999999757, 2.269999999999994245, 21.58999999999998209 ) ) ;
#317 = ORIENTED_EDGE ( 'NONE', *, *, #939, .T. ) ;
#318 = CYLINDRICAL_SURFACE ( 'NONE', #351, 4.500000000000003553 ) ;
#319 = CARTESIAN_POINT ( 'NONE',  ( -176.4029999999999632, 0.000000000000000000, 51.18099999999999739 ) ) ;
#320 = LINE ( 'NONE', #131, #766 ) ;
#321 = VECTOR ( 'NONE', #66, 1000.000000000000114 ) ;
#322 = ADVANCED_FACE ( 'NONE', ( #846 ), #572, .T. ) ;
#323 = ORIENTED_EDGE ( 'NONE', *, *, #1038, .F. ) ;
#324 = DIRECTION ( 'NONE',  ( 0.000000000000000000, 1.000000000000000000, 0.000000000000000000 ) ) ;
#325 = LINE ( 'NONE', #1174, #1130 ) ;
#326 = CARTESIAN_POINT ( 'NONE',  ( 0.000000000000000000, 1.270000000000000018, 0.000000000000000000 ) ) ;
#327 = VECTOR ( 'NONE', #186, 1000.000000000000000 ) ;
#328 = EDGE_CURVE ( 'NONE', #307, #741, #1123, .T. ) ;
#329 = CC_DESIGN_APPROVAL ( #1047, ( #841 ) ) ;
#330 = CARTESIAN_POINT ( 'NONE',  ( -144.3064999999999998, -4.999999999999980460, 6.020998786000000713 ) ) ;
#331 = ADVANCED_BREP_SHAPE_REPRESENTATION ( 'Z-axis Way Cover Bed Side', ( #212, #309 ), #1071 ) ;
#332 = VERTEX_POINT ( 'NONE', #1030 ) ;
#333 = CARTESIAN_POINT ( 'NONE',  ( -192.9129999999999825, 2.269999999999994245, 51.18099999999999739 ) ) ;
#334 = FACE_OUTER_BOUND ( 'NONE', #693, .T. ) ;
#335 = CARTESIAN_POINT ( 'NONE',  ( -38.78149999999997988, -5.000000000000000000, 51.18100000000000449 ) ) ;
#336 = LINE ( 'NONE', #921, #486 ) ;
#337 = EDGE_CURVE ( 'NONE', #975, #357, #289, .T. ) ;
#338 = VERTEX_POINT ( 'NONE', #496 ) ;
#339 = DIRECTION ( 'NONE',  ( 1.000000000000000000, 0.000000000000000000, 0.000000000000000000 ) ) ;
#340 = PLANE ( 'NONE',  #183 ) ;
#341 = CARTESIAN_POINT ( 'NONE',  ( -161.1629999999999825, 1.270000000000000018, 3.809999999999999609 ) ) ;
#342 = DIRECTION ( 'NONE',  ( 0.000000000000000000, -0.000000000000000000, -1.000000000000000000 ) ) ;
#343 = VERTEX_POINT ( 'NONE', #603 ) ;
#344 = CARTESIAN_POINT ( 'NONE',  ( -12.63649999999999451, 0.000000000000000000, 11.02099878600000160 ) ) ;
#345 = DIRECTION ( 'NONE',  ( -1.365923996832133088E-16, -0.000000000000000000, -1.000000000000000000 ) ) ;
#346 = DIRECTION ( 'NONE',  ( 0.000000000000000000, -0.000000000000000000, -1.000000000000000000 ) ) ;
#347 = EDGE_CURVE ( 'NONE', #1079, #37, #285, .T. ) ;
#348 = CARTESIAN_POINT ( 'NONE',  ( -3.810000000000007603, 1.270000000000000018, 49.91100000000001558 ) ) ;
#349 = CIRCLE ( 'NONE', #1149, 2.875000000000002665 ) ;
#350 = AXIS2_PLACEMENT_3D ( 'NONE', #776, #969, #677 ) ;
#351 = AXIS2_PLACEMENT_3D ( 'NONE', #1179, #798, #64 ) ;
#352 = ORIENTED_EDGE ( 'NONE', *, *, #814, .F. ) ;
#353 = DIRECTION ( 'NONE',  ( -0.000000000000000000, 0.000000000000000000, 1.000000000000000000 ) ) ;
#354 = EDGE_CURVE ( 'NONE', #466, #1053, #121, .T. ) ;
#355 = CARTESIAN_POINT ( 'NONE',  ( 0.000000000000000000, -12.69999999999999929, 0.000000000000000000 ) ) ;
#356 = DIRECTION ( 'NONE',  ( 1.000000000000000000, -0.000000000000000000, 0.000000000000000000 ) ) ;
#357 = VERTEX_POINT ( 'NONE', #886 ) ;
#358 = CARTESIAN_POINT ( 'NONE',  ( -141.4315000000000282, -4.999999999999980460, 51.18100000000001870 ) ) ;
#359 = ORIENTED_EDGE ( 'NONE', *, *, #119, .F. ) ;
#360 = LINE ( 'NONE', #109, #93 ) ;
#361 = ORIENTED_EDGE ( 'NONE', *, *, #155, .T. ) ;
#362 = CARTESIAN_POINT ( 'NONE',  ( -181.9829999999999757, 2.269999999999994245, 21.58999999999998209 ) ) ;
#363 = ORIENTED_EDGE ( 'NONE', *, *, #252, .T. ) ;
#364 = CARTESIAN_POINT ( 'NONE',  ( -35.90649999999998698, -5.000000000000000000, -5.489001214000018614 ) ) ;
#365 = EDGE_CURVE ( 'NONE', #1053, #268, #447, .T. ) ;
#366 = EDGE_LOOP ( 'NONE', ( #849, #352 ) ) ;
#367 = AXIS2_PLACEMENT_3D ( 'NONE', #235, #248, #892 ) ;
#368 = CARTESIAN_POINT ( 'NONE',  ( -181.9829999999999757, 1.270000000000000240, 49.91099999999999426 ) ) ;
#369 = ORIENTED_EDGE ( 'NONE', *, *, #673, .T. ) ;
#370 = DIRECTION ( 'NONE',  ( 0.000000000000000000, 0.000000000000000000, -1.000000000000000000 ) ) ;
#371 = PRODUCT ( 'Z-axis Way Cover Bed Side', 'Z-axis Way Cover Bed Side', '', ( #381 ) ) ;
#372 = VERTEX_POINT ( 'NONE', #1049 ) ;
#373 = DIRECTION ( 'NONE',  ( 0.7071067811865457964, -0.000000000000000000, 0.7071067811865492381 ) ) ;
#374 = VERTEX_POINT ( 'NONE', #871 ) ;
#375 = DIRECTION ( 'NONE',  ( -1.000000000000000000, 0.000000000000000000, -0.000000000000000000 ) ) ;
#376 = AXIS2_PLACEMENT_3D ( 'NONE', #770, #502, #35 ) ;
#377 = ORIENTED_EDGE ( 'NONE', *, *, #168, .F. ) ;
#378 = CARTESIAN_POINT ( 'NONE',  ( 12.69999999999998508, 2.269999999999994245, 51.18099999999999739 ) ) ;
#379 = ORIENTED_EDGE ( 'NONE', *, *, #765, .T. ) ;
#380 = FACE_OUTER_BOUND ( 'NONE', #1029, .T. ) ;
#381 = MECHANICAL_CONTEXT ( 'NONE', #1003, 'mechanical' ) ;
#382 = EDGE_CURVE ( 'NONE', #1009, #471, #320, .T. ) ;
#383 = VECTOR ( 'NONE', #159, 1000.000000000000000 ) ;
#384 = ORIENTED_EDGE ( 'NONE', *, *, #253, .F. ) ;
#385 = VECTOR ( 'NONE', #926, 1000.000000000000000 ) ;
#386 = AXIS2_PLACEMENT_3D ( 'NONE', #535, #426, #809 ) ;
#387 = CARTESIAN_POINT ( 'NONE',  ( -12.63649999999999451, -12.69999999999998863, 11.02099878600000160 ) ) ;
#388 = EDGE_CURVE ( 'NONE', #775, #843, #184, .T. ) ;
#389 = VERTEX_POINT ( 'NONE', #316 ) ;
#390 = DIRECTION ( 'NONE',  ( 0.000000000000000000, -1.000000000000000000, 0.000000000000000000 ) ) ;
#391 = DATE_AND_TIME ( #857, #170 ) ;
#392 = ORIENTED_EDGE ( 'NONE', *, *, #271, .T. ) ;
#393 = DIRECTION ( 'NONE',  ( 0.000000000000000000, 0.000000000000000000, 1.000000000000000000 ) ) ;
#394 = EDGE_LOOP ( 'NONE', ( #861, #1188, #197, #1202 ) ) ;
#395 = DIRECTION ( 'NONE',  ( -1.000000000000000000, 0.000000000000000000, 1.927470528863117569E-16 ) ) ;
#396 = DATE_AND_TIME ( #672, #860 ) ;
#397 = ORIENTED_EDGE ( 'NONE', *, *, #987, .T. ) ;
#398 = DIRECTION ( 'NONE',  ( -1.000000000000000000, 0.000000000000000000, 0.000000000000000000 ) ) ;
#399 = DIRECTION ( 'NONE',  ( 1.000000000000000000, 0.000000000000000000, 0.000000000000000000 ) ) ;
#400 = CARTESIAN_POINT ( 'NONE',  ( -148.8064999999999998, -4.999999999999980460, 6.020998786000000713 ) ) ;
#401 = ORIENTED_EDGE ( 'NONE', *, *, #698, .F. ) ;
#402 = DIRECTION ( 'NONE',  ( -1.000000000000000000, 0.000000000000000000, 0.000000000000000000 ) ) ;
#403 = FACE_OUTER_BOUND ( 'NONE', #394, .T. ) ;
#404 = VECTOR ( 'NONE', #429, 1000.000000000000000 ) ;
#405 = AXIS2_PLACEMENT_3D ( 'NONE', #985, #707, #1096 ) ;
#406 = CARTESIAN_POINT ( 'NONE',  ( -35.90649999999997988, -5.000000000000000000, 6.020998786000000713 ) ) ;
#407 = CC_DESIGN_SECURITY_CLASSIFICATION ( #841, ( #1190 ) ) ;
#408 = APPROVAL_DATE_TIME ( #1137, #1178 ) ;
#409 = ORIENTED_EDGE ( 'NONE', *, *, #789, .T. ) ;
#410 = CARTESIAN_POINT ( 'NONE',  ( -35.90649999999998698, -5.000000000000000000, 6.020998786000000713 ) ) ;
#411 = ORIENTED_EDGE ( 'NONE', *, *, #929, .T. ) ;
#412 = DIRECTION ( 'NONE',  ( -1.000000000000000000, -1.369347365245245551E-16, 0.000000000000000000 ) ) ;
#413 = EDGE_CURVE ( 'NONE', #307, #374, #1147, .T. ) ;
#414 = ORIENTED_EDGE ( 'NONE', *, *, #440, .F. ) ;
#415 = CARTESIAN_POINT ( 'NONE',  ( -167.5764999999999816, -12.69999999999998863, 11.02099878600000160 ) ) ;
#416 = CARTESIAN_POINT ( 'NONE',  ( -155.5829999999999700, 1.270000000000000018, 3.809999999999999165 ) ) ;
#417 = EDGE_CURVE ( 'NONE', #773, #91, #1142, .T. ) ;
#418 = LINE ( 'NONE', #7, #477 ) ;
#419 = ORIENTED_EDGE ( 'NONE', *, *, #365, .T. ) ;
#420 = DIRECTION ( 'NONE',  ( 0.000000000000000000, -1.000000000000000000, 0.000000000000000000 ) ) ;
#421 = LINE ( 'NONE', #996, #660 ) ;
#422 = CARTESIAN_POINT ( 'NONE',  ( -181.9829999999999757, 2.270000000000000462, -1.770000000000002016 ) ) ;
#423 = VECTOR ( 'NONE', #175, 1000.000000000000000 ) ;
#424 = EDGE_CURVE ( 'NONE', #332, #294, #207, .T. ) ;
#425 = AXIS2_PLACEMENT_3D ( 'NONE', #251, #62, #453 ) ;
#426 = DIRECTION ( 'NONE',  ( -1.365923996832132842E-16, 0.000000000000000000, -1.000000000000000000 ) ) ;
#427 = ORIENTED_EDGE ( 'NONE', *, *, #252, .F. ) ;
#428 = CARTESIAN_POINT ( 'NONE',  ( -12.63649999999999451, 212.9456876847032731, 11.02099878600000160 ) ) ;
#429 = DIRECTION ( 'NONE',  ( 0.000000000000000000, 1.000000000000000000, 0.000000000000000000 ) ) ;
#430 = DIRECTION ( 'NONE',  ( 1.000000000000000000, 0.000000000000000000, -6.103324382627934694E-17 ) ) ;
#431 = AXIS2_PLACEMENT_3D ( 'NONE', #500, #875, #38 ) ;
#432 = ORIENTED_EDGE ( 'NONE', *, *, #337, .F. ) ;
#433 = CC_DESIGN_PERSON_AND_ORGANIZATION_ASSIGNMENT ( #666, #296, ( #371 ) ) ;
#434 = DIRECTION ( 'NONE',  ( -0.000000000000000000, 0.000000000000000000, 1.000000000000000000 ) ) ;
#435 = ADVANCED_FACE ( 'NONE', ( #979 ), #685, .F. ) ;
#436 = CARTESIAN_POINT ( 'NONE',  ( -33.03149999999998698, -5.000000000000000000, 6.020998786000000713 ) ) ;
#437 = CARTESIAN_POINT ( 'NONE',  ( -144.3064999999999998, -4.999999999999980460, 51.18100000000001870 ) ) ;
#438 = DIRECTION ( 'NONE',  ( 0.000000000000000000, 0.000000000000000000, 1.000000000000000000 ) ) ;
#439 = CIRCLE ( 'NONE', #593, 4.500000000000003553 ) ;
#440 = EDGE_CURVE ( 'NONE', #1025, #303, #20, .T. ) ;
#441 = ORIENTED_EDGE ( 'NONE', *, *, #413, .T. ) ;
#442 = CARTESIAN_POINT ( 'NONE',  ( -24.63000000000004164, 4.445000000000000284, 3.809999999999991172 ) ) ;
#443 = DIRECTION ( 'NONE',  ( 0.7071067811865475727, 0.000000000000000000, 0.7071067811865475727 ) ) ;
#444 = DIRECTION ( 'NONE',  ( 0.000000000000000000, -0.000000000000000000, -1.000000000000000000 ) ) ;
#445 = DIRECTION ( 'NONE',  ( -0.000000000000000000, -0.000000000000000000, 1.000000000000000000 ) ) ;
#446 = AXIS2_PLACEMENT_3D ( 'NONE', #885, #613, #806 ) ;
#447 = CIRCLE ( 'NONE', #350, 4.500000000000003553 ) ;
#448 = LOCAL_TIME ( 12, 16, 38.00000000000000000, #949 ) ;
#449 = ORIENTED_EDGE ( 'NONE', *, *, #842, .T. ) ;
#450 = CARTESIAN_POINT ( 'NONE',  ( -40.40649999999998698, -5.000000000000000000, 6.020998786000000713 ) ) ;
#451 = EDGE_CURVE ( 'NONE', #458, #930, #595, .T. ) ;
#452 = ORIENTED_EDGE ( 'NONE', *, *, #83, .F. ) ;
#453 = DIRECTION ( 'NONE',  ( 0.000000000000000000, -0.000000000000000000, -1.000000000000000000 ) ) ;
#454 = EDGE_CURVE ( 'NONE', #37, #1079, #728, .T. ) ;
#455 = EDGE_LOOP ( 'NONE', ( #1011, #1121, #637, #1128, #18, #178, #210, #127 ) ) ;
#456 = PLANE ( 'NONE',  #484 ) ;
#457 = ADVANCED_FACE ( 'NONE', ( #125 ), #511, .F. ) ;
#458 = VERTEX_POINT ( 'NONE', #959 ) ;
#459 = DIRECTION ( 'NONE',  ( -0.7071067811865457964, -0.000000000000000000, -0.7071067811865492381 ) ) ;
#460 = ORIENTED_EDGE ( 'NONE', *, *, #253, .T. ) ;
#461 = FACE_OUTER_BOUND ( 'NONE', #689, .T. ) ;
#462 = ORIENTED_EDGE ( 'NONE', *, *, #1203, .T. ) ;
#463 = EDGE_CURVE ( 'NONE', #716, #214, #439, .T. ) ;
#464 = CARTESIAN_POINT ( 'NONE',  ( -181.9829999999999757, 0.000000000000000000, -1.770000000000002016 ) ) ;
#465 = VECTOR ( 'NONE', #14, 1000.000000000000000 ) ;
#466 = VERTEX_POINT ( 'NONE', #400 ) ;
#467 = AXIS2_PLACEMENT_3D ( 'NONE', #710, #519, #420 ) ;
#468 = LINE ( 'NONE', #1019, #621 ) ;
#469 = VERTEX_POINT ( 'NONE', #671 ) ;
#470 = DIRECTION ( 'NONE',  ( 0.000000000000000000, 0.000000000000000000, -1.000000000000000000 ) ) ;
#471 = VERTEX_POINT ( 'NONE', #1042 ) ;
#472 = DIRECTION ( 'NONE',  ( 1.000000000000000000, -0.000000000000000000, 0.000000000000000000 ) ) ;
#473 = EDGE_CURVE ( 'NONE', #130, #509, #217, .T. ) ;
#474 = ORIENTED_EDGE ( 'NONE', *, *, #277, .T. ) ;
#475 = LINE ( 'NONE', #5, #385 ) ;
#476 = PERSON_AND_ORGANIZATION ( #1044, #286 ) ;
#477 = VECTOR ( 'NONE', #373, 1000.000000000000114 ) ;
#478 = EDGE_LOOP ( 'NONE', ( #48, #631, #427, #57 ) ) ;
#479 = CYLINDRICAL_SURFACE ( 'NONE', #602, 4.500000000000003553 ) ;
#480 = ADVANCED_FACE ( 'NONE', ( #200 ), #310, .T. ) ;
#481 = DIRECTION ( 'NONE',  ( 0.000000000000000000, 1.000000000000000000, 0.000000000000000000 ) ) ;
#482 = CARTESIAN_POINT ( 'NONE',  ( 1.769999999999993356, 2.269999999999994245, 21.58999999999998209 ) ) ;
#483 = APPROVAL_ROLE ( '' ) ;
#484 = AXIS2_PLACEMENT_3D ( 'NONE', #565, #1008, #649 ) ;
#485 = VECTOR ( 'NONE', #73, 1000.000000000000000 ) ;
#486 = VECTOR ( 'NONE', #896, 1000.000000000000000 ) ;
#487 = ORIENTED_EDGE ( 'NONE', *, *, #1203, .F. ) ;
#488 = LOCAL_TIME ( 12, 16, 38.00000000000000000, #282 ) ;
#489 = DIRECTION ( 'NONE',  ( -1.365923996832132842E-16, -0.000000000000000000, -1.000000000000000000 ) ) ;
#490 = VERTEX_POINT ( 'NONE', #609 ) ;
#491 = CARTESIAN_POINT ( 'NONE',  ( -144.3064999999999998, -4.999999999999980460, 11.02099878600000515 ) ) ;
#492 = DATE_TIME_ROLE ( 'classification_date' ) ;
#493 = ORIENTED_EDGE ( 'NONE', *, *, #929, .F. ) ;
#494 = DIRECTION ( 'NONE',  ( 0.000000000000000000, -1.000000000000000000, 0.000000000000000000 ) ) ;
#495 = VERTEX_POINT ( 'NONE', #706 ) ;
#496 = CARTESIAN_POINT ( 'NONE',  ( -192.9129999999999825, 2.269999999999994245, -5.489001213999997297 ) ) ;
#497 = EDGE_CURVE ( 'NONE', #1025, #284, #521, .T. ) ;
#498 = APPROVAL_STATUS ( 'not_yet_approved' ) ;
#499 = EDGE_LOOP ( 'NONE', ( #1200, #829, #1039, #517 ) ) ;
#500 = CARTESIAN_POINT ( 'NONE',  ( -161.1629999999999825, -3.174999999999999822, 6.020998786000001601 ) ) ;
#501 = LINE ( 'NONE', #876, #92 ) ;
#502 = DIRECTION ( 'NONE',  ( 0.7071067811865492381, 0.000000000000000000, -0.7071067811865457964 ) ) ;
#503 = ADVANCED_FACE ( 'NONE', ( #55 ), #813, .F. ) ;
#504 = APPROVAL_STATUS ( 'not_yet_approved' ) ;
#505 = EDGE_CURVE ( 'NONE', #357, #891, #800, .T. ) ;
#506 = ADVANCED_FACE ( 'NONE', ( #719 ), #147, .F. ) ;
#507 = EDGE_LOOP ( 'NONE', ( #138, #1177, #180, #1059 ) ) ;
#508 = FACE_OUTER_BOUND ( 'NONE', #507, .T. ) ;
#509 = VERTEX_POINT ( 'NONE', #422 ) ;
#510 = VECTOR ( 'NONE', #1199, 1000.000000000000000 ) ;
#511 = PLANE ( 'NONE',  #376 ) ;
#512 = EDGE_LOOP ( 'NONE', ( #883, #193, #909, #960 ) ) ;
#513 = LINE ( 'NONE', #524, #642 ) ;
#514 = CARTESIAN_POINT ( 'NONE',  ( -176.4029999999999632, 2.269999999999994245, 27.17000000000003723 ) ) ;
#515 = ADVANCED_FACE ( 'NONE', ( #984 ), #633, .T. ) ;
#516 = FACE_OUTER_BOUND ( 'NONE', #1102, .T. ) ;
#517 = ORIENTED_EDGE ( 'NONE', *, *, #388, .T. ) ;
#518 = EDGE_CURVE ( 'NONE', #1133, #495, #759, .T. ) ;
#519 = DIRECTION ( 'NONE',  ( -0.7071067811865492381, 0.000000000000000000, 0.7071067811865457964 ) ) ;
#520 = DIRECTION ( 'NONE',  ( 1.365923996832132842E-16, -0.000000000000000000, 1.000000000000000000 ) ) ;
#521 = LINE ( 'NONE', #1099, #276 ) ;
#522 = LINE ( 'NONE', #167, #185 ) ;
#523 = ORIENTED_EDGE ( 'NONE', *, *, #417, .T. ) ;
#524 = CARTESIAN_POINT ( 'NONE',  ( -161.1629999999999825, 1.270000000000000018, -1.770000000000002016 ) ) ;
#525 = CARTESIAN_POINT ( 'NONE',  ( -180.2129999999999939, 4.445000000000000284, -5.489001213999999074 ) ) ;
#526 = DIRECTION ( 'NONE',  ( 1.000000000000000000, 0.000000000000000000, 0.000000000000000000 ) ) ;
#527 = VECTOR ( 'NONE', #445, 1000.000000000000000 ) ;
#528 = DIRECTION ( 'NONE',  ( 0.000000000000000000, -1.000000000000000000, 0.000000000000000000 ) ) ;
#529 = EDGE_CURVE ( 'NONE', #91, #1025, #997, .T. ) ;
#530 = CC_DESIGN_DATE_AND_TIME_ASSIGNMENT ( #686, #492, ( #841 ) ) ;
#531 = ORIENTED_EDGE ( 'NONE', *, *, #277, .F. ) ;
#532 = DIRECTION ( 'NONE',  ( 0.000000000000000000, 0.000000000000000000, 1.000000000000000000 ) ) ;
#533 = CARTESIAN_POINT ( 'NONE',  ( 0.000000000000000000, 0.000000000000000000, 51.18099999999999739 ) ) ;
#534 = CARTESIAN_POINT ( 'NONE',  ( -10.41000000000002501, 1.270000000000000018, -10.41000000000002501 ) ) ;
#535 = CARTESIAN_POINT ( 'NONE',  ( -144.3064999999999998, -4.999999999999980460, -5.489001214000003515 ) ) ;
#536 = VERTEX_POINT ( 'NONE', #141 ) ;
#537 = LINE ( 'NONE', #442, #785 ) ;
#538 = CARTESIAN_POINT ( 'NONE',  ( -192.9129999999999825, 2.269999999999994245, 51.18099999999999739 ) ) ;
#539 = PLANE ( 'NONE',  #1007 ) ;
#540 = LINE ( 'NONE', #903, #974 ) ;
#541 = VECTOR ( 'NONE', #256, 1000.000000000000000 ) ;
#542 = ORIENTED_EDGE ( 'NONE', *, *, #213, .T. ) ;
#543 = DIRECTION ( 'NONE',  ( 0.000000000000000000, -1.000000000000000000, 0.000000000000000000 ) ) ;
#544 = ORIENTED_EDGE ( 'NONE', *, *, #225, .T. ) ;
#545 = CARTESIAN_POINT ( 'NONE',  ( -141.4315000000000282, -4.999999999999980460, 6.020998786000000713 ) ) ;
#546 = VECTOR ( 'NONE', #856, 1000.000000000000114 ) ;
#547 = APPROVAL_PERSON_ORGANIZATION ( #476, #1178, #195 ) ;
#548 = ORIENTED_EDGE ( 'NONE', *, *, #879, .F. ) ;
#549 = CARTESIAN_POINT ( 'NONE',  ( -3.810000000000007603, 4.445000000000000284, 27.17000000000000881 ) ) ;
#550 = ORIENTED_EDGE ( 'NONE', *, *, #417, .F. ) ;
#551 = LINE ( 'NONE', #90, #510 ) ;
#552 = ORIENTED_EDGE ( 'NONE', *, *, #999, .T. ) ;
#553 = EDGE_CURVE ( 'NONE', #458, #1009, #1192, .T. ) ;
#554 = DIRECTION ( 'NONE',  ( 0.000000000000000000, -1.000000000000000000, -0.000000000000000000 ) ) ;
#555 = ORIENTED_EDGE ( 'NONE', *, *, #382, .F. ) ;
#556 = FACE_OUTER_BOUND ( 'NONE', #731, .T. ) ;
#557 = ORIENTED_EDGE ( 'NONE', *, *, #735, .T. ) ;
#558 = LINE ( 'NONE', #3, #1169 ) ;
#559 = VERTEX_POINT ( 'NONE', #822 ) ;
#560 = LINE ( 'NONE', #840, #465 ) ;
#561 = VECTOR ( 'NONE', #153, 1000.000000000000000 ) ;
#562 = ORIENTED_EDGE ( 'NONE', *, *, #155, .F. ) ;
#563 = VECTOR ( 'NONE', #238, 1000.000000000000000 ) ;
#564 = EDGE_CURVE ( 'NONE', #925, #490, #895, .T. ) ;
#565 = CARTESIAN_POINT ( 'NONE',  ( 0.000000000000000000, 0.000000000000000000, 51.18099999999999739 ) ) ;
#566 = ORIENTED_EDGE ( 'NONE', *, *, #972, .F. ) ;
#567 = LINE ( 'NONE', #181, #1189 ) ;
#568 = COORDINATED_UNIVERSAL_TIME_OFFSET ( 5, 0, .BEHIND. ) ;
#569 = ORIENTED_EDGE ( 'NONE', *, *, #529, .F. ) ;
#570 = CARTESIAN_POINT ( 'NONE',  ( -35.90649999999998698, -5.000000000000000000, 6.020998786000000713 ) ) ;
#571 = ORIENTED_EDGE ( 'NONE', *, *, #793, .T. ) ;
#572 = PLANE ( 'NONE',  #1070 ) ;
#573 = SECURITY_CLASSIFICATION_LEVEL ( 'unclassified' ) ;
#574 = ORIENTED_EDGE ( 'NONE', *, *, #863, .F. ) ;
#575 = LINE ( 'NONE', #957, #1157 ) ;
#576 = ORIENTED_EDGE ( 'NONE', *, *, #667, .F. ) ;
#577 = ADVANCED_FACE ( 'NONE', ( #712, #250, #516 ), #154, .T. ) ;
#578 = CARTESIAN_POINT ( 'NONE',  ( 0.000000000000000000, 1.270000000000000018, 0.000000000000000000 ) ) ;
#579 = APPROVAL_DATE_TIME ( #391, #1047 ) ;
#580 = VECTOR ( 'NONE', #215, 1000.000000000000000 ) ;
#581 = AXIS2_PLACEMENT_3D ( 'NONE', #72, #434, #717 ) ;
#582 = ORIENTED_EDGE ( 'NONE', *, *, #964, .F. ) ;
#583 = EDGE_CURVE ( 'NONE', #748, #922, #60, .T. ) ;
#584 = DIRECTION ( 'NONE',  ( 0.000000000000000000, 0.000000000000000000, 1.000000000000000000 ) ) ;
#585 = DIRECTION ( 'NONE',  ( -0.7071067811865457964, -0.000000000000000000, -0.7071067811865492381 ) ) ;
#586 = CARTESIAN_POINT ( 'NONE',  ( 12.69999999999998863, 4.445000000000000284, 49.91100000000001558 ) ) ;
#587 = ORIENTED_EDGE ( 'NONE', *, *, #190, .T. ) ;
#588 = CARTESIAN_POINT ( 'NONE',  ( -3.810000000000007603, 1.270000000000000018, 27.17000000000000881 ) ) ;
#589 = FACE_OUTER_BOUND ( 'NONE', #668, .T. ) ;
#590 = DIRECTION ( 'NONE',  ( 1.000000000000000000, 0.000000000000000000, 0.000000000000000000 ) ) ;
#591 = VERTEX_POINT ( 'NONE', #818 ) ;
#592 = DIRECTION ( 'NONE',  ( 1.000000000000000000, 0.000000000000000000, 0.000000000000000000 ) ) ;
#593 = AXIS2_PLACEMENT_3D ( 'NONE', #406, #790, #690 ) ;
#594 = EDGE_LOOP ( 'NONE', ( #767, #542, #838, #1158, #674, #927 ) ) ;
#595 = LINE ( 'NONE', #796, #622 ) ;
#596 = ORIENTED_EDGE ( 'NONE', *, *, #1078, .T. ) ;
#597 = EDGE_CURVE ( 'NONE', #96, #853, #1186, .T. ) ;
#598 = AXIS2_PLACEMENT_3D ( 'NONE', #696, #54, #619 ) ;
#599 = CARTESIAN_POINT ( 'NONE',  ( 1.769999999999993356, 2.270000000000000462, 21.58999999999998565 ) ) ;
#600 = DIRECTION ( 'NONE',  ( 1.000000000000000000, 0.000000000000000000, -1.365923996832132842E-16 ) ) ;
#601 = AXIS2_PLACEMENT_3D ( 'NONE', #269, #1112, #1016 ) ;
#602 = AXIS2_PLACEMENT_3D ( 'NONE', #112, #489, #688 ) ;
#603 = CARTESIAN_POINT ( 'NONE',  ( -19.05000000000001137, 1.270000000000000018, -1.770000000000002016 ) ) ;
#604 = EDGE_CURVE ( 'NONE', #82, #69, #1167, .T. ) ;
#605 = ORIENTED_EDGE ( 'NONE', *, *, #863, .T. ) ;
#606 = EDGE_CURVE ( 'NONE', #343, #853, #1181, .T. ) ;
#607 = CARTESIAN_POINT ( 'NONE',  ( -192.9129999999999825, 2.269999999999994245, -5.489001213999997297 ) ) ;
#608 = LINE ( 'NONE', #242, #1069 ) ;
#609 = CARTESIAN_POINT ( 'NONE',  ( -38.78149999999998698, -5.000000000000000000, 6.020998786000000713 ) ) ;
#610 = CARTESIAN_POINT ( 'NONE',  ( -192.9129999999999825, 4.445000000000000284, 49.91100000000001558 ) ) ;
#611 = ORIENTED_EDGE ( 'NONE', *, *, #233, .T. ) ;
#612 = DIRECTION ( 'NONE',  ( 1.000000000000000000, 0.000000000000000000, 0.000000000000000000 ) ) ;
#613 = DIRECTION ( 'NONE',  ( -1.365923996832132842E-16, -0.000000000000000000, -1.000000000000000000 ) ) ;
#614 = DIRECTION ( 'NONE',  ( -0.7071067811865474617, -0.000000000000000000, 0.7071067811865474617 ) ) ;
#615 = CC_DESIGN_PERSON_AND_ORGANIZATION_ASSIGNMENT ( #772, #764, ( #1190 ) ) ;
#616 = FACE_OUTER_BOUND ( 'NONE', #1015, .T. ) ;
#617 = ORIENTED_EDGE ( 'NONE', *, *, #972, .T. ) ;
#618 = CARTESIAN_POINT ( 'NONE',  ( -167.5764999999999816, -12.69999999999998863, 11.02099878600000160 ) ) ;
#619 = DIRECTION ( 'NONE',  ( -0.000000000000000000, 0.000000000000000000, 1.000000000000000000 ) ) ;
#620 = DIRECTION ( 'NONE',  ( 0.000000000000000000, 1.000000000000000000, -0.000000000000000000 ) ) ;
#621 = VECTOR ( 'NONE', #171, 1000.000000000000000 ) ;
#622 = VECTOR ( 'NONE', #1156, 1000.000000000000000 ) ;
#623 = AXIS2_PLACEMENT_3D ( 'NONE', #702, #888, #1080 ) ;
#624 = CARTESIAN_POINT ( 'NONE',  ( 12.69999999999998863, -12.69999999999998863, -5.489001213999998185 ) ) ;
#625 = ORIENTED_EDGE ( 'NONE', *, *, #1078, .F. ) ;
#626 = CARTESIAN_POINT ( 'NONE',  ( -144.3064999999999998, -4.999999999999980460, 6.020998786000000713 ) ) ;
#627 = FACE_OUTER_BOUND ( 'NONE', #26, .T. ) ;
#628 = ADVANCED_FACE ( 'NONE', ( #915 ), #539, .T. ) ;
#629 = DIRECTION ( 'NONE',  ( 1.000000000000000000, -0.000000000000000000, 0.000000000000000000 ) ) ;
#630 = EDGE_CURVE ( 'NONE', #130, #172, #418, .T. ) ;
#631 = ORIENTED_EDGE ( 'NONE', *, *, #553, .T. ) ;
#632 = PLANE ( 'NONE',  #1170 ) ;
#633 = PLANE ( 'NONE',  #1122 ) ;
#634 = ORIENTED_EDGE ( 'NONE', *, *, #692, .F. ) ;
#635 = AXIS2_PLACEMENT_3D ( 'NONE', #410, #952, #592 ) ;
#636 = AXIS2_PLACEMENT_3D ( 'NONE', #1076, #629, #137 ) ;
#637 = ORIENTED_EDGE ( 'NONE', *, *, #1127, .T. ) ;
#638 = LINE ( 'NONE', #737, #745 ) ;
#639 = ORIENTED_EDGE ( 'NONE', *, *, #1113, .F. ) ;
#640 = VECTOR ( 'NONE', #33, 1000.000000000000000 ) ;
#641 = DIRECTION ( 'NONE',  ( 0.000000000000000000, -1.000000000000000000, -0.000000000000000000 ) ) ;
#642 = VECTOR ( 'NONE', #821, 1000.000000000000000 ) ;
#643 = EDGE_CURVE ( 'NONE', #79, #699, #638, .T. ) ;
#644 = ORIENTED_EDGE ( 'NONE', *, *, #190, .F. ) ;
#645 = CARTESIAN_POINT ( 'NONE',  ( -176.4029999999999632, 1.270000000000000018, 27.17000000000003723 ) ) ;
#646 = ORIENTED_EDGE ( 'NONE', *, *, #1023, .T. ) ;
#647 = CARTESIAN_POINT ( 'NONE',  ( 12.69999999999998863, 2.269999999999994245, -5.489001213999997297 ) ) ;
#648 = EDGE_LOOP ( 'NONE', ( #650, #951, #625, #182 ) ) ;
#649 = DIRECTION ( 'NONE',  ( 1.000000000000000000, 0.000000000000000000, 0.000000000000000000 ) ) ;
#650 = ORIENTED_EDGE ( 'NONE', *, *, #71, .F. ) ;
#651 = DIRECTION ( 'NONE',  ( -0.000000000000000000, 0.000000000000000000, 1.000000000000000000 ) ) ;
#652 = EDGE_CURVE ( 'NONE', #469, #226, #917, .T. ) ;
#653 = AXIS2_PLACEMENT_3D ( 'NONE', #1082, #237, #890 ) ;
#654 = ORIENTED_EDGE ( 'NONE', *, *, #656, .F. ) ;
#655 = DIRECTION ( 'NONE',  ( 0.000000000000000000, -7.656524645920016286E-18, -1.000000000000000000 ) ) ;
#656 = EDGE_CURVE ( 'NONE', #751, #91, #278, .T. ) ;
#657 = VERTEX_POINT ( 'NONE', #368 ) ;
#658 = CARTESIAN_POINT ( 'NONE',  ( 0.000000000000000000, 1.270000000000000018, 0.000000000000000000 ) ) ;
#659 = COORDINATED_UNIVERSAL_TIME_OFFSET ( 5, 0, .BEHIND. ) ;
#660 = VECTOR ( 'NONE', #978, 1000.000000000000000 ) ;
#661 = VECTOR ( 'NONE', #438, 1000.000000000000000 ) ;
#662 = ORIENTED_EDGE ( 'NONE', *, *, #518, .T. ) ;
#663 = LINE ( 'NONE', #683, #580 ) ;
#664 = ORIENTED_EDGE ( 'NONE', *, *, #643, .T. ) ;
#665 = CARTESIAN_POINT ( 'NONE',  ( 12.69999999999998863, -12.69999999999998863, 51.18099999999999739 ) ) ;
#666 = PERSON_AND_ORGANIZATION ( #1044, #286 ) ;
#667 = EDGE_CURVE ( 'NONE', #887, #834, #1028, .T. ) ;
#668 = EDGE_LOOP ( 'NONE', ( #89, #664, #531, #414, #111, #369, #441, #676, #826, #709, #361, #101, #120, #792, #992, #234 ) ) ;
#669 = PLANE ( 'NONE',  #994 ) ;
#670 = FACE_OUTER_BOUND ( 'NONE', #63, .T. ) ;
#671 = CARTESIAN_POINT ( 'NONE',  ( -181.9829999999999757, 0.000000000000000000, 49.91099999999999426 ) ) ;
#672 = CALENDAR_DATE ( 2026, 26, 5 ) ;
#673 = EDGE_CURVE ( 'NONE', #284, #307, #468, .T. ) ;
#674 = ORIENTED_EDGE ( 'NONE', *, *, #715, .T. ) ;
#675 = CARTESIAN_POINT ( 'NONE',  ( 12.69999999999998863, 2.269999999999994245, -5.489001213999998185 ) ) ;
#676 = ORIENTED_EDGE ( 'NONE', *, *, #679, .T. ) ;
#677 = DIRECTION ( 'NONE',  ( -1.000000000000000000, 0.000000000000000000, 1.927470528863117569E-16 ) ) ;
#678 = DIRECTION ( 'NONE',  ( 0.000000000000000000, 0.000000000000000000, 1.000000000000000000 ) ) ;
#679 = EDGE_CURVE ( 'NONE', #374, #781, #1104, .T. ) ;
#680 = VECTOR ( 'NONE', #585, 1000.000000000000114 ) ;
#681 = CIRCLE ( 'NONE', #1131, 4.500000000000003553 ) ;
#682 = ORIENTED_EDGE ( 'NONE', *, *, #497, .F. ) ;
#683 = CARTESIAN_POINT ( 'NONE',  ( -31.40649999999997632, -4.999999999999999112, 23.74892084735786923 ) ) ;
#684 = CARTESIAN_POINT ( 'NONE',  ( -161.1629999999999825, 1.270000000000000018, -1.770000000000002016 ) ) ;
#685 = PLANE ( 'NONE',  #881 ) ;
#686 = DATE_AND_TIME ( #311, #448 ) ;
#687 = ORIENTED_EDGE ( 'NONE', *, *, #980, .F. ) ;
#688 = DIRECTION ( 'NONE',  ( -1.000000000000000000, 0.000000000000000000, 0.000000000000000000 ) ) ;
#689 = EDGE_LOOP ( 'NONE', ( #795, #1064, #449, #1084, #432, #596 ) ) ;
#690 = DIRECTION ( 'NONE',  ( 1.000000000000000000, 0.000000000000000000, 0.000000000000000000 ) ) ;
#691 = PRODUCT_DEFINITION ( 'UNKNOWN', '', #1190, #714 ) ;
#692 = EDGE_CURVE ( 'NONE', #332, #743, #761, .T. ) ;
#693 = EDGE_LOOP ( 'NONE', ( #1000, #779, #923, #254 ) ) ;
#694 = LINE ( 'NONE', #607, #1052 ) ;
#695 = AXIS2_PLACEMENT_3D ( 'NONE', #74, #444, #526 ) ;
#696 = CARTESIAN_POINT ( 'NONE',  ( -167.5764999999999816, 212.9456876847032731, 0.000000000000000000 ) ) ;
#697 = CARTESIAN_POINT ( 'NONE',  ( -176.4029999999999632, 0.000000000000000000, 49.91099999999999426 ) ) ;
#698 = EDGE_CURVE ( 'NONE', #509, #226, #1024, .T. ) ;
#699 = VERTEX_POINT ( 'NONE', #750 ) ;
#700 = VECTOR ( 'NONE', #655, 1000.000000000000000 ) ;
#701 = AXIS2_PLACEMENT_3D ( 'NONE', #1066, #983, #893 ) ;
#702 = CARTESIAN_POINT ( 'NONE',  ( -35.90649999999998698, -5.000000000000000000, 11.02099878600000515 ) ) ;
#703 = LINE ( 'NONE', #799, #223 ) ;
#704 = VECTOR ( 'NONE', #459, 1000.000000000000000 ) ;
#705 = LOCAL_TIME ( 12, 16, 38.00000000000000000, #568 ) ;
#706 = CARTESIAN_POINT ( 'NONE',  ( -147.1814999999999998, -4.999999999999980460, 6.020998786000000713 ) ) ;
#707 = DIRECTION ( 'NONE',  ( -1.365923996832132842E-16, -0.000000000000000000, -1.000000000000000000 ) ) ;
#708 = EDGE_CURVE ( 'NONE', #284, #773, #1116, .T. ) ;
#709 = ORIENTED_EDGE ( 'NONE', *, *, #980, .T. ) ;
#710 = CARTESIAN_POINT ( 'NONE',  ( -181.9830000000000041, 4.445000000000000284, 21.58999999999998209 ) ) ;
#711 = CARTESIAN_POINT ( 'NONE',  ( -3.810000000000007603, 4.445000000000000284, 27.17000000000000881 ) ) ;
#712 = FACE_BOUND ( 'NONE', #169, .T. ) ;
#713 = CARTESIAN_POINT ( 'NONE',  ( -3.810000000000007603, 1.270000000000000240, 49.91099999999999426 ) ) ;
#714 = DESIGN_CONTEXT ( 'detailed design', #757, 'design' ) ;
#715 = EDGE_CURVE ( 'NONE', #471, #294, #179, .T. ) ;
#716 = VERTEX_POINT ( 'NONE', #450 ) ;
#717 = DIRECTION ( 'NONE',  ( 1.000000000000000000, 0.000000000000000000, 0.000000000000000000 ) ) ;
#718 = FACE_OUTER_BOUND ( 'NONE', #134, .T. ) ;
#719 = FACE_OUTER_BOUND ( 'NONE', #114, .T. ) ;
#720 = FACE_OUTER_BOUND ( 'NONE', #786, .T. ) ;
#721 = VERTEX_POINT ( 'NONE', #84 ) ;
#722 = ADVANCED_FACE ( 'NONE', ( #461 ), #456, .T. ) ;
#723 = LINE ( 'NONE', #911, #938 ) ;
#724 = FACE_BOUND ( 'NONE', #1183, .T. ) ;
#725 = CLOSED_SHELL ( 'NONE', ( #61, #946, #778, #506, #515, #280, #827, #240, #503, #435, #98, #1162, #480, #1197, #577, #146, #322, #68, #36, #722, #950, #44, #628, #1107, #128, #867, #1152, #1033, #874, #754, #894, #297, #824, #457, #912, #164 ) ) ;
#726 = CARTESIAN_POINT ( 'NONE',  ( -12.63649999999999451, -12.69999999999998863, 51.18099999999999739 ) ) ;
#727 = VECTOR ( 'NONE', #924, 1000.000000000000000 ) ;
#728 = CIRCLE ( 'NONE', #914, 2.874999999999988454 ) ;
#729 = VECTOR ( 'NONE', #532, 1000.000000000000000 ) ;
#730 = FACE_OUTER_BOUND ( 'NONE', #916, .T. ) ;
#731 = EDGE_LOOP ( 'NONE', ( #99, #1103, #1056, #474, #1119, #587, #1108, #187 ) ) ;
#732 = DIRECTION ( 'NONE',  ( 1.000000000000000000, 0.000000000000000000, 0.000000000000000000 ) ) ;
#733 = DIRECTION ( 'NONE',  ( -1.000000000000000000, 0.000000000000000000, 0.000000000000000000 ) ) ;
#734 = CARTESIAN_POINT ( 'NONE',  ( -35.90649999999997988, -5.000000000000000000, 6.020998786000000713 ) ) ;
#735 = EDGE_CURVE ( 'NONE', #389, #944, #1201, .T. ) ;
#736 = ORIENTED_EDGE ( 'NONE', *, *, #604, .T. ) ;
#737 = CARTESIAN_POINT ( 'NONE',  ( -19.05000000000001137, 2.270000000000000462, -1.770000000000038431 ) ) ;
#738 = EDGE_LOOP ( 'NONE', ( #151, #117 ) ) ;
#739 = EDGE_CURVE ( 'NONE', #172, #79, #742, .T. ) ;
#740 = CARTESIAN_POINT ( 'NONE',  ( -180.2129999999999939, 1.270000000000000018, 49.91100000000001558 ) ) ;
#741 = VERTEX_POINT ( 'NONE', #1110 ) ;
#742 = LINE ( 'NONE', #928, #839 ) ;
#743 = VERTEX_POINT ( 'NONE', #645 ) ;
#744 = CIRCLE ( 'NONE', #635, 2.875000000000002665 ) ;
#745 = VECTOR ( 'NONE', #1120, 1000.000000000000114 ) ;
#746 = DIRECTION ( 'NONE',  ( -1.365923996832132842E-16, 0.000000000000000000, -1.000000000000000000 ) ) ;
#747 = APPROVAL_PERSON_ORGANIZATION ( #24, #976, #777 ) ;
#748 = VERTEX_POINT ( 'NONE', #88 ) ;
#749 = EDGE_CURVE ( 'NONE', #699, #343, #558, .T. ) ;
#750 = CARTESIAN_POINT ( 'NONE',  ( -19.05000000000001137, 2.269999999999994245, -1.770000000000002016 ) ) ;
#751 = VERTEX_POINT ( 'NONE', #272 ) ;
#752 = DIRECTION ( 'NONE',  ( 1.000000000000000000, 0.000000000000000000, 0.000000000000000000 ) ) ;
#753 = ORIENTED_EDGE ( 'NONE', *, *, #553, .F. ) ;
#754 = ADVANCED_FACE ( 'NONE', ( #933 ), #755, .T. ) ;
#755 = PLANE ( 'NONE',  #264 ) ;
#756 = ORIENTED_EDGE ( 'NONE', *, *, #597, .T. ) ;
#757 = APPLICATION_CONTEXT ( 'configuration controlled 3d designs of mechanical parts and assemblies' ) ;
#758 = DIRECTION ( 'NONE',  ( -0.000000000000000000, 0.000000000000000000, 1.000000000000000000 ) ) ;
#759 = CIRCLE ( 'NONE', #695, 2.874999999999988454 ) ;
#760 = ORIENTED_EDGE ( 'NONE', *, *, #902, .T. ) ;
#761 = LINE ( 'NONE', #260, #423 ) ;
#762 = ORIENTED_EDGE ( 'NONE', *, *, #652, .T. ) ;
#763 = CARTESIAN_POINT ( 'NONE',  ( -3.810000000000007603, 2.269999999999994245, 27.17000000000000881 ) ) ;
#764 = PERSON_AND_ORGANIZATION_ROLE ( 'design_supplier' ) ;
#765 = EDGE_CURVE ( 'NONE', #657, #469, #848, .T. ) ;
#766 = VECTOR ( 'NONE', #412, 1000.000000000000000 ) ;
#767 = ORIENTED_EDGE ( 'NONE', *, *, #692, .T. ) ;
#768 = LINE ( 'NONE', #198, #1051 ) ;
#769 = CARTESIAN_POINT ( 'NONE',  ( -181.9829999999999757, 0.000000000000000000, -1.770000000000002016 ) ) ;
#770 = CARTESIAN_POINT ( 'NONE',  ( -155.5829999999999700, 4.445000000000000284, 3.809999999999999165 ) ) ;
#771 = EDGE_CURVE ( 'NONE', #37, #1133, #1196, .T. ) ;
#772 = PERSON_AND_ORGANIZATION ( #1044, #286 ) ;
#773 = VERTEX_POINT ( 'NONE', #588 ) ;
#774 = CARTESIAN_POINT ( 'NONE',  ( -12.63649999999999451, -12.69999999999998863, 11.02099878600000160 ) ) ;
#775 = VERTEX_POINT ( 'NONE', #129 ) ;
#776 = CARTESIAN_POINT ( 'NONE',  ( -144.3064999999999998, -4.999999999999980460, -5.489001214000003515 ) ) ;
#777 = APPROVAL_ROLE ( '' ) ;
#778 = ADVANCED_FACE ( 'NONE', ( #1140 ), #118, .F. ) ;
#779 = ORIENTED_EDGE ( 'NONE', *, *, #228, .F. ) ;
#780 = DIRECTION ( 'NONE',  ( -0.7071067811865475727, -0.000000000000000000, -0.7071067811865475727 ) ) ;
#781 = VERTEX_POINT ( 'NONE', #675 ) ;
#782 = CARTESIAN_POINT ( 'NONE',  ( -161.1629999999999825, 2.269999999999994245, -1.770000000000002016 ) ) ;
#783 = VECTOR ( 'NONE', #481, 1000.000000000000000 ) ;
#784 = VECTOR ( 'NONE', #948, 1000.000000000000000 ) ;
#785 = VECTOR ( 'NONE', #1065, 1000.000000000000000 ) ;
#786 = EDGE_LOOP ( 'NONE', ( #202, #687, #611, #1089 ) ) ;
#787 = LINE ( 'NONE', #1060, #898 ) ;
#788 = ORIENTED_EDGE ( 'NONE', *, *, #667, .T. ) ;
#789 = EDGE_CURVE ( 'NONE', #214, #843, #663, .T. ) ;
#790 = DIRECTION ( 'NONE',  ( 0.000000000000000000, -0.000000000000000000, -1.000000000000000000 ) ) ;
#791 = PERSON_AND_ORGANIZATION ( #1044, #286 ) ;
#792 = ORIENTED_EDGE ( 'NONE', *, *, #271, .F. ) ;
#793 = EDGE_CURVE ( 'NONE', #1097, #1036, #768, .T. ) ;
#794 = LINE ( 'NONE', #209, #106 ) ;
#795 = ORIENTED_EDGE ( 'NONE', *, *, #413, .F. ) ;
#796 = CARTESIAN_POINT ( 'NONE',  ( -167.5764999999999816, 212.9456876847032731, 11.02099878600000160 ) ) ;
#797 = ORIENTED_EDGE ( 'NONE', *, *, #25, .F. ) ;
#798 = DIRECTION ( 'NONE',  ( -1.365923996832132842E-16, -0.000000000000000000, -1.000000000000000000 ) ) ;
#799 = CARTESIAN_POINT ( 'NONE',  ( -147.1814999999999998, -4.999999999999980460, 51.18100000000001870 ) ) ;
#800 = LINE ( 'NONE', #726, #965 ) ;
#801 = CC_DESIGN_DATE_AND_TIME_ASSIGNMENT ( #396, #1132, ( #691 ) ) ;
#802 = ORIENTED_EDGE ( 'NONE', *, *, #583, .F. ) ;
#803 = AXIS2_PLACEMENT_3D ( 'NONE', #711, #443, #136 ) ;
#804 = CIRCLE ( 'NONE', #2, 4.500000000000003553 ) ;
#805 = CARTESIAN_POINT ( 'NONE',  ( -167.5764999999999816, 0.000000000000000000, 51.18099999999999739 ) ) ;
#806 = DIRECTION ( 'NONE',  ( -1.000000000000000000, 0.000000000000000000, 0.000000000000000000 ) ) ;
#807 = DIRECTION ( 'NONE',  ( 0.000000000000000000, 0.000000000000000000, 1.000000000000000000 ) ) ;
#808 = EDGE_CURVE ( 'NONE', #891, #930, #304, .T. ) ;
#809 = DIRECTION ( 'NONE',  ( -1.000000000000000000, 0.000000000000000000, 1.927470528863117569E-16 ) ) ;
#810 = ORIENTED_EDGE ( 'NONE', *, *, #518, .F. ) ;
#811 = DIRECTION ( 'NONE',  ( 1.000000000000000000, 0.000000000000000000, 0.000000000000000000 ) ) ;
#812 = DIRECTION ( 'NONE',  ( 0.000000000000000000, -1.000000000000000000, 0.000000000000000000 ) ) ;
#813 = PLANE ( 'NONE',  #636 ) ;
#814 = EDGE_CURVE ( 'NONE', #69, #490, #349, .T. ) ;
#815 = ORIENTED_EDGE ( 'NONE', *, *, #673, .F. ) ;
#816 = LINE ( 'NONE', #139, #22 ) ;
#817 = CARTESIAN_POINT ( 'NONE',  ( -33.03149999999998698, -5.000000000000000000, 11.02099878600000515 ) ) ;
#818 = CARTESIAN_POINT ( 'NONE',  ( -12.63649999999999451, 0.000000000000000000, 51.18099999999999739 ) ) ;
#819 = DIRECTION ( 'NONE',  ( -1.365923996832133088E-16, -0.000000000000000000, -1.000000000000000000 ) ) ;
#820 = EDGE_LOOP ( 'NONE', ( #815, #288, #273, #571, #1061, #1020 ) ) ;
#821 = DIRECTION ( 'NONE',  ( 0.000000000000000000, 1.000000000000000000, 0.000000000000000000 ) ) ;
#822 = CARTESIAN_POINT ( 'NONE',  ( -192.9129999999999825, -12.69999999999998863, -5.489001213999998185 ) ) ;
#823 = AXIS2_PLACEMENT_3D ( 'NONE', #1037, #651, #752 ) ;
#824 = ADVANCED_FACE ( 'NONE', ( #508 ), #1046, .F. ) ;
#825 = LINE ( 'NONE', #624, #661 ) ;
#826 = ORIENTED_EDGE ( 'NONE', *, *, #228, .T. ) ;
#827 = ADVANCED_FACE ( 'NONE', ( #967 ), #884, .F. ) ;
#828 = DIRECTION ( 'NONE',  ( 0.000000000000000000, 0.000000000000000000, -1.000000000000000000 ) ) ;
#829 = ORIENTED_EDGE ( 'NONE', *, *, #463, .F. ) ;
#830 = EDGE_CURVE ( 'NONE', #490, #69, #744, .T. ) ;
#831 = LINE ( 'NONE', #835, #704 ) ;
#832 = ORIENTED_EDGE ( 'NONE', *, *, #715, .F. ) ;
#833 = CARTESIAN_POINT ( 'NONE',  ( 1.769999999999993356, 1.270000000000000240, 49.91099999999999426 ) ) ;
#834 = VERTEX_POINT ( 'NONE', #43 ) ;
#835 = CARTESIAN_POINT ( 'NONE',  ( -181.9830000000000041, 2.270000000000000462, 21.58999999999998209 ) ) ;
#836 = EDGE_LOOP ( 'NONE', ( #323, #523, #654, #493 ) ) ;
#837 = DIRECTION ( 'NONE',  ( 0.000000000000000000, -1.000000000000000000, 3.469446951953634305E-15 ) ) ;
#838 = ORIENTED_EDGE ( 'NONE', *, *, #910, .F. ) ;
#839 = VECTOR ( 'NONE', #95, 1000.000000000000000 ) ;
#840 = CARTESIAN_POINT ( 'NONE',  ( -181.9829999999999757, 2.269999999999994245, -1.269999999999996909 ) ) ;
#841 = SECURITY_CLASSIFICATION ( '', '', #573 ) ;
#842 = EDGE_CURVE ( 'NONE', #741, #591, #794, .T. ) ;
#843 = VERTEX_POINT ( 'NONE', #1154 ) ;
#844 = CARTESIAN_POINT ( 'NONE',  ( 1.769999999999993356, 0.000000000000000000, -1.269999999999996909 ) ) ;
#845 = ORIENTED_EDGE ( 'NONE', *, *, #842, .F. ) ;
#846 = FACE_OUTER_BOUND ( 'NONE', #1034, .T. ) ;
#847 = ORIENTED_EDGE ( 'NONE', *, *, #454, .T. ) ;
#848 = LINE ( 'NONE', #165, #204 ) ;
#849 = ORIENTED_EDGE ( 'NONE', *, *, #830, .F. ) ;
#850 = DIRECTION ( 'NONE',  ( 1.000000000000000000, 0.000000000000000000, 0.000000000000000000 ) ) ;
#851 = COORDINATED_UNIVERSAL_TIME_OFFSET ( 5, 0, .BEHIND. ) ;
#852 = VECTOR ( 'NONE', #1087, 1000.000000000000000 ) ;
#853 = VERTEX_POINT ( 'NONE', #961 ) ;
#854 = DIRECTION ( 'NONE',  ( -1.000000000000000000, 0.000000000000000000, 0.000000000000000000 ) ) ;
#855 = ORIENTED_EDGE ( 'NONE', *, *, #1124, .T. ) ;
#856 = DIRECTION ( 'NONE',  ( 0.7071067811865474617, -0.000000000000000000, -0.7071067811865474617 ) ) ;
#857 = CALENDAR_DATE ( 2026, 26, 5 ) ;
#858 = VECTOR ( 'NONE', #1013, 1000.000000000000000 ) ;
#859 = UNCERTAINTY_MEASURE_WITH_UNIT (LENGTH_MEASURE( 1.000000000000000082E-05 ), #1182, 'distance_accuracy_value', 'NONE');
#860 = LOCAL_TIME ( 12, 16, 38.00000000000000000, #851 ) ;
#861 = ORIENTED_EDGE ( 'NONE', *, *, #1124, .F. ) ;
#862 = CARTESIAN_POINT ( 'NONE',  ( 1.769999999999993356, 0.000000000000000000, 0.000000000000000000 ) ) ;
#863 = EDGE_CURVE ( 'NONE', #956, #591, #575, .T. ) ;
#864 = CARTESIAN_POINT ( 'NONE',  ( 0.000000000000000000, 2.270000000000000462, 0.000000000000000000 ) ) ;
#865 = DIRECTION ( 'NONE',  ( 0.000000000000000000, 0.000000000000000000, -1.000000000000000000 ) ) ;
#866 = APPLICATION_PROTOCOL_DEFINITION ( 'international standard', 'config_control_design', 1994, #757 ) ;
#867 = ADVANCED_FACE ( 'NONE', ( #945, #123 ), #314, .F. ) ;
#868 = EDGE_LOOP ( 'NONE', ( #75, #216, #487, #261 ) ) ;
#869 = DIRECTION ( 'NONE',  ( 0.000000000000000000, -0.000000000000000000, -1.000000000000000000 ) ) ;
#870 = ORIENTED_EDGE ( 'NONE', *, *, #1193, .F. ) ;
#871 = CARTESIAN_POINT ( 'NONE',  ( 12.69999999999998153, 2.269999999999994245, 51.18099999999999739 ) ) ;
#872 = PERSON_AND_ORGANIZATION_ROLE ( 'classification_officer' ) ;
#873 = ORIENTED_EDGE ( 'NONE', *, *, #291, .F. ) ;
#874 = ADVANCED_FACE ( 'NONE', ( #105 ), #479, .F. ) ;
#875 = DIRECTION ( 'NONE',  ( -0.000000000000000000, 0.000000000000000000, 1.000000000000000000 ) ) ;
#876 = CARTESIAN_POINT ( 'NONE',  ( -155.5829999999999700, 4.445000000000000284, 3.809999999999999165 ) ) ;
#877 = DIRECTION ( 'NONE',  ( -1.365923996832132842E-16, 0.000000000000000000, -1.000000000000000000 ) ) ;
#878 = CALENDAR_DATE ( 2026, 26, 5 ) ;
#879 = EDGE_CURVE ( 'NONE', #834, #1036, #787, .T. ) ;
#880 = AXIS2_PLACEMENT_3D ( 'NONE', #525, #520, #600 ) ;
#881 = AXIS2_PLACEMENT_3D ( 'NONE', #586, #295, #40 ) ;
#882 = CIRCLE ( 'NONE', #115, 2.874999999999988454 ) ;
#883 = ORIENTED_EDGE ( 'NONE', *, *, #630, .F. ) ;
#884 = PLANE ( 'NONE',  #76 ) ;
#885 = CARTESIAN_POINT ( 'NONE',  ( -144.3064999999999998, -4.999999999999980460, 23.74892084735788345 ) ) ;
#886 = CARTESIAN_POINT ( 'NONE',  ( -12.63649999999999451, -12.69999999999998863, 51.18099999999999739 ) ) ;
#887 = VERTEX_POINT ( 'NONE', #17 ) ;
#888 = DIRECTION ( 'NONE',  ( -0.000000000000000000, 0.000000000000000000, 1.000000000000000000 ) ) ;
#889 = CARTESIAN_POINT ( 'NONE',  ( -161.1629999999999825, 2.269999999999994245, -1.770000000000002016 ) ) ;
#890 = DIRECTION ( 'NONE',  ( 1.000000000000000000, 0.000000000000000000, 0.000000000000000000 ) ) ;
#891 = VERTEX_POINT ( 'NONE', #387 ) ;
#892 = DIRECTION ( 'NONE',  ( 1.000000000000000000, 0.000000000000000000, 0.000000000000000000 ) ) ;
#893 = DIRECTION ( 'NONE',  ( -1.000000000000000000, 0.000000000000000000, 0.000000000000000000 ) ) ;
#894 = ADVANCED_FACE ( 'NONE', ( #293 ), #669, .T. ) ;
#895 = LINE ( 'NONE', #335, #541 ) ;
#896 = DIRECTION ( 'NONE',  ( 1.000000000000000000, 0.000000000000000000, -4.218418767239443746E-18 ) ) ;
#897 = EDGE_LOOP ( 'NONE', ( #870, #384, #208, #419 ) ) ;
#898 = VECTOR ( 'NONE', #854, 1000.000000000000000 ) ;
#899 = LINE ( 'NONE', #1173, #150 ) ;
#900 = FACE_OUTER_BOUND ( 'NONE', #478, .T. ) ;
#901 = CARTESIAN_POINT ( 'NONE',  ( -167.5764999999999816, 0.000000000000000000, 0.000000000000000000 ) ) ;
#902 = EDGE_CURVE ( 'NONE', #458, #956, #899, .T. ) ;
#903 = CARTESIAN_POINT ( 'NONE',  ( -101.7865000000004301, 1.270000000000000018, 101.7864999999999469 ) ) ;
#904 = ORIENTED_EDGE ( 'NONE', *, *, #365, .F. ) ;
#905 = PLANE ( 'NONE',  #367 ) ;
#906 = DIRECTION ( 'NONE',  ( -0.000000000000000000, 0.000000000000000000, 1.000000000000000000 ) ) ;
#907 = CARTESIAN_POINT ( 'NONE',  ( -33.03149999999997988, -5.000000000000000000, 51.18100000000000449 ) ) ;
#908 = DIRECTION ( 'NONE',  ( 0.7071067811865457964, -0.000000000000000000, 0.7071067811865492381 ) ) ;
#909 = ORIENTED_EDGE ( 'NONE', *, *, #30, .F. ) ;
#910 = EDGE_CURVE ( 'NONE', #536, #174, #816, .T. ) ;
#911 = CARTESIAN_POINT ( 'NONE',  ( 0.000000000000000000, 1.270000000000000018, 49.91100000000001558 ) ) ;
#912 = ADVANCED_FACE ( 'NONE', ( #152 ), #1092, .F. ) ;
#913 = CARTESIAN_POINT ( 'NONE',  ( 12.69999999999998863, 4.445000000000000284, -5.489001213999997297 ) ) ;
#914 = AXIS2_PLACEMENT_3D ( 'NONE', #491, #963, #1067 ) ;
#915 = FACE_OUTER_BOUND ( 'NONE', #455, .T. ) ;
#916 = EDGE_LOOP ( 'NONE', ( #85, #847, #259, #617 ) ) ;
#917 = LINE ( 'NONE', #78, #1068 ) ;
#918 = VECTOR ( 'NONE', #194, 1000.000000000000000 ) ;
#919 = VECTOR ( 'NONE', #528, 1000.000000000000000 ) ;
#920 = ORIENTED_EDGE ( 'NONE', *, *, #771, .T. ) ;
#921 = CARTESIAN_POINT ( 'NONE',  ( -192.9129999999999825, -12.69999999999998863, -5.489001213999997297 ) ) ;
#922 = VERTEX_POINT ( 'NONE', #333 ) ;
#923 = ORIENTED_EDGE ( 'NONE', *, *, #71, .T. ) ;
#924 = DIRECTION ( 'NONE',  ( -0.000000000000000000, -0.000000000000000000, -1.000000000000000000 ) ) ;
#925 = VERTEX_POINT ( 'NONE', #1074 ) ;
#926 = DIRECTION ( 'NONE',  ( -0.000000000000000000, -1.000000000000000000, -0.000000000000000000 ) ) ;
#927 = ORIENTED_EDGE ( 'NONE', *, *, #424, .F. ) ;
#928 = CARTESIAN_POINT ( 'NONE',  ( -161.1629999999999825, 2.269999999999994245, 3.809999999999999609 ) ) ;
#929 = EDGE_CURVE ( 'NONE', #1097, #751, #723, .T. ) ;
#930 = VERTEX_POINT ( 'NONE', #415 ) ;
#931 = PLANE ( 'NONE',  #823 ) ;
#932 = ORIENTED_EDGE ( 'NONE', *, *, #168, .T. ) ;
#933 = FACE_OUTER_BOUND ( 'NONE', #247, .T. ) ;
#934 = ORIENTED_EDGE ( 'NONE', *, *, #564, .F. ) ;
#935 = EDGE_CURVE ( 'NONE', #925, #82, #1091, .T. ) ;
#936 = LINE ( 'NONE', #740, #918 ) ;
#937 = AXIS2_PLACEMENT_3D ( 'NONE', #274, #86, #850 ) ;
#938 = VECTOR ( 'NONE', #811, 1000.000000000000000 ) ;
#939 = EDGE_CURVE ( 'NONE', #82, #925, #206, .T. ) ;
#940 = EDGE_LOOP ( 'NONE', ( #411, #1017, #966, #1141 ) ) ;
#941 = DIRECTION ( 'NONE',  ( 0.000000000000000000, -1.000000000000000000, 0.000000000000000000 ) ) ;
#942 = ORIENTED_EDGE ( 'NONE', *, *, #656, .T. ) ;
#943 = LINE ( 'NONE', #647, #21 ) ;
#944 = VERTEX_POINT ( 'NONE', #1085 ) ;
#945 = FACE_OUTER_BOUND ( 'NONE', #4, .T. ) ;
#946 = ADVANCED_FACE ( 'NONE', ( #229 ), #318, .F. ) ;
#947 = LINE ( 'NONE', #107, #783 ) ;
#948 = DIRECTION ( 'NONE',  ( -1.000000000000000000, 0.000000000000000000, 0.000000000000000000 ) ) ;
#949 = COORDINATED_UNIVERSAL_TIME_OFFSET ( 5, 0, .BEHIND. ) ;
#950 = ADVANCED_FACE ( 'NONE', ( #1184 ), #905, .F. ) ;
#951 = ORIENTED_EDGE ( 'NONE', *, *, #679, .F. ) ;
#952 = DIRECTION ( 'NONE',  ( 0.000000000000000000, -0.000000000000000000, -1.000000000000000000 ) ) ;
#953 = EDGE_CURVE ( 'NONE', #11, #130, #513, .T. ) ;
#954 = PLANE ( 'NONE',  #970 ) ;
#955 = DIRECTION ( 'NONE',  ( -0.000000000000000000, 0.000000000000000000, 1.000000000000000000 ) ) ;
#956 = VERTEX_POINT ( 'NONE', #344 ) ;
#957 = CARTESIAN_POINT ( 'NONE',  ( -12.63649999999999451, 0.000000000000000000, 0.000000000000000000 ) ) ;
#958 = CARTESIAN_POINT ( 'NONE',  ( -79.69650000000038403, 1.270000000000000018, 79.69649999999998613 ) ) ;
#959 = CARTESIAN_POINT ( 'NONE',  ( -167.5764999999999816, 0.000000000000000000, 11.02099878600000160 ) ) ;
#960 = ORIENTED_EDGE ( 'NONE', *, *, #46, .F. ) ;
#961 = CARTESIAN_POINT ( 'NONE',  ( -24.63000000000004164, 1.270000000000000018, 3.809999999999991172 ) ) ;
#962 = PLANE ( 'NONE',  #283 ) ;
#963 = DIRECTION ( 'NONE',  ( -0.000000000000000000, 0.000000000000000000, 1.000000000000000000 ) ) ;
#964 = EDGE_CURVE ( 'NONE', #887, #303, #1165, .T. ) ;
#965 = VECTOR ( 'NONE', #1175, 1000.000000000000000 ) ;
#966 = ORIENTED_EDGE ( 'NONE', *, *, #879, .T. ) ;
#967 = FACE_OUTER_BOUND ( 'NONE', #594, .T. ) ;
#968 = LINE ( 'NONE', #769, #1088 ) ;
#969 = DIRECTION ( 'NONE',  ( -1.365923996832132842E-16, 0.000000000000000000, -1.000000000000000000 ) ) ;
#970 = AXIS2_PLACEMENT_3D ( 'NONE', #1041, #1155, #399 ) ;
#971 = AXIS2_PLACEMENT_3D ( 'NONE', #1035, #780, #1134 ) ;
#972 = EDGE_CURVE ( 'NONE', #495, #1133, #882, .T. ) ;
#973 = AXIS2_PLACEMENT_3D ( 'NONE', #1136, #877, #395 ) ;
#974 = VECTOR ( 'NONE', #908, 1000.000000000000000 ) ;
#975 = VERTEX_POINT ( 'NONE', #53 ) ;
#976 = APPROVAL ( #504, 'UNSPECIFIED' ) ;
#977 = FACE_OUTER_BOUND ( 'NONE', #1144, .T. ) ;
#978 = DIRECTION ( 'NONE',  ( 0.000000000000000000, 7.656524645920016286E-18, 1.000000000000000000 ) ) ;
#979 = FACE_OUTER_BOUND ( 'NONE', #648, .T. ) ;
#980 = EDGE_CURVE ( 'NONE', #338, #922, #694, .T. ) ;
#981 = ORIENTED_EDGE ( 'NONE', *, *, #652, .F. ) ;
#982 = DIRECTION ( 'NONE',  ( -0.000000000000000000, -0.000000000000000000, -1.000000000000000000 ) ) ;
#983 = DIRECTION ( 'NONE',  ( -1.365923996832133088E-16, -0.000000000000000000, -1.000000000000000000 ) ) ;
#984 = FACE_OUTER_BOUND ( 'NONE', #836, .T. ) ;
#985 = CARTESIAN_POINT ( 'NONE',  ( -35.90649999999997988, -5.000000000000000000, 23.74892084735786923 ) ) ;
#986 = ORIENTED_EDGE ( 'NONE', *, *, #196, .F. ) ;
#987 = EDGE_CURVE ( 'NONE', #741, #1036, #1001, .T. ) ;
#988 = DIRECTION ( 'NONE',  ( 0.000000000000000000, 0.000000000000000000, -1.000000000000000000 ) ) ;
#989 = CARTESIAN_POINT ( 'NONE',  ( -167.5764999999999816, -12.69999999999998863, 51.18099999999999739 ) ) ;
#990 = DIRECTION ( 'NONE',  ( 0.000000000000000000, 0.000000000000000000, -1.000000000000000000 ) ) ;
#991 = PLANE ( 'NONE',  #425 ) ;
#992 = ORIENTED_EDGE ( 'NONE', *, *, #473, .F. ) ;
#993 = AXIS2_PLACEMENT_3D ( 'NONE', #364, #746, #1021 ) ;
#994 = AXIS2_PLACEMENT_3D ( 'NONE', #862, #27, #393 ) ;
#995 = LINE ( 'NONE', #618, #729 ) ;
#996 = CARTESIAN_POINT ( 'NONE',  ( -181.9829999999999757, 1.270000000000000018, 21.58999999999998565 ) ) ;
#997 = LINE ( 'NONE', #1095, #852 ) ;
#998 = FACE_OUTER_BOUND ( 'NONE', #499, .T. ) ;
#999 = EDGE_CURVE ( 'NONE', #956, #891, #158, .T. ) ;
#1000 = ORIENTED_EDGE ( 'NONE', *, *, #233, .F. ) ;
#1001 = LINE ( 'NONE', #58, #1151 ) ;
#1002 = PLANE ( 'NONE',  #803 ) ;
#1003 = APPLICATION_CONTEXT ( 'configuration controlled 3d designs of mechanical parts and assemblies' ) ;
#1004 = DIRECTION ( 'NONE',  ( -1.365923996832133088E-16, -0.000000000000000000, -1.000000000000000000 ) ) ;
#1005 = CYLINDRICAL_SURFACE ( 'NONE', #266, 2.874999999999988454 ) ;
#1006 = ORIENTED_EDGE ( 'NONE', *, *, #347, .T. ) ;
#1007 = AXIS2_PLACEMENT_3D ( 'NONE', #355, #51, #346 ) ;
#1008 = DIRECTION ( 'NONE',  ( -0.000000000000000000, 0.000000000000000000, 1.000000000000000000 ) ) ;
#1009 = VERTEX_POINT ( 'NONE', #805 ) ;
#1010 = DIRECTION ( 'NONE',  ( 0.000000000000000000, -0.000000000000000000, -1.000000000000000000 ) ) ;
#1011 = ORIENTED_EDGE ( 'NONE', *, *, #313, .T. ) ;
#1012 = VECTOR ( 'NONE', #554, 1000.000000000000000 ) ;
#1013 = DIRECTION ( 'NONE',  ( 0.000000000000000000, 0.000000000000000000, 1.000000000000000000 ) ) ;
#1014 = APPROVAL_PERSON_ORGANIZATION ( #1043, #1047, #483 ) ;
#1015 = EDGE_LOOP ( 'NONE', ( #548, #576, #797, #981, #1195, #832, #555, #753, #760, #605, #845, #397 ) ) ;
#1016 = DIRECTION ( 'NONE',  ( -1.000000000000000000, 0.000000000000000000, 6.103324382627934694E-17 ) ) ;
#1017 = ORIENTED_EDGE ( 'NONE', *, *, #23, .F. ) ;
#1018 = EDGE_CURVE ( 'NONE', #930, #372, #995, .T. ) ;
#1019 = CARTESIAN_POINT ( 'NONE',  ( -3.810000000000007603, 2.269999999999994245, 21.58999999999999631 ) ) ;
#1020 = ORIENTED_EDGE ( 'NONE', *, *, #328, .F. ) ;
#1021 = DIRECTION ( 'NONE',  ( -1.000000000000000000, 0.000000000000000000, 1.927470528863117569E-16 ) ) ;
#1022 = ORIENTED_EDGE ( 'NONE', *, *, #604, .F. ) ;
#1023 = EDGE_CURVE ( 'NONE', #853, #79, #537, .T. ) ;
#1024 = LINE ( 'NONE', #267, #327 ) ;
#1025 = VERTEX_POINT ( 'NONE', #599 ) ;
#1026 = CARTESIAN_POINT ( 'NONE',  ( -3.810000000000007603, 2.269999999999994245, 51.18099999999999739 ) ) ;
#1027 = ORIENTED_EDGE ( 'NONE', *, *, #505, .F. ) ;
#1028 = LINE ( 'NONE', #844, #858 ) ;
#1029 = EDGE_LOOP ( 'NONE', ( #644, #1117, #104, #162 ) ) ;
#1030 = CARTESIAN_POINT ( 'NONE',  ( -176.4029999999999632, 1.270000000000000018, 49.91099999999999426 ) ) ;
#1031 = VECTOR ( 'NONE', #301, 1000.000000000000000 ) ;
#1032 = AXIS2_PLACEMENT_3D ( 'NONE', #610, #356, #142 ) ;
#1033 = ADVANCED_FACE ( 'NONE', ( #977, #135 ), #632, .F. ) ;
#1034 = EDGE_LOOP ( 'NONE', ( #574, #552, #1027, #639 ) ) ;
#1035 = CARTESIAN_POINT ( 'NONE',  ( -19.05000000000001137, 4.445000000000000284, -1.770000000000038431 ) ) ;
#1036 = VERTEX_POINT ( 'NONE', #1098 ) ;
#1037 = CARTESIAN_POINT ( 'NONE',  ( 0.000000000000000000, 0.000000000000000000, -1.770000000000002016 ) ) ;
#1038 = EDGE_CURVE ( 'NONE', #773, #1097, #255, .T. ) ;
#1039 = ORIENTED_EDGE ( 'NONE', *, *, #119, .T. ) ;
#1040 = DIRECTION ( 'NONE',  ( 1.000000000000000000, 0.000000000000000000, 0.000000000000000000 ) ) ;
#1041 = CARTESIAN_POINT ( 'NONE',  ( 0.000000000000000000, 0.000000000000000000, 49.91099999999999426 ) ) ;
#1042 = CARTESIAN_POINT ( 'NONE',  ( -176.4029999999999632, -1.208654451933713058E-15, 51.18099999999999739 ) ) ;
#1043 = PERSON_AND_ORGANIZATION ( #1044, #286 ) ;
#1044 = PERSON ( 'UNSPECIFIED', 'UNSPECIFIED', 'UNSPECIFIED', ('UNSPECIFIED'), ('UNSPECIFIED'), ('UNSPECIFIED') ) ;
#1045 = ORIENTED_EDGE ( 'NONE', *, *, #765, .F. ) ;
#1046 = PLANE ( 'NONE',  #971 ) ;
#1047 = APPROVAL ( #302, 'UNSPECIFIED' ) ;
#1048 = DIRECTION ( 'NONE',  ( -1.000000000000000000, 0.000000000000000000, 0.000000000000000000 ) ) ;
#1049 = CARTESIAN_POINT ( 'NONE',  ( -167.5764999999999816, -12.69999999999998863, 51.18099999999999739 ) ) ;
#1050 = SHAPE_DEFINITION_REPRESENTATION ( #1115, #331 ) ;
#1051 = VECTOR ( 'NONE', #494, 1000.000000000000000 ) ;
#1052 = VECTOR ( 'NONE', #144, 1000.000000000000000 ) ;
#1053 = VERTEX_POINT ( 'NONE', #56 ) ;
#1054 = EDGE_CURVE ( 'NONE', #268, #1053, #1171, .T. ) ;
#1055 = DIRECTION ( 'NONE',  ( 0.000000000000000000, 0.000000000000000000, 1.000000000000000000 ) ) ;
#1056 = ORIENTED_EDGE ( 'NONE', *, *, #964, .T. ) ;
#1057 = CARTESIAN_POINT ( 'NONE',  ( -3.810000000000007603, 2.269999999999994245, 51.18099999999999739 ) ) ;
#1058 = APPLICATION_PROTOCOL_DEFINITION ( 'international standard', 'config_control_design', 1994, #1003 ) ;
#1059 = ORIENTED_EDGE ( 'NONE', *, *, #749, .F. ) ;
#1060 = CARTESIAN_POINT ( 'NONE',  ( 0.000000000000000000, 0.000000000000000000, 49.91100000000001558 ) ) ;
#1061 = ORIENTED_EDGE ( 'NONE', *, *, #987, .F. ) ;
#1062 = CARTESIAN_POINT ( 'NONE',  ( -144.3064999999999998, -4.999999999999980460, 11.02099878600000515 ) ) ;
#1063 = AXIS2_PLACEMENT_3D ( 'NONE', #578, #116, #865 ) ;
#1064 = ORIENTED_EDGE ( 'NONE', *, *, #328, .T. ) ;
#1065 = DIRECTION ( 'NONE',  ( 0.000000000000000000, 1.000000000000000000, 0.000000000000000000 ) ) ;
#1066 = CARTESIAN_POINT ( 'NONE',  ( -35.90649999999997988, -5.000000000000000000, 51.18100000000000449 ) ) ;
#1067 = DIRECTION ( 'NONE',  ( 1.000000000000000000, 0.000000000000000000, 0.000000000000000000 ) ) ;
#1068 = VECTOR ( 'NONE', #828, 1000.000000000000000 ) ;
#1069 = VECTOR ( 'NONE', #1093, 1000.000000000000000 ) ;
#1070 = AXIS2_PLACEMENT_3D ( 'NONE', #10, #375, #758 ) ;
#1071 =( GEOMETRIC_REPRESENTATION_CONTEXT ( 3 ) GLOBAL_UNCERTAINTY_ASSIGNED_CONTEXT ( ( #859 ) ) GLOBAL_UNIT_ASSIGNED_CONTEXT ( ( #1182, #161, #257 ) ) REPRESENTATION_CONTEXT ( 'NONE', 'WORKASPACE' ) );
#1072 = EDGE_LOOP ( 'NONE', ( #1205, #873 ) ) ;
#1073 = EDGE_CURVE ( 'NONE', #214, #716, #804, .T. ) ;
#1074 = CARTESIAN_POINT ( 'NONE',  ( -38.78149999999998698, -5.000000000000000000, 11.02099878600000515 ) ) ;
#1075 = CARTESIAN_POINT ( 'NONE',  ( -24.63000000000004164, 2.269999999999994245, 3.809999999999991172 ) ) ;
#1076 = CARTESIAN_POINT ( 'NONE',  ( -3.810000000000007603, 4.445000000000000284, 49.91100000000001558 ) ) ;
#1077 = PLANE ( 'NONE',  #1032 ) ;
#1078 = EDGE_CURVE ( 'NONE', #975, #374, #522, .T. ) ;
#1079 = VERTEX_POINT ( 'NONE', #67 ) ;
#1080 = DIRECTION ( 'NONE',  ( 1.000000000000000000, 0.000000000000000000, 0.000000000000000000 ) ) ;
#1081 = DIRECTION ( 'NONE',  ( -1.000000000000000000, 0.000000000000000000, 0.000000000000000000 ) ) ;
#1082 = CARTESIAN_POINT ( 'NONE',  ( -161.1629999999999825, -3.174999999999999822, 11.02099878600000160 ) ) ;
#1083 = DIRECTION ( 'NONE',  ( -1.000000000000000000, 0.000000000000000000, 0.000000000000000000 ) ) ;
#1084 = ORIENTED_EDGE ( 'NONE', *, *, #1113, .T. ) ;
#1085 = CARTESIAN_POINT ( 'NONE',  ( -181.9829999999999757, 1.270000000000000018, 21.58999999999998565 ) ) ;
#1086 = LINE ( 'NONE', #913, #485 ) ;
#1087 = DIRECTION ( 'NONE',  ( 0.000000000000000000, 1.000000000000000000, -3.469446951953634305E-15 ) ) ;
#1088 = VECTOR ( 'NONE', #205, 1000.000000000000000 ) ;
#1089 = ORIENTED_EDGE ( 'NONE', *, *, #313, .F. ) ;
#1090 = VECTOR ( 'NONE', #222, 1000.000000000000000 ) ;
#1091 = CIRCLE ( 'NONE', #623, 2.875000000000002665 ) ;
#1092 = PLANE ( 'NONE',  #467 ) ;
#1093 = DIRECTION ( 'NONE',  ( -1.365923996832132842E-16, -0.000000000000000000, -1.000000000000000000 ) ) ;
#1094 = EDGE_CURVE ( 'NONE', #559, #1125, #336, .T. ) ;
#1095 = CARTESIAN_POINT ( 'NONE',  ( 1.769999999999993356, 1.270000000000000018, 21.58999999999998565 ) ) ;
#1096 = DIRECTION ( 'NONE',  ( -1.000000000000000000, 0.000000000000000000, 0.000000000000000000 ) ) ;
#1097 = VERTEX_POINT ( 'NONE', #713 ) ;
#1098 = CARTESIAN_POINT ( 'NONE',  ( -3.810000000000035580, 3.106988124944954422E-13, 49.91099999999999426 ) ) ;
#1099 = CARTESIAN_POINT ( 'NONE',  ( -3.810000000000007603, 2.270000000000000462, 27.17000000000000881 ) ) ;
#1100 = CARTESIAN_POINT ( 'NONE',  ( -139.8064999999999998, -4.999999999999979572, 23.74892084735788345 ) ) ;
#1101 = CC_DESIGN_PERSON_AND_ORGANIZATION_ASSIGNMENT ( #791, #15, ( #1190 ) ) ;
#1102 = EDGE_LOOP ( 'NONE', ( #1164, #279, #143, #1153 ) ) ;
#1103 = ORIENTED_EDGE ( 'NONE', *, *, #25, .T. ) ;
#1104 = LINE ( 'NONE', #378, #113 ) ;
#1105 = ORIENTED_EDGE ( 'NONE', *, *, #1054, .F. ) ;
#1106 = FACE_OUTER_BOUND ( 'NONE', #191, .T. ) ;
#1107 = ADVANCED_FACE ( 'NONE', ( #730 ), #1005, .F. ) ;
#1108 = ORIENTED_EDGE ( 'NONE', *, *, #953, .T. ) ;
#1109 = CC_DESIGN_APPROVAL ( #1178, ( #691 ) ) ;
#1110 = CARTESIAN_POINT ( 'NONE',  ( -3.810000000000035580, 3.106988124944954422E-13, 51.18099999999999739 ) ) ;
#1111 = ORIENTED_EDGE ( 'NONE', *, *, #935, .F. ) ;
#1112 = DIRECTION ( 'NONE',  ( -6.103324382627934694E-17, 0.000000000000000000, -1.000000000000000000 ) ) ;
#1113 = EDGE_CURVE ( 'NONE', #591, #357, #1187, .T. ) ;
#1114 = ORIENTED_EDGE ( 'NONE', *, *, #935, .T. ) ;
#1115 = PRODUCT_DEFINITION_SHAPE ( 'NONE', 'NONE',  #691 ) ;
#1116 = LINE ( 'NONE', #549, #1012 ) ;
#1117 = ORIENTED_EDGE ( 'NONE', *, *, #606, .T. ) ;
#1118 = CARTESIAN_POINT ( 'NONE',  ( 1.769999999999993356, 2.269999999999994245, -1.770000000000002016 ) ) ;
#1119 = ORIENTED_EDGE ( 'NONE', *, *, #749, .T. ) ;
#1120 = DIRECTION ( 'NONE',  ( 0.7071067811865474617, -0.000000000000000000, -0.7071067811865474617 ) ) ;
#1121 = ORIENTED_EDGE ( 'NONE', *, *, #1094, .T. ) ;
#1122 = AXIS2_PLACEMENT_3D ( 'NONE', #326, #231, #990 ) ;
#1123 = LINE ( 'NONE', #281, #77 ) ;
#1124 = EDGE_CURVE ( 'NONE', #721, #466, #681, .T. ) ;
#1125 = VERTEX_POINT ( 'NONE', #232 ) ;
#1126 = DIRECTION ( 'NONE',  ( 0.000000000000000000, 0.000000000000000000, -1.000000000000000000 ) ) ;
#1127 = EDGE_CURVE ( 'NONE', #1125, #975, #825, .T. ) ;
#1128 = ORIENTED_EDGE ( 'NONE', *, *, #337, .T. ) ;
#1129 = DIRECTION ( 'NONE',  ( 0.000000000000000000, -1.000000000000000000, 0.000000000000000000 ) ) ;
#1130 = VECTOR ( 'NONE', #1081, 1000.000000000000000 ) ;
#1131 = AXIS2_PLACEMENT_3D ( 'NONE', #330, #1010, #244 ) ;
#1132 = DATE_TIME_ROLE ( 'creation_date' ) ;
#1133 = VERTEX_POINT ( 'NONE', #545 ) ;
#1134 = DIRECTION ( 'NONE',  ( 0.000000000000000000, -1.000000000000000000, 0.000000000000000000 ) ) ;
#1135 = LINE ( 'NONE', #958, #680 ) ;
#1136 = CARTESIAN_POINT ( 'NONE',  ( -35.90649999999998698, -5.000000000000000000, -5.489001214000018614 ) ) ;
#1137 = DATE_AND_TIME ( #110, #488 ) ;
#1138 = CC_DESIGN_PERSON_AND_ORGANIZATION_ASSIGNMENT ( #1143, #872, ( #841 ) ) ;
#1139 = ORIENTED_EDGE ( 'NONE', *, *, #1073, .F. ) ;
#1140 = FACE_OUTER_BOUND ( 'NONE', #6, .T. ) ;
#1141 = ORIENTED_EDGE ( 'NONE', *, *, #793, .F. ) ;
#1142 = LINE ( 'NONE', #47, #546 ) ;
#1143 = PERSON_AND_ORGANIZATION ( #1044, #286 ) ;
#1144 = EDGE_LOOP ( 'NONE', ( #460, #855 ) ) ;
#1145 = CARTESIAN_POINT ( 'NONE',  ( -176.4029999999999632, 4.445000000000000284, 49.91100000000001558 ) ) ;
#1146 = EDGE_LOOP ( 'NONE', ( #1139, #409, #9, #359 ) ) ;
#1147 = LINE ( 'NONE', #1057, #224 ) ;
#1148 = PERSON_AND_ORGANIZATION_ROLE ( 'creator' ) ;
#1149 = AXIS2_PLACEMENT_3D ( 'NONE', #570, #869, #1040 ) ;
#1150 = VECTOR ( 'NONE', #390, 1000.000000000000000 ) ;
#1151 = VECTOR ( 'NONE', #982, 1000.000000000000000 ) ;
#1152 = ADVANCED_FACE ( 'NONE', ( #998 ), #156, .F. ) ;
#1153 = ORIENTED_EDGE ( 'NONE', *, *, #999, .F. ) ;
#1154 = CARTESIAN_POINT ( 'NONE',  ( -31.40649999999998343, -4.999999999999999112, -5.489001214000019502 ) ) ;
#1155 = DIRECTION ( 'NONE',  ( -0.000000000000000000, 0.000000000000000000, 1.000000000000000000 ) ) ;
#1156 = DIRECTION ( 'NONE',  ( 0.000000000000000000, -1.000000000000000000, 0.000000000000000000 ) ) ;
#1157 = VECTOR ( 'NONE', #584, 1000.000000000000000 ) ;
#1158 = ORIENTED_EDGE ( 'NONE', *, *, #83, .T. ) ;
#1159 = DIRECTION ( 'NONE',  ( -1.365923996832133088E-16, -0.000000000000000000, -1.000000000000000000 ) ) ;
#1160 = FACE_OUTER_BOUND ( 'NONE', #16, .T. ) ;
#1161 = DIRECTION ( 'NONE',  ( -1.000000000000000000, 2.916201808798666708E-16, 0.000000000000000000 ) ) ;
#1162 = ADVANCED_FACE ( 'NONE', ( #720 ), #1077, .F. ) ;
#1163 = VECTOR ( 'NONE', #620, 1000.000000000000000 ) ;
#1164 = ORIENTED_EDGE ( 'NONE', *, *, #902, .F. ) ;
#1165 = LINE ( 'NONE', #241, #246 ) ;
#1166 = CARTESIAN_POINT ( 'NONE',  ( -155.5829999999999700, 2.269999999999994245, 3.809999999999999165 ) ) ;
#1167 = LINE ( 'NONE', #907, #163 ) ;
#1168 = CARTESIAN_POINT ( 'NONE',  ( -144.3064999999999998, -4.999999999999980460, 51.18100000000001870 ) ) ;
#1169 = VECTOR ( 'NONE', #941, 1000.000000000000000 ) ;
#1170 = AXIS2_PLACEMENT_3D ( 'NONE', #1191, #353, #732 ) ;
#1171 = CIRCLE ( 'NONE', #386, 4.500000000000003553 ) ;
#1172 = ORIENTED_EDGE ( 'NONE', *, *, #739, .F. ) ;
#1173 = CARTESIAN_POINT ( 'NONE',  ( -161.1629999999999825, 0.000000000000000000, 11.02099878600000160 ) ) ;
#1174 = CARTESIAN_POINT ( 'NONE',  ( -19.05000000000001137, 1.270000000000000018, -1.770000000000002016 ) ) ;
#1175 = DIRECTION ( 'NONE',  ( 0.000000000000000000, 0.000000000000000000, -1.000000000000000000 ) ) ;
#1176 = DIRECTION ( 'NONE',  ( 0.000000000000000000, 1.000000000000000000, -0.000000000000000000 ) ) ;
#1177 = ORIENTED_EDGE ( 'NONE', *, *, #1023, .F. ) ;
#1178 = APPROVAL ( #498, 'UNSPECIFIED' ) ;
#1179 = CARTESIAN_POINT ( 'NONE',  ( -35.90649999999997988, -5.000000000000000000, 23.74892084735786923 ) ) ;
#1180 = CARTESIAN_POINT ( 'NONE',  ( -176.4029999999999632, 4.445000000000000284, 27.17000000000003723 ) ) ;
#1181 = LINE ( 'NONE', #534, #321 ) ;
#1182 =( LENGTH_UNIT ( ) NAMED_UNIT ( * ) SI_UNIT ( .MILLI., .METRE. ) );
#1183 = EDGE_LOOP ( 'NONE', ( #904, #1105 ) ) ;
#1184 = FACE_OUTER_BOUND ( 'NONE', #940, .T. ) ;
#1185 = LINE ( 'NONE', #319, #19 ) ;
#1186 = LINE ( 'NONE', #341, #108 ) ;
#1187 = LINE ( 'NONE', #1194, #919 ) ;
#1188 = ORIENTED_EDGE ( 'NONE', *, *, #1193, .T. ) ;
#1189 = VECTOR ( 'NONE', #470, 1000.000000000000000 ) ;
#1190 = PRODUCT_DEFINITION_FORMATION_WITH_SPECIFIED_SOURCE ( 'ANY', '', #371, .NOT_KNOWN. ) ;
#1191 = CARTESIAN_POINT ( 'NONE',  ( -161.1629999999999825, -3.174999999999999822, 6.020998786000001601 ) ) ;
#1192 = LINE ( 'NONE', #901, #218 ) ;
#1193 = EDGE_CURVE ( 'NONE', #721, #268, #81, .T. ) ;
#1194 = CARTESIAN_POINT ( 'NONE',  ( -12.63649999999999451, 0.000000000000000000, 51.18099999999999739 ) ) ;
#1195 = ORIENTED_EDGE ( 'NONE', *, *, #8, .F. ) ;
#1196 = LINE ( 'NONE', #358, #640 ) ;
#1197 = ADVANCED_FACE ( 'NONE', ( #616 ), #991, .F. ) ;
#1198 = ORIENTED_EDGE ( 'NONE', *, *, #382, .T. ) ;
#1199 = DIRECTION ( 'NONE',  ( 0.000000000000000000, 1.000000000000000000, -0.000000000000000000 ) ) ;
#1200 = ORIENTED_EDGE ( 'NONE', *, *, #789, .F. ) ;
#1201 = LINE ( 'NONE', #362, #306 ) ;
#1202 = ORIENTED_EDGE ( 'NONE', *, *, #354, .F. ) ;
#1203 = EDGE_CURVE ( 'NONE', #944, #743, #540, .T. ) ;
#1204 = DIRECTION ( 'NONE',  ( -1.000000000000000000, 0.000000000000000000, 0.000000000000000000 ) ) ;
#1205 = ORIENTED_EDGE ( 'NONE', *, *, #388, .F. ) ;
ENDSEC;
END-ISO-10303-21;
