ISO-10303-21;
HEADER;
FILE_DESCRIPTION (( 'STEP AP203' ),
    '1' );
FILE_NAME ('Z-axis Way Cover Bracing Side.STEP',
    '2026-05-26T16:16:56',
    ( '' ),
    ( '' ),
    'SwSTEP 2.0',
    'SolidWorks 2025',
    '' );
FILE_SCHEMA (( 'CONFIG_CONTROL_DESIGN' ));
ENDSEC;

DATA;
#1 = LINE ( 'NONE', #872, #252 ) ;
#2 = VECTOR ( 'NONE', #227, 1000.000000000000114 ) ;
#3 = EDGE_CURVE ( 'NONE', #588, #1315, #750, .T. ) ;
#4 = AXIS2_PLACEMENT_3D ( 'NONE', #1406, #1160, #942 ) ;
#5 = VECTOR ( 'NONE', #228, 1000.000000000000000 ) ;
#6 = ORIENTED_EDGE ( 'NONE', *, *, #435, .T. ) ;
#7 = DIRECTION ( 'NONE',  ( -2.764071652032392916E-32, -1.000000000000000000, 1.821231995776175725E-16 ) ) ;
#8 = ORIENTED_EDGE ( 'NONE', *, *, #1426, .T. ) ;
#9 = CARTESIAN_POINT ( 'NONE',  ( 140.9699999999999704, 12.69999999999999929, -35.64999994399987315 ) ) ;
#10 = LINE ( 'NONE', #1229, #906 ) ;
#11 = ADVANCED_FACE ( 'NONE', ( #1212 ), #77, .F. ) ;
#12 = PERSON_AND_ORGANIZATION ( #1151, #689 ) ;
#13 = ORIENTED_EDGE ( 'NONE', *, *, #1064, .F. ) ;
#14 = CARTESIAN_POINT ( 'NONE',  ( -24.69999999999998508, -60.54000007799999850, -73.74999994399996694 ) ) ;
#15 = LINE ( 'NONE', #132, #827 ) ;
#16 = FACE_OUTER_BOUND ( 'NONE', #175, .T. ) ;
#17 = ORIENTED_EDGE ( 'NONE', *, *, #690, .F. ) ;
#18 = LINE ( 'NONE', #1129, #30 ) ;
#19 = ADVANCED_FACE ( 'NONE', ( #657 ), #236, .T. ) ;
#20 = ORIENTED_EDGE ( 'NONE', *, *, #539, .F. ) ;
#21 = CARTESIAN_POINT ( 'NONE',  ( -2.999999999999975131, -60.54000007799999139, 0.000000000000000000 ) ) ;
#22 = LINE ( 'NONE', #658, #667 ) ;
#23 = ORIENTED_EDGE ( 'NONE', *, *, #88, .F. ) ;
#24 = AXIS2_PLACEMENT_3D ( 'NONE', #724, #266, #282 ) ;
#25 = CARTESIAN_POINT ( 'NONE',  ( 83.88864947956025730, -60.54000007800001981, -182.3386494235597866 ) ) ;
#26 = ORIENTED_EDGE ( 'NONE', *, *, #263, .T. ) ;
#27 = LINE ( 'NONE', #459, #1098 ) ;
#28 = VECTOR ( 'NONE', #1346, 1000.000000000000000 ) ;
#29 = EDGE_CURVE ( 'NONE', #1315, #1397, #1434, .T. ) ;
#30 = VECTOR ( 'NONE', #1377, 1000.000000000000000 ) ;
#31 = LINE ( 'NONE', #567, #474 ) ;
#32 = DIRECTION ( 'NONE',  ( -0.000000000000000000, 1.000000000000000000, -0.000000000000000000 ) ) ;
#33 = ORIENTED_EDGE ( 'NONE', *, *, #681, .T. ) ;
#34 = CARTESIAN_POINT ( 'NONE',  ( 0.000000000000000000, 12.69999999999999929, 12.69999999999999929 ) ) ;
#35 = VERTEX_POINT ( 'NONE', #1337 ) ;
#36 = EDGE_CURVE ( 'NONE', #399, #863, #1132, .T. ) ;
#37 = CARTESIAN_POINT ( 'NONE',  ( 128.2699999999999818, -60.54000007799999139, -42.69999994399996979 ) ) ;
#38 = FACE_OUTER_BOUND ( 'NONE', #860, .T. ) ;
#39 = EDGE_CURVE ( 'NONE', #867, #1061, #538, .T. ) ;
#40 = DIRECTION ( 'NONE',  ( 0.7071067811865474617, -0.000000000000000000, 0.7071067811865474617 ) ) ;
#41 = EDGE_LOOP ( 'NONE', ( #1336, #500, #1279, #360 ) ) ;
#42 = DIRECTION ( 'NONE',  ( 0.000000000000000000, -0.000000000000000000, 1.000000000000000000 ) ) ;
#43 = DIRECTION ( 'NONE',  ( 0.000000000000000000, 0.000000000000000000, -1.000000000000000000 ) ) ;
#44 = CYLINDRICAL_SURFACE ( 'NONE', #1263, 2.999999999999995559 ) ;
#45 = EDGE_CURVE ( 'NONE', #1190, #883, #1023, .T. ) ;
#46 = DIRECTION ( 'NONE',  ( 0.7071067811865474617, 0.000000000000000000, -0.7071067811865474617 ) ) ;
#47 = CARTESIAN_POINT ( 'NONE',  ( -12.69999999999999218, 0.000000000000000000, -35.64999994400000105 ) ) ;
#48 = AXIS2_PLACEMENT_3D ( 'NONE', #139, #53, #706 ) ;
#49 = ORIENTED_EDGE ( 'NONE', *, *, #383, .T. ) ;
#50 = CARTESIAN_POINT ( 'NONE',  ( 152.9700000000001410, -60.54000007799999850, -73.74999994399972536 ) ) ;
#51 = AXIS2_PLACEMENT_3D ( 'NONE', #1111, #109, #511 ) ;
#52 = AXIS2_PLACEMENT_3D ( 'NONE', #1020, #1038, #357 ) ;
#53 = DIRECTION ( 'NONE',  ( 0.000000000000000000, 0.000000000000000000, 1.000000000000000000 ) ) ;
#54 = CYLINDRICAL_SURFACE ( 'NONE', #365, 3.499999999999999556 ) ;
#55 = CARTESIAN_POINT ( 'NONE',  ( -12.69999999999999218, 0.000000000000000000, -35.64999994399998684 ) ) ;
#56 = CC_DESIGN_DATE_AND_TIME_ASSIGNMENT ( #119, #761, ( #346 ) ) ;
#57 = DIRECTION ( 'NONE',  ( -0.000000000000000000, -0.000000000000000000, 1.000000000000000000 ) ) ;
#58 = ORIENTED_EDGE ( 'NONE', *, *, #271, .F. ) ;
#59 = CARTESIAN_POINT ( 'NONE',  ( 0.000000000000000000, 12.69999999999999929, 0.000000000000000000 ) ) ;
#60 = ORIENTED_EDGE ( 'NONE', *, *, #1082, .F. ) ;
#61 = CARTESIAN_POINT ( 'NONE',  ( -12.06500000000000661, -60.54000007799999139, -64.74999994399999537 ) ) ;
#62 = CARTESIAN_POINT ( 'NONE',  ( 140.9699999999999704, 0.000000000000000000, 5.650000000000027889 ) ) ;
#63 = VERTEX_POINT ( 'NONE', #1004 ) ;
#64 = DIRECTION ( 'NONE',  ( 1.298723458728395859E-16, 0.000000000000000000, -1.000000000000000000 ) ) ;
#65 = DIRECTION ( 'NONE',  ( -0.7071067811865489050, 0.000000000000000000, 0.7071067811865462405 ) ) ;
#66 = ORIENTED_EDGE ( 'NONE', *, *, #582, .T. ) ;
#67 = DIRECTION ( 'NONE',  ( 1.000000000000000000, 0.000000000000000000, 0.000000000000000000 ) ) ;
#68 = EDGE_CURVE ( 'NONE', #171, #388, #1011, .T. ) ;
#69 = EDGE_LOOP ( 'NONE', ( #58, #49, #60, #1418 ) ) ;
#70 = CARTESIAN_POINT ( 'NONE',  ( 88.30999997200048313, 12.69999999999999929, -88.30999997199978679 ) ) ;
#71 = PERSON_AND_ORGANIZATION_ROLE ( 'design_owner' ) ;
#72 = ORIENTED_EDGE ( 'NONE', *, *, #186, .F. ) ;
#73 = CARTESIAN_POINT ( 'NONE',  ( -2.999999999999975131, 12.69999999999999929, -0.000000000000000000 ) ) ;
#74 = VECTOR ( 'NONE', #788, 1000.000000000000000 ) ;
#75 = EDGE_CURVE ( 'NONE', #1237, #811, #15, .T. ) ;
#76 = VECTOR ( 'NONE', #558, 1000.000000000000000 ) ;
#77 = PLANE ( 'NONE',  #999 ) ;
#78 = LOCAL_TIME ( 12, 16, 56.00000000000000000, #1216 ) ;
#79 = CARTESIAN_POINT ( 'NONE',  ( 128.2699999999999818, 5.650000000000029665, -80.79999994400000674 ) ) ;
#80 = LINE ( 'NONE', #483, #1054 ) ;
#81 = VERTEX_POINT ( 'NONE', #547 ) ;
#82 = ORIENTED_EDGE ( 'NONE', *, *, #798, .T. ) ;
#83 = CARTESIAN_POINT ( 'NONE',  ( 145.9199999999999307, 107.0585713622668180, -80.79999994400000674 ) ) ;
#84 = VERTEX_POINT ( 'NONE', #780 ) ;
#85 = DIRECTION ( 'NONE',  ( -0.7071067811865490160, 1.287805494327241018E-16, 0.7071067811865460184 ) ) ;
#86 = EDGE_LOOP ( 'NONE', ( #861, #513 ) ) ;
#87 = CARTESIAN_POINT ( 'NONE',  ( 140.3349999999999795, -60.54000007799999139, -61.74999994399999537 ) ) ;
#88 = EDGE_CURVE ( 'NONE', #838, #315, #560, .T. ) ;
#89 = APPROVAL_ROLE ( '' ) ;
#90 = ORIENTED_EDGE ( 'NONE', *, *, #1055, .F. ) ;
#91 = DIRECTION ( 'NONE',  ( 5.030610406698955710E-31, -1.000000000000000000, 0.000000000000000000 ) ) ;
#92 = ORIENTED_EDGE ( 'NONE', *, *, #148, .F. ) ;
#93 = AXIS2_PLACEMENT_3D ( 'NONE', #945, #1041, #472 ) ;
#94 = VERTEX_POINT ( 'NONE', #772 ) ;
#95 = VECTOR ( 'NONE', #962, 1000.000000000000114 ) ;
#96 = FACE_OUTER_BOUND ( 'NONE', #198, .T. ) ;
#97 = AXIS2_PLACEMENT_3D ( 'NONE', #1271, #584, #481 ) ;
#98 = EDGE_CURVE ( 'NONE', #384, #1165, #880, .T. ) ;
#99 = ORIENTED_EDGE ( 'NONE', *, *, #484, .T. ) ;
#100 = FACE_OUTER_BOUND ( 'NONE', #535, .T. ) ;
#101 = ADVANCED_FACE ( 'NONE', ( #221 ), #666, .F. ) ;
#102 = EDGE_LOOP ( 'NONE', ( #1313, #834, #934, #1192 ) ) ;
#103 = DIRECTION ( 'NONE',  ( -1.000000000000000000, 0.000000000000000000, 0.000000000000000000 ) ) ;
#104 = LINE ( 'NONE', #83, #595 ) ;
#105 = ORIENTED_EDGE ( 'NONE', *, *, #281, .T. ) ;
#106 = LINE ( 'NONE', #536, #1147 ) ;
#107 = EDGE_CURVE ( 'NONE', #1295, #671, #989, .T. ) ;
#108 = CARTESIAN_POINT ( 'NONE',  ( 128.2699999999999818, 12.70000000000000284, 12.69999999999999929 ) ) ;
#109 = DIRECTION ( 'NONE',  ( 0.000000000000000000, 0.000000000000000000, 1.000000000000000000 ) ) ;
#110 = PERSON_AND_ORGANIZATION ( #1151, #689 ) ;
#111 = ORIENTED_EDGE ( 'NONE', *, *, #186, .T. ) ;
#112 = CARTESIAN_POINT ( 'NONE',  ( 133.9200000000001296, 12.69999999999999929, -80.79999994399986463 ) ) ;
#113 = EDGE_LOOP ( 'NONE', ( #493, #890, #1372, #173 ) ) ;
#114 = EDGE_CURVE ( 'NONE', #1301, #1397, #1326, .T. ) ;
#115 = DIRECTION ( 'NONE',  ( -0.000000000000000000, 1.000000000000000000, -0.000000000000000000 ) ) ;
#116 = DIRECTION ( 'NONE',  ( -1.243836322266832620E-16, -0.000000000000000000, 1.000000000000000000 ) ) ;
#117 = VECTOR ( 'NONE', #802, 1000.000000000000000 ) ;
#118 = VECTOR ( 'NONE', #1316, 1000.000000000000000 ) ;
#119 = DATE_AND_TIME ( #314, #1149 ) ;
#120 = VECTOR ( 'NONE', #679, 999.9999999999998863 ) ;
#121 = ORIENTED_EDGE ( 'NONE', *, *, #1375, .T. ) ;
#122 = LOCAL_TIME ( 12, 16, 56.00000000000000000, #976 ) ;
#123 = DIRECTION ( 'NONE',  ( 0.7071067811865474617, 0.000000000000000000, -0.7071067811865474617 ) ) ;
#124 = FACE_OUTER_BOUND ( 'NONE', #1267, .T. ) ;
#125 = CARTESIAN_POINT ( 'NONE',  ( 223.5272989591195483, -60.54000007799999850, -80.79999994399994989 ) ) ;
#126 = CARTESIAN_POINT ( 'NONE',  ( 6.890853218392769028E-15, -60.54000007799999139, -42.69999994399999110 ) ) ;
#127 = EDGE_CURVE ( 'NONE', #1237, #911, #319, .T. ) ;
#128 = ORIENTED_EDGE ( 'NONE', *, *, #700, .T. ) ;
#129 = PLANE ( 'NONE',  #1124 ) ;
#130 = ORIENTED_EDGE ( 'NONE', *, *, #1375, .F. ) ;
#131 = DIRECTION ( 'NONE',  ( 0.000000000000000000, 1.000000000000000000, 0.000000000000000000 ) ) ;
#132 = CARTESIAN_POINT ( 'NONE',  ( 0.000000000000000000, 0.000000000000000000, 0.000000000000000000 ) ) ;
#133 = LINE ( 'NONE', #140, #1380 ) ;
#134 = ORIENTED_EDGE ( 'NONE', *, *, #161, .T. ) ;
#135 = EDGE_CURVE ( 'NONE', #496, #610, #1019, .T. ) ;
#136 = CARTESIAN_POINT ( 'NONE',  ( 131.2700000000000102, 0.000000000000000000, 0.000000000000000000 ) ) ;
#137 = ORIENTED_EDGE ( 'NONE', *, *, #674, .T. ) ;
#138 = CARTESIAN_POINT ( 'NONE',  ( -12.06500000000000661, -54.54000007799999850, -64.74999994399999537 ) ) ;
#139 = CARTESIAN_POINT ( 'NONE',  ( 9.935000000000005826, 7.700000000000000178, 12.69999999999999929 ) ) ;
#140 = CARTESIAN_POINT ( 'NONE',  ( 128.2699999999999818, -60.54000007799999139, -42.69999994399996979 ) ) ;
#141 = ORIENTED_EDGE ( 'NONE', *, *, #1006, .F. ) ;
#142 = VECTOR ( 'NONE', #172, 1000.000000000000000 ) ;
#143 = VECTOR ( 'NONE', #440, 1000.000000000000114 ) ;
#144 = CARTESIAN_POINT ( 'NONE',  ( 121.8350000000000222, 7.700000000000000178, -80.79999994400000674 ) ) ;
#145 = VERTEX_POINT ( 'NONE', #1352 ) ;
#146 = CARTESIAN_POINT ( 'NONE',  ( 13.43500000000000583, 7.700000000000000178, -80.79999994400000674 ) ) ;
#147 = APPROVAL_PERSON_ORGANIZATION ( #498, #392, #969 ) ;
#148 = EDGE_CURVE ( 'NONE', #529, #1301, #887, .T. ) ;
#149 = DIRECTION ( 'NONE',  ( 1.000000000000000000, 0.000000000000000000, 1.517693329813479566E-16 ) ) ;
#150 = CARTESIAN_POINT ( 'NONE',  ( 152.9700000000000841, 52.64508730745252763, -49.74999994399982484 ) ) ;
#151 = DIRECTION ( 'NONE',  ( 0.000000000000000000, 0.000000000000000000, -1.000000000000000000 ) ) ;
#152 = VERTEX_POINT ( 'NONE', #1125 ) ;
#153 = DIRECTION ( 'NONE',  ( 0.000000000000000000, 0.000000000000000000, 1.000000000000000000 ) ) ;
#154 = ADVANCED_FACE ( 'NONE', ( #341 ), #1244, .T. ) ;
#155 = CARTESIAN_POINT ( 'NONE',  ( -12.06500000000000661, -60.54000007799999139, -58.74999994400000247 ) ) ;
#156 = CARTESIAN_POINT ( 'NONE',  ( 133.9200000000000728, -103.1370950493710836, -42.69999994399984899 ) ) ;
#157 = CARTESIAN_POINT ( 'NONE',  ( 6.662996705890963369E-15, -60.54000007799999139, -38.64999994399996552 ) ) ;
#158 = ORIENTED_EDGE ( 'NONE', *, *, #1222, .F. ) ;
#159 = CARTESIAN_POINT ( 'NONE',  ( 223.5272989591195483, 12.70000000000000107, -42.69999994399995558 ) ) ;
#160 = FACE_BOUND ( 'NONE', #716, .T. ) ;
#161 = EDGE_CURVE ( 'NONE', #63, #171, #1168, .T. ) ;
#162 = LINE ( 'NONE', #1044, #617 ) ;
#163 = MECHANICAL_CONTEXT ( 'NONE', #516, 'mechanical' ) ;
#164 = EDGE_LOOP ( 'NONE', ( #598, #187, #899, #559 ) ) ;
#165 = DIRECTION ( 'NONE',  ( -0.000000000000000000, -0.000000000000000000, 1.000000000000000000 ) ) ;
#166 = CIRCLE ( 'NONE', #687, 3.500000000000003109 ) ;
#167 = VECTOR ( 'NONE', #1419, 1000.000000000000000 ) ;
#168 = DIRECTION ( 'NONE',  ( -1.517693329813479566E-16, 9.474186095736432857E-17, 1.000000000000000000 ) ) ;
#169 = APPROVAL_PERSON_ORGANIZATION ( #551, #1287, #997 ) ;
#170 = DIRECTION ( 'NONE',  ( -2.764071652032392369E-32, -1.000000000000000000, 0.000000000000000000 ) ) ;
#171 = VERTEX_POINT ( 'NONE', #61 ) ;
#172 = DIRECTION ( 'NONE',  ( -0.000000000000000000, 1.000000000000000000, -0.000000000000000000 ) ) ;
#173 = ORIENTED_EDGE ( 'NONE', *, *, #1072, .F. ) ;
#174 = DIRECTION ( 'NONE',  ( 0.000000000000000000, 0.000000000000000000, -1.000000000000000000 ) ) ;
#175 = EDGE_LOOP ( 'NONE', ( #1408, #1128, #970, #1058 ) ) ;
#176 = DIRECTION ( 'NONE',  ( 0.000000000000000000, 0.000000000000000000, 1.000000000000000000 ) ) ;
#177 = EDGE_CURVE ( 'NONE', #878, #1333, #1373, .T. ) ;
#178 = ORIENTED_EDGE ( 'NONE', *, *, #238, .T. ) ;
#179 = DIRECTION ( 'NONE',  ( -1.000000000000000000, -0.000000000000000000, -0.000000000000000000 ) ) ;
#180 = ORIENTED_EDGE ( 'NONE', *, *, #690, .T. ) ;
#181 = ORIENTED_EDGE ( 'NONE', *, *, #873, .F. ) ;
#182 = FACE_OUTER_BOUND ( 'NONE', #413, .T. ) ;
#183 = ORIENTED_EDGE ( 'NONE', *, *, #148, .T. ) ;
#184 = FACE_OUTER_BOUND ( 'NONE', #301, .T. ) ;
#185 = VECTOR ( 'NONE', #1180, 1000.000000000000000 ) ;
#186 = EDGE_CURVE ( 'NONE', #638, #529, #370, .T. ) ;
#187 = ORIENTED_EDGE ( 'NONE', *, *, #135, .F. ) ;
#188 = VECTOR ( 'NONE', #190, 1000.000000000000000 ) ;
#189 = CYLINDRICAL_SURFACE ( 'NONE', #732, 2.999999999999995559 ) ;
#190 = DIRECTION ( 'NONE',  ( 0.000000000000000000, 0.000000000000000000, -1.000000000000000000 ) ) ;
#191 = EDGE_LOOP ( 'NONE', ( #217, #515, #20, #1040 ) ) ;
#192 = DIRECTION ( 'NONE',  ( 0.000000000000000000, 0.000000000000000000, 1.000000000000000000 ) ) ;
#193 = ORIENTED_EDGE ( 'NONE', *, *, #1269, .F. ) ;
#194 = DIRECTION ( 'NONE',  ( 0.000000000000000000, -1.821231995776175725E-16, -1.000000000000000000 ) ) ;
#195 = ADVANCED_FACE ( 'NONE', ( #1155 ), #269, .F. ) ;
#196 = ORIENTED_EDGE ( 'NONE', *, *, #114, .T. ) ;
#197 = CARTESIAN_POINT ( 'NONE',  ( -5.649999999999978151, -103.1370950493710836, -42.69999994399999821 ) ) ;
#198 = EDGE_LOOP ( 'NONE', ( #206, #105, #508, #947, #1252, #1429 ) ) ;
#199 = DIRECTION ( 'NONE',  ( 0.7071067811865462405, -1.954493808837604124E-32, 0.7071067811865489050 ) ) ;
#200 = ORIENTED_EDGE ( 'NONE', *, *, #988, .T. ) ;
#201 = ORIENTED_EDGE ( 'NONE', *, *, #263, .F. ) ;
#202 = EDGE_CURVE ( 'NONE', #485, #1295, #466, .T. ) ;
#203 = LINE ( 'NONE', #624, #1239 ) ;
#204 = VERTEX_POINT ( 'NONE', #1284 ) ;
#205 = CARTESIAN_POINT ( 'NONE',  ( -5.649999999999980815, 12.69999999999999929, -73.74999994399999537 ) ) ;
#206 = ORIENTED_EDGE ( 'NONE', *, *, #107, .T. ) ;
#207 = VECTOR ( 'NONE', #705, 1000.000000000000000 ) ;
#208 = CARTESIAN_POINT ( 'NONE',  ( 131.2700000000000102, -60.54000007799999139, 0.000000000000000000 ) ) ;
#209 = CARTESIAN_POINT ( 'NONE',  ( -5.649999999999970157, 12.69999999999999929, 12.69999999999999929 ) ) ;
#210 = AXIS2_PLACEMENT_3D ( 'NONE', #298, #199, #170 ) ;
#211 = AXIS2_PLACEMENT_3D ( 'NONE', #283, #964, #625 ) ;
#212 = ORIENTED_EDGE ( 'NONE', *, *, #1435, .T. ) ;
#213 = EDGE_CURVE ( 'NONE', #1397, #638, #31, .T. ) ;
#214 = DIRECTION ( 'NONE',  ( 1.243836322266832620E-16, 0.000000000000000000, -1.000000000000000000 ) ) ;
#215 = CARTESIAN_POINT ( 'NONE',  ( 0.000000000000000000, 12.69999999999999929, -73.74999994399999537 ) ) ;
#216 = DIRECTION ( 'NONE',  ( 0.000000000000000000, 1.000000000000000000, 0.000000000000000000 ) ) ;
#217 = ORIENTED_EDGE ( 'NONE', *, *, #1163, .T. ) ;
#218 = EDGE_CURVE ( 'NONE', #1237, #94, #914, .T. ) ;
#219 = LINE ( 'NONE', #112, #1217 ) ;
#220 = ORIENTED_EDGE ( 'NONE', *, *, #769, .T. ) ;
#221 = FACE_OUTER_BOUND ( 'NONE', #487, .T. ) ;
#222 = LINE ( 'NONE', #1236, #120 ) ;
#223 = COORDINATED_UNIVERSAL_TIME_OFFSET ( 5, 0, .BEHIND. ) ;
#224 = EDGE_LOOP ( 'NONE', ( #26, #998 ) ) ;
#225 = FACE_OUTER_BOUND ( 'NONE', #1320, .T. ) ;
#226 = CARTESIAN_POINT ( 'NONE',  ( 0.000000000000000000, 12.69999999999999929, 0.000000000000000000 ) ) ;
#227 = DIRECTION ( 'NONE',  ( -1.545366593192694744E-15, 0.7071067811865460184, 0.7071067811865490160 ) ) ;
#228 = DIRECTION ( 'NONE',  ( -0.000000000000000000, 1.000000000000000000, -0.000000000000000000 ) ) ;
#229 = AXIS2_PLACEMENT_3D ( 'NONE', #159, #168, #149 ) ;
#230 = VECTOR ( 'NONE', #728, 1000.000000000000000 ) ;
#231 = AXIS2_PLACEMENT_3D ( 'NONE', #1033, #1247, #469 ) ;
#232 = ORIENTED_EDGE ( 'NONE', *, *, #763, .F. ) ;
#233 = DIRECTION ( 'NONE',  ( 0.000000000000000000, -0.7071067811865490160, 0.7071067811865460184 ) ) ;
#234 = ORIENTED_EDGE ( 'NONE', *, *, #218, .T. ) ;
#235 = FACE_OUTER_BOUND ( 'NONE', #717, .T. ) ;
#236 = PLANE ( 'NONE',  #927 ) ;
#237 = DIRECTION ( 'NONE',  ( 0.000000000000000000, 0.000000000000000000, -1.000000000000000000 ) ) ;
#238 = EDGE_CURVE ( 'NONE', #1428, #323, #1161, .T. ) ;
#239 = ORIENTED_EDGE ( 'NONE', *, *, #1291, .T. ) ;
#240 = DIRECTION ( 'NONE',  ( -1.000000000000000000, 0.000000000000000000, -0.000000000000000000 ) ) ;
#241 = VERTEX_POINT ( 'NONE', #1139 ) ;
#242 = CARTESIAN_POINT ( 'NONE',  ( 152.9700000000000841, 52.64508730745252763, -49.74999994399983194 ) ) ;
#243 = CARTESIAN_POINT ( 'NONE',  ( 128.2699999999999818, 0.000000000000000000, 12.69999999999999929 ) ) ;
#244 = EDGE_LOOP ( 'NONE', ( #754, #829, #247, #1317 ) ) ;
#245 = EDGE_CURVE ( 'NONE', #145, #1325, #343, .T. ) ;
#246 = CARTESIAN_POINT ( 'NONE',  ( 133.9200000000000443, -54.54000007799999139, -42.69999994399984899 ) ) ;
#247 = ORIENTED_EDGE ( 'NONE', *, *, #1304, .T. ) ;
#248 = CARTESIAN_POINT ( 'NONE',  ( 140.9699999999999704, 12.70000000000000284, 5.650000000000026112 ) ) ;
#249 = DIRECTION ( 'NONE',  ( 1.000000000000000000, 0.000000000000000000, 0.000000000000000000 ) ) ;
#250 = DIRECTION ( 'NONE',  ( 1.000000000000000000, 0.000000000000000000, 0.000000000000000000 ) ) ;
#251 = VECTOR ( 'NONE', #1116, 1000.000000000000000 ) ;
#252 = VECTOR ( 'NONE', #760, 1000.000000000000000 ) ;
#253 = VECTOR ( 'NONE', #237, 1000.000000000000000 ) ;
#254 = DIRECTION ( 'NONE',  ( -2.764071652032392369E-32, -1.000000000000000000, 1.821231995776175725E-16 ) ) ;
#255 = ADVANCED_FACE ( 'NONE', ( #1029 ), #1148, .T. ) ;
#256 = CARTESIAN_POINT ( 'NONE',  ( 223.5272989591195483, -60.54000007799999850, -80.79999994399994989 ) ) ;
#257 = CARTESIAN_POINT ( 'NONE',  ( -17.64999999999999858, 12.70000000000000107, -42.69999994399999110 ) ) ;
#258 = CARTESIAN_POINT ( 'NONE',  ( 121.8350000000000222, 7.700000000000000178, 12.69999999999999929 ) ) ;
#259 = CARTESIAN_POINT ( 'NONE',  ( 133.9200000000001296, 5.650000000000029665, -80.79999994399986463 ) ) ;
#260 = LINE ( 'NONE', #923, #983 ) ;
#261 = ORIENTED_EDGE ( 'NONE', *, *, #576, .T. ) ;
#262 = CARTESIAN_POINT ( 'NONE',  ( -2.999999999999975131, 0.000000000000000000, -35.64999994400000105 ) ) ;
#263 = EDGE_CURVE ( 'NONE', #1407, #241, #1355, .T. ) ;
#264 = DIRECTION ( 'NONE',  ( -1.298723458728395859E-16, 0.000000000000000000, 1.000000000000000000 ) ) ;
#265 = DIRECTION ( 'NONE',  ( 1.000000000000000000, -2.764071652032392369E-32, 0.000000000000000000 ) ) ;
#266 = DIRECTION ( 'NONE',  ( 0.000000000000000000, 0.000000000000000000, 1.000000000000000000 ) ) ;
#267 = CARTESIAN_POINT ( 'NONE',  ( 83.45999997199999143, -60.54000007799999139, -83.45999997199999143 ) ) ;
#268 = VERTEX_POINT ( 'NONE', #1368 ) ;
#269 = CYLINDRICAL_SURFACE ( 'NONE', #1121, 2.999999999999995559 ) ;
#270 = DIRECTION ( 'NONE',  ( -0.000000000000000000, -0.000000000000000000, 1.000000000000000000 ) ) ;
#271 = EDGE_CURVE ( 'NONE', #1177, #1179, #694, .T. ) ;
#272 = ORIENTED_EDGE ( 'NONE', *, *, #960, .F. ) ;
#273 = CARTESIAN_POINT ( 'NONE',  ( 140.9699999999999704, 0.000000000000000000, -35.64999994399985894 ) ) ;
#274 = AXIS2_PLACEMENT_3D ( 'NONE', #1025, #919, #801 ) ;
#275 = VERTEX_POINT ( 'NONE', #37 ) ;
#276 = LINE ( 'NONE', #73, #207 ) ;
#277 = VECTOR ( 'NONE', #1076, 1000.000000000000000 ) ;
#278 = VERTEX_POINT ( 'NONE', #1059 ) ;
#279 = CIRCLE ( 'NONE', #1172, 2.999999999999995559 ) ;
#280 = ORIENTED_EDGE ( 'NONE', *, *, #423, .F. ) ;
#281 = EDGE_CURVE ( 'NONE', #671, #878, #488, .T. ) ;
#282 = DIRECTION ( 'NONE',  ( 1.000000000000000000, 0.000000000000000000, 0.000000000000000000 ) ) ;
#283 = CARTESIAN_POINT ( 'NONE',  ( -24.69999999999998508, 52.64508730745252763, -42.69999994400000531 ) ) ;
#284 = ORIENTED_EDGE ( 'NONE', *, *, #791, .T. ) ;
#285 = DIRECTION ( 'NONE',  ( 1.000000000000000000, 0.000000000000000000, -9.106159978880876162E-17 ) ) ;
#286 = ORIENTED_EDGE ( 'NONE', *, *, #364, .F. ) ;
#287 = DIRECTION ( 'NONE',  ( 1.000000000000000000, 0.000000000000000000, 0.000000000000000000 ) ) ;
#288 = EDGE_CURVE ( 'NONE', #1333, #81, #361, .T. ) ;
#289 = COORDINATED_UNIVERSAL_TIME_OFFSET ( 5, 0, .BEHIND. ) ;
#290 = ORIENTED_EDGE ( 'NONE', *, *, #1291, .F. ) ;
#291 = FACE_OUTER_BOUND ( 'NONE', #1350, .T. ) ;
#292 = ADVANCED_FACE ( 'NONE', ( #819, #1276 ), #583, .F. ) ;
#293 = VERTEX_POINT ( 'NONE', #926 ) ;
#294 = ORIENTED_EDGE ( 'NONE', *, *, #1181, .T. ) ;
#295 = FACE_OUTER_BOUND ( 'NONE', #1201, .T. ) ;
#296 = EDGE_LOOP ( 'NONE', ( #367, #1083, #442, #924, #111, #1296 ) ) ;
#297 = ADVANCED_FACE ( 'NONE', ( #1381 ), #1270, .T. ) ;
#298 = CARTESIAN_POINT ( 'NONE',  ( -24.69999999999998508, 52.64508730745252763, -73.74999994399996694 ) ) ;
#299 = VECTOR ( 'NONE', #852, 1000.000000000000114 ) ;
#300 = VECTOR ( 'NONE', #1102, 1000.000000000000000 ) ;
#301 = EDGE_LOOP ( 'NONE', ( #1144, #99, #608, #200, #1425, #181 ) ) ;
#302 = PRODUCT_DEFINITION_FORMATION_WITH_SPECIFIED_SOURCE ( 'ANY', '', #1344, .NOT_KNOWN. ) ;
#303 = LINE ( 'NONE', #1416, #299 ) ;
#304 = PERSON_AND_ORGANIZATION_ROLE ( 'classification_officer' ) ;
#305 = VERTEX_POINT ( 'NONE', #826 ) ;
#306 = CARTESIAN_POINT ( 'NONE',  ( -12.06500000000000661, -54.54000007799999850, -61.74999994399999537 ) ) ;
#307 = EDGE_LOOP ( 'NONE', ( #212, #183, #294, #272, #523, #965 ) ) ;
#308 = LINE ( 'NONE', #1310, #476 ) ;
#309 = ORIENTED_EDGE ( 'NONE', *, *, #681, .F. ) ;
#310 = DIRECTION ( 'NONE',  ( 0.000000000000000000, 0.000000000000000000, 1.000000000000000000 ) ) ;
#311 = VERTEX_POINT ( 'NONE', #1343 ) ;
#312 = FACE_BOUND ( 'NONE', #224, .T. ) ;
#313 = ADVANCED_FACE ( 'NONE', ( #677 ), #1255, .F. ) ;
#314 = CALENDAR_DATE ( 2026, 26, 5 ) ;
#315 = VERTEX_POINT ( 'NONE', #248 ) ;
#316 = CARTESIAN_POINT ( 'NONE',  ( 145.9199999999999307, 107.0585713622668180, -80.79999994400000674 ) ) ;
#317 = ORIENTED_EDGE ( 'NONE', *, *, #364, .T. ) ;
#318 = VECTOR ( 'NONE', #486, 1000.000000000000000 ) ;
#319 = LINE ( 'NONE', #759, #1073 ) ;
#320 = CIRCLE ( 'NONE', #930, 2.999999999999995559 ) ;
#321 = PLANE ( 'NONE',  #1170 ) ;
#322 = EDGE_CURVE ( 'NONE', #397, #1260, #339, .T. ) ;
#323 = VERTEX_POINT ( 'NONE', #886 ) ;
#324 = DIRECTION ( 'NONE',  ( 1.000000000000000000, 0.000000000000000000, 0.000000000000000000 ) ) ;
#325 = CARTESIAN_POINT ( 'NONE',  ( 1.162986960622940093E-14, 107.0585713622668180, -80.79999994400000674 ) ) ;
#326 = DIRECTION ( 'NONE',  ( -0.000000000000000000, 1.000000000000000000, -0.000000000000000000 ) ) ;
#327 = APPLICATION_CONTEXT ( 'configuration controlled 3d designs of mechanical parts and assemblies' ) ;
#328 = PERSON_AND_ORGANIZATION_ROLE ( 'creator' ) ;
#329 = EDGE_CURVE ( 'NONE', #883, #1190, #1285, .T. ) ;
#330 = ORIENTED_EDGE ( 'NONE', *, *, #383, .F. ) ;
#331 = FACE_BOUND ( 'NONE', #86, .T. ) ;
#332 = EDGE_CURVE ( 'NONE', #421, #1325, #566, .T. ) ;
#333 = DIRECTION ( 'NONE',  ( -0.000000000000000000, -0.000000000000000000, 1.000000000000000000 ) ) ;
#334 = DIRECTION ( 'NONE',  ( -1.000000000000000000, 0.000000000000000000, 0.000000000000000000 ) ) ;
#335 = LINE ( 'NONE', #773, #5 ) ;
#336 = ORIENTED_EDGE ( 'NONE', *, *, #593, .T. ) ;
#337 = CARTESIAN_POINT ( 'NONE',  ( -12.06500000000000661, -54.54000007799999850, -61.74999994399999537 ) ) ;
#338 = ORIENTED_EDGE ( 'NONE', *, *, #913, .T. ) ;
#339 = LINE ( 'NONE', #1233, #1097 ) ;
#340 = EDGE_CURVE ( 'NONE', #1088, #961, #771, .T. ) ;
#341 = FACE_OUTER_BOUND ( 'NONE', #102, .T. ) ;
#342 = PLANE ( 'NONE',  #52 ) ;
#343 = CIRCLE ( 'NONE', #48, 3.499999999999999556 ) ;
#344 = VECTOR ( 'NONE', #40, 1000.000000000000114 ) ;
#345 = EDGE_LOOP ( 'NONE', ( #1211, #381 ) ) ;
#346 = SECURITY_CLASSIFICATION ( '', '', #889 ) ;
#347 = CARTESIAN_POINT ( 'NONE',  ( 133.9200000000001012, 12.69999999999999929, -73.74999994399999537 ) ) ;
#348 = ORIENTED_EDGE ( 'NONE', *, *, #1043, .T. ) ;
#349 = ADVANCED_FACE ( 'NONE', ( #124 ), #1018, .T. ) ;
#350 = CARTESIAN_POINT ( 'NONE',  ( -12.06500000000000661, -60.54000007799999139, -61.74999994399999537 ) ) ;
#351 = LINE ( 'NONE', #243, #253 ) ;
#352 = ADVANCED_FACE ( 'NONE', ( #235 ), #1035, .T. ) ;
#353 = ORIENTED_EDGE ( 'NONE', *, *, #177, .F. ) ;
#354 = DIRECTION ( 'NONE',  ( 0.7071067811865455743, 1.287805494327246688E-16, 0.7071067811865493491 ) ) ;
#355 = CARTESIAN_POINT ( 'NONE',  ( 6.480550509804473595E-15, 0.000000000000000000, -42.69999994399999110 ) ) ;
#356 = CARTESIAN_POINT ( 'NONE',  ( -12.06500000000000661, -60.54000007799999139, -61.74999994399999537 ) ) ;
#357 = DIRECTION ( 'NONE',  ( -1.000000000000000000, 0.000000000000000000, 0.000000000000000000 ) ) ;
#358 = EDGE_CURVE ( 'NONE', #1315, #84, #1010, .T. ) ;
#359 = CARTESIAN_POINT ( 'NONE',  ( 133.9200000000000443, 12.69999999999999929, -42.69999994399984899 ) ) ;
#360 = ORIENTED_EDGE ( 'NONE', *, *, #332, .F. ) ;
#361 = LINE ( 'NONE', #1264, #710 ) ;
#362 = DIRECTION ( 'NONE',  ( -0.000000000000000000, 1.000000000000000000, -0.000000000000000000 ) ) ;
#363 = VECTOR ( 'NONE', #540, 1000.000000000000000 ) ;
#364 = EDGE_CURVE ( 'NONE', #35, #399, #450, .T. ) ;
#365 = AXIS2_PLACEMENT_3D ( 'NONE', #820, #270, #1314 ) ;
#366 = CARTESIAN_POINT ( 'NONE',  ( -2.999999999999975131, -60.54000007799999139, -35.64999994400000105 ) ) ;
#367 = ORIENTED_EDGE ( 'NONE', *, *, #395, .F. ) ;
#368 = FACE_OUTER_BOUND ( 'NONE', #447, .T. ) ;
#369 = APPROVAL_PERSON_ORGANIZATION ( #753, #510, #89 ) ;
#370 = LINE ( 'NONE', #590, #453 ) ;
#371 = DIRECTION ( 'NONE',  ( 0.7071067811865474617, 0.000000000000000000, -0.7071067811865474617 ) ) ;
#372 = PLANE ( 'NONE',  #1051 ) ;
#373 = LINE ( 'NONE', #1366, #477 ) ;
#374 = ORIENTED_EDGE ( 'NONE', *, *, #88, .T. ) ;
#375 = EDGE_CURVE ( 'NONE', #1021, #1135, #166, .T. ) ;
#376 = DIRECTION ( 'NONE',  ( 0.7071067811865490160, -1.287805494327241018E-16, -0.7071067811865460184 ) ) ;
#377 = FACE_BOUND ( 'NONE', #613, .T. ) ;
#378 = ORIENTED_EDGE ( 'NONE', *, *, #892, .T. ) ;
#379 = DIRECTION ( 'NONE',  ( 0.7071067811865503483, -0.000000000000000000, -0.7071067811865447972 ) ) ;
#380 = DIRECTION ( 'NONE',  ( -0.000000000000000000, 1.000000000000000000, -0.000000000000000000 ) ) ;
#381 = ORIENTED_EDGE ( 'NONE', *, *, #1090, .F. ) ;
#382 = DIRECTION ( 'NONE',  ( -1.000000000000000000, 0.000000000000000000, -1.298723458728395859E-16 ) ) ;
#383 = EDGE_CURVE ( 'NONE', #1177, #580, #900, .T. ) ;
#384 = VERTEX_POINT ( 'NONE', #1138 ) ;
#385 = CARTESIAN_POINT ( 'NONE',  ( 118.3350000000000222, 7.700000000000000178, -80.79999994400000674 ) ) ;
#386 = LINE ( 'NONE', #1404, #784 ) ;
#387 = VECTOR ( 'NONE', #179, 1000.000000000000000 ) ;
#388 = VERTEX_POINT ( 'NONE', #138 ) ;
#389 = CARTESIAN_POINT ( 'NONE',  ( -5.649999999999970157, 0.000000000000000000, 12.69999999999999929 ) ) ;
#390 = VECTOR ( 'NONE', #123, 1000.000000000000114 ) ;
#391 = CIRCLE ( 'NONE', #642, 2.999999999999995559 ) ;
#392 = APPROVAL ( #957, 'UNSPECIFIED' ) ;
#393 = ORIENTED_EDGE ( 'NONE', *, *, #1072, .T. ) ;
#394 = CARTESIAN_POINT ( 'NONE',  ( -12.69999999999999929, 12.70000000000000284, 12.69999999999999751 ) ) ;
#395 = EDGE_CURVE ( 'NONE', #81, #485, #27, .T. ) ;
#396 = DIRECTION ( 'NONE',  ( -0.000000000000000000, 1.000000000000000000, -0.000000000000000000 ) ) ;
#397 = VERTEX_POINT ( 'NONE', #50 ) ;
#398 = FACE_OUTER_BOUND ( 'NONE', #865, .T. ) ;
#399 = VERTEX_POINT ( 'NONE', #935 ) ;
#400 = LINE ( 'NONE', #394, #1075 ) ;
#401 = ADVANCED_FACE ( 'NONE', ( #184 ), #589, .T. ) ;
#402 = VERTEX_POINT ( 'NONE', #1300 ) ;
#403 = LINE ( 'NONE', #1388, #1195 ) ;
#404 = EDGE_LOOP ( 'NONE', ( #1224, #393 ) ) ;
#405 = MANIFOLD_SOLID_BREP ( 'Cut-Extrude6', #853 ) ;
#406 = ORIENTED_EDGE ( 'NONE', *, *, #75, .T. ) ;
#407 = FACE_OUTER_BOUND ( 'NONE', #680, .T. ) ;
#408 = EDGE_CURVE ( 'NONE', #911, #692, #1047, .T. ) ;
#409 = ORIENTED_EDGE ( 'NONE', *, *, #322, .T. ) ;
#410 = VECTOR ( 'NONE', #43, 1000.000000000000000 ) ;
#411 = LINE ( 'NONE', #1382, #713 ) ;
#412 = AXIS2_PLACEMENT_3D ( 'NONE', #1290, #1280, #1383 ) ;
#413 = EDGE_LOOP ( 'NONE', ( #428, #704, #92, #72 ) ) ;
#414 = LINE ( 'NONE', #1106, #641 ) ;
#415 = ORIENTED_EDGE ( 'NONE', *, *, #866, .T. ) ;
#416 = DIRECTION ( 'NONE',  ( 0.000000000000000000, 1.000000000000000000, 0.000000000000000000 ) ) ;
#417 = ORIENTED_EDGE ( 'NONE', *, *, #1090, .T. ) ;
#418 = EDGE_CURVE ( 'NONE', #692, #739, #276, .T. ) ;
#419 = ORIENTED_EDGE ( 'NONE', *, *, #752, .F. ) ;
#420 = LINE ( 'NONE', #1430, #1286 ) ;
#421 = VERTEX_POINT ( 'NONE', #818 ) ;
#422 = LINE ( 'NONE', #1225, #390 ) ;
#423 = EDGE_CURVE ( 'NONE', #1165, #638, #1166, .T. ) ;
#424 = DIRECTION ( 'NONE',  ( 2.764071652032392369E-32, 1.000000000000000000, 0.000000000000000000 ) ) ;
#425 = DIRECTION ( 'NONE',  ( -0.000000000000000000, 1.000000000000000000, -0.000000000000000000 ) ) ;
#426 = VERTEX_POINT ( 'NONE', #951 ) ;
#427 = DIRECTION ( 'NONE',  ( 0.000000000000000000, 1.000000000000000000, -0.000000000000000000 ) ) ;
#428 = ORIENTED_EDGE ( 'NONE', *, *, #213, .F. ) ;
#429 = VECTOR ( 'NONE', #651, 1000.000000000000114 ) ;
#430 = CIRCLE ( 'NONE', #1122, 3.499999999999999556 ) ;
#431 = CARTESIAN_POINT ( 'NONE',  ( 73.30999999999971806, 12.69999999999999929, 73.31000000000001648 ) ) ;
#432 = VECTOR ( 'NONE', #362, 1000.000000000000000 ) ;
#433 = ADVANCED_FACE ( 'NONE', ( #291 ), #501, .F. ) ;
#434 = DIRECTION ( 'NONE',  ( -1.000000000000000000, 0.000000000000000000, -2.185478394931409786E-15 ) ) ;
#435 = EDGE_CURVE ( 'NONE', #1347, #421, #430, .T. ) ;
#436 = DATE_AND_TIME ( #1322, #78 ) ;
#437 = VERTEX_POINT ( 'NONE', #262 ) ;
#438 = PLANE ( 'NONE',  #833 ) ;
#439 = DIRECTION ( 'NONE',  ( 0.000000000000000000, 0.000000000000000000, 1.000000000000000000 ) ) ;
#440 = DIRECTION ( 'NONE',  ( 0.7071067811865446862, 0.000000000000000000, 0.7071067811865503483 ) ) ;
#441 = DATE_AND_TIME ( #646, #122 ) ;
#442 = ORIENTED_EDGE ( 'NONE', *, *, #98, .T. ) ;
#443 = EDGE_CURVE ( 'NONE', #1308, #204, #722, .T. ) ;
#444 = DIRECTION ( 'NONE',  ( 0.000000000000000000, 0.000000000000000000, -1.000000000000000000 ) ) ;
#445 = DIRECTION ( 'NONE',  ( 2.269859870460082601E-31, -1.000000000000000000, 9.474186095736432857E-17 ) ) ;
#446 = CARTESIAN_POINT ( 'NONE',  ( 133.9200000000000728, 0.000000000000000000, -42.69999994399984899 ) ) ;
#447 = EDGE_LOOP ( 'NONE', ( #1299, #984, #953, #893, #286, #180 ) ) ;
#448 = ADVANCED_FACE ( 'NONE', ( #835 ), #1294, .T. ) ;
#449 = CARTESIAN_POINT ( 'NONE',  ( 223.5272989591195483, -60.54000007799999139, -42.69999994399994847 ) ) ;
#450 = LINE ( 'NONE', #256, #1356 ) ;
#451 = CARTESIAN_POINT ( 'NONE',  ( -17.64999999999993108, 107.0585713622668180, -80.79999994400000674 ) ) ;
#452 = CARTESIAN_POINT ( 'NONE',  ( 140.3349999999999795, -60.54000007799999139, -64.74999994399999537 ) ) ;
#453 = VECTOR ( 'NONE', #249, 1000.000000000000000 ) ;
#454 = AXIS2_PLACEMENT_3D ( 'NONE', #985, #434, #1328 ) ;
#455 = CIRCLE ( 'NONE', #1332, 3.500000000000003109 ) ;
#456 = ORIENTED_EDGE ( 'NONE', *, *, #916, .F. ) ;
#457 = LINE ( 'NONE', #47, #1311 ) ;
#458 = ORIENTED_EDGE ( 'NONE', *, *, #1215, .T. ) ;
#459 = CARTESIAN_POINT ( 'NONE',  ( 152.9700000000001694, -54.54000007799999850, -80.79999994399980778 ) ) ;
#460 = DIRECTION ( 'NONE',  ( 0.000000000000000000, -1.821231995776175725E-16, -1.000000000000000000 ) ) ;
#461 = EDGE_CURVE ( 'NONE', #811, #437, #825, .T. ) ;
#462 = LINE ( 'NONE', #1126, #28 ) ;
#463 = ORIENTED_EDGE ( 'NONE', *, *, #1208, .T. ) ;
#464 = LINE ( 'NONE', #25, #1243 ) ;
#465 = ORIENTED_EDGE ( 'NONE', *, *, #674, .F. ) ;
#466 = LINE ( 'NONE', #796, #1420 ) ;
#467 = CARTESIAN_POINT ( 'NONE',  ( 128.2699999999999818, 0.000000000000000000, -42.69999994399996979 ) ) ;
#468 = ADVANCED_FACE ( 'NONE', ( #398 ), #494, .F. ) ;
#469 = DIRECTION ( 'NONE',  ( 2.913971193241881161E-15, 0.000000000000000000, -1.000000000000000000 ) ) ;
#470 = ORIENTED_EDGE ( 'NONE', *, *, #952, .F. ) ;
#471 = CARTESIAN_POINT ( 'NONE',  ( 223.5272989591195483, 12.70000000000000107, -42.69999994399995558 ) ) ;
#472 = DIRECTION ( 'NONE',  ( 0.000000000000000000, -1.821231995776175725E-16, -1.000000000000000000 ) ) ;
#473 = CARTESIAN_POINT ( 'NONE',  ( 140.9699999999999704, 12.70000000000000284, 12.70000000000001883 ) ) ;
#474 = VECTOR ( 'NONE', #684, 1000.000000000000114 ) ;
#475 = LINE ( 'NONE', #845, #806 ) ;
#476 = VECTOR ( 'NONE', #1202, 1000.000000000000114 ) ;
#477 = VECTOR ( 'NONE', #354, 1000.000000000000114 ) ;
#478 = FACE_BOUND ( 'NONE', #1188, .T. ) ;
#479 = ORIENTED_EDGE ( 'NONE', *, *, #700, .F. ) ;
#480 = DIRECTION ( 'NONE',  ( 0.000000000000000000, 0.000000000000000000, -1.000000000000000000 ) ) ;
#481 = DIRECTION ( 'NONE',  ( 0.000000000000000000, 0.000000000000000000, 1.000000000000000000 ) ) ;
#482 = CARTESIAN_POINT ( 'NONE',  ( 140.9699999999999704, 107.0585713622668180, 5.650000000000026112 ) ) ;
#483 = CARTESIAN_POINT ( 'NONE',  ( -9.174999999999997158, 12.69999999999999929, 9.174999999999961631 ) ) ;
#484 = EDGE_CURVE ( 'NONE', #426, #671, #1070, .T. ) ;
#485 = VERTEX_POINT ( 'NONE', #925 ) ;
#486 = DIRECTION ( 'NONE',  ( -0.7071067811865462405, 0.000000000000000000, -0.7071067811865489050 ) ) ;
#487 = EDGE_LOOP ( 'NONE', ( #837, #982, #90, #470 ) ) ;
#488 = LINE ( 'NONE', #920, #975 ) ;
#489 = PLANE ( 'NONE',  #210 ) ;
#490 = ORIENTED_EDGE ( 'NONE', *, *, #1409, .T. ) ;
#491 = DIRECTION ( 'NONE',  ( -0.000000000000000000, -0.000000000000000000, 1.000000000000000000 ) ) ;
#492 = FACE_OUTER_BOUND ( 'NONE', #244, .T. ) ;
#493 = ORIENTED_EDGE ( 'NONE', *, *, #68, .F. ) ;
#494 = PLANE ( 'NONE',  #755 ) ;
#495 = ADVANCED_FACE ( 'NONE', ( #1378, #368 ), #1013, .T. ) ;
#496 = VERTEX_POINT ( 'NONE', #273 ) ;
#497 = DIRECTION ( 'NONE',  ( -0.7071067811865446862, 0.000000000000000000, -0.7071067811865503483 ) ) ;
#498 = PERSON_AND_ORGANIZATION ( #1151, #689 ) ;
#499 = VECTOR ( 'NONE', #46, 1000.000000000000114 ) ;
#500 = ORIENTED_EDGE ( 'NONE', *, *, #637, .T. ) ;
#501 = CYLINDRICAL_SURFACE ( 'NONE', #876, 3.499999999999999556 ) ;
#502 = VECTOR ( 'NONE', #1253, 1000.000000000000000 ) ;
#503 = LOCAL_TIME ( 12, 16, 56.00000000000000000, #223 ) ;
#504 = ADVANCED_FACE ( 'NONE', ( #1067 ), #586, .T. ) ;
#505 = ORIENTED_EDGE ( 'NONE', *, *, #576, .F. ) ;
#506 = PLANE ( 'NONE',  #1330 ) ;
#507 = LINE ( 'NONE', #1176, #1078 ) ;
#508 = ORIENTED_EDGE ( 'NONE', *, *, #177, .T. ) ;
#509 = ORIENTED_EDGE ( 'NONE', *, *, #916, .T. ) ;
#510 = APPROVAL ( #518, 'UNSPECIFIED' ) ;
#511 = DIRECTION ( 'NONE',  ( 1.000000000000000000, 0.000000000000000000, 0.000000000000000000 ) ) ;
#512 =( NAMED_UNIT ( * ) SI_UNIT ( $, .STERADIAN. ) SOLID_ANGLE_UNIT ( ) );
#513 = ORIENTED_EDGE ( 'NONE', *, *, #245, .F. ) ;
#514 = CARTESIAN_POINT ( 'NONE',  ( 152.9700000000001410, 52.64508730745252763, -73.74999994399972536 ) ) ;
#515 = ORIENTED_EDGE ( 'NONE', *, *, #1269, .T. ) ;
#516 = APPLICATION_CONTEXT ( 'configuration controlled 3d designs of mechanical parts and assemblies' ) ;
#517 = CARTESIAN_POINT ( 'NONE',  ( 121.8350000000000222, 7.700000000000000178, 0.000000000000000000 ) ) ;
#518 = APPROVAL_STATUS ( 'not_yet_approved' ) ;
#519 = ORIENTED_EDGE ( 'NONE', *, *, #582, .F. ) ;
#520 = EDGE_CURVE ( 'NONE', #1437, #729, #718, .T. ) ;
#521 = VECTOR ( 'NONE', #1206, 1000.000000000000000 ) ;
#522 = CARTESIAN_POINT ( 'NONE',  ( -12.06500000000000661, -60.54000007799999139, -61.74999994399999537 ) ) ;
#523 = ORIENTED_EDGE ( 'NONE', *, *, #988, .F. ) ;
#524 = AXIS2_PLACEMENT_3D ( 'NONE', #226, #131, #42 ) ;
#525 = VECTOR ( 'NONE', #1338, 1000.000000000000000 ) ;
#526 = ORIENTED_EDGE ( 'NONE', *, *, #798, .F. ) ;
#527 = CARTESIAN_POINT ( 'NONE',  ( 6.890853218392769028E-15, -60.54000007799999139, -42.69999994399999110 ) ) ;
#528 = DATE_AND_TIME ( #1007, #503 ) ;
#529 = VERTEX_POINT ( 'NONE', #259 ) ;
#530 = EDGE_CURVE ( 'NONE', #268, #323, #162, .T. ) ;
#531 = CARTESIAN_POINT ( 'NONE',  ( 114.8350000000000222, 7.700000000000000178, 12.69999999999999929 ) ) ;
#532 = UNCERTAINTY_MEASURE_WITH_UNIT (LENGTH_MEASURE( 1.000000000000000082E-05 ), #1196, 'distance_accuracy_value', 'NONE');
#533 = DIRECTION ( 'NONE',  ( 0.000000000000000000, 0.000000000000000000, -1.000000000000000000 ) ) ;
#534 = DIRECTION ( 'NONE',  ( 5.030610406698955710E-31, -1.000000000000000000, 0.000000000000000000 ) ) ;
#535 = EDGE_LOOP ( 'NONE', ( #1367, #330, #232, #1402 ) ) ;
#536 = CARTESIAN_POINT ( 'NONE',  ( 140.9699999999999704, 0.000000000000000000, 5.650000000000026112 ) ) ;
#537 = CC_DESIGN_PERSON_AND_ORGANIZATION_ASSIGNMENT ( #1068, #71, ( #1344 ) ) ;
#538 = LINE ( 'NONE', #871, #429 ) ;
#539 = EDGE_CURVE ( 'NONE', #739, #643, #602, .T. ) ;
#540 = DIRECTION ( 'NONE',  ( 1.808622891966605648E-16, -0.000000000000000000, 1.000000000000000000 ) ) ;
#541 = PERSON_AND_ORGANIZATION ( #1151, #689 ) ;
#542 = ORIENTED_EDGE ( 'NONE', *, *, #892, .F. ) ;
#543 = DIRECTION ( 'NONE',  ( 0.000000000000000000, 0.000000000000000000, 1.000000000000000000 ) ) ;
#544 = ORIENTED_EDGE ( 'NONE', *, *, #461, .F. ) ;
#545 = AXIS2_PLACEMENT_3D ( 'NONE', #350, #1048, #153 ) ;
#546 = VECTOR ( 'NONE', #1302, 1000.000000000000000 ) ;
#547 = CARTESIAN_POINT ( 'NONE',  ( 145.9199999999999307, -54.54000007799999850, -80.79999994399982199 ) ) ;
#548 = AXIS2_PLACEMENT_3D ( 'NONE', #849, #814, #1265 ) ;
#549 = DIRECTION ( 'NONE',  ( -0.000000000000000000, 1.000000000000000000, -0.000000000000000000 ) ) ;
#550 = EDGE_CURVE ( 'NONE', #496, #991, #475, .T. ) ;
#551 = PERSON_AND_ORGANIZATION ( #1151, #689 ) ;
#552 = VERTEX_POINT ( 'NONE', #1174 ) ;
#553 = LINE ( 'NONE', #884, #1289 ) ;
#554 = DIRECTION ( 'NONE',  ( -0.000000000000000000, 1.000000000000000000, -0.000000000000000000 ) ) ;
#555 = CARTESIAN_POINT ( 'NONE',  ( 133.9200000000000443, 0.000000000000000000, -42.69999994399984899 ) ) ;
#556 = PRODUCT_RELATED_PRODUCT_CATEGORY ( 'detail', '', ( #1344 ) ) ;
#557 = VERTEX_POINT ( 'NONE', #55 ) ;
#558 = DIRECTION ( 'NONE',  ( -0.000000000000000000, 1.000000000000000000, -0.000000000000000000 ) ) ;
#559 = ORIENTED_EDGE ( 'NONE', *, *, #960, .T. ) ;
#560 = LINE ( 'NONE', #431, #1214 ) ;
#561 = CARTESIAN_POINT ( 'NONE',  ( 131.2700000000000102, 12.69999999999999929, 0.000000000000000000 ) ) ;
#562 = ORIENTED_EDGE ( 'NONE', *, *, #1258, .T. ) ;
#563 = DIRECTION ( 'NONE',  ( -0.000000000000000000, 1.000000000000000000, -0.000000000000000000 ) ) ;
#564 = EDGE_CURVE ( 'NONE', #421, #1347, #855, .T. ) ;
#565 = EDGE_LOOP ( 'NONE', ( #1283, #1305, #623, #618 ) ) ;
#566 = LINE ( 'NONE', #146, #954 ) ;
#567 = CARTESIAN_POINT ( 'NONE',  ( 128.2699999999999818, 103.1042856531332035, 16.65428570913359252 ) ) ;
#568 = CARTESIAN_POINT ( 'NONE',  ( 1.162986960622940093E-14, 5.650000000000029665, -80.79999994400000674 ) ) ;
#569 = VECTOR ( 'NONE', #1275, 1000.000000000000000 ) ;
#570 = AXIS2_PLACEMENT_3D ( 'NONE', #649, #1109, #1001 ) ;
#571 = ORIENTED_EDGE ( 'NONE', *, *, #932, .T. ) ;
#572 = LOCAL_TIME ( 12, 16, 56.00000000000000000, #289 ) ;
#573 = CARTESIAN_POINT ( 'NONE',  ( 223.5272989591195483, -60.54000007799999139, -42.69999994399994847 ) ) ;
#574 = ORIENTED_EDGE ( 'NONE', *, *, #781, .F. ) ;
#575 = DIRECTION ( 'NONE',  ( -1.000000000000000000, 0.000000000000000000, -0.000000000000000000 ) ) ;
#576 = EDGE_CURVE ( 'NONE', #293, #650, #400, .T. ) ;
#577 = CARTESIAN_POINT ( 'NONE',  ( 140.3349999999999795, -54.54000007799999850, -61.74999994399999537 ) ) ;
#578 = FACE_OUTER_BOUND ( 'NONE', #296, .T. ) ;
#579 = DIRECTION ( 'NONE',  ( -0.000000000000000000, -0.000000000000000000, 1.000000000000000000 ) ) ;
#580 = VERTEX_POINT ( 'NONE', #594 ) ;
#581 = DIRECTION ( 'NONE',  ( 0.000000000000000000, 0.000000000000000000, 1.000000000000000000 ) ) ;
#582 = EDGE_CURVE ( 'NONE', #402, #1308, #1053, .T. ) ;
#583 = PLANE ( 'NONE',  #93 ) ;
#584 = DIRECTION ( 'NONE',  ( -0.000000000000000000, 1.000000000000000000, -0.000000000000000000 ) ) ;
#585 = ADVANCED_FACE ( 'NONE', ( #1396 ), #931, .F. ) ;
#586 = PLANE ( 'NONE',  #1146 ) ;
#587 = CARTESIAN_POINT ( 'NONE',  ( 114.8350000000000222, 7.700000000000000178, -80.79999994400000674 ) ) ;
#588 = VERTEX_POINT ( 'NONE', #1390 ) ;
#589 = PLANE ( 'NONE',  #977 ) ;
#590 = CARTESIAN_POINT ( 'NONE',  ( 1.162986960622940093E-14, 5.650000000000029665, -80.79999994400000674 ) ) ;
#591 = CARTESIAN_POINT ( 'NONE',  ( 184.7236494795600379, -60.54000007799999850, -81.50364942355963649 ) ) ;
#592 = AXIS2_PLACEMENT_3D ( 'NONE', #577, #1387, #480 ) ;
#593 = EDGE_CURVE ( 'NONE', #1325, #145, #1379, .T. ) ;
#594 = CARTESIAN_POINT ( 'NONE',  ( -24.69999999999998508, -54.54000007799999139, -49.74999994400001668 ) ) ;
#595 = VECTOR ( 'NONE', #534, 1000.000000000000000 ) ;
#596 = VECTOR ( 'NONE', #877, 1000.000000000000000 ) ;
#597 = PLANE ( 'NONE',  #211 ) ;
#598 = ORIENTED_EDGE ( 'NONE', *, *, #622, .F. ) ;
#599 = CARTESIAN_POINT ( 'NONE',  ( 131.2700000000000102, 0.000000000000000000, 0.000000000000000000 ) ) ;
#600 = LINE ( 'NONE', #1205, #734 ) ;
#601 = ORIENTED_EDGE ( 'NONE', *, *, #39, .T. ) ;
#602 = LINE ( 'NONE', #711, #499 ) ;
#603 = EDGE_CURVE ( 'NONE', #991, #1069, #1186, .T. ) ;
#604 = CARTESIAN_POINT ( 'NONE',  ( -17.65000000000000213, -54.54000007799999139, -42.69999994399999821 ) ) ;
#605 = ORIENTED_EDGE ( 'NONE', *, *, #1327, .F. ) ;
#606 = DIRECTION ( 'NONE',  ( -1.000000000000000000, -5.030610406698944324E-31, -2.913971193241874850E-15 ) ) ;
#607 = ADVANCED_FACE ( 'NONE', ( #696 ), #506, .T. ) ;
#608 = ORIENTED_EDGE ( 'NONE', *, *, #107, .F. ) ;
#609 = LINE ( 'NONE', #70, #904 ) ;
#610 = VERTEX_POINT ( 'NONE', #831 ) ;
#611 = DIRECTION ( 'NONE',  ( -9.106159978880876162E-17, 0.000000000000000000, -1.000000000000000000 ) ) ;
#612 = EDGE_CURVE ( 'NONE', #723, #1095, #779, .T. ) ;
#613 = EDGE_LOOP ( 'NONE', ( #1412, #284 ) ) ;
#614 = LINE ( 'NONE', #702, #277 ) ;
#615 = VECTOR ( 'NONE', #334, 1000.000000000000000 ) ;
#616 = DIRECTION ( 'NONE',  ( 1.000000000000000000, 0.000000000000000000, 0.000000000000000000 ) ) ;
#617 = VECTOR ( 'NONE', #1272, 1000.000000000000000 ) ;
#618 = ORIENTED_EDGE ( 'NONE', *, *, #1298, .F. ) ;
#619 = DIRECTION ( 'NONE',  ( -1.517693329813479566E-16, 9.474186095736432857E-17, 1.000000000000000000 ) ) ;
#620 = VECTOR ( 'NONE', #1005, 1000.000000000000000 ) ;
#621 = DESIGN_CONTEXT ( 'detailed design', #327, 'design' ) ;
#622 = EDGE_CURVE ( 'NONE', #610, #1365, #609, .T. ) ;
#623 = ORIENTED_EDGE ( 'NONE', *, *, #866, .F. ) ;
#624 = CARTESIAN_POINT ( 'NONE',  ( -5.649999999999981704, 12.69999999999999929, -80.79999994400000674 ) ) ;
#625 = DIRECTION ( 'NONE',  ( -2.764071652032392369E-32, -1.000000000000000000, 0.000000000000000000 ) ) ;
#626 = EDGE_LOOP ( 'NONE', ( #239, #378, #979, #1415 ) ) ;
#627 = DIRECTION ( 'NONE',  ( -1.243836322266832620E-16, 0.000000000000000000, 1.000000000000000000 ) ) ;
#628 = ORIENTED_EDGE ( 'NONE', *, *, #752, .T. ) ;
#629 = ORIENTED_EDGE ( 'NONE', *, *, #1127, .T. ) ;
#630 = CARTESIAN_POINT ( 'NONE',  ( -12.69999999999999218, 12.70000000000000284, -35.64999994400000105 ) ) ;
#631 = ADVANCED_FACE ( 'NONE', ( #182 ), #372, .F. ) ;
#632 = ORIENTED_EDGE ( 'NONE', *, *, #1385, .T. ) ;
#633 = DIRECTION ( 'NONE',  ( 0.000000000000000000, 0.000000000000000000, 1.000000000000000000 ) ) ;
#634 = ORIENTED_EDGE ( 'NONE', *, *, #75, .F. ) ;
#635 = ORIENTED_EDGE ( 'NONE', *, *, #443, .F. ) ;
#636 = CARTESIAN_POINT ( 'NONE',  ( 0.000000000000000000, -60.54000007799999139, -80.79999994400000674 ) ) ;
#637 = EDGE_CURVE ( 'NONE', #1347, #145, #614, .T. ) ;
#638 = VERTEX_POINT ( 'NONE', #79 ) ;
#639 = PLANE ( 'NONE',  #1028 ) ;
#640 = ORIENTED_EDGE ( 'NONE', *, *, #127, .F. ) ;
#641 = VECTOR ( 'NONE', #425, 1000.000000000000000 ) ;
#642 = AXIS2_PLACEMENT_3D ( 'NONE', #522, #427, #543 ) ;
#643 = VERTEX_POINT ( 'NONE', #1084 ) ;
#644 = DIRECTION ( 'NONE',  ( -0.7071067811865489050, 0.000000000000000000, 0.7071067811865462405 ) ) ;
#645 = ADVANCED_BREP_SHAPE_REPRESENTATION ( 'Z-axis Way Cover Bracing Side', ( #405, #1003 ), #908 ) ;
#646 = CALENDAR_DATE ( 2026, 26, 5 ) ;
#647 = PRODUCT_DEFINITION ( 'UNKNOWN', '', #302, #621 ) ;
#648 = ORIENTED_EDGE ( 'NONE', *, *, #39, .F. ) ;
#649 = CARTESIAN_POINT ( 'NONE',  ( -17.64999999999999858, 12.70000000000000107, -42.69999994399999110 ) ) ;
#650 = VERTEX_POINT ( 'NONE', #630 ) ;
#651 = DIRECTION ( 'NONE',  ( -8.795250981610151839E-17, 0.7071067811865460184, 0.7071067811865490160 ) ) ;
#652 = LINE ( 'NONE', #527, #363 ) ;
#653 = ORIENTED_EDGE ( 'NONE', *, *, #288, .F. ) ;
#654 = CARTESIAN_POINT ( 'NONE',  ( 128.2699999999999818, -60.54000007799999850, -80.79999994399996410 ) ) ;
#655 = ORIENTED_EDGE ( 'NONE', *, *, #1055, .T. ) ;
#656 = ADVANCED_FACE ( 'NONE', ( #96, #312 ), #321, .F. ) ;
#657 = FACE_OUTER_BOUND ( 'NONE', #1034, .T. ) ;
#658 = CARTESIAN_POINT ( 'NONE',  ( 6.480550509804473595E-15, 0.000000000000000000, -42.69999994399999110 ) ) ;
#659 = DATE_TIME_ROLE ( 'creation_date' ) ;
#660 = ORIENTED_EDGE ( 'NONE', *, *, #1082, .T. ) ;
#661 = DIRECTION ( 'NONE',  ( -0.7071067811865516806, -3.557178732084468419E-31, 0.7071067811865434649 ) ) ;
#662 = DIRECTION ( 'NONE',  ( 0.7071067811865474617, 0.000000000000000000, 0.7071067811865474617 ) ) ;
#663 = VECTOR ( 'NONE', #1256, 1000.000000000000000 ) ;
#664 = CIRCLE ( 'NONE', #51, 3.500000000000003109 ) ;
#665 = EDGE_CURVE ( 'NONE', #1437, #863, #1, .T. ) ;
#666 = PLANE ( 'NONE',  #685 ) ;
#667 = VECTOR ( 'NONE', #1012, 1000.000000000000000 ) ;
#668 = CARTESIAN_POINT ( 'NONE',  ( -17.64999999999993108, -54.54000007799999850, -80.79999994400000674 ) ) ;
#669 = ORIENTED_EDGE ( 'NONE', *, *, #603, .T. ) ;
#670 = LINE ( 'NONE', #987, #596 ) ;
#671 = VERTEX_POINT ( 'NONE', #746 ) ;
#672 = DIRECTION ( 'NONE',  ( 1.000000000000000000, 0.000000000000000000, 0.000000000000000000 ) ) ;
#673 = DIRECTION ( 'NONE',  ( 1.000000000000000000, 0.000000000000000000, 0.000000000000000000 ) ) ;
#674 = EDGE_CURVE ( 'NONE', #883, #241, #414, .T. ) ;
#675 = ORIENTED_EDGE ( 'NONE', *, *, #68, .T. ) ;
#676 = LINE ( 'NONE', #573, #836 ) ;
#677 = FACE_OUTER_BOUND ( 'NONE', #1204, .T. ) ;
#678 = DIRECTION ( 'NONE',  ( -2.185478394931409786E-15, 1.821231995776175725E-16, 1.000000000000000000 ) ) ;
#679 = DIRECTION ( 'NONE',  ( 0.7071067811865434649, 1.287805494327251125E-16, 0.7071067811865516806 ) ) ;
#680 = EDGE_LOOP ( 'NONE', ( #1002, #137, #201, #768 ) ) ;
#681 = EDGE_CURVE ( 'NONE', #1308, #1069, #967, .T. ) ;
#682 = LINE ( 'NONE', #793, #344 ) ;
#683 = EDGE_LOOP ( 'NONE', ( #33, #629, #733, #66 ) ) ;
#684 = DIRECTION ( 'NONE',  ( -0.000000000000000000, -0.7071067811865460184, -0.7071067811865490160 ) ) ;
#685 = AXIS2_PLACEMENT_3D ( 'NONE', #242, #1345, #445 ) ;
#686 = DIRECTION ( 'NONE',  ( 0.000000000000000000, 0.000000000000000000, -1.000000000000000000 ) ) ;
#687 = AXIS2_PLACEMENT_3D ( 'NONE', #777, #1241, #1153 ) ;
#688 = VECTOR ( 'NONE', #981, 1000.000000000000000 ) ;
#689 = ORGANIZATION ( 'UNSPECIFIED', 'UNSPECIFIED', '' ) ;
#690 = EDGE_CURVE ( 'NONE', #35, #268, #652, .T. ) ;
#691 = LINE ( 'NONE', #587, #502 ) ;
#692 = VERTEX_POINT ( 'NONE', #1091 ) ;
#693 = DIRECTION ( 'NONE',  ( -1.000000000000000000, 0.000000000000000000, -1.517693329813479566E-16 ) ) ;
#694 = LINE ( 'NONE', #936, #778 ) ;
#695 = FACE_OUTER_BOUND ( 'NONE', #191, .T. ) ;
#696 = FACE_OUTER_BOUND ( 'NONE', #164, .T. ) ;
#697 = CARTESIAN_POINT ( 'NONE',  ( 152.9700000000001410, -54.54000007799999850, -73.74999994399972536 ) ) ;
#698 = CARTESIAN_POINT ( 'NONE',  ( 128.2699999999999818, -60.54000007799999139, -80.79999994400000674 ) ) ;
#699 = DIRECTION ( 'NONE',  ( -0.000000000000000000, 1.000000000000000000, -0.000000000000000000 ) ) ;
#700 = EDGE_CURVE ( 'NONE', #35, #867, #740, .T. ) ;
#701 = DIRECTION ( 'NONE',  ( 0.7071067811865475727, 0.000000000000000000, 0.7071067811865475727 ) ) ;
#702 = CARTESIAN_POINT ( 'NONE',  ( 6.435000000000006715, 7.700000000000000178, -80.79999994400000674 ) ) ;
#703 = FACE_OUTER_BOUND ( 'NONE', #69, .T. ) ;
#704 = ORIENTED_EDGE ( 'NONE', *, *, #114, .F. ) ;
#705 = DIRECTION ( 'NONE',  ( 0.000000000000000000, 0.000000000000000000, -1.000000000000000000 ) ) ;
#706 = DIRECTION ( 'NONE',  ( 1.000000000000000000, 0.000000000000000000, 0.000000000000000000 ) ) ;
#707 = DIRECTION ( 'NONE',  ( -2.764071652032392916E-32, -1.000000000000000000, 1.821231995776175725E-16 ) ) ;
#708 = ADVANCED_FACE ( 'NONE', ( #407 ), #189, .F. ) ;
#709 = EDGE_LOOP ( 'NONE', ( #1405, #675, #158, #1046 ) ) ;
#710 = VECTOR ( 'NONE', #813, 999.9999999999998863 ) ;
#711 = CARTESIAN_POINT ( 'NONE',  ( -19.32499997199998276, 12.69999999999999929, -19.32499997199998276 ) ) ;
#712 = VECTOR ( 'NONE', #174, 1000.000000000000000 ) ;
#713 = VECTOR ( 'NONE', #265, 1000.000000000000000 ) ;
#714 = EDGE_LOOP ( 'NONE', ( #465, #1389, #490, #776 ) ) ;
#715 = CARTESIAN_POINT ( 'NONE',  ( 9.935000000000005826, 7.700000000000000178, -80.79999994400000674 ) ) ;
#716 = EDGE_LOOP ( 'NONE', ( #1274, #6 ) ) ;
#717 = EDGE_LOOP ( 'NONE', ( #1107, #817, #1421, #141, #800, #1231, #632, #505, #8, #986, #374, #1209, #774, #993, #196, #897, #1032, #130 ) ) ;
#718 = LINE ( 'NONE', #1164, #142 ) ;
#719 = ADVANCED_FACE ( 'NONE', ( #751 ), #1221, .F. ) ;
#720 = DIRECTION ( 'NONE',  ( 0.000000000000000000, 0.000000000000000000, 1.000000000000000000 ) ) ;
#721 = ORIENTED_EDGE ( 'NONE', *, *, #932, .F. ) ;
#722 = LINE ( 'NONE', #389, #318 ) ;
#723 = VERTEX_POINT ( 'NONE', #517 ) ;
#724 = CARTESIAN_POINT ( 'NONE',  ( 9.935000000000005826, 7.700000000000000178, 0.000000000000000000 ) ) ;
#725 = DIRECTION ( 'NONE',  ( 1.000000000000000000, 0.000000000000000000, 0.000000000000000000 ) ) ;
#726 = EDGE_CURVE ( 'NONE', #278, #152, #420, .T. ) ;
#727 = EDGE_LOOP ( 'NONE', ( #353, #1074, #844, #1386 ) ) ;
#728 = DIRECTION ( 'NONE',  ( -2.269859870460082601E-31, 1.000000000000000000, -9.474186095736432857E-17 ) ) ;
#729 = VERTEX_POINT ( 'NONE', #868 ) ;
#730 = CARTESIAN_POINT ( 'NONE',  ( -2.999999999999975131, 12.69999999999999929, -35.64999994400000105 ) ) ;
#731 = CALENDAR_DATE ( 2026, 26, 5 ) ;
#732 = AXIS2_PLACEMENT_3D ( 'NONE', #87, #996, #1096 ) ;
#733 = ORIENTED_EDGE ( 'NONE', *, *, #1154, .F. ) ;
#734 = VECTOR ( 'NONE', #1093, 1000.000000000000000 ) ;
#735 = FACE_OUTER_BOUND ( 'NONE', #869, .T. ) ;
#736 = ORIENTED_EDGE ( 'NONE', *, *, #1298, .T. ) ;
#737 = CC_DESIGN_APPROVAL ( #510, ( #302 ) ) ;
#738 = EDGE_CURVE ( 'NONE', #152, #1185, #203, .T. ) ;
#739 = VERTEX_POINT ( 'NONE', #730 ) ;
#740 = LINE ( 'NONE', #636, #546 ) ;
#741 = SHAPE_DEFINITION_REPRESENTATION ( #903, #645 ) ;
#742 = ORIENTED_EDGE ( 'NONE', *, *, #1251, .T. ) ;
#743 = DIRECTION ( 'NONE',  ( 0.000000000000000000, 0.000000000000000000, -1.000000000000000000 ) ) ;
#744 = ADVANCED_FACE ( 'NONE', ( #295 ), #1213, .T. ) ;
#745 = ORIENTED_EDGE ( 'NONE', *, *, #408, .F. ) ;
#746 = CARTESIAN_POINT ( 'NONE',  ( 145.9200000000001864, -54.54000007799999139, -42.69999994399982057 ) ) ;
#747 = PERSON_AND_ORGANIZATION ( #1151, #689 ) ;
#748 = ORIENTED_EDGE ( 'NONE', *, *, #994, .F. ) ;
#749 = DIRECTION ( 'NONE',  ( -2.764071652032392916E-32, -1.000000000000000000, 1.821231995776175725E-16 ) ) ;
#750 = LINE ( 'NONE', #966, #521 ) ;
#751 = FACE_OUTER_BOUND ( 'NONE', #307, .T. ) ;
#752 = EDGE_CURVE ( 'NONE', #1171, #278, #1423, .T. ) ;
#753 = PERSON_AND_ORGANIZATION ( #1151, #689 ) ;
#754 = ORIENTED_EDGE ( 'NONE', *, *, #1258, .F. ) ;
#755 = AXIS2_PLACEMENT_3D ( 'NONE', #1081, #285, #611 ) ;
#756 = CARTESIAN_POINT ( 'NONE',  ( 0.000000000000000000, 107.0585713622668180, 12.69999999999999929 ) ) ;
#757 = VECTOR ( 'NONE', #766, 1000.000000000000000 ) ;
#758 = CC_DESIGN_SECURITY_CLASSIFICATION ( #346, ( #302 ) ) ;
#759 = CARTESIAN_POINT ( 'NONE',  ( 131.2700000000000102, -60.54000007799999139, 0.000000000000000000 ) ) ;
#760 = DIRECTION ( 'NONE',  ( -1.000000000000000000, 2.764071652032392369E-32, 0.000000000000000000 ) ) ;
#761 = DATE_TIME_ROLE ( 'classification_date' ) ;
#762 = ORIENTED_EDGE ( 'NONE', *, *, #45, .T. ) ;
#763 = EDGE_CURVE ( 'NONE', #323, #1177, #303, .T. ) ;
#764 = FACE_OUTER_BOUND ( 'NONE', #1057, .T. ) ;
#765 = CARTESIAN_POINT ( 'NONE',  ( 140.3349999999999795, -60.54000007799999139, -61.74999994399999537 ) ) ;
#766 = DIRECTION ( 'NONE',  ( 2.269859870460082601E-31, -1.000000000000000000, 9.474186095736432857E-17 ) ) ;
#767 = PERSON_AND_ORGANIZATION_ROLE ( 'design_supplier' ) ;
#768 = ORIENTED_EDGE ( 'NONE', *, *, #1409, .F. ) ;
#769 = EDGE_CURVE ( 'NONE', #1185, #729, #308, .T. ) ;
#770 = FACE_BOUND ( 'NONE', #345, .T. ) ;
#771 = LINE ( 'NONE', #355, #1422 ) ;
#772 = CARTESIAN_POINT ( 'NONE',  ( 131.2700000000000102, 0.000000000000000000, -35.64999994400000105 ) ) ;
#773 = CARTESIAN_POINT ( 'NONE',  ( 133.9200000000000443, -103.1370950493710836, -42.69999994399984899 ) ) ;
#774 = ORIENTED_EDGE ( 'NONE', *, *, #622, .T. ) ;
#775 = FACE_OUTER_BOUND ( 'NONE', #683, .T. ) ;
#776 = ORIENTED_EDGE ( 'NONE', *, *, #1100, .F. ) ;
#777 = CARTESIAN_POINT ( 'NONE',  ( 118.3350000000000222, 7.700000000000000178, 12.69999999999999929 ) ) ;
#778 = VECTOR ( 'NONE', #460, 1000.000000000000000 ) ;
#779 = CIRCLE ( 'NONE', #412, 3.500000000000003109 ) ;
#780 = CARTESIAN_POINT ( 'NONE',  ( 131.2700000000000102, 12.69999999999999929, -35.64999994400000105 ) ) ;
#781 = EDGE_CURVE ( 'NONE', #81, #384, #104, .T. ) ;
#782 = AXIS2_PLACEMENT_3D ( 'NONE', #337, #7, #1342 ) ;
#783 = LINE ( 'NONE', #568, #830 ) ;
#784 = VECTOR ( 'NONE', #1182, 1000.000000000000000 ) ;
#785 = ORIENTED_EDGE ( 'NONE', *, *, #1376, .F. ) ;
#786 = CARTESIAN_POINT ( 'NONE',  ( 128.2699999999999818, 12.70000000000000284, -38.64999994399997973 ) ) ;
#787 = ORIENTED_EDGE ( 'NONE', *, *, #443, .T. ) ;
#788 = DIRECTION ( 'NONE',  ( 2.764071652032392369E-32, 1.000000000000000000, -9.474186095736432857E-17 ) ) ;
#789 = DIRECTION ( 'NONE',  ( 0.000000000000000000, 1.000000000000000000, -0.000000000000000000 ) ) ;
#790 = LINE ( 'NONE', #446, #143 ) ;
#791 = EDGE_CURVE ( 'NONE', #1095, #723, #664, .T. ) ;
#792 = ORIENTED_EDGE ( 'NONE', *, *, #810, .T. ) ;
#793 = CARTESIAN_POINT ( 'NONE',  ( 83.45999997199999143, 0.000000000000000000, -83.45999997199999143 ) ) ;
#794 = ORIENTED_EDGE ( 'NONE', *, *, #1327, .T. ) ;
#795 = CARTESIAN_POINT ( 'NONE',  ( 128.2699999999999818, 107.0585713622668180, 12.69999999999999929 ) ) ;
#796 = CARTESIAN_POINT ( 'NONE',  ( 133.9200000000001296, -54.54000007799999850, -80.79999994399987884 ) ) ;
#797 = CARTESIAN_POINT ( 'NONE',  ( -12.69999999999999218, 0.000000000000000000, -35.64999994400000105 ) ) ;
#798 = EDGE_CURVE ( 'NONE', #729, #867, #783, .T. ) ;
#799 = LINE ( 'NONE', #366, #1334 ) ;
#800 = ORIENTED_EDGE ( 'NONE', *, *, #1376, .T. ) ;
#801 = DIRECTION ( 'NONE',  ( 0.000000000000000000, -0.000000000000000000, 1.000000000000000000 ) ) ;
#802 = DIRECTION ( 'NONE',  ( 2.913971193241880372E-15, -1.821231995776175725E-16, -1.000000000000000000 ) ) ;
#803 = DIRECTION ( 'NONE',  ( -2.764071652032392369E-32, -1.000000000000000000, 1.821231995776175725E-16 ) ) ;
#804 = AXIS2_PLACEMENT_3D ( 'NONE', #21, #905, #1362 ) ;
#805 = LINE ( 'NONE', #1162, #432 ) ;
#806 = VECTOR ( 'NONE', #491, 1000.000000000000000 ) ;
#807 = AXIS2_PLACEMENT_3D ( 'NONE', #915, #250, #686 ) ;
#808 = VECTOR ( 'NONE', #380, 1000.000000000000000 ) ;
#809 = DIRECTION ( 'NONE',  ( -2.764071652032392369E-32, -1.000000000000000000, 0.000000000000000000 ) ) ;
#810 = EDGE_CURVE ( 'NONE', #384, #397, #222, .T. ) ;
#811 = VERTEX_POINT ( 'NONE', #1369 ) ;
#812 = CARTESIAN_POINT ( 'NONE',  ( 9.935000000000005826, 7.700000000000000178, 0.000000000000000000 ) ) ;
#813 = DIRECTION ( 'NONE',  ( -0.7071067811865434649, -1.287805494327251125E-16, -0.7071067811865516806 ) ) ;
#814 = DIRECTION ( 'NONE',  ( 0.000000000000000000, 0.000000000000000000, 1.000000000000000000 ) ) ;
#815 = DIRECTION ( 'NONE',  ( 0.000000000000000000, -0.7071067811865490160, 0.7071067811865460184 ) ) ;
#816 = LINE ( 'NONE', #157, #76 ) ;
#817 = ORIENTED_EDGE ( 'NONE', *, *, #418, .T. ) ;
#818 = CARTESIAN_POINT ( 'NONE',  ( 13.43500000000000583, 7.700000000000000178, 0.000000000000000000 ) ) ;
#819 = FACE_OUTER_BOUND ( 'NONE', #1323, .T. ) ;
#820 = CARTESIAN_POINT ( 'NONE',  ( 9.935000000000005826, 7.700000000000000178, -80.79999994400000674 ) ) ;
#821 = ORIENTED_EDGE ( 'NONE', *, *, #791, .F. ) ;
#822 = CARTESIAN_POINT ( 'NONE',  ( 140.9699999999999704, 0.000000000000000000, 5.650000000000026112 ) ) ;
#823 = CARTESIAN_POINT ( 'NONE',  ( -5.649999999999981704, -54.54000007799999850, -80.79999994400000674 ) ) ;
#824 = ORIENTED_EDGE ( 'NONE', *, *, #1006, .T. ) ;
#825 = LINE ( 'NONE', #1178, #712 ) ;
#826 = CARTESIAN_POINT ( 'NONE',  ( -12.06500000000000661, -54.54000007799999850, -58.74999994400000247 ) ) ;
#827 = VECTOR ( 'NONE', #995, 1000.000000000000000 ) ;
#828 = ADVANCED_FACE ( 'NONE', ( #578 ), #342, .T. ) ;
#829 = ORIENTED_EDGE ( 'NONE', *, *, #612, .F. ) ;
#830 = VECTOR ( 'NONE', #673, 1000.000000000000000 ) ;
#831 = CARTESIAN_POINT ( 'NONE',  ( 140.9699999999999704, 12.70000000000000284, -35.64999994399987315 ) ) ;
#832 = AXIS2_PLACEMENT_3D ( 'NONE', #795, #575, #1131 ) ;
#833 = AXIS2_PLACEMENT_3D ( 'NONE', #316, #661, #91 ) ;
#834 = ORIENTED_EDGE ( 'NONE', *, *, #1341, .T. ) ;
#835 = FACE_OUTER_BOUND ( 'NONE', #565, .T. ) ;
#836 = VECTOR ( 'NONE', #1136, 1000.000000000000000 ) ;
#837 = ORIENTED_EDGE ( 'NONE', *, *, #281, .F. ) ;
#838 = VERTEX_POINT ( 'NONE', #1133 ) ;
#839 = EDGE_CURVE ( 'NONE', #863, #1094, #896, .T. ) ;
#840 = DIRECTION ( 'NONE',  ( 0.000000000000000000, 1.000000000000000000, -0.000000000000000000 ) ) ;
#841 = CARTESIAN_POINT ( 'NONE',  ( 118.3350000000000222, 7.700000000000000178, -80.79999994400000674 ) ) ;
#842 = EDGE_LOOP ( 'NONE', ( #13, #178, #1246, #509, #1248, #419 ) ) ;
#843 = CARTESIAN_POINT ( 'NONE',  ( 145.9200000000001864, 12.70000000000000107, -42.69999994399996979 ) ) ;
#844 = ORIENTED_EDGE ( 'NONE', *, *, #322, .F. ) ;
#845 = CARTESIAN_POINT ( 'NONE',  ( 140.9699999999999704, 0.000000000000000000, 12.70000000000001883 ) ) ;
#846 = CARTESIAN_POINT ( 'NONE',  ( 140.3349999999999795, -54.54000007799999850, -58.74999994400000247 ) ) ;
#847 = ORIENTED_EDGE ( 'NONE', *, *, #873, .T. ) ;
#848 = EDGE_CURVE ( 'NONE', #311, #552, #1245, .T. ) ;
#849 = CARTESIAN_POINT ( 'NONE',  ( 0.000000000000000000, 12.69999999999999929, 0.000000000000000000 ) ) ;
#850 = ORIENTED_EDGE ( 'NONE', *, *, #218, .F. ) ;
#851 = EDGE_LOOP ( 'NONE', ( #409, #655, #1159, #463, #1358, #792 ) ) ;
#852 = DIRECTION ( 'NONE',  ( -0.7071067811865455743, -1.287805494327246688E-16, -0.7071067811865493491 ) ) ;
#853 = CLOSED_SHELL ( 'NONE', ( #1071, #585, #708, #195, #1173, #349, #297, #19, #255, #495, #1226, #1015, #352, #313, #828, #943, #401, #1234, #1393, #1319, #719, #656, #468, #292, #1037, #1027, #101, #1184, #1189, #963, #631, #1143, #504, #744, #607, #448, #1277, #11, #154, #968, #1401, #433 ) ) ;
#854 = APPROVAL_DATE_TIME ( #1417, #392 ) ;
#855 = CIRCLE ( 'NONE', #24, 3.499999999999999556 ) ;
#856 = ORIENTED_EDGE ( 'NONE', *, *, #810, .F. ) ;
#857 = VECTOR ( 'NONE', #579, 1000.000000000000000 ) ;
#858 = EDGE_CURVE ( 'NONE', #588, #1088, #351, .T. ) ;
#859 = FACE_OUTER_BOUND ( 'NONE', #41, .T. ) ;
#860 = EDGE_LOOP ( 'NONE', ( #348, #458, #1199, #1092 ) ) ;
#861 = ORIENTED_EDGE ( 'NONE', *, *, #593, .F. ) ;
#862 = CARTESIAN_POINT ( 'NONE',  ( 0.000000000000000000, 0.000000000000000000, 12.69999999999999929 ) ) ;
#863 = VERTEX_POINT ( 'NONE', #668 ) ;
#864 = LINE ( 'NONE', #1427, #300 ) ;
#865 = EDGE_LOOP ( 'NONE', ( #1340, #220, #1066, #721, #628, #1395 ) ) ;
#866 = EDGE_CURVE ( 'NONE', #557, #278, #1140, .T. ) ;
#867 = VERTEX_POINT ( 'NONE', #1257 ) ;
#868 = CARTESIAN_POINT ( 'NONE',  ( -5.649999999999981704, 5.650000000000029665, -80.79999994400000674 ) ) ;
#869 = EDGE_LOOP ( 'NONE', ( #406, #874, #745, #640 ) ) ;
#870 = PLANE ( 'NONE',  #1400 ) ;
#871 = CARTESIAN_POINT ( 'NONE',  ( -4.918484193641022649E-16, 103.1042856531332035, 16.65428570913359252 ) ) ;
#872 = CARTESIAN_POINT ( 'NONE',  ( -24.69999999999998508, -54.54000007799999850, -80.79999994400000674 ) ) ;
#873 = EDGE_CURVE ( 'NONE', #275, #1088, #133, .T. ) ;
#874 = ORIENTED_EDGE ( 'NONE', *, *, #922, .T. ) ;
#875 = VECTOR ( 'NONE', #424, 1000.000000000000000 ) ;
#876 = AXIS2_PLACEMENT_3D ( 'NONE', #715, #165, #67 ) ;
#877 = DIRECTION ( 'NONE',  ( 1.000000000000000000, 0.000000000000000000, 0.000000000000000000 ) ) ;
#878 = VERTEX_POINT ( 'NONE', #1031 ) ;
#879 = AXIS2_PLACEMENT_3D ( 'NONE', #267, #1016, #1384 ) ;
#880 = LINE ( 'NONE', #125, #1238 ) ;
#881 = DIRECTION ( 'NONE',  ( -0.7071067811865489050, 1.287805494327241264E-16, 0.7071067811865462405 ) ) ;
#882 = CC_DESIGN_PERSON_AND_ORGANIZATION_ASSIGNMENT ( #541, #328, ( #302 ) ) ;
#883 = VERTEX_POINT ( 'NONE', #452 ) ;
#884 = CARTESIAN_POINT ( 'NONE',  ( -12.69999999999999751, 12.70000000000000284, 5.649999999999942624 ) ) ;
#885 = ORIENTED_EDGE ( 'NONE', *, *, #213, .T. ) ;
#886 = CARTESIAN_POINT ( 'NONE',  ( -17.64999999999999858, -60.54000007799999139, -42.69999994399998400 ) ) ;
#887 = LINE ( 'NONE', #1235, #2 ) ;
#888 = CARTESIAN_POINT ( 'NONE',  ( -2.999999999999975131, -60.54000007799999139, 0.000000000000000000 ) ) ;
#889 = SECURITY_CLASSIFICATION_LEVEL ( 'unclassified' ) ;
#890 = ORIENTED_EDGE ( 'NONE', *, *, #161, .F. ) ;
#891 = CARTESIAN_POINT ( 'NONE',  ( 140.3349999999999795, -60.54000007799999139, -58.74999994400000247 ) ) ;
#892 = EDGE_CURVE ( 'NONE', #94, #84, #10, .T. ) ;
#893 = ORIENTED_EDGE ( 'NONE', *, *, #1363, .T. ) ;
#894 = DIRECTION ( 'NONE',  ( -2.913971193241881161E-15, 1.821231995776175725E-16, 1.000000000000000000 ) ) ;
#895 = CARTESIAN_POINT ( 'NONE',  ( 152.9700000000000557, -54.54000007799999139, -42.69999994399980636 ) ) ;
#896 = LINE ( 'NONE', #1250, #1077 ) ;
#897 = ORIENTED_EDGE ( 'NONE', *, *, #29, .F. ) ;
#898 = FACE_OUTER_BOUND ( 'NONE', #851, .T. ) ;
#899 = ORIENTED_EDGE ( 'NONE', *, *, #902, .F. ) ;
#900 = LINE ( 'NONE', #1359, #74 ) ;
#901 = AXIS2_PLACEMENT_3D ( 'NONE', #1394, #382, #264 ) ;
#902 = EDGE_CURVE ( 'NONE', #961, #496, #790, .T. ) ;
#903 = PRODUCT_DEFINITION_SHAPE ( 'NONE', 'NONE',  #647 ) ;
#904 = VECTOR ( 'NONE', #497, 1000.000000000000114 ) ;
#905 = DIRECTION ( 'NONE',  ( 1.000000000000000000, 0.000000000000000000, 0.000000000000000000 ) ) ;
#906 = VECTOR ( 'NONE', #32, 1000.000000000000000 ) ;
#907 = LINE ( 'NONE', #126, #1052 ) ;
#908 =( GEOMETRIC_REPRESENTATION_CONTEXT ( 3 ) GLOBAL_UNCERTAINTY_ASSIGNED_CONTEXT ( ( #532 ) ) GLOBAL_UNIT_ASSIGNED_CONTEXT ( ( #1196, #949, #512 ) ) REPRESENTATION_CONTEXT ( 'NONE', 'WORKASPACE' ) );
#909 = ORIENTED_EDGE ( 'NONE', *, *, #340, .T. ) ;
#910 = CARTESIAN_POINT ( 'NONE',  ( -5.649999999999970157, 0.000000000000000000, 12.69999999999999929 ) ) ;
#911 = VERTEX_POINT ( 'NONE', #561 ) ;
#912 = CARTESIAN_POINT ( 'NONE',  ( 140.3349999999999795, -60.54000007799999139, -61.74999994399999537 ) ) ;
#913 = EDGE_CURVE ( 'NONE', #278, #311, #22, .T. ) ;
#914 = LINE ( 'NONE', #599, #410 ) ;
#915 = CARTESIAN_POINT ( 'NONE',  ( 140.9699999999999704, 107.0585713622668180, 12.70000000000001883 ) ) ;
#916 = EDGE_CURVE ( 'NONE', #268, #311, #907, .T. ) ;
#917 = DIRECTION ( 'NONE',  ( 0.7071067811865489050, -1.287805494327241264E-16, -0.7071067811865462405 ) ) ;
#918 = EDGE_LOOP ( 'NONE', ( #134, #1014 ) ) ;
#919 = DIRECTION ( 'NONE',  ( 0.000000000000000000, 1.000000000000000000, 0.000000000000000000 ) ) ;
#920 = CARTESIAN_POINT ( 'NONE',  ( 152.9700000000000841, -54.54000007799998428, -49.74999994399981773 ) ) ;
#921 = CARTESIAN_POINT ( 'NONE',  ( 118.3350000000000222, 7.700000000000000178, 12.69999999999999929 ) ) ;
#922 = EDGE_CURVE ( 'NONE', #811, #692, #1118, .T. ) ;
#923 = CARTESIAN_POINT ( 'NONE',  ( -24.69999999999998508, 52.64508730745252763, -73.74999994399996694 ) ) ;
#924 = ORIENTED_EDGE ( 'NONE', *, *, #423, .T. ) ;
#925 = CARTESIAN_POINT ( 'NONE',  ( 133.9200000000001296, -54.54000007799999850, -80.79999994399986463 ) ) ;
#926 = CARTESIAN_POINT ( 'NONE',  ( -12.69999999999999751, 12.70000000000000284, 5.649999999999942624 ) ) ;
#927 = AXIS2_PLACEMENT_3D ( 'NONE', #325, #1249, #103 ) ;
#928 = PLANE ( 'NONE',  #548 ) ;
#929 = AXIS2_PLACEMENT_3D ( 'NONE', #1223, #803, #194 ) ;
#930 = AXIS2_PLACEMENT_3D ( 'NONE', #1335, #749, #444 ) ;
#931 = CYLINDRICAL_SURFACE ( 'NONE', #1193, 3.500000000000003109 ) ;
#932 = EDGE_CURVE ( 'NONE', #1171, #1437, #462, .T. ) ;
#933 = PLANE ( 'NONE',  #980 ) ;
#934 = ORIENTED_EDGE ( 'NONE', *, *, #418, .F. ) ;
#935 = CARTESIAN_POINT ( 'NONE',  ( -17.64999999999994174, -60.54000007799999850, -80.79999994399999252 ) ) ;
#936 = CARTESIAN_POINT ( 'NONE',  ( -24.69999999999998508, -60.54000007799999139, -42.69999994399998400 ) ) ;
#937 = LINE ( 'NONE', #155, #1360 ) ;
#938 = ORIENTED_EDGE ( 'NONE', *, *, #1163, .F. ) ;
#939 = CARTESIAN_POINT ( 'NONE',  ( 9.935000000000005826, 7.700000000000000178, 12.69999999999999929 ) ) ;
#940 = LINE ( 'NONE', #1281, #808 ) ;
#941 = ORIENTED_EDGE ( 'NONE', *, *, #1127, .F. ) ;
#942 = DIRECTION ( 'NONE',  ( 0.000000000000000000, 1.000000000000000000, 0.000000000000000000 ) ) ;
#943 = ADVANCED_FACE ( 'NONE', ( #38 ), #1353, .T. ) ;
#944 = ORIENTED_EDGE ( 'NONE', *, *, #1304, .F. ) ;
#945 = CARTESIAN_POINT ( 'NONE',  ( 223.5272989591195483, -54.54000007799999139, -42.69999994399994847 ) ) ;
#946 = LINE ( 'NONE', #514, #167 ) ;
#947 = ORIENTED_EDGE ( 'NONE', *, *, #288, .T. ) ;
#948 = CARTESIAN_POINT ( 'NONE',  ( -5.649999999999970157, 0.000000000000000000, 12.69999999999999929 ) ) ;
#949 =( NAMED_UNIT ( * ) PLANE_ANGLE_UNIT ( ) SI_UNIT ( $, .RADIAN. ) );
#950 = ORIENTED_EDGE ( 'NONE', *, *, #3, .T. ) ;
#951 = CARTESIAN_POINT ( 'NONE',  ( 145.9200000000001864, -60.54000007799999139, -42.69999994399996268 ) ) ;
#952 = EDGE_CURVE ( 'NONE', #878, #1260, #1150, .T. ) ;
#953 = ORIENTED_EDGE ( 'NONE', *, *, #271, .T. ) ;
#954 = VECTOR ( 'NONE', #333, 1000.000000000000000 ) ;
#955 = CARTESIAN_POINT ( 'NONE',  ( 1.162986960622940093E-14, 5.650000000000029665, -80.79999994400000674 ) ) ;
#956 = VECTOR ( 'NONE', #116, 1000.000000000000000 ) ;
#957 = APPROVAL_STATUS ( 'not_yet_approved' ) ;
#958 = ORIENTED_EDGE ( 'NONE', *, *, #603, .F. ) ;
#959 = DIRECTION ( 'NONE',  ( 1.000000000000000000, 0.000000000000000000, 1.517693329813479566E-16 ) ) ;
#960 = EDGE_CURVE ( 'NONE', #961, #1365, #335, .T. ) ;
#961 = VERTEX_POINT ( 'NONE', #555 ) ;
#962 = DIRECTION ( 'NONE',  ( -0.7071067811865489050, 0.000000000000000000, 0.7071067811865461294 ) ) ;
#963 = ADVANCED_FACE ( 'NONE', ( #16 ), #489, .F. ) ;
#964 = DIRECTION ( 'NONE',  ( -1.000000000000000000, 2.764071652032392369E-32, -5.034015731299306107E-48 ) ) ;
#965 = ORIENTED_EDGE ( 'NONE', *, *, #202, .F. ) ;
#966 = CARTESIAN_POINT ( 'NONE',  ( 128.2699999999999818, 107.0585713622668180, -38.64999994399999395 ) ) ;
#967 = LINE ( 'NONE', #862, #1262 ) ;
#968 = ADVANCED_FACE ( 'NONE', ( #695 ), #1042, .T. ) ;
#969 = APPROVAL_ROLE ( '' ) ;
#970 = ORIENTED_EDGE ( 'NONE', *, *, #1363, .F. ) ;
#971 = CARTESIAN_POINT ( 'NONE',  ( 1.075296499903128451E-14, 12.70000000000000284, -73.74999994399999537 ) ) ;
#972 = ORIENTED_EDGE ( 'NONE', *, *, #1208, .F. ) ;
#973 = ORIENTED_EDGE ( 'NONE', *, *, #858, .F. ) ;
#974 = DIRECTION ( 'NONE',  ( -0.000000000000000000, 1.000000000000000000, -0.000000000000000000 ) ) ;
#975 = VECTOR ( 'NONE', #376, 1000.000000000000114 ) ;
#976 = COORDINATED_UNIVERSAL_TIME_OFFSET ( 5, 0, .BEHIND. ) ;
#977 = AXIS2_PLACEMENT_3D ( 'NONE', #471, #619, #959 ) ;
#978 = EDGE_CURVE ( 'NONE', #63, #305, #937, .T. ) ;
#979 = ORIENTED_EDGE ( 'NONE', *, *, #358, .F. ) ;
#980 = AXIS2_PLACEMENT_3D ( 'NONE', #449, #254, #1259 ) ;
#981 = DIRECTION ( 'NONE',  ( 0.000000000000000000, 0.000000000000000000, -1.000000000000000000 ) ) ;
#982 = ORIENTED_EDGE ( 'NONE', *, *, #484, .F. ) ;
#983 = VECTOR ( 'NONE', #809, 1000.000000000000000 ) ;
#984 = ORIENTED_EDGE ( 'NONE', *, *, #763, .T. ) ;
#985 = CARTESIAN_POINT ( 'NONE',  ( 133.9200000000001296, -103.1370950493710836, -80.79999994399986463 ) ) ;
#986 = ORIENTED_EDGE ( 'NONE', *, *, #1154, .T. ) ;
#987 = CARTESIAN_POINT ( 'NONE',  ( 0.000000000000000000, 12.69999999999999929, 12.69999999999999929 ) ) ;
#988 = EDGE_CURVE ( 'NONE', #1295, #961, #805, .T. ) ;
#989 = LINE ( 'NONE', #895, #251 ) ;
#990 = DIRECTION ( 'NONE',  ( 1.000000000000000000, 0.000000000000000000, 0.000000000000000000 ) ) ;
#991 = VERTEX_POINT ( 'NONE', #62 ) ;
#992 = DIRECTION ( 'NONE',  ( 0.000000000000000000, -1.000000000000000000, 0.000000000000000000 ) ) ;
#993 = ORIENTED_EDGE ( 'NONE', *, *, #1181, .F. ) ;
#994 = EDGE_CURVE ( 'NONE', #397, #1333, #946, .T. ) ;
#995 = DIRECTION ( 'NONE',  ( -1.000000000000000000, -0.000000000000000000, -0.000000000000000000 ) ) ;
#996 = DIRECTION ( 'NONE',  ( -0.000000000000000000, 1.000000000000000000, -0.000000000000000000 ) ) ;
#997 = APPROVAL_ROLE ( '' ) ;
#998 = ORIENTED_EDGE ( 'NONE', *, *, #1100, .T. ) ;
#999 = AXIS2_PLACEMENT_3D ( 'NONE', #208, #672, #533 ) ;
#1000 = AXIS2_PLACEMENT_3D ( 'NONE', #939, #176, #287 ) ;
#1001 = DIRECTION ( 'NONE',  ( -2.764071652032392369E-32, -1.000000000000000000, 9.474186095736432857E-17 ) ) ;
#1002 = ORIENTED_EDGE ( 'NONE', *, *, #329, .F. ) ;
#1003 = AXIS2_PLACEMENT_3D ( 'NONE', #1085, #720, #616 ) ;
#1004 = CARTESIAN_POINT ( 'NONE',  ( -12.06500000000000661, -60.54000007799999139, -58.74999994400000247 ) ) ;
#1005 = DIRECTION ( 'NONE',  ( -0.000000000000000000, 1.000000000000000000, -0.000000000000000000 ) ) ;
#1006 = EDGE_CURVE ( 'NONE', #1061, #643, #403, .T. ) ;
#1007 = CALENDAR_DATE ( 2026, 26, 5 ) ;
#1008 = EDGE_LOOP ( 'NONE', ( #605, #1099, #261, #736 ) ) ;
#1009 = CARTESIAN_POINT ( 'NONE',  ( -5.649999999999978151, -54.54000007799999139, -42.69999994399999821 ) ) ;
#1010 = LINE ( 'NONE', #1261, #1399 ) ;
#1011 = LINE ( 'NONE', #1110, #1191 ) ;
#1012 = DIRECTION ( 'NONE',  ( 1.000000000000000000, -0.000000000000000000, 1.517693329813479566E-16 ) ) ;
#1013 = PLANE ( 'NONE',  #929 ) ;
#1014 = ORIENTED_EDGE ( 'NONE', *, *, #1117, .T. ) ;
#1015 = ADVANCED_FACE ( 'NONE', ( #160, #377, #735 ), #928, .F. ) ;
#1016 = DIRECTION ( 'NONE',  ( -0.7071067811865475727, 0.000000000000000000, 0.7071067811865475727 ) ) ;
#1017 = ORIENTED_EDGE ( 'NONE', *, *, #1064, .T. ) ;
#1018 = PLANE ( 'NONE',  #832 ) ;
#1019 = LINE ( 'NONE', #9, #1307 ) ;
#1020 = CARTESIAN_POINT ( 'NONE',  ( 1.162986960622940093E-14, 107.0585713622668180, -80.79999994400000674 ) ) ;
#1021 = VERTEX_POINT ( 'NONE', #258 ) ;
#1022 = CARTESIAN_POINT ( 'NONE',  ( 6.435000000000006715, 7.700000000000000178, 0.000000000000000000 ) ) ;
#1023 = CIRCLE ( 'NONE', #1329, 2.999999999999995559 ) ;
#1024 = EDGE_LOOP ( 'NONE', ( #821, #562, #417, #944 ) ) ;
#1025 = CARTESIAN_POINT ( 'NONE',  ( 0.000000000000000000, 0.000000000000000000, 0.000000000000000000 ) ) ;
#1026 = AXIS2_PLACEMENT_3D ( 'NONE', #912, #1145, #581 ) ;
#1027 = ADVANCED_FACE ( 'NONE', ( #1060 ), #1413, .F. ) ;
#1028 = AXIS2_PLACEMENT_3D ( 'NONE', #1113, #233, #324 ) ;
#1029 = FACE_OUTER_BOUND ( 'NONE', #842, .T. ) ;
#1030 = VECTOR ( 'NONE', #85, 1000.000000000000114 ) ;
#1031 = CARTESIAN_POINT ( 'NONE',  ( 152.9700000000000841, -54.54000007799999139, -49.74999994399981773 ) ) ;
#1032 = ORIENTED_EDGE ( 'NONE', *, *, #358, .T. ) ;
#1033 = CARTESIAN_POINT ( 'NONE',  ( 152.9700000000000557, 52.64508730745252763, -42.69999994399981347 ) ) ;
#1034 = EDGE_LOOP ( 'NONE', ( #317, #1120, #1130, #1197, #82, #479 ) ) ;
#1035 = PLANE ( 'NONE',  #524 ) ;
#1036 = CARTESIAN_POINT ( 'NONE',  ( 152.9700000000001694, -54.54000007799999850, -80.79999994399982199 ) ) ;
#1037 = ADVANCED_FACE ( 'NONE', ( #1087 ), #44, .F. ) ;
#1038 = DIRECTION ( 'NONE',  ( -0.000000000000000000, 0.000000000000000000, -1.000000000000000000 ) ) ;
#1039 = FACE_OUTER_BOUND ( 'NONE', #727, .T. ) ;
#1040 = ORIENTED_EDGE ( 'NONE', *, *, #1341, .F. ) ;
#1041 = DIRECTION ( 'NONE',  ( -2.764071652032392369E-32, -1.000000000000000000, 1.821231995776175725E-16 ) ) ;
#1042 = PLANE ( 'NONE',  #1101 ) ;
#1043 = EDGE_CURVE ( 'NONE', #610, #315, #1278, .T. ) ;
#1044 = CARTESIAN_POINT ( 'NONE',  ( 223.5272989591195483, -60.54000007799999139, -42.69999994399994847 ) ) ;
#1045 = PLANE ( 'NONE',  #879 ) ;
#1046 = ORIENTED_EDGE ( 'NONE', *, *, #978, .F. ) ;
#1047 = LINE ( 'NONE', #59, #387 ) ;
#1048 = DIRECTION ( 'NONE',  ( 0.000000000000000000, 1.000000000000000000, -0.000000000000000000 ) ) ;
#1049 = VECTOR ( 'NONE', #1105, 1000.000000000000000 ) ;
#1050 = CARTESIAN_POINT ( 'NONE',  ( 133.9199999999999875, 0.000000000000000000, 12.69999999999999929 ) ) ;
#1051 = AXIS2_PLACEMENT_3D ( 'NONE', #955, #815, #1403 ) ;
#1052 = VECTOR ( 'NONE', #326, 1000.000000000000000 ) ;
#1053 = LINE ( 'NONE', #948, #185 ) ;
#1054 = VECTOR ( 'NONE', #1303, 1000.000000000000000 ) ;
#1055 = EDGE_CURVE ( 'NONE', #1260, #426, #1169, .T. ) ;
#1056 = CARTESIAN_POINT ( 'NONE',  ( 128.2699999999999818, 12.70000000000000284, -73.74999994399999537 ) ) ;
#1057 = EDGE_LOOP ( 'NONE', ( #824, #193, #1112, #456, #17, #128, #601 ) ) ;
#1058 = ORIENTED_EDGE ( 'NONE', *, *, #1370, .F. ) ;
#1059 = CARTESIAN_POINT ( 'NONE',  ( -5.649999999999978151, 0.000000000000000000, -42.69999994399999821 ) ) ;
#1060 = FACE_OUTER_BOUND ( 'NONE', #714, .T. ) ;
#1061 = VERTEX_POINT ( 'NONE', #971 ) ;
#1062 = DIRECTION ( 'NONE',  ( -0.000000000000000000, 1.000000000000000000, 0.000000000000000000 ) ) ;
#1063 = CYLINDRICAL_SURFACE ( 'NONE', #1175, 3.500000000000003109 ) ;
#1064 = EDGE_CURVE ( 'NONE', #1428, #1171, #411, .T. ) ;
#1065 = ORIENTED_EDGE ( 'NONE', *, *, #550, .T. ) ;
#1066 = ORIENTED_EDGE ( 'NONE', *, *, #520, .F. ) ;
#1067 = FACE_OUTER_BOUND ( 'NONE', #1288, .T. ) ;
#1068 = PERSON_AND_ORGANIZATION ( #1151, #689 ) ;
#1069 = VERTEX_POINT ( 'NONE', #1050 ) ;
#1070 = LINE ( 'NONE', #843, #230 ) ;
#1071 = ADVANCED_FACE ( 'NONE', ( #859 ), #54, .F. ) ;
#1072 = EDGE_CURVE ( 'NONE', #388, #305, #279, .T. ) ;
#1073 = VECTOR ( 'NONE', #115, 1000.000000000000000 ) ;
#1074 = ORIENTED_EDGE ( 'NONE', *, *, #952, .T. ) ;
#1075 = VECTOR ( 'NONE', #64, 1000.000000000000000 ) ;
#1076 = DIRECTION ( 'NONE',  ( -0.000000000000000000, -0.000000000000000000, 1.000000000000000000 ) ) ;
#1077 = VECTOR ( 'NONE', #881, 1000.000000000000000 ) ;
#1078 = VECTOR ( 'NONE', #396, 1000.000000000000000 ) ;
#1079 = APPLICATION_PROTOCOL_DEFINITION ( 'international standard', 'config_control_design', 1994, #327 ) ;
#1080 = ORIENTED_EDGE ( 'NONE', *, *, #665, .T. ) ;
#1081 = CARTESIAN_POINT ( 'NONE',  ( -5.649999999999981704, -103.1370950493710836, -80.79999994400000674 ) ) ;
#1082 = EDGE_CURVE ( 'NONE', #1094, #580, #600, .T. ) ;
#1083 = ORIENTED_EDGE ( 'NONE', *, *, #781, .T. ) ;
#1084 = CARTESIAN_POINT ( 'NONE',  ( 6.662996705890963369E-15, 12.69999999999999929, -38.64999994399996552 ) ) ;
#1085 = CARTESIAN_POINT ( 'NONE',  ( 0.000000000000000000, 0.000000000000000000, 0.000000000000000000 ) ) ;
#1086 = ORIENTED_EDGE ( 'NONE', *, *, #858, .T. ) ;
#1087 = FACE_OUTER_BOUND ( 'NONE', #113, .T. ) ;
#1088 = VERTEX_POINT ( 'NONE', #467 ) ;
#1089 = ORIENTED_EDGE ( 'NONE', *, *, #332, .T. ) ;
#1090 = EDGE_CURVE ( 'NONE', #1135, #1021, #455, .T. ) ;
#1091 = CARTESIAN_POINT ( 'NONE',  ( -2.999999999999975131, 12.69999999999999929, 0.000000000000000000 ) ) ;
#1092 = ORIENTED_EDGE ( 'NONE', *, *, #135, .T. ) ;
#1093 = DIRECTION ( 'NONE',  ( 0.000000000000000000, 1.821231995776175725E-16, 1.000000000000000000 ) ) ;
#1094 = VERTEX_POINT ( 'NONE', #1232 ) ;
#1095 = VERTEX_POINT ( 'NONE', #1123 ) ;
#1096 = DIRECTION ( 'NONE',  ( 0.000000000000000000, 0.000000000000000000, 1.000000000000000000 ) ) ;
#1097 = VECTOR ( 'NONE', #894, 1000.000000000000000 ) ;
#1098 = VECTOR ( 'NONE', #606, 1000.000000000000000 ) ;
#1099 = ORIENTED_EDGE ( 'NONE', *, *, #1108, .T. ) ;
#1100 = EDGE_CURVE ( 'NONE', #241, #1407, #320, .T. ) ;
#1101 = AXIS2_PLACEMENT_3D ( 'NONE', #1156, #701, #371 ) ;
#1102 = DIRECTION ( 'NONE',  ( -0.000000000000000000, 1.000000000000000000, 0.000000000000000000 ) ) ;
#1103 = ORIENTED_EDGE ( 'NONE', *, *, #1215, .F. ) ;
#1104 = CC_DESIGN_APPROVAL ( #392, ( #647 ) ) ;
#1105 = DIRECTION ( 'NONE',  ( 0.000000000000000000, 0.000000000000000000, -1.000000000000000000 ) ) ;
#1106 = CARTESIAN_POINT ( 'NONE',  ( 140.3349999999999795, -60.54000007799999139, -64.74999994399999537 ) ) ;
#1107 = ORIENTED_EDGE ( 'NONE', *, *, #408, .T. ) ;
#1108 = EDGE_CURVE ( 'NONE', #204, #293, #553, .T. ) ;
#1109 = DIRECTION ( 'NONE',  ( 0.7071067811865494601, -6.699261234518517508E-17, -0.7071067811865456854 ) ) ;
#1110 = CARTESIAN_POINT ( 'NONE',  ( -12.06500000000000661, -60.54000007799999139, -64.74999994399999537 ) ) ;
#1111 = CARTESIAN_POINT ( 'NONE',  ( 118.3350000000000222, 7.700000000000000178, 0.000000000000000000 ) ) ;
#1112 = ORIENTED_EDGE ( 'NONE', *, *, #848, .F. ) ;
#1113 = CARTESIAN_POINT ( 'NONE',  ( 1.162986960622940093E-14, 5.650000000000029665, -80.79999994400000674 ) ) ;
#1114 = ORIENTED_EDGE ( 'NONE', *, *, #839, .T. ) ;
#1115 = CC_DESIGN_PERSON_AND_ORGANIZATION_ASSIGNMENT ( #110, #1230, ( #647 ) ) ;
#1116 = DIRECTION ( 'NONE',  ( 1.000000000000000000, 3.703856013723404483E-31, 2.185478394931409391E-15 ) ) ;
#1117 = EDGE_CURVE ( 'NONE', #171, #63, #391, .T. ) ;
#1118 = LINE ( 'NONE', #888, #620 ) ;
#1119 = COORDINATED_UNIVERSAL_TIME_OFFSET ( 5, 0, .BEHIND. ) ;
#1120 = ORIENTED_EDGE ( 'NONE', *, *, #36, .T. ) ;
#1121 = AXIS2_PLACEMENT_3D ( 'NONE', #356, #699, #1167 ) ;
#1122 = AXIS2_PLACEMENT_3D ( 'NONE', #812, #1398, #1268 ) ;
#1123 = CARTESIAN_POINT ( 'NONE',  ( 114.8350000000000222, 7.700000000000000178, 0.000000000000000000 ) ) ;
#1124 = AXIS2_PLACEMENT_3D ( 'NONE', #34, #151, #240 ) ;
#1125 = CARTESIAN_POINT ( 'NONE',  ( -5.649999999999978151, 12.69999999999999929, -42.69999994399999821 ) ) ;
#1126 = CARTESIAN_POINT ( 'NONE',  ( -5.649999999999981704, -54.54000007799999850, -80.79999994400002095 ) ) ;
#1127 = EDGE_CURVE ( 'NONE', #1069, #838, #864, .T. ) ;
#1128 = ORIENTED_EDGE ( 'NONE', *, *, #36, .F. ) ;
#1129 = CARTESIAN_POINT ( 'NONE',  ( -12.69999999999999929, 0.000000000000000000, 12.69999999999999751 ) ) ;
#1130 = ORIENTED_EDGE ( 'NONE', *, *, #665, .F. ) ;
#1131 = DIRECTION ( 'NONE',  ( -0.000000000000000000, 0.000000000000000000, 1.000000000000000000 ) ) ;
#1132 = LINE ( 'NONE', #451, #875 ) ;
#1133 = CARTESIAN_POINT ( 'NONE',  ( 133.9199999999999875, 12.69999999999999929, 12.69999999999999929 ) ) ;
#1134 = CC_DESIGN_PERSON_AND_ORGANIZATION_ASSIGNMENT ( #12, #767, ( #302 ) ) ;
#1135 = VERTEX_POINT ( 'NONE', #531 ) ;
#1136 = DIRECTION ( 'NONE',  ( -1.000000000000000000, 0.000000000000000000, -1.517693329813479566E-16 ) ) ;
#1137 = ORIENTED_EDGE ( 'NONE', *, *, #564, .F. ) ;
#1138 = CARTESIAN_POINT ( 'NONE',  ( 145.9199999999999307, -60.54000007799999850, -80.79999994399996410 ) ) ;
#1139 = CARTESIAN_POINT ( 'NONE',  ( 140.3349999999999795, -54.54000007799999850, -64.74999994399999537 ) ) ;
#1140 = LINE ( 'NONE', #797, #525 ) ;
#1141 = ORIENTED_EDGE ( 'NONE', *, *, #329, .T. ) ;
#1142 = DIRECTION ( 'NONE',  ( 0.000000000000000000, -1.000000000000000000, 0.000000000000000000 ) ) ;
#1143 = ADVANCED_FACE ( 'NONE', ( #1433 ), #639, .F. ) ;
#1144 = ORIENTED_EDGE ( 'NONE', *, *, #1331, .F. ) ;
#1145 = DIRECTION ( 'NONE',  ( 0.000000000000000000, 1.000000000000000000, -0.000000000000000000 ) ) ;
#1146 = AXIS2_PLACEMENT_3D ( 'NONE', #482, #1410, #1062 ) ;
#1147 = VECTOR ( 'NONE', #992, 1000.000000000000000 ) ;
#1148 = PLANE ( 'NONE',  #229 ) ;
#1149 = LOCAL_TIME ( 12, 16, 56.00000000000000000, #1119 ) ;
#1150 = LINE ( 'NONE', #150, #757 ) ;
#1151 = PERSON ( 'UNSPECIFIED', 'UNSPECIFIED', 'UNSPECIFIED', ('UNSPECIFIED'), ('UNSPECIFIED'), ('UNSPECIFIED') ) ;
#1152 = CARTESIAN_POINT ( 'NONE',  ( 152.9700000000000841, -60.54000007799999139, -49.74999994399981773 ) ) ;
#1153 = DIRECTION ( 'NONE',  ( 1.000000000000000000, 0.000000000000000000, 0.000000000000000000 ) ) ;
#1154 = EDGE_CURVE ( 'NONE', #402, #838, #670, .T. ) ;
#1155 = FACE_OUTER_BOUND ( 'NONE', #709, .T. ) ;
#1156 = CARTESIAN_POINT ( 'NONE',  ( -19.32499997199998276, -60.54000007799999139, -19.32499997199998276 ) ) ;
#1157 = DIRECTION ( 'NONE',  ( 1.000000000000000000, 0.000000000000000000, 0.000000000000000000 ) ) ;
#1158 = LINE ( 'NONE', #1391, #188 ) ;
#1159 = ORIENTED_EDGE ( 'NONE', *, *, #1331, .T. ) ;
#1160 = DIRECTION ( 'NONE',  ( -0.7071067811865462405, 0.000000000000000000, -0.7071067811865489050 ) ) ;
#1161 = LINE ( 'NONE', #257, #663 ) ;
#1162 = CARTESIAN_POINT ( 'NONE',  ( 133.9200000000000443, -103.1370950493710836, -42.69999994399984899 ) ) ;
#1163 = EDGE_CURVE ( 'NONE', #437, #552, #422, .T. ) ;
#1164 = CARTESIAN_POINT ( 'NONE',  ( -5.649999999999981704, -103.1370950493710836, -80.79999994400000674 ) ) ;
#1165 = VERTEX_POINT ( 'NONE', #654 ) ;
#1166 = LINE ( 'NONE', #698, #569 ) ;
#1167 = DIRECTION ( 'NONE',  ( 0.000000000000000000, 0.000000000000000000, 1.000000000000000000 ) ) ;
#1168 = CIRCLE ( 'NONE', #545, 2.999999999999995559 ) ;
#1169 = LINE ( 'NONE', #591, #1030 ) ;
#1170 = AXIS2_PLACEMENT_3D ( 'NONE', #1436, #1194, #1321 ) ;
#1171 = VERTEX_POINT ( 'NONE', #1009 ) ;
#1172 = AXIS2_PLACEMENT_3D ( 'NONE', #306, #707, #743 ) ;
#1173 = ADVANCED_FACE ( 'NONE', ( #764 ), #870, .T. ) ;
#1174 = CARTESIAN_POINT ( 'NONE',  ( 6.387099507874695994E-15, 0.000000000000000000, -38.64999994399995131 ) ) ;
#1175 = AXIS2_PLACEMENT_3D ( 'NONE', #841, #57, #725 ) ;
#1176 = CARTESIAN_POINT ( 'NONE',  ( 140.3349999999999795, -60.54000007799999139, -58.74999994400000247 ) ) ;
#1177 = VERTEX_POINT ( 'NONE', #1210 ) ;
#1178 = CARTESIAN_POINT ( 'NONE',  ( -2.999999999999975131, 0.000000000000000000, 0.000000000000000000 ) ) ;
#1179 = VERTEX_POINT ( 'NONE', #14 ) ;
#1180 = DIRECTION ( 'NONE',  ( 0.000000000000000000, -1.000000000000000000, 0.000000000000000000 ) ) ;
#1181 = EDGE_CURVE ( 'NONE', #1301, #1365, #219, .T. ) ;
#1182 = DIRECTION ( 'NONE',  ( -1.000000000000000000, 0.000000000000000000, 0.000000000000000000 ) ) ;
#1183 = ORIENTED_EDGE ( 'NONE', *, *, #29, .T. ) ;
#1184 = ADVANCED_FACE ( 'NONE', ( #225 ), #438, .F. ) ;
#1185 = VERTEX_POINT ( 'NONE', #205 ) ;
#1186 = LINE ( 'NONE', #822, #95 ) ;
#1187 = LINE ( 'NONE', #1411, #1312 ) ;
#1188 = EDGE_LOOP ( 'NONE', ( #762, #1141 ) ) ;
#1189 = ADVANCED_FACE ( 'NONE', ( #100 ), #1219, .F. ) ;
#1190 = VERTEX_POINT ( 'NONE', #891 ) ;
#1191 = VECTOR ( 'NONE', #554, 1000.000000000000000 ) ;
#1192 = ORIENTED_EDGE ( 'NONE', *, *, #922, .F. ) ;
#1193 = AXIS2_PLACEMENT_3D ( 'NONE', #385, #1297, #1157 ) ;
#1194 = DIRECTION ( 'NONE',  ( -2.764071652032392369E-32, -1.000000000000000000, 1.821231995776175725E-16 ) ) ;
#1195 = VECTOR ( 'NONE', #627, 1000.000000000000000 ) ;
#1196 =( LENGTH_UNIT ( ) NAMED_UNIT ( * ) SI_UNIT ( .MILLI., .METRE. ) );
#1197 = ORIENTED_EDGE ( 'NONE', *, *, #520, .T. ) ;
#1198 = DIRECTION ( 'NONE',  ( -0.000000000000000000, 1.000000000000000000, -0.000000000000000000 ) ) ;
#1199 = ORIENTED_EDGE ( 'NONE', *, *, #550, .F. ) ;
#1200 = CC_DESIGN_PERSON_AND_ORGANIZATION_ASSIGNMENT ( #747, #304, ( #346 ) ) ;
#1201 = EDGE_LOOP ( 'NONE', ( #1414, #1218, #635, #519 ) ) ;
#1202 = DIRECTION ( 'NONE',  ( -6.439027471636229742E-17, -0.7071067811865460184, -0.7071067811865490160 ) ) ;
#1203 = APPROVAL_DATE_TIME ( #436, #1287 ) ;
#1204 = EDGE_LOOP ( 'NONE', ( #544, #634, #234, #290, #1086, #909, #1227, #1065, #669, #309, #787, #794, #415, #338, #1392, #938 ) ) ;
#1205 = CARTESIAN_POINT ( 'NONE',  ( -24.69999999999998508, -54.54000007799999850, -80.79999994400002095 ) ) ;
#1206 = DIRECTION ( 'NONE',  ( 0.000000000000000000, 1.000000000000000000, 0.000000000000000000 ) ) ;
#1207 = DIRECTION ( 'NONE',  ( -9.106159978880878627E-17, -0.000000000000000000, -1.000000000000000000 ) ) ;
#1208 = EDGE_CURVE ( 'NONE', #275, #1165, #1240, .T. ) ;
#1209 = ORIENTED_EDGE ( 'NONE', *, *, #1043, .F. ) ;
#1210 = CARTESIAN_POINT ( 'NONE',  ( -24.69999999999998508, -60.54000007799999139, -49.74999994400001668 ) ) ;
#1211 = ORIENTED_EDGE ( 'NONE', *, *, #375, .F. ) ;
#1212 = FACE_OUTER_BOUND ( 'NONE', #1282, .T. ) ;
#1213 = PLANE ( 'NONE',  #1309 ) ;
#1214 = VECTOR ( 'NONE', #1439, 1000.000000000000114 ) ;
#1215 = EDGE_CURVE ( 'NONE', #315, #991, #106, .T. ) ;
#1216 = COORDINATED_UNIVERSAL_TIME_OFFSET ( 5, 0, .BEHIND. ) ;
#1217 = VECTOR ( 'NONE', #1438, 1000.000000000000000 ) ;
#1218 = ORIENTED_EDGE ( 'NONE', *, *, #1108, .F. ) ;
#1219 = PLANE ( 'NONE',  #570 ) ;
#1220 = DIRECTION ( 'NONE',  ( 0.000000000000000000, 1.000000000000000000, 0.000000000000000000 ) ) ;
#1221 = PLANE ( 'NONE',  #454 ) ;
#1222 = EDGE_CURVE ( 'NONE', #305, #388, #1424, .T. ) ;
#1223 = CARTESIAN_POINT ( 'NONE',  ( 223.5272989591195483, -60.54000007799999139, -42.69999994399994847 ) ) ;
#1224 = ORIENTED_EDGE ( 'NONE', *, *, #1222, .T. ) ;
#1225 = CARTESIAN_POINT ( 'NONE',  ( -19.32499997199998276, 0.000000000000000000, -19.32499997199998276 ) ) ;
#1226 = ADVANCED_FACE ( 'NONE', ( #331, #770, #775 ), #129, .F. ) ;
#1227 = ORIENTED_EDGE ( 'NONE', *, *, #902, .T. ) ;
#1228 = DIRECTION ( 'NONE',  ( -1.000000000000000000, 0.000000000000000000, -1.517693329813479566E-16 ) ) ;
#1229 = CARTESIAN_POINT ( 'NONE',  ( 131.2700000000000102, -60.54000007799999139, -35.64999994400000105 ) ) ;
#1230 = PERSON_AND_ORGANIZATION_ROLE ( 'creator' ) ;
#1231 = ORIENTED_EDGE ( 'NONE', *, *, #738, .F. ) ;
#1232 = CARTESIAN_POINT ( 'NONE',  ( -24.69999999999998508, -54.54000007799999850, -73.74999994399996694 ) ) ;
#1233 = CARTESIAN_POINT ( 'NONE',  ( 152.9700000000000557, -60.54000007799999139, -42.69999994399979215 ) ) ;
#1234 = ADVANCED_FACE ( 'NONE', ( #478, #898 ), #933, .T. ) ;
#1235 = CARTESIAN_POINT ( 'NONE',  ( 133.9200000000001296, 5.650000000000176215, -80.79999994399985042 ) ) ;
#1236 = CARTESIAN_POINT ( 'NONE',  ( 203.7736494795593103, -60.54000007799998428, -22.94635046443994497 ) ) ;
#1237 = VERTEX_POINT ( 'NONE', #136 ) ;
#1238 = VECTOR ( 'NONE', #1228, 1000.000000000000000 ) ;
#1239 = VECTOR ( 'NONE', #1207, 1000.000000000000000 ) ;
#1240 = LINE ( 'NONE', #1349, #688 ) ;
#1241 = DIRECTION ( 'NONE',  ( 0.000000000000000000, 0.000000000000000000, 1.000000000000000000 ) ) ;
#1242 = VECTOR ( 'NONE', #633, 1000.000000000000000 ) ;
#1243 = VECTOR ( 'NONE', #917, 1000.000000000000000 ) ;
#1244 = PLANE ( 'NONE',  #804 ) ;
#1245 = LINE ( 'NONE', #1364, #956 ) ;
#1246 = ORIENTED_EDGE ( 'NONE', *, *, #530, .F. ) ;
#1247 = DIRECTION ( 'NONE',  ( 1.000000000000000000, 5.030610406698955710E-31, 2.913971193241881161E-15 ) ) ;
#1248 = ORIENTED_EDGE ( 'NONE', *, *, #913, .F. ) ;
#1249 = DIRECTION ( 'NONE',  ( -0.000000000000000000, 0.000000000000000000, -1.000000000000000000 ) ) ;
#1250 = CARTESIAN_POINT ( 'NONE',  ( -24.69999999999999574, -54.54000007799998428, -73.74999994399995273 ) ) ;
#1251 = EDGE_CURVE ( 'NONE', #580, #1428, #373, .T. ) ;
#1252 = ORIENTED_EDGE ( 'NONE', *, *, #395, .T. ) ;
#1253 = DIRECTION ( 'NONE',  ( -0.000000000000000000, -0.000000000000000000, 1.000000000000000000 ) ) ;
#1254 = ORIENTED_EDGE ( 'NONE', *, *, #127, .T. ) ;
#1255 = PLANE ( 'NONE',  #274 ) ;
#1256 = DIRECTION ( 'NONE',  ( -2.764071652032392369E-32, -1.000000000000000000, 9.474186095736432857E-17 ) ) ;
#1257 = CARTESIAN_POINT ( 'NONE',  ( 0.000000000000000000, 5.650000000000029665, -80.79999994400000674 ) ) ;
#1258 = EDGE_CURVE ( 'NONE', #1095, #1135, #691, .T. ) ;
#1259 = DIRECTION ( 'NONE',  ( 0.000000000000000000, -1.821231995776175725E-16, -1.000000000000000000 ) ) ;
#1260 = VERTEX_POINT ( 'NONE', #1152 ) ;
#1261 = CARTESIAN_POINT ( 'NONE',  ( 83.45999997199999143, 12.69999999999999929, -83.45999997199999143 ) ) ;
#1262 = VECTOR ( 'NONE', #990, 1000.000000000000000 ) ;
#1263 = AXIS2_PLACEMENT_3D ( 'NONE', #1306, #1198, #192 ) ;
#1264 = CARTESIAN_POINT ( 'NONE',  ( 145.9199999999999591, -54.54000007799999850, -80.79999994399999252 ) ) ;
#1265 = DIRECTION ( 'NONE',  ( 1.000000000000000000, 0.000000000000000000, -0.000000000000000000 ) ) ;
#1266 = LINE ( 'NONE', #144, #857 ) ;
#1267 = EDGE_LOOP ( 'NONE', ( #973, #950, #1183, #885, #280, #972, #847 ) ) ;
#1268 = DIRECTION ( 'NONE',  ( 1.000000000000000000, 0.000000000000000000, 0.000000000000000000 ) ) ;
#1269 = EDGE_CURVE ( 'NONE', #552, #643, #816, .T. ) ;
#1270 = PLANE ( 'NONE',  #901 ) ;
#1271 = CARTESIAN_POINT ( 'NONE',  ( 140.3349999999999795, -60.54000007799999139, -61.74999994399999537 ) ) ;
#1272 = DIRECTION ( 'NONE',  ( -1.000000000000000000, 0.000000000000000000, -1.517693329813479566E-16 ) ) ;
#1273 = CARTESIAN_POINT ( 'NONE',  ( 13.43500000000000583, 7.700000000000000178, 12.69999999999999929 ) ) ;
#1274 = ORIENTED_EDGE ( 'NONE', *, *, #564, .T. ) ;
#1275 = DIRECTION ( 'NONE',  ( -0.000000000000000000, 1.000000000000000000, -0.000000000000000000 ) ) ;
#1276 = FACE_BOUND ( 'NONE', #404, .T. ) ;
#1277 = ADVANCED_FACE ( 'NONE', ( #1357 ), #1045, .T. ) ;
#1278 = LINE ( 'NONE', #473, #1242 ) ;
#1279 = ORIENTED_EDGE ( 'NONE', *, *, #245, .T. ) ;
#1280 = DIRECTION ( 'NONE',  ( 0.000000000000000000, 0.000000000000000000, 1.000000000000000000 ) ) ;
#1281 = CARTESIAN_POINT ( 'NONE',  ( 133.9200000000001296, -103.1370950493710836, -80.79999994399986463 ) ) ;
#1282 = EDGE_LOOP ( 'NONE', ( #1254, #121, #542, #850 ) ) ;
#1283 = ORIENTED_EDGE ( 'NONE', *, *, #1385, .F. ) ;
#1284 = CARTESIAN_POINT ( 'NONE',  ( -12.69999999999999751, 0.000000000000000000, 5.649999999999944400 ) ) ;
#1285 = CIRCLE ( 'NONE', #1026, 2.999999999999995559 ) ;
#1286 = VECTOR ( 'NONE', #974, 1000.000000000000000 ) ;
#1287 = APPROVAL ( #1431, 'UNSPECIFIED' ) ;
#1288 = EDGE_LOOP ( 'NONE', ( #23, #941, #958, #1103 ) ) ;
#1289 = VECTOR ( 'NONE', #416, 1000.000000000000000 ) ;
#1290 = CARTESIAN_POINT ( 'NONE',  ( 118.3350000000000222, 7.700000000000000178, 0.000000000000000000 ) ) ;
#1291 = EDGE_CURVE ( 'NONE', #588, #94, #682, .T. ) ;
#1292 = APPLICATION_PROTOCOL_DEFINITION ( 'international standard', 'config_control_design', 1994, #516 ) ;
#1293 = ORIENTED_EDGE ( 'NONE', *, *, #769, .F. ) ;
#1294 = PLANE ( 'NONE',  #4 ) ;
#1295 = VERTEX_POINT ( 'NONE', #246 ) ;
#1296 = ORIENTED_EDGE ( 'NONE', *, *, #1435, .F. ) ;
#1297 = DIRECTION ( 'NONE',  ( -0.000000000000000000, -0.000000000000000000, 1.000000000000000000 ) ) ;
#1298 = EDGE_CURVE ( 'NONE', #650, #557, #457, .T. ) ;
#1299 = ORIENTED_EDGE ( 'NONE', *, *, #530, .T. ) ;
#1300 = CARTESIAN_POINT ( 'NONE',  ( -5.649999999999970157, 12.69999999999999929, 12.69999999999999929 ) ) ;
#1301 = VERTEX_POINT ( 'NONE', #347 ) ;
#1302 = DIRECTION ( 'NONE',  ( -0.000000000000000000, 1.000000000000000000, -0.000000000000000000 ) ) ;
#1303 = DIRECTION ( 'NONE',  ( 0.7071067811865462405, -0.000000000000000000, 0.7071067811865489050 ) ) ;
#1304 = EDGE_CURVE ( 'NONE', #723, #1021, #1266, .T. ) ;
#1305 = ORIENTED_EDGE ( 'NONE', *, *, #726, .F. ) ;
#1306 = CARTESIAN_POINT ( 'NONE',  ( -12.06500000000000661, -60.54000007799999139, -61.74999994399999537 ) ) ;
#1307 = VECTOR ( 'NONE', #1220, 1000.000000000000000 ) ;
#1308 = VERTEX_POINT ( 'NONE', #910 ) ;
#1309 = AXIS2_PLACEMENT_3D ( 'NONE', #209, #644, #216 ) ;
#1310 = CARTESIAN_POINT ( 'NONE',  ( -5.649999999999981704, 5.650000000000029665, -80.79999994400000674 ) ) ;
#1311 = VECTOR ( 'NONE', #1142, 1000.000000000000000 ) ;
#1312 = VECTOR ( 'NONE', #65, 1000.000000000000000 ) ;
#1313 = ORIENTED_EDGE ( 'NONE', *, *, #461, .T. ) ;
#1314 = DIRECTION ( 'NONE',  ( 1.000000000000000000, 0.000000000000000000, 0.000000000000000000 ) ) ;
#1315 = VERTEX_POINT ( 'NONE', #786 ) ;
#1316 = DIRECTION ( 'NONE',  ( -0.000000000000000000, 1.000000000000000000, -0.000000000000000000 ) ) ;
#1317 = ORIENTED_EDGE ( 'NONE', *, *, #375, .T. ) ;
#1318 = DIRECTION ( 'NONE',  ( 1.000000000000000000, 0.000000000000000000, 0.000000000000000000 ) ) ;
#1319 = ADVANCED_FACE ( 'NONE', ( #1039 ), #1371, .T. ) ;
#1320 = EDGE_LOOP ( 'NONE', ( #653, #748, #856, #574 ) ) ;
#1321 = DIRECTION ( 'NONE',  ( 0.000000000000000000, -1.821231995776175725E-16, -1.000000000000000000 ) ) ;
#1322 = CALENDAR_DATE ( 2026, 26, 5 ) ;
#1323 = EDGE_LOOP ( 'NONE', ( #660, #742, #1017, #571, #1080, #1114 ) ) ;
#1324 = DIRECTION ( 'NONE',  ( 1.000000000000000000, 0.000000000000000000, 1.243836322266832620E-16 ) ) ;
#1325 = VERTEX_POINT ( 'NONE', #1273 ) ;
#1326 = LINE ( 'NONE', #215, #615 ) ;
#1327 = EDGE_CURVE ( 'NONE', #204, #557, #18, .T. ) ;
#1328 = DIRECTION ( 'NONE',  ( -2.185478394931409786E-15, 0.000000000000000000, 1.000000000000000000 ) ) ;
#1329 = AXIS2_PLACEMENT_3D ( 'NONE', #765, #789, #439 ) ;
#1330 = AXIS2_PLACEMENT_3D ( 'NONE', #156, #379, #840 ) ;
#1331 = EDGE_CURVE ( 'NONE', #426, #275, #676, .T. ) ;
#1332 = AXIS2_PLACEMENT_3D ( 'NONE', #921, #310, #1318 ) ;
#1333 = VERTEX_POINT ( 'NONE', #697 ) ;
#1334 = VECTOR ( 'NONE', #563, 1000.000000000000000 ) ;
#1335 = CARTESIAN_POINT ( 'NONE',  ( 140.3349999999999795, -54.54000007799999850, -61.74999994399999537 ) ) ;
#1336 = ORIENTED_EDGE ( 'NONE', *, *, #435, .F. ) ;
#1337 = CARTESIAN_POINT ( 'NONE',  ( 0.000000000000000000, -60.54000007799999139, -80.79999994400000674 ) ) ;
#1338 = DIRECTION ( 'NONE',  ( 0.7071067811865489050, 0.000000000000000000, -0.7071067811865462405 ) ) ;
#1339 = APPROVAL_DATE_TIME ( #441, #510 ) ;
#1340 = ORIENTED_EDGE ( 'NONE', *, *, #738, .T. ) ;
#1341 = EDGE_CURVE ( 'NONE', #437, #739, #799, .T. ) ;
#1342 = DIRECTION ( 'NONE',  ( 0.000000000000000000, 0.000000000000000000, -1.000000000000000000 ) ) ;
#1343 = CARTESIAN_POINT ( 'NONE',  ( 6.890853218392769028E-15, 0.000000000000000000, -42.69999994399999110 ) ) ;
#1344 = PRODUCT ( 'Z-axis Way Cover Bracing Side', 'Z-axis Way Cover Bracing Side', '', ( #163 ) ) ;
#1345 = DIRECTION ( 'NONE',  ( -0.7071067811865460184, -6.699261234518564347E-17, -0.7071067811865491270 ) ) ;
#1346 = DIRECTION ( 'NONE',  ( -9.106159978880876162E-17, -1.821231995776175725E-16, -1.000000000000000000 ) ) ;
#1347 = VERTEX_POINT ( 'NONE', #1022 ) ;
#1348 = CC_DESIGN_DATE_AND_TIME_ASSIGNMENT ( #528, #659, ( #647 ) ) ;
#1349 = CARTESIAN_POINT ( 'NONE',  ( 128.2699999999999818, -60.54000007799999139, -42.69999994399996979 ) ) ;
#1350 = EDGE_LOOP ( 'NONE', ( #1432, #1137, #1089, #336 ) ) ;
#1351 = DIRECTION ( 'NONE',  ( 1.000000000000000000, -0.000000000000000000, 1.517693329813479566E-16 ) ) ;
#1352 = CARTESIAN_POINT ( 'NONE',  ( 6.435000000000006715, 7.700000000000000178, 12.69999999999999929 ) ) ;
#1353 = PLANE ( 'NONE',  #807 ) ;
#1354 = EDGE_LOOP ( 'NONE', ( #1293, #785, #648, #526 ) ) ;
#1355 = CIRCLE ( 'NONE', #592, 2.999999999999995559 ) ;
#1356 = VECTOR ( 'NONE', #693, 1000.000000000000000 ) ;
#1357 = FACE_OUTER_BOUND ( 'NONE', #626, .T. ) ;
#1358 = ORIENTED_EDGE ( 'NONE', *, *, #98, .F. ) ;
#1359 = CARTESIAN_POINT ( 'NONE',  ( -24.69999999999998508, 52.64508730745252763, -49.74999994400001668 ) ) ;
#1360 = VECTOR ( 'NONE', #1374, 1000.000000000000000 ) ;
#1361 = CC_DESIGN_APPROVAL ( #1287, ( #346 ) ) ;
#1362 = DIRECTION ( 'NONE',  ( 0.000000000000000000, 0.000000000000000000, -1.000000000000000000 ) ) ;
#1363 = EDGE_CURVE ( 'NONE', #1179, #399, #464, .T. ) ;
#1364 = CARTESIAN_POINT ( 'NONE',  ( 0.000000000000000000, 0.000000000000000000, 12.69999999999999929 ) ) ;
#1365 = VERTEX_POINT ( 'NONE', #359 ) ;
#1366 = CARTESIAN_POINT ( 'NONE',  ( -17.64999999999999503, -54.54000007799998428, -42.69999994399998400 ) ) ;
#1367 = ORIENTED_EDGE ( 'NONE', *, *, #1251, .F. ) ;
#1368 = CARTESIAN_POINT ( 'NONE',  ( 0.000000000000000000, -60.54000007799999139, -42.69999994399998400 ) ) ;
#1369 = CARTESIAN_POINT ( 'NONE',  ( -2.999999999999975131, 0.000000000000000000, 0.000000000000000000 ) ) ;
#1370 = EDGE_CURVE ( 'NONE', #1094, #1179, #260, .T. ) ;
#1371 = PLANE ( 'NONE',  #231 ) ;
#1372 = ORIENTED_EDGE ( 'NONE', *, *, #978, .T. ) ;
#1373 = LINE ( 'NONE', #1036, #117 ) ;
#1374 = DIRECTION ( 'NONE',  ( -0.000000000000000000, 1.000000000000000000, -0.000000000000000000 ) ) ;
#1375 = EDGE_CURVE ( 'NONE', #911, #84, #1158, .T. ) ;
#1376 = EDGE_CURVE ( 'NONE', #1061, #1185, #386, .T. ) ;
#1377 = DIRECTION ( 'NONE',  ( 1.298723458728395859E-16, 0.000000000000000000, -1.000000000000000000 ) ) ;
#1378 = FACE_BOUND ( 'NONE', #918, .T. ) ;
#1379 = CIRCLE ( 'NONE', #1000, 3.499999999999999556 ) ;
#1380 = VECTOR ( 'NONE', #549, 1000.000000000000000 ) ;
#1381 = FACE_OUTER_BOUND ( 'NONE', #1008, .T. ) ;
#1382 = CARTESIAN_POINT ( 'NONE',  ( -24.69999999999998508, -54.54000007799999139, -42.69999994399999821 ) ) ;
#1383 = DIRECTION ( 'NONE',  ( 1.000000000000000000, 0.000000000000000000, 0.000000000000000000 ) ) ;
#1384 = DIRECTION ( 'NONE',  ( 0.7071067811865474617, 0.000000000000000000, 0.7071067811865474617 ) ) ;
#1385 = EDGE_CURVE ( 'NONE', #152, #650, #1187, .T. ) ;
#1386 = ORIENTED_EDGE ( 'NONE', *, *, #994, .T. ) ;
#1387 = DIRECTION ( 'NONE',  ( -2.764071652032392916E-32, -1.000000000000000000, 1.821231995776175725E-16 ) ) ;
#1388 = CARTESIAN_POINT ( 'NONE',  ( 0.000000000000000000, 12.70000000000000284, 12.69999999999999929 ) ) ;
#1389 = ORIENTED_EDGE ( 'NONE', *, *, #45, .F. ) ;
#1390 = CARTESIAN_POINT ( 'NONE',  ( 128.2699999999999818, 0.000000000000000000, -38.64999994399998684 ) ) ;
#1391 = CARTESIAN_POINT ( 'NONE',  ( 131.2700000000000102, 12.69999999999999929, 0.000000000000000000 ) ) ;
#1392 = ORIENTED_EDGE ( 'NONE', *, *, #848, .T. ) ;
#1393 = ADVANCED_FACE ( 'NONE', ( #703 ), #597, .T. ) ;
#1394 = CARTESIAN_POINT ( 'NONE',  ( -12.69999999999999929, 107.0585713622668180, 12.69999999999999751 ) ) ;
#1395 = ORIENTED_EDGE ( 'NONE', *, *, #726, .T. ) ;
#1396 = FACE_OUTER_BOUND ( 'NONE', #1024, .T. ) ;
#1397 = VERTEX_POINT ( 'NONE', #1056 ) ;
#1398 = DIRECTION ( 'NONE',  ( 0.000000000000000000, 0.000000000000000000, 1.000000000000000000 ) ) ;
#1399 = VECTOR ( 'NONE', #662, 1000.000000000000114 ) ;
#1400 = AXIS2_PLACEMENT_3D ( 'NONE', #756, #1324, #214 ) ;
#1401 = ADVANCED_FACE ( 'NONE', ( #492 ), #1063, .F. ) ;
#1402 = ORIENTED_EDGE ( 'NONE', *, *, #238, .F. ) ;
#1403 = DIRECTION ( 'NONE',  ( 1.000000000000000000, 0.000000000000000000, 0.000000000000000000 ) ) ;
#1404 = CARTESIAN_POINT ( 'NONE',  ( 0.000000000000000000, 12.69999999999999929, -73.74999994399999537 ) ) ;
#1405 = ORIENTED_EDGE ( 'NONE', *, *, #1117, .F. ) ;
#1406 = CARTESIAN_POINT ( 'NONE',  ( -12.69999999999999218, 107.0585713622668180, -35.64999994400000105 ) ) ;
#1407 = VERTEX_POINT ( 'NONE', #846 ) ;
#1408 = ORIENTED_EDGE ( 'NONE', *, *, #839, .F. ) ;
#1409 = EDGE_CURVE ( 'NONE', #1190, #1407, #507, .T. ) ;
#1410 = DIRECTION ( 'NONE',  ( 0.7071067811865461294, 0.000000000000000000, 0.7071067811865489050 ) ) ;
#1411 = CARTESIAN_POINT ( 'NONE',  ( -24.17499997199996997, 12.69999999999999929, -24.17499997200006590 ) ) ;
#1412 = ORIENTED_EDGE ( 'NONE', *, *, #612, .T. ) ;
#1413 = CYLINDRICAL_SURFACE ( 'NONE', #97, 2.999999999999995559 ) ;
#1414 = ORIENTED_EDGE ( 'NONE', *, *, #1426, .F. ) ;
#1415 = ORIENTED_EDGE ( 'NONE', *, *, #3, .F. ) ;
#1416 = CARTESIAN_POINT ( 'NONE',  ( 102.9386494795591318, -60.54000007799997007, 77.88864953555979298 ) ) ;
#1417 = DATE_AND_TIME ( #731, #572 ) ;
#1418 = ORIENTED_EDGE ( 'NONE', *, *, #1370, .T. ) ;
#1419 = DIRECTION ( 'NONE',  ( -5.030610406698955710E-31, 1.000000000000000000, 0.000000000000000000 ) ) ;
#1420 = VECTOR ( 'NONE', #678, 1000.000000000000000 ) ;
#1421 = ORIENTED_EDGE ( 'NONE', *, *, #539, .T. ) ;
#1422 = VECTOR ( 'NONE', #1351, 1000.000000000000000 ) ;
#1423 = LINE ( 'NONE', #197, #118 ) ;
#1424 = CIRCLE ( 'NONE', #782, 2.999999999999995559 ) ;
#1425 = ORIENTED_EDGE ( 'NONE', *, *, #340, .F. ) ;
#1426 = EDGE_CURVE ( 'NONE', #293, #402, #80, .T. ) ;
#1427 = CARTESIAN_POINT ( 'NONE',  ( 133.9199999999999875, 12.70000000000000284, 12.69999999999999929 ) ) ;
#1428 = VERTEX_POINT ( 'NONE', #604 ) ;
#1429 = ORIENTED_EDGE ( 'NONE', *, *, #202, .T. ) ;
#1430 = CARTESIAN_POINT ( 'NONE',  ( -5.649999999999978151, -103.1370950493710836, -42.69999994399999821 ) ) ;
#1431 = APPROVAL_STATUS ( 'not_yet_approved' ) ;
#1432 = ORIENTED_EDGE ( 'NONE', *, *, #637, .F. ) ;
#1433 = FACE_OUTER_BOUND ( 'NONE', #1354, .T. ) ;
#1434 = LINE ( 'NONE', #108, #1049 ) ;
#1435 = EDGE_CURVE ( 'NONE', #485, #529, #940, .T. ) ;
#1436 = CARTESIAN_POINT ( 'NONE',  ( 223.5272989591195483, -54.54000007799999139, -42.69999994399994847 ) ) ;
#1437 = VERTEX_POINT ( 'NONE', #823 ) ;
#1438 = DIRECTION ( 'NONE',  ( -2.185478394931409786E-15, 0.000000000000000000, 1.000000000000000000 ) ) ;
#1439 = DIRECTION ( 'NONE',  ( 0.7071067811865489050, 0.000000000000000000, -0.7071067811865461294 ) ) ;
ENDSEC;
END-ISO-10303-21;
