ISO-10303-21;
HEADER;
FILE_DESCRIPTION (( 'STEP AP203' ),
    '1' );
FILE_NAME ('MagJackPlate.STEP',
    '2026-06-10T16:24:32',
    ( '' ),
    ( '' ),
    'SwSTEP 2.0',
    'SolidWorks 2025',
    '' );
FILE_SCHEMA (( 'CONFIG_CONTROL_DESIGN' ));
ENDSEC;

DATA;
#1 = DIRECTION ( 'NONE',  ( 1.000000000000000000, 0.000000000000000000, 0.000000000000000000 ) ) ;
#2 = EDGE_CURVE ( 'NONE', #227, #579, #523, .T. ) ;
#3 = CARTESIAN_POINT ( 'NONE',  ( 8.439999999999995950, -9.170056306102292609, 0.000000000000000000 ) ) ;
#4 = DIRECTION ( 'NONE',  ( -0.000000000000000000, -0.000000000000000000, -1.000000000000000000 ) ) ;
#5 = ORIENTED_EDGE ( 'NONE', *, *, #812, .F. ) ;
#6 = CC_DESIGN_APPROVAL ( #259, ( #777 ) ) ;
#7 = ORIENTED_EDGE ( 'NONE', *, *, #242, .T. ) ;
#8 = DIRECTION ( 'NONE',  ( -0.000000000000000000, -0.000000000000000000, 1.000000000000000000 ) ) ;
#9 = CARTESIAN_POINT ( 'NONE',  ( -11.49999999999999645, -9.170056306102292609, -5.640020000000000699 ) ) ;
#10 = CIRCLE ( 'NONE', #655, 2.125000000000000444 ) ;
#11 = FACE_OUTER_BOUND ( 'NONE', #1092, .T. ) ;
#12 = VECTOR ( 'NONE', #193, 1000.000000000000000 ) ;
#13 = ORIENTED_EDGE ( 'NONE', *, *, #502, .F. ) ;
#14 = CARTESIAN_POINT ( 'NONE',  ( 2.125000000000000444, 20.00000000000000711, 0.000000000000000000 ) ) ;
#15 = CARTESIAN_POINT ( 'NONE',  ( 8.439999999999995950, -8.947424210352389551, 0.000000000000000000 ) ) ;
#16 = FACE_OUTER_BOUND ( 'NONE', #247, .T. ) ;
#17 = EDGE_CURVE ( 'NONE', #727, #272, #181, .T. ) ;
#18 = LINE ( 'NONE', #209, #303 ) ;
#19 = DIRECTION ( 'NONE',  ( -0.000000000000000000, 0.000000000000000000, 1.000000000000000000 ) ) ;
#20 = DIRECTION ( 'NONE',  ( -0.000000000000000000, 0.000000000000000000, -1.000000000000000000 ) ) ;
#21 = APPLICATION_CONTEXT ( 'configuration controlled 3d designs of mechanical parts and assemblies' ) ;
#22 = VECTOR ( 'NONE', #234, 1000.000000000000000 ) ;
#23 = PLANE ( 'NONE',  #1108 ) ;
#24 = EDGE_CURVE ( 'NONE', #147, #923, #710, .T. ) ;
#25 = CARTESIAN_POINT ( 'NONE',  ( -8.439999999999995950, -9.170056306102292609, -5.640020000000000699 ) ) ;
#26 = CARTESIAN_POINT ( 'NONE',  ( 8.439999999999997726, -4.800056306102291614, -5.640020000000000699 ) ) ;
#27 = CIRCLE ( 'NONE', #912, 2.125000000000001332 ) ;
#28 = VECTOR ( 'NONE', #346, 1000.000000000000000 ) ;
#29 = VERTEX_POINT ( 'NONE', #793 ) ;
#30 = DIRECTION ( 'NONE',  ( 1.000000000000000000, 0.000000000000000000, 0.000000000000000000 ) ) ;
#31 = CARTESIAN_POINT ( 'NONE',  ( -9.934999999999998721, -4.800056306102291614, 4.000000000000000000 ) ) ;
#32 = EDGE_CURVE ( 'NONE', #476, #924, #169, .T. ) ;
#33 = CARTESIAN_POINT ( 'NONE',  ( 11.49999999999999645, -2.800056306102291614, 0.000000000000000000 ) ) ;
#34 = EDGE_LOOP ( 'NONE', ( #552, #7, #978, #1021, #289 ) ) ;
#35 = EDGE_LOOP ( 'NONE', ( #918, #749, #57, #1026 ) ) ;
#36 = LINE ( 'NONE', #114, #1018 ) ;
#37 = LINE ( 'NONE', #240, #933 ) ;
#38 = ADVANCED_FACE ( 'NONE', ( #781 ), #511, .T. ) ;
#39 = UNCERTAINTY_MEASURE_WITH_UNIT (LENGTH_MEASURE( 1.000000000000000082E-05 ), #1042, 'distance_accuracy_value', 'NONE');
#40 = ORIENTED_EDGE ( 'NONE', *, *, #374, .F. ) ;
#41 = ORIENTED_EDGE ( 'NONE', *, *, #762, .T. ) ;
#42 = CARTESIAN_POINT ( 'NONE',  ( 11.50000000000000355, 0.000000000000000000, 4.000000000000000000 ) ) ;
#43 = DIRECTION ( 'NONE',  ( 0.000000000000000000, 0.000000000000000000, 1.000000000000000000 ) ) ;
#44 = AXIS2_PLACEMENT_3D ( 'NONE', #1089, #537, #724 ) ;
#45 = ORIENTED_EDGE ( 'NONE', *, *, #46, .F. ) ;
#46 = EDGE_CURVE ( 'NONE', #51, #383, #264, .T. ) ;
#47 = EDGE_LOOP ( 'NONE', ( #389, #952 ) ) ;
#48 = VECTOR ( 'NONE', #452, 1000.000000000000000 ) ;
#49 = DIRECTION ( 'NONE',  ( 1.000000000000000000, 0.000000000000000000, 0.000000000000000000 ) ) ;
#50 = CARTESIAN_POINT ( 'NONE',  ( 9.934999999999998721, -5.200056306102291970, -5.640020000000000699 ) ) ;
#51 = VERTEX_POINT ( 'NONE', #943 ) ;
#52 = PRODUCT_RELATED_PRODUCT_CATEGORY ( 'detail', '', ( #634 ) ) ;
#53 = ORIENTED_EDGE ( 'NONE', *, *, #821, .T. ) ;
#54 = DIRECTION ( 'NONE',  ( 1.000000000000000000, 0.000000000000000000, 0.000000000000000000 ) ) ;
#55 = CARTESIAN_POINT ( 'NONE',  ( 0.000000000000000000, 20.00000000000000711, 0.000000000000000000 ) ) ;
#56 = EDGE_LOOP ( 'NONE', ( #887, #677, #304, #218, #788, #621 ) ) ;
#57 = ORIENTED_EDGE ( 'NONE', *, *, #602, .F. ) ;
#58 = PLANE ( 'NONE',  #406 ) ;
#59 = PLANE ( 'NONE',  #874 ) ;
#60 = EDGE_CURVE ( 'NONE', #350, #579, #417, .T. ) ;
#61 = AXIS2_PLACEMENT_3D ( 'NONE', #730, #296, #649 ) ;
#62 = VERTEX_POINT ( 'NONE', #951 ) ;
#63 = VECTOR ( 'NONE', #8, 1000.000000000000000 ) ;
#64 = ORIENTED_EDGE ( 'NONE', *, *, #900, .T. ) ;
#65 = PLANE ( 'NONE',  #632 ) ;
#66 = VECTOR ( 'NONE', #983, 1000.000000000000000 ) ;
#67 = DIRECTION ( 'NONE',  ( -1.000000000000000000, 0.000000000000000000, 0.000000000000000000 ) ) ;
#68 = VECTOR ( 'NONE', #986, 1000.000000000000000 ) ;
#69 = ADVANCED_FACE ( 'NONE', ( #1136 ), #768, .T. ) ;
#70 = DIRECTION ( 'NONE',  ( -0.000000000000000000, -0.000000000000000000, -1.000000000000000000 ) ) ;
#71 = ORIENTED_EDGE ( 'NONE', *, *, #531, .T. ) ;
#72 = PERSON_AND_ORGANIZATION ( #284, #135 ) ;
#73 = LINE ( 'NONE', #772, #858 ) ;
#74 = FACE_OUTER_BOUND ( 'NONE', #357, .T. ) ;
#75 = DIRECTION ( 'NONE',  ( 0.000000000000000000, 1.000000000000000000, -0.000000000000000000 ) ) ;
#76 = ADVANCED_FACE ( 'NONE', ( #429 ), #352, .F. ) ;
#77 = EDGE_LOOP ( 'NONE', ( #13, #825, #712, #490, #668, #310, #506, #717 ) ) ;
#78 = PERSON_AND_ORGANIZATION ( #284, #135 ) ;
#79 = DIRECTION ( 'NONE',  ( -0.000000000000000000, -0.000000000000000000, 1.000000000000000000 ) ) ;
#80 = DIRECTION ( 'NONE',  ( 1.000000000000000000, 0.000000000000000000, 0.000000000000000000 ) ) ;
#81 = CARTESIAN_POINT ( 'NONE',  ( 11.50000000000000355, 25.00000000000000711, 4.000000000000000000 ) ) ;
#82 = AXIS2_PLACEMENT_3D ( 'NONE', #370, #740, #563 ) ;
#83 = EDGE_CURVE ( 'NONE', #1104, #1098, #1050, .T. ) ;
#84 = ORIENTED_EDGE ( 'NONE', *, *, #17, .F. ) ;
#85 = PERSON_AND_ORGANIZATION ( #284, #135 ) ;
#86 = DIRECTION ( 'NONE',  ( 0.000000000000000000, 0.000000000000000000, 1.000000000000000000 ) ) ;
#87 = CARTESIAN_POINT ( 'NONE',  ( -8.439999999999995950, 0.000000000000000000, 4.000000000000000000 ) ) ;
#88 = DIRECTION ( 'NONE',  ( -0.000000000000000000, -0.000000000000000000, -1.000000000000000000 ) ) ;
#89 = VECTOR ( 'NONE', #88, 1000.000000000000000 ) ;
#90 = ORIENTED_EDGE ( 'NONE', *, *, #792, .F. ) ;
#91 = ADVANCED_FACE ( 'NONE', ( #1039 ), #603, .T. ) ;
#92 = CARTESIAN_POINT ( 'NONE',  ( 11.50000000000000355, 0.000000000000000000, 0.000000000000000000 ) ) ;
#93 = CARTESIAN_POINT ( 'NONE',  ( 0.000000000000000000, 0.000000000000000000, 0.000000000000000000 ) ) ;
#94 = CARTESIAN_POINT ( 'NONE',  ( -8.439999999999997726, 8.947424210352387774, 4.000000000000000000 ) ) ;
#95 = LINE ( 'NONE', #608, #1131 ) ;
#96 = ORIENTED_EDGE ( 'NONE', *, *, #1059, .T. ) ;
#97 = CARTESIAN_POINT ( 'NONE',  ( -8.439999999999997726, -2.800056306102291614, 0.000000000000000000 ) ) ;
#98 = VERTEX_POINT ( 'NONE', #347 ) ;
#99 = CARTESIAN_POINT ( 'NONE',  ( 0.000000000000000000, 0.000000000000000000, -5.640020000000000699 ) ) ;
#100 = DIRECTION ( 'NONE',  ( 1.000000000000000000, 0.000000000000000000, 0.000000000000000000 ) ) ;
#101 = DIRECTION ( 'NONE',  ( -1.000000000000000000, 0.000000000000000000, 0.000000000000000000 ) ) ;
#102 = ORIENTED_EDGE ( 'NONE', *, *, #516, .F. ) ;
#103 = CARTESIAN_POINT ( 'NONE',  ( 0.000000000000000000, -19.99999999999999289, 4.000000000000000000 ) ) ;
#104 = CARTESIAN_POINT ( 'NONE',  ( 0.000000000000000000, -24.99999999999999289, 0.000000000000000000 ) ) ;
#105 = LINE ( 'NONE', #187, #253 ) ;
#106 = EDGE_CURVE ( 'NONE', #272, #776, #698, .T. ) ;
#107 = VECTOR ( 'NONE', #575, 1000.000000000000000 ) ;
#108 = ORIENTED_EDGE ( 'NONE', *, *, #666, .F. ) ;
#109 = CARTESIAN_POINT ( 'NONE',  ( 8.439999999999997726, -4.800056306102291614, -5.640020000000000699 ) ) ;
#110 = DIRECTION ( 'NONE',  ( 0.000000000000000000, 0.000000000000000000, 1.000000000000000000 ) ) ;
#111 = PLANE ( 'NONE',  #1112 ) ;
#112 = ADVANCED_FACE ( 'NONE', ( #1033 ), #614, .F. ) ;
#113 = LINE ( 'NONE', #642, #504 ) ;
#114 = CARTESIAN_POINT ( 'NONE',  ( 11.50000000000000355, -9.170056306102292609, -5.640020000000000699 ) ) ;
#115 = LINE ( 'NONE', #26, #48 ) ;
#116 = EDGE_CURVE ( 'NONE', #572, #333, #95, .T. ) ;
#117 = VECTOR ( 'NONE', #1105, 1000.000000000000000 ) ;
#118 = DATE_AND_TIME ( #635, #463 ) ;
#119 = ORIENTED_EDGE ( 'NONE', *, *, #569, .F. ) ;
#120 = CARTESIAN_POINT ( 'NONE',  ( 0.000000000000000000, 20.00000000000000711, 4.000000000000000000 ) ) ;
#121 = CARTESIAN_POINT ( 'NONE',  ( 8.439999999999997726, -2.800056306102291614, -5.640020000000000699 ) ) ;
#122 = DIRECTION ( 'NONE',  ( -1.000000000000000000, 0.000000000000000000, 0.000000000000000000 ) ) ;
#123 = AXIS2_PLACEMENT_3D ( 'NONE', #295, #1083, #30 ) ;
#124 = VERTEX_POINT ( 'NONE', #440 ) ;
#125 = VERTEX_POINT ( 'NONE', #959 ) ;
#126 = EDGE_CURVE ( 'NONE', #124, #171, #269, .T. ) ;
#127 = DIRECTION ( 'NONE',  ( 1.000000000000000000, 0.000000000000000000, 0.000000000000000000 ) ) ;
#128 = FACE_OUTER_BOUND ( 'NONE', #412, .T. ) ;
#129 = ORIENTED_EDGE ( 'NONE', *, *, #510, .T. ) ;
#130 = ORIENTED_EDGE ( 'NONE', *, *, #1118, .F. ) ;
#131 = CARTESIAN_POINT ( 'NONE',  ( 8.439999999999997726, -2.800056306102291614, 0.000000000000000000 ) ) ;
#132 = CARTESIAN_POINT ( 'NONE',  ( 8.439999999999995950, 0.000000000000000000, 4.000000000000000000 ) ) ;
#133 = EDGE_LOOP ( 'NONE', ( #472, #852, #1099, #880 ) ) ;
#134 = ORIENTED_EDGE ( 'NONE', *, *, #639, .T. ) ;
#135 = ORGANIZATION ( 'UNSPECIFIED', 'UNSPECIFIED', '' ) ;
#136 = DIRECTION ( 'NONE',  ( 0.000000000000000000, -0.000000000000000000, -1.000000000000000000 ) ) ;
#137 = DIRECTION ( 'NONE',  ( 0.000000000000000000, 1.000000000000000000, 0.000000000000000000 ) ) ;
#138 = AXIS2_PLACEMENT_3D ( 'NONE', #695, #513, #532 ) ;
#139 = ORIENTED_EDGE ( 'NONE', *, *, #731, .F. ) ;
#140 = VECTOR ( 'NONE', #163, 1000.000000000000000 ) ;
#141 = ADVANCED_FACE ( 'NONE', ( #503, #458 ), #111, .F. ) ;
#142 = EDGE_LOOP ( 'NONE', ( #328, #158, #176, #231, #1103, #311, #396, #864 ) ) ;
#143 = AXIS2_PLACEMENT_3D ( 'NONE', #976, #462, #644 ) ;
#144 = CARTESIAN_POINT ( 'NONE',  ( 8.439999999999995950, -9.170056306102292609, 0.000000000000000000 ) ) ;
#145 = DIRECTION ( 'NONE',  ( 0.000000000000000000, 1.000000000000000000, 0.000000000000000000 ) ) ;
#146 = VERTEX_POINT ( 'NONE', #1070 ) ;
#147 = VERTEX_POINT ( 'NONE', #275 ) ;
#148 = DIRECTION ( 'NONE',  ( -0.000000000000000000, -0.000000000000000000, -1.000000000000000000 ) ) ;
#149 = LINE ( 'NONE', #672, #1076 ) ;
#150 = VERTEX_POINT ( 'NONE', #544 ) ;
#151 = VERTEX_POINT ( 'NONE', #287 ) ;
#152 = EDGE_CURVE ( 'NONE', #699, #62, #625, .T. ) ;
#153 = CYLINDRICAL_SURFACE ( 'NONE', #521, 2.125000000000000444 ) ;
#154 = LINE ( 'NONE', #1129, #270 ) ;
#155 = AXIS2_PLACEMENT_3D ( 'NONE', #810, #215, #204 ) ;
#156 = CARTESIAN_POINT ( 'NONE',  ( 8.439999999999997726, 8.947424210352387774, 4.000000000000000000 ) ) ;
#157 = VECTOR ( 'NONE', #820, 1000.000000000000000 ) ;
#158 = ORIENTED_EDGE ( 'NONE', *, *, #164, .T. ) ;
#159 = DATE_AND_TIME ( #683, #817 ) ;
#160 = CIRCLE ( 'NONE', #450, 2.125000000000000444 ) ;
#161 = EDGE_CURVE ( 'NONE', #246, #1086, #971, .T. ) ;
#162 = DIRECTION ( 'NONE',  ( -0.000000000000000000, -0.000000000000000000, -1.000000000000000000 ) ) ;
#163 = DIRECTION ( 'NONE',  ( -0.000000000000000000, -0.000000000000000000, -1.000000000000000000 ) ) ;
#164 = EDGE_CURVE ( 'NONE', #213, #556, #638, .T. ) ;
#165 = DIRECTION ( 'NONE',  ( 1.000000000000000000, -0.000000000000000000, -0.000000000000000000 ) ) ;
#166 = ORIENTED_EDGE ( 'NONE', *, *, #687, .F. ) ;
#167 = CARTESIAN_POINT ( 'NONE',  ( 0.000000000000000000, -24.99999999999999289, 4.000000000000000000 ) ) ;
#168 = LINE ( 'NONE', #428, #780 ) ;
#169 = LINE ( 'NONE', #862, #323 ) ;
#170 = ADVANCED_FACE ( 'NONE', ( #382 ), #1085, .F. ) ;
#171 = VERTEX_POINT ( 'NONE', #444 ) ;
#172 = DIRECTION ( 'NONE',  ( 1.000000000000000000, 0.000000000000000000, 0.000000000000000000 ) ) ;
#173 = CARTESIAN_POINT ( 'NONE',  ( 9.934999999999998721, 0.000000000000000000, 4.000000000000000000 ) ) ;
#174 = CC_DESIGN_APPROVAL ( #615, ( #989 ) ) ;
#175 = CC_DESIGN_DATE_AND_TIME_ASSIGNMENT ( #448, #453, ( #249 ) ) ;
#176 = ORIENTED_EDGE ( 'NONE', *, *, #927, .T. ) ;
#177 = VECTOR ( 'NONE', #258, 1000.000000000000000 ) ;
#178 = APPROVAL_STATUS ( 'not_yet_approved' ) ;
#179 = ORIENTED_EDGE ( 'NONE', *, *, #83, .F. ) ;
#180 = CARTESIAN_POINT ( 'NONE',  ( 0.000000000000000000, -4.800056306102291614, 4.000000000000000000 ) ) ;
#181 = LINE ( 'NONE', #787, #597 ) ;
#182 = AXIS2_PLACEMENT_3D ( 'NONE', #93, #1032, #172 ) ;
#183 = ORIENTED_EDGE ( 'NONE', *, *, #46, .T. ) ;
#184 = EDGE_CURVE ( 'NONE', #333, #1109, #105, .T. ) ;
#185 = CARTESIAN_POINT ( 'NONE',  ( -8.439999999999997726, -4.800056306102291614, -5.640020000000000699 ) ) ;
#186 = DIRECTION ( 'NONE',  ( -1.000000000000000000, -0.000000000000000000, -0.000000000000000000 ) ) ;
#187 = CARTESIAN_POINT ( 'NONE',  ( 9.934999999999998721, -4.800056306102291614, -5.640020000000000699 ) ) ;
#188 = ORIENTED_EDGE ( 'NONE', *, *, #60, .T. ) ;
#189 = ORIENTED_EDGE ( 'NONE', *, *, #697, .F. ) ;
#190 = CARTESIAN_POINT ( 'NONE',  ( 9.934999999999998721, -4.800056306102291614, 4.000000000000000000 ) ) ;
#191 = ADVANCED_FACE ( 'NONE', ( #377 ), #988, .T. ) ;
#192 = FACE_OUTER_BOUND ( 'NONE', #393, .T. ) ;
#193 = DIRECTION ( 'NONE',  ( -0.000000000000000000, -1.000000000000000000, -0.000000000000000000 ) ) ;
#194 = EDGE_LOOP ( 'NONE', ( #512, #494, #647, #829 ) ) ;
#195 = VECTOR ( 'NONE', #49, 1000.000000000000000 ) ;
#196 = ORIENTED_EDGE ( 'NONE', *, *, #1124, .F. ) ;
#197 = DIRECTION ( 'NONE',  ( -0.000000000000000000, 0.000000000000000000, 1.000000000000000000 ) ) ;
#198 = ADVANCED_FACE ( 'NONE', ( #811 ), #715, .T. ) ;
#199 = LINE ( 'NONE', #543, #445 ) ;
#200 = CARTESIAN_POINT ( 'NONE',  ( 0.000000000000000000, 20.00000000000000711, 0.000000000000000000 ) ) ;
#201 = ADVANCED_FACE ( 'NONE', ( #11 ), #360, .T. ) ;
#202 = VECTOR ( 'NONE', #1122, 1000.000000000000000 ) ;
#203 = CARTESIAN_POINT ( 'NONE',  ( -9.934999999999998721, -5.200056306102291970, -5.640020000000000699 ) ) ;
#204 = DIRECTION ( 'NONE',  ( 0.000000000000000000, 0.000000000000000000, 1.000000000000000000 ) ) ;
#205 = DIRECTION ( 'NONE',  ( -0.000000000000000000, 1.000000000000000000, -0.000000000000000000 ) ) ;
#206 = EDGE_CURVE ( 'NONE', #326, #733, #994, .T. ) ;
#207 = PERSON_AND_ORGANIZATION ( #284, #135 ) ;
#208 = EDGE_LOOP ( 'NONE', ( #763, #45, #819, #867, #1077, #266, #997, #1009, #441, #836 ) ) ;
#209 = CARTESIAN_POINT ( 'NONE',  ( -11.49999999999999645, 0.000000000000000000, 0.000000000000000000 ) ) ;
#210 = CARTESIAN_POINT ( 'NONE',  ( 11.50000000000000355, -9.170056306102292609, -7.640020000000000699 ) ) ;
#211 = CARTESIAN_POINT ( 'NONE',  ( -9.934999999999998721, -4.800056306102291614, 4.000000000000000000 ) ) ;
#212 = VECTOR ( 'NONE', #110, 1000.000000000000000 ) ;
#213 = VERTEX_POINT ( 'NONE', #816 ) ;
#214 = LINE ( 'NONE', #87, #447 ) ;
#215 = DIRECTION ( 'NONE',  ( -1.000000000000000000, 0.000000000000000000, 0.000000000000000000 ) ) ;
#216 = LINE ( 'NONE', #1134, #28 ) ;
#217 = AXIS2_PLACEMENT_3D ( 'NONE', #373, #197, #722 ) ;
#218 = ORIENTED_EDGE ( 'NONE', *, *, #339, .T. ) ;
#219 = VECTOR ( 'NONE', #205, 1000.000000000000000 ) ;
#220 = VECTOR ( 'NONE', #533, 1000.000000000000000 ) ;
#221 = ORIENTED_EDGE ( 'NONE', *, *, #332, .T. ) ;
#222 = EDGE_CURVE ( 'NONE', #1098, #846, #1075, .T. ) ;
#223 = ADVANCED_BREP_SHAPE_REPRESENTATION ( 'MagJackPlate', ( #509, #138 ), #835 ) ;
#224 = DIRECTION ( 'NONE',  ( -1.000000000000000000, -0.000000000000000000, -0.000000000000000000 ) ) ;
#225 = DIRECTION ( 'NONE',  ( 0.000000000000000000, 1.000000000000000000, 0.000000000000000000 ) ) ;
#226 = ORIENTED_EDGE ( 'NONE', *, *, #863, .F. ) ;
#227 = VERTEX_POINT ( 'NONE', #904 ) ;
#228 = DIRECTION ( 'NONE',  ( 0.000000000000000000, 0.000000000000000000, 1.000000000000000000 ) ) ;
#229 = EDGE_CURVE ( 'NONE', #651, #1065, #115, .T. ) ;
#230 = CARTESIAN_POINT ( 'NONE',  ( -8.439999999999997726, -4.800056306102291614, 4.000000000000000000 ) ) ;
#231 = ORIENTED_EDGE ( 'NONE', *, *, #955, .T. ) ;
#232 = ORIENTED_EDGE ( 'NONE', *, *, #1127, .T. ) ;
#233 = VECTOR ( 'NONE', #892, 1000.000000000000000 ) ;
#234 = DIRECTION ( 'NONE',  ( 0.000000000000000000, 0.000000000000000000, 1.000000000000000000 ) ) ;
#235 = DIRECTION ( 'NONE',  ( 0.000000000000000000, 1.000000000000000000, -0.000000000000000000 ) ) ;
#236 = ORIENTED_EDGE ( 'NONE', *, *, #306, .F. ) ;
#237 = ORIENTED_EDGE ( 'NONE', *, *, #834, .T. ) ;
#238 = VECTOR ( 'NONE', #302, 1000.000000000000000 ) ;
#239 = FACE_OUTER_BOUND ( 'NONE', #627, .T. ) ;
#240 = CARTESIAN_POINT ( 'NONE',  ( -8.439999999999997726, 8.947424210352387774, 0.000000000000000000 ) ) ;
#241 = ORIENTED_EDGE ( 'NONE', *, *, #681, .T. ) ;
#242 = EDGE_CURVE ( 'NONE', #1065, #333, #732, .T. ) ;
#243 = ORIENTED_EDGE ( 'NONE', *, *, #769, .T. ) ;
#244 = LINE ( 'NONE', #402, #117 ) ;
#245 = LINE ( 'NONE', #612, #177 ) ;
#246 = VERTEX_POINT ( 'NONE', #292 ) ;
#247 = EDGE_LOOP ( 'NONE', ( #1014, #663, #641, #481 ) ) ;
#248 = DIRECTION ( 'NONE',  ( -1.000000000000000000, 0.000000000000000000, 0.000000000000000000 ) ) ;
#249 = SECURITY_CLASSIFICATION ( '', '', #905 ) ;
#250 = DIRECTION ( 'NONE',  ( 0.000000000000000000, -0.000000000000000000, 1.000000000000000000 ) ) ;
#251 = ORIENTED_EDGE ( 'NONE', *, *, #222, .F. ) ;
#252 = LINE ( 'NONE', #778, #633 ) ;
#253 = VECTOR ( 'NONE', #534, 1000.000000000000000 ) ;
#254 = CARTESIAN_POINT ( 'NONE',  ( -9.934999999999998721, -7.170056306102291721, -5.640020000000000699 ) ) ;
#255 = CARTESIAN_POINT ( 'NONE',  ( 0.000000000000000000, -19.99999999999999289, 0.000000000000000000 ) ) ;
#256 = DIRECTION ( 'NONE',  ( -0.000000000000000000, -0.000000000000000000, -1.000000000000000000 ) ) ;
#257 = ORIENTED_EDGE ( 'NONE', *, *, #152, .F. ) ;
#258 = DIRECTION ( 'NONE',  ( 0.000000000000000000, -1.000000000000000000, 0.000000000000000000 ) ) ;
#259 = APPROVAL ( #881, 'UNSPECIFIED' ) ;
#260 = CARTESIAN_POINT ( 'NONE',  ( 11.50000000000000355, 0.000000000000000000, 0.000000000000000000 ) ) ;
#261 = VERTEX_POINT ( 'NONE', #211 ) ;
#262 = PERSON_AND_ORGANIZATION_ROLE ( 'design_owner' ) ;
#263 = DIRECTION ( 'NONE',  ( -0.000000000000000000, -0.000000000000000000, 1.000000000000000000 ) ) ;
#264 = LINE ( 'NONE', #774, #527 ) ;
#265 = EDGE_CURVE ( 'NONE', #991, #744, #555, .T. ) ;
#266 = ORIENTED_EDGE ( 'NONE', *, *, #982, .F. ) ;
#267 = VECTOR ( 'NONE', #79, 1000.000000000000000 ) ;
#268 = DIRECTION ( 'NONE',  ( 0.000000000000000000, 1.000000000000000000, -0.000000000000000000 ) ) ;
#269 = LINE ( 'NONE', #156, #89 ) ;
#270 = VECTOR ( 'NONE', #416, 1000.000000000000000 ) ;
#271 = ADVANCED_FACE ( 'NONE', ( #16 ), #366, .F. ) ;
#272 = VERTEX_POINT ( 'NONE', #297 ) ;
#273 = FACE_BOUND ( 'NONE', #277, .T. ) ;
#274 = DIRECTION ( 'NONE',  ( -0.000000000000000000, -1.000000000000000000, -0.000000000000000000 ) ) ;
#275 = CARTESIAN_POINT ( 'NONE',  ( -8.439999999999995950, -9.170056306102292609, -5.640020000000000699 ) ) ;
#276 = EDGE_LOOP ( 'NONE', ( #379, #659, #694, #1005, #957, #1094 ) ) ;
#277 = EDGE_LOOP ( 'NONE', ( #850, #972, #752, #626, #598, #566, #368, #226, #139, #540, #530, #102 ) ) ;
#278 = PLANE ( 'NONE',  #217 ) ;
#279 = ADVANCED_FACE ( 'NONE', ( #403 ), #59, .T. ) ;
#280 = FACE_OUTER_BOUND ( 'NONE', #940, .T. ) ;
#281 = DIRECTION ( 'NONE',  ( 1.000000000000000000, 0.000000000000000000, 0.000000000000000000 ) ) ;
#282 = VECTOR ( 'NONE', #54, 1000.000000000000000 ) ;
#283 = DIRECTION ( 'NONE',  ( 0.000000000000000000, -0.000000000000000000, 1.000000000000000000 ) ) ;
#284 = PERSON ( 'UNSPECIFIED', 'UNSPECIFIED', 'UNSPECIFIED', ('UNSPECIFIED'), ('UNSPECIFIED'), ('UNSPECIFIED') ) ;
#285 = CARTESIAN_POINT ( 'NONE',  ( 0.000000000000000000, 0.000000000000000000, 4.000000000000000000 ) ) ;
#286 = EDGE_CURVE ( 'NONE', #98, #518, #160, .T. ) ;
#287 = CARTESIAN_POINT ( 'NONE',  ( -11.49999999999999645, -5.200056306102291970, -5.640020000000000699 ) ) ;
#288 = AXIS2_PLACEMENT_3D ( 'NONE', #828, #1012, #1106 ) ;
#289 = ORIENTED_EDGE ( 'NONE', *, *, #995, .F. ) ;
#290 = DIRECTION ( 'NONE',  ( 0.000000000000000000, 0.000000000000000000, 1.000000000000000000 ) ) ;
#291 = DIRECTION ( 'NONE',  ( 0.000000000000000000, -1.000000000000000000, -0.000000000000000000 ) ) ;
#292 = CARTESIAN_POINT ( 'NONE',  ( 11.49999999999999645, -2.800056306102291614, 0.000000000000000000 ) ) ;
#293 = EDGE_CURVE ( 'NONE', #326, #699, #917, .T. ) ;
#294 = ORIENTED_EDGE ( 'NONE', *, *, #516, .T. ) ;
#295 = CARTESIAN_POINT ( 'NONE',  ( 0.000000000000000000, 20.00000000000000711, 4.000000000000000000 ) ) ;
#296 = DIRECTION ( 'NONE',  ( -0.000000000000000000, 0.000000000000000000, 1.000000000000000000 ) ) ;
#297 = CARTESIAN_POINT ( 'NONE',  ( 11.50000000000000355, -24.99999999999999289, 0.000000000000000000 ) ) ;
#298 = ORIENTED_EDGE ( 'NONE', *, *, #353, .F. ) ;
#299 = APPROVAL_PERSON_ORGANIZATION ( #640, #395, #551 ) ;
#300 = EDGE_LOOP ( 'NONE', ( #1119, #298, #588, #906 ) ) ;
#301 = FACE_OUTER_BOUND ( 'NONE', #1088, .T. ) ;
#302 = DIRECTION ( 'NONE',  ( -1.000000000000000000, -0.000000000000000000, -0.000000000000000000 ) ) ;
#303 = VECTOR ( 'NONE', #268, 1000.000000000000000 ) ;
#304 = ORIENTED_EDGE ( 'NONE', *, *, #353, .T. ) ;
#305 = AXIS2_PLACEMENT_3D ( 'NONE', #720, #1023, #571 ) ;
#306 = EDGE_CURVE ( 'NONE', #151, #572, #650, .T. ) ;
#307 = ORIENTED_EDGE ( 'NONE', *, *, #1100, .F. ) ;
#308 = LINE ( 'NONE', #1096, #1053 ) ;
#309 = DIRECTION ( 'NONE',  ( 0.000000000000000000, 0.000000000000000000, 1.000000000000000000 ) ) ;
#310 = ORIENTED_EDGE ( 'NONE', *, *, #1044, .F. ) ;
#311 = ORIENTED_EDGE ( 'NONE', *, *, #106, .F. ) ;
#312 = CARTESIAN_POINT ( 'NONE',  ( 0.000000000000000000, 20.00000000000000711, 0.000000000000000000 ) ) ;
#313 = CARTESIAN_POINT ( 'NONE',  ( 8.439999999999995950, -9.170056306102292609, -5.640020000000000699 ) ) ;
#314 = ORIENTED_EDGE ( 'NONE', *, *, #775, .T. ) ;
#315 = ORIENTED_EDGE ( 'NONE', *, *, #716, .T. ) ;
#316 = VECTOR ( 'NONE', #789, 1000.000000000000000 ) ;
#317 = LINE ( 'NONE', #853, #1123 ) ;
#318 = LINE ( 'NONE', #132, #895 ) ;
#319 = EDGE_CURVE ( 'NONE', #146, #783, #318, .T. ) ;
#320 = ORIENTED_EDGE ( 'NONE', *, *, #489, .F. ) ;
#321 = CIRCLE ( 'NONE', #711, 2.125000000000001332 ) ;
#322 = EDGE_LOOP ( 'NONE', ( #484, #314, #1041, #188, #130, #1067, #587, #1029 ) ) ;
#323 = VECTOR ( 'NONE', #692, 1000.000000000000000 ) ;
#324 = LINE ( 'NONE', #485, #22 ) ;
#325 = FACE_BOUND ( 'NONE', #582, .T. ) ;
#326 = VERTEX_POINT ( 'NONE', #564 ) ;
#327 = ADVANCED_FACE ( 'NONE', ( #128 ), #741, .T. ) ;
#328 = ORIENTED_EDGE ( 'NONE', *, *, #1036, .T. ) ;
#329 = COORDINATED_UNIVERSAL_TIME_OFFSET ( 5, 0, .BEHIND. ) ;
#330 = CARTESIAN_POINT ( 'NONE',  ( 9.934999999999998721, -7.170056306102291721, -5.640020000000000699 ) ) ;
#331 = DIRECTION ( 'NONE',  ( 0.000000000000000000, 0.000000000000000000, 1.000000000000000000 ) ) ;
#332 = EDGE_CURVE ( 'NONE', #1082, #1104, #1008, .T. ) ;
#333 = VERTEX_POINT ( 'NONE', #50 ) ;
#334 = CARTESIAN_POINT ( 'NONE',  ( 2.125000000000001332, -19.99999999999999289, 0.000000000000000000 ) ) ;
#335 = CARTESIAN_POINT ( 'NONE',  ( 8.439999999999997726, -2.800056306102291614, -5.640020000000000699 ) ) ;
#336 = AXIS2_PLACEMENT_3D ( 'NONE', #999, #291, #987 ) ;
#337 = CARTESIAN_POINT ( 'NONE',  ( 11.49999999999999645, -2.800056306102291614, -5.640020000000000699 ) ) ;
#338 = ORIENTED_EDGE ( 'NONE', *, *, #418, .F. ) ;
#339 = EDGE_CURVE ( 'NONE', #1132, #945, #149, .T. ) ;
#340 = DIRECTION ( 'NONE',  ( 0.000000000000000000, 1.000000000000000000, -0.000000000000000000 ) ) ;
#341 = AXIS2_PLACEMENT_3D ( 'NONE', #1117, #857, #250 ) ;
#342 = FACE_OUTER_BOUND ( 'NONE', #830, .T. ) ;
#343 = DIRECTION ( 'NONE',  ( 0.000000000000000000, -0.000000000000000000, 1.000000000000000000 ) ) ;
#344 = VERTEX_POINT ( 'NONE', #1016 ) ;
#345 = DATE_AND_TIME ( #1133, #851 ) ;
#346 = DIRECTION ( 'NONE',  ( 1.000000000000000000, 0.000000000000000000, 0.000000000000000000 ) ) ;
#347 = CARTESIAN_POINT ( 'NONE',  ( -2.125000000000000444, 20.00000000000000711, 0.000000000000000000 ) ) ;
#348 = ORIENTED_EDGE ( 'NONE', *, *, #1100, .T. ) ;
#349 = APPLICATION_PROTOCOL_DEFINITION ( 'international standard', 'config_control_design', 1994, #21 ) ;
#350 = VERTEX_POINT ( 'NONE', #475 ) ;
#351 = LINE ( 'NONE', #618, #761 ) ;
#352 = PLANE ( 'NONE',  #985 ) ;
#353 = EDGE_CURVE ( 'NONE', #62, #1132, #479, .T. ) ;
#354 = VECTOR ( 'NONE', #815, 1000.000000000000000 ) ;
#355 = ORIENTED_EDGE ( 'NONE', *, *, #363, .T. ) ;
#356 = VECTOR ( 'NONE', #263, 1000.000000000000000 ) ;
#357 = EDGE_LOOP ( 'NONE', ( #813, #753, #446, #934 ) ) ;
#358 = LINE ( 'NONE', #14, #818 ) ;
#359 = AXIS2_PLACEMENT_3D ( 'NONE', #1130, #515, #343 ) ;
#360 = PLANE ( 'NONE',  #143 ) ;
#361 = ADVANCED_FACE ( 'NONE', ( #755 ), #832, .F. ) ;
#362 = ORIENTED_EDGE ( 'NONE', *, *, #106, .T. ) ;
#363 = EDGE_CURVE ( 'NONE', #945, #171, #37, .T. ) ;
#364 = LINE ( 'NONE', #442, #856 ) ;
#365 = DIRECTION ( 'NONE',  ( 0.000000000000000000, 0.000000000000000000, 1.000000000000000000 ) ) ;
#366 = CYLINDRICAL_SURFACE ( 'NONE', #305, 2.125000000000001332 ) ;
#367 = ADVANCED_FACE ( 'NONE', ( #398 ), #586, .F. ) ;
#368 = ORIENTED_EDGE ( 'NONE', *, *, #319, .T. ) ;
#369 = LINE ( 'NONE', #718, #964 ) ;
#370 = CARTESIAN_POINT ( 'NONE',  ( -8.439999999999997726, 8.947424210352387774, 0.000000000000000000 ) ) ;
#371 = CARTESIAN_POINT ( 'NONE',  ( -8.439999999999997726, -2.800056306102291614, -5.640020000000000699 ) ) ;
#372 = VECTOR ( 'NONE', #637, 1000.000000000000000 ) ;
#373 = CARTESIAN_POINT ( 'NONE',  ( 0.000000000000000000, 0.000000000000000000, 4.000000000000000000 ) ) ;
#374 = EDGE_CURVE ( 'NONE', #518, #98, #394, .T. ) ;
#375 = VECTOR ( 'NONE', #902, 1000.000000000000000 ) ;
#376 = CARTESIAN_POINT ( 'NONE',  ( -8.439999999999995950, -7.170056306102291721, 4.000000000000000000 ) ) ;
#377 = FACE_OUTER_BOUND ( 'NONE', #276, .T. ) ;
#378 = VECTOR ( 'NONE', #235, 1000.000000000000000 ) ;
#379 = ORIENTED_EDGE ( 'NONE', *, *, #401, .F. ) ;
#380 = LINE ( 'NONE', #648, #948 ) ;
#381 = DIRECTION ( 'NONE',  ( 0.000000000000000000, -1.000000000000000000, 0.000000000000000000 ) ) ;
#382 = FACE_OUTER_BOUND ( 'NONE', #742, .T. ) ;
#383 = VERTEX_POINT ( 'NONE', #751 ) ;
#384 = ORIENTED_EDGE ( 'NONE', *, *, #1036, .F. ) ;
#385 = FACE_OUTER_BOUND ( 'NONE', #405, .T. ) ;
#386 = DIRECTION ( 'NONE',  ( 0.000000000000000000, 0.000000000000000000, 1.000000000000000000 ) ) ;
#387 = ORIENTED_EDGE ( 'NONE', *, *, #293, .F. ) ;
#388 = EDGE_CURVE ( 'NONE', #62, #1125, #492, .T. ) ;
#389 = ORIENTED_EDGE ( 'NONE', *, *, #374, .T. ) ;
#390 = DIRECTION ( 'NONE',  ( -1.000000000000000000, 0.000000000000000000, 0.000000000000000000 ) ) ;
#391 = LINE ( 'NONE', #667, #378 ) ;
#392 = DESIGN_CONTEXT ( 'detailed design', #708, 'design' ) ;
#393 = EDGE_LOOP ( 'NONE', ( #826, #307, #869, #794, #384, #808, #119, #134 ) ) ;
#394 = CIRCLE ( 'NONE', #1040, 2.125000000000000444 ) ;
#395 = APPROVAL ( #803, 'UNSPECIFIED' ) ;
#396 = ORIENTED_EDGE ( 'NONE', *, *, #834, .F. ) ;
#397 = CARTESIAN_POINT ( 'NONE',  ( 11.49999999999999645, -2.800056306102291614, -5.640020000000000699 ) ) ;
#398 = FACE_OUTER_BOUND ( 'NONE', #1055, .T. ) ;
#399 = ORIENTED_EDGE ( 'NONE', *, *, #161, .F. ) ;
#400 = VERTEX_POINT ( 'NONE', #313 ) ;
#401 = EDGE_CURVE ( 'NONE', #1086, #171, #391, .T. ) ;
#402 = CARTESIAN_POINT ( 'NONE',  ( -8.439999999999995950, -9.170056306102292609, 0.000000000000000000 ) ) ;
#403 = FACE_OUTER_BOUND ( 'NONE', #770, .T. ) ;
#404 = ORIENTED_EDGE ( 'NONE', *, *, #666, .T. ) ;
#405 = EDGE_LOOP ( 'NONE', ( #1137, #670, #859, #108, #179, #1019 ) ) ;
#406 = AXIS2_PLACEMENT_3D ( 'NONE', #42, #390, #228 ) ;
#407 = PLANE ( 'NONE',  #797 ) ;
#408 = CC_DESIGN_PERSON_AND_ORGANIZATION_ASSIGNMENT ( #1031, #860, ( #777 ) ) ;
#409 = DIRECTION ( 'NONE',  ( -0.000000000000000000, -0.000000000000000000, -1.000000000000000000 ) ) ;
#410 = VERTEX_POINT ( 'NONE', #760 ) ;
#411 = VECTOR ( 'NONE', #785, 1000.000000000000000 ) ;
#412 = EDGE_LOOP ( 'NONE', ( #875, #758, #1046, #654, #577, #686 ) ) ;
#413 = AXIS2_PLACEMENT_3D ( 'NONE', #932, #657, #1090 ) ;
#414 = VECTOR ( 'NONE', #274, 1000.000000000000000 ) ;
#415 = CARTESIAN_POINT ( 'NONE',  ( -2.125000000000001332, -19.99999999999999289, 0.000000000000000000 ) ) ;
#416 = DIRECTION ( 'NONE',  ( -0.000000000000000000, -0.000000000000000000, -1.000000000000000000 ) ) ;
#417 = LINE ( 'NONE', #703, #202 ) ;
#418 = EDGE_CURVE ( 'NONE', #344, #227, #216, .T. ) ;
#419 = EDGE_LOOP ( 'NONE', ( #41, #71, #338, #965 ) ) ;
#420 = PERSON_AND_ORGANIZATION_ROLE ( 'design_supplier' ) ;
#421 = CARTESIAN_POINT ( 'NONE',  ( -2.125000000000001332, -19.99999999999999289, 4.000000000000000000 ) ) ;
#422 = CARTESIAN_POINT ( 'NONE',  ( 0.000000000000000000, 0.000000000000000000, 4.000000000000000000 ) ) ;
#423 = DIRECTION ( 'NONE',  ( 1.000000000000000000, -0.000000000000000000, -0.000000000000000000 ) ) ;
#424 = ADVANCED_FACE ( 'NONE', ( #427 ), #701, .F. ) ;
#425 = VERTEX_POINT ( 'NONE', #421 ) ;
#426 = DIRECTION ( 'NONE',  ( -0.000000000000000000, 1.000000000000000000, -0.000000000000000000 ) ) ;
#427 = FACE_OUTER_BOUND ( 'NONE', #56, .T. ) ;
#428 = CARTESIAN_POINT ( 'NONE',  ( -8.439999999999997726, 8.947424210352387774, 4.000000000000000000 ) ) ;
#429 = FACE_OUTER_BOUND ( 'NONE', #34, .T. ) ;
#430 = ORIENTED_EDGE ( 'NONE', *, *, #723, .F. ) ;
#431 = ADVANCED_FACE ( 'NONE', ( #942, #325 ), #690, .F. ) ;
#432 = APPROVAL_ROLE ( '' ) ;
#433 = AXIS2_PLACEMENT_3D ( 'NONE', #1064, #798, #20 ) ;
#434 = PLANE ( 'NONE',  #1060 ) ;
#435 = DIRECTION ( 'NONE',  ( 0.000000000000000000, 0.000000000000000000, 1.000000000000000000 ) ) ;
#436 = DIRECTION ( 'NONE',  ( 0.000000000000000000, 0.000000000000000000, 1.000000000000000000 ) ) ;
#437 = EDGE_LOOP ( 'NONE', ( #664, #320, #1002, #498 ) ) ;
#438 = LINE ( 'NONE', #953, #743 ) ;
#439 = CARTESIAN_POINT ( 'NONE',  ( 0.000000000000000000, -7.170056306102291721, 4.000000000000000000 ) ) ;
#440 = CARTESIAN_POINT ( 'NONE',  ( 8.439999999999997726, 8.947424210352387774, 4.000000000000000000 ) ) ;
#441 = ORIENTED_EDGE ( 'NONE', *, *, #332, .F. ) ;
#442 = CARTESIAN_POINT ( 'NONE',  ( 8.439999999999995950, -7.170056306102291721, 4.000000000000000000 ) ) ;
#443 = LINE ( 'NONE', #9, #414 ) ;
#444 = CARTESIAN_POINT ( 'NONE',  ( 8.439999999999997726, 8.947424210352387774, 0.000000000000000000 ) ) ;
#445 = VECTOR ( 'NONE', #365, 1000.000000000000000 ) ;
#446 = ORIENTED_EDGE ( 'NONE', *, *, #863, .T. ) ;
#447 = VECTOR ( 'NONE', #878, 1000.000000000000000 ) ;
#448 = DATE_AND_TIME ( #996, #961 ) ;
#449 = DIRECTION ( 'NONE',  ( 1.000000000000000000, 0.000000000000000000, 0.000000000000000000 ) ) ;
#450 = AXIS2_PLACEMENT_3D ( 'NONE', #55, #309, #746 ) ;
#451 = LINE ( 'NONE', #104, #372 ) ;
#452 = DIRECTION ( 'NONE',  ( 1.000000000000000000, 0.000000000000000000, 0.000000000000000000 ) ) ;
#453 = DATE_TIME_ROLE ( 'classification_date' ) ;
#454 = EDGE_LOOP ( 'NONE', ( #196, #833 ) ) ;
#455 = CARTESIAN_POINT ( 'NONE',  ( 11.50000000000000355, -5.200056306102291970, -7.640020000000000699 ) ) ;
#456 = DIRECTION ( 'NONE',  ( 0.000000000000000000, -1.000000000000000000, 0.000000000000000000 ) ) ;
#457 = PRODUCT_DEFINITION_SHAPE ( 'NONE', 'NONE',  #989 ) ;
#458 = FACE_OUTER_BOUND ( 'NONE', #322, .T. ) ;
#459 = EDGE_CURVE ( 'NONE', #783, #896, #520, .T. ) ;
#460 = FACE_OUTER_BOUND ( 'NONE', #77, .T. ) ;
#461 = CARTESIAN_POINT ( 'NONE',  ( 9.934999999999998721, -7.170056306102291721, 4.000000000000000000 ) ) ;
#462 = DIRECTION ( 'NONE',  ( 0.000000000000000000, -1.000000000000000000, 0.000000000000000000 ) ) ;
#463 = LOCAL_TIME ( 12, 24, 32.00000000000000000, #1066 ) ;
#464 = ORIENTED_EDGE ( 'NONE', *, *, #418, .T. ) ;
#465 = LINE ( 'NONE', #561, #157 ) ;
#466 = VECTOR ( 'NONE', #67, 1000.000000000000000 ) ;
#467 = EDGE_CURVE ( 'NONE', #344, #350, #154, .T. ) ;
#468 = LINE ( 'NONE', #823, #1091 ) ;
#469 = CARTESIAN_POINT ( 'NONE',  ( 0.000000000000000000, 0.000000000000000000, 0.000000000000000000 ) ) ;
#470 = VERTEX_POINT ( 'NONE', #600 ) ;
#471 = AXIS2_PLACEMENT_3D ( 'NONE', #529, #436, #879 ) ;
#472 = ORIENTED_EDGE ( 'NONE', *, *, #286, .F. ) ;
#473 = CARTESIAN_POINT ( 'NONE',  ( -8.439999999999995950, -7.170056306102291721, -5.640020000000000699 ) ) ;
#474 = ADVANCED_FACE ( 'NONE', ( #342 ), #434, .F. ) ;
#475 = CARTESIAN_POINT ( 'NONE',  ( -11.49999999999999645, 25.00000000000000711, 0.000000000000000000 ) ) ;
#476 = VERTEX_POINT ( 'NONE', #514 ) ;
#477 = VERTEX_POINT ( 'NONE', #254 ) ;
#478 = FACE_OUTER_BOUND ( 'NONE', #705, .T. ) ;
#479 = LINE ( 'NONE', #496, #542 ) ;
#480 = CC_DESIGN_PERSON_AND_ORGANIZATION_ASSIGNMENT ( #78, #262, ( #634 ) ) ;
#481 = ORIENTED_EDGE ( 'NONE', *, *, #550, .F. ) ;
#482 = EDGE_CURVE ( 'NONE', #617, #146, #696, .T. ) ;
#483 = VECTOR ( 'NONE', #903, 1000.000000000000000 ) ;
#484 = ORIENTED_EDGE ( 'NONE', *, *, #339, .F. ) ;
#485 = CARTESIAN_POINT ( 'NONE',  ( -11.49999999999999645, -2.800056306102291614, -5.640020000000000699 ) ) ;
#486 = DIRECTION ( 'NONE',  ( 0.000000000000000000, -0.000000000000000000, 1.000000000000000000 ) ) ;
#487 = ORIENTED_EDGE ( 'NONE', *, *, #955, .F. ) ;
#488 = VECTOR ( 'NONE', #736, 1000.000000000000000 ) ;
#489 = EDGE_CURVE ( 'NONE', #1010, #968, #27, .T. ) ;
#490 = ORIENTED_EDGE ( 'NONE', *, *, #116, .F. ) ;
#491 = CARTESIAN_POINT ( 'NONE',  ( -8.439999999999995950, -8.947424210352389551, 4.000000000000000000 ) ) ;
#492 = LINE ( 'NONE', #1102, #238 ) ;
#493 = ORIENTED_EDGE ( 'NONE', *, *, #531, .F. ) ;
#494 = ORIENTED_EDGE ( 'NONE', *, *, #1044, .T. ) ;
#495 = CARTESIAN_POINT ( 'NONE',  ( -8.439999999999995950, -8.947424210352389551, 4.000000000000000000 ) ) ;
#496 = CARTESIAN_POINT ( 'NONE',  ( -8.439999999999997726, -2.800056306102291614, -5.640020000000000699 ) ) ;
#497 = ORIENTED_EDGE ( 'NONE', *, *, #821, .F. ) ;
#498 = ORIENTED_EDGE ( 'NONE', *, *, #1124, .T. ) ;
#499 = CIRCLE ( 'NONE', #870, 12.30000000000000071 ) ;
#500 = LINE ( 'NONE', #1110, #980 ) ;
#501 = DIRECTION ( 'NONE',  ( 0.000000000000000000, 0.000000000000000000, 1.000000000000000000 ) ) ;
#502 = EDGE_CURVE ( 'NONE', #470, #400, #1038, .T. ) ;
#503 = FACE_BOUND ( 'NONE', #47, .T. ) ;
#504 = VECTOR ( 'NONE', #553, 1000.000000000000000 ) ;
#505 = VECTOR ( 'NONE', #596, 1000.000000000000000 ) ;
#506 = ORIENTED_EDGE ( 'NONE', *, *, #24, .F. ) ;
#507 = APPROVAL_DATE_TIME ( #159, #259 ) ;
#508 = CARTESIAN_POINT ( 'NONE',  ( 2.125000000000000444, 20.00000000000000711, 0.000000000000000000 ) ) ;
#509 = MANIFOLD_SOLID_BREP ( 'Boss-Extrude4', #747 ) ;
#510 = EDGE_CURVE ( 'NONE', #410, #991, #684, .T. ) ;
#511 = PLANE ( 'NONE',  #341 ) ;
#512 = ORIENTED_EDGE ( 'NONE', *, *, #784, .T. ) ;
#513 = DIRECTION ( 'NONE',  ( 0.000000000000000000, 0.000000000000000000, 1.000000000000000000 ) ) ;
#514 = CARTESIAN_POINT ( 'NONE',  ( -9.934999999999998721, -7.170056306102291721, 4.000000000000000000 ) ) ;
#515 = DIRECTION ( 'NONE',  ( 0.000000000000000000, 1.000000000000000000, 0.000000000000000000 ) ) ;
#516 = EDGE_CURVE ( 'NONE', #326, #261, #947, .T. ) ;
#517 = EDGE_CURVE ( 'NONE', #261, #476, #245, .T. ) ;
#518 = VERTEX_POINT ( 'NONE', #508 ) ;
#519 = DIRECTION ( 'NONE',  ( 0.000000000000000000, 0.000000000000000000, 1.000000000000000000 ) ) ;
#520 = LINE ( 'NONE', #872, #822 ) ;
#521 = AXIS2_PLACEMENT_3D ( 'NONE', #312, #1015, #665 ) ;
#522 = DIRECTION ( 'NONE',  ( 1.000000000000000000, 0.000000000000000000, 0.000000000000000000 ) ) ;
#523 = LINE ( 'NONE', #81, #693 ) ;
#524 = VECTOR ( 'NONE', #522, 1000.000000000000000 ) ;
#525 = EDGE_CURVE ( 'NONE', #1104, #151, #767, .T. ) ;
#526 = EDGE_LOOP ( 'NONE', ( #315, #64, #232, #497, #610 ) ) ;
#527 = VECTOR ( 'NONE', #256, 1000.000000000000000 ) ;
#528 = CARTESIAN_POINT ( 'NONE',  ( 11.50000000000000355, 0.000000000000000000, 4.000000000000000000 ) ) ;
#529 = CARTESIAN_POINT ( 'NONE',  ( 0.000000000000000000, 0.000000000000000000, -5.640020000000000699 ) ) ;
#530 = ORIENTED_EDGE ( 'NONE', *, *, #517, .F. ) ;
#531 = EDGE_CURVE ( 'NONE', #727, #227, #963, .T. ) ;
#532 = DIRECTION ( 'NONE',  ( 1.000000000000000000, 0.000000000000000000, 0.000000000000000000 ) ) ;
#533 = DIRECTION ( 'NONE',  ( 1.000000000000000000, -0.000000000000000000, -0.000000000000000000 ) ) ;
#534 = DIRECTION ( 'NONE',  ( 0.000000000000000000, -1.000000000000000000, 0.000000000000000000 ) ) ;
#535 = ORIENTED_EDGE ( 'NONE', *, *, #126, .F. ) ;
#536 = LINE ( 'NONE', #1078, #616 ) ;
#537 = DIRECTION ( 'NONE',  ( 0.000000000000000000, -0.000000000000000000, 1.000000000000000000 ) ) ;
#538 = EDGE_CURVE ( 'NONE', #1109, #470, #1116, .T. ) ;
#539 = DIRECTION ( 'NONE',  ( 1.000000000000000000, 0.000000000000000000, 0.000000000000000000 ) ) ;
#540 = ORIENTED_EDGE ( 'NONE', *, *, #32, .F. ) ;
#541 = FACE_OUTER_BOUND ( 'NONE', #419, .T. ) ;
#542 = VECTOR ( 'NONE', #386, 1000.000000000000000 ) ;
#543 = CARTESIAN_POINT ( 'NONE',  ( -11.49999999999999645, -9.170056306102292609, -5.640020000000000699 ) ) ;
#544 = CARTESIAN_POINT ( 'NONE',  ( -11.49999999999999645, -9.170056306102292609, 0.000000000000000000 ) ) ;
#545 = EDGE_CURVE ( 'NONE', #29, #350, #73, .T. ) ;
#546 = APPROVAL_DATE_TIME ( #118, #395 ) ;
#547 = LINE ( 'NONE', #455, #375 ) ;
#548 = PLANE ( 'NONE',  #82 ) ;
#549 = CARTESIAN_POINT ( 'NONE',  ( 11.50000000000000355, -9.170056306102292609, -7.640020000000000699 ) ) ;
#550 = EDGE_CURVE ( 'NONE', #1010, #680, #606, .T. ) ;
#551 = APPROVAL_ROLE ( '' ) ;
#552 = ORIENTED_EDGE ( 'NONE', *, *, #622, .T. ) ;
#553 = DIRECTION ( 'NONE',  ( -0.000000000000000000, -0.000000000000000000, -1.000000000000000000 ) ) ;
#554 = CARTESIAN_POINT ( 'NONE',  ( 0.000000000000000000, -19.99999999999999289, 0.000000000000000000 ) ) ;
#555 = LINE ( 'NONE', #909, #802 ) ;
#556 = VERTEX_POINT ( 'NONE', #1043 ) ;
#557 = AXIS2_PLACEMENT_3D ( 'NONE', #1037, #519, #1128 ) ;
#558 = EDGE_CURVE ( 'NONE', #968, #425, #958, .T. ) ;
#559 = SHAPE_DEFINITION_REPRESENTATION ( #457, #223 ) ;
#560 = ORIENTED_EDGE ( 'NONE', *, *, #17, .T. ) ;
#561 = CARTESIAN_POINT ( 'NONE',  ( -9.934999999999998721, -7.170056306102291721, 4.000000000000000000 ) ) ;
#562 = VECTOR ( 'NONE', #992, 1000.000000000000000 ) ;
#563 = DIRECTION ( 'NONE',  ( 0.000000000000000000, -0.000000000000000000, -1.000000000000000000 ) ) ;
#564 = CARTESIAN_POINT ( 'NONE',  ( -8.439999999999997726, -4.800056306102291614, 4.000000000000000000 ) ) ;
#565 = VECTOR ( 'NONE', #1058, 1000.000000000000000 ) ;
#566 = ORIENTED_EDGE ( 'NONE', *, *, #482, .T. ) ;
#567 = VECTOR ( 'NONE', #248, 1000.000000000000000 ) ;
#568 = ORIENTED_EDGE ( 'NONE', *, *, #1051, .F. ) ;
#569 = EDGE_CURVE ( 'NONE', #846, #1082, #369, .T. ) ;
#570 = CARTESIAN_POINT ( 'NONE',  ( 0.000000000000000000, -4.800056306102291614, 4.000000000000000000 ) ) ;
#571 = DIRECTION ( 'NONE',  ( 1.000000000000000000, 0.000000000000000000, 0.000000000000000000 ) ) ;
#572 = VERTEX_POINT ( 'NONE', #203 ) ;
#573 = ORIENTED_EDGE ( 'NONE', *, *, #222, .T. ) ;
#574 = DIRECTION ( 'NONE',  ( 0.000000000000000000, 0.000000000000000000, 1.000000000000000000 ) ) ;
#575 = DIRECTION ( 'NONE',  ( 1.000000000000000000, -0.000000000000000000, -0.000000000000000000 ) ) ;
#576 = EDGE_CURVE ( 'NONE', #518, #1107, #358, .T. ) ;
#577 = ORIENTED_EDGE ( 'NONE', *, *, #784, .F. ) ;
#578 = VECTOR ( 'NONE', #1022, 1000.000000000000000 ) ;
#579 = VERTEX_POINT ( 'NONE', #796 ) ;
#580 = DIRECTION ( 'NONE',  ( -0.000000000000000000, 0.000000000000000000, -1.000000000000000000 ) ) ;
#581 = DIRECTION ( 'NONE',  ( 1.000000000000000000, 0.000000000000000000, 0.000000000000000000 ) ) ;
#582 = EDGE_LOOP ( 'NONE', ( #960, #243 ) ) ;
#583 = EDGE_CURVE ( 'NONE', #383, #150, #18, .T. ) ;
#584 = ORIENTED_EDGE ( 'NONE', *, *, #602, .T. ) ;
#585 = CARTESIAN_POINT ( 'NONE',  ( 8.439999999999997726, -2.800056306102291614, -5.640020000000000699 ) ) ;
#586 = PLANE ( 'NONE',  #764 ) ;
#587 = ORIENTED_EDGE ( 'NONE', *, *, #401, .T. ) ;
#588 = ORIENTED_EDGE ( 'NONE', *, *, #388, .T. ) ;
#589 = LINE ( 'NONE', #570, #195 ) ;
#590 = DIRECTION ( 'NONE',  ( 0.000000000000000000, 1.000000000000000000, 0.000000000000000000 ) ) ;
#591 = ORIENTED_EDGE ( 'NONE', *, *, #675, .T. ) ;
#592 = VERTEX_POINT ( 'NONE', #1068 ) ;
#593 = ADVANCED_FACE ( 'NONE', ( #460 ), #23, .T. ) ;
#594 = LINE ( 'NONE', #92, #316 ) ;
#595 = CARTESIAN_POINT ( 'NONE',  ( 0.000000000000000000, -19.99999999999999289, 0.000000000000000000 ) ) ;
#596 = DIRECTION ( 'NONE',  ( -0.000000000000000000, 1.000000000000000000, -0.000000000000000000 ) ) ;
#597 = VECTOR ( 'NONE', #70, 1000.000000000000000 ) ;
#598 = ORIENTED_EDGE ( 'NONE', *, *, #995, .T. ) ;
#599 = EDGE_CURVE ( 'NONE', #51, #344, #628, .T. ) ;
#600 = CARTESIAN_POINT ( 'NONE',  ( 8.439999999999995950, -7.170056306102291721, -5.640020000000000699 ) ) ;
#601 = LINE ( 'NONE', #121, #1034 ) ;
#602 = EDGE_CURVE ( 'NONE', #146, #470, #364, .T. ) ;
#603 = PLANE ( 'NONE',  #359 ) ;
#604 = ORIENTED_EDGE ( 'NONE', *, *, #1059, .F. ) ;
#605 =( NAMED_UNIT ( * ) SI_UNIT ( $, .STERADIAN. ) SOLID_ANGLE_UNIT ( ) );
#606 = LINE ( 'NONE', #334, #267 ) ;
#607 = LINE ( 'NONE', #619, #524 ) ;
#608 = CARTESIAN_POINT ( 'NONE',  ( 11.50000000000000355, -5.200056306102291970, -5.640020000000000699 ) ) ;
#609 = ADVANCED_FACE ( 'NONE', ( #273, #804, #623, #541 ), #278, .T. ) ;
#610 = ORIENTED_EDGE ( 'NONE', *, *, #517, .T. ) ;
#611 = PERSON_AND_ORGANIZATION ( #284, #135 ) ;
#612 = CARTESIAN_POINT ( 'NONE',  ( -9.934999999999998721, 0.000000000000000000, 4.000000000000000000 ) ) ;
#613 = CARTESIAN_POINT ( 'NONE',  ( -9.934999999999998721, -4.800056306102291614, -5.640020000000000699 ) ) ;
#614 = PLANE ( 'NONE',  #471 ) ;
#615 = APPROVAL ( #178, 'UNSPECIFIED' ) ;
#616 = VECTOR ( 'NONE', #889, 1000.000000000000000 ) ;
#617 = VERTEX_POINT ( 'NONE', #974 ) ;
#618 = CARTESIAN_POINT ( 'NONE',  ( -2.125000000000000444, 20.00000000000000711, 0.000000000000000000 ) ) ;
#619 = CARTESIAN_POINT ( 'NONE',  ( 0.000000000000000000, -24.99999999999999289, 4.000000000000000000 ) ) ;
#620 = DIRECTION ( 'NONE',  ( -0.000000000000000000, -0.000000000000000000, 1.000000000000000000 ) ) ;
#621 = ORIENTED_EDGE ( 'NONE', *, *, #206, .F. ) ;
#622 = EDGE_CURVE ( 'NONE', #704, #1065, #728, .T. ) ;
#623 = FACE_BOUND ( 'NONE', #454, .T. ) ;
#624 = FACE_OUTER_BOUND ( 'NONE', #208, .T. ) ;
#625 = LINE ( 'NONE', #371, #66 ) ;
#626 = ORIENTED_EDGE ( 'NONE', *, *, #1051, .T. ) ;
#627 = EDGE_LOOP ( 'NONE', ( #236, #936, #977, #257, #189, #888 ) ) ;
#628 = LINE ( 'NONE', #1072, #562 ) ;
#629 = EDGE_CURVE ( 'NONE', #733, #945, #536, .T. ) ;
#630 = DIRECTION ( 'NONE',  ( -1.000000000000000000, 0.000000000000000000, 0.000000000000000000 ) ) ;
#631 = DIRECTION ( 'NONE',  ( 0.000000000000000000, 1.000000000000000000, -0.000000000000000000 ) ) ;
#632 = AXIS2_PLACEMENT_3D ( 'NONE', #766, #831, #920 ) ;
#633 = VECTOR ( 'NONE', #340, 1000.000000000000000 ) ;
#634 = PRODUCT ( 'MagJackPlate', 'MagJackPlate', '', ( #865 ) ) ;
#635 = CALENDAR_DATE ( 2026, 10, 6 ) ;
#636 = DIRECTION ( 'NONE',  ( -0.000000000000000000, -0.000000000000000000, -1.000000000000000000 ) ) ;
#637 = DIRECTION ( 'NONE',  ( 1.000000000000000000, 0.000000000000000000, 0.000000000000000000 ) ) ;
#638 = LINE ( 'NONE', #893, #219 ) ;
#639 = EDGE_CURVE ( 'NONE', #846, #776, #897, .T. ) ;
#640 = PERSON_AND_ORGANIZATION ( #284, #135 ) ;
#641 = ORIENTED_EDGE ( 'NONE', *, *, #645, .T. ) ;
#642 = CARTESIAN_POINT ( 'NONE',  ( 8.439999999999997726, -4.800056306102291614, 4.000000000000000000 ) ) ;
#643 = FACE_OUTER_BOUND ( 'NONE', #437, .T. ) ;
#644 = DIRECTION ( 'NONE',  ( 0.000000000000000000, -0.000000000000000000, -1.000000000000000000 ) ) ;
#645 = EDGE_CURVE ( 'NONE', #425, #680, #321, .T. ) ;
#646 = COORDINATED_UNIVERSAL_TIME_OFFSET ( 5, 0, .BEHIND. ) ;
#647 = ORIENTED_EDGE ( 'NONE', *, *, #716, .F. ) ;
#648 = CARTESIAN_POINT ( 'NONE',  ( 11.50000000000000355, -5.200056306102291970, -5.640020000000000699 ) ) ;
#649 = DIRECTION ( 'NONE',  ( 1.000000000000000000, 0.000000000000000000, 0.000000000000000000 ) ) ;
#650 = LINE ( 'NONE', #849, #107 ) ;
#651 = VERTEX_POINT ( 'NONE', #109 ) ;
#652 = APPROVAL_PERSON_ORGANIZATION ( #611, #259, #962 ) ;
#653 = CC_DESIGN_PERSON_AND_ORGANIZATION_ASSIGNMENT ( #207, #990, ( #249 ) ) ;
#654 = ORIENTED_EDGE ( 'NONE', *, *, #24, .T. ) ;
#655 = AXIS2_PLACEMENT_3D ( 'NONE', #120, #791, #1 ) ;
#656 = CARTESIAN_POINT ( 'NONE',  ( -11.49999999999999645, -9.170056306102292609, -7.640020000000000699 ) ) ;
#657 = DIRECTION ( 'NONE',  ( 1.000000000000000000, 0.000000000000000000, -0.000000000000000000 ) ) ;
#658 = VECTOR ( 'NONE', #1080, 1000.000000000000000 ) ;
#659 = ORIENTED_EDGE ( 'NONE', *, *, #1081, .F. ) ;
#660 = ORIENTED_EDGE ( 'NONE', *, *, #2, .T. ) ;
#661 = CARTESIAN_POINT ( 'NONE',  ( -11.49999999999999645, -5.200056306102291970, -7.640020000000000699 ) ) ;
#662 = DIRECTION ( 'NONE',  ( 0.000000000000000000, 1.000000000000000000, -0.000000000000000000 ) ) ;
#663 = ORIENTED_EDGE ( 'NONE', *, *, #558, .T. ) ;
#664 = ORIENTED_EDGE ( 'NONE', *, *, #558, .F. ) ;
#665 = DIRECTION ( 'NONE',  ( 1.000000000000000000, 0.000000000000000000, 0.000000000000000000 ) ) ;
#666 = EDGE_CURVE ( 'NONE', #1098, #410, #547, .T. ) ;
#667 = CARTESIAN_POINT ( 'NONE',  ( 8.439999999999997726, 0.000000000000000000, 0.000000000000000000 ) ) ;
#668 = ORIENTED_EDGE ( 'NONE', *, *, #900, .F. ) ;
#669 = APPROVAL_PERSON_ORGANIZATION ( #85, #615, #432 ) ;
#670 = ORIENTED_EDGE ( 'NONE', *, *, #116, .T. ) ;
#671 = LINE ( 'NONE', #397, #578 ) ;
#672 = CARTESIAN_POINT ( 'NONE',  ( -8.439999999999997726, 0.000000000000000000, 0.000000000000000000 ) ) ;
#673 = CIRCLE ( 'NONE', #984, 2.125000000000001332 ) ;
#674 = ORIENTED_EDGE ( 'NONE', *, *, #622, .F. ) ;
#675 = EDGE_CURVE ( 'NONE', #125, #651, #113, .T. ) ;
#676 = AXIS2_PLACEMENT_3D ( 'NONE', #779, #1111, #86 ) ;
#677 = ORIENTED_EDGE ( 'NONE', *, *, #152, .T. ) ;
#678 = DIRECTION ( 'NONE',  ( 1.000000000000000000, 0.000000000000000000, -0.000000000000000000 ) ) ;
#679 = CARTESIAN_POINT ( 'NONE',  ( 8.439999999999995950, -7.170056306102291721, -5.640020000000000699 ) ) ;
#680 = VERTEX_POINT ( 'NONE', #907 ) ;
#681 = EDGE_CURVE ( 'NONE', #1107, #592, #10, .T. ) ;
#682 = EDGE_LOOP ( 'NONE', ( #430, #790, #845, #5, #1113, #1013 ) ) ;
#683 = CALENDAR_DATE ( 2026, 10, 6 ) ;
#684 = LINE ( 'NONE', #866, #1057 ) ;
#685 = DIRECTION ( 'NONE',  ( 1.000000000000000000, 0.000000000000000000, -0.000000000000000000 ) ) ;
#686 = ORIENTED_EDGE ( 'NONE', *, *, #731, .T. ) ;
#687 = EDGE_CURVE ( 'NONE', #98, #592, #351, .T. ) ;
#688 = AXIS2_PLACEMENT_3D ( 'NONE', #554, #975, #908 ) ;
#689 = PERSON_AND_ORGANIZATION ( #284, #135 ) ;
#690 = PLANE ( 'NONE',  #182 ) ;
#691 = DIRECTION ( 'NONE',  ( -1.000000000000000000, 0.000000000000000000, 0.000000000000000000 ) ) ;
#692 = DIRECTION ( 'NONE',  ( 1.000000000000000000, 0.000000000000000000, 0.000000000000000000 ) ) ;
#693 = VECTOR ( 'NONE', #4, 1000.000000000000000 ) ;
#694 = ORIENTED_EDGE ( 'NONE', *, *, #812, .T. ) ;
#695 = CARTESIAN_POINT ( 'NONE',  ( 0.000000000000000000, 0.000000000000000000, 0.000000000000000000 ) ) ;
#696 = LINE ( 'NONE', #439, #567 ) ;
#697 = EDGE_CURVE ( 'NONE', #748, #699, #969, .T. ) ;
#698 = LINE ( 'NONE', #260, #565 ) ;
#699 = VERTEX_POINT ( 'NONE', #883 ) ;
#700 = PERSON_AND_ORGANIZATION_ROLE ( 'creator' ) ;
#701 = PLANE ( 'NONE',  #676 ) ;
#702 = CARTESIAN_POINT ( 'NONE',  ( 11.50000000000000355, -9.170056306102292609, 0.000000000000000000 ) ) ;
#703 = CARTESIAN_POINT ( 'NONE',  ( -0.000000000000000000, 25.00000000000000711, 0.000000000000000000 ) ) ;
#704 = VERTEX_POINT ( 'NONE', #914 ) ;
#705 = EDGE_LOOP ( 'NONE', ( #362, #738, #251, #404, #129, #96, #1061, #795, #493, #560 ) ) ;
#706 = DIRECTION ( 'NONE',  ( -0.000000000000000000, -0.000000000000000000, 1.000000000000000000 ) ) ;
#707 = AXIS2_PLACEMENT_3D ( 'NONE', #754, #1101, #136 ) ;
#708 = APPLICATION_CONTEXT ( 'configuration controlled 3d designs of mechanical parts and assemblies' ) ;
#709 = LINE ( 'NONE', #786, #1126 ) ;
#710 = LINE ( 'NONE', #873, #505 ) ;
#711 = AXIS2_PLACEMENT_3D ( 'NONE', #103, #290, #449 ) ;
#712 = ORIENTED_EDGE ( 'NONE', *, *, #184, .F. ) ;
#713 = VECTOR ( 'NONE', #877, 1000.000000000000000 ) ;
#714 = DIRECTION ( 'NONE',  ( 1.000000000000000000, 0.000000000000000000, -0.000000000000000000 ) ) ;
#715 = PLANE ( 'NONE',  #433 ) ;
#716 = EDGE_CURVE ( 'NONE', #476, #477, #465, .T. ) ;
#717 = ORIENTED_EDGE ( 'NONE', *, *, #921, .F. ) ;
#718 = CARTESIAN_POINT ( 'NONE',  ( 11.50000000000000355, -9.170056306102292609, -7.640020000000000699 ) ) ;
#719 = LINE ( 'NONE', #1069, #483 ) ;
#720 = CARTESIAN_POINT ( 'NONE',  ( 0.000000000000000000, -19.99999999999999289, 0.000000000000000000 ) ) ;
#721 = EDGE_CURVE ( 'NONE', #592, #1107, #800, .T. ) ;
#722 = DIRECTION ( 'NONE',  ( 1.000000000000000000, 0.000000000000000000, 0.000000000000000000 ) ) ;
#723 = EDGE_CURVE ( 'NONE', #333, #410, #380, .T. ) ;
#724 = DIRECTION ( 'NONE',  ( 1.000000000000000000, 0.000000000000000000, -0.000000000000000000 ) ) ;
#725 = CARTESIAN_POINT ( 'NONE',  ( -8.439999999999997726, 0.000000000000000000, 4.000000000000000000 ) ) ;
#726 = LOCAL_TIME ( 12, 24, 32.00000000000000000, #1047 ) ;
#727 = VERTEX_POINT ( 'NONE', #998 ) ;
#728 = LINE ( 'NONE', #190, #1003 ) ;
#729 = VECTOR ( 'NONE', #225, 1000.000000000000000 ) ;
#730 = CARTESIAN_POINT ( 'NONE',  ( 0.000000000000000000, 0.000000000000000000, 0.000000000000000000 ) ) ;
#731 = EDGE_CURVE ( 'NONE', #924, #1062, #214, .T. ) ;
#732 = LINE ( 'NONE', #806, #658 ) ;
#733 = VERTEX_POINT ( 'NONE', #94 ) ;
#734 = DIRECTION ( 'NONE',  ( 1.000000000000000000, -0.000000000000000000, -0.000000000000000000 ) ) ;
#735 = PLANE ( 'NONE',  #155 ) ;
#736 = DIRECTION ( 'NONE',  ( -1.000000000000000000, 0.000000000000000000, 0.000000000000000000 ) ) ;
#737 = CC_DESIGN_DATE_AND_TIME_ASSIGNMENT ( #1054, #1120, ( #989 ) ) ;
#738 = ORIENTED_EDGE ( 'NONE', *, *, #639, .F. ) ;
#739 = ORIENTED_EDGE ( 'NONE', *, *, #681, .F. ) ;
#740 = DIRECTION ( 'NONE',  ( 0.000000000000000000, -1.000000000000000000, 0.000000000000000000 ) ) ;
#741 = PLANE ( 'NONE',  #413 ) ;
#742 = EDGE_LOOP ( 'NONE', ( #166, #40, #801, #241 ) ) ;
#743 = VECTOR ( 'NONE', #426, 1000.000000000000000 ) ;
#744 = VERTEX_POINT ( 'NONE', #335 ) ;
#745 = CARTESIAN_POINT ( 'NONE',  ( 11.50000000000000355, -5.200056306102291970, -7.640020000000000699 ) ) ;
#746 = DIRECTION ( 'NONE',  ( 1.000000000000000000, 0.000000000000000000, 0.000000000000000000 ) ) ;
#747 = CLOSED_SHELL ( 'NONE', ( #973, #271, #112, #141, #1004, #807, #327, #91, #198, #201, #424, #191, #367, #76, #474, #1087, #279, #854, #361, #609, #431, #949, #170, #894, #69, #967, #38, #1073, #593, #841, #935 ) ) ;
#748 = VERTEX_POINT ( 'NONE', #613 ) ;
#749 = ORIENTED_EDGE ( 'NONE', *, *, #538, .T. ) ;
#750 = CARTESIAN_POINT ( 'NONE',  ( 9.934999999999998721, -4.800056306102291614, -5.640020000000000699 ) ) ;
#751 = CARTESIAN_POINT ( 'NONE',  ( -11.49999999999999645, -24.99999999999999289, 0.000000000000000000 ) ) ;
#752 = ORIENTED_EDGE ( 'NONE', *, *, #1135, .F. ) ;
#753 = ORIENTED_EDGE ( 'NONE', *, *, #1025, .F. ) ;
#754 = CARTESIAN_POINT ( 'NONE',  ( 8.439999999999995950, -9.170056306102292609, -5.640020000000000699 ) ) ;
#755 = FACE_OUTER_BOUND ( 'NONE', #35, .T. ) ;
#756 = ORIENTED_EDGE ( 'NONE', *, *, #459, .F. ) ;
#757 = VECTOR ( 'NONE', #937, 1000.000000000000000 ) ;
#758 = ORIENTED_EDGE ( 'NONE', *, *, #164, .F. ) ;
#759 = CARTESIAN_POINT ( 'NONE',  ( 11.49999999999999645, -2.800056306102291614, -5.640020000000000699 ) ) ;
#760 = CARTESIAN_POINT ( 'NONE',  ( 11.50000000000000355, -5.200056306102291970, -5.640020000000000699 ) ) ;
#761 = VECTOR ( 'NONE', #706, 1000.000000000000000 ) ;
#762 = EDGE_CURVE ( 'NONE', #51, #727, #607, .T. ) ;
#763 = ORIENTED_EDGE ( 'NONE', *, *, #583, .F. ) ;
#764 = AXIS2_PLACEMENT_3D ( 'NONE', #938, #145, #844 ) ;
#765 = VERTEX_POINT ( 'NONE', #3 ) ;
#766 = CARTESIAN_POINT ( 'NONE',  ( 0.000000000000000000, 0.000000000000000000, -5.640020000000000699 ) ) ;
#767 = LINE ( 'NONE', #1048, #356 ) ;
#768 = PLANE ( 'NONE',  #966 ) ;
#769 = EDGE_CURVE ( 'NONE', #968, #1010, #673, .T. ) ;
#770 = EDGE_LOOP ( 'NONE', ( #1024, #1114, #464, #660 ) ) ;
#771 =( NAMED_UNIT ( * ) PLANE_ANGLE_UNIT ( ) SI_UNIT ( $, .RADIAN. ) );
#772 = CARTESIAN_POINT ( 'NONE',  ( -11.49999999999999645, 0.000000000000000000, 0.000000000000000000 ) ) ;
#773 = DIRECTION ( 'NONE',  ( -0.000000000000000000, -0.000000000000000000, -1.000000000000000000 ) ) ;
#774 = CARTESIAN_POINT ( 'NONE',  ( -11.49999999999999645, -24.99999999999999289, 4.000000000000000000 ) ) ;
#775 = EDGE_CURVE ( 'NONE', #1132, #29, #709, .T. ) ;
#776 = VERTEX_POINT ( 'NONE', #702 ) ;
#777 = PRODUCT_DEFINITION_FORMATION_WITH_SPECIFIED_SOURCE ( 'ANY', '', #634, .NOT_KNOWN. ) ;
#778 = CARTESIAN_POINT ( 'NONE',  ( 8.439999999999997726, 0.000000000000000000, 4.000000000000000000 ) ) ;
#779 = CARTESIAN_POINT ( 'NONE',  ( -8.439999999999997726, 0.000000000000000000, 4.000000000000000000 ) ) ;
#780 = VECTOR ( 'NONE', #100, 1000.000000000000000 ) ;
#781 = FACE_OUTER_BOUND ( 'NONE', #300, .T. ) ;
#782 = VECTOR ( 'NONE', #631, 1000.000000000000000 ) ;
#783 = VERTEX_POINT ( 'NONE', #970 ) ;
#784 = EDGE_CURVE ( 'NONE', #924, #923, #885, .T. ) ;
#785 = DIRECTION ( 'NONE',  ( 0.000000000000000000, -1.000000000000000000, 0.000000000000000000 ) ) ;
#786 = CARTESIAN_POINT ( 'NONE',  ( -11.49999999999999645, -2.800056306102291614, 0.000000000000000000 ) ) ;
#787 = CARTESIAN_POINT ( 'NONE',  ( 11.50000000000000355, -24.99999999999999289, 4.000000000000000000 ) ) ;
#788 = ORIENTED_EDGE ( 'NONE', *, *, #629, .F. ) ;
#789 = DIRECTION ( 'NONE',  ( 0.000000000000000000, 1.000000000000000000, -0.000000000000000000 ) ) ;
#790 = ORIENTED_EDGE ( 'NONE', *, *, #242, .F. ) ;
#791 = DIRECTION ( 'NONE',  ( 0.000000000000000000, 0.000000000000000000, 1.000000000000000000 ) ) ;
#792 = EDGE_CURVE ( 'NONE', #733, #124, #168, .T. ) ;
#793 = CARTESIAN_POINT ( 'NONE',  ( -11.49999999999999645, -2.800056306102291614, 0.000000000000000000 ) ) ;
#794 = ORIENTED_EDGE ( 'NONE', *, *, #868, .T. ) ;
#795 = ORIENTED_EDGE ( 'NONE', *, *, #2, .F. ) ;
#796 = CARTESIAN_POINT ( 'NONE',  ( 11.50000000000000355, 25.00000000000000711, 0.000000000000000000 ) ) ;
#797 = AXIS2_PLACEMENT_3D ( 'NONE', #837, #678, #580 ) ;
#798 = DIRECTION ( 'NONE',  ( 1.000000000000000000, 0.000000000000000000, -0.000000000000000000 ) ) ;
#799 = EDGE_CURVE ( 'NONE', #1125, #151, #443, .T. ) ;
#800 = CIRCLE ( 'NONE', #123, 2.125000000000000444 ) ;
#801 = ORIENTED_EDGE ( 'NONE', *, *, #576, .T. ) ;
#802 = VECTOR ( 'NONE', #122, 1000.000000000000000 ) ;
#803 = APPROVAL_STATUS ( 'not_yet_approved' ) ;
#804 = FACE_BOUND ( 'NONE', #930, .T. ) ;
#805 = LINE ( 'NONE', #461, #354 ) ;
#806 = CARTESIAN_POINT ( 'NONE',  ( 9.934999999999998721, -4.800056306102291614, -5.640020000000000699 ) ) ;
#807 = ADVANCED_FACE ( 'NONE', ( #74 ), #950, .F. ) ;
#808 = ORIENTED_EDGE ( 'NONE', *, *, #884, .F. ) ;
#809 = DIRECTION ( 'NONE',  ( -1.000000000000000000, 0.000000000000000000, 0.000000000000000000 ) ) ;
#810 = CARTESIAN_POINT ( 'NONE',  ( -11.49999999999999645, 0.000000000000000000, 4.000000000000000000 ) ) ;
#811 = FACE_OUTER_BOUND ( 'NONE', #526, .T. ) ;
#812 = EDGE_CURVE ( 'NONE', #744, #651, #601, .T. ) ;
#813 = ORIENTED_EDGE ( 'NONE', *, *, #927, .F. ) ;
#814 = DIRECTION ( 'NONE',  ( -0.000000000000000000, -0.000000000000000000, 1.000000000000000000 ) ) ;
#815 = DIRECTION ( 'NONE',  ( -0.000000000000000000, -0.000000000000000000, -1.000000000000000000 ) ) ;
#816 = CARTESIAN_POINT ( 'NONE',  ( -8.439999999999995950, -9.170056306102292609, 0.000000000000000000 ) ) ;
#817 = LOCAL_TIME ( 12, 24, 32.00000000000000000, #329 ) ;
#818 = VECTOR ( 'NONE', #814, 1000.000000000000000 ) ;
#819 = ORIENTED_EDGE ( 'NONE', *, *, #599, .T. ) ;
#820 = DIRECTION ( 'NONE',  ( -0.000000000000000000, -0.000000000000000000, -1.000000000000000000 ) ) ;
#821 = EDGE_CURVE ( 'NONE', #261, #748, #827, .T. ) ;
#822 = VECTOR ( 'NONE', #162, 1000.000000000000000 ) ;
#823 = CARTESIAN_POINT ( 'NONE',  ( 8.439999999999995950, -7.170056306102291721, 0.000000000000000000 ) ) ;
#824 = DIRECTION ( 'NONE',  ( -0.000000000000000000, 0.000000000000000000, 1.000000000000000000 ) ) ;
#825 = ORIENTED_EDGE ( 'NONE', *, *, #538, .F. ) ;
#826 = ORIENTED_EDGE ( 'NONE', *, *, #1017, .F. ) ;
#827 = LINE ( 'NONE', #31, #233 ) ;
#828 = CARTESIAN_POINT ( 'NONE',  ( 0.000000000000000000, -7.170056306102291721, 4.000000000000000000 ) ) ;
#829 = ORIENTED_EDGE ( 'NONE', *, *, #32, .T. ) ;
#830 = EDGE_LOOP ( 'NONE', ( #237, #84, #1052, #183 ) ) ;
#831 = DIRECTION ( 'NONE',  ( 0.000000000000000000, 0.000000000000000000, -1.000000000000000000 ) ) ;
#832 = PLANE ( 'NONE',  #288 ) ;
#833 = ORIENTED_EDGE ( 'NONE', *, *, #645, .F. ) ;
#834 = EDGE_CURVE ( 'NONE', #383, #272, #451, .T. ) ;
#835 =( GEOMETRIC_REPRESENTATION_CONTEXT ( 3 ) GLOBAL_UNCERTAINTY_ASSIGNED_CONTEXT ( ( #39 ) ) GLOBAL_UNIT_ASSIGNED_CONTEXT ( ( #1042, #771, #605 ) ) REPRESENTATION_CONTEXT ( 'NONE', 'WORKASPACE' ) );
#836 = ORIENTED_EDGE ( 'NONE', *, *, #884, .T. ) ;
#837 = CARTESIAN_POINT ( 'NONE',  ( 8.439999999999995950, 0.000000000000000000, 4.000000000000000000 ) ) ;
#838 = CARTESIAN_POINT ( 'NONE',  ( -11.49999999999999645, -9.170056306102292609, -7.640020000000000699 ) ) ;
#839 = VECTOR ( 'NONE', #423, 1000.000000000000000 ) ;
#840 = ORIENTED_EDGE ( 'NONE', *, *, #83, .T. ) ;
#841 = ADVANCED_FACE ( 'NONE', ( #385 ), #916, .F. ) ;
#842 = EDGE_LOOP ( 'NONE', ( #399, #604, #929, #913 ) ) ;
#843 = LINE ( 'NONE', #144, #282 ) ;
#844 = DIRECTION ( 'NONE',  ( 0.000000000000000000, -0.000000000000000000, 1.000000000000000000 ) ) ;
#845 = ORIENTED_EDGE ( 'NONE', *, *, #229, .F. ) ;
#846 = VERTEX_POINT ( 'NONE', #210 ) ;
#847 = EDGE_CURVE ( 'NONE', #617, #1109, #805, .T. ) ;
#848 = DIRECTION ( 'NONE',  ( 0.000000000000000000, -1.000000000000000000, 0.000000000000000000 ) ) ;
#849 = CARTESIAN_POINT ( 'NONE',  ( 11.50000000000000355, -5.200056306102291970, -5.640020000000000699 ) ) ;
#850 = ORIENTED_EDGE ( 'NONE', *, *, #206, .T. ) ;
#851 = LOCAL_TIME ( 12, 24, 32.00000000000000000, #1115 ) ;
#852 = ORIENTED_EDGE ( 'NONE', *, *, #687, .T. ) ;
#853 = CARTESIAN_POINT ( 'NONE',  ( -9.934999999999998721, -7.170056306102291721, -5.640020000000000699 ) ) ;
#854 = ADVANCED_FACE ( 'NONE', ( #624 ), #735, .T. ) ;
#855 = DIRECTION ( 'NONE',  ( 1.000000000000000000, 0.000000000000000000, 0.000000000000000000 ) ) ;
#856 = VECTOR ( 'NONE', #1063, 1000.000000000000000 ) ;
#857 = DIRECTION ( 'NONE',  ( 0.000000000000000000, 1.000000000000000000, 0.000000000000000000 ) ) ;
#858 = VECTOR ( 'NONE', #1121, 1000.000000000000000 ) ;
#859 = ORIENTED_EDGE ( 'NONE', *, *, #723, .T. ) ;
#860 = PERSON_AND_ORGANIZATION_ROLE ( 'creator' ) ;
#861 = DIRECTION ( 'NONE',  ( -1.000000000000000000, 0.000000000000000000, 0.000000000000000000 ) ) ;
#862 = CARTESIAN_POINT ( 'NONE',  ( 0.000000000000000000, -7.170056306102291721, 4.000000000000000000 ) ) ;
#863 = EDGE_CURVE ( 'NONE', #1062, #783, #499, .T. ) ;
#864 = ORIENTED_EDGE ( 'NONE', *, *, #583, .T. ) ;
#865 = MECHANICAL_CONTEXT ( 'NONE', #21, 'mechanical' ) ;
#866 = CARTESIAN_POINT ( 'NONE',  ( 11.49999999999999645, -9.170056306102292609, -5.640020000000000699 ) ) ;
#867 = ORIENTED_EDGE ( 'NONE', *, *, #467, .T. ) ;
#868 = EDGE_CURVE ( 'NONE', #147, #213, #981, .T. ) ;
#869 = ORIENTED_EDGE ( 'NONE', *, *, #921, .T. ) ;
#870 = AXIS2_PLACEMENT_3D ( 'NONE', #285, #19, #127 ) ;
#871 = APPLICATION_PROTOCOL_DEFINITION ( 'international standard', 'config_control_design', 1994, #708 ) ;
#872 = CARTESIAN_POINT ( 'NONE',  ( 8.439999999999995950, -8.947424210352389551, 4.000000000000000000 ) ) ;
#873 = CARTESIAN_POINT ( 'NONE',  ( -8.439999999999995950, -7.170056306102291721, -5.640020000000000699 ) ) ;
#874 = AXIS2_PLACEMENT_3D ( 'NONE', #922, #137, #486 ) ;
#875 = ORIENTED_EDGE ( 'NONE', *, *, #1025, .T. ) ;
#876 = APPROVAL_DATE_TIME ( #345, #615 ) ;
#877 = DIRECTION ( 'NONE',  ( 0.000000000000000000, 1.000000000000000000, -0.000000000000000000 ) ) ;
#878 = DIRECTION ( 'NONE',  ( 0.000000000000000000, -1.000000000000000000, 0.000000000000000000 ) ) ;
#879 = DIRECTION ( 'NONE',  ( 1.000000000000000000, 0.000000000000000000, -0.000000000000000000 ) ) ;
#880 = ORIENTED_EDGE ( 'NONE', *, *, #576, .F. ) ;
#881 = APPROVAL_STATUS ( 'not_yet_approved' ) ;
#882 = ORIENTED_EDGE ( 'NONE', *, *, #229, .T. ) ;
#883 = CARTESIAN_POINT ( 'NONE',  ( -8.439999999999997726, -4.800056306102291614, -5.640020000000000699 ) ) ;
#884 = EDGE_CURVE ( 'NONE', #1082, #150, #199, .T. ) ;
#885 = LINE ( 'NONE', #1049, #140 ) ;
#886 = CARTESIAN_POINT ( 'NONE',  ( 8.439999999999997726, 0.000000000000000000, 4.000000000000000000 ) ) ;
#887 = ORIENTED_EDGE ( 'NONE', *, *, #293, .T. ) ;
#888 = ORIENTED_EDGE ( 'NONE', *, *, #1127, .F. ) ;
#889 = DIRECTION ( 'NONE',  ( -0.000000000000000000, -0.000000000000000000, -1.000000000000000000 ) ) ;
#890 = CC_DESIGN_SECURITY_CLASSIFICATION ( #249, ( #777 ) ) ;
#891 = CC_DESIGN_PERSON_AND_ORGANIZATION_ASSIGNMENT ( #72, #420, ( #777 ) ) ;
#892 = DIRECTION ( 'NONE',  ( -0.000000000000000000, -0.000000000000000000, -1.000000000000000000 ) ) ;
#893 = CARTESIAN_POINT ( 'NONE',  ( -8.439999999999995950, -7.170056306102291721, 0.000000000000000000 ) ) ;
#894 = ADVANCED_FACE ( 'NONE', ( #280 ), #548, .T. ) ;
#895 = VECTOR ( 'NONE', #926, 1000.000000000000000 ) ;
#896 = VERTEX_POINT ( 'NONE', #15 ) ;
#897 = LINE ( 'NONE', #1056, #68 ) ;
#898 = FACE_OUTER_BOUND ( 'NONE', #1035, .T. ) ;
#899 = DIRECTION ( 'NONE',  ( 0.000000000000000000, 0.000000000000000000, 1.000000000000000000 ) ) ;
#900 = EDGE_CURVE ( 'NONE', #477, #572, #719, .T. ) ;
#901 = ORIENTED_EDGE ( 'NONE', *, *, #721, .F. ) ;
#902 = DIRECTION ( 'NONE',  ( -0.000000000000000000, -0.000000000000000000, 1.000000000000000000 ) ) ;
#903 = DIRECTION ( 'NONE',  ( -0.000000000000000000, 1.000000000000000000, -0.000000000000000000 ) ) ;
#904 = CARTESIAN_POINT ( 'NONE',  ( 11.50000000000000355, 25.00000000000000711, 4.000000000000000000 ) ) ;
#905 = SECURITY_CLASSIFICATION_LEVEL ( 'unclassified' ) ;
#906 = ORIENTED_EDGE ( 'NONE', *, *, #982, .T. ) ;
#907 = CARTESIAN_POINT ( 'NONE',  ( 2.125000000000001332, -19.99999999999999289, 4.000000000000000000 ) ) ;
#908 = DIRECTION ( 'NONE',  ( 1.000000000000000000, 0.000000000000000000, 0.000000000000000000 ) ) ;
#909 = CARTESIAN_POINT ( 'NONE',  ( 11.49999999999999645, -2.800056306102291614, -5.640020000000000699 ) ) ;
#910 = VECTOR ( 'NONE', #148, 1000.000000000000000 ) ;
#911 = ORIENTED_EDGE ( 'NONE', *, *, #697, .T. ) ;
#912 = AXIS2_PLACEMENT_3D ( 'NONE', #595, #501, #855 ) ;
#913 = ORIENTED_EDGE ( 'NONE', *, *, #1081, .T. ) ;
#914 = CARTESIAN_POINT ( 'NONE',  ( 9.934999999999998721, -4.800056306102291614, 4.000000000000000000 ) ) ;
#915 = AXIS2_PLACEMENT_3D ( 'NONE', #886, #101, #899 ) ;
#916 = PLANE ( 'NONE',  #336 ) ;
#917 = LINE ( 'NONE', #230, #1095 ) ;
#918 = ORIENTED_EDGE ( 'NONE', *, *, #847, .T. ) ;
#919 = ORIENTED_EDGE ( 'NONE', *, *, #319, .F. ) ;
#920 = DIRECTION ( 'NONE',  ( -1.000000000000000000, 0.000000000000000000, -0.000000000000000000 ) ) ;
#921 = EDGE_CURVE ( 'NONE', #400, #147, #36, .T. ) ;
#922 = CARTESIAN_POINT ( 'NONE',  ( 0.000000000000000000, 25.00000000000000711, 4.000000000000000000 ) ) ;
#923 = VERTEX_POINT ( 'NONE', #473 ) ;
#924 = VERTEX_POINT ( 'NONE', #376 ) ;
#925 = CARTESIAN_POINT ( 'NONE',  ( 9.934999999999998721, -7.170056306102291721, -5.640020000000000699 ) ) ;
#926 = DIRECTION ( 'NONE',  ( 0.000000000000000000, -1.000000000000000000, 0.000000000000000000 ) ) ;
#927 = EDGE_CURVE ( 'NONE', #556, #896, #1071, .T. ) ;
#928 = AXIS2_PLACEMENT_3D ( 'NONE', #422, #773, #691 ) ;
#929 = ORIENTED_EDGE ( 'NONE', *, *, #265, .T. ) ;
#930 = EDGE_LOOP ( 'NONE', ( #739, #901 ) ) ;
#931 = CARTESIAN_POINT ( 'NONE',  ( 2.125000000000001332, -19.99999999999999289, 0.000000000000000000 ) ) ;
#932 = CARTESIAN_POINT ( 'NONE',  ( -8.439999999999995950, 0.000000000000000000, 4.000000000000000000 ) ) ;
#933 = VECTOR ( 'NONE', #1097, 1000.000000000000000 ) ;
#934 = ORIENTED_EDGE ( 'NONE', *, *, #459, .T. ) ;
#935 = ADVANCED_FACE ( 'NONE', ( #898 ), #1079, .F. ) ;
#936 = ORIENTED_EDGE ( 'NONE', *, *, #799, .F. ) ;
#937 = DIRECTION ( 'NONE',  ( 0.000000000000000000, 0.000000000000000000, 1.000000000000000000 ) ) ;
#938 = CARTESIAN_POINT ( 'NONE',  ( 0.000000000000000000, -4.800056306102291614, 4.000000000000000000 ) ) ;
#939 = ORIENTED_EDGE ( 'NONE', *, *, #502, .T. ) ;
#940 = EDGE_LOOP ( 'NONE', ( #90, #1139, #355, #535 ) ) ;
#941 = LINE ( 'NONE', #585, #757 ) ;
#942 = FACE_OUTER_BOUND ( 'NONE', #142, .T. ) ;
#943 = CARTESIAN_POINT ( 'NONE',  ( -11.49999999999999645, -24.99999999999999289, 4.000000000000000000 ) ) ;
#944 = CC_DESIGN_APPROVAL ( #395, ( #249 ) ) ;
#945 = VERTEX_POINT ( 'NONE', #1074 ) ;
#946 = CALENDAR_DATE ( 2026, 10, 6 ) ;
#947 = LINE ( 'NONE', #180, #466 ) ;
#948 = VECTOR ( 'NONE', #734, 1000.000000000000000 ) ;
#949 = ADVANCED_FACE ( 'NONE', ( #643 ), #993, .F. ) ;
#950 = CYLINDRICAL_SURFACE ( 'NONE', #928, 12.30000000000000071 ) ;
#951 = CARTESIAN_POINT ( 'NONE',  ( -8.439999999999997726, -2.800056306102291614, -5.640020000000000699 ) ) ;
#952 = ORIENTED_EDGE ( 'NONE', *, *, #286, .T. ) ;
#953 = CARTESIAN_POINT ( 'NONE',  ( -9.934999999999998721, -4.800056306102291614, -5.640020000000000699 ) ) ;
#954 = DIRECTION ( 'NONE',  ( 0.000000000000000000, -0.000000000000000000, 1.000000000000000000 ) ) ;
#955 = EDGE_CURVE ( 'NONE', #896, #765, #468, .T. ) ;
#956 = DIRECTION ( 'NONE',  ( -0.000000000000000000, 0.000000000000000000, -1.000000000000000000 ) ) ;
#957 = ORIENTED_EDGE ( 'NONE', *, *, #1135, .T. ) ;
#958 = LINE ( 'NONE', #979, #63 ) ;
#959 = CARTESIAN_POINT ( 'NONE',  ( 8.439999999999997726, -4.800056306102291614, 4.000000000000000000 ) ) ;
#960 = ORIENTED_EDGE ( 'NONE', *, *, #489, .T. ) ;
#961 = LOCAL_TIME ( 12, 24, 32.00000000000000000, #646 ) ;
#962 = APPROVAL_ROLE ( '' ) ;
#963 = LINE ( 'NONE', #528, #713 ) ;
#964 = VECTOR ( 'NONE', #809, 1000.000000000000000 ) ;
#965 = ORIENTED_EDGE ( 'NONE', *, *, #599, .F. ) ;
#966 = AXIS2_PLACEMENT_3D ( 'NONE', #337, #75, #331 ) ;
#967 = ADVANCED_FACE ( 'NONE', ( #192 ), #1084, .T. ) ;
#968 = VERTEX_POINT ( 'NONE', #415 ) ;
#969 = LINE ( 'NONE', #185, #220 ) ;
#970 = CARTESIAN_POINT ( 'NONE',  ( 8.439999999999995950, -8.947424210352389551, 4.000000000000000000 ) ) ;
#971 = LINE ( 'NONE', #33, #488 ) ;
#972 = ORIENTED_EDGE ( 'NONE', *, *, #792, .T. ) ;
#973 = ADVANCED_FACE ( 'NONE', ( #1027 ), #153, .F. ) ;
#974 = CARTESIAN_POINT ( 'NONE',  ( 9.934999999999998721, -7.170056306102291721, 4.000000000000000000 ) ) ;
#975 = DIRECTION ( 'NONE',  ( -0.000000000000000000, -0.000000000000000000, 1.000000000000000000 ) ) ;
#976 = CARTESIAN_POINT ( 'NONE',  ( 0.000000000000000000, -4.800056306102291614, 4.000000000000000000 ) ) ;
#977 = ORIENTED_EDGE ( 'NONE', *, *, #388, .F. ) ;
#978 = ORIENTED_EDGE ( 'NONE', *, *, #184, .T. ) ;
#979 = CARTESIAN_POINT ( 'NONE',  ( -2.125000000000001332, -19.99999999999999289, 0.000000000000000000 ) ) ;
#980 = VECTOR ( 'NONE', #848, 1000.000000000000000 ) ;
#981 = LINE ( 'NONE', #25, #212 ) ;
#982 = EDGE_CURVE ( 'NONE', #1125, #29, #324, .T. ) ;
#983 = DIRECTION ( 'NONE',  ( -0.000000000000000000, 1.000000000000000000, -0.000000000000000000 ) ) ;
#984 = AXIS2_PLACEMENT_3D ( 'NONE', #255, #435, #80 ) ;
#985 = AXIS2_PLACEMENT_3D ( 'NONE', #173, #685, #956 ) ;
#986 = DIRECTION ( 'NONE',  ( 0.000000000000000000, 0.000000000000000000, 1.000000000000000000 ) ) ;
#987 = DIRECTION ( 'NONE',  ( 0.000000000000000000, 0.000000000000000000, -1.000000000000000000 ) ) ;
#988 = PLANE ( 'NONE',  #915 ) ;
#989 = PRODUCT_DEFINITION ( 'UNKNOWN', '', #777, #392 ) ;
#990 = PERSON_AND_ORGANIZATION_ROLE ( 'classification_officer' ) ;
#991 = VERTEX_POINT ( 'NONE', #759 ) ;
#992 = DIRECTION ( 'NONE',  ( 0.000000000000000000, 1.000000000000000000, -0.000000000000000000 ) ) ;
#993 = CYLINDRICAL_SURFACE ( 'NONE', #688, 2.125000000000001332 ) ;
#994 = LINE ( 'NONE', #725, #782 ) ;
#995 = EDGE_CURVE ( 'NONE', #704, #617, #500, .T. ) ;
#996 = CALENDAR_DATE ( 2026, 10, 6 ) ;
#997 = ORIENTED_EDGE ( 'NONE', *, *, #799, .T. ) ;
#998 = CARTESIAN_POINT ( 'NONE',  ( 11.50000000000000355, -24.99999999999999289, 4.000000000000000000 ) ) ;
#999 = CARTESIAN_POINT ( 'NONE',  ( 11.50000000000000355, -5.200056306102291970, -7.640020000000000699 ) ) ;
#1000 = CARTESIAN_POINT ( 'NONE',  ( 0.000000000000000000, 20.00000000000000711, 0.000000000000000000 ) ) ;
#1001 = CIRCLE ( 'NONE', #557, 2.125000000000001332 ) ;
#1002 = ORIENTED_EDGE ( 'NONE', *, *, #550, .T. ) ;
#1003 = VECTOR ( 'NONE', #636, 1000.000000000000000 ) ;
#1004 = ADVANCED_FACE ( 'NONE', ( #301 ), #407, .F. ) ;
#1005 = ORIENTED_EDGE ( 'NONE', *, *, #675, .F. ) ;
#1006 = AXIS2_PLACEMENT_3D ( 'NONE', #200, #620, #539 ) ;
#1007 = LINE ( 'NONE', #491, #910 ) ;
#1008 = LINE ( 'NONE', #838, #729 ) ;
#1009 = ORIENTED_EDGE ( 'NONE', *, *, #525, .F. ) ;
#1010 = VERTEX_POINT ( 'NONE', #931 ) ;
#1011 = CARTESIAN_POINT ( 'NONE',  ( 2.125000000000000444, 20.00000000000000711, 4.000000000000000000 ) ) ;
#1012 = DIRECTION ( 'NONE',  ( 0.000000000000000000, -1.000000000000000000, 0.000000000000000000 ) ) ;
#1013 = ORIENTED_EDGE ( 'NONE', *, *, #510, .F. ) ;
#1014 = ORIENTED_EDGE ( 'NONE', *, *, #769, .F. ) ;
#1015 = DIRECTION ( 'NONE',  ( -0.000000000000000000, -0.000000000000000000, 1.000000000000000000 ) ) ;
#1016 = CARTESIAN_POINT ( 'NONE',  ( -11.49999999999999645, 25.00000000000000711, 4.000000000000000000 ) ) ;
#1017 = EDGE_CURVE ( 'NONE', #765, #776, #843, .T. ) ;
#1018 = VECTOR ( 'NONE', #630, 1000.000000000000000 ) ;
#1019 = ORIENTED_EDGE ( 'NONE', *, *, #525, .T. ) ;
#1020 = VECTOR ( 'NONE', #861, 1000.000000000000000 ) ;
#1021 = ORIENTED_EDGE ( 'NONE', *, *, #847, .F. ) ;
#1022 = DIRECTION ( 'NONE',  ( 0.000000000000000000, 0.000000000000000000, 1.000000000000000000 ) ) ;
#1023 = DIRECTION ( 'NONE',  ( -0.000000000000000000, -0.000000000000000000, 1.000000000000000000 ) ) ;
#1024 = ORIENTED_EDGE ( 'NONE', *, *, #60, .F. ) ;
#1025 = EDGE_CURVE ( 'NONE', #1062, #556, #1007, .T. ) ;
#1026 = ORIENTED_EDGE ( 'NONE', *, *, #482, .F. ) ;
#1027 = FACE_OUTER_BOUND ( 'NONE', #133, .T. ) ;
#1028 = DIRECTION ( 'NONE',  ( 0.000000000000000000, 1.000000000000000000, 0.000000000000000000 ) ) ;
#1029 = ORIENTED_EDGE ( 'NONE', *, *, #363, .F. ) ;
#1030 = ORIENTED_EDGE ( 'NONE', *, *, #569, .T. ) ;
#1031 = PERSON_AND_ORGANIZATION ( #284, #135 ) ;
#1032 = DIRECTION ( 'NONE',  ( -0.000000000000000000, 0.000000000000000000, 1.000000000000000000 ) ) ;
#1033 = FACE_OUTER_BOUND ( 'NONE', #682, .T. ) ;
#1034 = VECTOR ( 'NONE', #456, 1000.000000000000000 ) ;
#1035 = EDGE_LOOP ( 'NONE', ( #573, #1030, #221, #840 ) ) ;
#1036 = EDGE_CURVE ( 'NONE', #150, #213, #244, .T. ) ;
#1037 = CARTESIAN_POINT ( 'NONE',  ( 0.000000000000000000, -19.99999999999999289, 4.000000000000000000 ) ) ;
#1038 = LINE ( 'NONE', #679, #411 ) ;
#1039 = FACE_OUTER_BOUND ( 'NONE', #194, .T. ) ;
#1040 = AXIS2_PLACEMENT_3D ( 'NONE', #1000, #43, #581 ) ;
#1041 = ORIENTED_EDGE ( 'NONE', *, *, #545, .T. ) ;
#1042 =( LENGTH_UNIT ( ) NAMED_UNIT ( * ) SI_UNIT ( .MILLI., .METRE. ) );
#1043 = CARTESIAN_POINT ( 'NONE',  ( -8.439999999999995950, -8.947424210352389551, 0.000000000000000000 ) ) ;
#1044 = EDGE_CURVE ( 'NONE', #923, #477, #317, .T. ) ;
#1045 = CARTESIAN_POINT ( 'NONE',  ( 11.50000000000000355, -5.200056306102291970, -7.640020000000000699 ) ) ;
#1046 = ORIENTED_EDGE ( 'NONE', *, *, #868, .F. ) ;
#1047 = COORDINATED_UNIVERSAL_TIME_OFFSET ( 5, 0, .BEHIND. ) ;
#1048 = CARTESIAN_POINT ( 'NONE',  ( -11.49999999999999645, -5.200056306102291970, -7.640020000000000699 ) ) ;
#1049 = CARTESIAN_POINT ( 'NONE',  ( -8.439999999999995950, -7.170056306102291721, 4.000000000000000000 ) ) ;
#1050 = LINE ( 'NONE', #1045, #839 ) ;
#1051 = EDGE_CURVE ( 'NONE', #125, #704, #589, .T. ) ;
#1052 = ORIENTED_EDGE ( 'NONE', *, *, #762, .F. ) ;
#1053 = VECTOR ( 'NONE', #574, 1000.000000000000000 ) ;
#1054 = DATE_AND_TIME ( #946, #726 ) ;
#1055 = EDGE_LOOP ( 'NONE', ( #591, #882, #674, #568 ) ) ;
#1056 = CARTESIAN_POINT ( 'NONE',  ( 11.49999999999999645, -9.170056306102292609, -5.640020000000000699 ) ) ;
#1057 = VECTOR ( 'NONE', #1028, 1000.000000000000000 ) ;
#1058 = DIRECTION ( 'NONE',  ( 0.000000000000000000, 1.000000000000000000, -0.000000000000000000 ) ) ;
#1059 = EDGE_CURVE ( 'NONE', #991, #246, #671, .T. ) ;
#1060 = AXIS2_PLACEMENT_3D ( 'NONE', #167, #590, #954 ) ;
#1061 = ORIENTED_EDGE ( 'NONE', *, *, #1118, .T. ) ;
#1062 = VERTEX_POINT ( 'NONE', #495 ) ;
#1063 = DIRECTION ( 'NONE',  ( -0.000000000000000000, -0.000000000000000000, -1.000000000000000000 ) ) ;
#1064 = CARTESIAN_POINT ( 'NONE',  ( -9.934999999999998721, 0.000000000000000000, 4.000000000000000000 ) ) ;
#1065 = VERTEX_POINT ( 'NONE', #750 ) ;
#1066 = COORDINATED_UNIVERSAL_TIME_OFFSET ( 5, 0, .BEHIND. ) ;
#1067 = ORIENTED_EDGE ( 'NONE', *, *, #161, .T. ) ;
#1068 = CARTESIAN_POINT ( 'NONE',  ( -2.125000000000000444, 20.00000000000000711, 4.000000000000000000 ) ) ;
#1069 = CARTESIAN_POINT ( 'NONE',  ( -9.934999999999998721, -4.800056306102291614, -5.640020000000000699 ) ) ;
#1070 = CARTESIAN_POINT ( 'NONE',  ( 8.439999999999995950, -7.170056306102291721, 4.000000000000000000 ) ) ;
#1071 = CIRCLE ( 'NONE', #61, 12.30000000000000071 ) ;
#1072 = CARTESIAN_POINT ( 'NONE',  ( -11.49999999999999645, 0.000000000000000000, 4.000000000000000000 ) ) ;
#1073 = ADVANCED_FACE ( 'NONE', ( #239 ), #65, .T. ) ;
#1074 = CARTESIAN_POINT ( 'NONE',  ( -8.439999999999997726, 8.947424210352387774, 0.000000000000000000 ) ) ;
#1075 = LINE ( 'NONE', #549, #12 ) ;
#1076 = VECTOR ( 'NONE', #662, 1000.000000000000000 ) ;
#1077 = ORIENTED_EDGE ( 'NONE', *, *, #545, .F. ) ;
#1078 = CARTESIAN_POINT ( 'NONE',  ( -8.439999999999997726, 8.947424210352387774, 4.000000000000000000 ) ) ;
#1079 = PLANE ( 'NONE',  #44 ) ;
#1080 = DIRECTION ( 'NONE',  ( 0.000000000000000000, -1.000000000000000000, 0.000000000000000000 ) ) ;
#1081 = EDGE_CURVE ( 'NONE', #744, #1086, #941, .T. ) ;
#1082 = VERTEX_POINT ( 'NONE', #656 ) ;
#1083 = DIRECTION ( 'NONE',  ( 0.000000000000000000, 0.000000000000000000, 1.000000000000000000 ) ) ;
#1084 = PLANE ( 'NONE',  #707 ) ;
#1085 = CYLINDRICAL_SURFACE ( 'NONE', #1006, 2.125000000000000444 ) ;
#1086 = VERTEX_POINT ( 'NONE', #131 ) ;
#1087 = ADVANCED_FACE ( 'NONE', ( #478 ), #58, .F. ) ;
#1088 = EDGE_LOOP ( 'NONE', ( #584, #939, #348, #487, #756, #919 ) ) ;
#1089 = CARTESIAN_POINT ( 'NONE',  ( 0.000000000000000000, 0.000000000000000000, -7.640020000000000699 ) ) ;
#1090 = DIRECTION ( 'NONE',  ( -0.000000000000000000, 0.000000000000000000, -1.000000000000000000 ) ) ;
#1091 = VECTOR ( 'NONE', #381, 1000.000000000000000 ) ;
#1092 = EDGE_LOOP ( 'NONE', ( #53, #911, #387, #294 ) ) ;
#1093 = CC_DESIGN_PERSON_AND_ORGANIZATION_ASSIGNMENT ( #689, #700, ( #989 ) ) ;
#1094 = ORIENTED_EDGE ( 'NONE', *, *, #126, .T. ) ;
#1095 = VECTOR ( 'NONE', #409, 1000.000000000000000 ) ;
#1096 = CARTESIAN_POINT ( 'NONE',  ( 8.439999999999995950, -9.170056306102292609, -5.640020000000000699 ) ) ;
#1097 = DIRECTION ( 'NONE',  ( 1.000000000000000000, 0.000000000000000000, 0.000000000000000000 ) ) ;
#1098 = VERTEX_POINT ( 'NONE', #745 ) ;
#1099 = ORIENTED_EDGE ( 'NONE', *, *, #721, .T. ) ;
#1100 = EDGE_CURVE ( 'NONE', #400, #765, #308, .T. ) ;
#1101 = DIRECTION ( 'NONE',  ( 0.000000000000000000, -1.000000000000000000, 0.000000000000000000 ) ) ;
#1102 = CARTESIAN_POINT ( 'NONE',  ( -11.49999999999999645, -2.800056306102291614, -5.640020000000000699 ) ) ;
#1103 = ORIENTED_EDGE ( 'NONE', *, *, #1017, .T. ) ;
#1104 = VERTEX_POINT ( 'NONE', #661 ) ;
#1105 = DIRECTION ( 'NONE',  ( 1.000000000000000000, -0.000000000000000000, -0.000000000000000000 ) ) ;
#1106 = DIRECTION ( 'NONE',  ( 0.000000000000000000, -0.000000000000000000, -1.000000000000000000 ) ) ;
#1107 = VERTEX_POINT ( 'NONE', #1011 ) ;
#1108 = AXIS2_PLACEMENT_3D ( 'NONE', #99, #283, #714 ) ;
#1109 = VERTEX_POINT ( 'NONE', #925 ) ;
#1110 = CARTESIAN_POINT ( 'NONE',  ( 9.934999999999998721, 0.000000000000000000, 4.000000000000000000 ) ) ;
#1111 = DIRECTION ( 'NONE',  ( -1.000000000000000000, 0.000000000000000000, 0.000000000000000000 ) ) ;
#1112 = AXIS2_PLACEMENT_3D ( 'NONE', #469, #824, #281 ) ;
#1113 = ORIENTED_EDGE ( 'NONE', *, *, #265, .F. ) ;
#1114 = ORIENTED_EDGE ( 'NONE', *, *, #467, .F. ) ;
#1115 = COORDINATED_UNIVERSAL_TIME_OFFSET ( 5, 0, .BEHIND. ) ;
#1116 = LINE ( 'NONE', #330, #1020 ) ;
#1117 = CARTESIAN_POINT ( 'NONE',  ( -11.49999999999999645, -2.800056306102291614, -5.640020000000000699 ) ) ;
#1118 = EDGE_CURVE ( 'NONE', #246, #579, #594, .T. ) ;
#1119 = ORIENTED_EDGE ( 'NONE', *, *, #775, .F. ) ;
#1120 = DATE_TIME_ROLE ( 'creation_date' ) ;
#1121 = DIRECTION ( 'NONE',  ( 0.000000000000000000, 1.000000000000000000, -0.000000000000000000 ) ) ;
#1122 = DIRECTION ( 'NONE',  ( 1.000000000000000000, 0.000000000000000000, 0.000000000000000000 ) ) ;
#1123 = VECTOR ( 'NONE', #224, 1000.000000000000000 ) ;
#1124 = EDGE_CURVE ( 'NONE', #680, #425, #1001, .T. ) ;
#1125 = VERTEX_POINT ( 'NONE', #1138 ) ;
#1126 = VECTOR ( 'NONE', #186, 1000.000000000000000 ) ;
#1127 = EDGE_CURVE ( 'NONE', #572, #748, #438, .T. ) ;
#1128 = DIRECTION ( 'NONE',  ( 1.000000000000000000, 0.000000000000000000, 0.000000000000000000 ) ) ;
#1129 = CARTESIAN_POINT ( 'NONE',  ( -11.49999999999999645, 25.00000000000000711, 4.000000000000000000 ) ) ;
#1130 = CARTESIAN_POINT ( 'NONE',  ( 0.000000000000000000, -7.170056306102291721, 4.000000000000000000 ) ) ;
#1131 = VECTOR ( 'NONE', #165, 1000.000000000000000 ) ;
#1132 = VERTEX_POINT ( 'NONE', #97 ) ;
#1133 = CALENDAR_DATE ( 2026, 10, 6 ) ;
#1134 = CARTESIAN_POINT ( 'NONE',  ( 0.000000000000000000, 25.00000000000000711, 4.000000000000000000 ) ) ;
#1135 = EDGE_CURVE ( 'NONE', #125, #124, #252, .T. ) ;
#1136 = FACE_OUTER_BOUND ( 'NONE', #842, .T. ) ;
#1137 = ORIENTED_EDGE ( 'NONE', *, *, #306, .T. ) ;
#1138 = CARTESIAN_POINT ( 'NONE',  ( -11.49999999999999645, -2.800056306102291614, -5.640020000000000699 ) ) ;
#1139 = ORIENTED_EDGE ( 'NONE', *, *, #629, .T. ) ;
ENDSEC;
END-ISO-10303-21;
