ISO-10303-21;
HEADER;
FILE_DESCRIPTION (( 'STEP AP203' ),
    '1' );
FILE_NAME ('ContactorGuide.STEP',
    '2026-06-10T16:13:13',
    ( '' ),
    ( '' ),
    'SwSTEP 2.0',
    'SolidWorks 2025',
    '' );
FILE_SCHEMA (( 'CONFIG_CONTROL_DESIGN' ));
ENDSEC;

DATA;
#1 = EDGE_LOOP ( 'NONE', ( #80, #478, #434, #532 ) ) ;
#2 = CARTESIAN_POINT ( 'NONE',  ( 0.5000000000000004441, -6.033820786006295085E-17, 0.1574803149606299191 ) ) ;
#3 = EDGE_CURVE ( 'NONE', #808, #83, #204, .T. ) ;
#4 = ORIENTED_EDGE ( 'NONE', *, *, #350, .T. ) ;
#5 = CARTESIAN_POINT ( 'NONE',  ( -1.625000000000000000, 0.8858267716535430658, 0.000000000000000000 ) ) ;
#6 = PRODUCT_DEFINITION_FORMATION_WITH_SPECIFIED_SOURCE ( 'ANY', '', #777, .NOT_KNOWN. ) ;
#7 = CARTESIAN_POINT ( 'NONE',  ( -3.987204724409449064, -0.5000000000000000000, 0.1574803149606299191 ) ) ;
#8 = VECTOR ( 'NONE', #547, 39.37007874015748143 ) ;
#9 = EDGE_CURVE ( 'NONE', #28, #893, #415, .T. ) ;
#10 = VERTEX_POINT ( 'NONE', #766 ) ;
#11 = DIRECTION ( 'NONE',  ( -1.206764157201258031E-16, -1.000000000000000000, 0.000000000000000000 ) ) ;
#12 = FACE_OUTER_BOUND ( 'NONE', #737, .T. ) ;
#13 = CARTESIAN_POINT ( 'NONE',  ( -1.625000000000000000, 0.8858267716535430658, 0.1574803149606299191 ) ) ;
#14 = ORIENTED_EDGE ( 'NONE', *, *, #128, .T. ) ;
#15 = LINE ( 'NONE', #295, #671 ) ;
#16 = ORIENTED_EDGE ( 'NONE', *, *, #785, .F. ) ;
#17 = ORIENTED_EDGE ( 'NONE', *, *, #115, .T. ) ;
#18 = DIRECTION ( 'NONE',  ( -0.000000000000000000, 0.000000000000000000, 1.000000000000000000 ) ) ;
#19 = ORIENTED_EDGE ( 'NONE', *, *, #133, .F. ) ;
#20 = APPROVAL_PERSON_ORGANIZATION ( #709, #268, #194 ) ;
#21 = EDGE_CURVE ( 'NONE', #896, #780, #396, .T. ) ;
#22 = CYLINDRICAL_SURFACE ( 'NONE', #168, 0.1082677165354331700 ) ;
#23 = EDGE_LOOP ( 'NONE', ( #51, #680, #636, #889 ) ) ;
#24 = CARTESIAN_POINT ( 'NONE',  ( -0.5000000000000002220, -1.377952755905513360, 0.1574803149606299191 ) ) ;
#25 = CLOSED_SHELL ( 'NONE', ( #107, #795, #393, #192, #121, #703, #37, #597, #339, #898, #831, #748, #489, #741, #277, #622, #459, #251, #387, #612, #345, #857, #837, #379, #681, #256 ) ) ;
#26 = ORIENTED_EDGE ( 'NONE', *, *, #470, .T. ) ;
#27 = EDGE_CURVE ( 'NONE', #873, #241, #514, .T. ) ;
#28 = VERTEX_POINT ( 'NONE', #421 ) ;
#29 = DIRECTION ( 'NONE',  ( -1.000000000000000000, 3.965082230804130713E-16, 0.000000000000000000 ) ) ;
#30 = FACE_OUTER_BOUND ( 'NONE', #195, .T. ) ;
#31 = ORIENTED_EDGE ( 'NONE', *, *, #506, .F. ) ;
#32 = EDGE_CURVE ( 'NONE', #670, #846, #591, .T. ) ;
#33 = DIRECTION ( 'NONE',  ( -0.000000000000000000, -0.000000000000000000, -1.000000000000000000 ) ) ;
#34 = PLANE ( 'NONE',  #615 ) ;
#35 = ORIENTED_EDGE ( 'NONE', *, *, #82, .F. ) ;
#36 = APPROVAL_STATUS ( 'not_yet_approved' ) ;
#37 = ADVANCED_FACE ( 'NONE', ( #208 ), #652, .F. ) ;
#38 = DIRECTION ( 'NONE',  ( 1.000000000000000000, 0.000000000000000000, 0.000000000000000000 ) ) ;
#39 = CARTESIAN_POINT ( 'NONE',  ( -1.516732283464566899, 0.8858267716535430658, 0.000000000000000000 ) ) ;
#40 = DATE_TIME_ROLE ( 'creation_date' ) ;
#41 = LINE ( 'NONE', #548, #269 ) ;
#42 = DIRECTION ( 'NONE',  ( 1.000000000000000000, 0.000000000000000000, 0.000000000000000000 ) ) ;
#43 = LINE ( 'NONE', #773, #327 ) ;
#44 = DATE_AND_TIME ( #689, #382 ) ;
#45 = DIRECTION ( 'NONE',  ( 0.000000000000000000, 0.000000000000000000, 1.000000000000000000 ) ) ;
#46 = CARTESIAN_POINT ( 'NONE',  ( 5.334874862050654487E-17, -0.4999999999999996114, 0.1574803149606299191 ) ) ;
#47 = DIRECTION ( 'NONE',  ( -0.000000000000000000, -0.000000000000000000, -1.000000000000000000 ) ) ;
#48 = ORIENTED_EDGE ( 'NONE', *, *, #425, .F. ) ;
#49 = VERTEX_POINT ( 'NONE', #508 ) ;
#50 = DIRECTION ( 'NONE',  ( -0.000000000000000000, -1.000000000000000000, -0.000000000000000000 ) ) ;
#51 = ORIENTED_EDGE ( 'NONE', *, *, #287, .T. ) ;
#52 = EDGE_CURVE ( 'NONE', #529, #448, #145, .T. ) ;
#53 = ORIENTED_EDGE ( 'NONE', *, *, #867, .F. ) ;
#54 = DIRECTION ( 'NONE',  ( -1.000000000000000000, -0.000000000000000000, -0.000000000000000000 ) ) ;
#55 = AXIS2_PLACEMENT_3D ( 'NONE', #561, #558, #380 ) ;
#56 = ORIENTED_EDGE ( 'NONE', *, *, #500, .F. ) ;
#57 = LINE ( 'NONE', #286, #96 ) ;
#58 = EDGE_CURVE ( 'NONE', #49, #374, #138, .T. ) ;
#59 = VECTOR ( 'NONE', #657, 39.37007874015748143 ) ;
#60 = PRODUCT_DEFINITION_SHAPE ( 'NONE', 'NONE',  #399 ) ;
#61 = VECTOR ( 'NONE', #50, 39.37007874015748143 ) ;
#62 = VERTEX_POINT ( 'NONE', #432 ) ;
#63 = ORIENTED_EDGE ( 'NONE', *, *, #225, .T. ) ;
#64 = DIRECTION ( 'NONE',  ( 1.000000000000000000, -4.625929269271485914E-16, 0.000000000000000000 ) ) ;
#65 = EDGE_CURVE ( 'NONE', #111, #743, #807, .T. ) ;
#66 = CARTESIAN_POINT ( 'NONE',  ( 1.625000000000000000, 0.8858267716535430658, 0.000000000000000000 ) ) ;
#67 = ORIENTED_EDGE ( 'NONE', *, *, #635, .F. ) ;
#68 = CARTESIAN_POINT ( 'NONE',  ( -1.516732283464566899, 0.8858267716535430658, 0.1574803149606299191 ) ) ;
#69 = CARTESIAN_POINT ( 'NONE',  ( 0.5000000000000004441, -6.033820786006295085E-17, 0.1574803149606299191 ) ) ;
#70 = CC_DESIGN_PERSON_AND_ORGANIZATION_ASSIGNMENT ( #540, #553, ( #399 ) ) ;
#71 = ORIENTED_EDGE ( 'NONE', *, *, #52, .F. ) ;
#72 = DIRECTION ( 'NONE',  ( -0.000000000000000000, 0.000000000000000000, 1.000000000000000000 ) ) ;
#73 = CC_DESIGN_SECURITY_CLASSIFICATION ( #367, ( #6 ) ) ;
#74 = CARTESIAN_POINT ( 'NONE',  ( -2.066929133858266709, 1.377952755905512250, 0.1574803149606299191 ) ) ;
#75 = VECTOR ( 'NONE', #169, 39.37007874015748143 ) ;
#76 = ORIENTED_EDGE ( 'NONE', *, *, #785, .T. ) ;
#77 = DIRECTION ( 'NONE',  ( -1.066974972410132007E-16, -1.000000000000000000, 0.000000000000000000 ) ) ;
#78 = ORIENTED_EDGE ( 'NONE', *, *, #493, .T. ) ;
#79 = MANIFOLD_SOLID_BREP ( 'Boss-Extrude3', #25 ) ;
#80 = ORIENTED_EDGE ( 'NONE', *, *, #186, .F. ) ;
#81 = CARTESIAN_POINT ( 'NONE',  ( 1.625000000000000000, 0.8858267716535430658, 0.000000000000000000 ) ) ;
#82 = EDGE_CURVE ( 'NONE', #580, #445, #444, .T. ) ;
#83 = VERTEX_POINT ( 'NONE', #819 ) ;
#84 = EDGE_LOOP ( 'NONE', ( #158, #417, #359, #236, #122, #644, #503, #668, #732, #498, #752, #572 ) ) ;
#85 = DIRECTION ( 'NONE',  ( -0.000000000000000000, -0.000000000000000000, -1.000000000000000000 ) ) ;
#86 = EDGE_CURVE ( 'NONE', #347, #83, #303, .T. ) ;
#87 = ORIENTED_EDGE ( 'NONE', *, *, #589, .F. ) ;
#88 = EDGE_LOOP ( 'NONE', ( #290, #613, #858, #266 ) ) ;
#89 = PLANE ( 'NONE',  #481 ) ;
#90 = DIRECTION ( 'NONE',  ( -1.000000000000000000, 0.000000000000000000, 0.000000000000000000 ) ) ;
#91 = EDGE_LOOP ( 'NONE', ( #139, #568 ) ) ;
#92 = EDGE_CURVE ( 'NONE', #49, #896, #164, .T. ) ;
#93 = PERSON_AND_ORGANIZATION ( #205, #788 ) ;
#94 = DIRECTION ( 'NONE',  ( -0.000000000000000000, -0.000000000000000000, -1.000000000000000000 ) ) ;
#95 = DIRECTION ( 'NONE',  ( -0.000000000000000000, -0.000000000000000000, 1.000000000000000000 ) ) ;
#96 = VECTOR ( 'NONE', #429, 39.37007874015748143 ) ;
#97 = DIRECTION ( 'NONE',  ( 0.000000000000000000, 0.000000000000000000, 1.000000000000000000 ) ) ;
#98 = VERTEX_POINT ( 'NONE', #243 ) ;
#99 = CC_DESIGN_PERSON_AND_ORGANIZATION_ASSIGNMENT ( #828, #311, ( #6 ) ) ;
#100 = DIRECTION ( 'NONE',  ( 1.000000000000000000, 0.000000000000000000, 0.000000000000000000 ) ) ;
#101 = FACE_OUTER_BOUND ( 'NONE', #862, .T. ) ;
#102 = DIRECTION ( 'NONE',  ( -0.000000000000000000, 0.000000000000000000, 1.000000000000000000 ) ) ;
#103 = LINE ( 'NONE', #46, #8 ) ;
#104 = CIRCLE ( 'NONE', #357, 0.1082677165354331700 ) ;
#105 = APPROVAL_DATE_TIME ( #394, #268 ) ;
#106 = LINE ( 'NONE', #491, #488 ) ;
#107 = ADVANCED_FACE ( 'NONE', ( #672 ), #22, .F. ) ;
#108 = DIRECTION ( 'NONE',  ( -0.000000000000000000, -0.000000000000000000, -1.000000000000000000 ) ) ;
#109 = LINE ( 'NONE', #763, #165 ) ;
#110 =( NAMED_UNIT ( * ) SI_UNIT ( $, .STERADIAN. ) SOLID_ANGLE_UNIT ( ) );
#111 = VERTEX_POINT ( 'NONE', #557 ) ;
#112 = LINE ( 'NONE', #919, #570 ) ;
#113 = CARTESIAN_POINT ( 'NONE',  ( -1.516732283464566899, -0.8858267716535432879, 0.000000000000000000 ) ) ;
#114 = VECTOR ( 'NONE', #897, 39.37007874015748143 ) ;
#115 = EDGE_CURVE ( 'NONE', #684, #580, #404, .T. ) ;
#116 = APPLICATION_PROTOCOL_DEFINITION ( 'international standard', 'config_control_design', 1994, #817 ) ;
#117 = ORIENTED_EDGE ( 'NONE', *, *, #692, .F. ) ;
#118 = ORIENTED_EDGE ( 'NONE', *, *, #651, .F. ) ;
#119 = CARTESIAN_POINT ( 'NONE',  ( -0.5000000000000000000, -3.484251968503937480, 0.000000000000000000 ) ) ;
#120 = CARTESIAN_POINT ( 'NONE',  ( -3.987204724409449064, -0.5000000000000000000, -1.000000000000000000 ) ) ;
#121 = ADVANCED_FACE ( 'NONE', ( #472, #258, #392, #197, #856 ), #254, .F. ) ;
#122 = ORIENTED_EDGE ( 'NONE', *, *, #692, .T. ) ;
#123 = EDGE_LOOP ( 'NONE', ( #711, #918 ) ) ;
#124 = DIRECTION ( 'NONE',  ( 0.000000000000000000, 1.000000000000000000, 0.000000000000000000 ) ) ;
#125 = VERTEX_POINT ( 'NONE', #331 ) ;
#126 = LINE ( 'NONE', #721, #648 ) ;
#127 = CARTESIAN_POINT ( 'NONE',  ( -3.829724409448818978, -0.5000000000000000000, -1.000000000000000000 ) ) ;
#128 = EDGE_CURVE ( 'NONE', #341, #135, #626, .T. ) ;
#129 = CARTESIAN_POINT ( 'NONE',  ( -0.5000000000000000000, -3.484251968503937480, -1.000000000000000000 ) ) ;
#130 = VECTOR ( 'NONE', #564, 39.37007874015748143 ) ;
#131 = ORIENTED_EDGE ( 'NONE', *, *, #447, .F. ) ;
#132 = CARTESIAN_POINT ( 'NONE',  ( -0.5000000000000000000, -3.484251968503937480, -1.000000000000000000 ) ) ;
#133 = EDGE_CURVE ( 'NONE', #407, #206, #109, .T. ) ;
#134 = DIRECTION ( 'NONE',  ( 1.000000000000000000, 0.000000000000000000, 0.000000000000000000 ) ) ;
#135 = VERTEX_POINT ( 'NONE', #120 ) ;
#136 = DIRECTION ( 'NONE',  ( -1.206764157201258031E-16, -1.000000000000000000, 0.000000000000000000 ) ) ;
#137 = CARTESIAN_POINT ( 'NONE',  ( 2.066929133858267598, -1.377952755905513360, 0.000000000000000000 ) ) ;
#138 = LINE ( 'NONE', #351, #926 ) ;
#139 = ORIENTED_EDGE ( 'NONE', *, *, #543, .F. ) ;
#140 = DIRECTION ( 'NONE',  ( -0.000000000000000000, 0.000000000000000000, 1.000000000000000000 ) ) ;
#141 = AXIS2_PLACEMENT_3D ( 'NONE', #836, #473, #261 ) ;
#142 = AXIS2_PLACEMENT_3D ( 'NONE', #534, #223, #530 ) ;
#143 = ORIENTED_EDGE ( 'NONE', *, *, #537, .F. ) ;
#144 = CARTESIAN_POINT ( 'NONE',  ( -3.987204724409449064, -0.5000000000000000000, -1.000000000000000000 ) ) ;
#145 = CIRCLE ( 'NONE', #554, 0.1082677165354331700 ) ;
#146 = EDGE_CURVE ( 'NONE', #533, #347, #843, .T. ) ;
#147 = DIRECTION ( 'NONE',  ( 1.000000000000000000, 1.206764157201258031E-16, -0.000000000000000000 ) ) ;
#148 = AXIS2_PLACEMENT_3D ( 'NONE', #187, #842, #267 ) ;
#149 = EDGE_LOOP ( 'NONE', ( #26, #333, #378, #710 ) ) ;
#150 = DIRECTION ( 'NONE',  ( 1.000000000000000000, 0.000000000000000000, 0.000000000000000000 ) ) ;
#151 = EDGE_LOOP ( 'NONE', ( #546, #71 ) ) ;
#152 = AXIS2_PLACEMENT_3D ( 'NONE', #81, #363, #744 ) ;
#153 = CARTESIAN_POINT ( 'NONE',  ( 1.733267716535433101, -0.8858267716535432879, 0.1574803149606299191 ) ) ;
#154 = ORIENTED_EDGE ( 'NONE', *, *, #506, .T. ) ;
#155 = PLANE ( 'NONE',  #163 ) ;
#156 = ORIENTED_EDGE ( 'NONE', *, *, #32, .F. ) ;
#157 = DIRECTION ( 'NONE',  ( -0.000000000000000000, -0.000000000000000000, -1.000000000000000000 ) ) ;
#158 = ORIENTED_EDGE ( 'NONE', *, *, #470, .F. ) ;
#159 = CARTESIAN_POINT ( 'NONE',  ( 1.733267716535433101, 0.8858267716535430658, 0.000000000000000000 ) ) ;
#160 = PLANE ( 'NONE',  #518 ) ;
#161 = EDGE_CURVE ( 'NONE', #213, #533, #782, .T. ) ;
#162 = EDGE_LOOP ( 'NONE', ( #642, #667 ) ) ;
#163 = AXIS2_PLACEMENT_3D ( 'NONE', #749, #446, #524 ) ;
#164 = LINE ( 'NONE', #527, #629 ) ;
#165 = VECTOR ( 'NONE', #47, 39.37007874015748143 ) ;
#166 = ORIENTED_EDGE ( 'NONE', *, *, #209, .T. ) ;
#167 = CARTESIAN_POINT ( 'NONE',  ( 2.066929133858268042, -8.195543980992789655E-16, 0.1574803149606299191 ) ) ;
#168 = AXIS2_PLACEMENT_3D ( 'NONE', #598, #157, #768 ) ;
#169 = DIRECTION ( 'NONE',  ( -0.000000000000000000, -0.000000000000000000, -1.000000000000000000 ) ) ;
#170 = ORIENTED_EDGE ( 'NONE', *, *, #128, .F. ) ;
#171 = EDGE_CURVE ( 'NONE', #10, #125, #43, .T. ) ;
#172 = COORDINATED_UNIVERSAL_TIME_OFFSET ( 5, 0, .BEHIND. ) ;
#173 = FACE_OUTER_BOUND ( 'NONE', #23, .T. ) ;
#174 = DIRECTION ( 'NONE',  ( -0.000000000000000000, -0.000000000000000000, -1.000000000000000000 ) ) ;
#175 = DATE_AND_TIME ( #825, #433 ) ;
#176 = DIRECTION ( 'NONE',  ( -1.301042606982604138E-15, -1.000000000000000000, -0.000000000000000000 ) ) ;
#177 = LINE ( 'NONE', #321, #899 ) ;
#178 = CIRCLE ( 'NONE', #611, 0.1082677165354331700 ) ;
#179 = EDGE_CURVE ( 'NONE', #407, #673, #355, .T. ) ;
#180 =( CONVERSION_BASED_UNIT ( 'INCH', #477 ) LENGTH_UNIT ( ) NAMED_UNIT ( #602 ) );
#181 = CARTESIAN_POINT ( 'NONE',  ( -3.829724409448818978, -0.5000000000000000000, -1.000000000000000000 ) ) ;
#182 = CARTESIAN_POINT ( 'NONE',  ( -1.625000000000000000, 0.8858267716535430658, 0.1574803149606299191 ) ) ;
#183 = VECTOR ( 'NONE', #932, 39.37007874015748143 ) ;
#184 = PERSON_AND_ORGANIZATION_ROLE ( 'design_supplier' ) ;
#185 = DIRECTION ( 'NONE',  ( -0.000000000000000000, -0.000000000000000000, -1.000000000000000000 ) ) ;
#186 = EDGE_CURVE ( 'NONE', #529, #511, #322, .T. ) ;
#187 = CARTESIAN_POINT ( 'NONE',  ( -1.625000000000000000, -0.8858267716535432879, 0.1574803149606299191 ) ) ;
#188 = CARTESIAN_POINT ( 'NONE',  ( 0.5000000000000000000, -3.641732283464567566, 0.1574803149606299191 ) ) ;
#189 = ORIENTED_EDGE ( 'NONE', *, *, #728, .T. ) ;
#190 = FACE_OUTER_BOUND ( 'NONE', #729, .T. ) ;
#191 = LINE ( 'NONE', #480, #183 ) ;
#192 = ADVANCED_FACE ( 'NONE', ( #273 ), #398, .F. ) ;
#193 = CC_DESIGN_APPROVAL ( #844, ( #6 ) ) ;
#194 = APPROVAL_ROLE ( '' ) ;
#195 = EDGE_LOOP ( 'NONE', ( #422, #485, #677, #653, #271, #458 ) ) ;
#196 = CARTESIAN_POINT ( 'NONE',  ( 1.625000000000000000, 0.8858267716535430658, 0.1574803149606299191 ) ) ;
#197 = FACE_BOUND ( 'NONE', #400, .T. ) ;
#198 = VECTOR ( 'NONE', #679, 39.37007874015748143 ) ;
#199 = CC_DESIGN_PERSON_AND_ORGANIZATION_ASSIGNMENT ( #756, #628, ( #367 ) ) ;
#200 = ORIENTED_EDGE ( 'NONE', *, *, #605, .F. ) ;
#201 = EDGE_LOOP ( 'NONE', ( #812, #649, #48, #874 ) ) ;
#202 = CARTESIAN_POINT ( 'NONE',  ( -1.733267716535433101, -0.8858267716535432879, 0.1574803149606299191 ) ) ;
#203 = CARTESIAN_POINT ( 'NONE',  ( 2.066929133858267598, -1.377952755905513360, 0.1574803149606299191 ) ) ;
#204 = LINE ( 'NONE', #494, #384 ) ;
#205 = PERSON ( 'UNSPECIFIED', 'UNSPECIFIED', 'UNSPECIFIED', ('UNSPECIFIED'), ('UNSPECIFIED'), ('UNSPECIFIED') ) ;
#206 = VERTEX_POINT ( 'NONE', #113 ) ;
#207 = CARTESIAN_POINT ( 'NONE',  ( 6.374311985216612204E-16, 1.377952755905511362, 0.1574803149606299191 ) ) ;
#208 = FACE_OUTER_BOUND ( 'NONE', #281, .T. ) ;
#209 = EDGE_CURVE ( 'NONE', #880, #803, #319, .T. ) ;
#210 = ORIENTED_EDGE ( 'NONE', *, *, #571, .T. ) ;
#211 = LINE ( 'NONE', #2, #552 ) ;
#212 = DIRECTION ( 'NONE',  ( -0.000000000000000000, 0.000000000000000000, 1.000000000000000000 ) ) ;
#213 = VERTEX_POINT ( 'NONE', #326 ) ;
#214 = DIRECTION ( 'NONE',  ( 0.000000000000000000, 1.000000000000000000, -0.000000000000000000 ) ) ;
#215 = FACE_OUTER_BOUND ( 'NONE', #371, .T. ) ;
#216 = VECTOR ( 'NONE', #787, 39.37007874015748143 ) ;
#217 = DIRECTION ( 'NONE',  ( 1.000000000000000000, 0.000000000000000000, 0.000000000000000000 ) ) ;
#218 = VERTEX_POINT ( 'NONE', #632 ) ;
#219 = PLANE ( 'NONE',  #484 ) ;
#220 = ORIENTED_EDGE ( 'NONE', *, *, #358, .T. ) ;
#221 = EDGE_CURVE ( 'NONE', #780, #83, #191, .T. ) ;
#222 = ORIENTED_EDGE ( 'NONE', *, *, #431, .T. ) ;
#223 = DIRECTION ( 'NONE',  ( -0.000000000000000000, -0.000000000000000000, -1.000000000000000000 ) ) ;
#224 = VERTEX_POINT ( 'NONE', #127 ) ;
#225 = EDGE_CURVE ( 'NONE', #412, #98, #647, .T. ) ;
#226 = VECTOR ( 'NONE', #550, 39.37007874015748143 ) ;
#227 = VECTOR ( 'NONE', #408, 39.37007874015748143 ) ;
#228 = ORIENTED_EDGE ( 'NONE', *, *, #328, .F. ) ;
#229 = LINE ( 'NONE', #886, #590 ) ;
#230 = ORIENTED_EDGE ( 'NONE', *, *, #328, .T. ) ;
#231 = DIRECTION ( 'NONE',  ( 3.965082230804130713E-16, 1.000000000000000000, 0.000000000000000000 ) ) ;
#232 = ORIENTED_EDGE ( 'NONE', *, *, #146, .T. ) ;
#233 = EDGE_CURVE ( 'NONE', #803, #62, #567, .T. ) ;
#234 = CYLINDRICAL_SURFACE ( 'NONE', #142, 0.1082677165354331700 ) ;
#235 = LINE ( 'NONE', #501, #760 ) ;
#236 = ORIENTED_EDGE ( 'NONE', *, *, #500, .T. ) ;
#237 = ORIENTED_EDGE ( 'NONE', *, *, #179, .T. ) ;
#238 = LINE ( 'NONE', #587, #641 ) ;
#239 = EDGE_CURVE ( 'NONE', #224, #135, #512, .T. ) ;
#240 = DIRECTION ( 'NONE',  ( -0.000000000000000000, 0.000000000000000000, 1.000000000000000000 ) ) ;
#241 = VERTEX_POINT ( 'NONE', #733 ) ;
#242 = COORDINATED_UNIVERSAL_TIME_OFFSET ( 5, 0, .BEHIND. ) ;
#243 = CARTESIAN_POINT ( 'NONE',  ( 0.5000000000000002220, -3.484251968503937480, -1.000000000000000000 ) ) ;
#244 = CARTESIAN_POINT ( 'NONE',  ( 5.334874862050654487E-17, 0.4999999999999996114, 0.1574803149606299191 ) ) ;
#245 = CIRCLE ( 'NONE', #778, 0.1082677165354331700 ) ;
#246 = LINE ( 'NONE', #868, #198 ) ;
#247 = DATE_AND_TIME ( #383, #801 ) ;
#248 = CARTESIAN_POINT ( 'NONE',  ( 1.733267716535433101, 0.8858267716535430658, 0.1574803149606299191 ) ) ;
#249 = VERTEX_POINT ( 'NONE', #927 ) ;
#250 = PLANE ( 'NONE',  #823 ) ;
#251 = ADVANCED_FACE ( 'NONE', ( #12 ), #283, .F. ) ;
#252 = DIRECTION ( 'NONE',  ( 1.000000000000000000, 0.000000000000000000, 0.000000000000000000 ) ) ;
#253 = CARTESIAN_POINT ( 'NONE',  ( -1.516732283464566899, -0.8858267716535432879, 0.1574803149606299191 ) ) ;
#254 = PLANE ( 'NONE',  #746 ) ;
#255 = CIRCLE ( 'NONE', #894, 0.1082677165354331700 ) ;
#256 = ADVANCED_FACE ( 'NONE', ( #288 ), #160, .T. ) ;
#257 = LINE ( 'NONE', #403, #882 ) ;
#258 = FACE_BOUND ( 'NONE', #162, .T. ) ;
#259 = VECTOR ( 'NONE', #293, 39.37007874015748143 ) ;
#260 = SECURITY_CLASSIFICATION_LEVEL ( 'unclassified' ) ;
#261 = DIRECTION ( 'NONE',  ( 0.000000000000000000, -0.000000000000000000, 1.000000000000000000 ) ) ;
#262 = EDGE_CURVE ( 'NONE', #599, #880, #104, .T. ) ;
#263 = FACE_OUTER_BOUND ( 'NONE', #441, .T. ) ;
#264 = DIRECTION ( 'NONE',  ( -0.000000000000000000, -0.000000000000000000, -1.000000000000000000 ) ) ;
#265 = PLANE ( 'NONE',  #141 ) ;
#266 = ORIENTED_EDGE ( 'NONE', *, *, #769, .F. ) ;
#267 = DIRECTION ( 'NONE',  ( -1.000000000000000000, 0.000000000000000000, 0.000000000000000000 ) ) ;
#268 = APPROVAL ( #483, 'UNSPECIFIED' ) ;
#269 = VECTOR ( 'NONE', #320, 39.37007874015748143 ) ;
#270 = ORIENTED_EDGE ( 'NONE', *, *, #369, .F. ) ;
#271 = ORIENTED_EDGE ( 'NONE', *, *, #884, .F. ) ;
#272 = DIRECTION ( 'NONE',  ( -0.000000000000000000, -0.000000000000000000, -1.000000000000000000 ) ) ;
#273 = FACE_OUTER_BOUND ( 'NONE', #820, .T. ) ;
#274 = AXIS2_PLACEMENT_3D ( 'NONE', #66, #502, #217 ) ;
#275 = ORIENTED_EDGE ( 'NONE', *, *, #209, .F. ) ;
#276 = DIRECTION ( 'NONE',  ( 1.000000000000000000, 1.066974972410132007E-16, 0.000000000000000000 ) ) ;
#277 = ADVANCED_FACE ( 'NONE', ( #101 ), #34, .T. ) ;
#278 = ORIENTED_EDGE ( 'NONE', *, *, #239, .F. ) ;
#279 = CARTESIAN_POINT ( 'NONE',  ( -2.066929133858267598, -1.377952755905513360, 0.1574803149606299191 ) ) ;
#280 = CARTESIAN_POINT ( 'NONE',  ( -0.5000000000000004441, -6.033820786006295085E-17, 0.1574803149606299191 ) ) ;
#281 = EDGE_LOOP ( 'NONE', ( #853, #270, #200, #35, #790, #361 ) ) ;
#282 = CARTESIAN_POINT ( 'NONE',  ( 0.000000000000000000, -3.641732283464567566, 0.1574803149606299191 ) ) ;
#283 = CYLINDRICAL_SURFACE ( 'NONE', #401, 0.1082677165354331700 ) ;
#284 = AXIS2_PLACEMENT_3D ( 'NONE', #486, #108, #915 ) ;
#285 = ORIENTED_EDGE ( 'NONE', *, *, #861, .T. ) ;
#286 = CARTESIAN_POINT ( 'NONE',  ( -3.829724409448818978, -0.5000000000000000000, -1.000000000000000000 ) ) ;
#287 = EDGE_CURVE ( 'NONE', #846, #28, #349, .T. ) ;
#288 = FACE_OUTER_BOUND ( 'NONE', #929, .T. ) ;
#289 = AXIS2_PLACEMENT_3D ( 'NONE', #581, #72, #348 ) ;
#290 = ORIENTED_EDGE ( 'NONE', *, *, #82, .T. ) ;
#291 = CARTESIAN_POINT ( 'NONE',  ( 1.516732283464566899, -0.8858267716535432879, 0.000000000000000000 ) ) ;
#292 = ORIENTED_EDGE ( 'NONE', *, *, #411, .T. ) ;
#293 = DIRECTION ( 'NONE',  ( 1.982541115402064124E-16, 1.000000000000000000, 0.000000000000000000 ) ) ;
#294 = ORIENTED_EDGE ( 'NONE', *, *, #543, .T. ) ;
#295 = CARTESIAN_POINT ( 'NONE',  ( 0.000000000000000000, -3.641732283464567566, 0.1574803149606299191 ) ) ;
#296 = VERTEX_POINT ( 'NONE', #381 ) ;
#297 = AXIS2_PLACEMENT_3D ( 'NONE', #718, #585, #276 ) ;
#298 = EDGE_CURVE ( 'NONE', #49, #249, #373, .T. ) ;
#299 = EDGE_LOOP ( 'NONE', ( #793, #876, #310, #865 ) ) ;
#300 = LINE ( 'NONE', #308, #877 ) ;
#301 = ORIENTED_EDGE ( 'NONE', *, *, #171, .F. ) ;
#302 = EDGE_CURVE ( 'NONE', #249, #296, #507, .T. ) ;
#303 = LINE ( 'NONE', #375, #643 ) ;
#304 = ORIENTED_EDGE ( 'NONE', *, *, #146, .F. ) ;
#305 = DIRECTION ( 'NONE',  ( -3.965082230804130713E-16, -1.000000000000000000, 0.000000000000000000 ) ) ;
#306 = DIRECTION ( 'NONE',  ( 1.206764157201258031E-16, 1.000000000000000000, 0.000000000000000000 ) ) ;
#307 = VERTEX_POINT ( 'NONE', #750 ) ;
#308 = CARTESIAN_POINT ( 'NONE',  ( 1.516732283464566899, -0.8858267716535432879, 0.1574803149606299191 ) ) ;
#309 = CARTESIAN_POINT ( 'NONE',  ( -3.987204724409449064, 0.5000000000000000000, 0.1574803149606299191 ) ) ;
#310 = ORIENTED_EDGE ( 'NONE', *, *, #861, .F. ) ;
#311 = PERSON_AND_ORGANIZATION_ROLE ( 'creator' ) ;
#312 = VECTOR ( 'NONE', #64, 39.37007874015748143 ) ;
#313 = VECTOR ( 'NONE', #479, 39.37007874015748143 ) ;
#314 = ORIENTED_EDGE ( 'NONE', *, *, #555, .T. ) ;
#315 = DIRECTION ( 'NONE',  ( -1.000000000000000000, 0.000000000000000000, 0.000000000000000000 ) ) ;
#316 = EDGE_CURVE ( 'NONE', #922, #362, #235, .T. ) ;
#317 = CARTESIAN_POINT ( 'NONE',  ( -3.829724409448818978, 0.5000000000000000000, 0.000000000000000000 ) ) ;
#318 = DIRECTION ( 'NONE',  ( -0.000000000000000000, 0.000000000000000000, 1.000000000000000000 ) ) ;
#319 = LINE ( 'NONE', #708, #582 ) ;
#320 = DIRECTION ( 'NONE',  ( -0.000000000000000000, -0.000000000000000000, -1.000000000000000000 ) ) ;
#321 = CARTESIAN_POINT ( 'NONE',  ( -2.066929133858267154, 4.097771990496390390E-16, 0.000000000000000000 ) ) ;
#322 = LINE ( 'NONE', #713, #688 ) ;
#323 = VECTOR ( 'NONE', #176, 39.37007874015748143 ) ;
#324 = EDGE_CURVE ( 'NONE', #533, #808, #601, .T. ) ;
#325 = CARTESIAN_POINT ( 'NONE',  ( -0.5000000000000000000, -3.641732283464567566, -1.000000000000000000 ) ) ;
#326 = CARTESIAN_POINT ( 'NONE',  ( 0.5000000000000002220, -1.377952755905513360, 0.1574803149606299191 ) ) ;
#327 = VECTOR ( 'NONE', #264, 39.37007874015748143 ) ;
#328 = EDGE_CURVE ( 'NONE', #296, #332, #246, .T. ) ;
#329 = EDGE_LOOP ( 'NONE', ( #117, #301, #78, #14, #278, #314 ) ) ;
#330 = CYLINDRICAL_SURFACE ( 'NONE', #148, 0.1082677165354331700 ) ;
#331 = CARTESIAN_POINT ( 'NONE',  ( -2.066929133858267154, -0.4999999999999998335, 0.000000000000000000 ) ) ;
#332 = VERTEX_POINT ( 'NONE', #542 ) ;
#333 = ORIENTED_EDGE ( 'NONE', *, *, #734, .F. ) ;
#334 = CARTESIAN_POINT ( 'NONE',  ( -0.5000000000000000000, -3.641732283464567566, -1.000000000000000000 ) ) ;
#335 = DIRECTION ( 'NONE',  ( 1.000000000000000000, 0.000000000000000000, 0.000000000000000000 ) ) ;
#336 = VECTOR ( 'NONE', #496, 39.37007874015748143 ) ;
#337 = VERTEX_POINT ( 'NONE', #827 ) ;
#338 = CARTESIAN_POINT ( 'NONE',  ( 1.625000000000000000, -0.8858267716535432879, 0.1574803149606299191 ) ) ;
#339 = ADVANCED_FACE ( 'NONE', ( #30 ), #655, .T. ) ;
#340 = CIRCLE ( 'NONE', #661, 0.1082677165354331700 ) ;
#341 = VERTEX_POINT ( 'NONE', #7 ) ;
#342 = ORIENTED_EDGE ( 'NONE', *, *, #3, .F. ) ;
#343 = DIRECTION ( 'NONE',  ( -0.000000000000000000, -0.000000000000000000, 1.000000000000000000 ) ) ;
#344 = CIRCLE ( 'NONE', #424, 0.1082677165354331700 ) ;
#345 = ADVANCED_FACE ( 'NONE', ( #215 ), #607, .T. ) ;
#346 = DIRECTION ( 'NONE',  ( -0.000000000000000000, -1.000000000000000000, -0.000000000000000000 ) ) ;
#347 = VERTEX_POINT ( 'NONE', #137 ) ;
#348 = DIRECTION ( 'NONE',  ( 1.000000000000000000, 0.000000000000000000, 0.000000000000000000 ) ) ;
#349 = LINE ( 'NONE', #662, #539 ) ;
#350 = EDGE_CURVE ( 'NONE', #448, #529, #340, .T. ) ;
#351 = CARTESIAN_POINT ( 'NONE',  ( -2.066929133858267154, 4.097771990496390390E-16, 0.1574803149606299191 ) ) ;
#352 = AXIS2_PLACEMENT_3D ( 'NONE', #167, #29, #305 ) ;
#353 = ORIENTED_EDGE ( 'NONE', *, *, #695, .F. ) ;
#354 = DIRECTION ( 'NONE',  ( 0.000000000000000000, -0.000000000000000000, 1.000000000000000000 ) ) ;
#355 = CIRCLE ( 'NONE', #454, 0.1082677165354331700 ) ;
#356 = DIRECTION ( 'NONE',  ( -1.000000000000000000, 1.982541115402064124E-16, 0.000000000000000000 ) ) ;
#357 = AXIS2_PLACEMENT_3D ( 'NONE', #578, #212, #377 ) ;
#358 = EDGE_CURVE ( 'NONE', #374, #780, #430, .T. ) ;
#359 = ORIENTED_EDGE ( 'NONE', *, *, #287, .F. ) ;
#360 = CARTESIAN_POINT ( 'NONE',  ( 1.733267716535433101, -0.8858267716535432879, 0.000000000000000000 ) ) ;
#361 = ORIENTED_EDGE ( 'NONE', *, *, #565, .T. ) ;
#362 = VERTEX_POINT ( 'NONE', #426 ) ;
#363 = DIRECTION ( 'NONE',  ( -0.000000000000000000, 0.000000000000000000, 1.000000000000000000 ) ) ;
#364 = ORIENTED_EDGE ( 'NONE', *, *, #605, .T. ) ;
#365 = VERTEX_POINT ( 'NONE', #462 ) ;
#366 = CARTESIAN_POINT ( 'NONE',  ( 6.374311985216612204E-16, 1.377952755905511362, 0.1574803149606299191 ) ) ;
#367 = SECURITY_CLASSIFICATION ( '', '', #260 ) ;
#368 = ORIENTED_EDGE ( 'NONE', *, *, #58, .T. ) ;
#369 = EDGE_CURVE ( 'NONE', #412, #893, #722, .T. ) ;
#370 = VECTOR ( 'NONE', #440, 39.37007874015748143 ) ;
#371 = EDGE_LOOP ( 'NONE', ( #56, #156, #292, #800 ) ) ;
#372 = DIRECTION ( 'NONE',  ( 1.000000000000000000, 0.000000000000000000, 0.000000000000000000 ) ) ;
#373 = LINE ( 'NONE', #687, #405 ) ;
#374 = VERTEX_POINT ( 'NONE', #74 ) ;
#375 = CARTESIAN_POINT ( 'NONE',  ( 2.066929133858268042, -8.195543980992789655E-16, 0.000000000000000000 ) ) ;
#376 = DIRECTION ( 'NONE',  ( -1.000000000000000000, 0.000000000000000000, 0.000000000000000000 ) ) ;
#377 = DIRECTION ( 'NONE',  ( 1.000000000000000000, 0.000000000000000000, 0.000000000000000000 ) ) ;
#378 = ORIENTED_EDGE ( 'NONE', *, *, #225, .F. ) ;
#379 = ADVANCED_FACE ( 'NONE', ( #263 ), #905, .T. ) ;
#380 = DIRECTION ( 'NONE',  ( 1.000000000000000000, 0.000000000000000000, 0.000000000000000000 ) ) ;
#381 = CARTESIAN_POINT ( 'NONE',  ( -3.987204724409449064, 0.5000000000000000000, -1.000000000000000000 ) ) ;
#382 = LOCAL_TIME ( 12, 13, 13.00000000000000000, #619 ) ;
#383 = CALENDAR_DATE ( 2026, 10, 6 ) ;
#384 = VECTOR ( 'NONE', #185, 39.37007874015748143 ) ;
#385 = DIRECTION ( 'NONE',  ( 1.000000000000000000, 0.000000000000000000, 0.000000000000000000 ) ) ;
#386 = AXIS2_PLACEMENT_3D ( 'NONE', #796, #356, #892 ) ;
#387 = ADVANCED_FACE ( 'NONE', ( #190 ), #707, .F. ) ;
#388 = CARTESIAN_POINT ( 'NONE',  ( -1.625000000000000000, -0.8858267716535432879, 0.000000000000000000 ) ) ;
#389 = DIRECTION ( 'NONE',  ( -0.000000000000000000, 0.000000000000000000, 1.000000000000000000 ) ) ;
#390 =( NAMED_UNIT ( * ) PLANE_ANGLE_UNIT ( ) SI_UNIT ( $, .RADIAN. ) );
#391 = CARTESIAN_POINT ( 'NONE',  ( 0.000000000000000000, 0.000000000000000000, -1.000000000000000000 ) ) ;
#392 = FACE_BOUND ( 'NONE', #783, .T. ) ;
#393 = ADVANCED_FACE ( 'NONE', ( #767 ), #330, .F. ) ;
#394 = DATE_AND_TIME ( #779, #686 ) ;
#395 = DIRECTION ( 'NONE',  ( -0.000000000000000000, 0.000000000000000000, 1.000000000000000000 ) ) ;
#396 = LINE ( 'NONE', #698, #259 ) ;
#397 = DIRECTION ( 'NONE',  ( -1.982541115402064124E-16, -1.000000000000000000, 0.000000000000000000 ) ) ;
#398 = CYLINDRICAL_SURFACE ( 'NONE', #436, 0.1082677165354331700 ) ;
#399 = PRODUCT_DEFINITION ( 'UNKNOWN', '', #6, #764 ) ;
#400 = EDGE_LOOP ( 'NONE', ( #638, #596 ) ) ;
#401 = AXIS2_PLACEMENT_3D ( 'NONE', #822, #815, #614 ) ;
#402 = ORIENTED_EDGE ( 'NONE', *, *, #912, .T. ) ;
#403 = CARTESIAN_POINT ( 'NONE',  ( 5.334874862050654487E-17, 0.4999999999999996114, 0.000000000000000000 ) ) ;
#404 = LINE ( 'NONE', #920, #226 ) ;
#405 = VECTOR ( 'NONE', #683, 39.37007874015748143 ) ;
#406 = COORDINATED_UNIVERSAL_TIME_OFFSET ( 5, 0, .BEHIND. ) ;
#407 = VERTEX_POINT ( 'NONE', #253 ) ;
#408 = DIRECTION ( 'NONE',  ( 1.000000000000000000, 0.000000000000000000, 0.000000000000000000 ) ) ;
#409 = CARTESIAN_POINT ( 'NONE',  ( -1.625000000000000000, -0.8858267716535432879, 0.1574803149606299191 ) ) ;
#410 = ORIENTED_EDGE ( 'NONE', *, *, #92, .F. ) ;
#411 = EDGE_CURVE ( 'NONE', #670, #10, #637, .T. ) ;
#412 = VERTEX_POINT ( 'NONE', #772 ) ;
#413 = CARTESIAN_POINT ( 'NONE',  ( 1.625000000000000000, -0.8858267716535432879, 0.1574803149606299191 ) ) ;
#414 = APPROVAL_PERSON_ORGANIZATION ( #93, #640, #911 ) ;
#415 = LINE ( 'NONE', #908, #660 ) ;
#416 = VECTOR ( 'NONE', #214, 39.37007874015748143 ) ;
#417 = ORIENTED_EDGE ( 'NONE', *, *, #9, .F. ) ;
#418 = LINE ( 'NONE', #334, #336 ) ;
#419 = EDGE_CURVE ( 'NONE', #896, #873, #257, .T. ) ;
#420 = DIRECTION ( 'NONE',  ( 1.000000000000000000, 0.000000000000000000, 0.000000000000000000 ) ) ;
#421 = CARTESIAN_POINT ( 'NONE',  ( -0.5000000000000002220, -1.377952755905513360, 0.000000000000000000 ) ) ;
#422 = ORIENTED_EDGE ( 'NONE', *, *, #676, .F. ) ;
#423 = DIRECTION ( 'NONE',  ( 0.000000000000000000, -1.000000000000000000, 0.000000000000000000 ) ) ;
#424 = AXIS2_PLACEMENT_3D ( 'NONE', #338, #140, #650 ) ;
#425 = EDGE_CURVE ( 'NONE', #332, #224, #712, .T. ) ;
#426 = CARTESIAN_POINT ( 'NONE',  ( 0.5000000000000001110, -3.641732283464567566, -1.000000000000000000 ) ) ;
#427 = DIRECTION ( 'NONE',  ( -0.000000000000000000, 0.000000000000000000, 1.000000000000000000 ) ) ;
#428 = ORIENTED_EDGE ( 'NONE', *, *, #302, .F. ) ;
#429 = DIRECTION ( 'NONE',  ( -0.000000000000000000, -0.000000000000000000, 1.000000000000000000 ) ) ;
#430 = LINE ( 'NONE', #536, #731 ) ;
#431 = EDGE_CURVE ( 'NONE', #634, #347, #694, .T. ) ;
#432 = CARTESIAN_POINT ( 'NONE',  ( 1.516732283464566899, 0.8858267716535430658, 0.000000000000000000 ) ) ;
#433 = LOCAL_TIME ( 12, 13, 13.00000000000000000, #623 ) ;
#434 = ORIENTED_EDGE ( 'NONE', *, *, #867, .T. ) ;
#435 = DIRECTION ( 'NONE',  ( 1.000000000000000000, 0.000000000000000000, 0.000000000000000000 ) ) ;
#436 = AXIS2_PLACEMENT_3D ( 'NONE', #182, #910, #492 ) ;
#437 = ORIENTED_EDGE ( 'NONE', *, *, #161, .F. ) ;
#438 = VECTOR ( 'NONE', #42, 39.37007874015748143 ) ;
#439 = DIRECTION ( 'NONE',  ( -1.000000000000000000, -0.000000000000000000, -0.000000000000000000 ) ) ;
#440 = DIRECTION ( 'NONE',  ( -0.000000000000000000, -0.000000000000000000, -1.000000000000000000 ) ) ;
#441 = EDGE_LOOP ( 'NONE', ( #890, #230, #714, #603 ) ) ;
#442 = CARTESIAN_POINT ( 'NONE',  ( 5.334874862050654487E-17, -0.4999999999999996114, 0.000000000000000000 ) ) ;
#443 = EDGE_LOOP ( 'NONE', ( #222, #304, #437, #841 ) ) ;
#444 = LINE ( 'NONE', #738, #59 ) ;
#445 = VERTEX_POINT ( 'NONE', #325 ) ;
#446 = DIRECTION ( 'NONE',  ( 0.000000000000000000, 1.000000000000000000, 0.000000000000000000 ) ) ;
#447 = EDGE_CURVE ( 'NONE', #599, #62, #112, .T. ) ;
#448 = VERTEX_POINT ( 'NONE', #631 ) ;
#449 = EDGE_LOOP ( 'NONE', ( #735, #515, #228, #428, #592, #586 ) ) ;
#450 = CARTESIAN_POINT ( 'NONE',  ( 2.066929133858268486, 1.377952755905510251, 0.1574803149606299191 ) ) ;
#451 =( GEOMETRIC_REPRESENTATION_CONTEXT ( 3 ) GLOBAL_UNCERTAINTY_ASSIGNED_CONTEXT ( ( #467 ) ) GLOBAL_UNIT_ASSIGNED_CONTEXT ( ( #180, #390, #110 ) ) REPRESENTATION_CONTEXT ( 'NONE', 'WORKASPACE' ) );
#452 = DIRECTION ( 'NONE',  ( 0.000000000000000000, 0.000000000000000000, -1.000000000000000000 ) ) ;
#453 = ORIENTED_EDGE ( 'NONE', *, *, #521, .T. ) ;
#454 = AXIS2_PLACEMENT_3D ( 'NONE', #409, #560, #691 ) ;
#455 = EDGE_LOOP ( 'NONE', ( #901, #410, #368, #220 ) ) ;
#456 = CARTESIAN_POINT ( 'NONE',  ( -3.829724409448818978, -0.5000000000000000000, -1.000000000000000000 ) ) ;
#457 = CARTESIAN_POINT ( 'NONE',  ( 0.000000000000000000, 0.000000000000000000, -1.000000000000000000 ) ) ;
#458 = ORIENTED_EDGE ( 'NONE', *, *, #734, .T. ) ;
#459 = ADVANCED_FACE ( 'NONE', ( #699 ), #848, .F. ) ;
#460 = APPROVAL_DATE_TIME ( #44, #844 ) ;
#461 = LINE ( 'NONE', #624, #323 ) ;
#462 = CARTESIAN_POINT ( 'NONE',  ( -1.733267716535433101, -0.8858267716535432879, 0.000000000000000000 ) ) ;
#463 = APPROVAL_DATE_TIME ( #175, #640 ) ;
#464 = FACE_OUTER_BOUND ( 'NONE', #443, .T. ) ;
#465 = DIRECTION ( 'NONE',  ( -1.000000000000000000, 1.982541115402064124E-16, 0.000000000000000000 ) ) ;
#466 = VECTOR ( 'NONE', #33, 39.37007874015748143 ) ;
#467 = UNCERTAINTY_MEASURE_WITH_UNIT (LENGTH_MEASURE( 1.000000000000000082E-05 ), #180, 'distance_accuracy_value', 'NONE');
#468 = VECTOR ( 'NONE', #346, 39.37007874015748143 ) ;
#469 = AXIS2_PLACEMENT_3D ( 'NONE', #196, #563, #315 ) ;
#470 = EDGE_CURVE ( 'NONE', #893, #337, #781, .T. ) ;
#471 = CARTESIAN_POINT ( 'NONE',  ( 1.625000000000000000, -0.8858267716535432879, 0.000000000000000000 ) ) ;
#472 = FACE_BOUND ( 'NONE', #930, .T. ) ;
#473 = DIRECTION ( 'NONE',  ( 0.000000000000000000, 1.000000000000000000, 0.000000000000000000 ) ) ;
#474 = DIRECTION ( 'NONE',  ( 1.206764157201258031E-16, -1.000000000000000000, 0.000000000000000000 ) ) ;
#475 = DIRECTION ( 'NONE',  ( -0.000000000000000000, -0.000000000000000000, -1.000000000000000000 ) ) ;
#476 = EDGE_CURVE ( 'NONE', #135, #296, #690, .T. ) ;
#477 = LENGTH_MEASURE_WITH_UNIT ( LENGTH_MEASURE( 0.02539999999999999897 ), #754 );
#478 = ORIENTED_EDGE ( 'NONE', *, *, #52, .T. ) ;
#479 = DIRECTION ( 'NONE',  ( 1.982541115402064124E-16, 1.000000000000000000, 0.000000000000000000 ) ) ;
#480 = CARTESIAN_POINT ( 'NONE',  ( 6.374311985216612204E-16, 1.377952755905511362, 0.000000000000000000 ) ) ;
#481 = AXIS2_PLACEMENT_3D ( 'NONE', #366, #826, #541 ) ;
#482 = AXIS2_PLACEMENT_3D ( 'NONE', #413, #272, #866 ) ;
#483 = APPROVAL_STATUS ( 'not_yet_approved' ) ;
#484 = AXIS2_PLACEMENT_3D ( 'NONE', #132, #423, #610 ) ;
#485 = ORIENTED_EDGE ( 'NONE', *, *, #719, .F. ) ;
#486 = CARTESIAN_POINT ( 'NONE',  ( -1.625000000000000000, 0.8858267716535430658, 0.1574803149606299191 ) ) ;
#487 = CARTESIAN_POINT ( 'NONE',  ( -3.987204724409449064, -0.5000000000000000000, 0.1574803149606299191 ) ) ;
#488 = VECTOR ( 'NONE', #343, 39.37007874015748143 ) ;
#489 = ADVANCED_FACE ( 'NONE', ( #556 ), #250, .T. ) ;
#490 = ORIENTED_EDGE ( 'NONE', *, *, #233, .F. ) ;
#491 = CARTESIAN_POINT ( 'NONE',  ( -3.829724409448818978, 0.4999999999999997224, -1.000000000000000000 ) ) ;
#492 = DIRECTION ( 'NONE',  ( -1.000000000000000000, 0.000000000000000000, 0.000000000000000000 ) ) ;
#493 = EDGE_CURVE ( 'NONE', #10, #341, #103, .T. ) ;
#494 = CARTESIAN_POINT ( 'NONE',  ( 2.066929133858268486, 1.377952755905510251, 0.1574803149606299191 ) ) ;
#495 = EDGE_LOOP ( 'NONE', ( #798, #604, #720, #706 ) ) ;
#496 = DIRECTION ( 'NONE',  ( 0.000000000000000000, 1.000000000000000000, 0.000000000000000000 ) ) ;
#497 = CC_DESIGN_APPROVAL ( #640, ( #367 ) ) ;
#498 = ORIENTED_EDGE ( 'NONE', *, *, #86, .F. ) ;
#499 = CARTESIAN_POINT ( 'NONE',  ( 0.5000000000000004441, -6.033820786006295085E-17, 0.000000000000000000 ) ) ;
#500 = EDGE_CURVE ( 'NONE', #846, #125, #177, .T. ) ;
#501 = CARTESIAN_POINT ( 'NONE',  ( 0.5000000000000000000, -3.641732283464567566, 0.1574803149606299191 ) ) ;
#502 = DIRECTION ( 'NONE',  ( -0.000000000000000000, 0.000000000000000000, 1.000000000000000000 ) ) ;
#503 = ORIENTED_EDGE ( 'NONE', *, *, #419, .F. ) ;
#504 = CARTESIAN_POINT ( 'NONE',  ( -0.5000000000000000000, -3.641732283464567566, 0.1574803149606299191 ) ) ;
#505 = CIRCLE ( 'NONE', #525, 0.1082677165354331700 ) ;
#506 = EDGE_CURVE ( 'NONE', #206, #365, #928, .T. ) ;
#507 = LINE ( 'NONE', #309, #75 ) ;
#508 = CARTESIAN_POINT ( 'NONE',  ( -2.066929133858267154, 0.4999999999999997780, 0.1574803149606299191 ) ) ;
#509 = ORIENTED_EDGE ( 'NONE', *, *, #65, .F. ) ;
#510 = CARTESIAN_POINT ( 'NONE',  ( 2.066929133858267598, -1.377952755905513360, 0.1574803149606299191 ) ) ;
#511 = VERTEX_POINT ( 'NONE', #39 ) ;
#512 = LINE ( 'NONE', #144, #702 ) ;
#513 = LOCAL_TIME ( 12, 13, 13.00000000000000000, #242 ) ;
#514 = LINE ( 'NONE', #663, #468 ) ;
#515 = ORIENTED_EDGE ( 'NONE', *, *, #528, .F. ) ;
#516 = FACE_OUTER_BOUND ( 'NONE', #588, .T. ) ;
#517 = AXIS2_PLACEMENT_3D ( 'NONE', #282, #124, #354 ) ;
#518 = AXIS2_PLACEMENT_3D ( 'NONE', #457, #452, #583 ) ;
#519 = ORIENTED_EDGE ( 'NONE', *, *, #133, .T. ) ;
#520 = AXIS2_PLACEMENT_3D ( 'NONE', #388, #834, #625 ) ;
#521 = EDGE_CURVE ( 'NONE', #743, #771, #245, .T. ) ;
#522 = DIRECTION ( 'NONE',  ( 1.982541115402064124E-16, 1.000000000000000000, 0.000000000000000000 ) ) ;
#523 = ORIENTED_EDGE ( 'NONE', *, *, #575, .T. ) ;
#524 = DIRECTION ( 'NONE',  ( 0.000000000000000000, -0.000000000000000000, 1.000000000000000000 ) ) ;
#525 = AXIS2_PLACEMENT_3D ( 'NONE', #639, #569, #715 ) ;
#526 = ORIENTED_EDGE ( 'NONE', *, *, #262, .T. ) ;
#527 = CARTESIAN_POINT ( 'NONE',  ( -2.066929133858267154, 0.4999999999999997780, 0.1574803149606299191 ) ) ;
#528 = EDGE_CURVE ( 'NONE', #332, #873, #106, .T. ) ;
#529 = VERTEX_POINT ( 'NONE', #68 ) ;
#530 = DIRECTION ( 'NONE',  ( -1.000000000000000000, 0.000000000000000000, 0.000000000000000000 ) ) ;
#531 = DIRECTION ( 'NONE',  ( 1.000000000000000000, -1.206764157201258031E-16, 0.000000000000000000 ) ) ;
#532 = ORIENTED_EDGE ( 'NONE', *, *, #925, .F. ) ;
#533 = VERTEX_POINT ( 'NONE', #510 ) ;
#534 = CARTESIAN_POINT ( 'NONE',  ( 1.625000000000000000, 0.8858267716535430658, 0.1574803149606299191 ) ) ;
#535 = APPROVAL_PERSON_ORGANIZATION ( #544, #844, #907 ) ;
#536 = CARTESIAN_POINT ( 'NONE',  ( -2.066929133858266709, 1.377952755905512250, 0.1574803149606299191 ) ) ;
#537 = EDGE_CURVE ( 'NONE', #880, #599, #810, .T. ) ;
#538 = ORIENTED_EDGE ( 'NONE', *, *, #447, .T. ) ;
#539 = VECTOR ( 'NONE', #38, 39.37007874015748143 ) ;
#540 = PERSON_AND_ORGANIZATION ( #205, #788 ) ;
#541 = DIRECTION ( 'NONE',  ( -1.000000000000000000, 4.625929269271486900E-16, 0.000000000000000000 ) ) ;
#542 = CARTESIAN_POINT ( 'NONE',  ( -3.829724409448818978, 0.4999999999999997224, -1.000000000000000000 ) ) ;
#543 = EDGE_CURVE ( 'NONE', #673, #407, #505, .T. ) ;
#544 = PERSON_AND_ORGANIZATION ( #205, #788 ) ;
#545 = FACE_BOUND ( 'NONE', #717, .T. ) ;
#546 = ORIENTED_EDGE ( 'NONE', *, *, #350, .F. ) ;
#547 = DIRECTION ( 'NONE',  ( -1.000000000000000000, -1.066974972410131760E-16, 0.000000000000000000 ) ) ;
#548 = CARTESIAN_POINT ( 'NONE',  ( -1.733267716535433101, 0.8858267716535430658, 0.1574803149606299191 ) ) ;
#549 = CARTESIAN_POINT ( 'NONE',  ( -2.066929133858267154, 4.097771990496390390E-16, 0.1574803149606299191 ) ) ;
#550 = DIRECTION ( 'NONE',  ( 1.206764157201258031E-16, -1.000000000000000000, 0.000000000000000000 ) ) ;
#551 = APPLICATION_CONTEXT ( 'configuration controlled 3d designs of mechanical parts and assemblies' ) ;
#552 = VECTOR ( 'NONE', #136, 39.37007874015748143 ) ;
#553 = PERSON_AND_ORGANIZATION_ROLE ( 'creator' ) ;
#554 = AXIS2_PLACEMENT_3D ( 'NONE', #13, #427, #723 ) ;
#555 = EDGE_CURVE ( 'NONE', #224, #241, #57, .T. ) ;
#556 = FACE_OUTER_BOUND ( 'NONE', #455, .T. ) ;
#557 = CARTESIAN_POINT ( 'NONE',  ( 1.733267716535433101, -0.8858267716535432879, 0.1574803149606299191 ) ) ;
#558 = DIRECTION ( 'NONE',  ( -0.000000000000000000, 0.000000000000000000, 1.000000000000000000 ) ) ;
#559 = DIRECTION ( 'NONE',  ( 0.000000000000000000, 0.000000000000000000, -1.000000000000000000 ) ) ;
#560 = DIRECTION ( 'NONE',  ( -0.000000000000000000, 0.000000000000000000, 1.000000000000000000 ) ) ;
#561 = CARTESIAN_POINT ( 'NONE',  ( 0.000000000000000000, 0.000000000000000000, 0.1574803149606299191 ) ) ;
#562 = ORIENTED_EDGE ( 'NONE', *, *, #302, .T. ) ;
#563 = DIRECTION ( 'NONE',  ( -0.000000000000000000, -0.000000000000000000, -1.000000000000000000 ) ) ;
#564 = DIRECTION ( 'NONE',  ( -0.000000000000000000, -0.000000000000000000, -1.000000000000000000 ) ) ;
#565 = EDGE_CURVE ( 'NONE', #684, #28, #799, .T. ) ;
#566 = CIRCLE ( 'NONE', #152, 0.1082677165354331700 ) ;
#567 = CIRCLE ( 'NONE', #274, 0.1082677165354331700 ) ;
#568 = ORIENTED_EDGE ( 'NONE', *, *, #179, .F. ) ;
#569 = DIRECTION ( 'NONE',  ( -0.000000000000000000, 0.000000000000000000, 1.000000000000000000 ) ) ;
#570 = VECTOR ( 'NONE', #475, 39.37007874015748143 ) ;
#571 = EDGE_CURVE ( 'NONE', #362, #445, #126, .T. ) ;
#572 = ORIENTED_EDGE ( 'NONE', *, *, #676, .T. ) ;
#573 = ORIENTED_EDGE ( 'NONE', *, *, #58, .F. ) ;
#574 = CARTESIAN_POINT ( 'NONE',  ( 0.5000000000000002220, -1.377952755905513360, 0.000000000000000000 ) ) ;
#575 = EDGE_CURVE ( 'NONE', #111, #307, #344, .T. ) ;
#576 = ORIENTED_EDGE ( 'NONE', *, *, #537, .T. ) ;
#577 = FACE_OUTER_BOUND ( 'NONE', #88, .T. ) ;
#578 = CARTESIAN_POINT ( 'NONE',  ( 1.625000000000000000, 0.8858267716535430658, 0.1574803149606299191 ) ) ;
#579 = CC_DESIGN_PERSON_AND_ORGANIZATION_ASSIGNMENT ( #633, #917, ( #777 ) ) ;
#580 = VERTEX_POINT ( 'NONE', #504 ) ;
#581 = CARTESIAN_POINT ( 'NONE',  ( 1.625000000000000000, 0.8858267716535430658, 0.1574803149606299191 ) ) ;
#582 = VECTOR ( 'NONE', #700, 39.37007874015748143 ) ;
#583 = DIRECTION ( 'NONE',  ( -1.000000000000000000, 0.000000000000000000, -0.000000000000000000 ) ) ;
#584 = ORIENTED_EDGE ( 'NONE', *, *, #186, .T. ) ;
#585 = DIRECTION ( 'NONE',  ( 1.066974972410132007E-16, -1.000000000000000000, 0.000000000000000000 ) ) ;
#586 = ORIENTED_EDGE ( 'NONE', *, *, #92, .T. ) ;
#587 = CARTESIAN_POINT ( 'NONE',  ( 0.000000000000000000, -1.377952755905513360, 0.1574803149606299191 ) ) ;
#588 = EDGE_LOOP ( 'NONE', ( #739, #342, #870, #232 ) ) ;
#589 = EDGE_CURVE ( 'NONE', #218, #511, #887, .T. ) ;
#590 = VECTOR ( 'NONE', #821, 39.37007874015748143 ) ;
#591 = LINE ( 'NONE', #869, #776 ) ;
#592 = ORIENTED_EDGE ( 'NONE', *, *, #298, .F. ) ;
#593 = DIRECTION ( 'NONE',  ( -1.000000000000000000, -1.066974972410131760E-16, 0.000000000000000000 ) ) ;
#594 = ADVANCED_BREP_SHAPE_REPRESENTATION ( 'ContactorGuide', ( #79, #656 ), #451 ) ;
#595 = VECTOR ( 'NONE', #906, 39.37007874015748143 ) ;
#596 = ORIENTED_EDGE ( 'NONE', *, *, #925, .T. ) ;
#597 = ADVANCED_FACE ( 'NONE', ( #577 ), #931, .F. ) ;
#598 = CARTESIAN_POINT ( 'NONE',  ( 1.625000000000000000, -0.8858267716535432879, 0.1574803149606299191 ) ) ;
#599 = VERTEX_POINT ( 'NONE', #794 ) ;
#600 = LINE ( 'NONE', #740, #774 ) ;
#601 = LINE ( 'NONE', #888, #114 ) ;
#602 = DIMENSIONAL_EXPONENTS ( 1.000000000000000000, 0.000000000000000000, 0.000000000000000000, 0.000000000000000000, 0.000000000000000000, 0.000000000000000000, 0.000000000000000000 ) ;
#603 = ORIENTED_EDGE ( 'NONE', *, *, #239, .T. ) ;
#604 = ORIENTED_EDGE ( 'NONE', *, *, #358, .F. ) ;
#605 = EDGE_CURVE ( 'NONE', #445, #412, #418, .T. ) ;
#606 = FACE_OUTER_BOUND ( 'NONE', #201, .T. ) ;
#607 = PLANE ( 'NONE',  #386 ) ;
#608 = ORIENTED_EDGE ( 'NONE', *, *, #666, .F. ) ;
#609 = APPROVAL_STATUS ( 'not_yet_approved' ) ;
#610 = DIRECTION ( 'NONE',  ( 0.000000000000000000, -0.000000000000000000, -1.000000000000000000 ) ) ;
#611 = AXIS2_PLACEMENT_3D ( 'NONE', #758, #395, #620 ) ;
#612 = ADVANCED_FACE ( 'NONE', ( #923 ), #784, .F. ) ;
#613 = ORIENTED_EDGE ( 'NONE', *, *, #571, .F. ) ;
#614 = DIRECTION ( 'NONE',  ( -1.000000000000000000, 0.000000000000000000, 0.000000000000000000 ) ) ;
#615 = AXIS2_PLACEMENT_3D ( 'NONE', #745, #90, #97 ) ;
#616 = CALENDAR_DATE ( 2026, 10, 6 ) ;
#617 = CARTESIAN_POINT ( 'NONE',  ( -2.066929133858267154, 0.4999999999999997780, 0.000000000000000000 ) ) ;
#618 = CARTESIAN_POINT ( 'NONE',  ( -3.987204724409449064, -0.5000000000000000000, -1.000000000000000000 ) ) ;
#619 = COORDINATED_UNIVERSAL_TIME_OFFSET ( 5, 0, .BEHIND. ) ;
#620 = DIRECTION ( 'NONE',  ( 1.000000000000000000, 0.000000000000000000, 0.000000000000000000 ) ) ;
#621 = CARTESIAN_POINT ( 'NONE',  ( -2.066929133858267154, 4.097771990496390390E-16, 0.1574803149606299191 ) ) ;
#622 = ADVANCED_FACE ( 'NONE', ( #871 ), #863, .T. ) ;
#623 = COORDINATED_UNIVERSAL_TIME_OFFSET ( 5, 0, .BEHIND. ) ;
#624 = CARTESIAN_POINT ( 'NONE',  ( 0.5000000000000001110, -3.641732283464567566, -1.000000000000000000 ) ) ;
#625 = DIRECTION ( 'NONE',  ( 1.000000000000000000, 0.000000000000000000, 0.000000000000000000 ) ) ;
#626 = LINE ( 'NONE', #487, #130 ) ;
#627 = AXIS2_PLACEMENT_3D ( 'NONE', #705, #102, #385 ) ;
#628 = PERSON_AND_ORGANIZATION_ROLE ( 'classification_officer' ) ;
#629 = VECTOR ( 'NONE', #94, 39.37007874015748143 ) ;
#630 = CARTESIAN_POINT ( 'NONE',  ( 1.625000000000000000, -0.8858267716535432879, 0.000000000000000000 ) ) ;
#631 = CARTESIAN_POINT ( 'NONE',  ( -1.733267716535433101, 0.8858267716535430658, 0.1574803149606299191 ) ) ;
#632 = CARTESIAN_POINT ( 'NONE',  ( -1.733267716535433101, 0.8858267716535430658, 0.000000000000000000 ) ) ;
#633 = PERSON_AND_ORGANIZATION ( #205, #788 ) ;
#634 = VERTEX_POINT ( 'NONE', #574 ) ;
#635 = EDGE_CURVE ( 'NONE', #374, #808, #860, .T. ) ;
#636 = ORIENTED_EDGE ( 'NONE', *, *, #814, .F. ) ;
#637 = LINE ( 'NONE', #621, #313 ) ;
#638 = ORIENTED_EDGE ( 'NONE', *, *, #589, .T. ) ;
#639 = CARTESIAN_POINT ( 'NONE',  ( -1.625000000000000000, -0.8858267716535432879, 0.1574803149606299191 ) ) ;
#640 = APPROVAL ( #609, 'UNSPECIFIED' ) ;
#641 = VECTOR ( 'NONE', #372, 39.37007874015748143 ) ;
#642 = ORIENTED_EDGE ( 'NONE', *, *, #695, .T. ) ;
#643 = VECTOR ( 'NONE', #231, 39.37007874015748143 ) ;
#644 = ORIENTED_EDGE ( 'NONE', *, *, #27, .F. ) ;
#645 = DIRECTION ( 'NONE',  ( -0.000000000000000000, 0.000000000000000000, 1.000000000000000000 ) ) ;
#646 = VECTOR ( 'NONE', #755, 39.37007874015748143 ) ;
#647 = LINE ( 'NONE', #129, #716 ) ;
#648 = VECTOR ( 'NONE', #54, 39.37007874015748143 ) ;
#649 = ORIENTED_EDGE ( 'NONE', *, *, #555, .F. ) ;
#650 = DIRECTION ( 'NONE',  ( 1.000000000000000000, 0.000000000000000000, 0.000000000000000000 ) ) ;
#651 = EDGE_CURVE ( 'NONE', #341, #249, #654, .T. ) ;
#652 = PLANE ( 'NONE',  #789 ) ;
#653 = ORIENTED_EDGE ( 'NONE', *, *, #316, .T. ) ;
#654 = LINE ( 'NONE', #855, #416 ) ;
#655 = PLANE ( 'NONE',  #852 ) ;
#656 = AXIS2_PLACEMENT_3D ( 'NONE', #697, #45, #100 ) ;
#657 = DIRECTION ( 'NONE',  ( -0.000000000000000000, -0.000000000000000000, -1.000000000000000000 ) ) ;
#658 = EDGE_LOOP ( 'NONE', ( #294, #519, #786, #16 ) ) ;
#659 = LINE ( 'NONE', #499, #879 ) ;
#660 = VECTOR ( 'NONE', #474, 39.37007874015748143 ) ;
#661 = AXIS2_PLACEMENT_3D ( 'NONE', #792, #240, #134 ) ;
#662 = CARTESIAN_POINT ( 'NONE',  ( 0.000000000000000000, -1.377952755905513360, 0.000000000000000000 ) ) ;
#663 = CARTESIAN_POINT ( 'NONE',  ( -3.829724409448818978, -0.5000000000000000000, 0.000000000000000000 ) ) ;
#664 = ORIENTED_EDGE ( 'NONE', *, *, #298, .T. ) ;
#665 = FACE_OUTER_BOUND ( 'NONE', #495, .T. ) ;
#666 = EDGE_CURVE ( 'NONE', #213, #922, #211, .T. ) ;
#667 = ORIENTED_EDGE ( 'NONE', *, *, #233, .T. ) ;
#668 = ORIENTED_EDGE ( 'NONE', *, *, #21, .T. ) ;
#669 = FACE_OUTER_BOUND ( 'NONE', #449, .T. ) ;
#670 = VERTEX_POINT ( 'NONE', #279 ) ;
#671 = VECTOR ( 'NONE', #674, 39.37007874015748143 ) ;
#672 = FACE_OUTER_BOUND ( 'NONE', #299, .T. ) ;
#673 = VERTEX_POINT ( 'NONE', #202 ) ;
#674 = DIRECTION ( 'NONE',  ( 1.000000000000000000, 0.000000000000000000, 0.000000000000000000 ) ) ;
#675 = EDGE_LOOP ( 'NONE', ( #509, #523, #189, #742 ) ) ;
#676 = EDGE_CURVE ( 'NONE', #634, #337, #659, .T. ) ;
#677 = ORIENTED_EDGE ( 'NONE', *, *, #666, .T. ) ;
#678 = PLANE ( 'NONE',  #352 ) ;
#679 = DIRECTION ( 'NONE',  ( 1.000000000000000000, -1.734723475976805714E-15, 0.000000000000000000 ) ) ;
#680 = ORIENTED_EDGE ( 'NONE', *, *, #565, .F. ) ;
#681 = ADVANCED_FACE ( 'NONE', ( #791 ), #219, .F. ) ;
#682 = DIRECTION ( 'NONE',  ( 0.000000000000000000, 0.000000000000000000, 1.000000000000000000 ) ) ;
#683 = DIRECTION ( 'NONE',  ( -1.000000000000000000, 1.066974972410131760E-16, 0.000000000000000000 ) ) ;
#684 = VERTEX_POINT ( 'NONE', #24 ) ;
#685 = CIRCLE ( 'NONE', #627, 0.1082677165354331700 ) ;
#686 = LOCAL_TIME ( 12, 13, 13.00000000000000000, #406 ) ;
#687 = CARTESIAN_POINT ( 'NONE',  ( 5.334874862050654487E-17, 0.4999999999999996114, 0.1574803149606299191 ) ) ;
#688 = VECTOR ( 'NONE', #924, 39.37007874015748143 ) ;
#689 = CALENDAR_DATE ( 2026, 10, 6 ) ;
#690 = LINE ( 'NONE', #618, #704 ) ;
#691 = DIRECTION ( 'NONE',  ( 1.000000000000000000, 0.000000000000000000, 0.000000000000000000 ) ) ;
#692 = EDGE_CURVE ( 'NONE', #125, #241, #736, .T. ) ;
#693 = CARTESIAN_POINT ( 'NONE',  ( -2.066929133858267598, -1.377952755905513360, 0.000000000000000000 ) ) ;
#694 = LINE ( 'NONE', #909, #438 ) ;
#695 = EDGE_CURVE ( 'NONE', #62, #803, #566, .T. ) ;
#696 = DATE_TIME_ROLE ( 'classification_date' ) ;
#697 = CARTESIAN_POINT ( 'NONE',  ( 0.000000000000000000, 0.000000000000000000, 0.000000000000000000 ) ) ;
#698 = CARTESIAN_POINT ( 'NONE',  ( -2.066929133858267154, 4.097771990496390390E-16, 0.000000000000000000 ) ) ;
#699 = FACE_OUTER_BOUND ( 'NONE', #1, .T. ) ;
#700 = DIRECTION ( 'NONE',  ( -0.000000000000000000, -0.000000000000000000, -1.000000000000000000 ) ) ;
#701 = AXIS2_PLACEMENT_3D ( 'NONE', #244, #77, #809 ) ;
#702 = VECTOR ( 'NONE', #439, 39.37007874015748143 ) ;
#703 = ADVANCED_FACE ( 'NONE', ( #173 ), #155, .F. ) ;
#704 = VECTOR ( 'NONE', #902, 39.37007874015748143 ) ;
#705 = CARTESIAN_POINT ( 'NONE',  ( -1.625000000000000000, 0.8858267716535430658, 0.000000000000000000 ) ) ;
#706 = ORIENTED_EDGE ( 'NONE', *, *, #3, .T. ) ;
#707 = CYLINDRICAL_SURFACE ( 'NONE', #469, 0.1082677165354331700 ) ;
#708 = CARTESIAN_POINT ( 'NONE',  ( 1.733267716535433101, 0.8858267716535430658, 0.1574803149606299191 ) ) ;
#709 = PERSON_AND_ORGANIZATION ( #205, #788 ) ;
#710 = ORIENTED_EDGE ( 'NONE', *, *, #369, .T. ) ;
#711 = ORIENTED_EDGE ( 'NONE', *, *, #757, .F. ) ;
#712 = LINE ( 'NONE', #181, #61 ) ;
#713 = CARTESIAN_POINT ( 'NONE',  ( -1.516732283464566899, 0.8858267716535430658, 0.1574803149606299191 ) ) ;
#714 = ORIENTED_EDGE ( 'NONE', *, *, #425, .T. ) ;
#715 = DIRECTION ( 'NONE',  ( 1.000000000000000000, 0.000000000000000000, 0.000000000000000000 ) ) ;
#716 = VECTOR ( 'NONE', #420, 39.37007874015748143 ) ;
#717 = EDGE_LOOP ( 'NONE', ( #859, #143 ) ) ;
#718 = CARTESIAN_POINT ( 'NONE',  ( 5.334874862050654487E-17, -0.4999999999999996114, 0.1574803149606299191 ) ) ;
#719 = EDGE_CURVE ( 'NONE', #213, #634, #804, .T. ) ;
#720 = ORIENTED_EDGE ( 'NONE', *, *, #635, .T. ) ;
#721 = CARTESIAN_POINT ( 'NONE',  ( -0.5000000000000000000, -3.641732283464567566, -1.000000000000000000 ) ) ;
#722 = LINE ( 'NONE', #726, #646 ) ;
#723 = DIRECTION ( 'NONE',  ( 1.000000000000000000, 0.000000000000000000, 0.000000000000000000 ) ) ;
#724 = EDGE_LOOP ( 'NONE', ( #526, #166, #353, #131 ) ) ;
#725 = CARTESIAN_POINT ( 'NONE',  ( -0.5000000000000002220, -1.377952755905513360, 0.1574803149606299191 ) ) ;
#726 = CARTESIAN_POINT ( 'NONE',  ( -0.5000000000000000000, -3.484251968503937480, -1.000000000000000000 ) ) ;
#727 = CIRCLE ( 'NONE', #818, 0.1082677165354331700 ) ;
#728 = EDGE_CURVE ( 'NONE', #307, #771, #300, .T. ) ;
#729 = EDGE_LOOP ( 'NONE', ( #275, #576, #538, #490 ) ) ;
#730 = CARTESIAN_POINT ( 'NONE',  ( 0.5000000000000002220, -1.377952755905513360, 0.1574803149606299191 ) ) ;
#731 = VECTOR ( 'NONE', #174, 39.37007874015748143 ) ;
#732 = ORIENTED_EDGE ( 'NONE', *, *, #221, .T. ) ;
#733 = CARTESIAN_POINT ( 'NONE',  ( -3.829724409448818978, -0.5000000000000000000, 0.000000000000000000 ) ) ;
#734 = EDGE_CURVE ( 'NONE', #98, #337, #600, .T. ) ;
#735 = ORIENTED_EDGE ( 'NONE', *, *, #419, .T. ) ;
#736 = LINE ( 'NONE', #442, #850 ) ;
#737 = EDGE_LOOP ( 'NONE', ( #19, #237, #76, #31 ) ) ;
#738 = CARTESIAN_POINT ( 'NONE',  ( -0.5000000000000000000, -3.641732283464567566, 0.1574803149606299191 ) ) ;
#739 = ORIENTED_EDGE ( 'NONE', *, *, #86, .T. ) ;
#740 = CARTESIAN_POINT ( 'NONE',  ( 0.5000000000000002220, -3.484251968503937480, -1.000000000000000000 ) ) ;
#741 = ADVANCED_FACE ( 'NONE', ( #669 ), #895, .F. ) ;
#742 = ORIENTED_EDGE ( 'NONE', *, *, #521, .F. ) ;
#743 = VERTEX_POINT ( 'NONE', #360 ) ;
#744 = DIRECTION ( 'NONE',  ( 1.000000000000000000, 0.000000000000000000, 0.000000000000000000 ) ) ;
#745 = CARTESIAN_POINT ( 'NONE',  ( -3.987204724409449064, 0.000000000000000000, 0.1574803149606299191 ) ) ;
#746 = AXIS2_PLACEMENT_3D ( 'NONE', #916, #389, #335 ) ;
#747 = EDGE_LOOP ( 'NONE', ( #811, #17, #883, #608, #854, #824, #67, #573, #664, #118, #847, #816 ) ) ;
#748 = ADVANCED_FACE ( 'NONE', ( #665 ), #89, .T. ) ;
#749 = CARTESIAN_POINT ( 'NONE',  ( 0.000000000000000000, -1.377952755905513360, 0.1574803149606299191 ) ) ;
#750 = CARTESIAN_POINT ( 'NONE',  ( 1.516732283464566899, -0.8858267716535432879, 0.1574803149606299191 ) ) ;
#751 = AXIS2_PLACEMENT_3D ( 'NONE', #5, #645, #435 ) ;
#752 = ORIENTED_EDGE ( 'NONE', *, *, #431, .F. ) ;
#753 = DATE_AND_TIME ( #616, #513 ) ;
#754 =( LENGTH_UNIT ( ) NAMED_UNIT ( * ) SI_UNIT ( $, .METRE. ) );
#755 = DIRECTION ( 'NONE',  ( -0.000000000000000000, -0.000000000000000000, 1.000000000000000000 ) ) ;
#756 = PERSON_AND_ORGANIZATION ( #205, #788 ) ;
#757 = EDGE_CURVE ( 'NONE', #307, #111, #727, .T. ) ;
#758 = CARTESIAN_POINT ( 'NONE',  ( -1.625000000000000000, -0.8858267716535432879, 0.000000000000000000 ) ) ;
#759 = DIRECTION ( 'NONE',  ( 1.982541115402064124E-16, 1.000000000000000000, 0.000000000000000000 ) ) ;
#760 = VECTOR ( 'NONE', #864, 39.37007874015748143 ) ;
#761 = PLANE ( 'NONE',  #55 ) ;
#762 = DIRECTION ( 'NONE',  ( 1.000000000000000000, 0.000000000000000000, 0.000000000000000000 ) ) ;
#763 = CARTESIAN_POINT ( 'NONE',  ( -1.516732283464566899, -0.8858267716535432879, 0.1574803149606299191 ) ) ;
#764 = DESIGN_CONTEXT ( 'detailed design', #817, 'design' ) ;
#765 = APPLICATION_PROTOCOL_DEFINITION ( 'international standard', 'config_control_design', 1994, #551 ) ;
#766 = CARTESIAN_POINT ( 'NONE',  ( -2.066929133858267154, -0.4999999999999998335, 0.1574803149606299191 ) ) ;
#767 = FACE_OUTER_BOUND ( 'NONE', #658, .T. ) ;
#768 = DIRECTION ( 'NONE',  ( -1.000000000000000000, 0.000000000000000000, 0.000000000000000000 ) ) ;
#769 = EDGE_CURVE ( 'NONE', #580, #922, #15, .T. ) ;
#770 = CARTESIAN_POINT ( 'NONE',  ( -0.5000000000000000000, -3.484251968503937480, 0.000000000000000000 ) ) ;
#771 = VERTEX_POINT ( 'NONE', #291 ) ;
#772 = CARTESIAN_POINT ( 'NONE',  ( -0.5000000000000000000, -3.484251968503937480, -1.000000000000000000 ) ) ;
#773 = CARTESIAN_POINT ( 'NONE',  ( -2.066929133858267154, -0.4999999999999998335, 0.1574803149606299191 ) ) ;
#774 = VECTOR ( 'NONE', #95, 39.37007874015748143 ) ;
#775 = CC_DESIGN_DATE_AND_TIME_ASSIGNMENT ( #247, #40, ( #399 ) ) ;
#776 = VECTOR ( 'NONE', #878, 39.37007874015748143 ) ;
#777 = PRODUCT ( 'ContactorGuide', 'ContactorGuide', '', ( #845 ) ) ;
#778 = AXIS2_PLACEMENT_3D ( 'NONE', #471, #318, #762 ) ;
#779 = CALENDAR_DATE ( 2026, 10, 6 ) ;
#780 = VERTEX_POINT ( 'NONE', #813 ) ;
#781 = LINE ( 'NONE', #119, #227 ) ;
#782 = LINE ( 'NONE', #849, #851 ) ;
#783 = EDGE_LOOP ( 'NONE', ( #402, #154 ) ) ;
#784 = CYLINDRICAL_SURFACE ( 'NONE', #482, 0.1082677165354331700 ) ;
#785 = EDGE_CURVE ( 'NONE', #673, #365, #229, .T. ) ;
#786 = ORIENTED_EDGE ( 'NONE', *, *, #912, .F. ) ;
#787 = DIRECTION ( 'NONE',  ( -0.000000000000000000, -0.000000000000000000, -1.000000000000000000 ) ) ;
#788 = ORGANIZATION ( 'UNSPECIFIED', 'UNSPECIFIED', '' ) ;
#789 = AXIS2_PLACEMENT_3D ( 'NONE', #280, #147, #797 ) ;
#790 = ORIENTED_EDGE ( 'NONE', *, *, #115, .F. ) ;
#791 = FACE_OUTER_BOUND ( 'NONE', #149, .T. ) ;
#792 = CARTESIAN_POINT ( 'NONE',  ( -1.625000000000000000, 0.8858267716535430658, 0.1574803149606299191 ) ) ;
#793 = ORIENTED_EDGE ( 'NONE', *, *, #757, .T. ) ;
#794 = CARTESIAN_POINT ( 'NONE',  ( 1.516732283464566899, 0.8858267716535430658, 0.1574803149606299191 ) ) ;
#795 = ADVANCED_FACE ( 'NONE', ( #875 ), #234, .F. ) ;
#796 = CARTESIAN_POINT ( 'NONE',  ( -2.066929133858267154, 4.097771990496390390E-16, 0.1574803149606299191 ) ) ;
#797 = DIRECTION ( 'NONE',  ( -1.206764157201258031E-16, 1.000000000000000000, 0.000000000000000000 ) ) ;
#798 = ORIENTED_EDGE ( 'NONE', *, *, #221, .F. ) ;
#799 = LINE ( 'NONE', #725, #216 ) ;
#800 = ORIENTED_EDGE ( 'NONE', *, *, #171, .T. ) ;
#801 = LOCAL_TIME ( 12, 13, 13.00000000000000000, #172 ) ;
#802 = CC_DESIGN_DATE_AND_TIME_ASSIGNMENT ( #753, #696, ( #367 ) ) ;
#803 = VERTEX_POINT ( 'NONE', #159 ) ;
#804 = LINE ( 'NONE', #730, #466 ) ;
#805 = AXIS2_PLACEMENT_3D ( 'NONE', #391, #559, #838 ) ;
#806 = ORIENTED_EDGE ( 'NONE', *, *, #476, .F. ) ;
#807 = LINE ( 'NONE', #153, #370 ) ;
#808 = VERTEX_POINT ( 'NONE', #450 ) ;
#809 = DIRECTION ( 'NONE',  ( 1.000000000000000000, -1.066974972410132007E-16, 0.000000000000000000 ) ) ;
#810 = CIRCLE ( 'NONE', #289, 0.1082677165354331700 ) ;
#811 = ORIENTED_EDGE ( 'NONE', *, *, #814, .T. ) ;
#812 = ORIENTED_EDGE ( 'NONE', *, *, #27, .T. ) ;
#813 = CARTESIAN_POINT ( 'NONE',  ( -2.066929133858266709, 1.377952755905512250, 0.000000000000000000 ) ) ;
#814 = EDGE_CURVE ( 'NONE', #670, #684, #238, .T. ) ;
#815 = DIRECTION ( 'NONE',  ( -0.000000000000000000, -0.000000000000000000, -1.000000000000000000 ) ) ;
#816 = ORIENTED_EDGE ( 'NONE', *, *, #411, .F. ) ;
#817 = APPLICATION_CONTEXT ( 'configuration controlled 3d designs of mechanical parts and assemblies' ) ;
#818 = AXIS2_PLACEMENT_3D ( 'NONE', #881, #18, #150 ) ;
#819 = CARTESIAN_POINT ( 'NONE',  ( 2.066929133858268486, 1.377952755905510251, 0.000000000000000000 ) ) ;
#820 = EDGE_LOOP ( 'NONE', ( #4, #584, #87, #53 ) ) ;
#821 = DIRECTION ( 'NONE',  ( -0.000000000000000000, -0.000000000000000000, -1.000000000000000000 ) ) ;
#822 = CARTESIAN_POINT ( 'NONE',  ( -1.625000000000000000, -0.8858267716535432879, 0.1574803149606299191 ) ) ;
#823 = AXIS2_PLACEMENT_3D ( 'NONE', #549, #465, #397 ) ;
#824 = ORIENTED_EDGE ( 'NONE', *, *, #324, .T. ) ;
#825 = CALENDAR_DATE ( 2026, 10, 6 ) ;
#826 = DIRECTION ( 'NONE',  ( 4.625929269271486900E-16, 1.000000000000000000, -0.000000000000000000 ) ) ;
#827 = CARTESIAN_POINT ( 'NONE',  ( 0.5000000000000000000, -3.484251968503937480, 0.000000000000000000 ) ) ;
#828 = PERSON_AND_ORGANIZATION ( #205, #788 ) ;
#829 = FACE_OUTER_BOUND ( 'NONE', #747, .T. ) ;
#830 = DIRECTION ( 'NONE',  ( -1.000000000000000000, 1.066974972410131760E-16, 0.000000000000000000 ) ) ;
#831 = ADVANCED_FACE ( 'NONE', ( #516 ), #678, .F. ) ;
#832 = CC_DESIGN_APPROVAL ( #268, ( #399 ) ) ;
#833 = FACE_BOUND ( 'NONE', #123, .T. ) ;
#834 = DIRECTION ( 'NONE',  ( -0.000000000000000000, 0.000000000000000000, 1.000000000000000000 ) ) ;
#835 = PERSON_AND_ORGANIZATION ( #205, #788 ) ;
#836 = CARTESIAN_POINT ( 'NONE',  ( 0.000000000000000000, -1.377952755905513360, 0.1574803149606299191 ) ) ;
#837 = ADVANCED_FACE ( 'NONE', ( #606 ), #891, .F. ) ;
#838 = DIRECTION ( 'NONE',  ( -1.000000000000000000, 0.000000000000000000, -0.000000000000000000 ) ) ;
#839 = DIRECTION ( 'NONE',  ( 1.000000000000000000, 0.000000000000000000, 0.000000000000000000 ) ) ;
#840 = FACE_BOUND ( 'NONE', #91, .T. ) ;
#841 = ORIENTED_EDGE ( 'NONE', *, *, #719, .T. ) ;
#842 = DIRECTION ( 'NONE',  ( -0.000000000000000000, -0.000000000000000000, -1.000000000000000000 ) ) ;
#843 = LINE ( 'NONE', #203, #595 ) ;
#844 = APPROVAL ( #36, 'UNSPECIFIED' ) ;
#845 = MECHANICAL_CONTEXT ( 'NONE', #551, 'mechanical' ) ;
#846 = VERTEX_POINT ( 'NONE', #693 ) ;
#847 = ORIENTED_EDGE ( 'NONE', *, *, #493, .F. ) ;
#848 = CYLINDRICAL_SURFACE ( 'NONE', #284, 0.1082677165354331700 ) ;
#849 = CARTESIAN_POINT ( 'NONE',  ( 0.000000000000000000, -1.377952755905513360, 0.1574803149606299191 ) ) ;
#850 = VECTOR ( 'NONE', #593, 39.37007874015748143 ) ;
#851 = VECTOR ( 'NONE', #839, 39.37007874015748143 ) ;
#852 = AXIS2_PLACEMENT_3D ( 'NONE', #69, #531, #306 ) ;
#853 = ORIENTED_EDGE ( 'NONE', *, *, #9, .T. ) ;
#854 = ORIENTED_EDGE ( 'NONE', *, *, #161, .T. ) ;
#855 = CARTESIAN_POINT ( 'NONE',  ( -3.987204724409449064, 0.000000000000000000, 0.1574803149606299191 ) ) ;
#856 = FACE_OUTER_BOUND ( 'NONE', #84, .T. ) ;
#857 = ADVANCED_FACE ( 'NONE', ( #833, #545, #840, #913, #829 ), #761, .T. ) ;
#858 = ORIENTED_EDGE ( 'NONE', *, *, #316, .F. ) ;
#859 = ORIENTED_EDGE ( 'NONE', *, *, #262, .F. ) ;
#860 = LINE ( 'NONE', #207, #312 ) ;
#861 = EDGE_CURVE ( 'NONE', #771, #743, #255, .T. ) ;
#862 = EDGE_LOOP ( 'NONE', ( #562, #806, #170, #914 ) ) ;
#863 = PLANE ( 'NONE',  #297 ) ;
#864 = DIRECTION ( 'NONE',  ( -0.000000000000000000, -0.000000000000000000, -1.000000000000000000 ) ) ;
#865 = ORIENTED_EDGE ( 'NONE', *, *, #728, .F. ) ;
#866 = DIRECTION ( 'NONE',  ( -1.000000000000000000, 0.000000000000000000, 0.000000000000000000 ) ) ;
#867 = EDGE_CURVE ( 'NONE', #448, #218, #41, .T. ) ;
#868 = CARTESIAN_POINT ( 'NONE',  ( -3.987204724409449064, 0.5000000000000000000, -1.000000000000000000 ) ) ;
#869 = CARTESIAN_POINT ( 'NONE',  ( -2.066929133858267598, -1.377952755905513360, 0.1574803149606299191 ) ) ;
#870 = ORIENTED_EDGE ( 'NONE', *, *, #324, .F. ) ;
#871 = FACE_OUTER_BOUND ( 'NONE', #329, .T. ) ;
#872 = CC_DESIGN_PERSON_AND_ORGANIZATION_ASSIGNMENT ( #835, #184, ( #6 ) ) ;
#873 = VERTEX_POINT ( 'NONE', #317 ) ;
#874 = ORIENTED_EDGE ( 'NONE', *, *, #528, .T. ) ;
#875 = FACE_OUTER_BOUND ( 'NONE', #724, .T. ) ;
#876 = ORIENTED_EDGE ( 'NONE', *, *, #65, .T. ) ;
#877 = VECTOR ( 'NONE', #85, 39.37007874015748143 ) ;
#878 = DIRECTION ( 'NONE',  ( -0.000000000000000000, -0.000000000000000000, -1.000000000000000000 ) ) ;
#879 = VECTOR ( 'NONE', #11, 39.37007874015748143 ) ;
#880 = VERTEX_POINT ( 'NONE', #248 ) ;
#881 = CARTESIAN_POINT ( 'NONE',  ( 1.625000000000000000, -0.8858267716535432879, 0.1574803149606299191 ) ) ;
#882 = VECTOR ( 'NONE', #830, 39.37007874015748143 ) ;
#883 = ORIENTED_EDGE ( 'NONE', *, *, #769, .T. ) ;
#884 = EDGE_CURVE ( 'NONE', #98, #362, #461, .T. ) ;
#885 = ORIENTED_EDGE ( 'NONE', *, *, #884, .T. ) ;
#886 = CARTESIAN_POINT ( 'NONE',  ( -1.733267716535433101, -0.8858267716535432879, 0.1574803149606299191 ) ) ;
#887 = CIRCLE ( 'NONE', #751, 0.1082677165354331700 ) ;
#888 = CARTESIAN_POINT ( 'NONE',  ( 2.066929133858268042, -8.195543980992789655E-16, 0.1574803149606299191 ) ) ;
#889 = ORIENTED_EDGE ( 'NONE', *, *, #32, .T. ) ;
#890 = ORIENTED_EDGE ( 'NONE', *, *, #476, .T. ) ;
#891 = PLANE ( 'NONE',  #921 ) ;
#892 = DIRECTION ( 'NONE',  ( -1.982541115402064124E-16, -1.000000000000000000, 0.000000000000000000 ) ) ;
#893 = VERTEX_POINT ( 'NONE', #770 ) ;
#894 = AXIS2_PLACEMENT_3D ( 'NONE', #630, #900, #252 ) ;
#895 = PLANE ( 'NONE',  #701 ) ;
#896 = VERTEX_POINT ( 'NONE', #617 ) ;
#897 = DIRECTION ( 'NONE',  ( 3.965082230804130713E-16, 1.000000000000000000, 0.000000000000000000 ) ) ;
#898 = ADVANCED_FACE ( 'NONE', ( #464 ), #265, .F. ) ;
#899 = VECTOR ( 'NONE', #759, 39.37007874015748143 ) ;
#900 = DIRECTION ( 'NONE',  ( -0.000000000000000000, 0.000000000000000000, 1.000000000000000000 ) ) ;
#901 = ORIENTED_EDGE ( 'NONE', *, *, #21, .F. ) ;
#902 = DIRECTION ( 'NONE',  ( 0.000000000000000000, 1.000000000000000000, 0.000000000000000000 ) ) ;
#903 = PRODUCT_RELATED_PRODUCT_CATEGORY ( 'detail', '', ( #777 ) ) ;
#904 = SHAPE_DEFINITION_REPRESENTATION ( #60, #594 ) ;
#905 = PLANE ( 'NONE',  #805 ) ;
#906 = DIRECTION ( 'NONE',  ( -0.000000000000000000, -0.000000000000000000, -1.000000000000000000 ) ) ;
#907 = APPROVAL_ROLE ( '' ) ;
#908 = CARTESIAN_POINT ( 'NONE',  ( -0.5000000000000004441, -6.033820786006295085E-17, 0.000000000000000000 ) ) ;
#909 = CARTESIAN_POINT ( 'NONE',  ( 0.000000000000000000, -1.377952755905513360, 0.000000000000000000 ) ) ;
#910 = DIRECTION ( 'NONE',  ( -0.000000000000000000, -0.000000000000000000, -1.000000000000000000 ) ) ;
#911 = APPROVAL_ROLE ( '' ) ;
#912 = EDGE_CURVE ( 'NONE', #365, #206, #178, .T. ) ;
#913 = FACE_BOUND ( 'NONE', #151, .T. ) ;
#914 = ORIENTED_EDGE ( 'NONE', *, *, #651, .T. ) ;
#915 = DIRECTION ( 'NONE',  ( -1.000000000000000000, 0.000000000000000000, 0.000000000000000000 ) ) ;
#916 = CARTESIAN_POINT ( 'NONE',  ( 0.000000000000000000, 0.000000000000000000, 0.000000000000000000 ) ) ;
#917 = PERSON_AND_ORGANIZATION_ROLE ( 'design_owner' ) ;
#918 = ORIENTED_EDGE ( 'NONE', *, *, #575, .F. ) ;
#919 = CARTESIAN_POINT ( 'NONE',  ( 1.516732283464566899, 0.8858267716535430658, 0.1574803149606299191 ) ) ;
#920 = CARTESIAN_POINT ( 'NONE',  ( -0.5000000000000004441, -6.033820786006295085E-17, 0.1574803149606299191 ) ) ;
#921 = AXIS2_PLACEMENT_3D ( 'NONE', #456, #376, #682 ) ;
#922 = VERTEX_POINT ( 'NONE', #188 ) ;
#923 = FACE_OUTER_BOUND ( 'NONE', #675, .T. ) ;
#924 = DIRECTION ( 'NONE',  ( -0.000000000000000000, -0.000000000000000000, -1.000000000000000000 ) ) ;
#925 = EDGE_CURVE ( 'NONE', #511, #218, #685, .T. ) ;
#926 = VECTOR ( 'NONE', #522, 39.37007874015748143 ) ;
#927 = CARTESIAN_POINT ( 'NONE',  ( -3.987204724409449064, 0.5000000000000000000, 0.1574803149606299191 ) ) ;
#928 = CIRCLE ( 'NONE', #520, 0.1082677165354331700 ) ;
#929 = EDGE_LOOP ( 'NONE', ( #364, #63, #885, #210 ) ) ;
#930 = EDGE_LOOP ( 'NONE', ( #285, #453 ) ) ;
#931 = PLANE ( 'NONE',  #517 ) ;
#932 = DIRECTION ( 'NONE',  ( 1.000000000000000000, -4.625929269271485914E-16, 0.000000000000000000 ) ) ;
ENDSEC;
END-ISO-10303-21;
