ISO-10303-21;
HEADER;
FILE_DESCRIPTION (( 'STEP AP203' ),
    '1' );
FILE_NAME ('FanHoleGuides.STEP',
    '2025-05-08T17:05:03',
    ( '' ),
    ( '' ),
    'SwSTEP 2.0',
    'SolidWorks 2024',
    '' );
FILE_SCHEMA (( 'CONFIG_CONTROL_DESIGN' ));
ENDSEC;

DATA;
#1 = CYLINDRICAL_SURFACE ( 'NONE', #671, 0.08661417322834648325 ) ;
#2 = CARTESIAN_POINT ( 'NONE',  ( -2.076771653543307838, 2.076771653543306950, 0.1499999999999999944 ) ) ;
#3 = ADVANCED_FACE ( 'NONE', ( #722 ), #367, .T. ) ;
#4 = ORIENTED_EDGE ( 'NONE', *, *, #396, .T. ) ;
#5 = VECTOR ( 'NONE', #575, 39.37007874015748143 ) ;
#6 = CARTESIAN_POINT ( 'NONE',  ( 2.362204724409448175, -1.870078740157480324, 0.000000000000000000 ) ) ;
#7 = VERTEX_POINT ( 'NONE', #293 ) ;
#8 = VERTEX_POINT ( 'NONE', #151 ) ;
#9 = CARTESIAN_POINT ( 'NONE',  ( -1.870078740157480990, -1.870078740157480990, 0.1499999999999999944 ) ) ;
#10 = LINE ( 'NONE', #298, #572 ) ;
#11 = EDGE_LOOP ( 'NONE', ( #768, #330, #199, #823 ) ) ;
#12 = DIRECTION ( 'NONE',  ( 1.000000000000000000, 7.304098846218135653E-17, -0.000000000000000000 ) ) ;
#13 = PLANE ( 'NONE',  #723 ) ;
#14 = ORIENTED_EDGE ( 'NONE', *, *, #436, .F. ) ;
#15 = CARTESIAN_POINT ( 'NONE',  ( -1.990157480314961091, -2.076771653543307394, 0.1499999999999999944 ) ) ;
#16 = DIRECTION ( 'NONE',  ( 0.000000000000000000, 1.000000000000000000, 0.000000000000000000 ) ) ;
#17 = VECTOR ( 'NONE', #82, 39.37007874015748143 ) ;
#18 = CARTESIAN_POINT ( 'NONE',  ( -3.362204724409449064, 2.362204724409448620, 0.1499999999999999944 ) ) ;
#19 = ORIENTED_EDGE ( 'NONE', *, *, #475, .F. ) ;
#20 = PLANE ( 'NONE',  #136 ) ;
#21 = APPLICATION_CONTEXT ( 'configuration controlled 3d designs of mechanical parts and assemblies' ) ;
#22 = CARTESIAN_POINT ( 'NONE',  ( 2.076771653543306506, -2.076771653543307394, 0.000000000000000000 ) ) ;
#23 = DIRECTION ( 'NONE',  ( 0.000000000000000000, 0.000000000000000000, 1.000000000000000000 ) ) ;
#24 = AXIS2_PLACEMENT_3D ( 'NONE', #356, #641, #936 ) ;
#25 = ORIENTED_EDGE ( 'NONE', *, *, #196, .F. ) ;
#26 = ADVANCED_FACE ( 'NONE', ( #855 ), #554, .T. ) ;
#27 = DIRECTION ( 'NONE',  ( 0.000000000000000000, 0.000000000000000000, 1.000000000000000000 ) ) ;
#28 = CYLINDRICAL_SURFACE ( 'NONE', #833, 0.08661417322834648325 ) ;
#29 = DIRECTION ( 'NONE',  ( -0.000000000000000000, -0.000000000000000000, -1.000000000000000000 ) ) ;
#30 = ORIENTED_EDGE ( 'NONE', *, *, #684, .F. ) ;
#31 = APPLICATION_PROTOCOL_DEFINITION ( 'international standard', 'config_control_design', 1994, #916 ) ;
#32 = EDGE_CURVE ( 'NONE', #871, #225, #606, .T. ) ;
#33 = DIRECTION ( 'NONE',  ( 0.000000000000000000, 0.000000000000000000, 1.000000000000000000 ) ) ;
#34 = LINE ( 'NONE', #324, #295 ) ;
#35 = ORIENTED_EDGE ( 'NONE', *, *, #743, .F. ) ;
#36 = PERSON_AND_ORGANIZATION ( #306, #74 ) ;
#37 = CARTESIAN_POINT ( 'NONE',  ( -3.362204724409449064, -2.362204724409448620, 0.000000000000000000 ) ) ;
#38 = EDGE_LOOP ( 'NONE', ( #582, #449, #350, #611 ) ) ;
#39 = LINE ( 'NONE', #255, #694 ) ;
#40 = DIRECTION ( 'NONE',  ( 1.000000000000000000, 1.460819769243627131E-16, 0.000000000000000000 ) ) ;
#41 = ORIENTED_EDGE ( 'NONE', *, *, #163, .T. ) ;
#42 = LENGTH_MEASURE_WITH_UNIT ( LENGTH_MEASURE( 0.02539999999999999897 ), #252 );
#43 = ORIENTED_EDGE ( 'NONE', *, *, #727, .F. ) ;
#44 = DIRECTION ( 'NONE',  ( 0.000000000000000000, 0.000000000000000000, 1.000000000000000000 ) ) ;
#45 = CC_DESIGN_APPROVAL ( #347, ( #453 ) ) ;
#46 = ORIENTED_EDGE ( 'NONE', *, *, #608, .T. ) ;
#47 = DIRECTION ( 'NONE',  ( -1.460819769243627131E-16, 1.000000000000000000, 0.000000000000000000 ) ) ;
#48 = CARTESIAN_POINT ( 'NONE',  ( 2.362204724409448175, -1.870078740157480324, 0.000000000000000000 ) ) ;
#49 = ORIENTED_EDGE ( 'NONE', *, *, #364, .F. ) ;
#50 = EDGE_CURVE ( 'NONE', #518, #472, #135, .T. ) ;
#51 = DIRECTION ( 'NONE',  ( 1.000000000000000000, 0.000000000000000000, 0.000000000000000000 ) ) ;
#52 = VECTOR ( 'NONE', #16, 39.37007874015748143 ) ;
#53 = VECTOR ( 'NONE', #683, 39.37007874015748143 ) ;
#54 = ORIENTED_EDGE ( 'NONE', *, *, #897, .F. ) ;
#55 = ORIENTED_EDGE ( 'NONE', *, *, #903, .T. ) ;
#56 = CC_DESIGN_PERSON_AND_ORGANIZATION_ASSIGNMENT ( #605, #751, ( #141 ) ) ;
#57 = FACE_BOUND ( 'NONE', #280, .T. ) ;
#58 = DIRECTION ( 'NONE',  ( 1.000000000000000000, 0.000000000000000000, -0.000000000000000000 ) ) ;
#59 = ORIENTED_EDGE ( 'NONE', *, *, #182, .F. ) ;
#60 = CARTESIAN_POINT ( 'NONE',  ( 0.000000000000000000, 0.000000000000000000, 0.1499999999999999944 ) ) ;
#61 = CYLINDRICAL_SURFACE ( 'NONE', #203, 0.08661417322834648325 ) ;
#62 = PRODUCT_RELATED_PRODUCT_CATEGORY ( 'detail', '', ( #141 ) ) ;
#63 = EDGE_LOOP ( 'NONE', ( #565, #817 ) ) ;
#64 = CIRCLE ( 'NONE', #542, 0.08661417322834648325 ) ;
#65 = CYLINDRICAL_SURFACE ( 'NONE', #24, 0.08661417322834648325 ) ;
#66 = FACE_OUTER_BOUND ( 'NONE', #732, .T. ) ;
#67 = EDGE_CURVE ( 'NONE', #696, #634, #557, .T. ) ;
#68 = FACE_OUTER_BOUND ( 'NONE', #613, .T. ) ;
#69 = AXIS2_PLACEMENT_3D ( 'NONE', #601, #44, #836 ) ;
#70 = VERTEX_POINT ( 'NONE', #870 ) ;
#71 = DIRECTION ( 'NONE',  ( -0.000000000000000000, -0.000000000000000000, -1.000000000000000000 ) ) ;
#72 = PLANE ( 'NONE',  #385 ) ;
#73 = ORIENTED_EDGE ( 'NONE', *, *, #712, .T. ) ;
#74 = ORGANIZATION ( 'UNSPECIFIED', 'UNSPECIFIED', '' ) ;
#75 = CARTESIAN_POINT ( 'NONE',  ( -3.362204724409449064, 1.870078740157480324, 0.1499999999999999944 ) ) ;
#76 = CARTESIAN_POINT ( 'NONE',  ( -2.362204724409449508, 1.870078740157480324, 0.000000000000000000 ) ) ;
#77 = ORIENTED_EDGE ( 'NONE', *, *, #800, .F. ) ;
#78 = DIRECTION ( 'NONE',  ( 1.000000000000000000, -0.000000000000000000, -0.000000000000000000 ) ) ;
#79 = ADVANCED_FACE ( 'NONE', ( #632 ), #504, .T. ) ;
#80 = FACE_OUTER_BOUND ( 'NONE', #157, .T. ) ;
#81 = ORIENTED_EDGE ( 'NONE', *, *, #669, .T. ) ;
#82 = DIRECTION ( 'NONE',  ( -0.000000000000000000, -0.000000000000000000, -1.000000000000000000 ) ) ;
#83 = FACE_OUTER_BOUND ( 'NONE', #38, .T. ) ;
#84 = LINE ( 'NONE', #103, #586 ) ;
#85 = ORIENTED_EDGE ( 'NONE', *, *, #854, .T. ) ;
#86 = LINE ( 'NONE', #510, #482 ) ;
#87 = VECTOR ( 'NONE', #853, 39.37007874015748143 ) ;
#88 = VECTOR ( 'NONE', #830, 39.37007874015748143 ) ;
#89 = DIRECTION ( 'NONE',  ( -0.000000000000000000, -0.000000000000000000, -1.000000000000000000 ) ) ;
#90 = EDGE_CURVE ( 'NONE', #472, #320, #563, .T. ) ;
#91 = DIRECTION ( 'NONE',  ( 0.000000000000000000, -1.000000000000000000, 0.000000000000000000 ) ) ;
#92 = ORIENTED_EDGE ( 'NONE', *, *, #901, .F. ) ;
#93 = CARTESIAN_POINT ( 'NONE',  ( 2.362204724409448175, 1.870078740157480324, 0.1499999999999999944 ) ) ;
#94 = FACE_OUTER_BOUND ( 'NONE', #505, .T. ) ;
#95 = AXIS2_PLACEMENT_3D ( 'NONE', #233, #313, #305 ) ;
#96 = FACE_BOUND ( 'NONE', #923, .T. ) ;
#97 = ADVANCED_FACE ( 'NONE', ( #716 ), #61, .F. ) ;
#98 = EDGE_CURVE ( 'NONE', #173, #906, #188, .T. ) ;
#99 = ORIENTED_EDGE ( 'NONE', *, *, #429, .T. ) ;
#100 = DATE_AND_TIME ( #610, #289 ) ;
#101 = DIRECTION ( 'NONE',  ( 0.000000000000000000, 1.000000000000000000, 0.000000000000000000 ) ) ;
#102 = CIRCLE ( 'NONE', #656, 0.08661417322834648325 ) ;
#103 = CARTESIAN_POINT ( 'NONE',  ( -3.362204724409449064, -2.362204724409448620, 0.1499999999999999944 ) ) ;
#104 = MANIFOLD_SOLID_BREP ( 'Boss-Extrude2', #263 ) ;
#105 = ORIENTED_EDGE ( 'NONE', *, *, #163, .F. ) ;
#106 = CARTESIAN_POINT ( 'NONE',  ( 2.163385826771652809, -2.076771653543307394, 0.1499999999999999944 ) ) ;
#107 = CARTESIAN_POINT ( 'NONE',  ( -1.870078740157480990, -1.870078740157480990, 0.1499999999999999944 ) ) ;
#108 = VERTEX_POINT ( 'NONE', #214 ) ;
#109 = DIRECTION ( 'NONE',  ( 0.000000000000000000, 0.000000000000000000, 1.000000000000000000 ) ) ;
#110 = PLANE ( 'NONE',  #503 ) ;
#111 = EDGE_CURVE ( 'NONE', #604, #480, #272, .T. ) ;
#112 = CC_DESIGN_PERSON_AND_ORGANIZATION_ASSIGNMENT ( #285, #707, ( #453 ) ) ;
#113 = ORIENTED_EDGE ( 'NONE', *, *, #250, .T. ) ;
#114 = APPROVAL_ROLE ( '' ) ;
#115 = ORIENTED_EDGE ( 'NONE', *, *, #901, .T. ) ;
#116 = LINE ( 'NONE', #679, #53 ) ;
#117 = ORIENTED_EDGE ( 'NONE', *, *, #535, .T. ) ;
#118 = DIRECTION ( 'NONE',  ( 1.000000000000000000, 0.000000000000000000, 0.000000000000000000 ) ) ;
#119 = EDGE_CURVE ( 'NONE', #469, #245, #863, .T. ) ;
#120 = APPROVAL_PERSON_ORGANIZATION ( #767, #215, #114 ) ;
#121 = EDGE_CURVE ( 'NONE', #672, #7, #64, .T. ) ;
#122 = ORIENTED_EDGE ( 'NONE', *, *, #637, .T. ) ;
#123 = CALENDAR_DATE ( 2025, 8, 5 ) ;
#124 = LINE ( 'NONE', #566, #815 ) ;
#125 = EDGE_LOOP ( 'NONE', ( #4, #55, #194, #333 ) ) ;
#126 = ADVANCED_FACE ( 'NONE', ( #68 ), #726, .T. ) ;
#127 = VECTOR ( 'NONE', #638, 39.37007874015748143 ) ;
#128 = APPROVAL_DATE_TIME ( #786, #384 ) ;
#129 = ORIENTED_EDGE ( 'NONE', *, *, #111, .T. ) ;
#130 = CARTESIAN_POINT ( 'NONE',  ( 2.076771653543306506, -2.076771653543307394, 0.1499999999999999944 ) ) ;
#131 = AXIS2_PLACEMENT_3D ( 'NONE', #184, #902, #262 ) ;
#132 = DIRECTION ( 'NONE',  ( 0.000000000000000000, 0.000000000000000000, -1.000000000000000000 ) ) ;
#133 = ORIENTED_EDGE ( 'NONE', *, *, #220, .T. ) ;
#134 = CARTESIAN_POINT ( 'NONE',  ( 2.362204724409448175, 1.870078740157480324, 0.000000000000000000 ) ) ;
#135 = LINE ( 'NONE', #278, #127 ) ;
#136 = AXIS2_PLACEMENT_3D ( 'NONE', #383, #889, #366 ) ;
#137 = ORIENTED_EDGE ( 'NONE', *, *, #50, .T. ) ;
#138 = ADVANCED_FACE ( 'NONE', ( #437 ), #72, .F. ) ;
#139 = DIRECTION ( 'NONE',  ( 1.000000000000000000, 0.000000000000000000, 0.000000000000000000 ) ) ;
#140 = EDGE_CURVE ( 'NONE', #161, #690, #874, .T. ) ;
#141 = PRODUCT ( 'FanHoleGuides', 'FanHoleGuides', '', ( #470 ) ) ;
#142 = DIRECTION ( 'NONE',  ( 0.000000000000000000, 0.000000000000000000, 1.000000000000000000 ) ) ;
#143 = DIRECTION ( 'NONE',  ( 0.000000000000000000, 0.000000000000000000, 1.000000000000000000 ) ) ;
#144 = ORIENTED_EDGE ( 'NONE', *, *, #782, .T. ) ;
#145 = CARTESIAN_POINT ( 'NONE',  ( -2.362204724409449508, 2.362204724409448620, 0.000000000000000000 ) ) ;
#146 = VECTOR ( 'NONE', #239, 39.37007874015748143 ) ;
#147 = DIRECTION ( 'NONE',  ( 0.000000000000000000, 0.000000000000000000, 1.000000000000000000 ) ) ;
#148 = VECTOR ( 'NONE', #101, 39.37007874015748143 ) ;
#149 = ORIENTED_EDGE ( 'NONE', *, *, #628, .F. ) ;
#150 = DIRECTION ( 'NONE',  ( 1.000000000000000000, 0.000000000000000000, 0.000000000000000000 ) ) ;
#151 = CARTESIAN_POINT ( 'NONE',  ( 2.362204724409448175, 1.870078740157480102, 0.1499999999999999944 ) ) ;
#152 = EDGE_CURVE ( 'NONE', #70, #696, #84, .T. ) ;
#153 = VERTEX_POINT ( 'NONE', #507 ) ;
#154 = VECTOR ( 'NONE', #446, 39.37007874015748143 ) ;
#155 = CARTESIAN_POINT ( 'NONE',  ( 2.076771653543306506, 2.076771653543306950, 0.000000000000000000 ) ) ;
#156 = LINE ( 'NONE', #18, #386 ) ;
#157 = EDGE_LOOP ( 'NONE', ( #792, #49, #416, #208 ) ) ;
#158 = DIRECTION ( 'NONE',  ( 0.000000000000000000, 0.000000000000000000, 1.000000000000000000 ) ) ;
#159 = DIRECTION ( 'NONE',  ( -1.000000000000000000, 0.000000000000000000, 0.000000000000000000 ) ) ;
#160 = FACE_BOUND ( 'NONE', #625, .T. ) ;
#161 = VERTEX_POINT ( 'NONE', #522 ) ;
#162 = CARTESIAN_POINT ( 'NONE',  ( 2.362204724409448175, -1.870078740157480324, 0.1499999999999999944 ) ) ;
#163 = EDGE_CURVE ( 'NONE', #427, #848, #670, .T. ) ;
#164 = DIRECTION ( 'NONE',  ( 1.000000000000000000, 0.000000000000000000, 0.000000000000000000 ) ) ;
#165 = ADVANCED_FACE ( 'NONE', ( #898 ), #805, .F. ) ;
#166 = CARTESIAN_POINT ( 'NONE',  ( 1.990157480314959981, -2.076771653543307394, 0.000000000000000000 ) ) ;
#167 = ORIENTED_EDGE ( 'NONE', *, *, #250, .F. ) ;
#168 = LINE ( 'NONE', #93, #744 ) ;
#169 = VECTOR ( 'NONE', #450, 39.37007874015748143 ) ;
#170 = DIRECTION ( 'NONE',  ( -1.000000000000000000, 0.000000000000000000, 0.000000000000000000 ) ) ;
#171 = EDGE_CURVE ( 'NONE', #711, #803, #301, .T. ) ;
#172 = CARTESIAN_POINT ( 'NONE',  ( -2.362204724409449508, -1.870078740157480324, 0.1499999999999999944 ) ) ;
#173 = VERTEX_POINT ( 'NONE', #307 ) ;
#174 = COORDINATED_UNIVERSAL_TIME_OFFSET ( 5, 0, .BEHIND. ) ;
#175 = FACE_OUTER_BOUND ( 'NONE', #640, .T. ) ;
#176 = VECTOR ( 'NONE', #511, 39.37007874015748143 ) ;
#177 = LINE ( 'NONE', #381, #311 ) ;
#178 = VECTOR ( 'NONE', #777, 39.37007874015748143 ) ;
#179 = VERTEX_POINT ( 'NONE', #887 ) ;
#180 = DIRECTION ( 'NONE',  ( -1.000000000000000000, 0.000000000000000000, 0.000000000000000000 ) ) ;
#181 = ORIENTED_EDGE ( 'NONE', *, *, #868, .T. ) ;
#182 = EDGE_CURVE ( 'NONE', #269, #509, #177, .T. ) ;
#183 = PERSON_AND_ORGANIZATION_ROLE ( 'creator' ) ;
#184 = CARTESIAN_POINT ( 'NONE',  ( -2.076771653543307838, -2.076771653543307394, 0.1499999999999999944 ) ) ;
#185 = VECTOR ( 'NONE', #747, 39.37007874015748143 ) ;
#186 = EDGE_LOOP ( 'NONE', ( #569, #920, #678, #230 ) ) ;
#187 = CARTESIAN_POINT ( 'NONE',  ( 3.362204724409448175, -2.362204724409448620, 0.1499999999999999944 ) ) ;
#188 = CIRCLE ( 'NONE', #328, 0.08661417322834648325 ) ;
#189 = CC_DESIGN_DATE_AND_TIME_ASSIGNMENT ( #246, #758, ( #702 ) ) ;
#190 = VERTEX_POINT ( 'NONE', #172 ) ;
#191 =( NAMED_UNIT ( * ) SI_UNIT ( $, .STERADIAN. ) SOLID_ANGLE_UNIT ( ) );
#192 = CARTESIAN_POINT ( 'NONE',  ( -3.362204724409449064, 1.870078740157480324, 0.000000000000000000 ) ) ;
#193 = EDGE_CURVE ( 'NONE', #7, #672, #842, .T. ) ;
#194 = ORIENTED_EDGE ( 'NONE', *, *, #297, .F. ) ;
#195 = DIRECTION ( 'NONE',  ( 1.000000000000000000, 0.000000000000000000, 0.000000000000000000 ) ) ;
#196 = EDGE_CURVE ( 'NONE', #913, #402, #668, .T. ) ;
#197 = ADVANCED_FACE ( 'NONE', ( #585, #314, #234, #160, #96, #528 ), #13, .T. ) ;
#198 = LOCAL_TIME ( 13, 5, 3.000000000000000000, #710 ) ;
#199 = ORIENTED_EDGE ( 'NONE', *, *, #111, .F. ) ;
#200 = ORIENTED_EDGE ( 'NONE', *, *, #429, .F. ) ;
#201 = FACE_OUTER_BOUND ( 'NONE', #125, .T. ) ;
#202 = LINE ( 'NONE', #319, #675 ) ;
#203 = AXIS2_PLACEMENT_3D ( 'NONE', #2, #354, #441 ) ;
#204 = ORIENTED_EDGE ( 'NONE', *, *, #564, .T. ) ;
#205 = DIRECTION ( 'NONE',  ( 0.000000000000000000, 0.000000000000000000, 1.000000000000000000 ) ) ;
#206 = DIRECTION ( 'NONE',  ( -1.000000000000000000, -0.000000000000000000, -0.000000000000000000 ) ) ;
#207 = EDGE_CURVE ( 'NONE', #735, #225, #745, .T. ) ;
#208 = ORIENTED_EDGE ( 'NONE', *, *, #692, .T. ) ;
#209 = LINE ( 'NONE', #485, #464 ) ;
#210 = DIRECTION ( 'NONE',  ( 0.000000000000000000, 0.000000000000000000, 1.000000000000000000 ) ) ;
#211 = DIRECTION ( 'NONE',  ( 1.000000000000000000, 0.000000000000000000, 0.000000000000000000 ) ) ;
#212 = ORIENTED_EDGE ( 'NONE', *, *, #346, .F. ) ;
#213 = LINE ( 'NONE', #145, #410 ) ;
#214 = CARTESIAN_POINT ( 'NONE',  ( 1.870078740157479658, 1.870078740157480324, 0.1499999999999999944 ) ) ;
#215 = APPROVAL ( #762, 'UNSPECIFIED' ) ;
#216 = EDGE_LOOP ( 'NONE', ( #30, #35, #622, #222 ) ) ;
#217 = VECTOR ( 'NONE', #23, 39.37007874015748143 ) ;
#218 = VECTOR ( 'NONE', #884, 39.37007874015748143 ) ;
#219 = CARTESIAN_POINT ( 'NONE',  ( 3.362204724409448175, -2.362204724409448620, 0.1499999999999999944 ) ) ;
#220 = EDGE_CURVE ( 'NONE', #480, #882, #156, .T. ) ;
#221 = CARTESIAN_POINT ( 'NONE',  ( -3.362204724409449064, 2.362204724409448620, 0.000000000000000000 ) ) ;
#222 = ORIENTED_EDGE ( 'NONE', *, *, #50, .F. ) ;
#223 = DIRECTION ( 'NONE',  ( 0.000000000000000000, 0.000000000000000000, 1.000000000000000000 ) ) ;
#224 = LINE ( 'NONE', #444, #435 ) ;
#225 = VERTEX_POINT ( 'NONE', #166 ) ;
#226 = VECTOR ( 'NONE', #804, 39.37007874015748143 ) ;
#227 = LINE ( 'NONE', #9, #424 ) ;
#228 = LINE ( 'NONE', #584, #176 ) ;
#229 = DIRECTION ( 'NONE',  ( 0.000000000000000000, 0.000000000000000000, -1.000000000000000000 ) ) ;
#230 = ORIENTED_EDGE ( 'NONE', *, *, #196, .T. ) ;
#231 = LINE ( 'NONE', #15, #17 ) ;
#232 = VECTOR ( 'NONE', #206, 39.37007874015748143 ) ;
#233 = CARTESIAN_POINT ( 'NONE',  ( -2.076771653543307838, -2.076771653543307394, 0.1499999999999999944 ) ) ;
#234 = FACE_OUTER_BOUND ( 'NONE', #513, .T. ) ;
#235 = ORIENTED_EDGE ( 'NONE', *, *, #121, .T. ) ;
#236 = LINE ( 'NONE', #649, #169 ) ;
#237 = VECTOR ( 'NONE', #266, 39.37007874015748143 ) ;
#238 = EDGE_CURVE ( 'NONE', #108, #930, #202, .T. ) ;
#239 = DIRECTION ( 'NONE',  ( -0.000000000000000000, -0.000000000000000000, -1.000000000000000000 ) ) ;
#240 = DIRECTION ( 'NONE',  ( 0.000000000000000000, 0.000000000000000000, 1.000000000000000000 ) ) ;
#241 = ORIENTED_EDGE ( 'NONE', *, *, #436, .T. ) ;
#242 = LINE ( 'NONE', #106, #536 ) ;
#243 = DIRECTION ( 'NONE',  ( 0.000000000000000000, 0.000000000000000000, 1.000000000000000000 ) ) ;
#244 = DIRECTION ( 'NONE',  ( 1.000000000000000000, 0.000000000000000000, 0.000000000000000000 ) ) ;
#245 = VERTEX_POINT ( 'NONE', #755 ) ;
#246 = DATE_AND_TIME ( #900, #303 ) ;
#247 = CARTESIAN_POINT ( 'NONE',  ( 1.870078740157479658, -1.870078740157480324, 0.1499999999999999944 ) ) ;
#248 = EDGE_CURVE ( 'NONE', #269, #179, #10, .T. ) ;
#249 = VECTOR ( 'NONE', #785, 39.37007874015748143 ) ;
#250 = EDGE_CURVE ( 'NONE', #389, #153, #224, .T. ) ;
#251 = EDGE_LOOP ( 'NONE', ( #235, #433 ) ) ;
#252 =( LENGTH_UNIT ( ) NAMED_UNIT ( * ) SI_UNIT ( $, .METRE. ) );
#253 = CARTESIAN_POINT ( 'NONE',  ( -2.362204724409449508, -1.870078740157480324, 0.000000000000000000 ) ) ;
#254 = ORIENTED_EDGE ( 'NONE', *, *, #140, .T. ) ;
#255 = CARTESIAN_POINT ( 'NONE',  ( -2.362204724409449508, -2.362204724409448620, 0.1499999999999999944 ) ) ;
#256 = DIRECTION ( 'NONE',  ( -0.000000000000000000, -0.000000000000000000, -1.000000000000000000 ) ) ;
#257 = VECTOR ( 'NONE', #223, 39.37007874015748143 ) ;
#258 = AXIS2_PLACEMENT_3D ( 'NONE', #540, #47, #530 ) ;
#259 = ORIENTED_EDGE ( 'NONE', *, *, #346, .T. ) ;
#260 = CARTESIAN_POINT ( 'NONE',  ( -1.870078740157480990, -1.870078740157480990, 0.000000000000000000 ) ) ;
#261 = ADVANCED_FACE ( 'NONE', ( #80 ), #370, .F. ) ;
#262 = DIRECTION ( 'NONE',  ( 1.000000000000000000, 0.000000000000000000, 0.000000000000000000 ) ) ;
#263 = CLOSED_SHELL ( 'NONE', ( #338, #715, #390, #97, #165, #626, #197, #261, #813, #138, #698, #267, #418, #521, #795, #925, #375, #527, #323, #3, #79, #548, #802, #26, #126, #438 ) ) ;
#264 = VERTEX_POINT ( 'NONE', #512 ) ;
#265 = ORIENTED_EDGE ( 'NONE', *, *, #669, .F. ) ;
#266 = DIRECTION ( 'NONE',  ( 1.000000000000000000, 1.460819769243627131E-16, -0.000000000000000000 ) ) ;
#267 = ADVANCED_FACE ( 'NONE', ( #664 ), #448, .F. ) ;
#268 = AXIS2_PLACEMENT_3D ( 'NONE', #774, #763, #40 ) ;
#269 = VERTEX_POINT ( 'NONE', #904 ) ;
#270 = PERSON_AND_ORGANIZATION_ROLE ( 'classification_officer' ) ;
#271 = DIRECTION ( 'NONE',  ( 7.304098846218135653E-17, -1.000000000000000000, -0.000000000000000000 ) ) ;
#272 = LINE ( 'NONE', #284, #232 ) ;
#273 = DATE_TIME_ROLE ( 'classification_date' ) ;
#274 = ORIENTED_EDGE ( 'NONE', *, *, #98, .T. ) ;
#275 = CARTESIAN_POINT ( 'NONE',  ( -3.362204724409449064, 1.870078740157480324, 0.000000000000000000 ) ) ;
#276 = EDGE_CURVE ( 'NONE', #472, #108, #34, .T. ) ;
#277 = AXIS2_PLACEMENT_3D ( 'NONE', #22, #380, #164 ) ;
#278 = CARTESIAN_POINT ( 'NONE',  ( 1.870078740157479658, -1.870078740157480324, 0.1499999999999999944 ) ) ;
#279 = APPROVAL_ROLE ( '' ) ;
#280 = EDGE_LOOP ( 'NONE', ( #878, #740 ) ) ;
#281 = LINE ( 'NONE', #428, #753 ) ;
#282 = CARTESIAN_POINT ( 'NONE',  ( -3.362204724409449064, -1.870078740157480324, 0.000000000000000000 ) ) ;
#283 = VECTOR ( 'NONE', #788, 39.37007874015748143 ) ;
#284 = CARTESIAN_POINT ( 'NONE',  ( -2.362204724409449508, 2.362204724409448620, 0.1499999999999999944 ) ) ;
#285 = PERSON_AND_ORGANIZATION ( #306, #74 ) ;
#286 = ORIENTED_EDGE ( 'NONE', *, *, #498, .F. ) ;
#287 = DIRECTION ( 'NONE',  ( -1.000000000000000000, 0.000000000000000000, -0.000000000000000000 ) ) ;
#288 = LINE ( 'NONE', #568, #52 ) ;
#289 = LOCAL_TIME ( 13, 5, 3.000000000000000000, #174 ) ;
#290 = DIRECTION ( 'NONE',  ( 0.000000000000000000, 0.000000000000000000, 1.000000000000000000 ) ) ;
#291 = ORIENTED_EDGE ( 'NONE', *, *, #406, .F. ) ;
#292 = DIRECTION ( 'NONE',  ( 0.000000000000000000, 0.000000000000000000, 1.000000000000000000 ) ) ;
#293 = CARTESIAN_POINT ( 'NONE',  ( -1.990157480314961091, 2.076771653543306950, 0.000000000000000000 ) ) ;
#294 = ORIENTED_EDGE ( 'NONE', *, *, #276, .T. ) ;
#295 = VECTOR ( 'NONE', #603, 39.37007874015748143 ) ;
#296 = CARTESIAN_POINT ( 'NONE',  ( 2.163385826771652809, -2.076771653543307394, 0.000000000000000000 ) ) ;
#297 = EDGE_CURVE ( 'NONE', #225, #871, #543, .T. ) ;
#298 = CARTESIAN_POINT ( 'NONE',  ( 3.362204724409448175, 2.362204724409448620, 0.000000000000000000 ) ) ;
#299 = ORIENTED_EDGE ( 'NONE', *, *, #621, .T. ) ;
#300 = CARTESIAN_POINT ( 'NONE',  ( 2.362204724409448175, 1.870078740157480324, 0.000000000000000000 ) ) ;
#301 = LINE ( 'NONE', #749, #720 ) ;
#302 = EDGE_LOOP ( 'NONE', ( #343, #181, #534, #764 ) ) ;
#303 = LOCAL_TIME ( 13, 5, 3.000000000000000000, #600 ) ;
#304 = DIRECTION ( 'NONE',  ( 0.000000000000000000, -1.000000000000000000, 0.000000000000000000 ) ) ;
#305 = DIRECTION ( 'NONE',  ( -1.000000000000000000, 0.000000000000000000, 0.000000000000000000 ) ) ;
#306 = PERSON ( 'UNSPECIFIED', 'UNSPECIFIED', 'UNSPECIFIED', ('UNSPECIFIED'), ('UNSPECIFIED'), ('UNSPECIFIED') ) ;
#307 = CARTESIAN_POINT ( 'NONE',  ( 1.990157480314959981, 2.076771653543306950, 0.1499999999999999944 ) ) ;
#308 = EDGE_CURVE ( 'NONE', #473, #913, #228, .T. ) ;
#309 = ORIENTED_EDGE ( 'NONE', *, *, #238, .T. ) ;
#310 = LINE ( 'NONE', #317, #154 ) ;
#311 = VECTOR ( 'NONE', #465, 39.37007874015748143 ) ;
#312 = VECTOR ( 'NONE', #29, 39.37007874015748143 ) ;
#313 = DIRECTION ( 'NONE',  ( -0.000000000000000000, -0.000000000000000000, -1.000000000000000000 ) ) ;
#314 = FACE_BOUND ( 'NONE', #251, .T. ) ;
#315 = CIRCLE ( 'NONE', #561, 0.08661417322834648325 ) ;
#316 = EDGE_LOOP ( 'NONE', ( #265, #41, #555, #404 ) ) ;
#317 = CARTESIAN_POINT ( 'NONE',  ( 3.362204724409448175, 2.362204724409448620, 0.000000000000000000 ) ) ;
#318 = CARTESIAN_POINT ( 'NONE',  ( -2.163385826771654141, -2.076771653543307394, 0.1499999999999999944 ) ) ;
#319 = CARTESIAN_POINT ( 'NONE',  ( 1.870078740157479658, 1.870078740157480324, 0.1499999999999999944 ) ) ;
#320 = VERTEX_POINT ( 'NONE', #590 ) ;
#321 = APPROVAL_DATE_TIME ( #100, #215 ) ;
#322 = CYLINDRICAL_SURFACE ( 'NONE', #677, 0.08661417322834648325 ) ;
#323 = ADVANCED_FACE ( 'NONE', ( #94 ), #430, .T. ) ;
#324 = CARTESIAN_POINT ( 'NONE',  ( 1.870078740157479658, -1.870078740157480324, 0.1499999999999999944 ) ) ;
#325 = ORIENTED_EDGE ( 'NONE', *, *, #844, .T. ) ;
#326 = APPROVAL_ROLE ( '' ) ;
#327 = LINE ( 'NONE', #607, #283 ) ;
#328 = AXIS2_PLACEMENT_3D ( 'NONE', #859, #290, #934 ) ;
#329 = EDGE_LOOP ( 'NONE', ( #477, #105 ) ) ;
#330 = ORIENTED_EDGE ( 'NONE', *, *, #800, .T. ) ;
#331 = LINE ( 'NONE', #192, #593 ) ;
#332 = EDGE_CURVE ( 'NONE', #394, #648, #896, .T. ) ;
#333 = ORIENTED_EDGE ( 'NONE', *, *, #207, .F. ) ;
#334 = VERTEX_POINT ( 'NONE', #752 ) ;
#335 = CARTESIAN_POINT ( 'NONE',  ( 1.870078740157479658, -1.870078740157480324, 0.000000000000000000 ) ) ;
#336 = AXIS2_PLACEMENT_3D ( 'NONE', #695, #109, #839 ) ;
#337 = ORIENTED_EDGE ( 'NONE', *, *, #297, .T. ) ;
#338 = ADVANCED_FACE ( 'NONE', ( #175 ), #660, .F. ) ;
#339 = FACE_OUTER_BOUND ( 'NONE', #619, .T. ) ;
#340 = AXIS2_PLACEMENT_3D ( 'NONE', #359, #421, #709 ) ;
#341 = ORIENTED_EDGE ( 'NONE', *, *, #914, .T. ) ;
#342 = CARTESIAN_POINT ( 'NONE',  ( -2.163385826771654141, -2.076771653543307394, 0.000000000000000000 ) ) ;
#343 = ORIENTED_EDGE ( 'NONE', *, *, #731, .F. ) ;
#344 = EDGE_LOOP ( 'NONE', ( #43, #750, #117, #629 ) ) ;
#345 = LINE ( 'NONE', #631, #87 ) ;
#346 = EDGE_CURVE ( 'NONE', #173, #460, #674, .T. ) ;
#347 = APPROVAL ( #907, 'UNSPECIFIED' ) ;
#348 = CIRCLE ( 'NONE', #821, 0.08661417322834648325 ) ;
#349 = CARTESIAN_POINT ( 'NONE',  ( -2.362204724409449508, -2.362204724409448620, 0.1499999999999999944 ) ) ;
#350 = ORIENTED_EDGE ( 'NONE', *, *, #207, .T. ) ;
#351 = DIRECTION ( 'NONE',  ( 0.000000000000000000, 0.000000000000000000, -1.000000000000000000 ) ) ;
#352 = LINE ( 'NONE', #862, #922 ) ;
#353 = AXIS2_PLACEMENT_3D ( 'NONE', #796, #573, #147 ) ;
#354 = DIRECTION ( 'NONE',  ( -0.000000000000000000, -0.000000000000000000, -1.000000000000000000 ) ) ;
#355 = ORIENTED_EDGE ( 'NONE', *, *, #508, .F. ) ;
#356 = CARTESIAN_POINT ( 'NONE',  ( -2.076771653543307838, 2.076771653543306950, 0.1499999999999999944 ) ) ;
#357 = VECTOR ( 'NONE', #487, 39.37007874015748143 ) ;
#358 = CARTESIAN_POINT ( 'NONE',  ( 2.163385826771652809, -2.076771653543307394, 0.1499999999999999944 ) ) ;
#359 = CARTESIAN_POINT ( 'NONE',  ( 2.076771653543306506, -2.076771653543307394, 0.000000000000000000 ) ) ;
#360 = EDGE_CURVE ( 'NONE', #930, #529, #447, .T. ) ;
#361 = ORIENTED_EDGE ( 'NONE', *, *, #771, .F. ) ;
#362 = DIRECTION ( 'NONE',  ( -0.000000000000000000, 1.000000000000000000, -0.000000000000000000 ) ) ;
#363 = DIRECTION ( 'NONE',  ( 0.000000000000000000, 1.000000000000000000, 0.000000000000000000 ) ) ;
#364 = EDGE_CURVE ( 'NONE', #711, #776, #933, .T. ) ;
#365 = VERTEX_POINT ( 'NONE', #515 ) ;
#366 = DIRECTION ( 'NONE',  ( 0.000000000000000000, -0.000000000000000000, 1.000000000000000000 ) ) ;
#367 = PLANE ( 'NONE',  #705 ) ;
#368 = ORIENTED_EDGE ( 'NONE', *, *, #731, .T. ) ;
#369 = DIRECTION ( 'NONE',  ( -7.304098846218135653E-17, 1.000000000000000000, 0.000000000000000000 ) ) ;
#370 = PLANE ( 'NONE',  #544 ) ;
#371 = CIRCLE ( 'NONE', #577, 0.08661417322834648325 ) ;
#372 = ORIENTED_EDGE ( 'NONE', *, *, #238, .F. ) ;
#373 = LINE ( 'NONE', #653, #226 ) ;
#374 = CARTESIAN_POINT ( 'NONE',  ( 2.076771653543306506, -2.076771653543307394, 0.1499999999999999944 ) ) ;
#375 = ADVANCED_FACE ( 'NONE', ( #66 ), #808, .T. ) ;
#376 = DIRECTION ( 'NONE',  ( 1.000000000000000000, 0.000000000000000000, 0.000000000000000000 ) ) ;
#377 = AXIS2_PLACEMENT_3D ( 'NONE', #379, #12, #369 ) ;
#378 = EDGE_LOOP ( 'NONE', ( #746, #341, #399, #241 ) ) ;
#379 = CARTESIAN_POINT ( 'NONE',  ( -1.870078740157480990, -1.870078740157480990, 0.1499999999999999944 ) ) ;
#380 = DIRECTION ( 'NONE',  ( 0.000000000000000000, 0.000000000000000000, 1.000000000000000000 ) ) ;
#381 = CARTESIAN_POINT ( 'NONE',  ( 3.362204724409448175, 1.870078740157480324, 0.000000000000000000 ) ) ;
#382 = ORIENTED_EDGE ( 'NONE', *, *, #466, .F. ) ;
#383 = CARTESIAN_POINT ( 'NONE',  ( 2.362204724409448175, -1.870078740157480324, 0.000000000000000000 ) ) ;
#384 = APPROVAL ( #781, 'UNSPECIFIED' ) ;
#385 = AXIS2_PLACEMENT_3D ( 'NONE', #780, #363, #647 ) ;
#386 = VECTOR ( 'NONE', #516, 39.37007874015748143 ) ;
#387 = CARTESIAN_POINT ( 'NONE',  ( 2.163385826771652809, 2.076771653543306950, 0.000000000000000000 ) ) ;
#388 = CARTESIAN_POINT ( 'NONE',  ( 0.000000000000000000, 0.000000000000000000, 0.000000000000000000 ) ) ;
#389 = VERTEX_POINT ( 'NONE', #282 ) ;
#390 = ADVANCED_FACE ( 'NONE', ( #814 ), #1, .F. ) ;
#391 = LINE ( 'NONE', #260, #88 ) ;
#392 = FACE_OUTER_BOUND ( 'NONE', #344, .T. ) ;
#393 = DIRECTION ( 'NONE',  ( -0.000000000000000000, -0.000000000000000000, -1.000000000000000000 ) ) ;
#394 = VERTEX_POINT ( 'NONE', #463 ) ;
#395 = CARTESIAN_POINT ( 'NONE',  ( 1.870078740157479658, 1.870078740157480324, 0.000000000000000000 ) ) ;
#396 = EDGE_CURVE ( 'NONE', #735, #408, #828, .T. ) ;
#397 = APPROVAL_PERSON_ORGANIZATION ( #36, #347, #326 ) ;
#398 = CARTESIAN_POINT ( 'NONE',  ( -2.076771653543307838, -2.076771653543307394, 0.1499999999999999944 ) ) ;
#399 = ORIENTED_EDGE ( 'NONE', *, *, #466, .T. ) ;
#400 = PLANE ( 'NONE',  #258 ) ;
#401 = LINE ( 'NONE', #48, #655 ) ;
#402 = VERTEX_POINT ( 'NONE', #597 ) ;
#403 = PERSON_AND_ORGANIZATION ( #306, #74 ) ;
#404 = ORIENTED_EDGE ( 'NONE', *, *, #193, .F. ) ;
#405 = FACE_OUTER_BOUND ( 'NONE', #479, .T. ) ;
#406 = EDGE_CURVE ( 'NONE', #882, #245, #352, .T. ) ;
#407 = ORIENTED_EDGE ( 'NONE', *, *, #712, .F. ) ;
#408 = VERTEX_POINT ( 'NONE', #358 ) ;
#409 = CARTESIAN_POINT ( 'NONE',  ( 3.362204724409448175, -2.362204724409448620, 0.000000000000000000 ) ) ;
#410 = VECTOR ( 'NONE', #420, 39.37007874015748143 ) ;
#411 = LOCAL_TIME ( 13, 5, 3.000000000000000000, #910 ) ;
#412 = ORIENTED_EDGE ( 'NONE', *, *, #67, .T. ) ;
#413 = DATE_AND_TIME ( #123, #411 ) ;
#414 = VERTEX_POINT ( 'NONE', #387 ) ;
#415 = LINE ( 'NONE', #867, #845 ) ;
#416 = ORIENTED_EDGE ( 'NONE', *, *, #171, .T. ) ;
#417 = COORDINATED_UNIVERSAL_TIME_OFFSET ( 5, 0, .BEHIND. ) ;
#418 = ADVANCED_FACE ( 'NONE', ( #83 ), #28, .F. ) ;
#419 = ORIENTED_EDGE ( 'NONE', *, *, #535, .F. ) ;
#420 = DIRECTION ( 'NONE',  ( -1.000000000000000000, -0.000000000000000000, -0.000000000000000000 ) ) ;
#421 = DIRECTION ( 'NONE',  ( 0.000000000000000000, 0.000000000000000000, 1.000000000000000000 ) ) ;
#422 = ORIENTED_EDGE ( 'NONE', *, *, #588, .T. ) ;
#423 = FACE_BOUND ( 'NONE', #467, .T. ) ;
#424 = VECTOR ( 'NONE', #876, 39.37007874015748143 ) ;
#425 = CARTESIAN_POINT ( 'NONE',  ( 3.362204724409448175, -2.362204724409448620, 0.000000000000000000 ) ) ;
#426 = PERSON_AND_ORGANIZATION ( #306, #74 ) ;
#427 = VERTEX_POINT ( 'NONE', #493 ) ;
#428 = CARTESIAN_POINT ( 'NONE',  ( -1.990157480314961091, 2.076771653543306950, 0.1499999999999999944 ) ) ;
#429 = EDGE_CURVE ( 'NONE', #648, #483, #371, .T. ) ;
#430 = PLANE ( 'NONE',  #462 ) ;
#431 = AXIS2_PLACEMENT_3D ( 'NONE', #739, #393, #680 ) ;
#432 = DIRECTION ( 'NONE',  ( 1.000000000000000000, 0.000000000000000000, 0.000000000000000000 ) ) ;
#433 = ORIENTED_EDGE ( 'NONE', *, *, #193, .T. ) ;
#434 = CARTESIAN_POINT ( 'NONE',  ( 2.076771653543306506, -2.076771653543307394, 0.1499999999999999944 ) ) ;
#435 = VECTOR ( 'NONE', #734, 39.37007874015748143 ) ;
#436 = EDGE_CURVE ( 'NONE', #320, #930, #288, .T. ) ;
#437 = FACE_OUTER_BOUND ( 'NONE', #787, .T. ) ;
#438 = ADVANCED_FACE ( 'NONE', ( #405 ), #908, .T. ) ;
#439 = EDGE_LOOP ( 'NONE', ( #630, #25, #865, #549 ) ) ;
#440 = LINE ( 'NONE', #812, #5 ) ;
#441 = DIRECTION ( 'NONE',  ( -1.000000000000000000, 0.000000000000000000, 0.000000000000000000 ) ) ;
#442 = ORIENTED_EDGE ( 'NONE', *, *, #119, .T. ) ;
#443 = CARTESIAN_POINT ( 'NONE',  ( -2.362204724409449508, 1.870078740157480324, 0.000000000000000000 ) ) ;
#444 = CARTESIAN_POINT ( 'NONE',  ( -3.362204724409449064, -2.362204724409448620, 0.000000000000000000 ) ) ;
#445 = ORIENTED_EDGE ( 'NONE', *, *, #771, .T. ) ;
#446 = DIRECTION ( 'NONE',  ( 0.000000000000000000, 0.000000000000000000, 1.000000000000000000 ) ) ;
#447 = LINE ( 'NONE', #890, #931 ) ;
#448 = CYLINDRICAL_SURFACE ( 'NONE', #431, 0.08661417322834648325 ) ;
#449 = ORIENTED_EDGE ( 'NONE', *, *, #628, .T. ) ;
#450 = DIRECTION ( 'NONE',  ( -1.000000000000000000, 0.000000000000000000, 0.000000000000000000 ) ) ;
#451 = CARTESIAN_POINT ( 'NONE',  ( 2.076771653543306506, -2.076771653543307394, 0.1499999999999999944 ) ) ;
#452 = DIRECTION ( 'NONE',  ( -1.000000000000000000, 0.000000000000000000, 0.000000000000000000 ) ) ;
#453 = PRODUCT_DEFINITION_FORMATION_WITH_SPECIFIED_SOURCE ( 'ANY', '', #141, .NOT_KNOWN. ) ;
#454 = ORIENTED_EDGE ( 'NONE', *, *, #458, .T. ) ;
#455 = LINE ( 'NONE', #666, #185 ) ;
#456 = DIRECTION ( 'NONE',  ( 1.000000000000000000, 0.000000000000000000, 0.000000000000000000 ) ) ;
#457 = EDGE_CURVE ( 'NONE', #483, #648, #488, .T. ) ;
#458 = EDGE_CURVE ( 'NONE', #394, #730, #846, .T. ) ;
#459 = DIRECTION ( 'NONE',  ( 0.000000000000000000, 0.000000000000000000, 1.000000000000000000 ) ) ;
#460 = VERTEX_POINT ( 'NONE', #541 ) ;
#461 = DIRECTION ( 'NONE',  ( -0.000000000000000000, -1.000000000000000000, -0.000000000000000000 ) ) ;
#462 = AXIS2_PLACEMENT_3D ( 'NONE', #642, #667, #869 ) ;
#463 = CARTESIAN_POINT ( 'NONE',  ( -2.163385826771654141, -2.076771653543307394, 0.1499999999999999944 ) ) ;
#464 = VECTOR ( 'NONE', #271, 39.37007874015748143 ) ;
#465 = DIRECTION ( 'NONE',  ( 0.000000000000000000, 0.000000000000000000, 1.000000000000000000 ) ) ;
#466 = EDGE_CURVE ( 'NONE', #334, #320, #911, .T. ) ;
#467 = EDGE_LOOP ( 'NONE', ( #550, #149 ) ) ;
#468 = LINE ( 'NONE', #187, #148 ) ;
#469 = VERTEX_POINT ( 'NONE', #917 ) ;
#470 = MECHANICAL_CONTEXT ( 'NONE', #916, 'mechanical' ) ;
#471 = FACE_OUTER_BOUND ( 'NONE', #302, .T. ) ;
#472 = VERTEX_POINT ( 'NONE', #247 ) ;
#473 = VERTEX_POINT ( 'NONE', #409 ) ;
#474 = CARTESIAN_POINT ( 'NONE',  ( -2.076771653543307838, 2.076771653543306950, 0.1499999999999999944 ) ) ;
#475 = EDGE_CURVE ( 'NONE', #913, #711, #401, .T. ) ;
#476 = VECTOR ( 'NONE', #91, 39.37007874015748143 ) ;
#477 = ORIENTED_EDGE ( 'NONE', *, *, #553, .F. ) ;
#478 = DIRECTION ( 'NONE',  ( 0.000000000000000000, 0.000000000000000000, 1.000000000000000000 ) ) ;
#479 = EDGE_LOOP ( 'NONE', ( #570, #407, #422, #852 ) ) ;
#480 = VERTEX_POINT ( 'NONE', #921 ) ;
#481 = CARTESIAN_POINT ( 'NONE',  ( -1.870078740157481212, 1.870078740157479880, 0.000000000000000000 ) ) ;
#482 = VECTOR ( 'NONE', #589, 39.37007874015748143 ) ;
#483 = VERTEX_POINT ( 'NONE', #617 ) ;
#484 = EDGE_LOOP ( 'NONE', ( #599, #73, #92, #546 ) ) ;
#485 = CARTESIAN_POINT ( 'NONE',  ( -1.870078740157480990, -1.870078740157480990, 0.1499999999999999944 ) ) ;
#486 = DIRECTION ( 'NONE',  ( -0.000000000000000000, -0.000000000000000000, -1.000000000000000000 ) ) ;
#487 = DIRECTION ( 'NONE',  ( 0.000000000000000000, 0.000000000000000000, 1.000000000000000000 ) ) ;
#488 = CIRCLE ( 'NONE', #69, 0.08661417322834648325 ) ;
#489 = DIRECTION ( 'NONE',  ( -1.000000000000000000, 0.000000000000000000, 0.000000000000000000 ) ) ;
#490 = ORIENTED_EDGE ( 'NONE', *, *, #406, .T. ) ;
#491 = PLANE ( 'NONE',  #591 ) ;
#492 = AXIS2_PLACEMENT_3D ( 'NONE', #155, #158, #879 ) ;
#493 = CARTESIAN_POINT ( 'NONE',  ( -1.990157480314961091, 2.076771653543306950, 0.1499999999999999944 ) ) ;
#494 = DIRECTION ( 'NONE',  ( 0.000000000000000000, 0.000000000000000000, 1.000000000000000000 ) ) ;
#495 = ORIENTED_EDGE ( 'NONE', *, *, #90, .F. ) ;
#496 = LINE ( 'NONE', #924, #892 ) ;
#497 = PRODUCT_DEFINITION_SHAPE ( 'NONE', 'NONE',  #702 ) ;
#498 = EDGE_CURVE ( 'NONE', #906, #414, #531, .T. ) ;
#499 = AXIS2_PLACEMENT_3D ( 'NONE', #822, #376, #893 ) ;
#500 = CARTESIAN_POINT ( 'NONE',  ( -2.076771653543307838, 2.076771653543306950, 0.000000000000000000 ) ) ;
#501 = ORIENTED_EDGE ( 'NONE', *, *, #596, .F. ) ;
#502 = CARTESIAN_POINT ( 'NONE',  ( -3.362204724409449064, -1.870078740157480324, 0.000000000000000000 ) ) ;
#503 = AXIS2_PLACEMENT_3D ( 'NONE', #769, #612, #849 ) ;
#504 = PLANE ( 'NONE',  #905 ) ;
#505 = EDGE_LOOP ( 'NONE', ( #291, #355, #834, #442 ) ) ;
#506 = LINE ( 'NONE', #443, #661 ) ;
#507 = CARTESIAN_POINT ( 'NONE',  ( -3.362204724409449064, -2.362204724409448620, 0.000000000000000000 ) ) ;
#508 = EDGE_CURVE ( 'NONE', #690, #882, #331, .T. ) ;
#509 = VERTEX_POINT ( 'NONE', #686 ) ;
#510 = CARTESIAN_POINT ( 'NONE',  ( -2.362204724409449508, -2.362204724409448620, 0.000000000000000000 ) ) ;
#511 = DIRECTION ( 'NONE',  ( 0.000000000000000000, 1.000000000000000000, 0.000000000000000000 ) ) ;
#512 = CARTESIAN_POINT ( 'NONE',  ( -1.870078740157481212, 1.870078740157479880, 0.1499999999999999944 ) ) ;
#513 = EDGE_LOOP ( 'NONE', ( #894, #19, #609, #918, #167, #718, #797, #54, #665, #537, #703, #419 ) ) ;
#514 = DIRECTION ( 'NONE',  ( 1.000000000000000000, 0.000000000000000000, 0.000000000000000000 ) ) ;
#515 = CARTESIAN_POINT ( 'NONE',  ( -2.362204724409449508, -1.870078740157480324, 0.000000000000000000 ) ) ;
#516 = DIRECTION ( 'NONE',  ( 0.000000000000000000, -1.000000000000000000, 0.000000000000000000 ) ) ;
#517 = AXIS2_PLACEMENT_3D ( 'NONE', #253, #623, #533 ) ;
#518 = VERTEX_POINT ( 'NONE', #107 ) ;
#519 = CARTESIAN_POINT ( 'NONE',  ( -2.163385826771654141, 2.076771653543306950, 0.1499999999999999944 ) ) ;
#520 = CARTESIAN_POINT ( 'NONE',  ( 1.870078740157479658, -1.870078740157480324, 0.1499999999999999944 ) ) ;
#521 = ADVANCED_FACE ( 'NONE', ( #471 ), #322, .F. ) ;
#522 = CARTESIAN_POINT ( 'NONE',  ( -3.362204724409449064, 2.362204724409448620, 0.000000000000000000 ) ) ;
#523 = APPROVAL_PERSON_ORGANIZATION ( #639, #384, #279 ) ;
#524 = ORIENTED_EDGE ( 'NONE', *, *, #757, .T. ) ;
#525 = EDGE_CURVE ( 'NONE', #634, #402, #468, .T. ) ;
#526 = DIRECTION ( 'NONE',  ( -1.000000000000000000, -1.460819769243627131E-16, 0.000000000000000000 ) ) ;
#527 = ADVANCED_FACE ( 'NONE', ( #339 ), #759, .T. ) ;
#528 = FACE_BOUND ( 'NONE', #378, .T. ) ;
#529 = VERTEX_POINT ( 'NONE', #481 ) ;
#530 = DIRECTION ( 'NONE',  ( -1.000000000000000000, -1.460819769243627131E-16, 0.000000000000000000 ) ) ;
#531 = LINE ( 'NONE', #843, #891 ) ;
#532 = EDGE_LOOP ( 'NONE', ( #412, #899, #204, #778, #847, #122, #129, #133, #490, #115, #144, #838 ) ) ;
#533 = DIRECTION ( 'NONE',  ( 0.000000000000000000, 0.000000000000000000, 1.000000000000000000 ) ) ;
#534 = ORIENTED_EDGE ( 'NONE', *, *, #332, .T. ) ;
#535 = EDGE_CURVE ( 'NONE', #803, #269, #547, .T. ) ;
#536 = VECTOR ( 'NONE', #615, 39.37007874015748143 ) ;
#537 = ORIENTED_EDGE ( 'NONE', *, *, #700, .F. ) ;
#538 = DIRECTION ( 'NONE',  ( 0.000000000000000000, 0.000000000000000000, 1.000000000000000000 ) ) ;
#539 = ORIENTED_EDGE ( 'NONE', *, *, #854, .F. ) ;
#540 = CARTESIAN_POINT ( 'NONE',  ( 1.870078740157479658, -1.870078740157480324, 0.1499999999999999944 ) ) ;
#541 = CARTESIAN_POINT ( 'NONE',  ( 1.990157480314959981, 2.076771653543306950, 0.000000000000000000 ) ) ;
#542 = AXIS2_PLACEMENT_3D ( 'NONE', #500, #143, #432 ) ;
#543 = CIRCLE ( 'NONE', #277, 0.08661417322834648325 ) ;
#544 = AXIS2_PLACEMENT_3D ( 'NONE', #581, #452, #881 ) ;
#545 = ORIENTED_EDGE ( 'NONE', *, *, #508, .T. ) ;
#546 = ORIENTED_EDGE ( 'NONE', *, *, #119, .F. ) ;
#547 = LINE ( 'NONE', #691, #799 ) ;
#548 = ADVANCED_FACE ( 'NONE', ( #392 ), #110, .T. ) ;
#549 = ORIENTED_EDGE ( 'NONE', *, *, #364, .T. ) ;
#550 = ORIENTED_EDGE ( 'NONE', *, *, #396, .F. ) ;
#551 = FACE_BOUND ( 'NONE', #329, .T. ) ;
#552 = CC_DESIGN_APPROVAL ( #384, ( #567 ) ) ;
#553 = EDGE_CURVE ( 'NONE', #848, #427, #102, .T. ) ;
#554 = PLANE ( 'NONE',  #885 ) ;
#555 = ORIENTED_EDGE ( 'NONE', *, *, #596, .T. ) ;
#556 = LINE ( 'NONE', #134, #654 ) ;
#557 = LINE ( 'NONE', #349, #249 ) ;
#558 = SHAPE_DEFINITION_REPRESENTATION ( #497, #737 ) ;
#559 = ORIENTED_EDGE ( 'NONE', *, *, #757, .F. ) ;
#560 = CARTESIAN_POINT ( 'NONE',  ( 3.362204724409448175, 2.362204724409448620, 0.1499999999999999944 ) ) ;
#561 = AXIS2_PLACEMENT_3D ( 'NONE', #434, #635, #139 ) ;
#562 = CARTESIAN_POINT ( 'NONE',  ( 2.362204724409448175, -1.870078740157480324, 0.000000000000000000 ) ) ;
#563 = LINE ( 'NONE', #790, #919 ) ;
#564 = EDGE_CURVE ( 'NONE', #402, #776, #116, .T. ) ;
#565 = ORIENTED_EDGE ( 'NONE', *, *, #98, .F. ) ;
#566 = CARTESIAN_POINT ( 'NONE',  ( -2.163385826771654141, 2.076771653543306950, 0.1499999999999999944 ) ) ;
#567 = SECURITY_CLASSIFICATION ( '', '', #851 ) ;
#568 = CARTESIAN_POINT ( 'NONE',  ( 1.870078740157479658, -1.870078740157480324, 0.000000000000000000 ) ) ;
#569 = ORIENTED_EDGE ( 'NONE', *, *, #525, .F. ) ;
#570 = ORIENTED_EDGE ( 'NONE', *, *, #782, .F. ) ;
#571 = LINE ( 'NONE', #872, #178 ) ;
#572 = VECTOR ( 'NONE', #877, 39.37007874015748143 ) ;
#573 = DIRECTION ( 'NONE',  ( -1.000000000000000000, 0.000000000000000000, 0.000000000000000000 ) ) ;
#574 = ORIENTED_EDGE ( 'NONE', *, *, #576, .T. ) ;
#575 = DIRECTION ( 'NONE',  ( -0.000000000000000000, -0.000000000000000000, -1.000000000000000000 ) ) ;
#576 = EDGE_CURVE ( 'NONE', #153, #696, #840, .T. ) ;
#577 = AXIS2_PLACEMENT_3D ( 'NONE', #789, #142, #721 ) ;
#578 = DIRECTION ( 'NONE',  ( 0.000000000000000000, 1.000000000000000000, 0.000000000000000000 ) ) ;
#579 = ORIENTED_EDGE ( 'NONE', *, *, #662, .T. ) ;
#580 = PLANE ( 'NONE',  #663 ) ;
#581 = CARTESIAN_POINT ( 'NONE',  ( 2.362204724409448175, -2.362204724409448620, 0.1499999999999999944 ) ) ;
#582 = ORIENTED_EDGE ( 'NONE', *, *, #903, .F. ) ;
#583 = DIRECTION ( 'NONE',  ( 0.000000000000000000, -0.000000000000000000, -1.000000000000000000 ) ) ;
#584 = CARTESIAN_POINT ( 'NONE',  ( 3.362204724409448175, -2.362204724409448620, 0.000000000000000000 ) ) ;
#585 = FACE_BOUND ( 'NONE', #644, .T. ) ;
#586 = VECTOR ( 'NONE', #816, 39.37007874015748143 ) ;
#587 = ORIENTED_EDGE ( 'NONE', *, *, #637, .F. ) ;
#588 = EDGE_CURVE ( 'NONE', #365, #389, #327, .T. ) ;
#589 = DIRECTION ( 'NONE',  ( -0.000000000000000000, -1.000000000000000000, -0.000000000000000000 ) ) ;
#590 = CARTESIAN_POINT ( 'NONE',  ( 1.870078740157479658, -1.870078740157480324, 0.000000000000000000 ) ) ;
#591 = AXIS2_PLACEMENT_3D ( 'NONE', #60, #351, #287 ) ;
#592 = CARTESIAN_POINT ( 'NONE',  ( -2.076771653543307838, 2.076771653543306950, 0.1499999999999999944 ) ) ;
#593 = VECTOR ( 'NONE', #478, 39.37007874015748143 ) ;
#594 = EDGE_LOOP ( 'NONE', ( #841, #77, #254, #545 ) ) ;
#595 = LINE ( 'NONE', #502, #257 ) ;
#596 = EDGE_CURVE ( 'NONE', #848, #672, #124, .T. ) ;
#597 = CARTESIAN_POINT ( 'NONE',  ( 3.362204724409448175, -1.870078740157480324, 0.1499999999999999944 ) ) ;
#598 = DIRECTION ( 'NONE',  ( -0.000000000000000000, -0.000000000000000000, -1.000000000000000000 ) ) ;
#599 = ORIENTED_EDGE ( 'NONE', *, *, #775, .T. ) ;
#600 = COORDINATED_UNIVERSAL_TIME_OFFSET ( 5, 0, .BEHIND. ) ;
#601 = CARTESIAN_POINT ( 'NONE',  ( -2.076771653543307838, -2.076771653543307394, 0.000000000000000000 ) ) ;
#602 = DESIGN_CONTEXT ( 'detailed design', #21, 'design' ) ;
#603 = DIRECTION ( 'NONE',  ( 0.000000000000000000, 1.000000000000000000, 0.000000000000000000 ) ) ;
#604 = VERTEX_POINT ( 'NONE', #560 ) ;
#605 = PERSON_AND_ORGANIZATION ( #306, #74 ) ;
#606 = CIRCLE ( 'NONE', #340, 0.08661417322834648325 ) ;
#607 = CARTESIAN_POINT ( 'NONE',  ( -2.362204724409449508, -1.870078740157480324, 0.000000000000000000 ) ) ;
#608 = EDGE_CURVE ( 'NONE', #153, #473, #496, .T. ) ;
#609 = ORIENTED_EDGE ( 'NONE', *, *, #308, .F. ) ;
#610 = CALENDAR_DATE ( 2025, 8, 5 ) ;
#611 = ORIENTED_EDGE ( 'NONE', *, *, #32, .F. ) ;
#612 = DIRECTION ( 'NONE',  ( 0.000000000000000000, -1.000000000000000000, 0.000000000000000000 ) ) ;
#613 = EDGE_LOOP ( 'NONE', ( #772, #616, #113, #574 ) ) ;
#614 = CIRCLE ( 'NONE', #492, 0.08661417322834648325 ) ;
#615 = DIRECTION ( 'NONE',  ( -0.000000000000000000, -0.000000000000000000, -1.000000000000000000 ) ) ;
#616 = ORIENTED_EDGE ( 'NONE', *, *, #873, .F. ) ;
#617 = CARTESIAN_POINT ( 'NONE',  ( -1.990157480314961091, -2.076771653543307394, 0.000000000000000000 ) ) ;
#618 = CC_DESIGN_DATE_AND_TIME_ASSIGNMENT ( #701, #273, ( #567 ) ) ;
#619 = EDGE_LOOP ( 'NONE', ( #850, #372, #860, #445 ) ) ;
#620 = APPLICATION_PROTOCOL_DEFINITION ( 'international standard', 'config_control_design', 1994, #21 ) ;
#621 = EDGE_CURVE ( 'NONE', #473, #634, #704, .T. ) ;
#622 = ORIENTED_EDGE ( 'NONE', *, *, #276, .F. ) ;
#623 = DIRECTION ( 'NONE',  ( 0.000000000000000000, 1.000000000000000000, -0.000000000000000000 ) ) ;
#624 = AXIS2_PLACEMENT_3D ( 'NONE', #810, #459, #244 ) ;
#625 = EDGE_LOOP ( 'NONE', ( #524, #325 ) ) ;
#626 = ADVANCED_FACE ( 'NONE', ( #57, #423, #725, #551, #927, #932 ), #491, .F. ) ;
#627 = DIRECTION ( 'NONE',  ( -0.000000000000000000, -0.000000000000000000, -1.000000000000000000 ) ) ;
#628 = EDGE_CURVE ( 'NONE', #408, #735, #315, .T. ) ;
#629 = ORIENTED_EDGE ( 'NONE', *, *, #182, .T. ) ;
#630 = ORIENTED_EDGE ( 'NONE', *, *, #564, .F. ) ;
#631 = CARTESIAN_POINT ( 'NONE',  ( 2.362204724409448175, -2.362204724409448620, 0.1499999999999999944 ) ) ;
#632 = FACE_OUTER_BOUND ( 'NONE', #687, .T. ) ;
#633 = CALENDAR_DATE ( 2025, 8, 5 ) ;
#634 = VERTEX_POINT ( 'NONE', #219 ) ;
#635 = DIRECTION ( 'NONE',  ( 0.000000000000000000, 0.000000000000000000, 1.000000000000000000 ) ) ;
#636 = DIRECTION ( 'NONE',  ( -1.000000000000000000, 0.000000000000000000, 0.000000000000000000 ) ) ;
#637 = EDGE_CURVE ( 'NONE', #509, #604, #415, .T. ) ;
#638 = DIRECTION ( 'NONE',  ( 1.000000000000000000, 1.460819769243627131E-16, -0.000000000000000000 ) ) ;
#639 = PERSON_AND_ORGANIZATION ( #306, #74 ) ;
#640 = EDGE_LOOP ( 'NONE', ( #454, #368, #200, #806 ) ) ;
#641 = DIRECTION ( 'NONE',  ( -0.000000000000000000, -0.000000000000000000, -1.000000000000000000 ) ) ;
#642 = CARTESIAN_POINT ( 'NONE',  ( -2.362204724409449508, 1.870078740157480324, 0.000000000000000000 ) ) ;
#643 = CARTESIAN_POINT ( 'NONE',  ( 3.362204724409448175, 2.362204724409448620, 0.000000000000000000 ) ) ;
#644 = EDGE_LOOP ( 'NONE', ( #337, #875 ) ) ;
#645 = FACE_OUTER_BOUND ( 'NONE', #316, .T. ) ;
#646 = LOCAL_TIME ( 13, 5, 3.000000000000000000, #417 ) ;
#647 = DIRECTION ( 'NONE',  ( 0.000000000000000000, -0.000000000000000000, 1.000000000000000000 ) ) ;
#648 = VERTEX_POINT ( 'NONE', #342 ) ;
#649 = CARTESIAN_POINT ( 'NONE',  ( -2.362204724409449508, -1.870078740157480324, 0.1499999999999999944 ) ) ;
#650 = EDGE_CURVE ( 'NONE', #776, #8, #345, .T. ) ;
#651 = DIRECTION ( 'NONE',  ( 1.000000000000000000, 0.000000000000000000, 0.000000000000000000 ) ) ;
#652 = ORIENTED_EDGE ( 'NONE', *, *, #576, .F. ) ;
#653 = CARTESIAN_POINT ( 'NONE',  ( 1.870078740157479658, 1.870078740157480324, 0.1499999999999999944 ) ) ;
#654 = VECTOR ( 'NONE', #292, 39.37007874015748143 ) ;
#655 = VECTOR ( 'NONE', #697, 39.37007874015748143 ) ;
#656 = AXIS2_PLACEMENT_3D ( 'NONE', #474, #538, #195 ) ;
#657 = CARTESIAN_POINT ( 'NONE',  ( 1.990157480314959981, -2.076771653543307394, 0.1499999999999999944 ) ) ;
#658 = ORIENTED_EDGE ( 'NONE', *, *, #914, .F. ) ;
#659 = DIRECTION ( 'NONE',  ( 0.000000000000000000, 0.000000000000000000, 1.000000000000000000 ) ) ;
#660 = CYLINDRICAL_SURFACE ( 'NONE', #95, 0.08661417322834648325 ) ;
#661 = VECTOR ( 'NONE', #78, 39.37007874015748143 ) ;
#662 = EDGE_CURVE ( 'NONE', #906, #173, #864, .T. ) ;
#663 = AXIS2_PLACEMENT_3D ( 'NONE', #818, #304, #583 ) ;
#664 = FACE_OUTER_BOUND ( 'NONE', #699, .T. ) ;
#665 = ORIENTED_EDGE ( 'NONE', *, *, #140, .F. ) ;
#666 = CARTESIAN_POINT ( 'NONE',  ( -3.362204724409449064, 2.362204724409448620, 0.000000000000000000 ) ) ;
#667 = DIRECTION ( 'NONE',  ( 0.000000000000000000, -1.000000000000000000, 0.000000000000000000 ) ) ;
#668 = LINE ( 'NONE', #827, #217 ) ;
#669 = EDGE_CURVE ( 'NONE', #427, #7, #281, .T. ) ;
#670 = CIRCLE ( 'NONE', #794, 0.08661417322834648325 ) ;
#671 = AXIS2_PLACEMENT_3D ( 'NONE', #819, #738, #170 ) ;
#672 = VERTEX_POINT ( 'NONE', #784 ) ;
#673 = DIRECTION ( 'NONE',  ( 1.000000000000000000, 0.000000000000000000, 0.000000000000000000 ) ) ;
#674 = LINE ( 'NONE', #748, #809 ) ;
#675 = VECTOR ( 'NONE', #598, 39.37007874015748143 ) ;
#676 = DIRECTION ( 'NONE',  ( -1.000000000000000000, 0.000000000000000000, -0.000000000000000000 ) ) ;
#677 = AXIS2_PLACEMENT_3D ( 'NONE', #398, #256, #180 ) ;
#678 = ORIENTED_EDGE ( 'NONE', *, *, #308, .T. ) ;
#679 = CARTESIAN_POINT ( 'NONE',  ( 2.362204724409448175, -1.870078740157480324, 0.1499999999999999944 ) ) ;
#680 = DIRECTION ( 'NONE',  ( -1.000000000000000000, 0.000000000000000000, 0.000000000000000000 ) ) ;
#681 = CC_DESIGN_SECURITY_CLASSIFICATION ( #567, ( #453 ) ) ;
#682 = ORIENTED_EDGE ( 'NONE', *, *, #553, .T. ) ;
#683 = DIRECTION ( 'NONE',  ( -1.000000000000000000, -0.000000000000000000, -0.000000000000000000 ) ) ;
#684 = EDGE_CURVE ( 'NONE', #264, #518, #209, .T. ) ;
#685 = EDGE_LOOP ( 'NONE', ( #274, #706, #559, #212 ) ) ;
#686 = CARTESIAN_POINT ( 'NONE',  ( 3.362204724409448175, 1.870078740157480324, 0.1499999999999999944 ) ) ;
#687 = EDGE_LOOP ( 'NONE', ( #587, #59, #724, #935 ) ) ;
#688 =( NAMED_UNIT ( * ) PLANE_ANGLE_UNIT ( ) SI_UNIT ( $, .RADIAN. ) );
#689 = VECTOR ( 'NONE', #33, 39.37007874015748143 ) ;
#690 = VERTEX_POINT ( 'NONE', #275 ) ;
#691 = CARTESIAN_POINT ( 'NONE',  ( 2.362204724409448175, 1.870078740157480324, 0.000000000000000000 ) ) ;
#692 = EDGE_CURVE ( 'NONE', #803, #8, #556, .T. ) ;
#693 = ORIENTED_EDGE ( 'NONE', *, *, #67, .F. ) ;
#694 = VECTOR ( 'NONE', #461, 39.37007874015748143 ) ;
#695 = CARTESIAN_POINT ( 'NONE',  ( 0.000000000000000000, 0.000000000000000000, 0.000000000000000000 ) ) ;
#696 = VERTEX_POINT ( 'NONE', #793 ) ;
#697 = DIRECTION ( 'NONE',  ( -1.000000000000000000, -0.000000000000000000, -0.000000000000000000 ) ) ;
#698 = ADVANCED_FACE ( 'NONE', ( #645 ), #65, .F. ) ;
#699 = EDGE_LOOP ( 'NONE', ( #286, #579, #259, #811 ) ) ;
#700 = EDGE_CURVE ( 'NONE', #179, #161, #213, .T. ) ;
#701 = DATE_AND_TIME ( #717, #198 ) ;
#702 = PRODUCT_DEFINITION ( 'UNKNOWN', '', #453, #602 ) ;
#703 = ORIENTED_EDGE ( 'NONE', *, *, #248, .F. ) ;
#704 = LINE ( 'NONE', #861, #357 ) ;
#705 = AXIS2_PLACEMENT_3D ( 'NONE', #221, #489, #926 ) ;
#706 = ORIENTED_EDGE ( 'NONE', *, *, #498, .T. ) ;
#707 = PERSON_AND_ORGANIZATION_ROLE ( 'creator' ) ;
#708 = DIRECTION ( 'NONE',  ( -0.000000000000000000, -0.000000000000000000, -1.000000000000000000 ) ) ;
#709 = DIRECTION ( 'NONE',  ( 1.000000000000000000, 0.000000000000000000, 0.000000000000000000 ) ) ;
#710 = COORDINATED_UNIVERSAL_TIME_OFFSET ( 5, 0, .BEHIND. ) ;
#711 = VERTEX_POINT ( 'NONE', #6 ) ;
#712 = EDGE_CURVE ( 'NONE', #365, #190, #571, .T. ) ;
#713 = CARTESIAN_POINT ( 'NONE',  ( 2.076771653543306506, 2.076771653543306950, 0.1499999999999999944 ) ) ;
#714 = AXIS2_PLACEMENT_3D ( 'NONE', #130, #708, #858 ) ;
#715 = ADVANCED_FACE ( 'NONE', ( #201 ), #779, .F. ) ;
#716 = FACE_OUTER_BOUND ( 'NONE', #888, .T. ) ;
#717 = CALENDAR_DATE ( 2025, 8, 5 ) ;
#718 = ORIENTED_EDGE ( 'NONE', *, *, #588, .F. ) ;
#719 = DIRECTION ( 'NONE',  ( 1.000000000000000000, 0.000000000000000000, 0.000000000000000000 ) ) ;
#720 = VECTOR ( 'NONE', #578, 39.37007874015748143 ) ;
#721 = DIRECTION ( 'NONE',  ( 1.000000000000000000, 0.000000000000000000, 0.000000000000000000 ) ) ;
#722 = FACE_OUTER_BOUND ( 'NONE', #594, .T. ) ;
#723 = AXIS2_PLACEMENT_3D ( 'NONE', #388, #229, #676 ) ;
#724 = ORIENTED_EDGE ( 'NONE', *, *, #248, .T. ) ;
#725 = FACE_BOUND ( 'NONE', #63, .T. ) ;
#726 = PLANE ( 'NONE',  #353 ) ;
#727 = EDGE_CURVE ( 'NONE', #8, #509, #168, .T. ) ;
#728 = EDGE_LOOP ( 'NONE', ( #382, #539, #137, #829 ) ) ;
#729 = FACE_OUTER_BOUND ( 'NONE', #439, .T. ) ;
#730 = VERTEX_POINT ( 'NONE', #736 ) ;
#731 = EDGE_CURVE ( 'NONE', #730, #483, #231, .T. ) ;
#732 = EDGE_LOOP ( 'NONE', ( #14, #495, #294, #309 ) ) ;
#733 = CARTESIAN_POINT ( 'NONE',  ( 1.990157480314959981, -2.076771653543307394, 0.1499999999999999944 ) ) ;
#734 = DIRECTION ( 'NONE',  ( -0.000000000000000000, -1.000000000000000000, -0.000000000000000000 ) ) ;
#735 = VERTEX_POINT ( 'NONE', #733 ) ;
#736 = CARTESIAN_POINT ( 'NONE',  ( -1.990157480314961091, -2.076771653543307394, 0.1499999999999999944 ) ) ;
#737 = ADVANCED_BREP_SHAPE_REPRESENTATION ( 'FanHoleGuides', ( #104, #336 ), #760 ) ;
#738 = DIRECTION ( 'NONE',  ( -0.000000000000000000, -0.000000000000000000, -1.000000000000000000 ) ) ;
#739 = CARTESIAN_POINT ( 'NONE',  ( 2.076771653543306506, 2.076771653543306950, 0.1499999999999999944 ) ) ;
#740 = ORIENTED_EDGE ( 'NONE', *, *, #868, .F. ) ;
#741 = PLANE ( 'NONE',  #377 ) ;
#742 = DIRECTION ( 'NONE',  ( 1.000000000000000000, -0.000000000000000000, -0.000000000000000000 ) ) ;
#743 = EDGE_CURVE ( 'NONE', #108, #264, #373, .T. ) ;
#744 = VECTOR ( 'NONE', #514, 39.37007874015748143 ) ;
#745 = LINE ( 'NONE', #657, #312 ) ;
#746 = ORIENTED_EDGE ( 'NONE', *, *, #360, .T. ) ;
#747 = DIRECTION ( 'NONE',  ( 0.000000000000000000, 0.000000000000000000, 1.000000000000000000 ) ) ;
#748 = CARTESIAN_POINT ( 'NONE',  ( 1.990157480314959981, 2.076771653543306950, 0.1499999999999999944 ) ) ;
#749 = CARTESIAN_POINT ( 'NONE',  ( 2.362204724409448175, -2.362204724409448620, 0.000000000000000000 ) ) ;
#750 = ORIENTED_EDGE ( 'NONE', *, *, #692, .F. ) ;
#751 = PERSON_AND_ORGANIZATION_ROLE ( 'design_owner' ) ;
#752 = CARTESIAN_POINT ( 'NONE',  ( -1.870078740157480990, -1.870078740157480990, 0.000000000000000000 ) ) ;
#753 = VECTOR ( 'NONE', #627, 39.37007874015748143 ) ;
#754 = CC_DESIGN_PERSON_AND_ORGANIZATION_ASSIGNMENT ( #403, #183, ( #702 ) ) ;
#755 = CARTESIAN_POINT ( 'NONE',  ( -2.362204724409449508, 1.870078740157480324, 0.1499999999999999944 ) ) ;
#756 = ORIENTED_EDGE ( 'NONE', *, *, #457, .T. ) ;
#757 = EDGE_CURVE ( 'NONE', #460, #414, #348, .T. ) ;
#758 = DATE_TIME_ROLE ( 'creation_date' ) ;
#759 = PLANE ( 'NONE',  #268 ) ;
#760 =( GEOMETRIC_REPRESENTATION_CONTEXT ( 3 ) GLOBAL_UNCERTAINTY_ASSIGNED_CONTEXT ( ( #832 ) ) GLOBAL_UNIT_ASSIGNED_CONTEXT ( ( #835, #688, #191 ) ) REPRESENTATION_CONTEXT ( 'NONE', 'WORKASPACE' ) );
#761 = ORIENTED_EDGE ( 'NONE', *, *, #684, .T. ) ;
#762 = APPROVAL_STATUS ( 'not_yet_approved' ) ;
#763 = DIRECTION ( 'NONE',  ( 1.460819769243627131E-16, -1.000000000000000000, 0.000000000000000000 ) ) ;
#764 = ORIENTED_EDGE ( 'NONE', *, *, #457, .F. ) ;
#765 = VECTOR ( 'NONE', #494, 39.37007874015748143 ) ;
#766 = AXIS2_PLACEMENT_3D ( 'NONE', #520, #159, #243 ) ;
#767 = PERSON_AND_ORGANIZATION ( #306, #74 ) ;
#768 = ORIENTED_EDGE ( 'NONE', *, *, #700, .T. ) ;
#769 = CARTESIAN_POINT ( 'NONE',  ( 2.362204724409448175, 1.870078740157480324, 0.000000000000000000 ) ) ;
#770 = CC_DESIGN_PERSON_AND_ORGANIZATION_ASSIGNMENT ( #856, #270, ( #567 ) ) ;
#771 = EDGE_CURVE ( 'NONE', #264, #529, #440, .T. ) ;
#772 = ORIENTED_EDGE ( 'NONE', *, *, #152, .F. ) ;
#773 = CARTESIAN_POINT ( 'NONE',  ( 3.362204724409448175, -1.870078740157480324, 0.000000000000000000 ) ) ;
#774 = CARTESIAN_POINT ( 'NONE',  ( 1.870078740157479658, 1.870078740157480324, 0.1499999999999999944 ) ) ;
#775 = EDGE_CURVE ( 'NONE', #469, #365, #86, .T. ) ;
#776 = VERTEX_POINT ( 'NONE', #162 ) ;
#777 = DIRECTION ( 'NONE',  ( 0.000000000000000000, 0.000000000000000000, 1.000000000000000000 ) ) ;
#778 = ORIENTED_EDGE ( 'NONE', *, *, #650, .T. ) ;
#779 = CYLINDRICAL_SURFACE ( 'NONE', #714, 0.08661417322834648325 ) ;
#780 = CARTESIAN_POINT ( 'NONE',  ( -2.362204724409449508, -2.362204724409448620, 0.1499999999999999944 ) ) ;
#781 = APPROVAL_STATUS ( 'not_yet_approved' ) ;
#782 = EDGE_CURVE ( 'NONE', #190, #70, #236, .T. ) ;
#783 = EDGE_LOOP ( 'NONE', ( #658, #361, #761, #85 ) ) ;
#784 = CARTESIAN_POINT ( 'NONE',  ( -2.163385826771654141, 2.076771653543306950, 0.000000000000000000 ) ) ;
#785 = DIRECTION ( 'NONE',  ( 1.000000000000000000, 0.000000000000000000, 0.000000000000000000 ) ) ;
#786 = DATE_AND_TIME ( #633, #646 ) ;
#787 = EDGE_LOOP ( 'NONE', ( #46, #299, #693, #652 ) ) ;
#788 = DIRECTION ( 'NONE',  ( -1.000000000000000000, 0.000000000000000000, 0.000000000000000000 ) ) ;
#789 = CARTESIAN_POINT ( 'NONE',  ( -2.076771653543307838, -2.076771653543307394, 0.000000000000000000 ) ) ;
#790 = CARTESIAN_POINT ( 'NONE',  ( 1.870078740157479658, -1.870078740157480324, 0.1499999999999999944 ) ) ;
#791 = APPROVAL_DATE_TIME ( #413, #347 ) ;
#792 = ORIENTED_EDGE ( 'NONE', *, *, #650, .F. ) ;
#793 = CARTESIAN_POINT ( 'NONE',  ( -3.362204724409449064, -2.362204724409448620, 0.1499999999999999944 ) ) ;
#794 = AXIS2_PLACEMENT_3D ( 'NONE', #592, #240, #651 ) ;
#795 = ADVANCED_FACE ( 'NONE', ( #895 ), #741, .T. ) ;
#796 = CARTESIAN_POINT ( 'NONE',  ( -3.362204724409449064, -2.362204724409448620, 0.000000000000000000 ) ) ;
#797 = ORIENTED_EDGE ( 'NONE', *, *, #775, .F. ) ;
#798 = CARTESIAN_POINT ( 'NONE',  ( 2.076771653543306506, 2.076771653543306950, 0.000000000000000000 ) ) ;
#799 = VECTOR ( 'NONE', #118, 39.37007874015748143 ) ;
#800 = EDGE_CURVE ( 'NONE', #161, #480, #455, .T. ) ;
#801 = CARTESIAN_POINT ( 'NONE',  ( -3.362204724409449064, 2.362204724409448620, 0.000000000000000000 ) ) ;
#802 = ADVANCED_FACE ( 'NONE', ( #729 ), #20, .T. ) ;
#803 = VERTEX_POINT ( 'NONE', #300 ) ;
#804 = DIRECTION ( 'NONE',  ( -1.000000000000000000, -1.460819769243627131E-16, 0.000000000000000000 ) ) ;
#805 = PLANE ( 'NONE',  #499 ) ;
#806 = ORIENTED_EDGE ( 'NONE', *, *, #332, .F. ) ;
#807 = FACE_OUTER_BOUND ( 'NONE', #11, .T. ) ;
#808 = PLANE ( 'NONE',  #766 ) ;
#809 = VECTOR ( 'NONE', #89, 39.37007874015748143 ) ;
#810 = CARTESIAN_POINT ( 'NONE',  ( -2.076771653543307838, 2.076771653543306950, 0.000000000000000000 ) ) ;
#811 = ORIENTED_EDGE ( 'NONE', *, *, #844, .F. ) ;
#812 = CARTESIAN_POINT ( 'NONE',  ( -1.870078740157481212, 1.870078740157479880, 0.1499999999999999944 ) ) ;
#813 = ADVANCED_FACE ( 'NONE', ( #807 ), #580, .F. ) ;
#814 = FACE_OUTER_BOUND ( 'NONE', #685, .T. ) ;
#815 = VECTOR ( 'NONE', #71, 39.37007874015748143 ) ;
#816 = DIRECTION ( 'NONE',  ( -0.000000000000000000, -1.000000000000000000, -0.000000000000000000 ) ) ;
#817 = ORIENTED_EDGE ( 'NONE', *, *, #662, .F. ) ;
#818 = CARTESIAN_POINT ( 'NONE',  ( -2.362204724409449508, 2.362204724409448620, 0.1499999999999999944 ) ) ;
#819 = CARTESIAN_POINT ( 'NONE',  ( 2.076771653543306506, 2.076771653543306950, 0.1499999999999999944 ) ) ;
#820 = AXIS2_PLACEMENT_3D ( 'NONE', #713, #205, #51 ) ;
#821 = AXIS2_PLACEMENT_3D ( 'NONE', #798, #659, #673 ) ;
#822 = CARTESIAN_POINT ( 'NONE',  ( -2.362204724409449508, -2.362204724409448620, 0.1499999999999999944 ) ) ;
#823 = ORIENTED_EDGE ( 'NONE', *, *, #826, .F. ) ;
#824 = FACE_OUTER_BOUND ( 'NONE', #728, .T. ) ;
#825 = DIRECTION ( 'NONE',  ( -0.000000000000000000, -0.000000000000000000, -1.000000000000000000 ) ) ;
#826 = EDGE_CURVE ( 'NONE', #179, #604, #310, .T. ) ;
#827 = CARTESIAN_POINT ( 'NONE',  ( 3.362204724409448175, -1.870078740157480324, 0.000000000000000000 ) ) ;
#828 = CIRCLE ( 'NONE', #886, 0.08661417322834648325 ) ;
#829 = ORIENTED_EDGE ( 'NONE', *, *, #90, .T. ) ;
#830 = DIRECTION ( 'NONE',  ( 7.304098846218135653E-17, -1.000000000000000000, -0.000000000000000000 ) ) ;
#831 = DIRECTION ( 'NONE',  ( -0.000000000000000000, -0.000000000000000000, -1.000000000000000000 ) ) ;
#832 = UNCERTAINTY_MEASURE_WITH_UNIT (LENGTH_MEASURE( 1.000000000000000082E-05 ), #835, 'distance_accuracy_value', 'NONE');
#833 = AXIS2_PLACEMENT_3D ( 'NONE', #374, #825, #636 ) ;
#834 = ORIENTED_EDGE ( 'NONE', *, *, #897, .T. ) ;
#835 =( CONVERSION_BASED_UNIT ( 'INCH', #42 ) LENGTH_UNIT ( ) NAMED_UNIT ( #912 ) );
#836 = DIRECTION ( 'NONE',  ( 1.000000000000000000, 0.000000000000000000, 0.000000000000000000 ) ) ;
#837 = CIRCLE ( 'NONE', #880, 0.08661417322834648325 ) ;
#838 = ORIENTED_EDGE ( 'NONE', *, *, #152, .T. ) ;
#839 = DIRECTION ( 'NONE',  ( 1.000000000000000000, 0.000000000000000000, 0.000000000000000000 ) ) ;
#840 = LINE ( 'NONE', #37, #689 ) ;
#841 = ORIENTED_EDGE ( 'NONE', *, *, #220, .F. ) ;
#842 = CIRCLE ( 'NONE', #624, 0.08661417322834648325 ) ;
#843 = CARTESIAN_POINT ( 'NONE',  ( 2.163385826771652809, 2.076771653543306950, 0.1499999999999999944 ) ) ;
#844 = EDGE_CURVE ( 'NONE', #414, #460, #614, .T. ) ;
#845 = VECTOR ( 'NONE', #362, 39.37007874015748143 ) ;
#846 = CIRCLE ( 'NONE', #131, 0.08661417322834648325 ) ;
#847 = ORIENTED_EDGE ( 'NONE', *, *, #727, .T. ) ;
#848 = VERTEX_POINT ( 'NONE', #519 ) ;
#849 = DIRECTION ( 'NONE',  ( 0.000000000000000000, -0.000000000000000000, -1.000000000000000000 ) ) ;
#850 = ORIENTED_EDGE ( 'NONE', *, *, #360, .F. ) ;
#851 = SECURITY_CLASSIFICATION_LEVEL ( 'unclassified' ) ;
#852 = ORIENTED_EDGE ( 'NONE', *, *, #873, .T. ) ;
#853 = DIRECTION ( 'NONE',  ( 0.000000000000000000, 1.000000000000000000, 0.000000000000000000 ) ) ;
#854 = EDGE_CURVE ( 'NONE', #518, #334, #227, .T. ) ;
#855 = FACE_OUTER_BOUND ( 'NONE', #186, .T. ) ;
#856 = PERSON_AND_ORGANIZATION ( #306, #74 ) ;
#857 = CC_DESIGN_PERSON_AND_ORGANIZATION_ASSIGNMENT ( #426, #929, ( #453 ) ) ;
#858 = DIRECTION ( 'NONE',  ( -1.000000000000000000, 0.000000000000000000, 0.000000000000000000 ) ) ;
#859 = CARTESIAN_POINT ( 'NONE',  ( 2.076771653543306506, 2.076771653543306950, 0.1499999999999999944 ) ) ;
#860 = ORIENTED_EDGE ( 'NONE', *, *, #743, .T. ) ;
#861 = CARTESIAN_POINT ( 'NONE',  ( 3.362204724409448175, -2.362204724409448620, 0.000000000000000000 ) ) ;
#862 = CARTESIAN_POINT ( 'NONE',  ( -2.362204724409449508, 1.870078740157480324, 0.1499999999999999944 ) ) ;
#863 = LINE ( 'NONE', #76, #765 ) ;
#864 = CIRCLE ( 'NONE', #820, 0.08661417322834648325 ) ;
#865 = ORIENTED_EDGE ( 'NONE', *, *, #475, .T. ) ;
#866 = CC_DESIGN_APPROVAL ( #215, ( #702 ) ) ;
#867 = CARTESIAN_POINT ( 'NONE',  ( 3.362204724409448175, 2.362204724409448620, 0.1499999999999999944 ) ) ;
#868 = EDGE_CURVE ( 'NONE', #730, #394, #837, .T. ) ;
#869 = DIRECTION ( 'NONE',  ( 0.000000000000000000, -0.000000000000000000, -1.000000000000000000 ) ) ;
#870 = CARTESIAN_POINT ( 'NONE',  ( -3.362204724409449064, -1.870078740157480324, 0.1499999999999999944 ) ) ;
#871 = VERTEX_POINT ( 'NONE', #296 ) ;
#872 = CARTESIAN_POINT ( 'NONE',  ( -2.362204724409449508, -1.870078740157480324, 0.000000000000000000 ) ) ;
#873 = EDGE_CURVE ( 'NONE', #389, #70, #595, .T. ) ;
#874 = LINE ( 'NONE', #801, #476 ) ;
#875 = ORIENTED_EDGE ( 'NONE', *, *, #32, .T. ) ;
#876 = DIRECTION ( 'NONE',  ( -0.000000000000000000, -0.000000000000000000, -1.000000000000000000 ) ) ;
#877 = DIRECTION ( 'NONE',  ( -0.000000000000000000, 1.000000000000000000, -0.000000000000000000 ) ) ;
#878 = ORIENTED_EDGE ( 'NONE', *, *, #458, .F. ) ;
#879 = DIRECTION ( 'NONE',  ( 1.000000000000000000, 0.000000000000000000, 0.000000000000000000 ) ) ;
#880 = AXIS2_PLACEMENT_3D ( 'NONE', #883, #27, #150 ) ;
#881 = DIRECTION ( 'NONE',  ( 0.000000000000000000, 0.000000000000000000, 1.000000000000000000 ) ) ;
#882 = VERTEX_POINT ( 'NONE', #75 ) ;
#883 = CARTESIAN_POINT ( 'NONE',  ( -2.076771653543307838, -2.076771653543307394, 0.1499999999999999944 ) ) ;
#884 = DIRECTION ( 'NONE',  ( 0.000000000000000000, 0.000000000000000000, 1.000000000000000000 ) ) ;
#885 = AXIS2_PLACEMENT_3D ( 'NONE', #425, #211, #132 ) ;
#886 = AXIS2_PLACEMENT_3D ( 'NONE', #451, #210, #456 ) ;
#887 = CARTESIAN_POINT ( 'NONE',  ( 3.362204724409448175, 2.362204724409448620, 0.000000000000000000 ) ) ;
#888 = EDGE_LOOP ( 'NONE', ( #682, #81, #909, #501 ) ) ;
#889 = DIRECTION ( 'NONE',  ( 0.000000000000000000, 1.000000000000000000, 0.000000000000000000 ) ) ;
#890 = CARTESIAN_POINT ( 'NONE',  ( 1.870078740157479658, 1.870078740157480324, 0.000000000000000000 ) ) ;
#891 = VECTOR ( 'NONE', #831, 39.37007874015748143 ) ;
#892 = VECTOR ( 'NONE', #719, 39.37007874015748143 ) ;
#893 = DIRECTION ( 'NONE',  ( 0.000000000000000000, 0.000000000000000000, -1.000000000000000000 ) ) ;
#894 = ORIENTED_EDGE ( 'NONE', *, *, #171, .F. ) ;
#895 = FACE_OUTER_BOUND ( 'NONE', #783, .T. ) ;
#896 = LINE ( 'NONE', #318, #146 ) ;
#897 = EDGE_CURVE ( 'NONE', #690, #469, #506, .T. ) ;
#898 = FACE_OUTER_BOUND ( 'NONE', #484, .T. ) ;
#899 = ORIENTED_EDGE ( 'NONE', *, *, #525, .T. ) ;
#900 = CALENDAR_DATE ( 2025, 8, 5 ) ;
#901 = EDGE_CURVE ( 'NONE', #245, #190, #39, .T. ) ;
#902 = DIRECTION ( 'NONE',  ( 0.000000000000000000, 0.000000000000000000, 1.000000000000000000 ) ) ;
#903 = EDGE_CURVE ( 'NONE', #408, #871, #242, .T. ) ;
#904 = CARTESIAN_POINT ( 'NONE',  ( 3.362204724409448175, 1.870078740157480324, 0.000000000000000000 ) ) ;
#905 = AXIS2_PLACEMENT_3D ( 'NONE', #643, #58, #928 ) ;
#906 = VERTEX_POINT ( 'NONE', #915 ) ;
#907 = APPROVAL_STATUS ( 'not_yet_approved' ) ;
#908 = PLANE ( 'NONE',  #517 ) ;
#909 = ORIENTED_EDGE ( 'NONE', *, *, #121, .F. ) ;
#910 = COORDINATED_UNIVERSAL_TIME_OFFSET ( 5, 0, .BEHIND. ) ;
#911 = LINE ( 'NONE', #335, #237 ) ;
#912 = DIMENSIONAL_EXPONENTS ( 1.000000000000000000, 0.000000000000000000, 0.000000000000000000, 0.000000000000000000, 0.000000000000000000, 0.000000000000000000, 0.000000000000000000 ) ;
#913 = VERTEX_POINT ( 'NONE', #773 ) ;
#914 = EDGE_CURVE ( 'NONE', #529, #334, #391, .T. ) ;
#915 = CARTESIAN_POINT ( 'NONE',  ( 2.163385826771652809, 2.076771653543306950, 0.1499999999999999944 ) ) ;
#916 = APPLICATION_CONTEXT ( 'configuration controlled 3d designs of mechanical parts and assemblies' ) ;
#917 = CARTESIAN_POINT ( 'NONE',  ( -2.362204724409449508, 1.870078740157480102, 0.000000000000000000 ) ) ;
#918 = ORIENTED_EDGE ( 'NONE', *, *, #608, .F. ) ;
#919 = VECTOR ( 'NONE', #486, 39.37007874015748143 ) ;
#920 = ORIENTED_EDGE ( 'NONE', *, *, #621, .F. ) ;
#921 = CARTESIAN_POINT ( 'NONE',  ( -3.362204724409449064, 2.362204724409448620, 0.1499999999999999944 ) ) ;
#922 = VECTOR ( 'NONE', #742, 39.37007874015748143 ) ;
#923 = EDGE_LOOP ( 'NONE', ( #99, #756 ) ) ;
#924 = CARTESIAN_POINT ( 'NONE',  ( -2.362204724409449508, -2.362204724409448620, 0.000000000000000000 ) ) ;
#925 = ADVANCED_FACE ( 'NONE', ( #824 ), #400, .T. ) ;
#926 = DIRECTION ( 'NONE',  ( 0.000000000000000000, 0.000000000000000000, 1.000000000000000000 ) ) ;
#927 = FACE_OUTER_BOUND ( 'NONE', #532, .T. ) ;
#928 = DIRECTION ( 'NONE',  ( -0.000000000000000000, 0.000000000000000000, -1.000000000000000000 ) ) ;
#929 = PERSON_AND_ORGANIZATION_ROLE ( 'design_supplier' ) ;
#930 = VERTEX_POINT ( 'NONE', #395 ) ;
#931 = VECTOR ( 'NONE', #526, 39.37007874015748143 ) ;
#932 = FACE_BOUND ( 'NONE', #216, .T. ) ;
#933 = LINE ( 'NONE', #562, #218 ) ;
#934 = DIRECTION ( 'NONE',  ( 1.000000000000000000, 0.000000000000000000, 0.000000000000000000 ) ) ;
#935 = ORIENTED_EDGE ( 'NONE', *, *, #826, .T. ) ;
#936 = DIRECTION ( 'NONE',  ( -1.000000000000000000, 0.000000000000000000, 0.000000000000000000 ) ) ;
ENDSEC;
END-ISO-10303-21;
