ISO-10303-21;
HEADER;
FILE_DESCRIPTION (( 'STEP AP203' ),
    '1' );
FILE_NAME ('MagJackPlate.STEP',
    '2025-06-18T15:13:18',
    ( '' ),
    ( '' ),
    'SwSTEP 2.0',
    'SolidWorks 2024',
    '' );
FILE_SCHEMA (( 'CONFIG_CONTROL_DESIGN' ));
ENDSEC;

DATA;
#1 = DIRECTION ( 'NONE',  ( -0.000000000000000000, -0.000000000000000000, -1.000000000000000000 ) ) ;
#2 = ORIENTED_EDGE ( 'NONE', *, *, #201, .T. ) ;
#3 = CARTESIAN_POINT ( 'NONE',  ( 0.000000000000000000, -4.800056306102291614, 4.000000000000000000 ) ) ;
#4 = EDGE_CURVE ( 'NONE', #897, #506, #5, .T. ) ;
#5 = LINE ( 'NONE', #995, #890 ) ;
#6 = AXIS2_PLACEMENT_3D ( 'NONE', #559, #739, #621 ) ;
#7 = VECTOR ( 'NONE', #207, 1000.000000000000000 ) ;
#8 = LINE ( 'NONE', #433, #168 ) ;
#9 = VECTOR ( 'NONE', #998, 1000.000000000000000 ) ;
#10 = CARTESIAN_POINT ( 'NONE',  ( -8.439999999999997726, -4.800056306102291614, -5.640020000000000699 ) ) ;
#11 = AXIS2_PLACEMENT_3D ( 'NONE', #271, #990, #729 ) ;
#12 = ORIENTED_EDGE ( 'NONE', *, *, #496, .F. ) ;
#13 = LINE ( 'NONE', #196, #879 ) ;
#14 = DIRECTION ( 'NONE',  ( -0.000000000000000000, -0.000000000000000000, 1.000000000000000000 ) ) ;
#15 = ORIENTED_EDGE ( 'NONE', *, *, #1099, .F. ) ;
#16 = EDGE_LOOP ( 'NONE', ( #863, #1068, #434, #788 ) ) ;
#17 = ORIENTED_EDGE ( 'NONE', *, *, #105, .F. ) ;
#18 = LINE ( 'NONE', #735, #26 ) ;
#19 = VERTEX_POINT ( 'NONE', #812 ) ;
#20 = ADVANCED_FACE ( 'NONE', ( #198 ), #877, .T. ) ;
#21 = DIRECTION ( 'NONE',  ( 0.000000000000000000, 0.000000000000000000, -1.000000000000000000 ) ) ;
#22 = DIRECTION ( 'NONE',  ( 1.000000000000000000, 0.000000000000000000, -0.000000000000000000 ) ) ;
#23 = FACE_BOUND ( 'NONE', #299, .T. ) ;
#24 = DIRECTION ( 'NONE',  ( 0.000000000000000000, -0.000000000000000000, 1.000000000000000000 ) ) ;
#25 = ORIENTED_EDGE ( 'NONE', *, *, #68, .F. ) ;
#26 = VECTOR ( 'NONE', #665, 1000.000000000000000 ) ;
#27 = SECURITY_CLASSIFICATION ( '', '', #236 ) ;
#28 = LINE ( 'NONE', #975, #580 ) ;
#29 = CARTESIAN_POINT ( 'NONE',  ( -11.49999999999999645, -24.99999999999999289, 4.000000000000000000 ) ) ;
#30 = ORIENTED_EDGE ( 'NONE', *, *, #1105, .F. ) ;
#31 = ORIENTED_EDGE ( 'NONE', *, *, #965, .F. ) ;
#32 = EDGE_CURVE ( 'NONE', #613, #19, #1055, .T. ) ;
#33 = ORIENTED_EDGE ( 'NONE', *, *, #909, .T. ) ;
#34 = LINE ( 'NONE', #1082, #213 ) ;
#35 = CYLINDRICAL_SURFACE ( 'NONE', #375, 2.125000000000001332 ) ;
#36 = DIRECTION ( 'NONE',  ( 0.000000000000000000, 1.000000000000000000, -0.000000000000000000 ) ) ;
#37 = VERTEX_POINT ( 'NONE', #96 ) ;
#38 = LINE ( 'NONE', #370, #547 ) ;
#39 = ORIENTED_EDGE ( 'NONE', *, *, #51, .T. ) ;
#40 = DIRECTION ( 'NONE',  ( 1.000000000000000000, 0.000000000000000000, 0.000000000000000000 ) ) ;
#41 = PLANE ( 'NONE',  #489 ) ;
#42 = PRODUCT_RELATED_PRODUCT_CATEGORY ( 'detail', '', ( #46 ) ) ;
#43 = ORIENTED_EDGE ( 'NONE', *, *, #290, .T. ) ;
#44 = ORIENTED_EDGE ( 'NONE', *, *, #473, .T. ) ;
#45 = VECTOR ( 'NONE', #737, 1000.000000000000000 ) ;
#46 = PRODUCT ( 'MagJackPlate', 'MagJackPlate', '', ( #484 ) ) ;
#47 = ORIENTED_EDGE ( 'NONE', *, *, #201, .F. ) ;
#48 = APPROVAL_PERSON_ORGANIZATION ( #315, #662, #148 ) ;
#49 = AXIS2_PLACEMENT_3D ( 'NONE', #915, #572, #918 ) ;
#50 = CARTESIAN_POINT ( 'NONE',  ( 11.50000000000000355, -5.200056306102291970, -7.640020000000000699 ) ) ;
#51 = EDGE_CURVE ( 'NONE', #194, #136, #451, .T. ) ;
#52 = APPROVAL_DATE_TIME ( #666, #1040 ) ;
#53 = LINE ( 'NONE', #656, #399 ) ;
#54 = ORIENTED_EDGE ( 'NONE', *, *, #417, .T. ) ;
#55 = EDGE_CURVE ( 'NONE', #326, #805, #231, .T. ) ;
#56 = LINE ( 'NONE', #759, #1066 ) ;
#57 = APPROVAL_DATE_TIME ( #931, #562 ) ;
#58 = CARTESIAN_POINT ( 'NONE',  ( -2.125000000000000444, 20.00000000000000711, 0.000000000000000000 ) ) ;
#59 = ORIENTED_EDGE ( 'NONE', *, *, #130, .F. ) ;
#60 = CALENDAR_DATE ( 2025, 18, 6 ) ;
#61 = ADVANCED_FACE ( 'NONE', ( #894 ), #555, .F. ) ;
#62 = CARTESIAN_POINT ( 'NONE',  ( 11.50000000000000355, -5.200056306102291970, -5.640020000000000699 ) ) ;
#63 = FACE_OUTER_BOUND ( 'NONE', #945, .T. ) ;
#64 = ORIENTED_EDGE ( 'NONE', *, *, #841, .F. ) ;
#65 = CIRCLE ( 'NONE', #856, 2.125000000000001332 ) ;
#66 = CARTESIAN_POINT ( 'NONE',  ( -8.439999999999997726, 8.947424210352387774, 0.000000000000000000 ) ) ;
#67 = COORDINATED_UNIVERSAL_TIME_OFFSET ( 5, 0, .BEHIND. ) ;
#68 = EDGE_CURVE ( 'NONE', #289, #1043, #53, .T. ) ;
#69 = LINE ( 'NONE', #251, #728 ) ;
#70 = CARTESIAN_POINT ( 'NONE',  ( 11.50000000000000355, -5.200056306102291970, -5.640020000000000699 ) ) ;
#71 = CARTESIAN_POINT ( 'NONE',  ( -9.934999999999998721, -5.200056306102291970, -5.640020000000000699 ) ) ;
#72 = CARTESIAN_POINT ( 'NONE',  ( 9.934999999999998721, -4.800056306102291614, -5.640020000000000699 ) ) ;
#73 = ORIENTED_EDGE ( 'NONE', *, *, #441, .F. ) ;
#74 = FACE_OUTER_BOUND ( 'NONE', #350, .T. ) ;
#75 = CC_DESIGN_PERSON_AND_ORGANIZATION_ASSIGNMENT ( #409, #504, ( #27 ) ) ;
#76 = PLANE ( 'NONE',  #97 ) ;
#77 = DIRECTION ( 'NONE',  ( 1.000000000000000000, 0.000000000000000000, -0.000000000000000000 ) ) ;
#78 = VERTEX_POINT ( 'NONE', #1097 ) ;
#79 = LINE ( 'NONE', #860, #211 ) ;
#80 = VECTOR ( 'NONE', #106, 1000.000000000000000 ) ;
#81 = EDGE_CURVE ( 'NONE', #1001, #1093, #307, .T. ) ;
#82 = DIRECTION ( 'NONE',  ( 0.000000000000000000, -1.000000000000000000, 0.000000000000000000 ) ) ;
#83 = PLANE ( 'NONE',  #979 ) ;
#84 = ORIENTED_EDGE ( 'NONE', *, *, #544, .T. ) ;
#85 = ORIENTED_EDGE ( 'NONE', *, *, #353, .F. ) ;
#86 = EDGE_CURVE ( 'NONE', #362, #1004, #578, .T. ) ;
#87 = DIRECTION ( 'NONE',  ( 1.000000000000000000, 0.000000000000000000, -0.000000000000000000 ) ) ;
#88 = DIRECTION ( 'NONE',  ( -0.000000000000000000, -0.000000000000000000, -1.000000000000000000 ) ) ;
#89 = CARTESIAN_POINT ( 'NONE',  ( 9.934999999999998721, -4.800056306102291614, 4.000000000000000000 ) ) ;
#90 = ORIENTED_EDGE ( 'NONE', *, *, #335, .F. ) ;
#91 = CARTESIAN_POINT ( 'NONE',  ( -9.934999999999998721, 0.000000000000000000, 4.000000000000000000 ) ) ;
#92 = CARTESIAN_POINT ( 'NONE',  ( -8.439999999999997726, -2.800056306102291614, -5.640020000000000699 ) ) ;
#93 = CARTESIAN_POINT ( 'NONE',  ( 8.439999999999997726, 0.000000000000000000, 4.000000000000000000 ) ) ;
#94 = ORIENTED_EDGE ( 'NONE', *, *, #948, .T. ) ;
#95 = CARTESIAN_POINT ( 'NONE',  ( 8.439999999999997726, -4.800056306102291614, -5.640020000000000699 ) ) ;
#96 = CARTESIAN_POINT ( 'NONE',  ( 2.125000000000001332, -19.99999999999999289, 0.000000000000000000 ) ) ;
#97 = AXIS2_PLACEMENT_3D ( 'NONE', #446, #779, #862 ) ;
#98 = ORIENTED_EDGE ( 'NONE', *, *, #642, .T. ) ;
#99 = VECTOR ( 'NONE', #88, 1000.000000000000000 ) ;
#100 = AXIS2_PLACEMENT_3D ( 'NONE', #513, #165, #334 ) ;
#101 = PLANE ( 'NONE',  #584 ) ;
#102 = LOCAL_TIME ( 11, 13, 18.00000000000000000, #576 ) ;
#103 = CARTESIAN_POINT ( 'NONE',  ( -11.49999999999999645, -24.99999999999999289, 0.000000000000000000 ) ) ;
#104 = VERTEX_POINT ( 'NONE', #842 ) ;
#105 = EDGE_CURVE ( 'NONE', #613, #1135, #924, .T. ) ;
#106 = DIRECTION ( 'NONE',  ( -0.000000000000000000, -0.000000000000000000, -1.000000000000000000 ) ) ;
#107 = ORIENTED_EDGE ( 'NONE', *, *, #114, .F. ) ;
#108 = DIRECTION ( 'NONE',  ( 1.000000000000000000, 0.000000000000000000, 0.000000000000000000 ) ) ;
#109 = CARTESIAN_POINT ( 'NONE',  ( -2.125000000000001332, -19.99999999999999289, 0.000000000000000000 ) ) ;
#110 = ORIENTED_EDGE ( 'NONE', *, *, #487, .T. ) ;
#111 = DIRECTION ( 'NONE',  ( 1.000000000000000000, 0.000000000000000000, 0.000000000000000000 ) ) ;
#112 = FACE_OUTER_BOUND ( 'NONE', #161, .T. ) ;
#113 = DIRECTION ( 'NONE',  ( 0.000000000000000000, 0.000000000000000000, 1.000000000000000000 ) ) ;
#114 = EDGE_CURVE ( 'NONE', #1019, #1015, #852, .T. ) ;
#115 = DIRECTION ( 'NONE',  ( 0.000000000000000000, 0.000000000000000000, 1.000000000000000000 ) ) ;
#116 = ORIENTED_EDGE ( 'NONE', *, *, #383, .T. ) ;
#117 = LINE ( 'NONE', #95, #1025 ) ;
#118 = LINE ( 'NONE', #650, #840 ) ;
#119 = ORIENTED_EDGE ( 'NONE', *, *, #1081, .T. ) ;
#120 = ORIENTED_EDGE ( 'NONE', *, *, #1110, .F. ) ;
#121 = EDGE_CURVE ( 'NONE', #1001, #374, #143, .T. ) ;
#122 = CIRCLE ( 'NONE', #657, 12.30000000000000071 ) ;
#123 = LOCAL_TIME ( 11, 13, 18.00000000000000000, #400 ) ;
#124 = CARTESIAN_POINT ( 'NONE',  ( -11.49999999999999645, 0.000000000000000000, 0.000000000000000000 ) ) ;
#125 = VECTOR ( 'NONE', #440, 1000.000000000000000 ) ;
#126 = ORIENTED_EDGE ( 'NONE', *, *, #298, .F. ) ;
#127 = FACE_OUTER_BOUND ( 'NONE', #203, .T. ) ;
#128 = EDGE_CURVE ( 'NONE', #136, #429, #477, .T. ) ;
#129 = VERTEX_POINT ( 'NONE', #847 ) ;
#130 = EDGE_CURVE ( 'NONE', #659, #637, #208, .T. ) ;
#131 = PLANE ( 'NONE',  #300 ) ;
#132 = FACE_OUTER_BOUND ( 'NONE', #892, .T. ) ;
#133 = ORIENTED_EDGE ( 'NONE', *, *, #981, .F. ) ;
#134 = EDGE_LOOP ( 'NONE', ( #652, #551, #754, #581 ) ) ;
#135 = ORIENTED_EDGE ( 'NONE', *, *, #341, .T. ) ;
#136 = VERTEX_POINT ( 'NONE', #318 ) ;
#137 = PERSON_AND_ORGANIZATION_ROLE ( 'creator' ) ;
#138 = VECTOR ( 'NONE', #1101, 1000.000000000000000 ) ;
#139 = ADVANCED_FACE ( 'NONE', ( #668 ), #407, .T. ) ;
#140 = DIRECTION ( 'NONE',  ( 1.000000000000000000, 0.000000000000000000, 0.000000000000000000 ) ) ;
#141 = ORIENTED_EDGE ( 'NONE', *, *, #769, .T. ) ;
#142 = CALENDAR_DATE ( 2025, 18, 6 ) ;
#143 = LINE ( 'NONE', #753, #749 ) ;
#144 = ORIENTED_EDGE ( 'NONE', *, *, #941, .F. ) ;
#145 = VERTEX_POINT ( 'NONE', #1014 ) ;
#146 = DIRECTION ( 'NONE',  ( -1.000000000000000000, 0.000000000000000000, 0.000000000000000000 ) ) ;
#147 = EDGE_CURVE ( 'NONE', #641, #659, #214, .T. ) ;
#148 = APPROVAL_ROLE ( '' ) ;
#149 = AXIS2_PLACEMENT_3D ( 'NONE', #640, #543, #625 ) ;
#150 = VECTOR ( 'NONE', #247, 1000.000000000000000 ) ;
#151 = DIRECTION ( 'NONE',  ( -0.000000000000000000, -0.000000000000000000, -1.000000000000000000 ) ) ;
#152 = AXIS2_PLACEMENT_3D ( 'NONE', #976, #186, #279 ) ;
#153 = LINE ( 'NONE', #1048, #428 ) ;
#154 = VECTOR ( 'NONE', #628, 1000.000000000000000 ) ;
#155 = CARTESIAN_POINT ( 'NONE',  ( 8.439999999999995950, -7.170056306102291721, 4.000000000000000000 ) ) ;
#156 = ADVANCED_FACE ( 'NONE', ( #933 ), #495, .F. ) ;
#157 = ORIENTED_EDGE ( 'NONE', *, *, #959, .T. ) ;
#158 = AXIS2_PLACEMENT_3D ( 'NONE', #348, #163, #1118 ) ;
#159 = DIRECTION ( 'NONE',  ( -0.000000000000000000, 0.000000000000000000, 1.000000000000000000 ) ) ;
#160 = DIRECTION ( 'NONE',  ( -0.000000000000000000, 1.000000000000000000, -0.000000000000000000 ) ) ;
#161 = EDGE_LOOP ( 'NONE', ( #59, #482, #882, #895 ) ) ;
#162 = LINE ( 'NONE', #253, #745 ) ;
#163 = DIRECTION ( 'NONE',  ( 0.000000000000000000, -1.000000000000000000, 0.000000000000000000 ) ) ;
#164 = ORIENTED_EDGE ( 'NONE', *, *, #273, .F. ) ;
#165 = DIRECTION ( 'NONE',  ( 0.000000000000000000, 1.000000000000000000, 0.000000000000000000 ) ) ;
#166 = CIRCLE ( 'NONE', #784, 2.125000000000000444 ) ;
#167 = ADVANCED_FACE ( 'NONE', ( #132, #757 ), #481, .F. ) ;
#168 = VECTOR ( 'NONE', #288, 1000.000000000000000 ) ;
#169 = VECTOR ( 'NONE', #1000, 1000.000000000000000 ) ;
#170 = DIRECTION ( 'NONE',  ( 1.000000000000000000, -0.000000000000000000, -0.000000000000000000 ) ) ;
#171 = PLANE ( 'NONE',  #158 ) ;
#172 = VERTEX_POINT ( 'NONE', #591 ) ;
#173 = DIRECTION ( 'NONE',  ( 1.000000000000000000, 0.000000000000000000, 0.000000000000000000 ) ) ;
#174 = LINE ( 'NONE', #871, #259 ) ;
#175 = PLANE ( 'NONE',  #432 ) ;
#176 = ORIENTED_EDGE ( 'NONE', *, *, #604, .F. ) ;
#177 = DIRECTION ( 'NONE',  ( -0.000000000000000000, -0.000000000000000000, -1.000000000000000000 ) ) ;
#178 = ORIENTED_EDGE ( 'NONE', *, *, #283, .T. ) ;
#179 = ORIENTED_EDGE ( 'NONE', *, *, #243, .T. ) ;
#180 = ORIENTED_EDGE ( 'NONE', *, *, #618, .T. ) ;
#181 = CARTESIAN_POINT ( 'NONE',  ( 8.439999999999997726, -4.800056306102291614, 4.000000000000000000 ) ) ;
#182 = EDGE_CURVE ( 'NONE', #19, #423, #79, .T. ) ;
#183 = DIRECTION ( 'NONE',  ( 1.000000000000000000, -0.000000000000000000, -0.000000000000000000 ) ) ;
#184 = EDGE_LOOP ( 'NONE', ( #443, #110 ) ) ;
#185 = LINE ( 'NONE', #832, #857 ) ;
#186 = DIRECTION ( 'NONE',  ( -0.000000000000000000, 0.000000000000000000, 1.000000000000000000 ) ) ;
#187 = VECTOR ( 'NONE', #1076, 1000.000000000000000 ) ;
#188 = APPROVAL_PERSON_ORGANIZATION ( #1010, #562, #1003 ) ;
#189 = AXIS2_PLACEMENT_3D ( 'NONE', #772, #146, #345 ) ;
#190 = VERTEX_POINT ( 'NONE', #789 ) ;
#191 = ADVANCED_FACE ( 'NONE', ( #1037 ), #351, .T. ) ;
#192 = PLANE ( 'NONE',  #1032 ) ;
#193 = AXIS2_PLACEMENT_3D ( 'NONE', #225, #216, #386 ) ;
#194 = VERTEX_POINT ( 'NONE', #1136 ) ;
#195 = ADVANCED_FACE ( 'NONE', ( #252 ), #954, .T. ) ;
#196 = CARTESIAN_POINT ( 'NONE',  ( -8.439999999999997726, 0.000000000000000000, 4.000000000000000000 ) ) ;
#197 = DIRECTION ( 'NONE',  ( -1.000000000000000000, 0.000000000000000000, 0.000000000000000000 ) ) ;
#198 = FACE_OUTER_BOUND ( 'NONE', #744, .T. ) ;
#199 = CARTESIAN_POINT ( 'NONE',  ( -8.439999999999997726, -2.800056306102291614, -5.640020000000000699 ) ) ;
#200 = ORIENTED_EDGE ( 'NONE', *, *, #209, .T. ) ;
#201 = EDGE_CURVE ( 'NONE', #263, #1052, #430, .T. ) ;
#202 = CARTESIAN_POINT ( 'NONE',  ( 11.50000000000000355, -5.200056306102291970, -7.640020000000000699 ) ) ;
#203 = EDGE_LOOP ( 'NONE', ( #240, #1137, #396, #620, #84, #33, #706, #742, #31, #645 ) ) ;
#204 = DIRECTION ( 'NONE',  ( 0.000000000000000000, 0.000000000000000000, 1.000000000000000000 ) ) ;
#205 =( NAMED_UNIT ( * ) PLANE_ANGLE_UNIT ( ) SI_UNIT ( $, .RADIAN. ) );
#206 = DIRECTION ( 'NONE',  ( 0.000000000000000000, -0.000000000000000000, 1.000000000000000000 ) ) ;
#207 = DIRECTION ( 'NONE',  ( -0.000000000000000000, -0.000000000000000000, 1.000000000000000000 ) ) ;
#208 = LINE ( 'NONE', #58, #233 ) ;
#209 = EDGE_CURVE ( 'NONE', #805, #467, #702, .T. ) ;
#210 = VECTOR ( 'NONE', #636, 1000.000000000000000 ) ;
#211 = VECTOR ( 'NONE', #958, 1000.000000000000000 ) ;
#212 = VERTEX_POINT ( 'NONE', #435 ) ;
#213 = VECTOR ( 'NONE', #177, 1000.000000000000000 ) ;
#214 = CIRCLE ( 'NONE', #1016, 2.125000000000000444 ) ;
#215 = CARTESIAN_POINT ( 'NONE',  ( 9.934999999999998721, -7.170056306102291721, -5.640020000000000699 ) ) ;
#216 = DIRECTION ( 'NONE',  ( 0.000000000000000000, 1.000000000000000000, 0.000000000000000000 ) ) ;
#217 = ORIENTED_EDGE ( 'NONE', *, *, #698, .F. ) ;
#218 = ORIENTED_EDGE ( 'NONE', *, *, #1088, .F. ) ;
#219 = DIRECTION ( 'NONE',  ( 1.000000000000000000, 0.000000000000000000, 0.000000000000000000 ) ) ;
#220 = ORIENTED_EDGE ( 'NONE', *, *, #989, .T. ) ;
#221 = CARTESIAN_POINT ( 'NONE',  ( 11.50000000000000355, -24.99999999999999289, 4.000000000000000000 ) ) ;
#222 = ORIENTED_EDGE ( 'NONE', *, *, #909, .F. ) ;
#223 = EDGE_CURVE ( 'NONE', #1043, #1056, #507, .T. ) ;
#224 = VERTEX_POINT ( 'NONE', #1031 ) ;
#225 = CARTESIAN_POINT ( 'NONE',  ( 0.000000000000000000, -7.170056306102291721, 4.000000000000000000 ) ) ;
#226 = VERTEX_POINT ( 'NONE', #864 ) ;
#227 = CALENDAR_DATE ( 2025, 18, 6 ) ;
#228 = VECTOR ( 'NONE', #987, 1000.000000000000000 ) ;
#229 = VECTOR ( 'NONE', #294, 1000.000000000000000 ) ;
#230 = CARTESIAN_POINT ( 'NONE',  ( 11.49999999999999645, -2.800056306102291614, -5.640020000000000699 ) ) ;
#231 = CIRCLE ( 'NONE', #152, 12.30000000000000071 ) ;
#232 = PRODUCT_DEFINITION ( 'UNKNOWN', '', #635, #861 ) ;
#233 = VECTOR ( 'NONE', #313, 1000.000000000000000 ) ;
#234 = ORIENTED_EDGE ( 'NONE', *, *, #769, .F. ) ;
#235 = PLANE ( 'NONE',  #239 ) ;
#236 = SECURITY_CLASSIFICATION_LEVEL ( 'unclassified' ) ;
#237 = ORIENTED_EDGE ( 'NONE', *, *, #686, .F. ) ;
#238 = EDGE_CURVE ( 'NONE', #549, #190, #901, .T. ) ;
#239 = AXIS2_PLACEMENT_3D ( 'NONE', #593, #936, #648 ) ;
#240 = ORIENTED_EDGE ( 'NONE', *, *, #182, .T. ) ;
#241 = LINE ( 'NONE', #602, #150 ) ;
#242 = DIRECTION ( 'NONE',  ( -1.000000000000000000, -0.000000000000000000, -0.000000000000000000 ) ) ;
#243 = EDGE_CURVE ( 'NONE', #145, #362, #1120, .T. ) ;
#244 = VECTOR ( 'NONE', #525, 1000.000000000000000 ) ;
#245 = DIRECTION ( 'NONE',  ( 0.000000000000000000, 1.000000000000000000, -0.000000000000000000 ) ) ;
#246 = ORIENTED_EDGE ( 'NONE', *, *, #290, .F. ) ;
#247 = DIRECTION ( 'NONE',  ( -1.000000000000000000, -0.000000000000000000, -0.000000000000000000 ) ) ;
#248 = VERTEX_POINT ( 'NONE', #328 ) ;
#249 = UNCERTAINTY_MEASURE_WITH_UNIT (LENGTH_MEASURE( 1.000000000000000082E-05 ), #624, 'distance_accuracy_value', 'NONE');
#250 = DIRECTION ( 'NONE',  ( 0.000000000000000000, 1.000000000000000000, -0.000000000000000000 ) ) ;
#251 = CARTESIAN_POINT ( 'NONE',  ( -8.439999999999995950, -7.170056306102291721, -5.640020000000000699 ) ) ;
#252 = FACE_OUTER_BOUND ( 'NONE', #736, .T. ) ;
#253 = CARTESIAN_POINT ( 'NONE',  ( -0.000000000000000000, 25.00000000000000711, 0.000000000000000000 ) ) ;
#254 = ADVANCED_FACE ( 'NONE', ( #74 ), #685, .F. ) ;
#255 = EDGE_LOOP ( 'NONE', ( #2, #512, #684, #64, #622, #274 ) ) ;
#256 = CARTESIAN_POINT ( 'NONE',  ( -11.49999999999999645, -2.800056306102291614, 0.000000000000000000 ) ) ;
#257 = DIRECTION ( 'NONE',  ( -0.000000000000000000, -0.000000000000000000, -1.000000000000000000 ) ) ;
#258 = VERTEX_POINT ( 'NONE', #256 ) ;
#259 = VECTOR ( 'NONE', #250, 1000.000000000000000 ) ;
#260 = EDGE_CURVE ( 'NONE', #1064, #287, #241, .T. ) ;
#261 = FACE_OUTER_BOUND ( 'NONE', #705, .T. ) ;
#262 = LINE ( 'NONE', #358, #799 ) ;
#263 = VERTEX_POINT ( 'NONE', #1126 ) ;
#264 = CARTESIAN_POINT ( 'NONE',  ( -11.49999999999999645, -2.800056306102291614, -5.640020000000000699 ) ) ;
#265 = ADVANCED_FACE ( 'NONE', ( #521 ), #1122, .T. ) ;
#266 = ORIENTED_EDGE ( 'NONE', *, *, #1081, .F. ) ;
#267 = CARTESIAN_POINT ( 'NONE',  ( 11.50000000000000355, -9.170056306102292609, -7.640020000000000699 ) ) ;
#268 = DIRECTION ( 'NONE',  ( 0.000000000000000000, 0.000000000000000000, 1.000000000000000000 ) ) ;
#269 = DIRECTION ( 'NONE',  ( 0.000000000000000000, 0.000000000000000000, 1.000000000000000000 ) ) ;
#270 = ORIENTED_EDGE ( 'NONE', *, *, #965, .T. ) ;
#271 = CARTESIAN_POINT ( 'NONE',  ( 0.000000000000000000, 0.000000000000000000, 4.000000000000000000 ) ) ;
#272 = DIRECTION ( 'NONE',  ( 1.000000000000000000, 0.000000000000000000, 0.000000000000000000 ) ) ;
#273 = EDGE_CURVE ( 'NONE', #281, #930, #444, .T. ) ;
#274 = ORIENTED_EDGE ( 'NONE', *, *, #275, .T. ) ;
#275 = EDGE_CURVE ( 'NONE', #362, #263, #153, .T. ) ;
#276 = DIRECTION ( 'NONE',  ( -0.000000000000000000, -0.000000000000000000, 1.000000000000000000 ) ) ;
#277 = ORIENTED_EDGE ( 'NONE', *, *, #431, .T. ) ;
#278 = CARTESIAN_POINT ( 'NONE',  ( 9.934999999999998721, -4.800056306102291614, -5.640020000000000699 ) ) ;
#279 = DIRECTION ( 'NONE',  ( 1.000000000000000000, 0.000000000000000000, 0.000000000000000000 ) ) ;
#280 = VECTOR ( 'NONE', #276, 1000.000000000000000 ) ;
#281 = VERTEX_POINT ( 'NONE', #798 ) ;
#282 = PLANE ( 'NONE',  #149 ) ;
#283 = EDGE_CURVE ( 'NONE', #910, #549, #1053, .T. ) ;
#284 = ORIENTED_EDGE ( 'NONE', *, *, #322, .T. ) ;
#285 = CARTESIAN_POINT ( 'NONE',  ( 11.50000000000000355, -9.170056306102292609, 0.000000000000000000 ) ) ;
#286 = DIRECTION ( 'NONE',  ( 1.000000000000000000, 0.000000000000000000, 0.000000000000000000 ) ) ;
#287 = VERTEX_POINT ( 'NONE', #264 ) ;
#288 = DIRECTION ( 'NONE',  ( 1.000000000000000000, 0.000000000000000000, 0.000000000000000000 ) ) ;
#289 = VERTEX_POINT ( 'NONE', #1026 ) ;
#290 = EDGE_CURVE ( 'NONE', #506, #916, #514, .T. ) ;
#291 = CARTESIAN_POINT ( 'NONE',  ( -8.439999999999997726, -4.800056306102291614, -5.640020000000000699 ) ) ;
#292 = ORIENTED_EDGE ( 'NONE', *, *, #642, .F. ) ;
#293 = ORIENTED_EDGE ( 'NONE', *, *, #899, .F. ) ;
#294 = DIRECTION ( 'NONE',  ( 0.000000000000000000, 1.000000000000000000, -0.000000000000000000 ) ) ;
#295 = DIRECTION ( 'NONE',  ( 0.000000000000000000, 1.000000000000000000, -0.000000000000000000 ) ) ;
#296 = CYLINDRICAL_SURFACE ( 'NONE', #692, 2.125000000000000444 ) ;
#297 = ORIENTED_EDGE ( 'NONE', *, *, #392, .F. ) ;
#298 = EDGE_CURVE ( 'NONE', #1015, #224, #498, .T. ) ;
#299 = EDGE_LOOP ( 'NONE', ( #647, #920, #456, #378, #844, #1074, #471, #633, #977, #445, #963, #164 ) ) ;
#300 = AXIS2_PLACEMENT_3D ( 'NONE', #770, #672, #317 ) ;
#301 = AXIS2_PLACEMENT_3D ( 'NONE', #347, #609, #529 ) ;
#302 = AXIS2_PLACEMENT_3D ( 'NONE', #782, #794, #689 ) ;
#303 = AXIS2_PLACEMENT_3D ( 'NONE', #724, #113, #464 ) ;
#304 = VERTEX_POINT ( 'NONE', #598 ) ;
#305 = LINE ( 'NONE', #780, #661 ) ;
#306 = CARTESIAN_POINT ( 'NONE',  ( 0.000000000000000000, 0.000000000000000000, -5.640020000000000699 ) ) ;
#307 = LINE ( 'NONE', #1005, #169 ) ;
#308 = ORIENTED_EDGE ( 'NONE', *, *, #811, .F. ) ;
#309 = EDGE_CURVE ( 'NONE', #930, #452, #56, .T. ) ;
#310 = APPROVAL_STATUS ( 'not_yet_approved' ) ;
#311 = CARTESIAN_POINT ( 'NONE',  ( -8.439999999999997726, -2.800056306102291614, 0.000000000000000000 ) ) ;
#312 = PRODUCT_DEFINITION_SHAPE ( 'NONE', 'NONE',  #232 ) ;
#313 = DIRECTION ( 'NONE',  ( -0.000000000000000000, -0.000000000000000000, 1.000000000000000000 ) ) ;
#314 = ORIENTED_EDGE ( 'NONE', *, *, #830, .T. ) ;
#315 = PERSON_AND_ORGANIZATION ( #1038, #617 ) ;
#316 = ADVANCED_FACE ( 'NONE', ( #676 ), #235, .F. ) ;
#317 = DIRECTION ( 'NONE',  ( 0.000000000000000000, -0.000000000000000000, 1.000000000000000000 ) ) ;
#318 = CARTESIAN_POINT ( 'NONE',  ( 8.439999999999997726, -2.800056306102291614, -5.640020000000000699 ) ) ;
#319 = VECTOR ( 'NONE', #678, 1000.000000000000000 ) ;
#320 = APPROVAL_PERSON_ORGANIZATION ( #414, #1040, #499 ) ;
#321 = CARTESIAN_POINT ( 'NONE',  ( 8.439999999999995950, 0.000000000000000000, 4.000000000000000000 ) ) ;
#322 = EDGE_CURVE ( 'NONE', #813, #423, #28, .T. ) ;
#323 = VERTEX_POINT ( 'NONE', #538 ) ;
#324 = ORIENTED_EDGE ( 'NONE', *, *, #275, .F. ) ;
#325 = CARTESIAN_POINT ( 'NONE',  ( -9.934999999999998721, -7.170056306102291721, -5.640020000000000699 ) ) ;
#326 = VERTEX_POINT ( 'NONE', #969 ) ;
#327 = ADVANCED_FACE ( 'NONE', ( #983 ), #366, .T. ) ;
#328 = CARTESIAN_POINT ( 'NONE',  ( 2.125000000000000444, 20.00000000000000711, 4.000000000000000000 ) ) ;
#329 = EDGE_CURVE ( 'NONE', #281, #172, #13, .T. ) ;
#330 = LINE ( 'NONE', #851, #1113 ) ;
#331 = VECTOR ( 'NONE', #242, 1000.000000000000000 ) ;
#332 = DIRECTION ( 'NONE',  ( 0.000000000000000000, 1.000000000000000000, 0.000000000000000000 ) ) ;
#333 = VERTEX_POINT ( 'NONE', #553 ) ;
#334 = DIRECTION ( 'NONE',  ( 0.000000000000000000, -0.000000000000000000, 1.000000000000000000 ) ) ;
#335 = EDGE_CURVE ( 'NONE', #333, #212, #117, .T. ) ;
#336 = VECTOR ( 'NONE', #817, 1000.000000000000000 ) ;
#337 = DIRECTION ( 'NONE',  ( -0.000000000000000000, 1.000000000000000000, -0.000000000000000000 ) ) ;
#338 = DIRECTION ( 'NONE',  ( 0.000000000000000000, 0.000000000000000000, 1.000000000000000000 ) ) ;
#339 = ORIENTED_EDGE ( 'NONE', *, *, #417, .F. ) ;
#340 = ORIENTED_EDGE ( 'NONE', *, *, #51, .F. ) ;
#341 = EDGE_CURVE ( 'NONE', #1006, #145, #906, .T. ) ;
#342 = CARTESIAN_POINT ( 'NONE',  ( -11.49999999999999645, -2.800056306102291614, -5.640020000000000699 ) ) ;
#343 = DIRECTION ( 'NONE',  ( 0.000000000000000000, -1.000000000000000000, 0.000000000000000000 ) ) ;
#344 = ORIENTED_EDGE ( 'NONE', *, *, #604, .T. ) ;
#345 = DIRECTION ( 'NONE',  ( 0.000000000000000000, 0.000000000000000000, 1.000000000000000000 ) ) ;
#346 = DIRECTION ( 'NONE',  ( -0.000000000000000000, 0.000000000000000000, -1.000000000000000000 ) ) ;
#347 = CARTESIAN_POINT ( 'NONE',  ( 0.000000000000000000, -7.170056306102291721, 4.000000000000000000 ) ) ;
#348 = CARTESIAN_POINT ( 'NONE',  ( 8.439999999999995950, -9.170056306102292609, -5.640020000000000699 ) ) ;
#349 = EDGE_CURVE ( 'NONE', #452, #897, #1087, .T. ) ;
#350 = EDGE_LOOP ( 'NONE', ( #485, #902, #721, #361 ) ) ;
#351 = PLANE ( 'NONE',  #189 ) ;
#352 = DIRECTION ( 'NONE',  ( -0.000000000000000000, -0.000000000000000000, -1.000000000000000000 ) ) ;
#353 = EDGE_CURVE ( 'NONE', #637, #248, #568, .T. ) ;
#354 = VECTOR ( 'NONE', #460, 1000.000000000000000 ) ;
#355 = CC_DESIGN_APPROVAL ( #1040, ( #635 ) ) ;
#356 = DIRECTION ( 'NONE',  ( 1.000000000000000000, 0.000000000000000000, -0.000000000000000000 ) ) ;
#357 = CARTESIAN_POINT ( 'NONE',  ( 0.000000000000000000, 0.000000000000000000, 0.000000000000000000 ) ) ;
#358 = CARTESIAN_POINT ( 'NONE',  ( -8.439999999999997726, -4.800056306102291614, 4.000000000000000000 ) ) ;
#359 = ORIENTED_EDGE ( 'NONE', *, *, #630, .F. ) ;
#360 = CARTESIAN_POINT ( 'NONE',  ( 0.000000000000000000, 20.00000000000000711, 4.000000000000000000 ) ) ;
#361 = ORIENTED_EDGE ( 'NONE', *, *, #694, .F. ) ;
#362 = VERTEX_POINT ( 'NONE', #449 ) ;
#363 = LINE ( 'NONE', #466, #472 ) ;
#364 = CARTESIAN_POINT ( 'NONE',  ( -2.125000000000000444, 20.00000000000000711, 0.000000000000000000 ) ) ;
#365 = ORIENTED_EDGE ( 'NONE', *, *, #114, .T. ) ;
#366 = PLANE ( 'NONE',  #388 ) ;
#367 = LINE ( 'NONE', #1083, #823 ) ;
#368 = ORIENTED_EDGE ( 'NONE', *, *, #238, .F. ) ;
#369 = LINE ( 'NONE', #199, #708 ) ;
#370 = CARTESIAN_POINT ( 'NONE',  ( -11.49999999999999645, 0.000000000000000000, 4.000000000000000000 ) ) ;
#371 = LINE ( 'NONE', #896, #354 ) ;
#372 = FACE_BOUND ( 'NONE', #748, .T. ) ;
#373 = LINE ( 'NONE', #202, #7 ) ;
#374 = VERTEX_POINT ( 'NONE', #462 ) ;
#375 = AXIS2_PLACEMENT_3D ( 'NONE', #439, #964, #173 ) ;
#376 = ORIENTED_EDGE ( 'NONE', *, *, #878, .F. ) ;
#377 = ADVANCED_FACE ( 'NONE', ( #23, #824, #372, #734 ), #379, .T. ) ;
#378 = ORIENTED_EDGE ( 'NONE', *, *, #81, .T. ) ;
#379 = PLANE ( 'NONE',  #11 ) ;
#380 = DIRECTION ( 'NONE',  ( 0.000000000000000000, 0.000000000000000000, 1.000000000000000000 ) ) ;
#381 = CARTESIAN_POINT ( 'NONE',  ( -8.439999999999995950, 0.000000000000000000, 4.000000000000000000 ) ) ;
#382 = ORIENTED_EDGE ( 'NONE', *, *, #1027, .T. ) ;
#383 = EDGE_CURVE ( 'NONE', #908, #78, #34, .T. ) ;
#384 = CARTESIAN_POINT ( 'NONE',  ( 8.439999999999997726, 8.947424210352387774, 4.000000000000000000 ) ) ;
#385 = CARTESIAN_POINT ( 'NONE',  ( 11.50000000000000355, 0.000000000000000000, 4.000000000000000000 ) ) ;
#386 = DIRECTION ( 'NONE',  ( 0.000000000000000000, -0.000000000000000000, 1.000000000000000000 ) ) ;
#387 = ORIENTED_EDGE ( 'NONE', *, *, #783, .F. ) ;
#388 = AXIS2_PLACEMENT_3D ( 'NONE', #722, #634, #206 ) ;
#389 = DIRECTION ( 'NONE',  ( -0.000000000000000000, -0.000000000000000000, -1.000000000000000000 ) ) ;
#390 = ORIENTED_EDGE ( 'NONE', *, *, #32, .F. ) ;
#391 = CARTESIAN_POINT ( 'NONE',  ( 2.125000000000001332, -19.99999999999999289, 4.000000000000000000 ) ) ;
#392 = EDGE_CURVE ( 'NONE', #172, #374, #185, .T. ) ;
#393 = DIRECTION ( 'NONE',  ( 0.000000000000000000, 1.000000000000000000, -0.000000000000000000 ) ) ;
#394 = ORIENTED_EDGE ( 'NONE', *, *, #590, .F. ) ;
#395 = AXIS2_PLACEMENT_3D ( 'NONE', #93, #904, #115 ) ;
#396 = ORIENTED_EDGE ( 'NONE', *, *, #691, .F. ) ;
#397 = CIRCLE ( 'NONE', #654, 2.125000000000000444 ) ;
#398 = VECTOR ( 'NONE', #337, 1000.000000000000000 ) ;
#399 = VECTOR ( 'NONE', #501, 1000.000000000000000 ) ;
#400 = COORDINATED_UNIVERSAL_TIME_OFFSET ( 5, 0, .BEHIND. ) ;
#401 = EDGE_LOOP ( 'NONE', ( #1036, #270, #218, #120 ) ) ;
#402 = LINE ( 'NONE', #230, #138 ) ;
#403 = CLOSED_SHELL ( 'NONE', ( #254, #859, #61, #1071, #522, #874, #570, #139, #20, #195, #649, #575, #612, #681, #457, #755, #265, #191, #1002, #377, #167, #156, #820, #533, #740, #528, #327, #718, #747, #316, #867 ) ) ;
#404 = CARTESIAN_POINT ( 'NONE',  ( -8.439999999999995950, -9.170056306102292609, -5.640020000000000699 ) ) ;
#405 = ORIENTED_EDGE ( 'NONE', *, *, #671, .T. ) ;
#406 = PERSON_AND_ORGANIZATION ( #1038, #617 ) ;
#407 = PLANE ( 'NONE',  #193 ) ;
#408 = ORIENTED_EDGE ( 'NONE', *, *, #496, .T. ) ;
#409 = PERSON_AND_ORGANIZATION ( #1038, #617 ) ;
#410 = LINE ( 'NONE', #62, #674 ) ;
#411 = ORIENTED_EDGE ( 'NONE', *, *, #1105, .T. ) ;
#412 = CARTESIAN_POINT ( 'NONE',  ( -8.439999999999997726, 0.000000000000000000, 0.000000000000000000 ) ) ;
#413 = VECTOR ( 'NONE', #858, 1000.000000000000000 ) ;
#414 = PERSON_AND_ORGANIZATION ( #1038, #617 ) ;
#415 = VECTOR ( 'NONE', #565, 1000.000000000000000 ) ;
#416 = VECTOR ( 'NONE', #777, 1000.000000000000000 ) ;
#417 = EDGE_CURVE ( 'NONE', #374, #190, #716, .T. ) ;
#418 = VECTOR ( 'NONE', #690, 1000.000000000000000 ) ;
#419 = CARTESIAN_POINT ( 'NONE',  ( -11.49999999999999645, -9.170056306102292609, -7.640020000000000699 ) ) ;
#420 = DIRECTION ( 'NONE',  ( 0.000000000000000000, -1.000000000000000000, 0.000000000000000000 ) ) ;
#421 = PERSON_AND_ORGANIZATION_ROLE ( 'design_owner' ) ;
#422 = DIRECTION ( 'NONE',  ( -0.000000000000000000, -0.000000000000000000, -1.000000000000000000 ) ) ;
#423 = VERTEX_POINT ( 'NONE', #285 ) ;
#424 = DIRECTION ( 'NONE',  ( 0.000000000000000000, -1.000000000000000000, 0.000000000000000000 ) ) ;
#425 = DIRECTION ( 'NONE',  ( -0.000000000000000000, 1.000000000000000000, -0.000000000000000000 ) ) ;
#426 = CARTESIAN_POINT ( 'NONE',  ( 9.934999999999998721, 0.000000000000000000, 4.000000000000000000 ) ) ;
#427 = CARTESIAN_POINT ( 'NONE',  ( -9.934999999999998721, -4.800056306102291614, -5.640020000000000699 ) ) ;
#428 = VECTOR ( 'NONE', #14, 1000.000000000000000 ) ;
#429 = VERTEX_POINT ( 'NONE', #643 ) ;
#430 = LINE ( 'NONE', #70, #929 ) ;
#431 = EDGE_CURVE ( 'NONE', #793, #490, #889, .T. ) ;
#432 = AXIS2_PLACEMENT_3D ( 'NONE', #536, #714, #269 ) ;
#433 = CARTESIAN_POINT ( 'NONE',  ( 0.000000000000000000, 25.00000000000000711, 4.000000000000000000 ) ) ;
#434 = ORIENTED_EDGE ( 'NONE', *, *, #534, .F. ) ;
#435 = CARTESIAN_POINT ( 'NONE',  ( 9.934999999999998721, -4.800056306102291614, -5.640020000000000699 ) ) ;
#436 = CC_DESIGN_PERSON_AND_ORGANIZATION_ASSIGNMENT ( #594, #421, ( #46 ) ) ;
#437 = CARTESIAN_POINT ( 'NONE',  ( 9.934999999999998721, -5.200056306102291970, -5.640020000000000699 ) ) ;
#438 = CARTESIAN_POINT ( 'NONE',  ( -8.439999999999995950, 0.000000000000000000, 4.000000000000000000 ) ) ;
#439 = CARTESIAN_POINT ( 'NONE',  ( 0.000000000000000000, -19.99999999999999289, 0.000000000000000000 ) ) ;
#440 = DIRECTION ( 'NONE',  ( 1.000000000000000000, 0.000000000000000000, 0.000000000000000000 ) ) ;
#441 = EDGE_CURVE ( 'NONE', #1093, #289, #804, .T. ) ;
#442 = CARTESIAN_POINT ( 'NONE',  ( 8.439999999999995950, -7.170056306102291721, 0.000000000000000000 ) ) ;
#443 = ORIENTED_EDGE ( 'NONE', *, *, #981, .T. ) ;
#444 = LINE ( 'NONE', #3, #418 ) ;
#445 = ORIENTED_EDGE ( 'NONE', *, *, #349, .F. ) ;
#446 = CARTESIAN_POINT ( 'NONE',  ( 0.000000000000000000, 0.000000000000000000, 0.000000000000000000 ) ) ;
#447 = ORIENTED_EDGE ( 'NONE', *, *, #329, .F. ) ;
#448 = CC_DESIGN_PERSON_AND_ORGANIZATION_ASSIGNMENT ( #768, #670, ( #635 ) ) ;
#449 = CARTESIAN_POINT ( 'NONE',  ( -11.49999999999999645, -5.200056306102291970, -7.640020000000000699 ) ) ;
#450 = VECTOR ( 'NONE', #268, 1000.000000000000000 ) ;
#451 = LINE ( 'NONE', #717, #154 ) ;
#452 = VERTEX_POINT ( 'NONE', #927 ) ;
#453 = VECTOR ( 'NONE', #833, 1000.000000000000000 ) ;
#454 = AXIS2_PLACEMENT_3D ( 'NONE', #91, #356, #712 ) ;
#455 = FACE_OUTER_BOUND ( 'NONE', #806, .T. ) ;
#456 = ORIENTED_EDGE ( 'NONE', *, *, #121, .F. ) ;
#457 = ADVANCED_FACE ( 'NONE', ( #63 ), #131, .F. ) ;
#458 = CARTESIAN_POINT ( 'NONE',  ( -2.125000000000001332, -19.99999999999999289, 4.000000000000000000 ) ) ;
#459 = ORIENTED_EDGE ( 'NONE', *, *, #349, .T. ) ;
#460 = DIRECTION ( 'NONE',  ( -1.000000000000000000, -0.000000000000000000, -0.000000000000000000 ) ) ;
#461 = ORIENTED_EDGE ( 'NONE', *, *, #738, .T. ) ;
#462 = CARTESIAN_POINT ( 'NONE',  ( 8.439999999999997726, 8.947424210352387774, 4.000000000000000000 ) ) ;
#463 = CARTESIAN_POINT ( 'NONE',  ( 11.49999999999999645, -9.170056306102292609, -5.640020000000000699 ) ) ;
#464 = DIRECTION ( 'NONE',  ( 1.000000000000000000, 0.000000000000000000, -0.000000000000000000 ) ) ;
#465 = EDGE_CURVE ( 'NONE', #248, #637, #397, .T. ) ;
#466 = CARTESIAN_POINT ( 'NONE',  ( -8.439999999999995950, -8.947424210352389551, 4.000000000000000000 ) ) ;
#467 = VERTEX_POINT ( 'NONE', #679 ) ;
#468 = DIRECTION ( 'NONE',  ( -1.000000000000000000, 0.000000000000000000, 0.000000000000000000 ) ) ;
#469 = DIRECTION ( 'NONE',  ( 0.000000000000000000, 0.000000000000000000, 1.000000000000000000 ) ) ;
#470 = AXIS2_PLACEMENT_3D ( 'NONE', #385, #197, #469 ) ;
#471 = ORIENTED_EDGE ( 'NONE', *, *, #934, .T. ) ;
#472 = VECTOR ( 'NONE', #389, 1000.000000000000000 ) ;
#473 = EDGE_CURVE ( 'NONE', #429, #190, #1102, .T. ) ;
#474 = ORIENTED_EDGE ( 'NONE', *, *, #959, .F. ) ;
#475 = CARTESIAN_POINT ( 'NONE',  ( 0.000000000000000000, -7.170056306102291721, 4.000000000000000000 ) ) ;
#476 = DIRECTION ( 'NONE',  ( 1.000000000000000000, 0.000000000000000000, 0.000000000000000000 ) ) ;
#477 = LINE ( 'NONE', #1103, #493 ) ;
#478 = CARTESIAN_POINT ( 'NONE',  ( 0.000000000000000000, -19.99999999999999289, 4.000000000000000000 ) ) ;
#479 = EDGE_CURVE ( 'NONE', #452, #916, #752, .T. ) ;
#480 = VERTEX_POINT ( 'NONE', #215 ) ;
#481 = PLANE ( 'NONE',  #912 ) ;
#482 = ORIENTED_EDGE ( 'NONE', *, *, #147, .F. ) ;
#483 = VECTOR ( 'NONE', #425, 1000.000000000000000 ) ;
#484 = MECHANICAL_CONTEXT ( 'NONE', #818, 'mechanical' ) ;
#485 = ORIENTED_EDGE ( 'NONE', *, *, #922, .F. ) ;
#486 = CARTESIAN_POINT ( 'NONE',  ( -8.439999999999995950, -7.170056306102291721, 4.000000000000000000 ) ) ;
#487 = EDGE_CURVE ( 'NONE', #323, #37, #638, .T. ) ;
#488 = DIRECTION ( 'NONE',  ( 1.000000000000000000, -0.000000000000000000, -0.000000000000000000 ) ) ;
#489 = AXIS2_PLACEMENT_3D ( 'NONE', #655, #393, #380 ) ;
#490 = VERTEX_POINT ( 'NONE', #391 ) ;
#491 = LOCAL_TIME ( 11, 13, 18.00000000000000000, #587 ) ;
#492 = APPROVAL_STATUS ( 'not_yet_approved' ) ;
#493 = VECTOR ( 'NONE', #567, 1000.000000000000000 ) ;
#494 = FACE_OUTER_BOUND ( 'NONE', #834, .T. ) ;
#495 = CYLINDRICAL_SURFACE ( 'NONE', #49, 2.125000000000001332 ) ;
#496 = EDGE_CURVE ( 'NONE', #129, #813, #305, .T. ) ;
#497 = ORIENTED_EDGE ( 'NONE', *, *, #55, .T. ) ;
#498 = LINE ( 'NONE', #683, #483 ) ;
#499 = APPROVAL_ROLE ( '' ) ;
#500 = DIRECTION ( 'NONE',  ( 1.000000000000000000, 0.000000000000000000, -0.000000000000000000 ) ) ;
#501 = DIRECTION ( 'NONE',  ( -1.000000000000000000, 0.000000000000000000, 0.000000000000000000 ) ) ;
#502 = EDGE_LOOP ( 'NONE', ( #17, #1092, #601, #116, #758, #725, #1061, #324, #574, #382 ) ) ;
#503 = EDGE_CURVE ( 'NONE', #212, #1009, #616, .T. ) ;
#504 = PERSON_AND_ORGANIZATION_ROLE ( 'classification_officer' ) ;
#505 = LINE ( 'NONE', #854, #614 ) ;
#506 = VERTEX_POINT ( 'NONE', #520 ) ;
#507 = LINE ( 'NONE', #597, #870 ) ;
#508 = DATE_AND_TIME ( #142, #123 ) ;
#509 = VECTOR ( 'NONE', #183, 1000.000000000000000 ) ;
#510 = EDGE_CURVE ( 'NONE', #289, #480, #610, .T. ) ;
#511 = VECTOR ( 'NONE', #1079, 1000.000000000000000 ) ;
#512 = ORIENTED_EDGE ( 'NONE', *, *, #1033, .T. ) ;
#513 = CARTESIAN_POINT ( 'NONE',  ( 0.000000000000000000, 25.00000000000000711, 4.000000000000000000 ) ) ;
#514 = LINE ( 'NONE', #325, #331 ) ;
#515 = CARTESIAN_POINT ( 'NONE',  ( 8.439999999999995950, -7.170056306102291721, -5.640020000000000699 ) ) ;
#516 = EDGE_CURVE ( 'NONE', #304, #429, #792, .T. ) ;
#517 = ORIENTED_EDGE ( 'NONE', *, *, #534, .T. ) ;
#518 = DIRECTION ( 'NONE',  ( 0.000000000000000000, -0.000000000000000000, -1.000000000000000000 ) ) ;
#519 = FACE_OUTER_BOUND ( 'NONE', #1041, .T. ) ;
#520 = CARTESIAN_POINT ( 'NONE',  ( -8.439999999999995950, -7.170056306102291721, -5.640020000000000699 ) ) ;
#521 = FACE_OUTER_BOUND ( 'NONE', #134, .T. ) ;
#522 = ADVANCED_FACE ( 'NONE', ( #696 ), #944, .F. ) ;
#523 = VECTOR ( 'NONE', #826, 1000.000000000000000 ) ;
#524 = LINE ( 'NONE', #966, #1050 ) ;
#525 = DIRECTION ( 'NONE',  ( -0.000000000000000000, -0.000000000000000000, -1.000000000000000000 ) ) ;
#526 = ORIENTED_EDGE ( 'NONE', *, *, #209, .F. ) ;
#527 = CC_DESIGN_APPROVAL ( #662, ( #232 ) ) ;
#528 = ADVANCED_FACE ( 'NONE', ( #962 ), #171, .T. ) ;
#529 = DIRECTION ( 'NONE',  ( 0.000000000000000000, -0.000000000000000000, -1.000000000000000000 ) ) ;
#530 = CARTESIAN_POINT ( 'NONE',  ( 8.439999999999995950, 0.000000000000000000, 4.000000000000000000 ) ) ;
#531 = ORIENTED_EDGE ( 'NONE', *, *, #238, .T. ) ;
#532 = DIRECTION ( 'NONE',  ( -0.000000000000000000, -0.000000000000000000, -1.000000000000000000 ) ) ;
#533 = ADVANCED_FACE ( 'NONE', ( #956 ), #1045, .T. ) ;
#534 = EDGE_CURVE ( 'NONE', #1093, #212, #950, .T. ) ;
#535 = LINE ( 'NONE', #615, #450 ) ;
#536 = CARTESIAN_POINT ( 'NONE',  ( -8.439999999999997726, 0.000000000000000000, 4.000000000000000000 ) ) ;
#537 = EDGE_LOOP ( 'NONE', ( #905, #85 ) ) ;
#538 = CARTESIAN_POINT ( 'NONE',  ( -2.125000000000001332, -19.99999999999999289, 0.000000000000000000 ) ) ;
#539 = CARTESIAN_POINT ( 'NONE',  ( 0.000000000000000000, -24.99999999999999289, 0.000000000000000000 ) ) ;
#540 = ORIENTED_EDGE ( 'NONE', *, *, #1020, .T. ) ;
#541 = EDGE_LOOP ( 'NONE', ( #47, #925, #923, #1119, #359, #266 ) ) ;
#542 = DIRECTION ( 'NONE',  ( -0.000000000000000000, -0.000000000000000000, -1.000000000000000000 ) ) ;
#543 = DIRECTION ( 'NONE',  ( 0.000000000000000000, 1.000000000000000000, 0.000000000000000000 ) ) ;
#544 = EDGE_CURVE ( 'NONE', #104, #194, #872, .T. ) ;
#545 = ORIENTED_EDGE ( 'NONE', *, *, #811, .T. ) ;
#546 = VECTOR ( 'NONE', #332, 1000.000000000000000 ) ;
#547 = VECTOR ( 'NONE', #903, 1000.000000000000000 ) ;
#548 = ORIENTED_EDGE ( 'NONE', *, *, #4, .T. ) ;
#549 = VERTEX_POINT ( 'NONE', #1035 ) ;
#550 = CARTESIAN_POINT ( 'NONE',  ( 2.125000000000000444, 20.00000000000000711, 0.000000000000000000 ) ) ;
#551 = ORIENTED_EDGE ( 'NONE', *, *, #383, .F. ) ;
#552 = EDGE_CURVE ( 'NONE', #1019, #506, #69, .T. ) ;
#553 = CARTESIAN_POINT ( 'NONE',  ( 8.439999999999997726, -4.800056306102291614, -5.640020000000000699 ) ) ;
#554 = DIRECTION ( 'NONE',  ( -0.000000000000000000, -0.000000000000000000, 1.000000000000000000 ) ) ;
#555 = PLANE ( 'NONE',  #303 ) ;
#556 = ORIENTED_EDGE ( 'NONE', *, *, #298, .T. ) ;
#557 = ORIENTED_EDGE ( 'NONE', *, *, #630, .T. ) ;
#558 = CARTESIAN_POINT ( 'NONE',  ( 11.50000000000000355, 25.00000000000000711, 4.000000000000000000 ) ) ;
#559 = CARTESIAN_POINT ( 'NONE',  ( 0.000000000000000000, -19.99999999999999289, 4.000000000000000000 ) ) ;
#560 = LINE ( 'NONE', #221, #187 ) ;
#561 = EDGE_LOOP ( 'NONE', ( #669, #135, #179, #935 ) ) ;
#562 = APPROVAL ( #756, 'UNSPECIFIED' ) ;
#563 = DIRECTION ( 'NONE',  ( -0.000000000000000000, -0.000000000000000000, 1.000000000000000000 ) ) ;
#564 = AXIS2_PLACEMENT_3D ( 'NONE', #530, #77, #1134 ) ;
#565 = DIRECTION ( 'NONE',  ( 1.000000000000000000, 0.000000000000000000, 0.000000000000000000 ) ) ;
#566 = DIRECTION ( 'NONE',  ( -0.000000000000000000, -1.000000000000000000, -0.000000000000000000 ) ) ;
#567 = DIRECTION ( 'NONE',  ( 0.000000000000000000, 0.000000000000000000, 1.000000000000000000 ) ) ;
#568 = CIRCLE ( 'NONE', #707, 2.125000000000000444 ) ;
#569 = VECTOR ( 'NONE', #204, 1000.000000000000000 ) ;
#570 = ADVANCED_FACE ( 'NONE', ( #687 ), #83, .T. ) ;
#571 = DIRECTION ( 'NONE',  ( 0.000000000000000000, 0.000000000000000000, 1.000000000000000000 ) ) ;
#572 = DIRECTION ( 'NONE',  ( -0.000000000000000000, -0.000000000000000000, 1.000000000000000000 ) ) ;
#573 = EDGE_LOOP ( 'NONE', ( #1077, #222, #39, #611 ) ) ;
#574 = ORIENTED_EDGE ( 'NONE', *, *, #243, .F. ) ;
#575 = ADVANCED_FACE ( 'NONE', ( #881 ), #809, .T. ) ;
#576 = COORDINATED_UNIVERSAL_TIME_OFFSET ( 5, 0, .BEHIND. ) ;
#577 = ORIENTED_EDGE ( 'NONE', *, *, #590, .T. ) ;
#578 = LINE ( 'NONE', #50, #767 ) ;
#579 = ORIENTED_EDGE ( 'NONE', *, *, #223, .F. ) ;
#580 = VECTOR ( 'NONE', #993, 1000.000000000000000 ) ;
#581 = ORIENTED_EDGE ( 'NONE', *, *, #1054, .T. ) ;
#582 = CARTESIAN_POINT ( 'NONE',  ( -9.934999999999998721, -4.800056306102291614, 4.000000000000000000 ) ) ;
#583 = CARTESIAN_POINT ( 'NONE',  ( 9.934999999999998721, 0.000000000000000000, 4.000000000000000000 ) ) ;
#584 = AXIS2_PLACEMENT_3D ( 'NONE', #1065, #21, #978 ) ;
#585 = ORIENTED_EDGE ( 'NONE', *, *, #309, .T. ) ;
#586 = AXIS2_PLACEMENT_3D ( 'NONE', #1021, #424, #518 ) ;
#587 = COORDINATED_UNIVERSAL_TIME_OFFSET ( 5, 0, .BEHIND. ) ;
#588 = VECTOR ( 'NONE', #295, 1000.000000000000000 ) ;
#589 = LINE ( 'NONE', #321, #319 ) ;
#590 = EDGE_CURVE ( 'NONE', #910, #258, #371, .T. ) ;
#591 = CARTESIAN_POINT ( 'NONE',  ( -8.439999999999997726, 8.947424210352387774, 4.000000000000000000 ) ) ;
#592 = ORIENTED_EDGE ( 'NONE', *, *, #121, .T. ) ;
#593 = CARTESIAN_POINT ( 'NONE',  ( 11.50000000000000355, -5.200056306102291970, -7.640020000000000699 ) ) ;
#594 = PERSON_AND_ORGANIZATION ( #1038, #617 ) ;
#595 = CARTESIAN_POINT ( 'NONE',  ( 0.000000000000000000, 0.000000000000000000, 4.000000000000000000 ) ) ;
#596 = ORIENTED_EDGE ( 'NONE', *, *, #4, .F. ) ;
#597 = CARTESIAN_POINT ( 'NONE',  ( 8.439999999999995950, -7.170056306102291721, 4.000000000000000000 ) ) ;
#598 = CARTESIAN_POINT ( 'NONE',  ( 11.49999999999999645, -2.800056306102291614, 0.000000000000000000 ) ) ;
#599 = APPLICATION_PROTOCOL_DEFINITION ( 'international standard', 'config_control_design', 1994, #884 ) ;
#600 = DIRECTION ( 'NONE',  ( 0.000000000000000000, -1.000000000000000000, 0.000000000000000000 ) ) ;
#601 = ORIENTED_EDGE ( 'NONE', *, *, #1110, .T. ) ;
#602 = CARTESIAN_POINT ( 'NONE',  ( -11.49999999999999645, -2.800056306102291614, -5.640020000000000699 ) ) ;
#603 = VECTOR ( 'NONE', #865, 1000.000000000000000 ) ;
#604 = EDGE_CURVE ( 'NONE', #1135, #1015, #726, .T. ) ;
#605 = VECTOR ( 'NONE', #713, 1000.000000000000000 ) ;
#606 =( GEOMETRIC_REPRESENTATION_CONTEXT ( 3 ) GLOBAL_UNCERTAINTY_ASSIGNED_CONTEXT ( ( #249 ) ) GLOBAL_UNIT_ASSIGNED_CONTEXT ( ( #624, #205, #992 ) ) REPRESENTATION_CONTEXT ( 'NONE', 'WORKASPACE' ) );
#607 = DIRECTION ( 'NONE',  ( 1.000000000000000000, -0.000000000000000000, -0.000000000000000000 ) ) ;
#608 = CARTESIAN_POINT ( 'NONE',  ( 11.50000000000000355, -5.200056306102291970, -7.640020000000000699 ) ) ;
#609 = DIRECTION ( 'NONE',  ( 0.000000000000000000, -1.000000000000000000, 0.000000000000000000 ) ) ;
#610 = LINE ( 'NONE', #774, #413 ) ;
#611 = ORIENTED_EDGE ( 'NONE', *, *, #128, .T. ) ;
#612 = ADVANCED_FACE ( 'NONE', ( #801 ), #282, .F. ) ;
#613 = VERTEX_POINT ( 'NONE', #103 ) ;
#614 = VECTOR ( 'NONE', #619, 1000.000000000000000 ) ;
#615 = CARTESIAN_POINT ( 'NONE',  ( -11.49999999999999645, -9.170056306102292609, -5.640020000000000699 ) ) ;
#616 = LINE ( 'NONE', #72, #868 ) ;
#617 = ORGANIZATION ( 'UNSPECIFIED', 'UNSPECIFIED', '' ) ;
#618 = EDGE_CURVE ( 'NONE', #480, #1056, #973, .T. ) ;
#619 = DIRECTION ( 'NONE',  ( -0.000000000000000000, 1.000000000000000000, -0.000000000000000000 ) ) ;
#620 = ORIENTED_EDGE ( 'NONE', *, *, #841, .T. ) ;
#621 = DIRECTION ( 'NONE',  ( 1.000000000000000000, 0.000000000000000000, 0.000000000000000000 ) ) ;
#622 = ORIENTED_EDGE ( 'NONE', *, *, #86, .F. ) ;
#623 = ORIENTED_EDGE ( 'NONE', *, *, #128, .F. ) ;
#624 =( LENGTH_UNIT ( ) NAMED_UNIT ( * ) SI_UNIT ( .MILLI., .METRE. ) );
#625 = DIRECTION ( 'NONE',  ( 0.000000000000000000, -0.000000000000000000, 1.000000000000000000 ) ) ;
#626 = ORIENTED_EDGE ( 'NONE', *, *, #1099, .T. ) ;
#627 = CARTESIAN_POINT ( 'NONE',  ( 11.50000000000000355, -9.170056306102292609, -7.640020000000000699 ) ) ;
#628 = DIRECTION ( 'NONE',  ( -1.000000000000000000, 0.000000000000000000, 0.000000000000000000 ) ) ;
#629 = CARTESIAN_POINT ( 'NONE',  ( -11.49999999999999645, -24.99999999999999289, 4.000000000000000000 ) ) ;
#630 = EDGE_CURVE ( 'NONE', #226, #771, #1073, .T. ) ;
#631 = APPLICATION_PROTOCOL_DEFINITION ( 'international standard', 'config_control_design', 1994, #818 ) ;
#632 = FACE_OUTER_BOUND ( 'NONE', #1098, .T. ) ;
#633 = ORIENTED_EDGE ( 'NONE', *, *, #55, .F. ) ;
#634 = DIRECTION ( 'NONE',  ( 0.000000000000000000, 1.000000000000000000, 0.000000000000000000 ) ) ;
#635 = PRODUCT_DEFINITION_FORMATION_WITH_SPECIFIED_SOURCE ( 'ANY', '', #46, .NOT_KNOWN. ) ;
#636 = DIRECTION ( 'NONE',  ( 0.000000000000000000, -1.000000000000000000, 0.000000000000000000 ) ) ;
#637 = VERTEX_POINT ( 'NONE', #822 ) ;
#638 = CIRCLE ( 'NONE', #807, 2.125000000000001332 ) ;
#639 = DIRECTION ( 'NONE',  ( -0.000000000000000000, 1.000000000000000000, -0.000000000000000000 ) ) ;
#640 = CARTESIAN_POINT ( 'NONE',  ( 0.000000000000000000, -4.800056306102291614, 4.000000000000000000 ) ) ;
#641 = VERTEX_POINT ( 'NONE', #550 ) ;
#642 = EDGE_CURVE ( 'NONE', #281, #771, #262, .T. ) ;
#643 = CARTESIAN_POINT ( 'NONE',  ( 8.439999999999997726, -2.800056306102291614, 0.000000000000000000 ) ) ;
#644 = PLANE ( 'NONE',  #470 ) ;
#645 = ORIENTED_EDGE ( 'NONE', *, *, #783, .T. ) ;
#646 = EDGE_LOOP ( 'NONE', ( #297, #540, #531, #339 ) ) ;
#647 = ORIENTED_EDGE ( 'NONE', *, *, #329, .T. ) ;
#648 = DIRECTION ( 'NONE',  ( 0.000000000000000000, 0.000000000000000000, -1.000000000000000000 ) ) ;
#649 = ADVANCED_FACE ( 'NONE', ( #455 ), #175, .F. ) ;
#650 = CARTESIAN_POINT ( 'NONE',  ( -11.49999999999999645, -9.170056306102292609, -5.640020000000000699 ) ) ;
#651 = ORIENTED_EDGE ( 'NONE', *, *, #341, .F. ) ;
#652 = ORIENTED_EDGE ( 'NONE', *, *, #953, .F. ) ;
#653 = CARTESIAN_POINT ( 'NONE',  ( -9.934999999999998721, -7.170056306102291721, 4.000000000000000000 ) ) ;
#654 = AXIS2_PLACEMENT_3D ( 'NONE', #932, #571, #1012 ) ;
#655 = CARTESIAN_POINT ( 'NONE',  ( 11.49999999999999645, -2.800056306102291614, -5.640020000000000699 ) ) ;
#656 = CARTESIAN_POINT ( 'NONE',  ( 0.000000000000000000, -7.170056306102291721, 4.000000000000000000 ) ) ;
#657 = AXIS2_PLACEMENT_3D ( 'NONE', #357, #159, #955 ) ;
#658 = CC_DESIGN_DATE_AND_TIME_ASSIGNMENT ( #1106, #853, ( #232 ) ) ;
#659 = VERTEX_POINT ( 'NONE', #364 ) ;
#660 = VERTEX_POINT ( 'NONE', #720 ) ;
#661 = VECTOR ( 'NONE', #338, 1000.000000000000000 ) ;
#662 = APPROVAL ( #492, 'UNSPECIFIED' ) ;
#663 = VECTOR ( 'NONE', #1075, 1000.000000000000000 ) ;
#664 = ORIENTED_EDGE ( 'NONE', *, *, #686, .T. ) ;
#665 = DIRECTION ( 'NONE',  ( -1.000000000000000000, 0.000000000000000000, 0.000000000000000000 ) ) ;
#666 = DATE_AND_TIME ( #937, #1072 ) ;
#667 = CARTESIAN_POINT ( 'NONE',  ( -9.934999999999998721, -7.170056306102291721, -5.640020000000000699 ) ) ;
#668 = FACE_OUTER_BOUND ( 'NONE', #765, .T. ) ;
#669 = ORIENTED_EDGE ( 'NONE', *, *, #691, .T. ) ;
#670 = PERSON_AND_ORGANIZATION_ROLE ( 'creator' ) ;
#671 = EDGE_CURVE ( 'NONE', #323, #793, #980, .T. ) ;
#672 = DIRECTION ( 'NONE',  ( 0.000000000000000000, 1.000000000000000000, 0.000000000000000000 ) ) ;
#673 = DIRECTION ( 'NONE',  ( 1.000000000000000000, 0.000000000000000000, 0.000000000000000000 ) ) ;
#674 = VECTOR ( 'NONE', #607, 1000.000000000000000 ) ;
#675 = ORIENTED_EDGE ( 'NONE', *, *, #1057, .T. ) ;
#676 = FACE_OUTER_BOUND ( 'NONE', #255, .T. ) ;
#677 = LOCAL_TIME ( 11, 13, 18.00000000000000000, #67 ) ;
#678 = DIRECTION ( 'NONE',  ( 0.000000000000000000, -1.000000000000000000, 0.000000000000000000 ) ) ;
#679 = CARTESIAN_POINT ( 'NONE',  ( 8.439999999999995950, -8.947424210352389551, 0.000000000000000000 ) ) ;
#680 = ORIENTED_EDGE ( 'NONE', *, *, #473, .F. ) ;
#681 = ADVANCED_FACE ( 'NONE', ( #632 ), #192, .F. ) ;
#682 = DIRECTION ( 'NONE',  ( 0.000000000000000000, 1.000000000000000000, -0.000000000000000000 ) ) ;
#683 = CARTESIAN_POINT ( 'NONE',  ( -8.439999999999995950, -7.170056306102291721, 0.000000000000000000 ) ) ;
#684 = ORIENTED_EDGE ( 'NONE', *, *, #899, .T. ) ;
#685 = CYLINDRICAL_SURFACE ( 'NONE', #302, 2.125000000000000444 ) ;
#686 = EDGE_CURVE ( 'NONE', #37, #490, #778, .T. ) ;
#687 = FACE_OUTER_BOUND ( 'NONE', #733, .T. ) ;
#688 = EDGE_LOOP ( 'NONE', ( #838, #810, #308, #727, #144, #246, #873, #1046 ) ) ;
#689 = DIRECTION ( 'NONE',  ( 1.000000000000000000, 0.000000000000000000, 0.000000000000000000 ) ) ;
#690 = DIRECTION ( 'NONE',  ( -1.000000000000000000, 0.000000000000000000, 0.000000000000000000 ) ) ;
#691 = EDGE_CURVE ( 'NONE', #1004, #1006, #795, .T. ) ;
#692 = AXIS2_PLACEMENT_3D ( 'NONE', #984, #554, #476 ) ;
#693 = CARTESIAN_POINT ( 'NONE',  ( 2.125000000000001332, -19.99999999999999289, 0.000000000000000000 ) ) ;
#694 = EDGE_CURVE ( 'NONE', #641, #248, #972, .T. ) ;
#695 = FACE_BOUND ( 'NONE', #876, .T. ) ;
#696 = FACE_OUTER_BOUND ( 'NONE', #957, .T. ) ;
#697 = VERTEX_POINT ( 'NONE', #629 ) ;
#698 = EDGE_CURVE ( 'NONE', #1001, #333, #808, .T. ) ;
#699 = CARTESIAN_POINT ( 'NONE',  ( 11.50000000000000355, -9.170056306102292609, -7.640020000000000699 ) ) ;
#700 = DIRECTION ( 'NONE',  ( 0.000000000000000000, -0.000000000000000000, -1.000000000000000000 ) ) ;
#701 = ORIENTED_EDGE ( 'NONE', *, *, #182, .F. ) ;
#702 = LINE ( 'NONE', #1042, #785 ) ;
#703 = DIRECTION ( 'NONE',  ( -0.000000000000000000, -0.000000000000000000, 1.000000000000000000 ) ) ;
#704 = EDGE_CURVE ( 'NONE', #1064, #910, #732, .T. ) ;
#705 = EDGE_LOOP ( 'NONE', ( #831, #577, #1007, #1058, #376, #781, #44, #368 ) ) ;
#706 = ORIENTED_EDGE ( 'NONE', *, *, #878, .T. ) ;
#707 = AXIS2_PLACEMENT_3D ( 'NONE', #360, #898, #111 ) ;
#708 = VECTOR ( 'NONE', #639, 1000.000000000000000 ) ;
#709 = DIRECTION ( 'NONE',  ( 0.000000000000000000, 0.000000000000000000, 1.000000000000000000 ) ) ;
#710 = DIRECTION ( 'NONE',  ( -0.000000000000000000, 0.000000000000000000, -1.000000000000000000 ) ) ;
#711 = ORIENTED_EDGE ( 'NONE', *, *, #941, .T. ) ;
#712 = DIRECTION ( 'NONE',  ( -0.000000000000000000, 0.000000000000000000, -1.000000000000000000 ) ) ;
#713 = DIRECTION ( 'NONE',  ( 0.000000000000000000, 0.000000000000000000, 1.000000000000000000 ) ) ;
#714 = DIRECTION ( 'NONE',  ( -1.000000000000000000, 0.000000000000000000, 0.000000000000000000 ) ) ;
#715 = ORIENTED_EDGE ( 'NONE', *, *, #479, .F. ) ;
#716 = LINE ( 'NONE', #384, #663 ) ;
#717 = CARTESIAN_POINT ( 'NONE',  ( 11.49999999999999645, -2.800056306102291614, -5.640020000000000699 ) ) ;
#718 = ADVANCED_FACE ( 'NONE', ( #887 ), #101, .T. ) ;
#719 = ORIENTED_EDGE ( 'NONE', *, *, #32, .T. ) ;
#720 = CARTESIAN_POINT ( 'NONE',  ( 11.50000000000000355, -24.99999999999999289, 4.000000000000000000 ) ) ;
#721 = ORIENTED_EDGE ( 'NONE', *, *, #353, .T. ) ;
#722 = CARTESIAN_POINT ( 'NONE',  ( -11.49999999999999645, -2.800056306102291614, -5.640020000000000699 ) ) ;
#723 = LINE ( 'NONE', #278, #210 ) ;
#724 = CARTESIAN_POINT ( 'NONE',  ( 0.000000000000000000, 0.000000000000000000, -5.640020000000000699 ) ) ;
#725 = ORIENTED_EDGE ( 'NONE', *, *, #989, .F. ) ;
#726 = LINE ( 'NONE', #1067, #509 ) ;
#727 = ORIENTED_EDGE ( 'NONE', *, *, #1033, .F. ) ;
#728 = VECTOR ( 'NONE', #160, 1000.000000000000000 ) ;
#729 = DIRECTION ( 'NONE',  ( 1.000000000000000000, 0.000000000000000000, 0.000000000000000000 ) ) ;
#730 = CARTESIAN_POINT ( 'NONE',  ( 8.439999999999995950, -9.170056306102292609, 0.000000000000000000 ) ) ;
#731 = EDGE_LOOP ( 'NONE', ( #293, #988, #90, #234, #340, #1022 ) ) ;
#732 = LINE ( 'NONE', #815, #569 ) ;
#733 = EDGE_LOOP ( 'NONE', ( #626, #126, #107, #968, #596, #1069 ) ) ;
#734 = FACE_OUTER_BOUND ( 'NONE', #401, .T. ) ;
#735 = CARTESIAN_POINT ( 'NONE',  ( 11.50000000000000355, -9.170056306102292609, -5.640020000000000699 ) ) ;
#736 = EDGE_LOOP ( 'NONE', ( #157, #557, #292, #951 ) ) ;
#737 = DIRECTION ( 'NONE',  ( -0.000000000000000000, -1.000000000000000000, -0.000000000000000000 ) ) ;
#738 = EDGE_CURVE ( 'NONE', #771, #1064, #369, .T. ) ;
#739 = DIRECTION ( 'NONE',  ( 0.000000000000000000, 0.000000000000000000, 1.000000000000000000 ) ) ;
#740 = ADVANCED_FACE ( 'NONE', ( #985 ), #41, .T. ) ;
#741 = CARTESIAN_POINT ( 'NONE',  ( 0.000000000000000000, 20.00000000000000711, 0.000000000000000000 ) ) ;
#742 = ORIENTED_EDGE ( 'NONE', *, *, #1054, .F. ) ;
#743 = ORIENTED_EDGE ( 'NONE', *, *, #1027, .F. ) ;
#744 = EDGE_LOOP ( 'NONE', ( #996, #711, #119, #474, #585 ) ) ;
#745 = VECTOR ( 'NONE', #1124, 1000.000000000000000 ) ;
#746 = FACE_OUTER_BOUND ( 'NONE', #688, .T. ) ;
#747 = ADVANCED_FACE ( 'NONE', ( #746 ), #1096, .T. ) ;
#748 = EDGE_LOOP ( 'NONE', ( #30, #940 ) ) ;
#749 = VECTOR ( 'NONE', #682, 1000.000000000000000 ) ;
#750 = DATE_AND_TIME ( #921, #491 ) ;
#751 = PLANE ( 'NONE',  #1127 ) ;
#752 = LINE ( 'NONE', #653, #9 ) ;
#753 = CARTESIAN_POINT ( 'NONE',  ( 8.439999999999997726, 0.000000000000000000, 4.000000000000000000 ) ) ;
#754 = ORIENTED_EDGE ( 'NONE', *, *, #1088, .T. ) ;
#755 = ADVANCED_FACE ( 'NONE', ( #127 ), #644, .F. ) ;
#756 = APPROVAL_STATUS ( 'not_yet_approved' ) ;
#757 = FACE_BOUND ( 'NONE', #184, .T. ) ;
#758 = ORIENTED_EDGE ( 'NONE', *, *, #1123, .F. ) ;
#759 = CARTESIAN_POINT ( 'NONE',  ( -9.934999999999998721, 0.000000000000000000, 4.000000000000000000 ) ) ;
#760 = EDGE_CURVE ( 'NONE', #129, #1019, #18, .T. ) ;
#761 = CARTESIAN_POINT ( 'NONE',  ( 0.000000000000000000, 20.00000000000000711, 0.000000000000000000 ) ) ;
#762 = ORIENTED_EDGE ( 'NONE', *, *, #704, .F. ) ;
#763 = DIRECTION ( 'NONE',  ( 0.000000000000000000, 0.000000000000000000, 1.000000000000000000 ) ) ;
#764 = VECTOR ( 'NONE', #82, 1000.000000000000000 ) ;
#765 = EDGE_LOOP ( 'NONE', ( #548, #43, #715, #459 ) ) ;
#766 = CC_DESIGN_SECURITY_CLASSIFICATION ( #27, ( #635 ) ) ;
#767 = VECTOR ( 'NONE', #488, 1000.000000000000000 ) ;
#768 = PERSON_AND_ORGANIZATION ( #1038, #617 ) ;
#769 = EDGE_CURVE ( 'NONE', #136, #333, #1089, .T. ) ;
#770 = CARTESIAN_POINT ( 'NONE',  ( 0.000000000000000000, -24.99999999999999289, 4.000000000000000000 ) ) ;
#771 = VERTEX_POINT ( 'NONE', #291 ) ;
#772 = CARTESIAN_POINT ( 'NONE',  ( -11.49999999999999645, 0.000000000000000000, 4.000000000000000000 ) ) ;
#773 = DIRECTION ( 'NONE',  ( -1.000000000000000000, 0.000000000000000000, 0.000000000000000000 ) ) ;
#774 = CARTESIAN_POINT ( 'NONE',  ( 9.934999999999998721, -7.170056306102291721, 4.000000000000000000 ) ) ;
#775 = ORIENTED_EDGE ( 'NONE', *, *, #223, .T. ) ;
#776 = CC_DESIGN_PERSON_AND_ORGANIZATION_ASSIGNMENT ( #406, #1017, ( #635 ) ) ;
#777 = DIRECTION ( 'NONE',  ( 0.000000000000000000, 1.000000000000000000, 0.000000000000000000 ) ) ;
#778 = LINE ( 'NONE', #693, #1070 ) ;
#779 = DIRECTION ( 'NONE',  ( -0.000000000000000000, 0.000000000000000000, 1.000000000000000000 ) ) ;
#780 = CARTESIAN_POINT ( 'NONE',  ( 8.439999999999995950, -9.170056306102292609, -5.640020000000000699 ) ) ;
#781 = ORIENTED_EDGE ( 'NONE', *, *, #516, .T. ) ;
#782 = CARTESIAN_POINT ( 'NONE',  ( 0.000000000000000000, 20.00000000000000711, 0.000000000000000000 ) ) ;
#783 = EDGE_CURVE ( 'NONE', #660, #19, #560, .T. ) ;
#784 = AXIS2_PLACEMENT_3D ( 'NONE', #761, #1111, #1008 ) ;
#785 = VECTOR ( 'NONE', #1024, 1000.000000000000000 ) ;
#786 = LINE ( 'NONE', #342, #605 ) ;
#787 = CARTESIAN_POINT ( 'NONE',  ( 11.49999999999999645, -2.800056306102291614, 0.000000000000000000 ) ) ;
#788 = ORIENTED_EDGE ( 'NONE', *, *, #81, .F. ) ;
#789 = CARTESIAN_POINT ( 'NONE',  ( 8.439999999999997726, 8.947424210352387774, 0.000000000000000000 ) ) ;
#790 = EDGE_CURVE ( 'NONE', #697, #613, #893, .T. ) ;
#791 = CARTESIAN_POINT ( 'NONE',  ( -8.439999999999995950, -9.170056306102292609, 0.000000000000000000 ) ) ;
#792 = LINE ( 'NONE', #787, #1047 ) ;
#793 = VERTEX_POINT ( 'NONE', #458 ) ;
#794 = DIRECTION ( 'NONE',  ( -0.000000000000000000, -0.000000000000000000, 1.000000000000000000 ) ) ;
#795 = LINE ( 'NONE', #267, #45 ) ;
#796 = CARTESIAN_POINT ( 'NONE',  ( 8.439999999999995950, -7.170056306102291721, -5.640020000000000699 ) ) ;
#797 = ORIENTED_EDGE ( 'NONE', *, *, #942, .T. ) ;
#798 = CARTESIAN_POINT ( 'NONE',  ( -8.439999999999997726, -4.800056306102291614, 4.000000000000000000 ) ) ;
#799 = VECTOR ( 'NONE', #1, 1000.000000000000000 ) ;
#800 = LINE ( 'NONE', #427, #398 ) ;
#801 = FACE_OUTER_BOUND ( 'NONE', #16, .T. ) ;
#802 = ORIENTED_EDGE ( 'NONE', *, *, #510, .T. ) ;
#803 = EDGE_CURVE ( 'NONE', #697, #660, #367, .T. ) ;
#804 = LINE ( 'NONE', #583, #946 ) ;
#805 = VERTEX_POINT ( 'NONE', #991 ) ;
#806 = EDGE_LOOP ( 'NONE', ( #98, #461, #1132, #178, #1030, #447 ) ) ;
#807 = AXIS2_PLACEMENT_3D ( 'NONE', #917, #835, #40 ) ;
#808 = LINE ( 'NONE', #181, #997 ) ;
#809 = PLANE ( 'NONE',  #395 ) ;
#810 = ORIENTED_EDGE ( 'NONE', *, *, #618, .F. ) ;
#811 = EDGE_CURVE ( 'NONE', #1009, #480, #723, .T. ) ;
#812 = CARTESIAN_POINT ( 'NONE',  ( 11.50000000000000355, -24.99999999999999289, 0.000000000000000000 ) ) ;
#813 = VERTEX_POINT ( 'NONE', #730 ) ;
#814 = CC_DESIGN_DATE_AND_TIME_ASSIGNMENT ( #750, #1117, ( #27 ) ) ;
#815 = CARTESIAN_POINT ( 'NONE',  ( -8.439999999999997726, -2.800056306102291614, -5.640020000000000699 ) ) ;
#816 = LINE ( 'NONE', #381, #511 ) ;
#817 = DIRECTION ( 'NONE',  ( 0.000000000000000000, 0.000000000000000000, 1.000000000000000000 ) ) ;
#818 = APPLICATION_CONTEXT ( 'configuration controlled 3d designs of mechanical parts and assemblies' ) ;
#819 = ORIENTED_EDGE ( 'NONE', *, *, #487, .F. ) ;
#820 = ADVANCED_FACE ( 'NONE', ( #112 ), #296, .F. ) ;
#821 = CARTESIAN_POINT ( 'NONE',  ( -11.49999999999999645, -9.170056306102292609, 0.000000000000000000 ) ) ;
#822 = CARTESIAN_POINT ( 'NONE',  ( -2.125000000000000444, 20.00000000000000711, 4.000000000000000000 ) ) ;
#823 = VECTOR ( 'NONE', #286, 1000.000000000000000 ) ;
#824 = FACE_BOUND ( 'NONE', #537, .T. ) ;
#825 = AXIS2_PLACEMENT_3D ( 'NONE', #478, #986, #108 ) ;
#826 = DIRECTION ( 'NONE',  ( 0.000000000000000000, -1.000000000000000000, 0.000000000000000000 ) ) ;
#827 = VECTOR ( 'NONE', #36, 1000.000000000000000 ) ;
#828 = ORIENTED_EDGE ( 'NONE', *, *, #790, .T. ) ;
#829 = ORIENTED_EDGE ( 'NONE', *, *, #260, .T. ) ;
#830 = EDGE_CURVE ( 'NONE', #1006, #423, #994, .T. ) ;
#831 = ORIENTED_EDGE ( 'NONE', *, *, #283, .F. ) ;
#832 = CARTESIAN_POINT ( 'NONE',  ( -8.439999999999997726, 8.947424210352387774, 4.000000000000000000 ) ) ;
#833 = DIRECTION ( 'NONE',  ( 0.000000000000000000, 0.000000000000000000, 1.000000000000000000 ) ) ;
#834 = EDGE_LOOP ( 'NONE', ( #1125, #15, #497, #200 ) ) ;
#835 = DIRECTION ( 'NONE',  ( 0.000000000000000000, 0.000000000000000000, 1.000000000000000000 ) ) ;
#836 = VECTOR ( 'NONE', #1116, 1000.000000000000000 ) ;
#837 = CARTESIAN_POINT ( 'NONE',  ( 0.000000000000000000, 0.000000000000000000, 0.000000000000000000 ) ) ;
#838 = ORIENTED_EDGE ( 'NONE', *, *, #1057, .F. ) ;
#839 = CARTESIAN_POINT ( 'NONE',  ( 0.000000000000000000, 0.000000000000000000, 0.000000000000000000 ) ) ;
#840 = VECTOR ( 'NONE', #566, 1000.000000000000000 ) ;
#841 = EDGE_CURVE ( 'NONE', #1004, #104, #373, .T. ) ;
#842 = CARTESIAN_POINT ( 'NONE',  ( 11.50000000000000355, -5.200056306102291970, -5.640020000000000699 ) ) ;
#843 = CC_DESIGN_APPROVAL ( #562, ( #27 ) ) ;
#844 = ORIENTED_EDGE ( 'NONE', *, *, #441, .T. ) ;
#845 = PERSON_AND_ORGANIZATION ( #1038, #617 ) ;
#846 = ADVANCED_BREP_SHAPE_REPRESENTATION ( 'MagJackPlate', ( #1109, #869 ), #606 ) ;
#847 = CARTESIAN_POINT ( 'NONE',  ( 8.439999999999995950, -9.170056306102292609, -5.640020000000000699 ) ) ;
#848 = VERTEX_POINT ( 'NONE', #907 ) ;
#849 = EDGE_CURVE ( 'NONE', #287, #263, #118, .T. ) ;
#850 = COORDINATED_UNIVERSAL_TIME_OFFSET ( 5, 0, .BEHIND. ) ;
#851 = CARTESIAN_POINT ( 'NONE',  ( 11.50000000000000355, 0.000000000000000000, 0.000000000000000000 ) ) ;
#852 = LINE ( 'NONE', #404, #453 ) ;
#853 = DATE_TIME_ROLE ( 'creation_date' ) ;
#854 = CARTESIAN_POINT ( 'NONE',  ( -9.934999999999998721, -4.800056306102291614, -5.640020000000000699 ) ) ;
#855 = DIRECTION ( 'NONE',  ( 1.000000000000000000, -0.000000000000000000, -0.000000000000000000 ) ) ;
#856 = AXIS2_PLACEMENT_3D ( 'NONE', #1130, #709, #949 ) ;
#857 = VECTOR ( 'NONE', #913, 1000.000000000000000 ) ;
#858 = DIRECTION ( 'NONE',  ( -0.000000000000000000, -0.000000000000000000, -1.000000000000000000 ) ) ;
#859 = ADVANCED_FACE ( 'NONE', ( #914 ), #35, .F. ) ;
#860 = CARTESIAN_POINT ( 'NONE',  ( 11.50000000000000355, 0.000000000000000000, 0.000000000000000000 ) ) ;
#861 = DESIGN_CONTEXT ( 'detailed design', #884, 'design' ) ;
#862 = DIRECTION ( 'NONE',  ( 1.000000000000000000, 0.000000000000000000, 0.000000000000000000 ) ) ;
#863 = ORIENTED_EDGE ( 'NONE', *, *, #698, .T. ) ;
#864 = CARTESIAN_POINT ( 'NONE',  ( -9.934999999999998721, -4.800056306102291614, -5.640020000000000699 ) ) ;
#865 = DIRECTION ( 'NONE',  ( 0.000000000000000000, -1.000000000000000000, 0.000000000000000000 ) ) ;
#866 = DIRECTION ( 'NONE',  ( -1.000000000000000000, 0.000000000000000000, 0.000000000000000000 ) ) ;
#867 = ADVANCED_FACE ( 'NONE', ( #1011 ), #751, .F. ) ;
#868 = VECTOR ( 'NONE', #600, 1000.000000000000000 ) ;
#869 = AXIS2_PLACEMENT_3D ( 'NONE', #839, #943, #219 ) ;
#870 = VECTOR ( 'NONE', #151, 1000.000000000000000 ) ;
#871 = CARTESIAN_POINT ( 'NONE',  ( 11.50000000000000355, 0.000000000000000000, 4.000000000000000000 ) ) ;
#872 = LINE ( 'NONE', #1023, #546 ) ;
#873 = ORIENTED_EDGE ( 'NONE', *, *, #552, .F. ) ;
#874 = ADVANCED_FACE ( 'NONE', ( #494 ), #1028, .F. ) ;
#875 = CARTESIAN_POINT ( 'NONE',  ( 11.50000000000000355, 25.00000000000000711, 4.000000000000000000 ) ) ;
#876 = EDGE_LOOP ( 'NONE', ( #1112, #974 ) ) ;
#877 = PLANE ( 'NONE',  #454 ) ;
#878 = EDGE_CURVE ( 'NONE', #304, #848, #330, .T. ) ;
#879 = VECTOR ( 'NONE', #883, 1000.000000000000000 ) ;
#880 = CARTESIAN_POINT ( 'NONE',  ( -8.439999999999997726, 8.947424210352387774, 4.000000000000000000 ) ) ;
#881 = FACE_OUTER_BOUND ( 'NONE', #1115, .T. ) ;
#882 = ORIENTED_EDGE ( 'NONE', *, *, #694, .T. ) ;
#883 = DIRECTION ( 'NONE',  ( 0.000000000000000000, 1.000000000000000000, -0.000000000000000000 ) ) ;
#884 = APPLICATION_CONTEXT ( 'configuration controlled 3d designs of mechanical parts and assemblies' ) ;
#885 = ORIENTED_EDGE ( 'NONE', *, *, #948, .F. ) ;
#886 = ORIENTED_EDGE ( 'NONE', *, *, #510, .F. ) ;
#887 = FACE_OUTER_BOUND ( 'NONE', #541, .T. ) ;
#888 = AXIS2_PLACEMENT_3D ( 'NONE', #1029, #343, #700 ) ;
#889 = CIRCLE ( 'NONE', #6, 2.125000000000001332 ) ;
#890 = VECTOR ( 'NONE', #532, 1000.000000000000000 ) ;
#891 = CARTESIAN_POINT ( 'NONE',  ( 9.934999999999998721, -4.800056306102291614, 4.000000000000000000 ) ) ;
#892 = EDGE_LOOP ( 'NONE', ( #344, #556, #797, #94, #284, #701, #390, #1084 ) ) ;
#893 = LINE ( 'NONE', #29, #80 ) ;
#894 = FACE_OUTER_BOUND ( 'NONE', #731, .T. ) ;
#895 = ORIENTED_EDGE ( 'NONE', *, *, #465, .T. ) ;
#896 = CARTESIAN_POINT ( 'NONE',  ( -11.49999999999999645, -2.800056306102291614, 0.000000000000000000 ) ) ;
#897 = VERTEX_POINT ( 'NONE', #486 ) ;
#898 = DIRECTION ( 'NONE',  ( 0.000000000000000000, 0.000000000000000000, 1.000000000000000000 ) ) ;
#899 = EDGE_CURVE ( 'NONE', #1009, #104, #410, .T. ) ;
#900 = CARTESIAN_POINT ( 'NONE',  ( 8.439999999999997726, -2.800056306102291614, -5.640020000000000699 ) ) ;
#901 = LINE ( 'NONE', #66, #125 ) ;
#902 = ORIENTED_EDGE ( 'NONE', *, *, #130, .T. ) ;
#903 = DIRECTION ( 'NONE',  ( 0.000000000000000000, 1.000000000000000000, -0.000000000000000000 ) ) ;
#904 = DIRECTION ( 'NONE',  ( -1.000000000000000000, 0.000000000000000000, 0.000000000000000000 ) ) ;
#905 = ORIENTED_EDGE ( 'NONE', *, *, #465, .F. ) ;
#906 = LINE ( 'NONE', #627, #1049 ) ;
#907 = CARTESIAN_POINT ( 'NONE',  ( 11.50000000000000355, 25.00000000000000711, 0.000000000000000000 ) ) ;
#908 = VERTEX_POINT ( 'NONE', #938 ) ;
#909 = EDGE_CURVE ( 'NONE', #194, #304, #402, .T. ) ;
#910 = VERTEX_POINT ( 'NONE', #311 ) ;
#911 = VECTOR ( 'NONE', #1060, 1000.000000000000000 ) ;
#912 = AXIS2_PLACEMENT_3D ( 'NONE', #837, #1107, #673 ) ;
#913 = DIRECTION ( 'NONE',  ( 1.000000000000000000, 0.000000000000000000, 0.000000000000000000 ) ) ;
#914 = FACE_OUTER_BOUND ( 'NONE', #1091, .T. ) ;
#915 = CARTESIAN_POINT ( 'NONE',  ( 0.000000000000000000, -19.99999999999999289, 0.000000000000000000 ) ) ;
#916 = VERTEX_POINT ( 'NONE', #667 ) ;
#917 = CARTESIAN_POINT ( 'NONE',  ( 0.000000000000000000, -19.99999999999999289, 0.000000000000000000 ) ) ;
#918 = DIRECTION ( 'NONE',  ( 1.000000000000000000, 0.000000000000000000, 0.000000000000000000 ) ) ;
#919 = ORIENTED_EDGE ( 'NONE', *, *, #503, .T. ) ;
#920 = ORIENTED_EDGE ( 'NONE', *, *, #392, .T. ) ;
#921 = CALENDAR_DATE ( 2025, 18, 6 ) ;
#922 = EDGE_CURVE ( 'NONE', #659, #641, #166, .T. ) ;
#923 = ORIENTED_EDGE ( 'NONE', *, *, #260, .F. ) ;
#924 = LINE ( 'NONE', #1090, #827 ) ;
#925 = ORIENTED_EDGE ( 'NONE', *, *, #849, .F. ) ;
#926 = APPROVAL_DATE_TIME ( #508, #662 ) ;
#927 = CARTESIAN_POINT ( 'NONE',  ( -9.934999999999998721, -7.170056306102291721, 4.000000000000000000 ) ) ;
#928 = AXIS2_PLACEMENT_3D ( 'NONE', #306, #24, #999 ) ;
#929 = VECTOR ( 'NONE', #855, 1000.000000000000000 ) ;
#930 = VERTEX_POINT ( 'NONE', #582 ) ;
#931 = DATE_AND_TIME ( #227, #677 ) ;
#932 = CARTESIAN_POINT ( 'NONE',  ( 0.000000000000000000, 20.00000000000000711, 4.000000000000000000 ) ) ;
#933 = FACE_OUTER_BOUND ( 'NONE', #970, .T. ) ;
#934 = EDGE_CURVE ( 'NONE', #1043, #805, #589, .T. ) ;
#935 = ORIENTED_EDGE ( 'NONE', *, *, #86, .T. ) ;
#936 = DIRECTION ( 'NONE',  ( 0.000000000000000000, -1.000000000000000000, -0.000000000000000000 ) ) ;
#937 = CALENDAR_DATE ( 2025, 18, 6 ) ;
#938 = CARTESIAN_POINT ( 'NONE',  ( -11.49999999999999645, 25.00000000000000711, 4.000000000000000000 ) ) ;
#939 = CARTESIAN_POINT ( 'NONE',  ( 8.439999999999997726, 0.000000000000000000, 0.000000000000000000 ) ) ;
#940 = ORIENTED_EDGE ( 'NONE', *, *, #431, .F. ) ;
#941 = EDGE_CURVE ( 'NONE', #916, #1052, #505, .T. ) ;
#942 = EDGE_CURVE ( 'NONE', #224, #467, #122, .T. ) ;
#943 = DIRECTION ( 'NONE',  ( 0.000000000000000000, 0.000000000000000000, 1.000000000000000000 ) ) ;
#944 = PLANE ( 'NONE',  #564 ) ;
#945 = EDGE_LOOP ( 'NONE', ( #719, #387, #971, #828 ) ) ;
#946 = VECTOR ( 'NONE', #1095, 1000.000000000000000 ) ;
#947 = VECTOR ( 'NONE', #257, 1000.000000000000000 ) ;
#948 = EDGE_CURVE ( 'NONE', #467, #813, #1044, .T. ) ;
#949 = DIRECTION ( 'NONE',  ( 1.000000000000000000, 0.000000000000000000, 0.000000000000000000 ) ) ;
#950 = LINE ( 'NONE', #89, #244 ) ;
#951 = ORIENTED_EDGE ( 'NONE', *, *, #273, .T. ) ;
#952 = LINE ( 'NONE', #875, #99 ) ;
#953 = EDGE_CURVE ( 'NONE', #78, #848, #162, .T. ) ;
#954 = PLANE ( 'NONE',  #586 ) ;
#955 = DIRECTION ( 'NONE',  ( 1.000000000000000000, 0.000000000000000000, 0.000000000000000000 ) ) ;
#956 = FACE_OUTER_BOUND ( 'NONE', #646, .T. ) ;
#957 = EDGE_LOOP ( 'NONE', ( #775, #675, #408, #885, #526, #1080 ) ) ;
#958 = DIRECTION ( 'NONE',  ( 0.000000000000000000, 1.000000000000000000, -0.000000000000000000 ) ) ;
#959 = EDGE_CURVE ( 'NONE', #930, #226, #524, .T. ) ;
#960 = VECTOR ( 'NONE', #563, 1000.000000000000000 ) ;
#961 = CARTESIAN_POINT ( 'NONE',  ( 11.50000000000000355, -5.200056306102291970, -5.640020000000000699 ) ) ;
#962 = FACE_OUTER_BOUND ( 'NONE', #1063, .T. ) ;
#963 = ORIENTED_EDGE ( 'NONE', *, *, #309, .F. ) ;
#964 = DIRECTION ( 'NONE',  ( -0.000000000000000000, -0.000000000000000000, 1.000000000000000000 ) ) ;
#965 = EDGE_CURVE ( 'NONE', #660, #1108, #174, .T. ) ;
#966 = CARTESIAN_POINT ( 'NONE',  ( -9.934999999999998721, -4.800056306102291614, 4.000000000000000000 ) ) ;
#967 = CARTESIAN_POINT ( 'NONE',  ( 9.934999999999998721, -7.170056306102291721, -5.640020000000000699 ) ) ;
#968 = ORIENTED_EDGE ( 'NONE', *, *, #552, .T. ) ;
#969 = CARTESIAN_POINT ( 'NONE',  ( -8.439999999999995950, -8.947424210352389551, 4.000000000000000000 ) ) ;
#970 = EDGE_LOOP ( 'NONE', ( #982, #133, #664, #411 ) ) ;
#971 = ORIENTED_EDGE ( 'NONE', *, *, #803, .F. ) ;
#972 = LINE ( 'NONE', #1085, #960 ) ;
#973 = LINE ( 'NONE', #967, #911 ) ;
#974 = ORIENTED_EDGE ( 'NONE', *, *, #922, .T. ) ;
#975 = CARTESIAN_POINT ( 'NONE',  ( 8.439999999999995950, -9.170056306102292609, 0.000000000000000000 ) ) ;
#976 = CARTESIAN_POINT ( 'NONE',  ( 0.000000000000000000, 0.000000000000000000, 4.000000000000000000 ) ) ;
#977 = ORIENTED_EDGE ( 'NONE', *, *, #1139, .F. ) ;
#978 = DIRECTION ( 'NONE',  ( -1.000000000000000000, 0.000000000000000000, -0.000000000000000000 ) ) ;
#979 = AXIS2_PLACEMENT_3D ( 'NONE', #438, #22, #710 ) ;
#980 = LINE ( 'NONE', #109, #280 ) ;
#981 = EDGE_CURVE ( 'NONE', #37, #323, #65, .T. ) ;
#982 = ORIENTED_EDGE ( 'NONE', *, *, #671, .F. ) ;
#983 = FACE_OUTER_BOUND ( 'NONE', #1104, .T. ) ;
#984 = CARTESIAN_POINT ( 'NONE',  ( 0.000000000000000000, 20.00000000000000711, 0.000000000000000000 ) ) ;
#985 = FACE_OUTER_BOUND ( 'NONE', #573, .T. ) ;
#986 = DIRECTION ( 'NONE',  ( 0.000000000000000000, 0.000000000000000000, 1.000000000000000000 ) ) ;
#987 = DIRECTION ( 'NONE',  ( 1.000000000000000000, -0.000000000000000000, -0.000000000000000000 ) ) ;
#988 = ORIENTED_EDGE ( 'NONE', *, *, #503, .F. ) ;
#989 = EDGE_CURVE ( 'NONE', #287, #258, #786, .T. ) ;
#990 = DIRECTION ( 'NONE',  ( -0.000000000000000000, 0.000000000000000000, 1.000000000000000000 ) ) ;
#991 = CARTESIAN_POINT ( 'NONE',  ( 8.439999999999995950, -8.947424210352389551, 4.000000000000000000 ) ) ;
#992 =( NAMED_UNIT ( * ) SI_UNIT ( $, .STERADIAN. ) SOLID_ANGLE_UNIT ( ) );
#993 = DIRECTION ( 'NONE',  ( 1.000000000000000000, 0.000000000000000000, 0.000000000000000000 ) ) ;
#994 = LINE ( 'NONE', #463, #336 ) ;
#995 = CARTESIAN_POINT ( 'NONE',  ( -8.439999999999995950, -7.170056306102291721, 4.000000000000000000 ) ) ;
#996 = ORIENTED_EDGE ( 'NONE', *, *, #479, .T. ) ;
#997 = VECTOR ( 'NONE', #542, 1000.000000000000000 ) ;
#998 = DIRECTION ( 'NONE',  ( -0.000000000000000000, -0.000000000000000000, -1.000000000000000000 ) ) ;
#999 = DIRECTION ( 'NONE',  ( 1.000000000000000000, 0.000000000000000000, -0.000000000000000000 ) ) ;
#1000 = DIRECTION ( 'NONE',  ( 1.000000000000000000, 0.000000000000000000, 0.000000000000000000 ) ) ;
#1001 = VERTEX_POINT ( 'NONE', #1059 ) ;
#1002 = ADVANCED_FACE ( 'NONE', ( #519 ), #1034, .F. ) ;
#1003 = APPROVAL_ROLE ( '' ) ;
#1004 = VERTEX_POINT ( 'NONE', #608 ) ;
#1005 = CARTESIAN_POINT ( 'NONE',  ( 0.000000000000000000, -4.800056306102291614, 4.000000000000000000 ) ) ;
#1006 = VERTEX_POINT ( 'NONE', #699 ) ;
#1007 = ORIENTED_EDGE ( 'NONE', *, *, #1123, .T. ) ;
#1008 = DIRECTION ( 'NONE',  ( 1.000000000000000000, 0.000000000000000000, 0.000000000000000000 ) ) ;
#1009 = VERTEX_POINT ( 'NONE', #437 ) ;
#1010 = PERSON_AND_ORGANIZATION ( #1038, #617 ) ;
#1011 = FACE_OUTER_BOUND ( 'NONE', #561, .T. ) ;
#1012 = DIRECTION ( 'NONE',  ( 1.000000000000000000, 0.000000000000000000, 0.000000000000000000 ) ) ;
#1013 = AXIS2_PLACEMENT_3D ( 'NONE', #595, #422, #773 ) ;
#1014 = CARTESIAN_POINT ( 'NONE',  ( -11.49999999999999645, -9.170056306102292609, -7.640020000000000699 ) ) ;
#1015 = VERTEX_POINT ( 'NONE', #791 ) ;
#1016 = AXIS2_PLACEMENT_3D ( 'NONE', #741, #763, #140 ) ;
#1017 = PERSON_AND_ORGANIZATION_ROLE ( 'design_supplier' ) ;
#1018 = CARTESIAN_POINT ( 'NONE',  ( 0.000000000000000000, 0.000000000000000000, -7.640020000000000699 ) ) ;
#1019 = VERTEX_POINT ( 'NONE', #1039 ) ;
#1020 = EDGE_CURVE ( 'NONE', #172, #549, #1133, .T. ) ;
#1021 = CARTESIAN_POINT ( 'NONE',  ( 0.000000000000000000, -4.800056306102291614, 4.000000000000000000 ) ) ;
#1022 = ORIENTED_EDGE ( 'NONE', *, *, #544, .F. ) ;
#1023 = CARTESIAN_POINT ( 'NONE',  ( 11.49999999999999645, -9.170056306102292609, -5.640020000000000699 ) ) ;
#1024 = DIRECTION ( 'NONE',  ( -0.000000000000000000, -0.000000000000000000, -1.000000000000000000 ) ) ;
#1025 = VECTOR ( 'NONE', #1062, 1000.000000000000000 ) ;
#1026 = CARTESIAN_POINT ( 'NONE',  ( 9.934999999999998721, -7.170056306102291721, 4.000000000000000000 ) ) ;
#1027 = EDGE_CURVE ( 'NONE', #145, #1135, #535, .T. ) ;
#1028 = CYLINDRICAL_SURFACE ( 'NONE', #1013, 12.30000000000000071 ) ;
#1029 = CARTESIAN_POINT ( 'NONE',  ( -8.439999999999997726, 8.947424210352387774, 0.000000000000000000 ) ) ;
#1030 = ORIENTED_EDGE ( 'NONE', *, *, #1020, .F. ) ;
#1031 = CARTESIAN_POINT ( 'NONE',  ( -8.439999999999995950, -8.947424210352389551, 0.000000000000000000 ) ) ;
#1032 = AXIS2_PLACEMENT_3D ( 'NONE', #426, #87, #346 ) ;
#1033 = EDGE_CURVE ( 'NONE', #1052, #1009, #1051, .T. ) ;
#1034 = PLANE ( 'NONE',  #301 ) ;
#1035 = CARTESIAN_POINT ( 'NONE',  ( -8.439999999999997726, 8.947424210352387774, 0.000000000000000000 ) ) ;
#1036 = ORIENTED_EDGE ( 'NONE', *, *, #803, .T. ) ;
#1037 = FACE_OUTER_BOUND ( 'NONE', #502, .T. ) ;
#1038 = PERSON ( 'UNSPECIFIED', 'UNSPECIFIED', 'UNSPECIFIED', ('UNSPECIFIED'), ('UNSPECIFIED'), ('UNSPECIFIED') ) ;
#1039 = CARTESIAN_POINT ( 'NONE',  ( -8.439999999999995950, -9.170056306102292609, -5.640020000000000699 ) ) ;
#1040 = APPROVAL ( #310, 'UNSPECIFIED' ) ;
#1041 = EDGE_LOOP ( 'NONE', ( #802, #180, #579, #25 ) ) ;
#1042 = CARTESIAN_POINT ( 'NONE',  ( 8.439999999999995950, -8.947424210352389551, 4.000000000000000000 ) ) ;
#1043 = VERTEX_POINT ( 'NONE', #155 ) ;
#1044 = LINE ( 'NONE', #442, #764 ) ;
#1045 = PLANE ( 'NONE',  #888 ) ;
#1046 = ORIENTED_EDGE ( 'NONE', *, *, #760, .F. ) ;
#1047 = VECTOR ( 'NONE', #866, 1000.000000000000000 ) ;
#1048 = CARTESIAN_POINT ( 'NONE',  ( -11.49999999999999645, -5.200056306102291970, -7.640020000000000699 ) ) ;
#1049 = VECTOR ( 'NONE', #468, 1000.000000000000000 ) ;
#1050 = VECTOR ( 'NONE', #352, 1000.000000000000000 ) ;
#1051 = LINE ( 'NONE', #961, #1094 ) ;
#1052 = VERTEX_POINT ( 'NONE', #71 ) ;
#1053 = LINE ( 'NONE', #412, #836 ) ;
#1054 = EDGE_CURVE ( 'NONE', #1108, #848, #952, .T. ) ;
#1055 = LINE ( 'NONE', #539, #1128 ) ;
#1056 = VERTEX_POINT ( 'NONE', #796 ) ;
#1057 = EDGE_CURVE ( 'NONE', #1056, #129, #1138, .T. ) ;
#1058 = ORIENTED_EDGE ( 'NONE', *, *, #953, .T. ) ;
#1059 = CARTESIAN_POINT ( 'NONE',  ( 8.439999999999997726, -4.800056306102291614, 4.000000000000000000 ) ) ;
#1060 = DIRECTION ( 'NONE',  ( -1.000000000000000000, 0.000000000000000000, 0.000000000000000000 ) ) ;
#1061 = ORIENTED_EDGE ( 'NONE', *, *, #849, .T. ) ;
#1062 = DIRECTION ( 'NONE',  ( 1.000000000000000000, 0.000000000000000000, 0.000000000000000000 ) ) ;
#1063 = EDGE_LOOP ( 'NONE', ( #1078, #12, #1131, #365, #176, #743, #651, #314 ) ) ;
#1064 = VERTEX_POINT ( 'NONE', #92 ) ;
#1065 = CARTESIAN_POINT ( 'NONE',  ( 0.000000000000000000, 0.000000000000000000, -5.640020000000000699 ) ) ;
#1066 = VECTOR ( 'NONE', #420, 1000.000000000000000 ) ;
#1067 = CARTESIAN_POINT ( 'NONE',  ( -8.439999999999995950, -9.170056306102292609, 0.000000000000000000 ) ) ;
#1068 = ORIENTED_EDGE ( 'NONE', *, *, #335, .T. ) ;
#1069 = ORIENTED_EDGE ( 'NONE', *, *, #1139, .T. ) ;
#1070 = VECTOR ( 'NONE', #703, 1000.000000000000000 ) ;
#1071 = ADVANCED_FACE ( 'NONE', ( #695, #261 ), #76, .F. ) ;
#1072 = LOCAL_TIME ( 11, 13, 18.00000000000000000, #850 ) ;
#1073 = LINE ( 'NONE', #10, #228 ) ;
#1074 = ORIENTED_EDGE ( 'NONE', *, *, #68, .T. ) ;
#1075 = DIRECTION ( 'NONE',  ( -0.000000000000000000, -0.000000000000000000, -1.000000000000000000 ) ) ;
#1076 = DIRECTION ( 'NONE',  ( -0.000000000000000000, -0.000000000000000000, -1.000000000000000000 ) ) ;
#1077 = ORIENTED_EDGE ( 'NONE', *, *, #516, .F. ) ;
#1078 = ORIENTED_EDGE ( 'NONE', *, *, #322, .F. ) ;
#1079 = DIRECTION ( 'NONE',  ( 0.000000000000000000, -1.000000000000000000, 0.000000000000000000 ) ) ;
#1080 = ORIENTED_EDGE ( 'NONE', *, *, #934, .F. ) ;
#1081 = EDGE_CURVE ( 'NONE', #1052, #226, #800, .T. ) ;
#1082 = CARTESIAN_POINT ( 'NONE',  ( -11.49999999999999645, 25.00000000000000711, 4.000000000000000000 ) ) ;
#1083 = CARTESIAN_POINT ( 'NONE',  ( 0.000000000000000000, -24.99999999999999289, 4.000000000000000000 ) ) ;
#1084 = ORIENTED_EDGE ( 'NONE', *, *, #105, .T. ) ;
#1085 = CARTESIAN_POINT ( 'NONE',  ( 2.125000000000000444, 20.00000000000000711, 0.000000000000000000 ) ) ;
#1086 = LINE ( 'NONE', #124, #229 ) ;
#1087 = LINE ( 'NONE', #475, #415 ) ;
#1088 = EDGE_CURVE ( 'NONE', #908, #1108, #8, .T. ) ;
#1089 = LINE ( 'NONE', #900, #523 ) ;
#1090 = CARTESIAN_POINT ( 'NONE',  ( -11.49999999999999645, 0.000000000000000000, 0.000000000000000000 ) ) ;
#1091 = EDGE_LOOP ( 'NONE', ( #819, #405, #277, #237 ) ) ;
#1092 = ORIENTED_EDGE ( 'NONE', *, *, #790, .F. ) ;
#1093 = VERTEX_POINT ( 'NONE', #891 ) ;
#1094 = VECTOR ( 'NONE', #170, 1000.000000000000000 ) ;
#1095 = DIRECTION ( 'NONE',  ( 0.000000000000000000, -1.000000000000000000, 0.000000000000000000 ) ) ;
#1096 = PLANE ( 'NONE',  #928 ) ;
#1097 = CARTESIAN_POINT ( 'NONE',  ( -11.49999999999999645, 25.00000000000000711, 0.000000000000000000 ) ) ;
#1098 = EDGE_LOOP ( 'NONE', ( #517, #919, #545, #886, #73 ) ) ;
#1099 = EDGE_CURVE ( 'NONE', #326, #224, #363, .T. ) ;
#1100 = SHAPE_DEFINITION_REPRESENTATION ( #312, #846 ) ;
#1101 = DIRECTION ( 'NONE',  ( 0.000000000000000000, 0.000000000000000000, 1.000000000000000000 ) ) ;
#1102 = LINE ( 'NONE', #939, #588 ) ;
#1103 = CARTESIAN_POINT ( 'NONE',  ( 8.439999999999997726, -2.800056306102291614, -5.640020000000000699 ) ) ;
#1104 = EDGE_LOOP ( 'NONE', ( #394, #762, #829, #220 ) ) ;
#1105 = EDGE_CURVE ( 'NONE', #490, #793, #1114, .T. ) ;
#1106 = DATE_AND_TIME ( #60, #102 ) ;
#1107 = DIRECTION ( 'NONE',  ( -0.000000000000000000, 0.000000000000000000, 1.000000000000000000 ) ) ;
#1108 = VERTEX_POINT ( 'NONE', #558 ) ;
#1109 = MANIFOLD_SOLID_BREP ( 'Boss-Extrude4', #403 ) ;
#1110 = EDGE_CURVE ( 'NONE', #697, #908, #38, .T. ) ;
#1111 = DIRECTION ( 'NONE',  ( 0.000000000000000000, 0.000000000000000000, 1.000000000000000000 ) ) ;
#1112 = ORIENTED_EDGE ( 'NONE', *, *, #147, .T. ) ;
#1113 = VECTOR ( 'NONE', #245, 1000.000000000000000 ) ;
#1114 = CIRCLE ( 'NONE', #825, 2.125000000000001332 ) ;
#1115 = EDGE_LOOP ( 'NONE', ( #680, #623, #141, #217, #592, #54 ) ) ;
#1116 = DIRECTION ( 'NONE',  ( 0.000000000000000000, 1.000000000000000000, -0.000000000000000000 ) ) ;
#1117 = DATE_TIME_ROLE ( 'classification_date' ) ;
#1118 = DIRECTION ( 'NONE',  ( 0.000000000000000000, -0.000000000000000000, -1.000000000000000000 ) ) ;
#1119 = ORIENTED_EDGE ( 'NONE', *, *, #738, .F. ) ;
#1120 = LINE ( 'NONE', #419, #416 ) ;
#1121 = DIRECTION ( 'NONE',  ( 0.000000000000000000, -0.000000000000000000, 1.000000000000000000 ) ) ;
#1122 = PLANE ( 'NONE',  #100 ) ;
#1123 = EDGE_CURVE ( 'NONE', #258, #78, #1086, .T. ) ;
#1124 = DIRECTION ( 'NONE',  ( 1.000000000000000000, 0.000000000000000000, 0.000000000000000000 ) ) ;
#1125 = ORIENTED_EDGE ( 'NONE', *, *, #942, .F. ) ;
#1126 = CARTESIAN_POINT ( 'NONE',  ( -11.49999999999999645, -5.200056306102291970, -5.640020000000000699 ) ) ;
#1127 = AXIS2_PLACEMENT_3D ( 'NONE', #1018, #1121, #500 ) ;
#1128 = VECTOR ( 'NONE', #272, 1000.000000000000000 ) ;
#1129 = CC_DESIGN_PERSON_AND_ORGANIZATION_ASSIGNMENT ( #845, #137, ( #232 ) ) ;
#1130 = CARTESIAN_POINT ( 'NONE',  ( 0.000000000000000000, -19.99999999999999289, 0.000000000000000000 ) ) ;
#1131 = ORIENTED_EDGE ( 'NONE', *, *, #760, .T. ) ;
#1132 = ORIENTED_EDGE ( 'NONE', *, *, #704, .T. ) ;
#1133 = LINE ( 'NONE', #880, #947 ) ;
#1134 = DIRECTION ( 'NONE',  ( -0.000000000000000000, 0.000000000000000000, -1.000000000000000000 ) ) ;
#1135 = VERTEX_POINT ( 'NONE', #821 ) ;
#1136 = CARTESIAN_POINT ( 'NONE',  ( 11.49999999999999645, -2.800056306102291614, -5.640020000000000699 ) ) ;
#1137 = ORIENTED_EDGE ( 'NONE', *, *, #830, .F. ) ;
#1138 = LINE ( 'NONE', #515, #603 ) ;
#1139 = EDGE_CURVE ( 'NONE', #897, #326, #816, .T. ) ;
ENDSEC;
END-ISO-10303-21;
